# ..:::Stalker models:::..
# WebSite: http://excalibur-craft.ru
mtllib tomb_6.mtl
o 1.002
v -0.086309 1.464374 -0.073212
v -0.096676 1.471898 -0.084869
v -0.036519 1.451420 -0.102237
v -0.038191 1.458480 -0.117964
v -0.096676 1.471898 -0.084869
v -0.085835 1.481673 -0.075240
v -0.038191 1.458480 -0.117964
v -0.029573 1.467061 -0.105423
v -0.086309 1.464374 -0.073212
v -0.036519 1.451420 -0.102237
v -0.085835 1.481673 -0.075240
v -0.029573 1.467061 -0.105423
v 0.011945 1.420095 -0.104360
v 0.019160 1.423511 -0.119731
v 0.019160 1.423511 -0.119731
v 0.024331 1.432247 -0.105535
v 0.011945 1.420095 -0.104360
v 0.024331 1.432247 -0.105535
v 0.042756 1.378398 -0.082100
v 0.056190 1.376164 -0.092803
v 0.056190 1.376164 -0.092803
v 0.057843 1.386336 -0.078740
v 0.042756 1.378398 -0.082100
v 0.057843 1.386336 -0.078740
v 0.069031 1.340096 -0.063582
v 0.075093 1.333304 -0.078317
v 0.086088 1.340372 -0.066803
v 0.075093 1.333304 -0.078317
v 0.069031 1.340096 -0.063582
v 0.086088 1.340372 -0.066803
v 0.066892 1.299219 -0.028700
v 0.074426 1.285793 -0.036637
v 0.074426 1.285793 -0.036637
v 0.083754 1.296066 -0.026135
v 0.066892 1.299219 -0.028700
v 0.083754 1.296066 -0.026135
v 0.066892 1.299219 -0.028700
v 0.074426 1.285793 -0.036637
v 0.046768 1.279779 0.015676
v 0.052432 1.263443 0.016707
v 0.074426 1.285793 -0.036637
v 0.083754 1.296066 -0.026135
v 0.052432 1.263443 0.016707
v 0.061250 1.276234 0.024509
v 0.066892 1.299219 -0.028700
v 0.046768 1.279779 0.015676
v 0.083754 1.296066 -0.026135
v 0.061250 1.276234 0.024509
v 0.013150 1.285000 0.053862
v 0.014203 1.270414 0.063143
v 0.014203 1.270414 0.063143
v 0.023823 1.284213 0.067474
v 0.023823 1.284213 0.067474
v 0.013150 1.285000 0.053862
v -0.025423 1.310116 0.072945
v -0.030237 1.301377 0.087103
v -0.030237 1.301377 0.087103
v -0.018785 1.314357 0.088349
v -0.018785 1.314357 0.088349
v -0.025423 1.310116 0.072945
v -0.059289 1.344299 0.070664
v -0.069336 1.343621 0.084756
v -0.069336 1.343621 0.084756
v -0.055644 1.354250 0.084322
v -0.059289 1.344299 0.070664
v -0.055644 1.354250 0.084322
v -0.080803 1.381193 0.042605
v -0.093767 1.388196 0.051709
v -0.093767 1.388196 0.051709
v -0.078173 1.395741 0.051540
v -0.080803 1.381193 0.042605
v -0.078173 1.395741 0.051540
v -0.099291 1.401240 -0.004709
v -0.086667 1.389409 -0.005508
v -0.082760 1.405999 -0.002780
v -0.099291 1.401240 -0.004709
v -0.082760 1.405999 -0.002780
v -0.086667 1.389409 -0.005508
v -0.086667 1.389409 -0.005508
v -0.099291 1.401240 -0.004709
v -0.078735 1.383577 -0.048994
v -0.087872 1.395830 -0.057142
v -0.082760 1.405999 -0.002780
v -0.071670 1.399022 -0.052001
v -0.099291 1.401240 -0.004709
v -0.087872 1.395830 -0.057142
v -0.082760 1.405999 -0.002780
v -0.086667 1.389409 -0.005508
v -0.071670 1.399022 -0.052001
v -0.078735 1.383577 -0.048994
v -0.072180 1.364906 -0.088397
v -0.058347 1.358215 -0.080405
v -0.072180 1.364906 -0.088397
v -0.056638 1.372217 -0.090308
v -0.056638 1.372217 -0.090308
v -0.058347 1.358215 -0.080405
v -0.055528 1.327291 -0.119044
v -0.043686 1.327495 -0.106406
v -0.043604 1.339770 -0.118488
v -0.055528 1.327291 -0.119044
v -0.043604 1.339770 -0.118488
v -0.043686 1.327495 -0.106406
v -0.015486 1.300475 -0.117800
v -0.019459 1.296133 -0.134090
v -0.009531 1.309887 -0.130922
v -0.019459 1.296133 -0.134090
v -0.009531 1.309887 -0.130922
v -0.015486 1.300475 -0.117800
v 0.013560 1.275976 -0.107429
v 0.018251 1.267847 -0.121987
v 0.025147 1.283125 -0.117941
v 0.018251 1.267847 -0.121987
v 0.025147 1.283125 -0.117941
v 0.013560 1.275976 -0.107429
v 0.032767 1.258371 -0.079633
v 0.044127 1.248028 -0.087632
v 0.047975 1.264568 -0.084713
v 0.044127 1.248028 -0.087632
v 0.047975 1.264568 -0.084713
v 0.032767 1.258371 -0.079633
v -0.096676 1.471898 -0.084869
v -0.086309 1.464374 -0.073212
v -0.085835 1.481673 -0.075240
v 0.047975 1.264568 -0.084713
v 0.032767 1.258371 -0.079633
v 0.044127 1.248028 -0.087632
vt 0.7657 0.7063
vt 0.7778 0.7063
vt 0.7657 0.7555
vt 0.7778 0.7555
vt 0.7778 0.7063
vt 0.7898 0.7063
vt 0.7778 0.7555
vt 0.7898 0.7555
vt 0.8018 0.7063
vt 0.8018 0.7555
vt 0.7898 0.7063
vt 0.7898 0.7555
vt 0.7657 0.8047
vt 0.7778 0.8047
vt 0.7778 0.8047
vt 0.7898 0.8047
vt 0.8018 0.8047
vt 0.7898 0.8047
vt 0.7657 0.8539
vt 0.7778 0.8539
vt 0.7778 0.8539
vt 0.7898 0.8539
vt 0.8018 0.8539
vt 0.7898 0.8539
vt 0.7657 0.9031
vt 0.7778 0.9031
vt 0.7898 0.9031
vt 0.7778 0.9031
vt 0.8018 0.9031
vt 0.7898 0.9031
vt 0.7657 0.9523
vt 0.7778 0.9523
vt 0.7778 0.9523
vt 0.7898 0.9523
vt 0.8018 0.9523
vt 0.7898 0.9523
vt 0.7657 0.6989
vt 0.7778 0.6989
vt 0.7657 0.7481
vt 0.7778 0.7481
vt 0.7778 0.6989
vt 0.7898 0.6989
vt 0.7778 0.7481
vt 0.7898 0.7481
vt 0.8018 0.6989
vt 0.8018 0.7481
vt 0.7898 0.6989
vt 0.7898 0.7481
vt 0.7657 0.7973
vt 0.7778 0.7973
vt 0.7778 0.7973
vt 0.7898 0.7973
vt 0.7898 0.7973
vt 0.8018 0.7973
vt 0.7657 0.8465
vt 0.7778 0.8465
vt 0.7778 0.8465
vt 0.7898 0.8465
vt 0.7898 0.8465
vt 0.8018 0.8465
vt 0.7657 0.8957
vt 0.7778 0.8957
vt 0.7778 0.8957
vt 0.7898 0.8957
vt 0.8018 0.8957
vt 0.7898 0.8957
vt 0.7657 0.9449
vt 0.7778 0.9449
vt 0.7778 0.9449
vt 0.7898 0.9449
vt 0.8018 0.9449
vt 0.7898 0.9449
vt 0.7778 0.9941
vt 0.7657 0.9941
vt 0.7898 0.9941
vt 0.7778 0.9941
vt 0.7898 0.9941
vt 0.8018 0.9941
vt 0.7657 0.6955
vt 0.7778 0.6955
vt 0.7657 0.7447
vt 0.7778 0.7447
vt 0.7898 0.6955
vt 0.7898 0.7447
vt 0.7778 0.6955
vt 0.7778 0.7447
vt 0.7898 0.6955
vt 0.8018 0.6955
vt 0.7898 0.7447
vt 0.8018 0.7447
vt 0.7778 0.7938
vt 0.7657 0.7938
vt 0.7778 0.7938
vt 0.7898 0.7938
vt 0.7898 0.7938
vt 0.8018 0.7938
vt 0.7778 0.8430
vt 0.7657 0.8430
vt 0.7898 0.8430
vt 0.7778 0.8430
vt 0.7898 0.8430
vt 0.8018 0.8430
vt 0.7657 0.8922
vt 0.7778 0.8922
vt 0.7898 0.8922
vt 0.7778 0.8922
vt 0.7898 0.8922
vt 0.8018 0.8922
vt 0.7657 0.9414
vt 0.7778 0.9414
vt 0.7898 0.9414
vt 0.7778 0.9414
vt 0.7898 0.9414
vt 0.8018 0.9414
vt 0.7657 0.9906
vt 0.7778 0.9906
vt 0.7898 0.9906
vt 0.7778 0.9906
vt 0.7898 0.9906
vt 0.8018 0.9906
vt 0.7717 0.7510
vt 0.7717 0.7166
vt 0.8015 0.7338
vt 0.8015 0.7338
vt 0.7717 0.7510
vt 0.7717 0.7166
vn -0.3749 -0.8944 -0.2439
vn -0.3829 -0.8759 -0.2935
vn -0.4323 -0.8515 -0.2968
vn -0.4690 -0.8113 -0.3490
vn -0.1641 0.7786 -0.6057
vn -0.1154 0.8133 -0.5703
vn 0.0463 0.7772 -0.6276
vn 0.2543 0.7436 -0.6184
vn 0.5183 0.0856 0.8509
vn 0.3801 0.0675 0.9225
vn 0.4937 0.0292 0.8692
vn 0.2177 0.0579 0.9743
vn -0.5399 -0.7515 -0.3792
vn -0.5360 -0.7162 -0.4470
vn 0.5521 0.5706 -0.6079
vn 0.7145 0.4864 -0.5029
vn -0.0190 0.1763 0.9842
vn -0.1816 0.2219 0.9580
vn -0.5543 -0.6687 -0.4956
vn -0.6710 -0.6120 -0.4186
vn 0.8064 0.3071 -0.5053
vn 0.8324 0.3979 -0.3857
vn -0.2989 0.2734 0.9143
vn -0.1709 0.2888 0.9420
vn -0.8238 -0.4470 -0.3487
vn -0.9102 -0.3149 -0.2689
vn 0.8463 -0.0910 -0.5248
vn 0.7652 -0.1862 -0.6163
vn -0.0073 0.4208 0.9071
vn 0.1071 0.5624 0.8199
vn -0.8979 -0.2321 -0.3739
vn -0.8597 -0.2703 -0.4335
vn 0.8084 -0.5146 -0.2858
vn 0.8125 -0.5768 -0.0844
vn 0.0841 0.7501 0.6560
vn 0.0405 0.8507 0.5241
vn -0.8979 -0.2321 -0.3740
vn -0.8094 -0.2708 -0.5211
vn -0.7682 -0.3377 -0.5439
vn 0.7003 -0.6775 0.2249
vn 0.6403 -0.6407 0.4237
vn 0.0841 0.7501 0.6559
vn 0.1151 0.9726 0.2020
vn 0.0406 0.8507 0.5242
vn 0.1185 0.9733 0.1964
vn -0.6992 -0.3848 -0.6025
vn -0.6716 -0.4603 -0.5805
vn 0.4366 -0.5741 0.6927
vn 0.3412 -0.4440 0.8285
vn 0.2696 0.9569 -0.1084
vn 0.3154 0.9161 -0.2474
vn -0.6152 -0.5270 -0.5863
vn -0.6198 -0.5785 -0.5303
vn 0.1191 -0.2514 0.9605
vn 0.0441 -0.0842 0.9955
vn 0.5352 0.7248 -0.4338
vn 0.5140 0.7443 -0.4264
vn -0.5947 -0.6314 -0.4977
vn -0.6178 -0.6482 -0.4453
vn -0.1479 0.1717 0.9740
vn -0.2020 0.3568 0.9121
vn 0.7438 0.4658 -0.4793
vn 0.8242 0.2975 -0.4818
vn -0.6240 -0.7357 -0.2635
vn -0.5999 -0.7506 -0.2769
vn -0.3454 0.7475 0.5674
vn -0.3586 0.7536 0.5510
vn 0.9585 0.0054 -0.2851
vn 0.9580 0.0029 -0.2867
vn -0.6737 -0.7350 -0.0772
vn -0.6846 -0.7282 -0.0340
vn -0.3308 0.9397 0.0866
vn -0.2369 0.9711 -0.0280
vn 0.9806 -0.1960 -0.0035
vn 0.9531 -0.2837 0.1051
vn -0.7217 -0.6886 0.0699
vn -0.8044 -0.5940 0.0089
vn -0.1911 0.8812 -0.4323
vn -0.0408 0.9013 -0.4312
vn 0.9806 -0.1959 -0.0035
vn 0.8940 -0.3052 0.3280
vn 0.9037 -0.1577 0.3981
vn -0.6721 -0.6768 0.3003
vn -0.5588 -0.7119 0.4254
vn -0.2827 0.6130 -0.7378
vn -0.3717 0.6062 -0.7031
vn 0.9046 0.0081 0.4263
vn 0.9271 0.1791 0.3293
vn -0.5394 -0.7106 0.4517
vn -0.5140 -0.7021 0.4929
vn -0.3222 0.4031 -0.8565
vn -0.2473 0.3263 -0.9123
vn 0.8753 0.3000 0.3792
vn 0.7752 0.4109 0.4799
vn -0.5717 -0.7232 0.3875
vn -0.6145 -0.7303 0.2982
vn 0.0127 0.1697 -0.9854
vn 0.1963 0.1270 -0.9723
vn 0.5530 0.5667 0.6108
vn 0.4222 0.6034 0.6765
vn -0.6914 -0.6867 0.2245
vn -0.6825 -0.7195 0.1285
vn 0.5038 -0.0414 -0.8628
vn 0.6561 -0.0573 -0.7525
vn 0.1759 0.7455 0.6429
vn 0.0296 0.7785 0.6270
vn -0.7065 -0.7026 0.0849
vn -0.6513 -0.7569 0.0539
vn 0.7704 -0.1247 -0.6253
vn 0.7769 -0.0703 -0.6257
vn -0.0925 0.8265 0.5553
vn -0.1267 0.7961 0.5918
vn -0.7101 0.1011 0.6968
vn 0.3964 -0.2482 0.8839
usemtl prop_vishka_01.002
s 1
f 1/1/1 2/2/2 3/3/3
f 3/3/3 2/2/2 4/4/4
f 5/5/5 6/6/6 7/7/7
f 7/7/7 6/6/6 8/8/8
f 9/9/9 10/10/10 11/11/11
f 11/11/11 10/10/10 12/12/12
f 3/3/3 4/4/4 13/13/13
f 13/13/13 4/4/4 14/14/14
f 7/7/7 8/8/8 15/15/15
f 15/15/15 8/8/8 16/16/16
f 10/10/10 17/17/17 12/12/12
f 12/12/12 17/17/17 18/18/18
f 13/13/13 14/14/14 19/19/19
f 19/19/19 14/14/14 20/20/20
f 15/15/15 16/16/16 21/21/21
f 21/21/21 16/16/16 22/22/22
f 17/17/17 23/23/23 18/18/18
f 18/18/18 23/23/23 24/24/24
f 19/19/19 20/20/20 25/25/25
f 25/25/25 20/20/20 26/26/26
f 22/22/22 27/27/27 21/21/21
f 21/21/21 27/27/27 28/28/28
f 23/23/23 29/29/29 24/24/24
f 24/24/24 29/29/29 30/30/30
f 25/25/25 26/26/26 31/31/31
f 31/31/31 26/26/26 32/32/32
f 28/28/28 27/27/27 33/33/33
f 33/33/33 27/27/27 34/34/34
f 29/29/29 35/35/35 30/30/30
f 30/30/30 35/35/35 36/36/36
f 37/37/37 38/38/32 39/39/38
f 39/39/38 38/38/32 40/40/39
f 41/41/33 42/42/34 43/43/40
f 43/43/40 42/42/34 44/44/41
f 45/45/42 46/46/43 47/47/44
f 47/47/44 46/46/43 48/48/45
f 39/39/38 40/40/39 49/49/46
f 49/49/46 40/40/39 50/50/47
f 43/43/40 44/44/41 51/51/48
f 51/51/48 44/44/41 52/52/49
f 48/48/45 46/46/43 53/53/50
f 53/53/50 46/46/43 54/54/51
f 49/49/46 50/50/47 55/55/52
f 55/55/52 50/50/47 56/56/53
f 51/51/48 52/52/49 57/57/54
f 57/57/54 52/52/49 58/58/55
f 53/53/50 54/54/51 59/59/56
f 59/59/56 54/54/51 60/60/57
f 55/55/52 56/56/53 61/61/58
f 61/61/58 56/56/53 62/62/59
f 57/57/54 58/58/55 63/63/60
f 63/63/60 58/58/55 64/64/61
f 60/60/57 65/65/62 59/59/56
f 59/59/56 65/65/62 66/66/63
f 61/61/58 62/62/59 67/67/64
f 67/67/64 62/62/59 68/68/65
f 63/63/60 64/64/61 69/69/66
f 69/69/66 64/64/61 70/70/67
f 65/65/62 71/71/68 66/66/63
f 66/66/63 71/71/68 72/72/69
f 68/68/65 73/73/70 67/67/64
f 67/67/64 73/73/70 74/74/71
f 70/70/67 75/75/72 69/69/66
f 69/69/66 75/75/72 76/76/73
f 72/72/69 71/71/68 77/77/74
f 77/77/74 71/71/68 78/78/75
f 79/79/71 80/80/70 81/81/76
f 81/81/76 80/80/70 82/82/77
f 83/83/72 84/84/78 85/85/73
f 85/85/73 84/84/78 86/86/79
f 87/87/80 88/88/75 89/89/81
f 89/89/81 88/88/75 90/90/82
f 82/82/77 91/91/83 81/81/76
f 81/81/76 91/91/83 92/92/84
f 86/86/79 84/84/78 93/93/85
f 93/93/85 84/84/78 94/94/86
f 89/89/81 90/90/82 95/95/87
f 95/95/87 90/90/82 96/96/88
f 91/91/83 97/97/89 92/92/84
f 92/92/84 97/97/89 98/98/90
f 94/94/86 99/99/91 93/93/85
f 93/93/85 99/99/91 100/100/92
f 95/95/87 96/96/88 101/101/93
f 101/101/93 96/96/88 102/102/94
f 98/98/90 97/97/89 103/103/95
f 103/103/95 97/97/89 104/104/96
f 99/99/91 105/105/97 100/100/92
f 100/100/92 105/105/97 106/106/98
f 101/101/93 102/102/94 107/107/99
f 107/107/99 102/102/94 108/108/100
f 103/103/95 104/104/96 109/109/101
f 109/109/101 104/104/96 110/110/102
f 105/105/97 111/111/103 106/106/98
f 106/106/98 111/111/103 112/112/104
f 107/107/99 108/108/100 113/113/105
f 113/113/105 108/108/100 114/114/106
f 109/109/101 110/110/102 115/115/107
f 115/115/107 110/110/102 116/116/108
f 111/111/103 117/117/109 112/112/104
f 112/112/104 117/117/109 118/118/110
f 113/113/105 114/114/106 119/119/111
f 119/119/111 114/114/106 120/120/112
f 121/121/113 122/122/113 123/123/113
f 124/124/114 125/125/114 126/126/114
o 0.004
v 0.623022 1.200642 -0.009105
v 0.233146 1.272968 -0.027533
v 0.572228 1.254748 -0.011302
v 0.193656 1.319243 -0.018540
v 0.643098 1.169162 0.030572
v 0.249020 1.237659 0.002575
v 0.643098 1.169162 0.030572
v 0.617338 1.184008 0.077854
v 0.249020 1.237659 0.002575
v 0.229324 1.239903 0.049111
v 0.565140 1.234005 0.097134
v 0.188890 1.278013 0.077033
v 0.565140 1.234005 0.097134
v 0.525810 1.281501 0.073896
v 0.188890 1.278013 0.077033
v 0.158165 1.323288 0.065315
v 0.528964 1.290733 0.025637
v 0.160286 1.341637 0.022781
v 0.528964 1.290733 0.025637
v 0.160286 1.341637 0.022781
v 0.623022 1.200642 -0.009105
v 0.572228 1.254748 -0.011302
v 0.582229 1.230686 0.040669
v 0.643098 1.169162 0.030572
v 0.617338 1.184008 0.077854
v 0.565140 1.234005 0.097134
v 0.525810 1.281501 0.073896
v 0.528964 1.290733 0.025637
v -0.595834 1.484616 -0.001440
v -0.580787 1.456041 -0.022223
v -0.591438 1.446718 0.023831
v -0.573760 1.420444 -0.008327
v -0.580045 1.404633 0.029785
v -0.594909 1.420513 0.063413
v -0.607160 1.456126 0.067235
v -0.607571 1.484654 0.038373
v -0.594909 1.420513 0.063413
v -0.607160 1.456126 0.067235
v -0.580045 1.404633 0.029785
v -0.594909 1.420513 0.063413
v 0.028434 1.286664 -0.000348
v -0.039308 1.301713 -0.001246
v -0.573760 1.420444 -0.008327
v -0.024979 1.333157 0.015106
v -0.039308 1.301713 -0.001246
v -0.063697 1.339735 -0.025596
v -0.055134 1.371357 -0.013151
v -0.028176 1.376739 0.026608
v 0.044001 1.350591 -0.015299
v -0.024979 1.333157 0.015106
v -0.607571 1.484654 0.038373
v -0.028176 1.376739 0.026608
v -0.028176 1.376739 0.026608
v 0.052188 1.313670 -0.026352
v 0.028434 1.286664 -0.000348
v -0.039308 1.301713 -0.001246
v -0.573760 1.420444 -0.008327
v -0.580787 1.456041 -0.022223
v -0.595834 1.484616 -0.001440
v -0.607571 1.484654 0.038373
v 0.028434 1.286664 -0.000348
v -0.028176 1.376739 0.026608
v -0.012421 -0.550189 -0.113730
v -0.028312 0.760061 -0.119467
v 0.043351 -0.435855 -0.103846
v 0.024835 0.810145 -0.103776
v -0.058544 -0.603448 -0.071011
v -0.076876 0.736071 -0.087061
v -0.060286 -0.555528 -0.007857
v -0.084286 0.756240 -0.030960
v -0.060286 -0.555528 -0.007857
v -0.016336 -0.442513 0.028176
v -0.084286 0.756240 -0.030960
v -0.044963 0.805381 0.006591
v 0.040211 -0.349506 0.009954
v 0.011483 0.846489 -0.002685
v 0.066774 -0.346543 -0.048801
v 0.042546 0.848609 -0.051803
v -0.012421 -0.550189 -0.113730
v 0.043351 -0.435855 -0.103846
v 0.000393 -0.469083 -0.043873
v -0.058544 -0.603448 -0.071011
v -0.060286 -0.555528 -0.007857
v -0.016336 -0.442513 0.028176
v 0.040211 -0.349506 0.009954
v 0.066774 -0.346543 -0.048801
v 0.023180 1.979690 -0.097226
v -0.026436 1.989516 -0.094235
v 0.000868 1.981249 -0.043291
v -0.055491 1.993116 -0.052883
v -0.042107 1.987780 -0.004307
v 0.003639 1.977526 0.014913
v 0.047298 1.970075 -0.009695
v 0.055995 1.971039 -0.059602
v 0.003639 1.977526 0.014913
v 0.047298 1.970075 -0.009695
v -0.042107 1.987780 -0.004307
v -0.055491 1.993116 -0.052883
v -0.042107 1.987780 -0.004307
v -0.026436 1.989516 -0.094235
v 0.023180 1.979690 -0.097226
v 0.055995 1.971039 -0.059602
vt 1.0470 0.6982
vt 1.0493 0.8295
vt 1.0337 0.7262
vt 1.0366 0.8515
vt 1.0635 0.6846
vt 1.0647 0.8185
vt 1.0358 0.3705
vt 1.0534 0.3813
vt 1.0370 0.5043
vt 1.0534 0.5123
vt 1.0679 0.4085
vt 1.0671 0.5332
vt 1.0379 0.5117
vt 1.0527 0.5347
vt 1.0371 0.6364
vt 1.0511 0.6547
vt 1.0704 0.5365
vt 1.0675 0.6567
vt 1.0184 0.7480
vt 1.0221 0.8682
vt 1.1317 0.1112
vt 1.1317 0.0914
vt 1.1453 0.0989
vt 1.1419 0.1217
vt 1.1546 0.1151
vt 1.1603 0.0962
vt 1.1546 0.0794
vt 1.1419 0.0772
vt 1.2256 0.0884
vt 1.2347 0.0928
vt 1.2256 0.1000
vt 1.2370 0.1026
vt 1.2306 0.1106
vt 1.2205 0.1106
vt 1.2142 0.1026
vt 1.2164 0.0928
vt 1.0356 0.8970
vt 1.0477 0.9052
vt 1.0534 0.7858
vt 1.0656 0.7938
vt 1.0377 0.5793
vt 1.0379 0.6023
vt 1.0395 0.7839
vt 1.0445 0.9160
vt 1.0656 0.9165
vt 1.0511 0.9296
vt 1.0385 0.9339
vt 1.0240 0.9298
vt 1.0378 0.9011
vt 1.0445 0.9160
vt 1.0615 0.9076
vt 1.0661 0.7183
vt 1.0240 0.9298
vt 1.0504 0.8905
vt 1.0654 0.8934
vt 1.0656 0.9165
vt 1.0672 1.0981
vt 1.0542 1.1038
vt 1.0427 1.1130
vt 1.0298 1.1191
vt 1.0654 0.8934
vt 1.0240 0.9298
vt 1.2078 0.0192
vt 1.2078 0.4336
vt 1.1899 0.0554
vt 1.1910 0.4495
vt 1.2277 0.0024
vt 1.2257 0.4261
vt 1.2476 0.0177
vt 1.2435 0.4326
vt 1.1129 0.0185
vt 1.1316 0.0539
vt 1.1212 0.4333
vt 1.1382 0.4485
vt 1.1508 0.0830
vt 1.1557 0.4613
vt 1.1712 0.0838
vt 1.1738 0.4617
vt 1.0721 0.0961
vt 1.0721 0.0706
vt 1.0857 0.0794
vt 1.0824 0.1090
vt 1.0951 0.0996
vt 1.1008 0.0750
vt 1.0951 0.0536
vt 1.0824 0.0517
vt 1.0172 0.5718
vt 1.0309 0.5785
vt 1.0172 0.5897
vt 1.0342 0.5936
vt 1.0248 0.6057
vt 1.0096 0.6057
vt 1.0002 0.5936
vt 1.0036 0.5785
vt 1.1445 0.8190
vt 1.1603 0.8164
vt 1.1289 0.8227
vt 1.2237 0.8238
vt 1.2397 0.8221
vt 1.2078 0.8227
vt 1.1921 0.8195
vt 1.1763 0.8166
vn -0.0505 -0.5333 -0.8444
vn -0.0413 -0.2773 -0.9599
vn 0.0911 0.3716 -0.9239
vn 0.1109 0.6202 -0.7766
vn -0.1529 -0.9656 -0.2103
vn -0.1609 -0.9214 -0.3539
vn -0.1529 -0.9656 -0.2104
vn -0.1697 -0.9029 0.3949
vn -0.1665 -0.8463 0.5060
vn -0.0943 -0.2669 0.9591
vn -0.0837 -0.2697 0.9593
vn 0.0664 0.7227 0.6880
vn -0.0837 -0.2696 0.9593
vn 0.0958 0.6202 0.7786
vn 0.1446 0.9486 -0.2815
vn 0.1575 0.9875 -0.0078
vn 0.1446 0.9486 -0.2814
vn 0.7141 0.6775 0.1763
vn -0.9189 -0.2870 -0.2706
vn -0.9189 -0.2871 -0.2706
vn -0.0646 -0.3113 0.9481
vn 0.0598 0.3310 0.9417
vn -0.2058 -0.9780 -0.0332
vn -0.2486 -0.7164 -0.6518
vn -0.1740 -0.8162 -0.5509
vn -0.1418 -0.6524 -0.7444
vn 0.6269 0.1931 -0.7548
vn 0.4502 0.2418 -0.8595
vn 0.3085 -0.1222 -0.9433
vn 0.4232 0.6443 -0.6370
vn -0.4370 0.1994 -0.8771
vn -0.1123 0.5965 -0.7947
vn -0.4743 0.0166 -0.8802
vn 0.1827 0.9523 0.2443
vn 0.1840 0.9806 0.0672
vn -0.2222 -0.0548 -0.9734
vn -0.2486 -0.7164 -0.6519
vn -0.1418 -0.6524 -0.7445
vn 0.0352 0.2199 -0.9749
vn 0.1795 0.8983 -0.4011
vn 0.1840 0.9806 0.0671
vn 0.1054 0.4206 -0.9011
vn 0.7962 0.2083 -0.5680
vn -0.3764 -0.0110 -0.9264
vn -0.2291 0.0106 -0.9733
vn 0.5030 0.0057 -0.8643
vn 0.6356 0.0124 -0.7719
vn -0.9097 -0.0174 -0.4150
vn -0.8716 -0.0018 -0.4902
vn -0.9724 -0.0119 0.2331
vn -0.9129 0.0063 0.4081
vn -0.3938 0.0081 0.9192
vn -0.9129 0.0063 0.4082
vn -0.2161 0.0069 0.9763
vn 0.4917 0.0233 0.8704
vn 0.6195 0.0020 0.7850
vn 0.9982 0.0212 0.0562
vn 0.9999 -0.0015 -0.0147
vn 0.8286 -0.4347 0.3527
vn 0.1971 0.9789 0.0532
vn 0.1971 0.9789 0.0533
vn 0.0989 -0.0053 0.9951
vn 0.8270 -0.0158 0.5620
vn -0.7308 0.0160 0.6824
vn -0.9343 0.0260 -0.3555
vn -0.7308 0.0161 0.6824
vn -0.2338 0.0145 -0.9722
vn 0.6372 -0.0019 -0.7707
vn 0.9627 -0.0134 -0.2702
usemtl wood_collect.004
s 1
f 127/127/115 128/128/116 129/129/117
f 129/129/117 128/128/116 130/130/118
f 131/131/119 132/132/120 127/127/115
f 127/127/115 132/132/120 128/128/116
f 133/133/121 134/134/122 135/135/120
f 135/135/120 134/134/122 136/136/123
f 134/134/122 137/137/124 136/136/123
f 136/136/123 137/137/124 138/138/125
f 139/139/124 140/140/126 141/141/127
f 141/141/127 140/140/126 142/142/128
f 143/143/129 144/144/130 140/140/126
f 140/140/126 144/144/130 142/142/128
f 129/129/117 130/130/118 145/145/131
f 145/145/131 130/130/118 146/146/130
f 147/147/132 148/148/132 149/149/132
f 150/150/132 147/147/132 149/149/132
f 151/151/132 150/150/132 149/149/132
f 152/152/132 151/151/132 149/149/132
f 153/153/132 152/152/132 149/149/132
f 154/154/132 153/153/132 149/149/132
f 148/148/132 154/154/132 149/149/132
f 155/155/133 156/156/133 157/157/133
f 156/156/133 158/158/133 157/157/133
f 158/158/133 159/159/133 157/157/133
f 159/159/133 160/160/134 157/157/133
f 160/160/134 161/161/133 157/157/133
f 161/161/133 162/162/133 157/157/133
f 162/162/133 155/155/133 157/157/133
f 141/141/127 142/142/128 163/163/135
f 163/163/135 142/142/128 164/164/136
f 136/136/123 138/138/125 165/165/137
f 165/165/137 138/138/125 166/166/135
f 136/136/123 165/165/137 135/135/120
f 135/135/120 165/165/137 167/167/138
f 167/167/138 165/165/137 168/168/139
f 165/165/137 169/169/140 168/168/139
f 170/170/141 171/171/142 172/172/143
f 170/170/141 172/172/143 173/173/144
f 174/174/145 175/175/146 176/176/147
f 164/164/136 142/142/128 177/177/148
f 144/144/130 178/178/149 142/142/128
f 142/142/128 178/178/149 177/177/148
f 130/130/118 175/175/146 146/146/130
f 146/146/130 175/175/146 179/179/149
f 128/128/116 180/180/150 130/130/118
f 130/130/118 180/180/150 175/175/146
f 132/132/120 181/181/151 128/128/116
f 128/128/116 181/181/151 180/180/150
f 182/182/139 183/183/152 172/172/143
f 172/172/143 183/183/152 184/184/153
f 172/172/143 184/184/153 173/173/144
f 173/173/144 184/184/153 185/185/154
f 179/179/155 173/173/144 186/186/148
f 186/186/148 173/173/144 185/185/154
f 175/175/146 180/180/150 176/176/147
f 170/170/141 187/187/156 171/171/142
f 180/180/150 181/181/151 176/176/147
f 188/188/157 170/170/141 173/173/144
f 189/189/158 190/190/159 191/191/160
f 191/191/160 190/190/159 192/192/161
f 193/193/162 194/194/163 189/189/158
f 189/189/158 194/194/163 190/190/159
f 193/193/162 195/195/164 194/194/163
f 194/194/163 195/195/164 196/196/165
f 197/197/164 198/198/166 199/199/167
f 199/199/167 198/198/166 200/200/168
f 198/198/166 201/201/169 200/200/168
f 200/200/168 201/201/169 202/202/170
f 201/201/169 203/203/171 202/202/170
f 202/202/170 203/203/171 204/204/172
f 191/191/160 192/192/161 203/203/171
f 203/203/171 192/192/161 204/204/172
f 205/205/173 206/206/173 207/207/173
f 208/208/173 205/205/173 207/207/173
f 209/209/173 208/208/173 207/207/173
f 210/210/173 209/209/173 207/207/173
f 211/211/173 210/210/173 207/207/173
f 212/212/173 211/211/173 207/207/173
f 206/206/173 212/212/173 207/207/173
f 213/213/174 214/214/174 215/215/174
f 214/214/174 216/216/174 215/215/174
f 216/216/174 217/217/174 215/215/174
f 217/217/174 218/218/174 215/215/174
f 218/218/174 219/219/175 215/215/174
f 219/219/175 220/220/174 215/215/174
f 220/220/174 213/213/174 215/215/174
f 200/200/168 202/202/170 221/221/176
f 221/221/176 202/202/170 222/222/177
f 199/199/167 200/200/168 223/223/178
f 223/223/178 200/200/168 221/221/176
f 194/194/163 196/196/165 224/224/179
f 224/224/179 196/196/165 225/225/180
f 194/194/163 224/224/179 190/190/159
f 190/190/159 224/224/179 226/226/181
f 190/190/159 226/226/181 192/192/161
f 192/192/161 226/226/181 227/227/182
f 192/192/161 227/227/182 204/204/172
f 204/204/172 227/227/182 228/228/183
f 202/202/170 204/204/172 222/222/177
f 222/222/177 204/204/172 228/228/183
