# ..:::Stalker models:::..
# WebSite: http://excalibur-craft.ru
mtllib tomb_2.mtl
o 2.001
v -0.499023 1.401999 0.061759
v 0.508642 1.454809 0.061759
v -0.508642 1.585529 0.061759
v 0.499023 1.638339 0.061759
v -0.499023 1.401999 0.022371
v -0.508642 1.585529 0.022371
v 0.508642 1.454809 0.022371
v 0.499023 1.638339 0.022371
v -0.499023 1.401999 0.061759
v -0.499023 1.401999 0.022371
v 0.508642 1.454809 0.061759
v 0.508642 1.454809 0.022371
v 0.508642 1.454809 0.061759
v 0.508642 1.454809 0.022371
v 0.499023 1.638339 0.061759
v 0.499023 1.638339 0.022371
v 0.499023 1.638339 0.061759
v 0.499023 1.638339 0.022371
v -0.508642 1.585529 0.061759
v -0.508642 1.585529 0.022371
v -0.508642 1.585529 0.061759
v -0.508642 1.585529 0.022371
v -0.499023 1.401999 0.061759
v -0.499023 1.401999 0.022371
v -0.361036 0.640631 0.083730
v 0.284366 0.282878 0.083730
v -0.285149 0.777534 0.083730
v 0.360253 0.419782 0.083730
v -0.361036 0.640631 0.028075
v -0.285149 0.777534 0.028075
v 0.284366 0.282878 0.028075
v 0.360253 0.419782 0.028075
v -0.361036 0.640631 0.083730
v -0.361036 0.640631 0.028075
v 0.284366 0.282878 0.083730
v 0.284366 0.282878 0.028075
v 0.284366 0.282878 0.083730
v 0.284366 0.282878 0.028075
v 0.360253 0.419782 0.083730
v 0.360253 0.419782 0.028075
v 0.360253 0.419782 0.083730
v 0.360253 0.419782 0.028075
v -0.285149 0.777534 0.083730
v -0.285149 0.777534 0.028075
v -0.285149 0.777534 0.083730
v -0.285149 0.777534 0.028075
v -0.361036 0.640631 0.083730
v -0.361036 0.640631 0.028075
v -0.112532 2.096634 -0.034439
v 0.122620 2.096044 -0.036558
v -0.111911 -0.078511 -0.034406
v 0.121758 -0.078511 -0.034406
v -0.112532 2.096634 -0.034439
v -0.111911 -0.078511 -0.034406
v -0.111911 2.096210 0.030743
v -0.111911 -0.078511 0.030743
v -0.111911 2.096210 0.030743
v -0.111911 -0.078511 0.030743
v 0.121758 2.096210 0.030743
v 0.121758 -0.078511 0.030743
v 0.121758 2.096210 0.030743
v 0.121758 -0.078511 0.030743
v 0.122620 2.096044 -0.036558
v 0.121758 -0.078511 -0.034406
v 0.122620 2.096044 -0.036558
v -0.112532 2.096634 -0.034439
v 0.121758 2.096210 0.030743
v -0.111911 2.096210 0.030743
vt -0.4548 0.5974
vt -0.4548 1.0449
vt -0.5368 0.5974
vt -0.5368 1.0449
vt -0.5368 0.5974
vt -0.4548 0.5974
vt -0.5368 1.0449
vt -0.4548 1.0449
vt -0.5046 0.5974
vt -0.4870 0.5974
vt -0.5046 1.0449
vt -0.4870 1.0449
vt -0.5046 0.7804
vt -0.4870 0.7804
vt -0.5046 0.8619
vt -0.4870 0.8619
vt -0.5046 0.5974
vt -0.4870 0.5974
vt -0.5046 1.0449
vt -0.4870 1.0449
vt -0.5046 0.7804
vt -0.4870 0.7804
vt -0.5046 0.8619
vt -0.4870 0.8619
vt -0.4716 0.0346
vt -0.4716 0.3619
vt -0.5415 0.0346
vt -0.5415 0.3619
vt -0.4716 0.3619
vt -0.5415 0.3619
vt -0.4716 0.0346
vt -0.5415 0.0346
vt -0.5190 0.0346
vt -0.4942 0.0346
vt -0.5190 0.3619
vt -0.4942 0.3619
vt -0.5190 0.1635
vt -0.4942 0.1635
vt -0.5190 0.2330
vt -0.4942 0.2330
vt -0.5190 0.0346
vt -0.4942 0.0346
vt -0.5190 0.3619
vt -0.4942 0.3619
vt -0.5190 0.1635
vt -0.4942 0.1635
vt -0.5190 0.2330
vt -0.4942 0.2330
vt -0.5683 0.9673
vt -0.6733 0.9670
vt -0.5683 0.0025
vt -0.6726 0.0025
vt -0.6354 0.9673
vt -0.6354 0.0025
vt -0.6063 0.9671
vt -0.6063 0.0025
vt -0.6730 0.9672
vt -0.6730 0.0026
vt -0.5687 0.9672
vt -0.5687 0.0026
vt -0.6358 0.9672
vt -0.6358 0.0026
vt -0.6058 0.9671
vt -0.6068 0.0026
vt -0.6058 0.4328
vt -0.6058 0.5371
vt -0.6358 0.4334
vt -0.6349 0.5371
vn 0.0000 -0.0000 1.0000
vn -0.0000 0.0000 -1.0000
vn 0.0523 -0.9986 0.0000
vn 0.9986 0.0523 0.0000
vn -0.0523 0.9986 0.0000
vn -0.9986 -0.0523 0.0000
vn -0.4848 -0.8746 0.0000
vn 0.8746 -0.4848 0.0000
vn 0.4848 0.8746 0.0000
vn -0.8746 0.4848 0.0000
vn -0.0090 -0.0000 -1.0000
vn -0.0045 -0.0005 -1.0000
vn 0.0000 -0.0010 -1.0000
vn -1.0000 -0.0003 0.0095
vn -1.0000 -0.0001 0.0047
vn -1.0000 -0.0001 0.0048
vn -1.0000 -0.0000 0.0000
vn 0.9999 -0.0000 0.0128
vn 1.0000 -0.0002 0.0064
vn 1.0000 -0.0004 0.0000
vn 0.0025 1.0000 -0.0024
vn 0.0012 1.0000 0.0020
vn 0.0012 1.0000 0.0021
vn 0.0000 1.0000 0.0065
usemtl wood_collect.001
s 1
f 1/1/1 2/2/1 3/3/1
f 3/3/1 2/2/1 4/4/1
f 5/5/2 6/6/2 7/7/2
f 7/7/2 6/6/2 8/8/2
f 9/9/3 10/10/3 11/11/3
f 11/11/3 10/10/3 12/12/3
f 13/13/4 14/14/4 15/15/4
f 15/15/4 14/14/4 16/16/4
f 17/17/5 18/18/5 19/19/5
f 19/19/5 18/18/5 20/20/5
f 21/21/6 22/22/6 23/23/6
f 23/23/6 22/22/6 24/24/6
f 25/25/1 26/26/1 27/27/1
f 27/27/1 26/26/1 28/28/1
f 29/29/2 30/30/2 31/31/2
f 31/31/2 30/30/2 32/32/2
f 33/33/7 34/34/7 35/35/7
f 35/35/7 34/34/7 36/36/7
f 37/37/8 38/38/8 39/39/8
f 39/39/8 38/38/8 40/40/8
f 41/41/9 42/42/9 43/43/9
f 43/43/9 42/42/9 44/44/9
f 45/45/10 46/46/10 47/47/10
f 47/47/10 46/46/10 48/48/10
f 49/49/11 50/50/12 51/51/12
f 51/51/12 50/50/12 52/52/13
f 53/53/14 54/54/15 55/55/16
f 55/55/16 54/54/15 56/56/17
f 57/57/1 58/58/1 59/59/1
f 59/59/1 58/58/1 60/60/1
f 61/61/18 62/62/19 63/63/19
f 63/63/19 62/62/19 64/64/20
f 65/65/21 66/66/22 67/67/23
f 67/67/23 66/66/22 68/68/24
o 1.001
v -0.094745 1.448377 0.073769
v 0.108438 1.458850 0.073769
v -0.101438 1.578214 0.073769
v 0.101746 1.588686 0.073769
v -0.118971 1.591317 0.077292
v 0.117840 1.603523 0.077292
v -0.125955 1.597262 0.061759
v 0.124175 1.610155 0.061759
v -0.117174 1.426909 0.061759
v 0.132956 1.439802 0.061759
v -0.110839 1.433541 0.077292
v 0.125972 1.445748 0.077292
v 0.125972 1.445748 0.077292
v 0.132956 1.439802 0.061759
v 0.117840 1.603523 0.077292
v 0.124175 1.610155 0.061759
v -0.117174 1.426909 0.061759
v -0.110839 1.433541 0.077292
v -0.125955 1.597262 0.061759
v -0.118971 1.591317 0.077292
v -0.110839 1.433541 0.077292
v 0.125972 1.445748 0.077292
v -0.101108 1.443834 0.077292
v 0.115235 1.454985 0.077292
v 0.125972 1.445748 0.077292
v 0.117840 1.603523 0.077292
v 0.115235 1.454985 0.077292
v 0.108109 1.593230 0.077292
v 0.117840 1.603523 0.077292
v -0.118971 1.591317 0.077292
v 0.108109 1.593230 0.077292
v -0.108234 1.582079 0.077292
v -0.118971 1.591317 0.077292
v -0.110839 1.433541 0.077292
v -0.108234 1.582079 0.077292
v -0.101108 1.443834 0.077292
v -0.101108 1.443834 0.077292
v 0.115235 1.454985 0.077292
v -0.094745 1.448377 0.073769
v 0.108438 1.458850 0.073769
v 0.108438 1.458850 0.073769
v 0.101746 1.588686 0.073769
v 0.108109 1.593230 0.077292
v -0.108234 1.582079 0.077292
v 0.101746 1.588686 0.073769
v -0.101438 1.578214 0.073769
v -0.101438 1.578214 0.073769
v -0.094745 1.448377 0.073769
vt 0.2297 0.3932
vt 0.4898 0.3932
vt 0.2297 0.5593
vt 0.4898 0.5593
vt 0.0540 0.9716
vt 0.4375 0.9716
vt 0.0432 0.9445
vt 0.4483 0.9445
vt 0.4483 0.9445
vt 0.0432 0.9445
vt 0.4375 0.9716
vt 0.0540 0.9716
vt 0.4381 0.9716
vt 0.4483 0.9445
vt 0.1826 0.9716
vt 0.1724 0.9445
vt 0.1724 0.9445
vt 0.1826 0.9716
vt 0.4483 0.9445
vt 0.4381 0.9716
vt 0.4375 0.9716
vt 0.0540 0.9716
vt 0.4210 0.9875
vt 0.0706 0.9875
vt 0.4381 0.9716
vt 0.1826 0.9716
vt 0.4223 0.9875
vt 0.1984 0.9875
vt 0.4375 0.9716
vt 0.0540 0.9716
vt 0.4210 0.9875
vt 0.0706 0.9875
vt 0.4381 0.9716
vt 0.1826 0.9716
vt 0.4223 0.9875
vt 0.1984 0.9875
vt 0.4210 0.9875
vt 0.0706 0.9875
vt 0.4103 0.9963
vt 0.0812 0.9963
vt 0.4155 0.9963
vt 0.2052 0.9963
vt 0.4210 0.9875
vt 0.0706 0.9875
vt 0.4103 0.9963
vt 0.0812 0.9963
vt 0.4155 0.9963
vt 0.2052 0.9963
vn 0.2427 0.0125 0.9700
vn -0.2427 -0.0125 0.9700
vn -0.0477 0.9255 0.3757
vn 0.0477 -0.9255 0.3757
vn 0.9177 0.0473 0.3945
vn -0.9177 -0.0473 0.3945
vn 0.0000 -0.0000 1.0000
vn 0.1939 0.0100 0.9810
vn -0.1204 -0.0062 0.9927
vn -0.1939 -0.0100 0.9810
vn 0.1204 0.0062 0.9927
vn 0.1940 0.0100 0.9810
vn -0.0330 0.6410 0.7669
vn 0.0330 -0.6408 0.7670
vn 0.0330 -0.6410 0.7669
vn 0.0330 -0.6410 0.7668
usemtl prop_vishka_01.001
s 1
f 69/69/25 70/70/26 71/71/25
f 71/71/25 70/70/26 72/72/26
f 73/73/27 74/74/27 75/75/27
f 75/75/27 74/74/27 76/76/27
f 77/77/28 78/78/28 79/79/28
f 79/79/28 78/78/28 80/80/28
f 81/81/29 82/82/29 83/83/29
f 83/83/29 82/82/29 84/84/29
f 85/85/30 86/86/30 87/87/30
f 87/87/30 86/86/30 88/88/30
f 89/89/31 90/90/31 91/91/32
f 91/91/32 90/90/31 92/92/33
f 93/93/31 94/94/31 95/95/33
f 95/95/33 94/94/31 96/96/34
f 97/97/31 98/98/31 99/99/34
f 99/99/34 98/98/31 100/100/35
f 101/101/31 102/102/31 103/103/35
f 103/103/35 102/102/31 104/104/36
f 105/105/37 106/106/37 107/107/37
f 107/107/37 106/106/37 108/108/37
f 95/95/33 96/96/34 109/109/26
f 109/109/26 96/96/34 110/110/26
f 111/111/38 112/112/39 113/113/38
f 113/113/38 112/112/39 114/114/40
f 103/103/35 104/104/36 115/115/25
f 115/115/25 104/104/36 116/116/25
