# ..:::Stalker models:::..
# WebSite: http://excalibur-craft.ru
mtllib concrete_block_4.mtl
o 1.024
v -0.300592 0.636131 -1.295940
v -0.169118 0.640827 -1.295510
v -0.151028 0.395266 -1.260445
v -0.309100 0.392440 -1.273630
v 0.149163 0.643367 0.637128
v 0.145906 0.509103 0.754102
v 0.293632 0.640622 0.652129
v 0.293562 0.262748 0.913749
v 0.293584 0.381318 0.729796
v 0.150220 0.389269 0.817088
v 0.155628 0.272996 0.981461
v 0.145392 0.493014 0.764270
v 0.156757 0.504414 0.760480
v -0.138036 0.495651 0.753489
v -0.151665 0.488454 0.758713
v -0.073184 0.388160 0.881258
v -0.151101 0.504381 0.746854
v -0.070778 0.643788 0.576738
v -0.297194 0.636812 0.628877
v -0.295614 0.384618 0.850237
v -0.294820 0.257693 1.054620
v -0.070065 0.269949 1.073510
v -0.294019 0.129853 1.236880
v -0.066563 0.137821 1.230555
v 0.161993 0.136349 1.187615
v 0.293538 0.131387 1.119855
v -0.293205 -0.000000 1.238370
v -0.062908 0.000737 1.284250
v 0.168301 0.001476 1.232980
v 0.293514 0.001877 1.161510
v -0.167680 0.171945 -1.068870
v -0.300991 0.170633 -1.051140
v -0.172289 0.024182 -0.968287
v -0.286992 0.023840 -0.859571
v 0.293434 0.643714 -1.295240
v 0.313995 0.403555 -1.221640
v 0.068418 0.399156 -1.242125
v 0.060096 0.645770 -1.295050
v 0.300662 0.176556 -1.095920
v 0.056630 0.174153 -1.098700
v 0.293392 0.032571 -1.071910
v 0.072985 0.025152 -1.075145
vt 0.0825 0.9125
vt 0.0760 0.7317
vt 0.4138 0.7068
vt 0.4177 0.9242
vt 0.3447 0.7244
vt 0.4403 0.5765
vt 0.4662 0.7950
vt 0.7281 0.4049
vt 0.6346 0.5933
vt 0.5257 0.4677
vt 0.6274 0.2952
vt 0.4515 0.5601
vt 0.4528 0.5767
vt 0.2423 0.4679
vt 0.2517 0.4810
vt 0.4059 0.3942
vt 0.2322 0.4815
vt 0.1390 0.6376
vt 0.0673 0.6353
vt 0.3932 0.6154
vt 0.6266 0.6056
vt 0.6276 0.3873
vt 0.8420 0.5968
vt 0.8240 0.3787
vt 0.7878 0.1617
vt 0.8402 0.1971
vt 0.9677 0.5895
vt 0.9644 0.3617
vt 0.9209 0.1364
vt 0.9276 0.0962
vt 0.7210 0.7297
vt 0.7228 0.9131
vt 0.9243 0.7361
vt 0.9247 0.8938
vt 0.0720 0.0955
vt 0.4024 0.0672
vt 0.4084 0.4050
vt 0.0692 0.4164
vt 0.7147 0.0855
vt 0.7180 0.4212
vt 0.9127 0.0955
vt 0.9229 0.3987
vn 0.0464 -0.1174 -0.9920
vn 0.0067 -0.1409 -0.9900
vn 0.0359 -0.3581 -0.9330
vn 0.0255 -0.5104 -0.8596
vn -0.1336 0.6528 0.7456
vn -0.0792 0.6523 0.7538
vn 0.0847 0.5651 0.8206
vn 0.3285 0.7889 0.5193
vn 0.4064 0.4008 0.8211
vn 0.3241 0.6684 0.6695
vn 0.2497 0.8090 0.5321
vn 0.2015 0.4667 0.8611
vn 0.2047 0.3597 0.9104
vn -0.0502 0.6559 0.7532
vn -0.0501 0.6911 0.7210
vn 0.0225 0.7699 0.6378
vn 0.0294 0.6745 0.7377
vn -0.0331 0.7291 0.6836
vn 0.0609 0.7006 0.7110
vn -0.0303 0.7177 0.6957
vn -0.0899 0.8366 0.5404
vn 0.0569 0.8153 0.5762
vn -0.0271 0.5833 0.8118
vn 0.0594 0.4543 0.8889
vn 0.3044 0.5767 0.7581
vn 0.3698 0.6557 0.6583
vn -0.0799 0.1869 0.9791
vn 0.0086 0.3649 0.9310
vn 0.2861 0.3314 0.8991
vn 0.4601 0.2869 0.8402
vn -0.1161 -0.5572 -0.8222
vn -0.2305 -0.6778 -0.6982
vn -0.3163 -0.6129 -0.7241
vn -0.4818 -0.7122 -0.5105
vn 0.0411 -0.2480 -0.9679
vn 0.0835 -0.3882 -0.9178
vn 0.0579 -0.3826 -0.9221
vn 0.0292 -0.1860 -0.9821
vn 0.0369 -0.4031 -0.9144
vn -0.0164 -0.3790 -0.9253
vn 0.0163 -0.1596 -0.9870
vn -0.1538 -0.2903 -0.9445
usemtl crete_beton_lom.002
s 1
f 1/1/1 2/2/2 3/3/3
f 3/3/3 4/4/4 1/1/1
f 5/5/5 6/6/6 7/7/7
f 8/8/8 9/9/9 10/10/10
f 10/10/10 11/11/11 8/8/8
f 12/12/12 9/9/9 13/13/13
f 12/12/12 10/10/10 9/9/9
f 14/14/14 15/15/15 16/16/16
f 12/12/12 16/16/16 10/10/10
f 17/17/17 18/18/18 19/19/19
f 20/20/20 17/17/17 19/19/19
f 20/20/20 16/16/16 15/15/15
f 16/16/16 20/20/20 21/21/21
f 21/21/21 22/22/22 16/16/16
f 16/16/16 22/22/22 11/11/11
f 11/11/11 10/10/10 16/16/16
f 17/17/17 20/20/20 15/15/15
f 23/23/23 24/24/24 22/22/22
f 22/22/22 21/21/21 23/23/23
f 22/22/22 24/24/24 25/25/25
f 25/25/25 11/11/11 22/22/22
f 11/11/11 25/25/25 26/26/26
f 26/26/26 8/8/8 11/11/11
f 27/27/27 28/28/28 24/24/24
f 24/24/24 23/23/23 27/27/27
f 24/24/24 28/28/28 29/29/29
f 29/29/29 25/25/25 24/24/24
f 25/25/25 29/29/29 30/30/30
f 30/30/30 26/26/26 25/25/25
f 31/31/31 32/32/32 4/4/4
f 4/4/4 3/3/3 31/31/31
f 33/33/33 34/34/34 32/32/32
f 32/32/32 31/31/31 33/33/33
f 35/35/35 36/36/36 37/37/37
f 37/37/37 38/38/38 35/35/35
f 37/37/37 36/36/36 39/39/39
f 39/39/39 40/40/40 37/37/37
f 40/40/40 39/39/39 41/41/41
f 41/41/41 42/42/42 40/40/40
f 38/38/38 37/37/37 3/3/3
f 3/3/3 2/2/2 38/38/38
f 3/3/3 37/37/37 40/40/40
f 40/40/40 31/31/31 3/3/3
f 31/31/31 40/40/40 42/42/42
f 42/42/42 33/33/33 31/31/31
f 7/7/7 13/13/13 9/9/9
f 13/13/13 7/7/7 6/6/6
f 14/14/14 16/16/16 12/12/12
f 14/14/14 12/12/12 6/6/6
f 14/14/14 6/6/6 17/17/17
f 18/18/18 17/17/17 6/6/6
f 18/18/18 6/6/6 5/5/5
o 2.011
v 0.133148 0.517583 0.910603
v 0.141840 0.526799 0.863313
v 0.145479 0.510217 0.862845
v 0.136250 0.500395 0.915017
v 0.133148 0.517583 0.910603
v 0.147567 0.513516 0.916141
v 0.156580 0.523344 0.866287
v 0.141840 0.526799 0.863313
v 0.147567 0.513516 0.916141
v 0.136250 0.500395 0.915017
v 0.145479 0.510217 0.862845
v 0.156580 0.523344 0.866287
v 0.151183 0.527640 0.812487
v 0.148625 0.521093 0.780119
v 0.149985 0.505467 0.790812
v 0.153435 0.510548 0.817868
v 0.151183 0.527640 0.812487
v 0.164173 0.523573 0.824285
v 0.159947 0.515096 0.783865
v 0.148625 0.521093 0.780119
v 0.153435 0.510548 0.817868
v 0.149985 0.505467 0.790812
v 0.159947 0.515096 0.783865
v 0.164173 0.523573 0.824285
v 0.136250 0.500395 0.915017
v 0.147567 0.513516 0.916141
v 0.133148 0.517583 0.910603
v -0.141694 0.507476 0.866504
v -0.149485 0.515263 0.837945
v -0.149044 0.499398 0.834961
v -0.138593 0.490291 0.870918
v -0.141694 0.507476 0.866504
v -0.128828 0.503412 0.868087
v -0.138751 0.512485 0.837368
v -0.149485 0.515263 0.837945
v -0.138593 0.490291 0.870918
v -0.149044 0.499398 0.834961
v -0.138751 0.512485 0.837368
v -0.128828 0.503412 0.868087
v -0.158938 0.517533 0.803290
v -0.154925 0.514044 0.772992
v -0.154307 0.498008 0.783605
v -0.156685 0.500442 0.808672
v -0.158938 0.517533 0.803290
v -0.145947 0.513469 0.815089
v -0.141615 0.506957 0.779953
v -0.154925 0.514044 0.772992
v -0.156685 0.500442 0.808672
v -0.154307 0.498008 0.783605
v -0.141615 0.506957 0.779953
v -0.145947 0.513469 0.815089
v -0.138593 0.490291 0.870918
v -0.128828 0.503412 0.868087
v -0.141694 0.507476 0.866504
v -0.151101 0.504381 0.746854
v -0.151665 0.488454 0.758713
v -0.138036 0.495651 0.753489
v -0.151101 0.504381 0.746854
v -0.151665 0.488454 0.758713
v -0.138036 0.495651 0.753489
v -0.156685 0.500442 0.808672
v -0.145947 0.513469 0.815089
v 0.145906 0.509103 0.754102
v 0.145392 0.493014 0.764270
v 0.156757 0.504414 0.760480
v 0.145906 0.509103 0.754102
v 0.145392 0.493014 0.764270
v 0.156757 0.504414 0.760480
v 0.164173 0.523573 0.824285
v 0.145479 0.510217 0.862845
vt 0.0876 0.9503
vt 0.0173 0.6676
vt 0.1260 0.6594
vt 0.2015 0.9714
vt 0.7020 0.9536
vt 0.6029 0.9791
vt 0.6050 0.6807
vt 0.7029 0.6705
vt 0.7057 0.6356
vt 0.8159 0.6160
vt 0.8159 0.9430
vt 0.7029 0.9487
vt 0.0000 0.3607
vt 0.0289 0.1620
vt 0.1339 0.2216
vt 0.1131 0.3876
vt 0.6812 0.3609
vt 0.5867 0.4246
vt 0.6159 0.1776
vt 0.7003 0.1629
vt 0.8056 0.2675
vt 0.8222 0.4352
vt 0.7278 0.4664
vt 0.7029 0.2156
vt 0.4850 0.7970
vt 0.5867 0.7540
vt 0.5867 0.8502
vt 0.4741 0.7275
vt 0.4181 0.5535
vt 0.5203 0.5348
vt 0.5867 0.7540
vt 0.3102 0.0139
vt 0.3964 0.0000
vt 0.3237 0.1878
vt 0.2528 0.1881
vt 1.0000 0.0000
vt 0.9846 0.2148
vt 0.8789 0.1922
vt 0.8938 0.0092
vt 0.3964 0.3422
vt 0.4205 0.1586
vt 0.5243 0.2224
vt 0.5079 0.3744
vt 0.2015 0.4012
vt 0.2853 0.3254
vt 0.3383 0.5378
vt 0.2434 0.5837
vt 0.9953 0.4244
vt 0.9790 0.5765
vt 0.8789 0.5893
vt 0.8914 0.3745
vt 0.4797 0.7540
vt 0.4797 0.8542
vt 0.3964 0.8303
vt 0.4843 0.0000
vt 0.5867 0.0713
vt 0.3964 0.6993
vt 0.2987 0.7427
vt 0.9953 0.7318
vt 0.8983 0.7549
vt 1.0000 0.3745
vt 0.8946 0.3277
vt 0.0950 0.0000
vt 0.2015 0.0561
vt 0.6228 0.0315
vt 0.7029 0.0000
vt 0.8789 0.6055
vt 0.7726 0.6160
vt 0.8789 0.0000
vt 0.2945 0.7427
vt 0.3148 1.0000
vt 0.2015 1.0000
vn -0.7197 0.6943 0.0075
vn -0.6944 0.7157 -0.0749
vn 0.0377 -0.9945 -0.0980
vn -0.2107 -0.9532 -0.2168
vn 0.9708 -0.1957 0.1385
vn 0.7747 0.5879 0.2330
vn -0.6945 0.7156 -0.0749
vn -0.2107 -0.9532 -0.2167
vn 0.0378 -0.9945 -0.0980
vn 0.7747 0.5879 0.2329
vn -0.5857 0.8027 -0.1125
vn -0.4878 0.8372 -0.2472
vn -0.6968 -0.6618 0.2766
vn -0.2754 -0.9613 0.0052
vn 0.9669 0.2482 0.0584
vn 0.9952 -0.0516 -0.0836
vn 0.9952 -0.0516 -0.0837
vn 0.9670 0.2482 0.0583
vn -0.3066 0.1845 0.9338
vn -0.5888 0.7195 0.3682
vn -0.5915 0.7634 0.2593
vn -0.2729 -0.9602 -0.0600
vn 0.3453 -0.8693 -0.3538
vn -0.5888 0.7196 0.3682
vn 0.9234 0.3266 -0.2019
vn 0.9124 0.3511 -0.2102
vn -0.5916 0.7634 0.2593
vn 0.3452 -0.8693 -0.3538
vn 0.9234 0.3266 -0.2018
vn -0.5833 0.8113 -0.0394
vn -0.4948 0.8147 -0.3024
vn -0.6843 -0.7248 0.0798
vn -0.3244 -0.9199 0.2203
vn 0.9417 0.3034 -0.1456
vn 0.9817 -0.0917 0.1668
vn -0.4947 0.8147 -0.3025
vn -0.6843 -0.7248 0.0799
vn 0.9817 -0.0918 0.1668
vn 0.9417 0.3034 -0.1455
vn -0.0431 0.2412 0.9695
vn -0.4383 0.8203 -0.3674
vn -0.4429 -0.8506 0.2834
vn 0.9028 0.4287 -0.0342
vn -0.4383 0.8203 -0.3673
vn -0.3244 -0.9199 0.2204
vn 0.9417 0.3033 -0.1456
vn -0.4532 0.8266 -0.3336
vn -0.3549 -0.8356 0.4194
vn 0.8708 0.3953 -0.2924
vn -0.3548 -0.8356 0.4194
usemtl mtl_arm_2
s 1
f 43/43/43 44/44/44 45/45/45
f 45/45/45 46/46/46 43/43/43
f 47/47/43 48/48/47 49/49/48
f 49/49/48 50/50/49 47/47/43
f 51/51/47 52/52/50 53/53/51
f 53/53/51 54/54/52 51/51/47
f 55/55/53 56/56/54 57/57/55
f 57/57/55 58/58/56 55/55/53
f 59/59/53 60/60/57 61/61/58
f 61/61/58 62/62/54 59/59/53
f 63/63/56 64/64/55 65/65/59
f 65/65/59 66/66/60 63/63/56
f 67/67/61 68/68/61 69/69/61
f 70/70/62 71/71/63 72/72/64
f 72/72/64 73/73/65 70/70/62
f 74/74/66 75/75/67 76/76/68
f 76/76/68 77/77/69 74/74/66
f 78/78/70 79/79/64 80/80/68
f 80/80/68 81/81/71 78/78/70
f 82/82/72 83/83/73 84/84/74
f 84/84/74 85/85/75 82/82/72
f 86/86/72 87/87/76 88/88/77
f 88/88/77 89/89/78 86/86/72
f 90/90/75 91/91/79 92/92/80
f 92/92/80 93/93/81 90/90/75
f 94/94/82 95/95/82 96/96/82
f 83/83/73 97/97/83 98/98/84
f 98/98/84 84/84/74 83/83/73
f 99/99/85 100/100/86 89/89/78
f 89/89/78 88/88/77 99/99/85
f 101/101/84 102/102/85 92/92/80
f 92/92/80 91/91/79 101/101/84
f 71/71/63 82/82/72 85/85/75
f 85/85/75 72/72/64 71/71/63
f 87/87/76 86/86/72 77/77/69
f 77/77/69 76/76/68 87/87/76
f 79/79/64 103/103/87 104/104/88
f 104/104/88 80/80/68 79/79/64
f 56/56/54 105/105/89 106/106/90
f 106/106/90 57/57/55 56/56/54
f 107/107/91 108/108/89 62/62/54
f 62/62/54 61/61/58 107/107/91
f 109/109/92 110/110/91 65/65/59
f 65/65/59 64/64/55 109/109/92
f 44/44/44 55/55/53 58/58/56
f 58/58/56 45/45/45 44/44/44
f 60/60/57 59/59/53 50/50/49
f 50/50/49 49/49/48 60/60/57
f 53/111/51 63/63/56 66/66/60
f 111/112/57 54/113/48 112/114/51
o 0.028
v 0.293392 0.032571 -1.071910
v 0.293514 0.001877 1.161510
v 0.072985 0.025152 -1.075145
v -0.062908 0.000737 1.284250
v -0.172289 0.024182 -0.968287
v -0.293205 -0.000000 1.238370
v -0.286992 0.023840 -0.859571
v 0.168301 0.001476 1.232980
v 0.293514 0.001877 1.161510
v 0.293392 0.032571 -1.071910
v 0.293538 0.131387 1.119855
v 0.293562 0.262748 0.913749
v 0.300662 0.176556 -1.095920
v 0.293584 0.381318 0.729796
v 0.293434 0.643714 -1.295240
v 0.293632 0.640622 0.652129
v 0.313995 0.403555 -1.221640
v -0.297194 0.636812 0.628877
v -0.300592 0.636131 -1.295940
v -0.295614 0.384618 0.850237
v -0.309100 0.392440 -1.273630
v -0.300991 0.170633 -1.051140
v -0.293205 -0.000000 1.238370
v -0.294019 0.129853 1.236880
v -0.286992 0.023840 -0.859571
v -0.294820 0.257693 1.054620
v -0.300592 0.636131 -1.295940
v -0.297194 0.636812 0.628877
v -0.169118 0.640827 -1.295510
v -0.070778 0.643788 0.576738
v 0.293632 0.640622 0.652129
v 0.293434 0.643714 -1.295240
v 0.149163 0.643367 0.637128
v 0.060096 0.645770 -1.295050
vt 0.5193 0.9276
vt 0.5166 0.0487
vt 0.6096 0.9286
vt 0.6624 0.0000
vt 0.7099 0.8863
vt 0.7567 0.0178
vt 0.7567 0.8434
vt 0.5678 0.0204
vt 0.5166 0.0000
vt 0.5166 0.8789
vt 0.4638 0.0171
vt 0.4112 0.0989
vt 0.4578 0.8892
vt 0.3637 0.1719
vt 0.2676 0.9701
vt 0.2579 0.2039
vt 0.3655 0.9399
vt 0.0000 0.7574
vt 0.0092 0.0000
vt 0.1022 0.8456
vt 0.1088 0.0099
vt 0.1986 0.0984
vt 0.2579 1.0000
vt 0.2048 0.9988
vt 0.2579 0.1744
vt 0.1533 0.9266
vt 0.7567 0.7666
vt 0.7581 0.0092
vt 0.8106 0.7664
vt 0.8508 0.0297
vt 1.0000 0.0000
vt 1.0000 0.7663
vt 0.9409 0.0059
vt 0.9045 0.7662
vn 0.0338 -0.9993 -0.0137
vn 0.0156 -0.9998 -0.0119
vn 0.0079 -0.9999 -0.0111
vn 0.0019 -0.9999 -0.0104
vn -0.0011 -0.9999 -0.0108
vn -0.0012 -0.9999 -0.0110
vn -0.0078 -0.9999 -0.0114
vn -0.0004 -0.9999 -0.0102
vn 1.0000 -0.0002 -0.0001
vn 0.9997 -0.0252 0.0011
vn 0.9999 -0.0151 0.0018
vn 1.0000 0.0050 0.0033
vn 0.9997 -0.0233 0.0047
vn 0.9999 -0.0151 0.0079
vn 0.9964 0.0853 0.0000
vn 0.9990 0.0442 0.0053
vn 0.9999 0.0117 0.0068
vn -1.0000 -0.0047 0.0018
vn -0.9999 0.0154 0.0041
vn -1.0000 -0.0003 0.0044
vn -1.0000 0.0026 0.0064
vn -0.9995 -0.0318 0.0034
vn -1.0000 -0.0063 -0.0030
vn -0.9994 -0.0338 0.0005
vn -0.9988 -0.0498 -0.0008
vn -1.0000 -0.0019 0.0030
vn -0.0357 0.9994 -0.0003
vn -0.0332 0.9994 -0.0001
vn -0.0290 0.9996 -0.0003
vn -0.0104 0.9999 0.0004
vn 0.0188 0.9998 0.0016
vn 0.0098 1.0000 0.0012
vn 0.0103 0.9999 0.0009
vn -0.0062 1.0000 0.0006
usemtl crete_walls_02.003
s 1
f 113/115/93 114/116/94 115/117/95
f 116/118/96 117/119/97 115/117/95
f 117/119/97 118/120/98 119/121/99
f 116/118/96 118/120/98 117/119/97
f 115/117/95 120/122/100 116/118/96
f 114/116/94 120/122/100 115/117/95
f 121/123/101 122/124/102 123/125/103
f 124/126/104 123/125/103 125/127/105
f 126/128/106 124/126/104 125/127/105
f 127/129/107 128/130/108 129/131/109
f 125/127/105 129/131/109 126/128/106
f 129/131/109 128/130/108 126/128/106
f 123/125/103 122/124/102 125/127/105
f 130/132/110 131/133/111 132/134/112
f 132/134/112 131/133/111 133/135/113
f 132/134/112 133/135/113 134/136/114
f 135/137/115 136/138/116 137/139/117
f 137/139/117 136/138/116 134/136/114
f 134/136/114 136/138/116 138/140/118
f 138/140/118 132/134/112 134/136/114
f 139/141/119 140/142/120 141/143/121
f 141/143/121 140/142/120 142/144/122
f 143/145/123 144/146/124 145/147/125
f 145/147/125 144/146/124 142/144/122
f 144/146/124 146/148/126 142/144/122
f 142/144/122 146/148/126 141/143/121
