# ..:::Stalker models:::..
# WebSite: http://excalibur-craft.ru
mtllib plita_1_kusok_1.mtl
o 0.029
v -0.130530 0.330580 1.251840
v -1.385611 0.330580 -0.003279
v -1.385600 -0.001890 -0.003280
v -0.024940 0.175430 1.357440
v -0.024940 -0.001890 1.357440
v 1.097980 0.330580 0.020150
v 0.939550 0.330580 -0.518530
v 0.610020 0.330580 -0.860750
v -0.130530 0.330580 1.251840
v 0.600950 0.330580 0.806950
v -1.385611 0.330580 -0.003279
v 0.050480 0.330580 1.357440
v 0.804860 0.330580 0.467270
v 0.242890 0.330580 -0.954330
v 0.979340 0.330580 0.428550
v 1.196040 0.330580 0.211830
v 1.196040 -0.001890 0.211830
v 1.196040 0.330580 0.211830
v 0.979340 0.330580 0.428550
v 0.872740 0.230840 0.535150
v 0.600950 0.330580 0.806950
v 0.050480 0.330580 1.357440
v 0.050480 -0.001890 1.357440
v -1.385611 0.330580 -0.003279
v -0.028190 0.186510 -1.360750
v -1.385600 -0.001890 -0.003280
v -0.088680 0.330580 -1.300260
v -0.038851 -0.001890 -1.323852
v -0.088680 0.330580 -1.300260
v -0.024940 -0.001890 1.357440
v -1.385600 -0.001890 -0.003280
v 0.939550 -0.001890 -0.518530
v -0.038851 -0.001890 -1.323852
v 0.201640 -0.001890 -1.177550
v 0.610020 -0.001890 -0.860750
v 1.097980 -0.001890 0.020150
v 0.050480 -0.001890 1.357440
v 1.196040 -0.001890 0.211830
vt 0.9990 0.0020
vt 0.9990 0.4990
vt 0.8770 0.4990
vt 0.4990 0.8770
vt 0.4990 0.9365
vt 0.0020 0.9365
vt 0.4990 0.6270
vt 0.0020 0.7490
vt 0.4990 0.7490
vt 0.6895 0.6240
vt 0.9365 0.6240
vt 0.9365 0.5020
vt 0.0010 0.6260
vt 0.0010 0.7480
vt 0.4980 0.6260
vt 0.8760 0.0010
vt 0.8760 0.4980
vt 0.9980 0.0010
vt 0.6885 0.6230
vt 0.6885 0.5010
vt 0.9355 0.5010
vt 0.0020 0.4990
vt 0.4990 0.4990
vt 0.4990 0.0020
vt 0.0020 0.6240
vt 0.4990 0.6240
vt 0.4990 0.5020
vt 0.6895 0.7490
vt 0.7490 0.7490
vt 0.7490 0.6270
vt 0.6240 0.7520
vt 0.5020 0.8115
vt 0.6240 0.8115
vt 0.6885 0.7480
vt 0.6885 0.6260
vt 0.7480 0.6260
vt 0.6230 0.7510
vt 0.5010 0.7510
vt 0.5010 0.8105
vt 0.5020 0.7490
vt 0.6240 0.7490
vt 0.6240 0.5020
vt 0.0020 0.8740
vt 0.4990 0.7520
vt 0.4990 0.8740
vt 0.6230 0.5010
vt 0.5010 0.7480
vt 0.5010 0.5010
vt 0.8740 0.4990
vt 0.8740 0.0020
vt 0.7520 0.4990
vt 0.4980 0.8760
vt 0.0010 0.8760
vt 0.0010 0.9355
vt 0.6865 0.5020
vt 0.6270 0.9990
vt 0.6865 0.9990
vt 0.7510 0.4980
vt 0.8730 0.0010
vt 0.7510 0.0010
vt 0.4980 0.7510
vt 0.0010 0.7510
vt 0.0010 0.8730
vt 0.0010 0.0010
vt 0.4980 0.0010
vt 0.0010 0.4980
vt 0.6260 0.9980
vt 0.6260 0.5010
vt 0.6855 0.5010
vt 0.7490 0.0020
vt 0.7490 0.4990
vt 0.5020 0.4990
vt 0.4980 0.5010
vt 0.0010 0.5010
vt 0.0010 0.6230
vt 0.7480 0.0010
vt 0.5010 0.0010
vt 0.5010 0.4980
vt 0.4990 0.9395
vt 0.0020 0.9990
vt 0.4990 0.9990
vt 0.4980 0.9385
vt 0.0010 0.9980
vt 0.0010 0.9385
vn -0.7071 0.0000 0.7071
vn -0.0000 1.0000 0.0000
vn 0.7071 -0.0000 0.7071
vn -0.7071 -0.0000 -0.7071
vn -0.7044 -0.0333 -0.7090
vn -0.7028 -0.0499 -0.7097
vn -0.6966 -0.0997 -0.7105
vn -0.0000 -1.0000 -0.0000
usemtl crete_walls_02.004
s 1
f 1/1/1 2/2/1 3/3/1
f 4/4/1 1/5/1 3/6/1
f 4/7/1 3/8/1 5/9/1
f 6/10/2 7/11/2 8/12/2
f 9/13/2 10/14/2 11/15/2
f 12/16/2 10/17/2 9/18/2
f 13/19/2 6/20/2 8/21/2
f 13/22/2 14/23/2 11/24/2
f 11/25/2 10/26/2 13/27/2
f 13/28/2 15/29/2 16/30/2
f 6/31/2 13/32/2 16/33/2
f 17/34/3 18/35/3 19/36/3
f 17/37/3 19/38/3 20/39/3
f 20/40/3 21/41/3 22/42/3
f 23/43/3 17/44/3 20/45/3
f 23/46/3 20/47/3 22/48/3
f 24/49/4 25/50/5 26/51/6
f 24/52/4 27/53/4 25/54/5
f 26/55/6 25/56/5 28/57/7
f 11/58/2 14/59/2 29/60/2
f 13/61/2 8/62/2 14/63/2
f 30/64/8 31/65/8 32/66/8
f 31/67/8 33/68/8 34/69/8
f 31/70/8 34/71/8 35/72/8
f 31/73/8 35/74/8 32/75/8
f 32/76/8 36/77/8 30/78/8
f 30/79/8 36/80/8 37/81/8
f 37/82/8 36/83/8 38/84/8
o 2.012
v 0.988490 0.190560 0.140380
v 0.996950 0.177170 0.153200
v 1.069040 0.159160 0.096060
v 1.059160 0.171920 0.084010
v 0.995170 0.156550 0.150180
v 1.068020 0.139590 0.092510
v 0.995170 0.156550 0.150180
v 0.984730 0.149440 0.134490
v 1.057290 0.132750 0.077050
v 1.068020 0.139590 0.092510
v 0.976260 0.162870 0.121810
v 1.047490 0.145460 0.065140
v 0.978320 0.183370 0.124610
v 1.048290 0.165070 0.068360
v 1.184610 0.162510 0.031400
v 1.176120 0.176080 0.017340
v 1.185200 0.141750 0.028590
v 1.177430 0.134490 0.011930
v 1.185200 0.141750 0.028590
v 1.169000 0.148030 -0.002010
v 1.168240 0.168860 0.000550
v 1.387370 0.199960 0.021960
v 1.390320 0.212200 0.007690
v 1.391460 0.181590 0.020530
v 1.397570 0.175260 0.005030
v 1.391460 0.181590 0.020530
v 1.400950 0.187350 -0.009430
v 1.396950 0.206040 -0.008430
v 1.664210 0.178140 0.133690
v 1.670550 0.191210 0.120100
v 1.665650 0.158120 0.130600
v 1.673410 0.151170 0.113940
v 1.665650 0.158120 0.130600
v 1.679750 0.164230 0.100350
v 1.678310 0.184250 0.103430
v 1.678310 0.184250 0.103430
v 1.670550 0.191210 0.120100
v 1.664210 0.178140 0.133690
v 1.665650 0.158120 0.130600
v 1.673410 0.151170 0.113940
v 1.679750 0.164230 0.100350
v 0.837530 0.212200 -0.570550
v 0.850550 0.199960 -0.564020
v 1.030110 0.178140 -0.802510
v 1.018630 0.191210 -0.812150
v 0.850230 0.181590 -0.568340
v 1.027510 0.158120 -0.804700
v 0.850230 0.181590 -0.568340
v 0.836840 0.175260 -0.578250
v 1.013430 0.151170 -0.816520
v 1.027510 0.158120 -0.804700
v 0.823740 0.187350 -0.585250
v 1.001940 0.164230 -0.826150
v 0.823680 0.206040 -0.581130
v 1.004550 0.184250 -0.823970
v 1.004550 0.184250 -0.823970
v 1.018630 0.191210 -0.812150
v 1.030110 0.178140 -0.802510
v 1.027510 0.158120 -0.804700
v 1.013430 0.151170 -0.816520
v 1.001940 0.164230 -0.826150
v 0.382070 0.212200 -0.965140
v 0.396030 0.199960 -0.960970
v 0.531450 0.178140 -1.227030
v 0.518470 0.191210 -1.234520
v 0.394960 0.181590 -0.965170
v 0.528510 0.158120 -1.228720
v 0.394960 0.181590 -0.965170
v 0.380060 0.175260 -0.972610
v 0.512590 0.151170 -1.237920
v 0.528510 0.158120 -1.228720
v 0.365940 0.187350 -0.977230
v 0.499600 0.164230 -1.245410
v 0.366590 0.206040 -0.973160
v 0.502550 0.184250 -1.243720
v 0.502550 0.184250 -1.243720
v 0.518470 0.191210 -1.234520
v 0.531450 0.178140 -1.227030
v 0.528510 0.158120 -1.228720
v 0.512590 0.151170 -1.237920
v 0.499600 0.164230 -1.245410
v 0.069150 0.212200 -1.189490
v 0.083100 0.199960 -1.185310
v 0.218520 0.178140 -1.451370
v 0.205540 0.191210 -1.458870
v 0.082030 0.181590 -1.189510
v 0.215580 0.158120 -1.453070
v 0.082030 0.181590 -1.189510
v 0.067120 0.175260 -1.196950
v 0.199650 0.151170 -1.462260
v 0.215580 0.158120 -1.453070
v 0.053020 0.187350 -1.201570
v 0.186680 0.164230 -1.469760
v 0.053660 0.206040 -1.197500
v 0.189610 0.184250 -1.468060
v 0.189610 0.184250 -1.468060
v 0.205540 0.191210 -1.458870
v 0.218520 0.178140 -1.451370
v 0.215580 0.158120 -1.453070
v 0.199650 0.151170 -1.462260
v 0.186680 0.164230 -1.469760
vt 0.2017 0.0144
vt 0.2325 0.0263
vt 0.1794 0.1298
vt 0.1503 0.1158
vt 0.6713 0.4896
vt 0.6366 0.4921
vt 0.5916 0.3683
vt 0.6247 0.3673
vt 0.4700 0.9600
vt 0.4410 0.9745
vt 0.3448 0.8694
vt 0.3733 0.8545
vt 0.6738 0.4289
vt 0.6923 0.4342
vt 0.6713 0.5626
vt 0.3320 0.8796
vt 0.7269 0.4325
vt 0.7042 0.5592
vt 0.1890 0.0000
vt 0.1374 0.1004
vt 0.0945 0.2955
vt 0.0620 0.2836
vt 0.5763 0.1952
vt 0.6111 0.1945
vt 0.2480 0.6928
vt 0.2785 0.6822
vt 0.2325 0.7007
vt 0.7269 0.7444
vt 0.6924 0.7485
vt 0.0480 0.2725
vt 0.0453 0.5854
vt 0.0140 0.5898
vt 0.6408 0.0000
vt 0.6713 0.0013
vt 0.2679 0.3735
vt 0.2954 0.3825
vt 0.5763 0.6793
vt 0.5534 0.6995
vt 0.5013 0.4220
vt 0.5211 0.4157
vt 0.5187 0.6977
vt 0.4700 0.4254
vt 0.6505 0.5104
vt 0.6713 0.4921
vt 0.6713 0.7331
vt 0.2152 0.9795
vt 0.1840 0.9888
vt 0.0630 0.5912
vt 0.2325 0.9815
vt 0.4404 0.0000
vt 0.4700 0.0113
vt 0.5550 0.0020
vt 0.5763 0.0000
vt 0.5216 0.0007
vt 0.0000 0.5994
vt 0.1701 1.0000
vt 0.6058 0.6623
vt 0.6346 0.6750
vt 0.6346 0.7027
vt 0.6058 0.7176
vt 0.5770 0.7050
vt 0.5770 0.6773
vt 0.7959 0.0102
vt 0.8263 0.0112
vt 0.8263 0.3644
vt 0.7941 0.3679
vt 0.8512 0.3492
vt 0.8816 0.3559
vt 0.8816 0.7792
vt 0.8480 0.7766
vt 0.9193 0.4246
vt 0.9489 0.4254
vt 0.9489 0.8492
vt 0.9164 0.8467
vt 0.9826 0.4307
vt 1.0000 0.4246
vt 1.0000 0.8525
vt 0.8304 0.3510
vt 0.8480 0.3492
vt 0.8480 0.7732
vt 0.9153 0.4283
vt 0.8845 0.4351
vt 0.8816 0.0025
vt 0.9153 0.0000
vt 0.7750 0.0000
vt 0.7724 0.3578
vt 0.5788 0.6185
vt 0.6067 0.6043
vt 0.6346 0.6192
vt 0.6346 0.6482
vt 0.6067 0.6623
vt 0.5788 0.6475
vt 0.8520 0.0102
vt 0.8816 0.0089
vt 0.8816 0.3435
vt 0.8504 0.3492
vt 0.9522 0.0000
vt 0.9826 0.0065
vt 0.9826 0.4245
vt 0.9489 0.4222
vt 0.6741 0.0062
vt 0.7037 0.0072
vt 0.7038 0.4289
vt 0.6713 0.4263
vt 0.7219 0.0000
vt 0.7219 0.4257
vt 0.9826 0.8416
vt 0.9518 0.8485
vt 0.9489 0.4270
vt 0.9826 0.4246
vt 0.8289 0.0000
vt 0.8263 0.3391
vt 0.6346 0.5067
vt 0.6346 0.5348
vt 0.6055 0.5482
vt 0.5763 0.5336
vt 0.5763 0.5055
vt 0.6055 0.4921
vt 0.7982 0.3781
vt 0.8278 0.3768
vt 0.8278 0.7114
vt 0.7965 0.7170
vt 0.9185 0.0000
vt 0.9489 0.0065
vt 0.9489 0.4246
vt 0.9153 0.4222
vt 0.7247 0.0062
vt 0.7542 0.0072
vt 0.7543 0.4289
vt 0.7219 0.4263
vt 0.7724 0.0000
vt 0.7724 0.4257
vt 0.7724 0.8460
vt 0.7416 0.8529
vt 0.7387 0.4314
vt 0.7724 0.4289
vt 0.7750 0.3679
vt 0.7724 0.7069
vt 0.6346 0.5628
vt 0.6346 0.5909
vt 0.6055 0.6043
vt 0.5763 0.5897
vt 0.5763 0.5616
vt 0.6055 0.5482
vn 0.3676 0.9154 0.1641
vn 0.6373 0.1495 0.7560
vn 0.5556 0.3498 0.7543
vn 0.1539 0.9834 0.0957
vn 0.2794 -0.7673 0.5773
vn 0.3999 -0.6384 0.6576
vn 0.2793 -0.7673 0.5773
vn -0.3561 -0.9174 -0.1775
vn -0.1490 -0.9837 -0.1002
vn -0.6388 -0.1554 -0.7535
vn -0.5529 -0.3571 -0.7528
vn -0.2678 0.7660 -0.5844
vn -0.4099 0.6344 -0.6554
vn 0.2129 0.3698 0.9044
vn -0.0903 0.9761 0.1975
vn 0.3059 -0.6095 0.7314
vn 0.0907 -0.9776 -0.1899
vn 0.3060 -0.6095 0.7314
vn -0.2073 -0.3760 -0.9031
vn -0.3052 0.6098 -0.7314
vn -0.2068 0.3491 0.9140
vn -0.1229 0.9780 0.1683
vn -0.0934 -0.6166 0.7817
vn 0.1268 -0.9795 -0.1564
vn 0.2094 -0.3605 -0.9090
vn 0.0985 0.6150 -0.7824
vn -0.2883 0.5074 0.8121
vn 0.0682 0.9975 0.0175
vn -0.3627 -0.4756 0.8014
vn -0.0817 -0.9966 -0.0138
vn -0.3628 -0.4756 0.8014
vn 0.2766 -0.5125 -0.8129
vn 0.3568 0.4672 -0.8090
vn 0.9064 -0.0002 0.4224
vn 0.9065 -0.0007 0.4223
vn 0.9065 -0.0002 0.4223
vn 0.9065 0.0000 0.4222
vn 0.9064 -0.0000 0.4224
vn 0.9062 0.0001 0.4229
vn 0.3321 0.9282 0.1677
vn 0.7952 0.1664 0.5831
vn 0.7098 0.5074 0.4886
vn 0.0346 0.9975 -0.0613
vn 0.4762 -0.7654 0.4329
vn 0.6803 -0.4754 0.5578
vn 0.4761 -0.7654 0.4329
vn -0.3289 -0.9323 -0.1507
vn -0.0345 -0.9966 0.0753
vn -0.7984 -0.1804 -0.5745
vn -0.7137 -0.5125 -0.4776
vn -0.4805 0.7665 -0.4261
vn -0.6890 0.4673 -0.5540
vn 0.6428 -0.0000 -0.7660
vn 0.6430 -0.0001 -0.7659
vn 0.6430 0.0001 -0.7659
vn 0.6429 0.0003 -0.7660
vn 0.6428 0.0001 -0.7661
vn 0.6422 -0.0002 -0.7666
vn 0.3562 0.9282 0.1075
vn 0.8843 0.1665 0.4361
vn 0.7838 0.5075 0.3579
vn 0.0235 0.9975 -0.0664
vn 0.5440 -0.7655 0.3437
vn 0.7668 -0.4754 0.4312
vn -0.3500 -0.9323 -0.0913
vn -0.0209 -0.9966 0.0802
vn 0.7669 -0.4754 0.4312
vn -0.8860 -0.1806 -0.4271
vn -0.7857 -0.5125 -0.3464
vn -0.5472 0.7665 -0.3362
vn -0.7748 0.4672 -0.4260
vn 0.4999 0.0000 -0.8661
vn 0.5002 0.0005 -0.8659
vn 0.5002 0.0000 -0.8659
vn 0.5005 -0.0004 -0.8657
vn 0.5000 -0.0002 -0.8660
vn 0.4992 -0.0004 -0.8665
vn 0.3562 0.9282 0.1074
vn 0.8844 0.1664 0.4361
vn 0.7839 0.5074 0.3579
vn 0.0234 0.9975 -0.0664
vn 0.7668 -0.4755 0.4312
vn -0.3504 -0.9321 -0.0915
vn -0.0211 -0.9966 0.0801
vn -0.8860 -0.1808 -0.4270
vn -0.7857 -0.5123 -0.3467
vn -0.5473 0.7665 -0.3362
vn -0.7750 0.4669 -0.4260
vn 0.5001 -0.0001 -0.8660
vn 0.4999 -0.0006 -0.8661
vn 0.4999 -0.0001 -0.8661
vn 0.4996 0.0002 -0.8662
vn 0.5001 0.0000 -0.8660
vn 0.5008 0.0002 -0.8656
usemtl mtl_arm_2.001
s 1
f 39/85/9 40/86/10 41/87/11
f 41/87/11 42/88/12 39/85/9
f 40/89/10 43/90/13 44/91/14
f 44/91/14 41/92/11 40/89/10
f 45/93/15 46/94/16 47/95/17
f 47/95/17 48/96/14 45/93/15
f 46/97/16 49/98/18 50/99/19
f 50/100/19 47/95/17 46/94/16
f 49/98/18 51/101/20 52/102/21
f 52/102/21 50/99/19 49/98/18
f 51/103/20 39/85/9 42/88/12
f 42/88/12 52/104/21 51/103/20
f 42/88/12 41/87/11 53/105/22
f 53/105/22 54/106/23 42/88/12
f 41/92/11 44/91/14 55/107/24
f 55/107/24 53/108/22 41/92/11
f 48/96/14 47/95/17 56/109/25
f 56/109/25 57/110/26 48/96/14
f 47/95/17 50/100/19 58/111/27
f 58/111/27 56/109/25 47/95/17
f 50/99/19 52/102/21 59/112/28
f 59/112/28 58/113/27 50/99/19
f 52/104/21 42/88/12 54/106/23
f 54/106/23 59/114/28 52/104/21
f 54/106/23 53/105/22 60/115/29
f 60/115/29 61/116/30 54/106/23
f 53/108/22 55/107/24 62/117/31
f 62/117/31 60/118/29 53/108/22
f 57/110/26 56/109/25 63/119/32
f 63/119/32 64/120/31 57/110/26
f 56/121/25 58/122/27 65/123/33
f 65/123/33 63/124/32 56/121/25
f 58/122/27 59/125/28 66/126/34
f 66/126/34 65/123/33 58/122/27
f 59/114/28 54/106/23 61/116/30
f 61/127/30 66/128/34 59/129/28
f 61/116/30 60/115/29 67/130/35
f 67/130/35 68/131/36 61/116/30
f 60/115/29 62/132/31 69/133/37
f 69/133/37 67/130/35 60/115/29
f 64/120/31 63/119/32 70/134/38
f 70/134/38 71/135/39 64/120/31
f 63/124/32 65/123/33 72/136/40
f 72/136/40 70/137/38 63/124/32
f 65/123/33 66/126/34 73/138/41
f 73/138/41 72/136/40 65/123/33
f 66/139/34 61/116/30 68/131/36
f 68/131/36 73/140/41 66/139/34
f 74/141/42 75/142/43 76/143/44
f 76/143/44 77/144/45 78/145/46
f 74/141/42 76/143/44 78/145/46
f 74/141/42 78/145/46 79/146/47
f 80/147/48 81/148/49 82/149/50
f 82/149/50 83/150/51 80/147/48
f 81/151/49 84/152/52 85/153/53
f 85/153/53 82/154/50 81/151/49
f 86/155/54 87/156/55 88/157/56
f 88/157/56 89/158/53 86/155/54
f 87/159/55 90/160/57 91/161/58
f 91/162/58 88/163/56 87/164/55
f 90/165/57 92/166/59 93/167/60
f 93/167/60 91/168/58 90/165/57
f 92/169/59 80/147/48 83/150/51
f 83/150/51 93/170/60 92/169/59
f 94/171/61 95/172/62 96/173/63
f 96/173/63 97/174/64 98/175/65
f 94/171/61 96/173/63 98/175/65
f 94/171/61 98/175/65 99/176/66
f 100/177/67 101/178/68 102/179/69
f 102/179/69 103/180/70 100/177/67
f 101/181/68 104/182/71 105/183/72
f 105/183/72 102/184/69 101/181/68
f 106/185/71 107/186/73 108/187/74
f 108/187/74 109/188/75 106/185/71
f 107/186/73 110/189/76 111/190/77
f 111/190/77 108/187/74 107/186/73
f 110/191/76 112/192/78 113/193/79
f 113/193/79 111/194/77 110/191/76
f 112/195/78 100/177/67 103/180/70
f 103/180/70 113/196/79 112/195/78
f 114/197/80 115/198/81 116/199/82
f 116/199/82 117/200/83 118/201/84
f 114/197/80 116/199/82 118/201/84
f 114/197/80 118/201/84 119/202/85
f 120/203/86 121/204/87 122/205/88
f 122/205/88 123/206/89 120/203/86
f 121/207/87 124/208/71 125/209/90
f 125/209/90 122/210/88 121/207/87
f 126/211/71 127/212/91 128/213/92
f 128/213/92 129/214/90 126/211/71
f 127/212/91 130/215/93 131/216/94
f 131/216/94 128/213/92 127/212/91
f 130/217/93 132/218/95 133/219/96
f 133/219/96 131/220/94 130/217/93
f 132/221/95 120/203/86 123/206/89
f 123/206/89 133/222/96 132/221/95
f 134/223/97 135/224/98 136/225/99
f 136/225/99 137/226/100 138/227/101
f 134/223/97 136/225/99 138/227/101
f 134/223/97 138/227/101 139/228/102
o 1.025
v 0.872740 0.230840 0.535150
v 0.979340 0.330580 0.428550
v 0.804860 0.330580 0.467270
v 0.600950 0.330580 0.806950
v -0.024940 -0.001890 1.357440
v 0.050480 -0.001890 1.357440
v 0.050480 0.330580 1.357440
v -0.024940 0.175430 1.357440
v -0.130530 0.330580 1.251840
v 0.242890 0.330580 -0.954330
v 0.610020 0.330580 -0.860750
v 0.610020 -0.001890 -0.860750
v 0.201640 -0.001890 -1.177550
v 1.097980 0.330580 0.020150
v 1.097980 -0.001890 0.020150
v 0.939550 -0.001890 -0.518530
v 0.939550 0.330580 -0.518530
v 1.196040 0.330580 0.211830
v 1.196040 -0.001890 0.211830
v -0.088680 0.330580 -1.300260
v -0.028190 0.186510 -1.360750
v -0.038851 -0.001890 -1.323852
vt 0.7295 0.1998
vt 0.5982 0.2606
vt 0.5419 0.1872
vt 0.7295 0.0000
vt 0.8976 0.0000
vt 1.0000 0.0005
vt 1.0000 0.1673
vt 0.8976 0.0889
vt 0.7295 0.1703
vt 0.5316 0.2436
vt 0.4529 0.4035
vt 0.0106 0.4016
vt 0.0487 0.1451
vt 0.5242 0.8957
vt 0.0819 0.8938
vt 0.0000 0.6406
vt 0.4423 0.6425
vt 0.5419 1.0000
vt 0.0996 0.9981
vt 0.5419 0.0025
vt 0.3196 0.0000
vt 0.0805 0.0089
vn 0.4165 0.6880 0.5943
vn 0.1682 0.6303 0.7579
vn 0.6267 0.6825 0.3762
vn 0.0000 0.0000 1.0000
vn -0.1693 0.0823 0.9821
vn -0.2552 0.1241 0.9589
vn -0.4894 0.2379 0.8390
vn 0.5161 0.2665 -0.8140
vn 0.5029 0.0000 -0.8644
vn 0.5863 0.1080 -0.8029
vn 0.6594 0.2824 -0.6968
vn 0.9400 -0.0000 -0.3412
vn 0.9168 0.0000 -0.3992
vn 0.9027 -0.0000 -0.4303
vn 0.8209 0.0000 -0.5710
vn 0.8903 -0.0000 -0.4554
vn 0.7208 0.4282 -0.5451
vn 0.6948 0.1675 -0.6994
vn 0.5100 -0.1930 -0.8383
usemtl crete_beton_lom.003
s 1
f 140/229/103 141/230/104 142/231/103
f 142/231/103 143/232/105 140/229/103
f 144/233/106 145/234/106 146/235/107
f 146/235/107 147/236/108 144/233/106
f 147/236/108 146/235/107 148/237/109
f 149/238/110 150/239/111 151/240/112
f 149/238/110 151/240/112 152/241/113
f 153/242/114 154/243/115 155/244/116
f 155/244/116 156/245/117 153/242/114
f 151/240/112 150/239/111 156/245/117
f 156/245/117 155/244/116 151/240/112
f 154/243/115 153/242/114 157/246/118
f 157/246/118 158/247/118 154/243/115
f 159/248/119 149/238/110 152/241/113
f 152/241/113 160/249/120 159/248/119
f 161/250/121 160/249/120 152/241/113
