# Blender v2.76 (sub 0) OBJ File: ''
# www.blender.org
mtllib Body.mtl
o Torso006
v -0.095563 1.148958 0.000000
v -0.115114 1.031108 0.190401
v -0.093086 1.031108 0.000000
v -0.117174 1.148958 0.204283
v -0.269880 1.040330 0.190401
v -0.312079 1.368519 0.211085
v -0.131485 1.266808 0.211178
v -0.124756 1.371977 0.218324
v -0.104681 1.371977 0.000000
v -0.112774 1.266808 0.000000
v -0.131485 1.477147 0.211178
v -0.112774 1.477147 0.000000
v -0.288574 1.470231 0.197174
v -0.297834 1.153569 0.204283
v -0.337239 1.266808 0.000000
v -0.313535 1.266808 0.211178
v -0.335487 1.368519 0.000000
v -0.284738 1.040330 0.000000
v -0.318355 1.153569 0.000000
v -0.150381 0.903559 -0.130734
v -0.136588 0.733503 -0.261467
v -0.150381 0.733503 -0.130734
v 0.147881 0.903559 -0.261467
v -0.136588 0.903559 -0.261467
v 0.147881 0.733503 -0.261467
v 0.168277 0.733503 -0.130734
v 0.168277 0.903559 -0.130734
v 0.173870 0.733503 0.000000
v 0.173870 0.903559 0.000000
v -0.157226 0.903559 0.000000
v -0.157226 0.733503 0.000000
v -0.149617 1.407851 -0.267714
v 0.153421 1.507627 -0.259820
v 0.163652 1.407851 -0.267714
v -0.136752 0.742378 -0.127541
v 0.127541 0.742378 -0.255083
v 0.143989 0.742378 -0.127541
v 0.199686 1.507627 -0.127541
v 0.209918 1.402562 -0.118457
v 0.156582 1.131600 -0.127541
v 0.147736 1.136549 -0.266136
v 0.194002 1.157075 -0.127541
v 0.127541 1.111074 -0.255083
v -0.142796 1.157391 -0.266136
v -0.127541 0.742378 -0.255083
v -0.127541 1.111074 -0.255083
v -0.139384 0.742378 0.000000
v -0.136752 1.131600 -0.127541
v 0.149471 0.742378 0.000000
v 0.162064 1.136337 0.000000
v 0.206528 1.161812 0.000000
v -0.139384 1.136337 0.000000
v -0.152007 1.177917 -0.127541
v -0.158828 1.413698 -0.127541
v -0.142796 1.507627 -0.259820
v -0.161459 1.415048 0.000000
v -0.152007 1.507627 -0.127541
v 0.222444 1.415048 0.000000
v 0.151198 1.507597 0.000000
v -0.154638 1.182654 0.000000
v 0.150775 1.216335 -0.020308
v 0.094328 1.187860 -0.248046
v 0.150775 1.169358 -0.020308
v 0.104343 1.294043 -0.207639
v 0.165203 1.186376 -0.274771
v 0.234363 1.216306 -0.035399
v 0.185558 1.297985 -0.232300
v 0.234363 1.166929 -0.035399
v 0.143698 1.352214 -0.045381
v 0.113751 1.325070 -0.197156
v 0.148340 1.241293 -0.021856
v 0.199812 1.347329 -0.198861
v 0.116652 1.347329 -0.182453
v 0.226858 1.352214 -0.061790
v 0.196911 1.325070 -0.213564
v 0.231500 1.241293 -0.038265
v -0.115114 1.031108 -0.190400
v -0.117174 1.148958 -0.204283
v -0.269880 1.040330 -0.190400
v -0.297834 1.153569 -0.204283
v -0.131485 1.266808 -0.211178
v -0.312079 1.368519 -0.211085
v -0.124756 1.371978 -0.218324
v -0.131485 1.477147 -0.211178
v -0.288574 1.470231 -0.197173
v -0.313535 1.266808 -0.211178
v -0.307219 1.470231 0.000000
v -0.150381 0.733503 0.130734
v -0.136588 0.903559 0.261468
v -0.150381 0.903559 0.130734
v -0.136588 0.733503 0.261468
v 0.147881 0.903559 0.261468
v 0.147881 0.733503 0.261468
v 0.168277 0.903559 0.130734
v 0.168277 0.733503 0.130734
v 0.153421 1.507627 0.259820
v -0.149617 1.407851 0.267715
v 0.163652 1.407851 0.267715
v 0.127541 0.742378 0.255083
v -0.136752 0.742378 0.127542
v 0.143989 0.742378 0.127542
v 0.199686 1.507627 0.127542
v 0.209918 1.402561 0.118457
v 0.156582 1.131600 0.127542
v 0.147736 1.136549 0.266136
v 0.127541 1.111073 0.255083
v -0.142796 1.157391 0.266136
v -0.127541 1.111073 0.255083
v -0.127541 0.742378 0.255083
v -0.136752 1.131600 0.127542
v 0.194002 1.157075 0.127542
v -0.152007 1.177917 0.127542
v -0.142796 1.507627 0.259820
v -0.158828 1.413698 0.127542
v -0.152007 1.507627 0.127542
v 0.150775 1.216335 0.020308
v 0.094328 1.187859 0.248046
v 0.104343 1.294043 0.207639
v 0.165203 1.186376 0.274772
v 0.185558 1.297984 0.232301
v 0.234363 1.216306 0.035399
v 0.150775 1.169358 0.020308
v 0.234363 1.166929 0.035399
v 0.143698 1.352214 0.045382
v 0.113751 1.325070 0.197156
v 0.116652 1.347329 0.182453
v 0.199812 1.347329 0.198862
v 0.196911 1.325070 0.213565
v 0.226858 1.352214 0.061790
v 0.148340 1.241293 0.021857
v -0.154638 1.507627 0.000000
v 0.231500 1.241293 0.038265
vt 0.992500 0.345900
vt 0.834200 0.251800
vt 0.992500 0.251800
vt 0.792800 0.346800
vt 0.833200 0.259400
vt 0.792200 0.252000
vt 0.844400 0.523500
vt 0.796600 0.441700
vt 0.794800 0.526300
vt 0.992500 0.523800
vt 0.816900 0.439900
vt 0.992500 0.439900
vt 0.816900 0.607700
vt 0.992500 0.607700
vt 0.838200 0.605400
vt 0.796600 0.611000
vt 0.840700 0.350600
vt 0.822600 0.345900
vt 0.822600 0.349500
vt 0.828500 0.602200
vt 0.992500 0.521100
vt 0.817000 0.521100
vt 0.982800 0.622000
vt 0.888900 0.565100
vt 0.878400 0.613200
vt 0.991100 0.263900
vt 0.828200 0.316300
vt 0.834000 0.265900
vt 0.992500 0.349500
vt 0.834200 0.259200
vt 0.292900 0.593100
vt 0.425900 0.485500
vt 0.292900 0.485500
vt 0.367000 0.586400
vt 0.200600 0.489900
vt 0.200600 0.586400
vt 0.270300 0.681300
vt 0.394900 0.736000
vt 0.403500 0.681300
vt 0.267700 0.593100
vt 0.134700 0.593100
vt 0.001700 0.485500
vt 0.134700 0.485500
vt 0.267700 0.485500
vt 0.001700 0.593100
vt 0.405800 0.626700
vt 0.267400 0.626700
vt 0.159900 0.485500
vt 0.159900 0.593100
vt 0.245500 0.903700
vt 0.322500 0.965400
vt 0.322500 0.903700
vt 0.124100 0.488000
vt 0.245400 0.488000
vt 0.245400 0.922400
vt 0.124100 0.987500
vt 0.124100 0.926200
vt 0.124100 0.742100
vt 0.245400 0.758900
vt 0.124100 0.772300
vt 0.315800 0.720100
vt 0.245500 0.748700
vt 0.322500 0.748700
vt 0.249500 0.491900
vt 0.315800 0.491900
vt 0.245400 0.728700
vt 0.087200 0.195100
vt 0.173700 0.279000
vt 0.174200 0.198800
vt 0.000300 0.191400
vt 0.087200 0.289700
vt 0.002800 0.488000
vt 0.002800 0.745200
vt 0.002800 0.775400
vt 0.173700 0.303100
vt 0.000800 0.292100
vt 0.087200 0.313800
vt 0.087200 0.436700
vt 0.173700 0.485600
vt 0.173700 0.433600
vt 0.000800 0.437400
vt 0.087200 0.485600
vt 0.002800 0.927100
vt 0.002800 0.979600
vt 0.187200 0.936500
vt 0.096500 0.999800
vt 0.096500 0.926900
vt 0.005900 0.937000
vt 0.000800 0.316300
vt 0.029100 0.804100
vt 0.229300 0.788900
vt 0.029100 0.779700
vt 0.199900 0.857300
vt 0.244500 0.788900
vt 0.031900 0.804100
vt 0.215100 0.857300
vt 0.031900 0.779700
vt 0.044900 0.887800
vt 0.183500 0.874400
vt 0.023400 0.824500
vt 0.184800 0.887100
vt 0.172600 0.887100
vt 0.057100 0.887800
vt 0.195800 0.874400
vt 0.034700 0.830400
vt 0.810900 0.523800
vt 0.844800 0.441700
vt 0.992500 0.602200
vt 0.425900 0.593100
vt 0.276100 0.736000
vt 0.249500 0.720100
vt 0.187200 0.997800
vt 0.987300 0.562100
vt 0.983900 0.326300
vt 0.992500 0.259200
vt 0.367000 0.489900
vt 0.245500 0.965400
vt 0.245400 0.987500
vt 0.000800 0.485600
vt 0.005900 1.000300
vn 0.996800 0.079800 -0.000000
vn 0.536400 -0.625800 0.566300
vn 0.723100 -0.690800 -0.000000
vn 0.676000 -0.014300 0.736800
vn -0.488000 -0.657500 0.574000
vn -0.679200 0.118000 0.724400
vn 0.648000 -0.024800 0.761200
vn 0.654600 0.010100 0.755900
vn 1.000000 -0.000000 -0.000000
vn 0.999600 0.029400 0.000000
vn 0.492900 0.624900 0.605400
vn 0.685700 0.727900 0.000000
vn -0.501100 0.665200 0.553500
vn -0.657900 -0.190700 0.728600
vn -0.997500 -0.070200 0.000000
vn -0.675700 -0.061800 0.734500
vn -0.990500 0.137600 -0.000000
vn -0.636200 -0.771600 -0.000000
vn -0.975900 -0.218200 -0.000000
vn -0.710700 0.701200 -0.056100
vn -0.543500 -0.583100 -0.603900
vn -0.710700 -0.701200 -0.056100
vn 0.527000 0.585900 -0.615600
vn -0.543500 0.583100 -0.603800
vn 0.527000 -0.585900 -0.615600
vn 0.715800 -0.694700 -0.070900
vn 0.715800 0.694700 -0.070900
vn 0.716500 -0.697600 -0.000000
vn 0.716500 0.697600 0.000000
vn -0.718500 0.695500 0.000000
vn -0.718500 -0.695500 -0.000000
vn 0.000000 0.035700 -0.999400
vn 0.000000 0.078900 -0.996900
vn -0.000100 0.035800 -0.999400
vn 0.000000 -1.000000 -0.000000
vn 0.951000 0.023700 -0.308400
vn 0.968300 0.218400 -0.121300
vn 0.980400 0.007400 -0.197100
vn 0.863900 -0.496400 -0.085200
vn 0.891100 -0.409100 -0.196600
vn 0.869400 -0.474300 -0.138400
vn -0.014900 -0.218700 -0.975700
vn -0.001100 -0.106500 -0.994300
vn -0.011100 -0.155400 -0.987800
vn 0.000000 0.000000 -1.000000
vn 0.995300 -0.019600 -0.095400
vn 0.927900 -0.343100 -0.145700
vn -0.998900 -0.000000 -0.046300
vn -0.986800 -0.155100 -0.046300
vn -0.997400 -0.000000 -0.072000
vn -1.000000 -0.000000 -0.000000
vn -0.985900 -0.165100 -0.028400
vn 0.999500 -0.032300 -0.000000
vn 0.852800 -0.522300 -0.000000
vn 0.861900 -0.507000 -0.000000
vn -0.983300 -0.177500 -0.039600
vn -0.986700 -0.162400 -0.000000
vn -0.985500 -0.167200 -0.028100
vn -0.998800 0.022300 -0.043700
vn -0.995000 0.073000 -0.068800
vn -0.997600 0.020000 -0.066000
vn -0.999800 0.022200 -0.000000
vn -0.996300 0.072600 -0.045200
vn 0.982700 0.185200 0.000000
vn 0.792400 0.610000 0.000000
vn 0.000000 1.000000 -0.000000
vn 0.000000 1.000000 0.000100
vn -0.985600 -0.169100 -0.000000
vn -0.446600 0.447800 0.774600
vn -0.745400 -0.440700 -0.500100
vn -0.450500 -0.596400 0.664300
vn -0.656800 0.739700 -0.146600
vn 0.299000 -0.448800 -0.842100
vn 0.736200 0.444800 0.510000
vn 0.481800 0.742400 -0.465600
vn 0.680700 -0.604400 0.413900
vn -0.479900 0.638700 0.601500
vn -0.712200 -0.219100 -0.666900
vn -0.439500 -0.652900 0.616800
vn 0.532200 0.687600 -0.493900
vn -0.679900 0.687600 -0.254800
vn 0.672400 0.638700 0.374100
vn 0.405600 -0.219100 -0.887400
vn 0.640900 -0.652900 0.403700
vn 0.536400 -0.625800 -0.566300
vn 0.676000 -0.014300 -0.736800
vn -0.488000 -0.657500 -0.574000
vn -0.657900 -0.190700 -0.728600
vn 0.648000 -0.024800 -0.761200
vn -0.679200 0.118000 -0.724400
vn 0.654600 0.010100 -0.755900
vn 0.492900 0.624900 -0.605400
vn -0.501100 0.665200 -0.553500
vn -0.675700 -0.061800 -0.734500
vn -0.640100 0.768300 -0.000000
vn -0.710700 -0.701200 0.056100
vn -0.543500 0.583100 0.603800
vn -0.710700 0.701200 0.056100
vn -0.543500 -0.583100 0.603800
vn 0.527000 0.585900 0.615600
vn 0.527000 -0.585900 0.615600
vn 0.715800 0.694700 0.070900
vn 0.715800 -0.694700 0.070900
vn 0.000000 0.078900 0.996900
vn 0.000000 0.035700 0.999400
vn -0.000100 0.035800 0.999400
vn 0.968300 0.218400 0.121300
vn 0.951000 0.023700 0.308400
vn 0.980400 0.007400 0.197100
vn 0.863900 -0.496400 0.085200
vn 0.891100 -0.409100 0.196600
vn 0.927900 -0.343100 0.145700
vn -0.014900 -0.218600 0.975700
vn -0.001100 -0.106500 0.994300
vn 0.000000 -0.127300 0.991900
vn 0.000000 -0.000000 1.000000
vn 0.995300 -0.019600 0.095400
vn 0.991800 -0.000000 0.127900
vn -0.986800 -0.155100 0.046300
vn -0.998900 -0.000000 0.046300
vn -0.997400 0.000000 0.072000
vn -0.985900 -0.165100 0.028400
vn 0.869400 -0.474300 0.138400
vn -0.983300 -0.177500 0.039600
vn -0.985500 -0.167200 0.028100
vn -0.995000 0.073000 0.068800
vn -0.998800 0.022300 0.043700
vn -0.997600 0.020000 0.066000
vn -0.996300 0.072600 0.045200
vn 0.000000 1.000000 -0.000100
vn -0.011100 -0.155400 0.987800
vn -0.446600 0.447800 -0.774600
vn -0.745400 -0.440800 0.500100
vn -0.656800 0.739700 0.146600
vn 0.299000 -0.448800 0.842100
vn 0.481800 0.742300 0.465600
vn 0.736200 0.444800 -0.510000
vn -0.450500 -0.596400 -0.664300
vn 0.680700 -0.604400 -0.413900
vn -0.479900 0.638700 -0.601500
vn -0.712200 -0.219100 0.666900
vn -0.679900 0.687600 0.254800
vn 0.532200 0.687600 0.493900
vn 0.405600 -0.219100 0.887400
vn 0.672400 0.638700 -0.374100
vn -0.439500 -0.652900 -0.616800
vn 0.936900 0.122000 -0.327700
vn 0.000000 -0.127400 -0.991900
vn 0.991800 -0.000000 -0.127900
vn -0.997300 0.073500 -0.000000
vn 0.000100 1.000000 -0.000000
vn 0.936900 0.122000 0.327700
vn 0.640900 -0.652900 -0.403700
usemtl None.001
s 1
f 1/1/1 2/2/2 3/3/3
f 4/4/4 5/5/5 2/6/2
f 6/7/6 7/8/7 8/9/8
f 9/10/9 7/11/7 10/12/10
f 11/13/11 9/10/9 12/14/12
f 13/15/13 8/9/8 11/16/11
f 7/8/7 14/17/14 4/4/4
f 10/12/10 4/18/4 1/1/1
f 15/12/15 14/19/14 16/11/16
f 13/20/13 17/21/17 6/22/6
f 17/21/17 16/11/16 6/22/6
f 12/23/12 13/24/13 11/25/11
f 18/26/18 2/27/2 5/28/5
f 19/29/19 5/30/5 14/19/14
f 20/31/20 21/32/21 22/33/22
f 23/34/23 21/35/21 24/36/24
f 22/37/22 25/38/25 26/39/26
f 23/40/23 20/41/20 27/41/27
f 27/41/27 28/42/28 26/43/26
f 27/41/27 25/44/25 23/40/23
f 29/45/29 20/41/20 30/45/30
f 22/37/22 28/46/28 31/47/31
f 20/31/20 31/48/31 30/49/30
f 32/50/32 33/51/33 34/52/34
f 35/53/35 36/54/35 37/53/35
f 34/55/36 38/56/37 39/57/38
f 40/58/39 41/59/40 42/60/41
f 43/61/42 44/62/43 41/63/44
f 45/64/45 43/61/42 36/65/45
f 37/53/46 43/66/47 40/58/39
f 35/67/48 46/68/49 45/69/50
f 47/70/51 48/71/52 35/67/48
f 49/72/53 40/58/39 50/73/54
f 50/73/54 42/60/41 51/74/55
f 48/71/52 44/75/56 46/68/49
f 52/76/57 53/77/58 48/71/52
f 54/78/59 55/79/60 32/80/61
f 56/81/62 57/82/63 54/78/59
f 58/83/64 38/56/37 59/84/65
f 47/72/35 37/53/35 49/72/35
f 33/85/66 57/86/66 38/87/67
f 57/86/66 59/88/66 38/87/67
f 51/74/55 39/57/38 58/83/64
f 60/89/68 54/78/59 53/77/58
f 53/77/58 32/80/61 44/75/56
f 42/60/41 34/55/36 39/57/38
f 44/62/43 34/52/34 41/63/44
f 61/90/69 62/91/70 63/92/71
f 64/93/72 65/94/73 62/91/70
f 66/95/74 65/94/73 67/96/75
f 66/95/74 63/92/71 68/97/76
f 62/91/70 68/97/76 63/92/71
f 66/95/74 64/93/72 61/90/69
f 69/98/77 70/99/78 71/100/79
f 72/101/80 70/99/78 73/102/81
f 74/103/82 75/104/83 72/101/80
f 74/103/82 71/100/79 76/105/84
f 71/100/79 75/104/83 76/105/84
f 72/101/80 69/98/77 74/103/82
f 1/1/1 77/2/85 78/18/86
f 78/4/86 79/5/87 80/17/88
f 81/8/89 82/7/90 83/9/91
f 9/10/9 81/11/89 83/106/91
f 9/10/9 84/13/92 12/14/12
f 83/9/91 85/15/93 84/16/92
f 81/8/89 80/17/88 86/107/94
f 10/12/10 78/18/86 81/11/89
f 80/19/88 15/12/15 86/11/94
f 85/20/93 17/21/17 87/108/95
f 86/11/94 17/21/17 82/22/90
f 85/24/93 12/23/12 84/25/92
f 77/27/85 18/26/18 79/28/87
f 79/30/87 19/29/19 80/19/88
f 88/33/96 89/109/97 90/31/98
f 91/35/99 92/34/100 89/36/97
f 88/37/96 93/38/101 91/110/99
f 90/41/98 92/40/100 94/41/102
f 95/43/103 29/45/29 94/41/102
f 92/40/100 95/43/103 94/41/102
f 29/45/29 90/41/98 94/41/102
f 28/46/28 88/37/96 31/47/31
f 31/48/31 90/31/98 30/49/30
f 96/51/104 97/50/105 98/52/106
f 99/54/35 100/53/35 101/53/35
f 102/56/107 98/55/108 103/57/109
f 104/58/110 105/59/111 106/66/112
f 106/61/113 107/62/114 108/111/115
f 106/61/113 109/64/116 99/65/116
f 101/53/117 106/66/112 99/54/118
f 108/68/119 100/67/120 109/69/121
f 110/71/122 47/70/51 100/67/120
f 49/72/53 104/58/110 101/53/117
f 50/73/54 111/60/123 104/58/110
f 107/75/124 110/71/122 108/68/119
f 112/77/125 52/76/57 110/71/122
f 113/79/126 114/78/127 97/80/128
f 115/82/129 56/81/62 114/78/127
f 58/83/64 102/56/107 103/57/109
f 101/53/35 47/72/35 49/72/35
f 96/85/66 115/86/66 113/112/66
f 59/88/66 115/86/66 102/87/130
f 51/74/55 103/57/109 111/60/123
f 114/78/127 60/89/68 112/77/125
f 97/80/128 112/77/125 107/75/124
f 111/60/123 98/55/108 105/59/111
f 98/52/106 107/62/114 105/63/131
f 116/90/132 117/91/133 118/93/134
f 118/93/134 119/94/135 120/96/136
f 119/94/135 121/95/137 120/96/136
f 121/95/137 122/92/138 116/90/132
f 123/97/139 117/91/133 122/92/138
f 121/95/137 118/93/134 120/96/136
f 124/98/140 125/99/141 126/102/142
f 125/99/141 127/101/143 126/102/142
f 128/104/144 129/103/145 127/101/143
f 129/103/145 130/100/146 124/98/140
f 130/100/146 128/104/144 125/99/141
f 124/98/140 127/101/143 129/103/145
f 1/1/1 4/18/4 2/2/2
f 4/4/4 14/17/14 5/5/5
f 6/7/6 16/107/16 7/8/7
f 9/10/9 8/106/8 7/11/7
f 11/13/11 8/106/8 9/10/9
f 13/15/13 6/7/6 8/9/8
f 7/8/7 16/107/16 14/17/14
f 10/12/10 7/11/7 4/18/4
f 15/12/15 19/29/19 14/19/14
f 13/20/13 87/108/95 17/21/17
f 17/21/17 15/12/15 16/11/16
f 12/23/12 87/113/95 13/24/13
f 18/26/18 3/114/3 2/27/2
f 19/29/19 18/115/18 5/30/5
f 20/31/20 24/109/24 21/32/21
f 23/34/23 25/116/25 21/35/21
f 22/37/22 21/110/21 25/38/25
f 23/40/23 24/40/24 20/41/20
f 27/41/27 29/45/29 28/42/28
f 27/41/27 26/43/26 25/44/25
f 29/45/29 27/41/27 20/41/20
f 22/37/22 26/39/26 28/46/28
f 20/31/20 22/33/22 31/48/31
f 32/50/32 55/117/33 33/51/33
f 35/53/35 45/54/35 36/54/35
f 34/55/36 33/118/147 38/56/37
f 40/58/39 43/66/47 41/59/40
f 43/61/42 46/111/148 44/62/43
f 45/64/45 46/111/148 43/61/42
f 37/53/46 36/54/149 43/66/47
f 35/67/48 48/71/52 46/68/49
f 47/70/51 52/76/57 48/71/52
f 49/72/53 37/53/46 40/58/39
f 50/73/54 40/58/39 42/60/41
f 48/71/52 53/77/58 44/75/56
f 52/76/57 60/89/68 53/77/58
f 54/78/59 57/82/63 55/79/60
f 56/81/62 131/119/150 57/82/63
f 58/83/64 39/57/38 38/56/37
f 47/72/35 35/53/35 37/53/35
f 33/85/66 55/112/66 57/86/66
f 57/86/66 131/120/151 59/88/66
f 51/74/55 42/60/41 39/57/38
f 60/89/68 56/81/62 54/78/59
f 53/77/58 54/78/59 32/80/61
f 42/60/41 41/59/40 34/55/36
f 44/62/43 32/50/32 34/52/34
f 61/90/69 64/93/72 62/91/70
f 64/93/72 67/96/75 65/94/73
f 66/95/74 68/97/76 65/94/73
f 66/95/74 61/90/69 63/92/71
f 62/91/70 65/94/73 68/97/76
f 66/95/74 67/96/75 64/93/72
f 69/98/77 73/102/81 70/99/78
f 72/101/80 75/104/83 70/99/78
f 74/103/82 76/105/84 75/104/83
f 74/103/82 69/98/77 71/100/79
f 71/100/79 70/99/78 75/104/83
f 72/101/80 73/102/81 69/98/77
f 1/1/1 3/3/3 77/2/85
f 78/4/86 77/6/85 79/5/87
f 81/8/89 86/107/94 82/7/90
f 9/10/9 10/12/10 81/11/89
f 9/10/9 83/106/91 84/13/92
f 83/9/91 82/7/90 85/15/93
f 81/8/89 78/4/86 80/17/88
f 10/12/10 1/1/1 78/18/86
f 80/19/88 19/29/19 15/12/15
f 85/20/93 82/22/90 17/21/17
f 86/11/94 15/12/15 17/21/17
f 85/24/93 87/113/95 12/23/12
f 77/27/85 3/114/3 18/26/18
f 79/30/87 18/115/18 19/29/19
f 88/33/96 91/32/99 89/109/97
f 91/35/99 93/116/101 92/34/100
f 88/37/96 95/39/103 93/38/101
f 90/41/98 89/40/97 92/40/100
f 95/43/103 28/42/28 29/45/29
f 92/40/100 93/44/101 95/43/103
f 29/45/29 30/45/30 90/41/98
f 28/46/28 95/39/103 88/37/96
f 31/48/31 88/33/96 90/31/98
f 96/51/104 113/117/104 97/50/105
f 99/54/35 109/54/35 100/53/35
f 102/56/107 96/118/152 98/55/108
f 104/58/110 111/60/123 105/59/111
f 106/61/113 105/63/131 107/62/114
f 106/61/113 108/111/115 109/64/116
f 101/53/117 104/58/110 106/66/112
f 108/68/119 110/71/122 100/67/120
f 110/71/122 52/76/57 47/70/51
f 49/72/53 50/73/54 104/58/110
f 50/73/54 51/74/55 111/60/123
f 107/75/124 112/77/125 110/71/122
f 112/77/125 60/89/68 52/76/57
f 113/79/126 115/82/129 114/78/127
f 115/82/129 131/119/150 56/81/62
f 58/83/64 59/84/65 102/56/107
f 101/53/35 100/53/35 47/72/35
f 96/85/66 102/87/130 115/86/66
f 59/88/66 131/120/151 115/86/66
f 51/74/55 58/83/64 103/57/109
f 114/78/127 56/81/62 60/89/68
f 97/80/128 114/78/127 112/77/125
f 111/60/123 103/57/109 98/55/108
f 98/52/106 97/50/105 107/62/114
f 116/90/132 122/92/138 117/91/133
f 118/93/134 117/91/133 119/94/135
f 119/94/135 123/97/139 121/95/137
f 121/95/137 123/97/139 122/92/138
f 123/97/139 119/94/135 117/91/133
f 121/95/137 116/90/132 118/93/134
f 124/98/140 130/100/146 125/99/141
f 125/99/141 128/104/144 127/101/143
f 128/104/144 132/105/153 129/103/145
f 129/103/145 132/105/153 130/100/146
f 130/100/146 132/105/153 128/104/144
f 124/98/140 126/102/142 127/101/143
