# Blender v2.76 (sub 0) OBJ File: ''
# www.blender.org
mtllib LeftArm.mtl
o LArm006
v -0.125361 1.509101 -0.513652
v -0.140266 1.353754 -0.456173
v -0.140266 1.538663 -0.446767
v 0.127976 1.509101 -0.513652
v -0.125361 1.397135 -0.533806
v 0.142881 1.534766 -0.352407
v 0.142881 1.474959 -0.251081
v 0.142881 1.385269 -0.353627
v -0.140266 1.521194 -0.258046
v 0.142881 1.521194 -0.258046
v 0.142881 1.353754 -0.456173
v 0.142881 1.538663 -0.446767
v -0.140266 1.534766 -0.352407
v -0.140266 1.385269 -0.353627
v 0.127976 1.397135 -0.533806
v -0.140266 1.474959 -0.251081
v -0.126340 0.739572 -0.502427
v 0.128955 1.505458 -0.502427
v 0.128955 0.739572 -0.502427
v 0.128955 0.739572 -0.247132
v -0.126340 1.505458 -0.247132
v -0.126340 0.739572 -0.247132
v -0.126340 1.505458 -0.502427
v 0.128955 1.505458 -0.247132
v -0.116112 1.098558 -0.380957
v -0.116112 0.987346 -0.285364
v -0.116112 0.962092 -0.380957
v -0.116112 1.098558 -0.257391
v -0.172683 1.030396 -0.322369
v -0.198075 1.098558 -0.380957
v -0.172683 1.030396 -0.439546
v -0.172683 1.014917 -0.380957
v -0.116112 1.098558 -0.504523
v -0.172683 1.098558 -0.456691
v -0.172683 1.166719 -0.322369
v -0.116112 1.235024 -0.380957
v -0.172683 1.182198 -0.380957
v -0.172683 1.166719 -0.439546
v -0.116112 1.209769 -0.476549
v -0.116112 0.987346 -0.476550
v -0.172683 1.098558 -0.305223
v -0.116112 1.209769 -0.285364
vt 0.429500 0.926700
vt 0.479800 0.901700
vt 0.417100 0.905200
vt 0.418300 0.922700
vt 0.450900 0.848900
vt 0.418300 0.848900
vt 0.415000 0.873200
vt 0.431500 0.836800
vt 0.465500 0.868200
vt 0.409800 0.849500
vt 0.471600 0.847700
vt 0.471600 0.849500
vt 0.463500 0.927000
vt 0.463500 0.844600
vt 0.468400 0.918800
vt 0.409800 0.900600
vt 0.471600 0.900600
vt 0.409800 0.875100
vt 0.471600 0.875100
vt 0.409800 0.903200
vt 0.471600 0.875400
vt 0.409800 0.875400
vt 0.468000 0.929500
vt 0.416100 0.840900
vt 0.409800 0.847700
vt 0.721400 0.905300
vt 0.457700 0.841600
vt 0.721400 0.841600
vt 0.721400 0.998700
vt 0.457700 0.969100
vt 0.721400 0.969100
vt 0.457700 0.905300
vt 0.404300 0.841600
vt 0.566400 1.001400
vt 0.474000 0.927200
vt 0.566400 0.927200
vt 0.457700 0.777900
vt 0.721400 0.777900
vt 0.450900 0.922700
vt 0.413100 0.918800
vt 0.471600 0.903200
vt 0.457700 0.998700
vt 0.404300 0.905300
vt 0.474000 1.001400
vt 0.686700 0.126300
vt 0.728500 0.080600
vt 0.686700 0.070200
vt 0.740700 0.126300
vt 0.712300 0.098300
vt 0.661100 0.098300
vt 0.686700 0.091900
vt 0.632700 0.126300
vt 0.653600 0.126300
vt 0.712300 0.154300
vt 0.686700 0.182400
vt 0.686700 0.160700
vt 0.661100 0.154300
vt 0.644900 0.172000
vt 0.644900 0.080600
vt 0.719800 0.126300
vt 0.728500 0.172000
vn -0.533900 0.490800 -0.688600
vn -0.646700 -0.753000 -0.121800
vn -0.673200 0.715700 -0.185900
vn 0.533900 0.490700 -0.688600
vn -0.533300 -0.336600 -0.776100
vn 0.695900 0.715100 0.066000
vn 0.613300 -0.271800 0.741600
vn 0.663000 -0.653900 0.364400
vn -0.594300 0.570600 0.566800
vn 0.594300 0.570600 0.566800
vn 0.646700 -0.753000 -0.121800
vn 0.673200 0.715700 -0.185900
vn -0.695900 0.715100 0.066000
vn -0.663000 -0.653900 0.364400
vn 0.533300 -0.336600 -0.776100
vn -0.613300 -0.271800 0.741600
vn 0.000000 0.000000 -1.000000
vn 0.000000 -0.000000 1.000000
vn 0.000000 1.000000 0.000000
vn 0.000000 -1.000000 0.000000
vn 1.000000 -0.000000 0.000000
vn -1.000000 -0.000000 0.000000
vn 0.305900 -0.678600 0.667800
vn 0.352600 -0.935800 0.000000
vn 0.375100 0.000000 0.927000
vn -0.825700 -0.388500 0.409100
vn -0.825700 -0.388500 -0.409100
vn -0.829800 -0.558100 0.000000
vn 0.375100 0.000000 -0.927000
vn -0.808100 0.000000 -0.589000
vn -0.825700 0.388500 0.409100
vn 0.352500 0.935800 0.000000
vn -0.829800 0.558100 0.000000
vn -0.825700 0.388500 -0.409100
vn 0.305900 0.678600 -0.667800
vn 0.305900 -0.678600 -0.667800
vn -0.808100 0.000000 0.589000
vn 0.305900 0.678600 0.667800
usemtl None.001
s 1
f 1/1/1 2/2/2 3/3/3
f 4/4/4 5/5/5 1/6/1
f 6/7/6 7/8/7 8/9/8
f 9/10/9 7/11/7 10/12/10
f 5/5/5 11/13/11 2/14/2
f 4/15/4 3/16/3 12/17/12
f 12/17/12 13/18/13 6/19/6
f 2/20/2 8/21/8 14/22/14
f 4/1/4 11/2/11 15/23/15
f 3/3/3 14/9/14 13/7/13
f 13/7/13 16/8/16 9/24/9
f 14/22/14 7/11/7 16/25/16
f 6/19/6 9/10/9 10/12/10
f 12/3/12 8/9/8 11/2/11
f 17/26/17 18/27/17 19/28/17
f 20/29/18 21/30/18 22/31/18
f 23/32/19 24/33/19 18/27/19
f 22/34/20 19/35/20 20/36/20
f 19/28/21 24/37/21 20/38/21
f 22/31/22 23/32/22 17/26/22
f 1/1/1 5/23/5 2/2/2
f 4/4/4 15/39/15 5/5/5
f 6/7/6 10/24/10 7/8/7
f 9/10/9 16/25/16 7/11/7
f 5/5/5 15/39/15 11/13/11
f 4/15/4 1/40/1 3/16/3
f 12/17/12 3/16/3 13/18/13
f 2/20/2 11/41/11 8/21/8
f 4/1/4 12/3/12 11/2/11
f 3/3/3 2/2/2 14/9/14
f 13/7/13 14/9/14 16/8/16
f 14/22/14 8/21/8 7/11/7
f 6/19/6 13/18/13 9/10/9
f 12/3/12 6/7/6 8/9/8
f 17/26/17 23/32/17 18/27/17
f 20/29/18 24/42/18 21/30/18
f 23/32/19 21/43/19 24/33/19
f 22/34/20 17/44/20 19/35/20
f 19/28/21 18/27/21 24/37/21
f 22/31/22 21/30/22 23/32/22
f 25/45/21 26/46/23 27/47/24
f 28/48/25 29/49/26 26/46/23
f 30/45/22 31/50/27 32/51/28
f 33/52/29 31/50/27 34/53/30
f 27/47/24 29/49/26 32/51/28
f 35/54/31 36/55/32 37/56/33
f 38/57/34 36/55/32 39/58/35
f 27/47/24 31/50/27 40/59/36
f 30/45/22 29/49/26 41/60/37
f 25/45/21 40/59/36 33/52/29
f 39/58/35 25/45/21 33/52/29
f 35/54/31 30/45/22 41/60/37
f 38/57/34 33/52/29 34/53/30
f 38/57/34 30/45/22 37/56/33
f 35/54/31 28/48/25 42/61/38
f 42/61/38 25/45/21 36/55/32
f 25/45/21 28/48/25 26/46/23
f 28/48/25 41/60/37 29/49/26
f 30/45/22 34/53/30 31/50/27
f 33/52/29 40/59/36 31/50/27
f 27/47/24 26/46/23 29/49/26
f 35/54/31 42/61/38 36/55/32
f 38/57/34 37/56/33 36/55/32
f 27/47/24 32/51/28 31/50/27
f 30/45/22 32/51/28 29/49/26
f 25/45/21 27/47/24 40/59/36
f 39/58/35 36/55/32 25/45/21
f 35/54/31 37/56/33 30/45/22
f 38/57/34 39/58/35 33/52/29
f 38/57/34 34/53/30 30/45/22
f 35/54/31 41/60/37 28/48/25
f 42/61/38 28/48/25 25/45/21
