# Blender v2.76 (sub 0) OBJ File: ''
# www.blender.org
mtllib RightLeg.mtl
o RLeg006
v 0.107958 0.385714 0.123635
v 0.107958 0.252079 0.123635
v 0.107958 0.276810 0.223280
v 0.107958 0.385714 0.252439
v 0.163356 0.318967 0.184707
v 0.188221 0.385714 0.123635
v 0.163356 0.303809 0.123635
v 0.163356 0.318967 0.062564
v 0.107958 0.385715 -0.005168
v 0.163356 0.385714 0.044692
v 0.163356 0.452462 0.184707
v 0.163356 0.467620 0.123636
v 0.107958 0.519350 0.123636
v 0.163356 0.452462 0.062564
v 0.107958 0.494619 0.023991
v 0.107958 0.276810 0.023991
v 0.163356 0.385714 0.202579
v 0.107958 0.494619 0.223280
v -0.096649 0.686939 0.326468
v -0.111069 0.730285 0.251487
v -0.111069 0.508544 0.251487
v 0.096252 0.686939 0.326468
v -0.096649 0.515400 0.333589
v 0.096252 0.515400 0.333589
v 0.110672 0.508544 0.251487
v 0.110672 0.730285 0.251487
v -0.127994 0.108184 0.257429
v 0.127994 0.108184 0.257429
v 0.127994 0.758985 0.257429
v 0.127994 0.108184 -0.004797
v -0.127994 0.108184 -0.004797
v -0.127994 0.758985 -0.004797
v -0.127994 0.758985 0.257429
v 0.127994 0.758985 -0.004797
v -0.137470 -0.008979 -0.004797
v 0.207415 -0.008979 -0.004797
v 0.207415 -0.008979 0.261279
v -0.137470 0.066305 -0.004797
v -0.137470 0.066305 0.261279
v 0.207415 0.066305 -0.004797
v 0.207415 0.066305 0.261279
v -0.142632 0.028663 0.265261
v 0.212577 0.028663 0.265261
v -0.142632 0.028663 -0.008779
v 0.212577 0.028663 -0.008779
v -0.137470 -0.008979 0.261279
v -0.102047 0.743316 0.312564
v -0.117274 0.740671 0.234591
v -0.117274 0.635793 0.268630
v 0.101649 0.743316 0.312564
v -0.102047 0.664381 0.334104
v 0.101649 0.664381 0.334104
v 0.116877 0.635793 0.268630
v 0.116877 0.740671 0.234591
vt 0.686700 0.126300
vt 0.686700 0.070200
vt 0.728500 0.080600
vt 0.740700 0.126300
vt 0.712300 0.098300
vt 0.686700 0.091900
vt 0.661100 0.098300
vt 0.632700 0.126300
vt 0.653600 0.126300
vt 0.712300 0.154300
vt 0.686700 0.160700
vt 0.686700 0.182400
vt 0.661100 0.154300
vt 0.644900 0.172000
vt 0.644900 0.080600
vt 0.719800 0.126300
vt 0.728500 0.172000
vt 0.414400 0.489500
vt 0.377500 0.473400
vt 0.521500 0.469500
vt 0.412900 0.482100
vt 0.413900 0.400100
vt 0.530300 0.400700
vt 0.526600 0.488000
vt 0.384600 0.393800
vt 0.383400 0.488100
vt 0.533900 0.488800
vt 0.491700 0.007800
vt 0.623100 0.007800
vt 0.623100 0.284700
vt 0.621500 0.002600
vt 0.492900 0.002600
vt 0.492900 0.286300
vt 0.870900 0.221800
vt 0.752500 0.221800
vt 0.752500 0.450100
vt 0.207500 0.076300
vt 0.207500 0.068700
vt 0.200400 0.068700
vt 0.612200 0.000300
vt 0.612200 0.293900
vt 0.753600 0.293900
vt 0.496700 0.033500
vt 0.408500 0.033500
vt 0.408500 0.259600
vt 0.576500 0.207300
vt 0.509500 0.209700
vt 0.511000 0.223100
vt 0.510700 0.201100
vt 0.512200 0.225200
vt 0.590900 0.217000
vt 0.501800 0.213700
vt 0.505100 0.228600
vt 0.579800 0.226000
vt 0.599200 0.207500
vt 0.500400 0.216100
vt 0.524400 0.228800
vt 0.598100 0.194300
vt 0.499200 0.202900
vt 0.501400 0.200300
vt 0.602400 0.210300
vt 0.510000 0.194500
vt 0.590600 0.192700
vt 0.576100 0.195500
vt 0.509100 0.197900
vt 0.208800 0.079500
vt 0.208800 0.074500
vt 0.207900 0.074500
vt 0.215900 0.074800
vt 0.200900 0.069300
vt 0.200400 0.070600
vt 0.211900 0.067800
vt 0.211900 0.074500
vt 0.212800 0.074500
vt 0.211100 0.067800
vt 0.529300 0.482600
vt 0.535100 0.394600
vt 0.491700 0.284700
vt 0.621500 0.286300
vt 0.870900 0.450100
vt 0.200400 0.076300
vt 0.753600 0.000300
vt 0.496700 0.259600
vt 0.576900 0.220800
vt 0.597800 0.222500
vt 0.602000 0.196900
vt 0.589900 0.186100
vt 0.207900 0.079500
vt 0.215400 0.076000
vt 0.212800 0.067800
vt 0.211100 0.074500
vt 0.376200 0.487400
vt 0.368800 0.469800
vt 0.440900 0.475600
vt 0.374600 0.484200
vt 0.375700 0.397600
vt 0.429300 0.397900
vt 0.430000 0.490800
vt 0.377600 0.391200
vt 0.376400 0.490700
vt 0.447500 0.491000
vt 0.428200 0.484400
vt 0.448700 0.391500
vn -1.000000 -0.000000 0.000000
vn -0.354800 -0.935000 -0.000000
vn -0.300200 -0.684700 0.664100
vn -0.359800 -0.000000 0.933000
vn 0.832500 -0.391800 0.391600
vn 1.000000 -0.000000 -0.000000
vn 0.830900 -0.556500 -0.000000
vn 0.832500 -0.391800 -0.391600
vn -0.359800 0.000000 -0.933000
vn 0.821300 -0.000000 -0.570400
vn 0.832500 0.391800 0.391600
vn 0.830900 0.556500 0.000000
vn -0.354800 0.935000 0.000000
vn 0.832500 0.391800 -0.391600
vn -0.300200 0.684700 -0.664100
vn -0.300200 -0.684700 -0.664100
vn 0.821300 -0.000000 0.570400
vn -0.300200 0.684700 0.664100
vn -0.542300 0.407500 0.734700
vn -0.597900 0.702700 -0.385700
vn -0.625700 -0.591400 -0.508700
vn 0.542300 0.407500 0.734700
vn -0.522000 -0.546200 0.655100
vn 0.522000 -0.546200 0.655100
vn 0.625700 -0.591400 -0.508700
vn 0.597900 0.702700 -0.385700
vn 0.000000 0.048800 0.998800
vn 0.000000 0.057600 0.998300
vn 0.000000 -0.000000 1.000000
vn 0.000000 0.000000 -1.000000
vn 0.000000 1.000000 0.000000
vn 0.000000 -1.000000 -0.000000
vn 0.856300 0.516500 0.000000
vn -0.993800 0.111000 0.000000
vn -0.993500 0.114100 0.000000
vn -0.984200 0.177100 0.000000
vn -0.984400 0.175800 0.000000
vn 0.828500 0.560000 0.000000
vn 0.852100 0.523400 0.000000
vn 0.000000 0.058800 -0.998300
vn 0.000000 0.099200 0.995100
vn 0.000000 0.102200 0.994800
vn 0.000000 0.082000 -0.996600
vn 0.832400 0.554100 0.000000
vn -0.990700 -0.135900 -0.000000
vn 0.990700 -0.135900 -0.000000
vn 0.000000 -0.105200 -0.994500
vn 0.000000 -0.105200 0.994500
vn -0.517800 0.671000 0.530700
vn -0.617200 0.472200 -0.629400
vn -0.631400 -0.719800 -0.288500
vn 0.517800 0.671000 0.530700
vn -0.511900 -0.343400 0.787400
vn 0.511900 -0.343400 0.787400
vn 0.631400 -0.719800 -0.288500
vn 0.617200 0.472200 -0.629400
usemtl None.001
s 1
f 1/1/1 2/2/2 3/3/3
f 4/4/4 3/3/3 5/5/5
f 6/1/6 7/6/7 8/7/8
f 9/8/9 10/9/10 8/7/8
f 2/2/2 7/6/7 5/5/5
f 11/10/11 12/11/12 13/12/13
f 14/13/14 15/14/15 13/12/13
f 2/2/2 16/15/16 8/7/8
f 6/1/6 17/16/17 5/5/5
f 1/1/1 9/8/9 16/15/16
f 15/14/15 9/8/9 1/1/1
f 11/10/11 17/16/17 6/1/6
f 14/13/14 10/9/10 9/8/9
f 14/13/14 12/11/12 6/1/6
f 11/10/11 18/17/18 4/4/4
f 18/17/18 13/12/13 1/1/1
f 19/18/19 20/19/20 21/20/21
f 22/21/22 19/22/19 23/23/23
f 22/18/22 24/24/24 25/20/25
f 20/25/20 26/26/26 25/27/25
f 23/24/23 21/20/21 25/20/25
f 22/18/22 26/19/26 20/19/20
f 27/28/27 28/29/28 29/30/29
f 30/31/30 31/32/30 32/33/30
f 33/34/31 29/35/31 34/36/31
f 35/37/32 36/38/32 37/39/32
f 30/40/33 34/41/6 29/42/6
f 31/43/34 27/44/35 33/45/1
f 38/46/36 39/47/37 27/48/35
f 40/49/38 30/50/33 28/51/39
f 38/52/40 31/53/30 30/54/30
f 39/55/41 41/56/42 28/57/28
f 42/58/29 43/59/29 41/56/42
f 44/60/30 38/52/40 40/61/43
f 45/62/6 40/49/38 41/63/44
f 44/64/1 42/65/1 39/47/37
f 35/66/45 46/67/45 42/68/1
f 37/69/46 36/70/46 45/71/6
f 36/72/47 35/73/47 44/74/30
f 46/73/48 37/72/48 43/75/29
f 1/1/1 3/3/3 4/4/4
f 4/4/4 5/5/5 17/16/17
f 6/1/6 8/7/8 10/9/10
f 9/8/9 8/7/8 16/15/16
f 2/2/2 5/5/5 3/3/3
f 11/10/11 13/12/13 18/17/18
f 14/13/14 13/12/13 12/11/12
f 2/2/2 8/7/8 7/6/7
f 6/1/6 5/5/5 7/6/7
f 1/1/1 16/15/16 2/2/2
f 15/14/15 1/1/1 13/12/13
f 11/10/11 6/1/6 12/11/12
f 14/13/14 9/8/9 15/14/15
f 14/13/14 6/1/6 10/9/10
f 11/10/11 4/4/4 17/16/17
f 18/17/18 1/1/1 4/4/4
f 19/18/19 21/20/21 23/24/23
f 22/21/22 23/23/23 24/76/24
f 22/18/22 25/20/25 26/19/26
f 20/25/20 25/27/25 21/77/21
f 23/24/23 25/20/25 24/24/24
f 22/18/22 20/19/20 19/18/19
f 27/28/27 29/30/29 33/78/29
f 30/31/30 32/33/30 34/79/30
f 33/34/31 34/36/31 32/80/31
f 35/37/32 37/39/32 46/81/32
f 30/40/33 29/42/6 28/82/39
f 31/43/34 33/45/1 32/83/1
f 38/46/36 27/48/35 31/84/34
f 40/49/38 28/51/39 41/63/44
f 38/52/40 30/54/30 40/61/43
f 39/55/41 28/57/28 27/85/27
f 42/58/29 41/56/42 39/55/41
f 44/60/30 40/61/43 45/86/30
f 45/62/6 41/63/44 43/87/6
f 44/64/1 39/47/37 38/46/36
f 35/66/45 42/68/1 44/88/1
f 37/69/46 45/71/6 43/89/6
f 36/72/47 44/74/30 45/90/30
f 46/73/48 43/75/29 42/91/29
f 47/92/49 48/93/50 49/94/51
f 50/95/52 47/96/49 51/97/53
f 50/92/52 52/98/54 53/94/55
f 48/99/50 54/100/56 53/101/55
f 49/94/51 53/94/55 52/98/54
f 50/92/52 54/93/56 48/93/50
f 47/92/49 49/94/51 51/98/53
f 50/95/52 51/97/53 52/102/54
f 50/92/52 53/94/55 54/93/56
f 48/99/50 53/101/55 49/103/51
f 49/94/51 52/98/54 51/98/53
f 50/92/52 48/93/50 47/92/49
