# ..:::Stalker models:::..
# WebSite: http://excalibur-craft.ru
mtllib kitchen_tarelka2.mtl
o 0.007
v 0.177513 0.087911 0.000000
v 0.164001 0.087910 -0.067933
v 0.167640 0.099623 0.000000
v 0.154880 0.099621 -0.064155
v 0.125521 0.087909 -0.125523
v 0.118540 0.099625 -0.118538
v 0.067931 0.087910 -0.164002
v 0.064153 0.099626 -0.154877
v 0.000000 0.087910 -0.177515
v 0.000000 0.099621 -0.167642
v -0.067931 0.087910 -0.164002
v -0.064153 0.099626 -0.154877
v -0.125521 0.087909 -0.125523
v -0.118540 0.099625 -0.118538
v -0.164001 0.087910 -0.067933
v -0.154880 0.099621 -0.064155
v -0.177513 0.087911 0.000000
v -0.167640 0.099623 0.000000
v -0.164001 0.087913 0.067933
v -0.154880 0.099624 0.064155
v -0.125521 0.087914 0.125523
v -0.118540 0.099621 0.118538
v -0.067931 0.087913 0.164002
v -0.064153 0.099620 0.154877
v 0.000000 0.087913 0.177515
v 0.000000 0.099625 0.167642
v 0.067931 0.087913 0.164002
v 0.064153 0.099620 0.154877
v 0.125521 0.087914 0.125523
v 0.118540 0.099621 0.118538
v 0.164001 0.087913 0.067933
v 0.154880 0.099624 0.064155
v 0.000000 0.000109 0.000000
v -0.122377 0.000108 0.000000
v -0.113061 0.000107 -0.046833
v -0.086533 0.000106 -0.086536
v -0.046832 0.000111 -0.113059
v 0.000000 0.000112 -0.122379
v 0.046832 0.000111 -0.113059
v 0.086533 0.000106 -0.086536
v 0.113061 0.000107 -0.046833
v 0.122377 0.000108 0.000000
v 0.113061 0.000109 0.046833
v 0.086533 0.000110 0.086536
v 0.046832 0.000105 0.113059
v 0.000000 0.000116 0.122379
v -0.046831 0.000105 0.113059
v -0.086533 0.000110 0.086536
v -0.113061 0.000109 0.046833
v 0.164001 0.087910 -0.067933
v 0.177513 0.087911 0.000000
v 0.137312 0.087913 -0.056875
v 0.148625 0.087911 0.000000
v 0.164001 0.087913 0.067933
v 0.137312 0.087909 0.056874
v 0.125521 0.087914 0.125523
v 0.105094 0.087911 0.105094
v 0.067931 0.087913 0.164002
v 0.056877 0.087909 0.137310
v 0.000000 0.087913 0.177515
v 0.000000 0.087911 0.148626
v -0.067931 0.087913 0.164002
v -0.056876 0.087909 0.137310
v -0.125521 0.087914 0.125523
v -0.105094 0.087911 0.105094
v -0.164001 0.087913 0.067933
v -0.137312 0.087909 0.056874
v -0.177513 0.087911 0.000000
v -0.148625 0.087911 0.000000
v -0.164001 0.087910 -0.067933
v -0.137312 0.087913 -0.056875
v -0.125521 0.087909 -0.125523
v -0.105094 0.087911 -0.105094
v -0.067931 0.087910 -0.164002
v -0.056876 0.087914 -0.137310
v 0.000000 0.087910 -0.177515
v 0.000000 0.087911 -0.148626
v 0.067931 0.087910 -0.164002
v 0.056877 0.087914 -0.137310
v 0.125521 0.087909 -0.125523
v 0.105094 0.087911 -0.105094
v 0.148623 0.095834 0.000000
v 0.137309 0.095830 -0.056881
v 0.105091 0.095834 -0.105094
v 0.056874 0.095830 -0.137316
v -0.000003 0.095834 -0.148626
v -0.056879 0.095830 -0.137316
v -0.105097 0.095834 -0.105094
v -0.137315 0.095830 -0.056881
v -0.148628 0.095834 0.000000
v -0.137315 0.095832 0.056874
v -0.105097 0.095834 0.105094
v -0.056879 0.095832 0.137310
v -0.000003 0.095834 0.148625
v 0.056874 0.095832 0.137310
v 0.105091 0.095834 0.105094
v 0.137309 0.095832 0.056874
v 0.148625 0.087911 0.000000
v 0.139330 0.017939 0.000000
v 0.128724 0.017936 -0.053322
v 0.137312 0.087913 -0.056875
v 0.137312 0.087909 0.056874
v 0.128724 0.017941 0.053322
v 0.105094 0.087911 0.105094
v 0.098521 0.017940 0.098523
v 0.056877 0.087909 0.137310
v 0.053319 0.017938 0.128724
v 0.000000 0.087911 0.148626
v 0.000000 0.017939 0.139331
v -0.056876 0.087909 0.137310
v -0.053319 0.017938 0.128724
v -0.105094 0.087911 0.105094
v -0.098521 0.017940 0.098523
v -0.137312 0.087909 0.056874
v -0.128724 0.017941 0.053322
v -0.148625 0.087911 0.000000
v -0.139330 0.017939 0.000000
v -0.137312 0.087913 -0.056875
v -0.128724 0.017936 -0.053322
v -0.105094 0.087911 -0.105094
v -0.098521 0.017937 -0.098523
v -0.056876 0.087914 -0.137310
v -0.053319 0.017939 -0.128724
v 0.000000 0.087911 -0.148626
v 0.000000 0.017938 -0.139331
v 0.056877 0.087914 -0.137310
v 0.053319 0.017939 -0.128724
v 0.105094 0.087911 -0.105094
v 0.098521 0.017937 -0.098523
v 0.137312 0.087913 -0.056875
v 0.128724 0.017936 -0.053322
v 0.122377 0.000108 0.000000
v 0.113061 0.000107 -0.046833
v 0.128724 0.017936 -0.053322
v 0.139330 0.017939 0.000000
v 0.113061 0.000109 0.046833
v 0.128724 0.017941 0.053322
v 0.086533 0.000110 0.086536
v 0.098521 0.017940 0.098523
v 0.046832 0.000105 0.113059
v 0.053319 0.017938 0.128724
v 0.000000 0.000116 0.122379
v 0.000000 0.017939 0.139331
v -0.046831 0.000105 0.113059
v -0.053319 0.017938 0.128724
v -0.086533 0.000110 0.086536
v -0.098521 0.017940 0.098523
v -0.113061 0.000109 0.046833
v -0.128724 0.017941 0.053322
v -0.122377 0.000108 0.000000
v -0.139330 0.017939 0.000000
v -0.113061 0.000107 -0.046833
v -0.128724 0.017936 -0.053322
v -0.086533 0.000106 -0.086536
v -0.098521 0.017937 -0.098523
v -0.046832 0.000111 -0.113059
v -0.053319 0.017939 -0.128724
v 0.000000 0.000112 -0.122379
v 0.000000 0.017938 -0.139331
v 0.046832 0.000111 -0.113059
v 0.053319 0.017939 -0.128724
v 0.086533 0.000106 -0.086536
v 0.098521 0.017937 -0.098523
v 0.113061 0.000107 -0.046833
v 0.128724 0.017936 -0.053322
v 0.031656 0.052928 -0.085437
v -0.021352 0.048383 -0.107768
v 0.004672 0.062258 -0.063270
v 0.135496 0.053710 -0.000006
v 0.148623 0.095834 0.000000
v 0.125181 0.053711 -0.051860
v 0.137309 0.095830 -0.056881
v 0.095808 0.053712 -0.095818
v 0.105091 0.095834 -0.105094
v 0.051849 0.053713 -0.125190
v 0.056874 0.095830 -0.137316
v -0.000005 0.053716 -0.135502
v -0.000003 0.095834 -0.148626
v -0.051859 0.053713 -0.125190
v -0.056879 0.095830 -0.137316
v -0.095819 0.053712 -0.095818
v -0.105097 0.095834 -0.105094
v -0.125192 0.053711 -0.051860
v -0.137315 0.095830 -0.056881
v -0.135507 0.053710 -0.000006
v -0.148628 0.095834 0.000000
v -0.125192 0.053710 0.051847
v -0.137315 0.095832 0.056874
v -0.095819 0.053715 0.095812
v -0.105097 0.095834 0.105094
v -0.051859 0.053714 0.125184
v -0.056879 0.095832 0.137310
v -0.000005 0.053711 0.135496
v -0.000003 0.095834 0.148625
v 0.051849 0.053714 0.125184
v 0.056874 0.095832 0.137310
v 0.095808 0.053715 0.095812
v 0.105091 0.095834 0.105094
v 0.125181 0.053710 0.051847
v 0.137309 0.095832 0.056874
v 0.135496 0.053710 -0.000006
v 0.148623 0.095834 0.000000
v 0.135496 0.053710 -0.000006
v 0.125181 0.053711 -0.051860
v 0.106103 0.078318 -0.037952
v 0.092060 0.074280 0.006929
v 0.095808 0.053712 -0.095818
v 0.077455 0.076769 -0.075169
v 0.051849 0.053713 -0.125190
v -0.000005 0.053716 -0.135502
v -0.051859 0.053713 -0.125190
v -0.095819 0.053712 -0.095818
v -0.075538 0.066108 -0.084138
v -0.125192 0.053711 -0.051860
v -0.105052 0.077082 -0.044147
v -0.135507 0.053710 -0.000006
v -0.104843 0.075899 0.020077
v -0.125192 0.053710 0.051847
v -0.095819 0.053715 0.095812
v -0.067773 0.059039 0.067795
v -0.051859 0.053714 0.125184
v -0.038717 0.081587 0.102057
v -0.000005 0.053711 0.135496
v 0.007536 0.078058 0.114490
v 0.051849 0.053714 0.125184
v 0.063504 0.080065 0.090351
v 0.095808 0.053715 0.095812
v 0.125181 0.053710 0.051847
v 0.095721 0.064785 0.045853
v -0.070318 0.088306 -0.027188
v -0.048893 0.082290 0.051270
v 0.004934 0.065539 -0.037011
v 0.063922 0.081104 -0.029655
v -0.033005 0.062618 -0.049594
v 0.020814 0.085267 0.069546
v 0.042253 0.081801 0.023674
v -0.030936 0.084106 -0.004688
v -0.007080 0.088615 0.015822
v -0.006826 0.086550 -0.012646
v 0.034688 0.075903 -0.015634
vt 0.1417 0.9958
vt 0.0889 0.9853
vt 0.1417 0.9881
vt 0.0918 0.9782
vt 0.0441 0.9553
vt 0.0495 0.9499
vt 0.0141 0.9105
vt 0.0212 0.9076
vt 0.0036 0.8576
vt 0.0113 0.8576
vt 0.0141 0.8048
vt 0.0212 0.8077
vt 0.0441 0.7599
vt 0.0495 0.7654
vt 0.0889 0.7300
vt 0.0918 0.7371
vt 0.1417 0.7195
vt 0.1417 0.7272
vt 0.1946 0.7300
vt 0.1917 0.7371
vt 0.2394 0.7599
vt 0.2340 0.7654
vt 0.2694 0.8048
vt 0.2623 0.8077
vt 0.2799 0.8576
vt 0.2722 0.8576
vt 0.2694 0.9105
vt 0.2623 0.9076
vt 0.2394 0.9553
vt 0.2340 0.9499
vt 0.1946 0.9853
vt 0.1917 0.9782
vt 0.1417 0.8576
vt 0.1417 0.7624
vt 0.1053 0.7696
vt 0.0744 0.7903
vt 0.0538 0.8212
vt 0.0465 0.8576
vt 0.0538 0.8941
vt 0.0744 0.9250
vt 0.1053 0.9456
vt 0.1417 0.9529
vt 0.1782 0.9456
vt 0.2091 0.9250
vt 0.2297 0.8941
vt 0.2370 0.8576
vt 0.2297 0.8212
vt 0.2091 0.7903
vt 0.1782 0.7696
vt 0.0889 0.9853
vt 0.1417 0.9958
vt 0.0975 0.9645
vt 0.1417 0.9733
vt 0.1946 0.9853
vt 0.1860 0.9645
vt 0.2394 0.9553
vt 0.2235 0.9394
vt 0.2694 0.9105
vt 0.2486 0.9019
vt 0.2799 0.8576
vt 0.2574 0.8576
vt 0.2694 0.8048
vt 0.2486 0.8134
vt 0.2394 0.7599
vt 0.2235 0.7758
vt 0.1946 0.7300
vt 0.1860 0.7508
vt 0.1417 0.7195
vt 0.1417 0.7420
vt 0.0889 0.7300
vt 0.0975 0.7508
vt 0.0441 0.7599
vt 0.0600 0.7758
vt 0.0141 0.8048
vt 0.0349 0.8134
vt 0.0036 0.8576
vt 0.0261 0.8576
vt 0.0141 0.9105
vt 0.0349 0.9019
vt 0.0441 0.9553
vt 0.0600 0.9394
vt 0.1417 0.9733
vt 0.0975 0.9645
vt 0.0600 0.9394
vt 0.0349 0.9019
vt 0.0261 0.8576
vt 0.0349 0.8134
vt 0.0600 0.7758
vt 0.0975 0.7508
vt 0.1417 0.7420
vt 0.1860 0.7508
vt 0.2235 0.7758
vt 0.2486 0.8134
vt 0.2574 0.8576
vt 0.2486 0.9019
vt 0.2235 0.9394
vt 0.1860 0.9645
vt 0.5715 0.1820
vt 0.5715 0.1342
vt 0.6092 0.1342
vt 0.6092 0.1820
vt 0.5338 0.1820
vt 0.5338 0.1342
vt 0.4961 0.1820
vt 0.4961 0.1342
vt 0.4585 0.1820
vt 0.4585 0.1342
vt 0.4208 0.1820
vt 0.4208 0.1342
vt 0.3831 0.1820
vt 0.3831 0.1342
vt 0.3454 0.1820
vt 0.3454 0.1342
vt 0.3077 0.1820
vt 0.3077 0.1342
vt 0.2700 0.1820
vt 0.2700 0.1342
vt 0.2324 0.1820
vt 0.2324 0.1342
vt 0.1947 0.1820
vt 0.1947 0.1342
vt 0.1570 0.1820
vt 0.1570 0.1342
vt 0.1193 0.1820
vt 0.1193 0.1342
vt 0.0816 0.1820
vt 0.0816 0.1342
vt 0.0440 0.1820
vt 0.0440 0.1342
vt 0.0063 0.1820
vt 0.0063 0.1342
vt 0.5715 0.1184
vt 0.6091 0.1184
vt 0.6091 0.1342
vt 0.5715 0.1342
vt 0.5338 0.1184
vt 0.5338 0.1342
vt 0.4961 0.1184
vt 0.4961 0.1342
vt 0.4584 0.1184
vt 0.4584 0.1342
vt 0.4207 0.1184
vt 0.4207 0.1342
vt 0.3831 0.1184
vt 0.3831 0.1342
vt 0.3454 0.1184
vt 0.3454 0.1342
vt 0.3077 0.1184
vt 0.3077 0.1342
vt 0.2700 0.1184
vt 0.2700 0.1342
vt 0.2323 0.1184
vt 0.2323 0.1342
vt 0.1946 0.1184
vt 0.1946 0.1342
vt 0.1570 0.1184
vt 0.1570 0.1342
vt 0.1193 0.1184
vt 0.1193 0.1342
vt 0.0816 0.1184
vt 0.0816 0.1342
vt 0.0439 0.1184
vt 0.0439 0.1342
vt 0.0062 0.1184
vt 0.0062 0.1342
vt 0.3564 0.8114
vt 0.3948 0.7784
vt 0.3849 0.8233
vt 0.0056 0.0747
vt 0.0056 0.1151
vt 0.0453 0.0747
vt 0.0453 0.1151
vt 0.0850 0.0747
vt 0.0850 0.1151
vt 0.1247 0.0747
vt 0.1247 0.1151
vt 0.1643 0.0747
vt 0.1643 0.1151
vt 0.2040 0.0747
vt 0.2040 0.1151
vt 0.2437 0.0747
vt 0.2437 0.1151
vt 0.2834 0.0747
vt 0.2834 0.1151
vt 0.3231 0.0747
vt 0.3231 0.1151
vt 0.3627 0.0747
vt 0.3627 0.1151
vt 0.4024 0.0747
vt 0.4024 0.1151
vt 0.4421 0.0747
vt 0.4421 0.1151
vt 0.4818 0.0747
vt 0.4818 0.1151
vt 0.5214 0.0747
vt 0.5214 0.1151
vt 0.5611 0.0747
vt 0.5611 0.1151
vt 0.6008 0.0747
vt 0.6008 0.1151
vt 0.6405 0.0747
vt 0.6405 0.1151
vt 0.2924 0.9104
vt 0.2872 0.8644
vt 0.3068 0.8724
vt 0.3306 0.9059
vt 0.3000 0.8199
vt 0.3209 0.8337
vt 0.3289 0.7837
vt 0.3696 0.7612
vt 0.4157 0.7560
vt 0.4603 0.7688
vt 0.4465 0.7848
vt 0.4966 0.7977
vt 0.4818 0.8110
vt 0.5191 0.8382
vt 0.4988 0.8653
vt 0.5243 0.8842
vt 0.5115 0.9287
vt 0.4805 0.9132
vt 0.4825 0.9649
vt 0.4654 0.9509
vt 0.4419 0.9874
vt 0.4300 0.9734
vt 0.3958 0.9926
vt 0.3767 0.9691
vt 0.3512 0.9797
vt 0.3149 0.9509
vt 0.3379 0.9387
vt 0.4573 0.8351
vt 0.4603 0.9059
vt 0.3917 0.8455
vt 0.3443 0.8683
vt 0.4201 0.8247
vt 0.4069 0.9399
vt 0.3767 0.9071
vt 0.4304 0.8641
vt 0.4159 0.8878
vt 0.4081 0.8640
vt 0.3725 0.8719
vn 0.7636 0.6437 0.0506
vn 0.7248 0.6437 -0.2455
vn 0.3273 0.9442 -0.0368
vn 0.2883 0.9442 -0.1593
vn 0.5758 0.6437 -0.5041
vn 0.2054 0.9442 -0.2574
vn 0.3390 0.6437 -0.6861
vn 0.0912 0.9442 -0.3164
vn 0.0506 0.6437 -0.7636
vn -0.0368 0.9442 -0.3273
vn -0.2454 0.6437 -0.7248
vn -0.1592 0.9442 -0.2882
vn -0.5041 0.6437 -0.5758
vn -0.2574 0.9442 -0.2053
vn -0.6861 0.6437 -0.3390
vn -0.3164 0.9442 -0.0912
vn -0.7636 0.6437 -0.0506
vn -0.3273 0.9442 0.0368
vn -0.7248 0.6437 0.2454
vn -0.2882 0.9442 0.1592
vn -0.5756 0.6439 0.5040
vn -0.2053 0.9443 0.2574
vn -0.3389 0.6440 0.6859
vn -0.0912 0.9442 0.3164
vn -0.0507 0.6438 0.7635
vn 0.0368 0.9442 0.3272
vn 0.2454 0.6439 0.7247
vn 0.1592 0.9443 0.2882
vn 0.5040 0.6440 0.5756
vn 0.2574 0.9442 0.2054
vn 0.6860 0.6438 0.3390
vn 0.3165 0.9442 0.0912
vn 0.0000 -1.0000 -0.0000
vn 0.0001 -1.0000 -0.0000
vn -0.0001 -1.0000 -0.0000
vn 0.0000 -1.0000 0.0001
vn -0.0001 -1.0000 0.0001
vn 0.0001 -1.0000 0.0001
vn -0.6645 0.7460 0.0440
vn -0.5970 0.7460 0.2950
vn -0.4387 0.7459 0.5011
vn -0.2136 0.7459 0.6308
vn 0.0441 0.7460 0.6645
vn 0.2950 0.7459 0.5972
vn 0.5011 0.7459 0.4388
vn 0.6308 0.7459 0.2136
vn 0.6645 0.7460 -0.0441
vn 0.5971 0.7459 -0.2950
vn 0.4387 0.7460 -0.5010
vn 0.2136 0.7460 -0.6308
vn -0.0440 0.7460 -0.6645
vn -0.2950 0.7460 -0.5970
vn -0.5010 0.7460 -0.4387
vn -0.6308 0.7460 -0.2136
vn 0.9892 -0.1314 -0.0656
vn 0.8999 -0.4320 0.0597
vn 0.8542 -0.4320 -0.2892
vn 0.8888 -0.1314 -0.4391
vn 0.9390 -0.1314 0.3179
vn 0.8086 -0.4320 0.3995
vn 0.7458 -0.1314 0.6531
vn 0.5941 -0.4320 0.6785
vn 0.4391 -0.1314 0.8888
vn 0.2893 -0.4320 0.8542
vn 0.0656 -0.1314 0.9892
vn -0.0596 -0.4320 0.8999
vn -0.3179 -0.1314 0.9390
vn -0.3995 -0.4320 0.8086
vn -0.6531 -0.1314 0.7458
vn -0.6785 -0.4320 0.5941
vn -0.8888 -0.1314 0.4391
vn -0.8542 -0.4320 0.2893
vn -0.9892 -0.1314 0.0656
vn -0.8999 -0.4320 -0.0597
vn -0.9390 -0.1314 -0.3179
vn -0.8086 -0.4320 -0.3995
vn -0.7458 -0.1314 -0.6531
vn -0.5941 -0.4320 -0.6786
vn -0.4391 -0.1314 -0.8888
vn -0.2893 -0.4320 -0.8542
vn -0.0656 -0.1314 -0.9892
vn 0.0597 -0.4320 -0.8999
vn 0.3180 -0.1314 -0.9390
vn 0.3995 -0.4320 -0.8086
vn 0.6531 -0.1314 -0.7458
vn 0.6785 -0.4320 -0.5942
vn 0.8542 -0.4320 -0.2893
vn 0.7239 -0.6883 -0.0480
vn 0.6504 -0.6883 -0.3213
vn 0.6872 -0.6882 0.2327
vn 0.5458 -0.6883 0.4779
vn 0.3213 -0.6883 0.6504
vn 0.2892 -0.4320 0.8542
vn 0.0480 -0.6883 0.7238
vn -0.0597 -0.4320 0.8999
vn -0.2327 -0.6883 0.6871
vn -0.4779 -0.6883 0.5458
vn -0.6504 -0.6882 0.3214
vn -0.7239 -0.6882 0.0480
vn -0.6871 -0.6883 -0.2326
vn -0.5457 -0.6883 -0.4780
vn -0.3213 -0.6883 -0.6504
vn -0.0480 -0.6883 -0.7238
vn 0.2326 -0.6883 -0.6871
vn 0.4779 -0.6883 -0.5458
vn 0.6785 -0.4320 -0.5941
vn -0.0893 0.9229 -0.3746
vn 0.0572 0.9951 -0.0802
vn -0.1076 0.9490 -0.2962
vn -0.9528 0.2969 -0.0632
vn -0.6645 0.7460 0.0441
vn -0.9045 0.2969 0.3063
vn -0.5971 0.7460 0.2950
vn -0.7184 0.2969 0.6291
vn -0.4388 0.7459 0.5011
vn -0.4230 0.2969 0.8561
vn -0.0631 0.2969 0.9528
vn 0.3062 0.2969 0.9045
vn 0.2951 0.7459 0.5972
vn 0.6291 0.2968 0.7184
vn 0.8561 0.2968 0.4230
vn 0.9528 0.2968 0.0631
vn 0.9045 0.2969 -0.3063
vn 0.5971 0.7460 -0.2950
vn 0.7184 0.2969 -0.6291
vn 0.4230 0.2969 -0.8561
vn 0.0632 0.2970 -0.9528
vn -0.3063 0.2970 -0.9044
vn -0.2950 0.7461 -0.5970
vn -0.6291 0.2970 -0.7184
vn -0.8561 0.2970 -0.4230
vn -0.6307 0.7460 -0.2136
vn 0.5563 0.8292 0.0540
vn 0.6219 0.7114 -0.3272
vn 0.4076 0.9100 -0.0761
vn 0.2806 0.9481 0.1495
vn 0.1505 0.8903 -0.4297
vn 0.0510 0.9099 -0.4118
vn -0.0400 0.9978 0.0534
vn 0.0056 0.9812 0.1930
vn 0.0040 0.9924 -0.1232
vn -0.3979 0.8096 -0.4315
vn 0.0286 0.9427 -0.3324
vn -0.6539 0.7367 -0.1726
vn -0.4449 0.8606 -0.2477
vn -0.5904 0.8070 0.0099
vn -0.4270 0.8926 0.1445
vn -0.3343 0.9131 0.2333
vn -0.3336 0.9291 0.1595
vn -0.3677 0.9130 0.1769
vn -0.2325 0.6838 0.6917
vn -0.3121 0.9120 0.2662
vn 0.0988 0.6847 0.7221
vn 0.0192 0.8349 0.5501
vn 0.2770 0.7194 0.6369
vn 0.3054 0.8844 0.3530
vn 0.4621 0.8152 0.3492
vn 0.3527 0.9212 0.1640
vn 0.3603 0.9218 0.1435
vn -0.0448 0.9954 -0.0851
vn -0.2823 0.9545 0.0966
vn -0.0730 0.9497 -0.3045
vn -0.0656 0.9965 -0.0525
vn 0.1076 0.9301 -0.3511
vn 0.0365 0.9967 0.0724
vn 0.1450 0.9891 -0.0255
vn -0.0237 0.9830 -0.1821
vn -0.0149 0.9998 -0.0158
vn 0.0572 0.9386 -0.3401
vn -0.0182 0.9628 -0.2695
usemtl prop_kitchen_stuff.004
s 1
f 1/1/1 2/2/2 3/3/3
f 3/3/3 2/2/2 4/4/4
f 2/2/2 5/5/5 4/4/4
f 4/4/4 5/5/5 6/6/6
f 5/5/5 7/7/7 6/6/6
f 6/6/6 7/7/7 8/8/8
f 7/7/7 9/9/9 8/8/8
f 8/8/8 9/9/9 10/10/10
f 9/9/9 11/11/11 10/10/10
f 10/10/10 11/11/11 12/12/12
f 11/11/11 13/13/13 12/12/12
f 12/12/12 13/13/13 14/14/14
f 13/13/13 15/15/15 14/14/14
f 14/14/14 15/15/15 16/16/16
f 15/15/15 17/17/17 16/16/16
f 16/16/16 17/17/17 18/18/18
f 17/17/17 19/19/19 18/18/18
f 18/18/18 19/19/19 20/20/20
f 19/19/19 21/21/21 20/20/20
f 20/20/20 21/21/21 22/22/22
f 21/21/21 23/23/23 22/22/22
f 22/22/22 23/23/23 24/24/24
f 23/23/23 25/25/25 24/24/24
f 24/24/24 25/25/25 26/26/26
f 25/25/25 27/27/27 26/26/26
f 26/26/26 27/27/27 28/28/28
f 27/27/27 29/29/29 28/28/28
f 28/28/28 29/29/29 30/30/30
f 29/29/29 31/31/31 30/30/30
f 30/30/30 31/31/31 32/32/32
f 31/31/31 1/1/1 32/32/32
f 32/32/32 1/1/1 3/3/3
f 33/33/33 34/34/33 35/35/33
f 33/33/33 35/35/33 36/36/33
f 33/33/33 36/36/33 37/37/34
f 33/33/33 37/37/34 38/38/33
f 33/33/33 38/38/33 39/39/35
f 33/33/33 39/39/35 40/40/33
f 33/33/33 40/40/33 41/41/33
f 33/33/33 41/41/33 42/42/33
f 33/33/33 42/42/33 43/43/33
f 33/33/33 43/43/33 44/44/33
f 33/33/33 44/44/33 45/45/35
f 33/33/33 45/45/35 46/46/36
f 33/33/33 46/46/36 47/47/34
f 33/33/33 47/47/34 48/48/33
f 33/33/33 48/48/33 49/49/33
f 33/33/33 49/49/33 34/34/33
f 50/50/37 51/51/33 52/52/37
f 52/52/37 51/51/33 53/53/33
f 51/51/33 54/54/34 53/53/33
f 53/53/33 54/54/34 55/55/34
f 54/54/34 56/56/38 55/55/34
f 55/55/34 56/56/38 57/57/38
f 56/56/38 58/58/38 57/57/38
f 57/57/38 58/58/38 59/59/38
f 58/58/38 60/60/36 59/59/38
f 59/59/38 60/60/36 61/61/36
f 60/60/36 62/62/36 61/61/36
f 61/61/36 62/62/36 63/63/36
f 62/62/36 64/64/37 63/63/36
f 63/63/36 64/64/37 65/65/37
f 64/64/37 66/66/37 65/65/37
f 65/65/37 66/66/37 67/67/37
f 66/66/37 68/68/33 67/67/37
f 67/67/37 68/68/33 69/69/33
f 68/68/33 70/70/34 69/69/33
f 69/69/33 70/70/34 71/71/34
f 70/70/34 72/72/36 71/71/34
f 71/71/34 72/72/36 73/73/38
f 72/72/36 74/74/38 73/73/38
f 73/73/38 74/74/38 75/75/38
f 74/74/38 76/76/36 75/75/38
f 75/75/38 76/76/36 77/77/33
f 76/76/36 78/78/36 77/77/33
f 77/77/33 78/78/36 79/79/36
f 78/78/36 80/80/35 79/79/36
f 79/79/36 80/80/35 81/81/35
f 80/80/35 50/50/37 81/81/35
f 81/81/35 50/50/37 52/52/37
f 3/3/3 4/4/4 82/82/39
f 82/82/39 4/4/4 83/83/40
f 4/4/4 6/6/6 83/83/40
f 83/83/40 6/6/6 84/84/41
f 6/6/6 8/8/8 84/84/41
f 84/84/41 8/8/8 85/85/42
f 8/8/8 10/10/10 85/85/42
f 85/85/42 10/10/10 86/86/43
f 10/10/10 12/12/12 86/86/43
f 86/86/43 12/12/12 87/87/44
f 12/12/12 14/14/14 87/87/44
f 87/87/44 14/14/14 88/88/45
f 14/14/14 16/16/16 88/88/45
f 88/88/45 16/16/16 89/89/46
f 16/16/16 18/18/18 89/89/46
f 89/89/46 18/18/18 90/90/47
f 18/18/18 20/20/20 90/90/47
f 90/90/47 20/20/20 91/91/48
f 20/20/20 22/22/22 91/91/48
f 91/91/48 22/22/22 92/92/49
f 22/22/22 24/24/24 92/92/49
f 92/92/49 24/24/24 93/93/50
f 24/24/24 26/26/26 93/93/50
f 93/93/50 26/26/26 94/94/51
f 26/26/26 28/28/28 94/94/51
f 94/94/51 28/28/28 95/95/52
f 28/28/28 30/30/30 95/95/52
f 95/95/52 30/30/30 96/96/53
f 30/30/30 32/32/32 96/96/53
f 96/96/53 32/32/32 97/97/54
f 32/32/32 3/3/3 97/97/54
f 97/97/54 3/3/3 82/82/39
f 98/98/55 99/99/56 100/100/57
f 100/100/57 101/101/58 98/98/55
f 102/102/59 103/103/60 99/99/56
f 99/99/56 98/98/55 102/102/59
f 104/104/61 105/105/62 103/103/60
f 103/103/60 102/102/59 104/104/61
f 106/106/63 107/107/64 105/105/62
f 105/105/62 104/104/61 106/106/63
f 108/108/65 109/109/66 107/107/64
f 107/107/64 106/106/63 108/108/65
f 110/110/67 111/111/68 109/109/66
f 109/109/66 108/108/65 110/110/67
f 112/112/69 113/113/70 111/111/68
f 111/111/68 110/110/67 112/112/69
f 114/114/71 115/115/72 113/113/70
f 113/113/70 112/112/69 114/114/71
f 116/116/73 117/117/74 115/115/72
f 115/115/72 114/114/71 116/116/73
f 118/118/75 119/119/76 117/117/74
f 117/117/74 116/116/73 118/118/75
f 120/120/77 121/121/78 119/119/76
f 119/119/76 118/118/75 120/120/77
f 122/122/79 123/123/80 121/121/78
f 121/121/78 120/120/77 122/122/79
f 124/124/81 125/125/82 123/123/80
f 123/123/80 122/122/79 124/124/81
f 126/126/83 127/127/84 125/125/82
f 125/125/82 124/124/81 126/126/83
f 128/128/85 129/129/86 127/127/84
f 127/127/84 126/126/83 128/128/85
f 130/130/58 131/131/87 129/129/86
f 129/129/86 128/128/85 130/130/58
f 132/132/88 133/133/89 134/134/87
f 134/134/87 135/135/56 132/132/88
f 136/136/90 132/132/88 135/135/56
f 135/135/56 137/137/60 136/136/90
f 138/138/91 136/136/90 137/137/60
f 137/137/60 139/139/62 138/138/91
f 140/140/92 138/138/91 139/139/62
f 139/139/62 141/141/93 140/140/92
f 142/142/94 140/140/92 141/141/93
f 141/141/93 143/143/95 142/142/94
f 144/144/96 142/142/94 143/143/95
f 143/143/95 145/145/68 144/144/96
f 146/146/97 144/144/96 145/145/68
f 145/145/68 147/147/70 146/146/97
f 148/148/98 146/146/97 147/147/70
f 147/147/70 149/149/72 148/148/98
f 150/150/99 148/148/98 149/149/72
f 149/149/72 151/151/74 150/150/99
f 152/152/100 150/150/99 151/151/74
f 151/151/74 153/153/76 152/152/100
f 154/154/101 152/152/100 153/153/76
f 153/153/76 155/155/78 154/154/101
f 156/156/102 154/154/101 155/155/78
f 155/155/78 157/157/80 156/156/102
f 158/158/103 156/156/102 157/157/80
f 157/157/80 159/159/82 158/158/103
f 160/160/104 158/158/103 159/159/82
f 159/159/82 161/161/84 160/160/104
f 162/162/105 160/160/104 161/161/84
f 161/161/84 163/163/106 162/162/105
f 164/164/89 162/162/105 163/163/106
f 163/163/106 165/165/87 164/164/89
f 166/166/107 167/167/108 168/168/109
f 169/169/110 170/170/111 171/171/112
f 171/171/112 170/170/111 172/172/113
f 171/171/112 172/172/113 173/173/114
f 173/173/114 172/172/113 174/174/115
f 173/173/114 174/174/115 175/175/116
f 175/175/116 174/174/115 176/176/42
f 175/175/116 176/176/42 177/177/117
f 177/177/117 176/176/42 178/178/43
f 177/177/117 178/178/43 179/179/118
f 179/179/118 178/178/43 180/180/119
f 179/179/118 180/180/119 181/181/120
f 181/181/120 180/180/119 182/182/45
f 181/181/120 182/182/45 183/183/121
f 183/183/121 182/182/45 184/184/46
f 183/183/121 184/184/46 185/185/122
f 185/185/122 184/184/46 186/186/47
f 185/185/122 186/186/47 187/187/123
f 187/187/123 186/186/47 188/188/124
f 187/187/123 188/188/124 189/189/125
f 189/189/125 188/188/124 190/190/49
f 189/189/125 190/190/49 191/191/126
f 191/191/126 190/190/49 192/192/50
f 191/191/126 192/192/50 193/193/127
f 193/193/127 192/192/50 194/194/51
f 193/193/127 194/194/51 195/195/128
f 195/195/128 194/194/51 196/196/129
f 195/195/128 196/196/129 197/197/130
f 197/197/130 196/196/129 198/198/53
f 197/197/130 198/198/53 199/199/131
f 199/199/131 198/198/53 200/200/132
f 199/199/131 200/200/132 201/201/110
f 201/201/110 200/200/132 202/202/39
f 203/203/133 204/204/134 205/205/135
f 205/205/135 206/206/136 203/203/133
f 204/204/134 207/207/137 208/208/138
f 208/208/138 205/205/135 204/204/134
f 207/207/137 209/209/139 166/166/107
f 166/166/107 208/208/138 207/207/137
f 209/209/139 210/210/140 167/167/108
f 167/167/108 166/166/107 209/209/139
f 211/211/141 167/167/108 210/210/140
f 211/211/141 212/212/142 213/213/143
f 213/213/143 167/167/108 211/211/141
f 212/212/142 214/214/144 215/215/145
f 215/215/145 213/213/143 212/212/142
f 214/214/144 216/216/146 217/217/147
f 217/217/147 215/215/145 214/214/144
f 218/218/148 217/217/147 216/216/146
f 218/218/148 219/219/149 220/220/150
f 220/220/150 217/217/147 218/218/148
f 219/219/149 221/221/151 222/222/152
f 222/222/152 220/220/150 219/219/149
f 221/221/151 223/223/153 224/224/154
f 224/224/154 222/222/152 221/221/151
f 223/223/153 225/225/155 226/226/156
f 226/226/156 224/224/154 223/223/153
f 227/227/157 226/226/156 225/225/155
f 227/227/157 228/228/158 229/229/159
f 229/229/159 226/226/156 227/227/157
f 228/228/158 203/203/133 206/206/136
f 206/206/136 229/229/159 228/228/158
f 230/230/160 217/217/147 220/220/150
f 220/220/150 231/231/161 230/230/160
f 208/208/138 232/232/162 233/233/163
f 167/167/108 234/234/164 168/168/109
f 168/168/109 234/234/164 232/232/162
f 224/224/154 226/226/156 235/235/165
f 235/235/165 226/226/156 236/236/166
f 205/205/135 208/208/138 233/233/163
f 213/213/143 215/215/145 230/230/160
f 237/237/167 238/238/168 239/239/169
f 232/232/162 240/240/170 233/233/163
f 220/220/150 222/222/152 231/231/161
f 238/238/168 236/236/166 239/239/169
f 240/240/170 236/236/166 233/233/163
f 236/236/166 226/226/156 229/229/159
f 233/233/163 206/206/136 205/205/135
f 236/236/166 229/229/159 206/206/136
f 206/206/136 233/233/163 236/236/166
f 236/236/166 240/240/170 239/239/169
f 234/234/164 237/237/167 239/239/169
f 239/239/169 232/232/162 234/234/164
f 230/230/160 215/215/145 217/217/147
f 235/235/165 231/231/161 222/222/152
f 222/222/152 224/224/154 235/235/165
f 231/231/161 237/237/167 230/230/160
f 230/230/160 234/234/164 213/213/143
f 231/231/161 238/238/168 237/237/167
f 234/234/164 230/230/160 237/237/167
f 239/239/169 240/240/170 232/232/162
f 238/238/168 235/235/165 236/236/166
f 208/208/138 168/168/109 232/232/162
f 208/208/138 166/166/107 168/168/109
f 167/167/108 213/213/143 234/234/164
f 235/235/165 238/238/168 231/231/161
