# Blender v2.78 (sub 0) OBJ File: ''
# www.blender.org
o LLeg
v -0.129129 0.096196 -0.253354
v -0.129129 -0.004765 0.004903
v -0.129129 -0.004765 -0.253354
v 0.129129 0.090038 0.004903
v 0.129129 -0.004765 0.004903
v 0.129129 0.090038 -0.253354
v 0.194253 0.055123 -0.012968
v 0.129129 -0.004765 -0.253354
v 0.184662 -0.004765 -0.235484
v 0.184662 -0.004765 -0.012968
v 0.194253 0.055123 -0.235484
v -0.024473 0.276015 -0.270686
v -0.024473 0.310631 -0.256808
v -0.024473 0.185749 -0.256808
v 0.114725 0.187704 -0.256808
v 0.114725 0.311255 -0.256808
v 0.114725 0.277008 -0.270686
v 0.134932 0.549137 -0.259250
v 0.142637 0.332321 0.000609
v 0.134932 0.549137 0.000609
v 0.064823 0.333961 -0.257400
v 0.139439 0.332321 -0.260623
v -0.136128 0.545625 -0.260510
v -0.136128 0.635183 0.007214
v -0.136128 0.548463 0.007214
v 0.136128 0.659817 0.007214
v 0.140257 0.523828 0.007214
v 0.136128 0.652356 -0.260510
v 0.140257 0.531290 -0.261999
v -0.134288 0.555677 -0.258854
v -0.134656 0.752232 0.004723
v -0.134288 0.555677 0.006391
v 0.134288 0.555677 0.006391
v 0.134656 0.752232 0.004723
v 0.134288 0.555677 -0.258854
v 0.134656 0.752232 -0.257432
v -0.130737 0.754196 -0.255234
v -0.133160 0.084035 0.005196
v -0.130434 0.084035 -0.256840
v -0.130737 0.754196 0.004390
v 0.133160 0.084035 0.005196
v 0.130737 0.754196 -0.255234
v 0.130434 0.084035 -0.256840
v 0.130737 0.754196 0.004390
v -0.129129 0.096196 0.004903
v 0.071474 0.549089 -0.259250
v -0.136128 0.638020 -0.260510
v -0.134656 0.752232 -0.257432
vt 0.8805 0.7871
vt 0.8533 0.8093
vt 0.7966 0.7396
vt 0.9346 0.5842
vt 0.8329 0.5840
vt 0.8456 0.6183
vt 0.8070 0.6985
vt 0.8452 0.6178
vt 0.8217 0.6127
vt 0.8071 0.6986
vt 0.7703 0.7081
vt 0.8229 0.7802
vt 0.3062 0.1427
vt 0.0001 0.1427
vt 0.0001 0.4488
vt 0.7853 0.5938
vt 0.7524 0.6633
vt 0.7888 0.6822
vt 0.3062 0.4488
vt 0.3644 0.4276
vt 0.1558 0.7903
vt 0.1443 0.7422
vt 0.1431 0.8102
vt 0.2250 0.7442
vt 0.2148 0.7934
vt 0.2238 0.8137
vt 0.1541 0.8102
vt 0.2140 0.7442
vt 0.1550 0.7422
vt 0.2211 0.9586
vt 0.3426 0.9535
vt 0.3377 0.8354
vt 0.2161 0.8405
vt 0.2406 0.8395
vt 0.0630 0.0740
vt 0.0195 0.0579
vt 0.0114 0.0855
vt 0.1999 0.0855
vt 0.1669 0.0889
vt 0.1668 0.1295
vt 0.1063 0.0840
vt 0.1054 0.1225
vt 0.1254 0.1757
vt 0.0533 0.1608
vt 0.0686 0.2505
vt 0.2548 0.2449
vt 0.2547 0.1759
vt 0.1912 0.1759
vt 0.3550 0.2445
vt 0.3741 0.1234
vt 0.2539 0.1728
vt 0.2538 0.2450
vt 0.1095 1.0875
vt 0.1075 0.6775
vt 0.0362 0.6827
vt 0.1117 1.0890
vt 0.1075 0.6790
vt 0.2230 0.6778
vt 0.3375 0.6778
vt 0.2229 0.6771
vt 0.2229 1.0871
vt 0.3069 0.5027
vt 0.3774 0.4718
vt 0.3483 0.4052
vt 0.8238 0.7174
vt 0.9341 0.6297
vt 0.8596 0.7534
vt 0.3644 0.1639
vt 0.2131 0.8137
vt 0.2468 0.9574
vt 0.0623 0.1095
vt 0.2045 0.1318
vt 0.1263 0.2483
vt 0.1911 0.2449
vt -0.0030 1.0758
vt 0.2251 1.0878
vt 0.3354 1.0746
vt 0.2778 0.4360
vn -0.7125 0.0000 -0.7017
vn -0.5774 -0.5774 -0.5774
vn -0.5774 -0.5774 0.5774
vn 0.1055 -0.6778 0.7277
vn 0.3024 0.3865 0.8713
vn 0.3024 0.3865 -0.8713
vn 0.7947 0.3549 0.4924
vn 0.1055 -0.6778 -0.7277
vn 0.6023 -0.6420 0.4745
vn 0.6023 -0.6420 -0.4745
vn 0.7947 0.3549 -0.4924
vn -0.6525 0.0854 -0.7530
vn -0.0954 -0.1513 -0.9839
vn -0.2376 0.3620 -0.9014
vn 0.0983 -0.1522 -0.9834
vn 0.6516 0.0880 -0.7534
vn 0.2371 0.3649 -0.9004
vn 0.6981 0.0153 -0.7158
vn 0.9994 0.0355 0.0000
vn 0.9996 0.0290 -0.0054
vn 0.6960 0.0190 -0.7178
vn -0.0352 0.0029 -0.9994
vn -0.6936 0.0023 -0.7204
vn -0.6898 -0.0000 0.7240
vn -0.6895 -0.0000 0.7243
vn 0.7282 0.0228 0.6850
vn 0.7145 0.0217 0.6993
vn 0.7283 0.0333 -0.6845
vn 0.7185 0.0305 -0.6949
vn -0.7051 0.0038 -0.7091
vn -0.7048 0.0047 0.7094
vn -0.7094 0.0047 0.7048
vn 0.7048 0.0047 0.7094
vn 0.7094 0.0047 0.7048
vn 0.7051 0.0038 -0.7091
vn 0.7092 0.0038 -0.7050
vn -0.5765 0.5786 -0.5769
vn -0.7028 0.0014 -0.7114
vn -0.7105 0.0012 0.7037
vn -0.5763 0.5786 0.5772
vn 0.7105 0.0012 0.7037
vn 0.7028 0.0014 -0.7114
vn 0.5765 0.5786 -0.5769
vn 0.5763 0.5786 0.5772
vn -0.7125 -0.0000 0.7017
vn 0.0000 -0.0086 -1.0000
vn -0.6929 0.0000 -0.7210
vn -0.7092 0.0038 -0.7050
s 1
f 1/1/1 3/2/2 2/3/3
f 2/4/3 5/5/4 4/6/5
f 6/7/6 4/8/5 7/9/7
f 6/10/6 8/11/8 3/12/2
f 5/13/4 2/14/3 3/15/2
f 7/9/7 10/16/9 9/17/10
f 5/5/4 10/16/9 7/9/7
f 8/11/8 6/10/6 11/18/11
f 5/13/4 8/19/8 9/20/10
f 12/21/12 14/22/13 13/23/14
f 15/24/15 17/25/16 16/26/17
f 17/25/16 12/21/12 13/27/14
f 15/28/15 14/29/13 12/21/12
f 18/30/18 20/31/19 19/32/20
f 18/30/18 22/33/21 21/34/22
f 23/35/23 25/36/24 24/37/25
f 25/38/24 27/39/26 26/40/27
f 27/39/26 29/41/28 28/42/29
f 28/42/29 29/41/28 23/35/23
f 30/43/30 32/44/31 31/45/32
f 31/46/32 32/47/31 33/48/33
f 34/49/34 33/50/33 35/51/35
f 36/52/36 35/51/35 30/43/30
f 37/53/37 39/54/38 38/55/39
f 40/56/40 38/57/39 41/58/41
f 41/59/41 43/60/42 42/61/43
f 43/60/42 39/54/38 37/53/37
f 40/62/40 44/63/44 42/64/43
f 1/1/1 2/3/3 45/65/45
f 2/4/3 4/6/5 45/66/45
f 6/7/6 7/9/7 11/18/11
f 6/10/6 3/12/2 1/67/1
f 5/13/4 3/15/2 8/19/8
f 7/9/7 9/17/10 11/18/11
f 5/5/4 7/9/7 4/6/5
f 8/11/8 11/18/11 9/17/10
f 5/13/4 9/20/10 10/68/9
f 17/25/16 13/27/14 16/69/17
f 15/28/15 12/21/12 17/25/16
f 18/30/18 19/32/20 22/33/21
f 18/30/18 21/34/22 46/70/46
f 23/35/23 24/37/25 47/71/47
f 25/38/24 26/40/27 24/72/25
f 27/39/26 28/42/29 26/40/27
f 28/42/29 23/35/23 47/71/47
f 30/43/30 31/45/32 48/73/48
f 31/46/32 33/48/33 34/74/34
f 34/49/34 35/51/35 36/52/36
f 36/52/36 30/43/30 48/73/48
f 37/53/37 38/55/39 40/75/40
f 40/56/40 41/58/41 44/76/44
f 41/59/41 42/61/43 44/77/44
f 43/60/42 37/53/37 42/61/43
f 40/62/40 42/64/43 37/78/37
