# Blender v2.78 (sub 0) OBJ File: ''
# www.blender.org
o RArm
v -0.131051 1.505054 0.506269
v -0.131051 1.459657 0.245519
v -0.131051 1.431683 0.511306
v 0.131051 1.459657 0.245519
v 0.131051 1.505054 0.506269
v 0.131051 1.431683 0.511306
v -0.131051 1.520953 0.244650
v 0.131051 1.520953 0.244650
v -0.136380 1.342981 0.505343
v -0.136380 1.067544 0.246067
v -0.136380 1.067544 0.505343
v -0.136380 1.342981 0.246067
v -0.064154 1.067544 0.246067
v -0.064154 1.342981 0.505343
v -0.064154 1.067544 0.505343
v -0.128393 0.808240 0.247028
v 0.127814 1.500772 0.247471
v 0.128393 0.808240 0.247028
v 0.128393 0.796370 0.503541
v -0.127814 1.500772 0.503099
v -0.128393 0.796370 0.503541
v 0.127814 1.500772 0.503099
v -0.127814 1.500772 0.247471
v -0.064154 1.342981 0.246067
vt 0.7234 0.1319
vt 0.7201 0.2032
vt 0.7075 0.1358
vt 0.8142 0.1893
vt 0.7871 0.1236
vt 0.8068 0.1210
vt 0.7213 0.1186
vt 0.7889 0.1108
vt 0.7366 0.1981
vt 0.7975 0.1919
vt 0.7991 0.1919
vt 0.7254 0.1160
vt 0.7903 0.1091
vt 0.7343 0.1988
vt 0.7074 0.1179
vt 0.8172 0.1900
vt 0.8084 0.1072
vt 0.8018 0.2974
vt 0.8734 0.0332
vt 0.8644 0.2950
vt 0.8644 0.2950
vt 0.7818 0.0345
vt 0.8018 0.2974
vt 0.7588 0.0805
vt 0.8085 0.0307
vt 0.8085 0.0805
vt 0.9006 0.2970
vt 0.8734 0.0332
vt 0.7515 0.3070
vt 0.6938 0.0491
vt 0.7162 0.2008
vt 0.7818 0.0345
vt 0.7588 0.0307
vt 0.9690 0.0454
vn -0.5845 0.5760 0.5715
vn -1.0000 -0.0000 0.0000
vn -0.6647 0.0512 0.7454
vn 1.0000 -0.0000 0.0000
vn 0.5845 0.5760 0.5715
vn 0.6647 0.0512 0.7454
vn -0.6896 0.7228 0.0439
vn 0.6896 0.7228 0.0439
vn -0.7071 -0.0000 0.7071
vn -0.7071 0.0000 -0.7071
vn 0.0000 0.0000 -1.0000
vn 0.0000 -0.0000 1.0000
vn -0.5801 -0.5622 -0.5894
vn 0.7071 0.0010 -0.7072
vn 0.5801 -0.5622 -0.5894
vn 0.5752 -0.5914 0.5652
vn -0.7071 0.0010 0.7072
vn -0.5752 -0.5914 0.5652
vn 0.7071 0.0010 0.7072
vn -0.7071 0.0010 -0.7072
s 1
f 1/1/1 2/2/2 3/3/3
f 4/4/4 5/5/5 6/6/6
f 5/5/5 3/7/3 6/8/6
f 7/9/7 5/5/5 8/10/8
f 9/11/9 10/12/10 11/13/9
f 12/14/10 13/15/11 10/12/10
f 14/16/12 11/13/9 15/17/12
f 16/18/13 17/19/14 18/20/15
f 19/21/16 20/22/17 21/23/18
f 21/24/18 18/25/15 19/26/16
f 18/27/15 22/28/19 19/21/16
f 16/29/13 20/22/17 23/30/20
f 1/1/1 7/9/7 2/2/2
f 4/4/4 8/10/8 5/5/5
f 5/5/5 1/1/1 3/7/3
f 7/9/7 1/1/1 5/5/5
f 9/11/9 12/14/10 10/12/10
f 12/14/10 24/31/11 13/15/11
f 14/16/12 9/11/9 11/13/9
f 16/18/13 23/32/20 17/19/14
f 19/21/16 22/28/19 20/22/17
f 21/24/18 16/33/13 18/25/15
f 18/27/15 17/34/14 22/28/19
f 16/29/13 21/23/18 20/22/17
