# ..:::Stalker models:::..
# WebSite: http://excalibur-craft.ru
mtllib ship_control_panel_1.mtl
o 1
v -0.292874 1.020936 -0.262133
v -0.292874 0.852085 0.195596
v -0.279490 1.032399 -0.246821
v -0.279490 0.870989 0.192696
v -0.260577 0.863141 0.212996
v -0.270694 0.843676 0.217269
v 0.261525 0.863141 0.212996
v 0.271643 0.843676 0.217269
v 0.280439 0.870989 0.192696
v 0.293823 0.852085 0.195596
v 0.280439 1.032399 -0.246821
v 0.293823 1.020936 -0.262133
v 0.261526 1.041416 -0.271469
v 0.271643 1.030515 -0.288154
v -0.260576 1.041416 -0.271469
v -0.270694 1.030515 -0.288154
v -0.260576 1.041416 -0.271469
v -0.279490 1.032399 -0.246821
v 0.261526 1.041416 -0.271469
v 0.280439 1.032399 -0.246821
v -0.279490 0.870989 0.192696
v 0.280439 0.870989 0.192696
v 0.261525 0.863141 0.212996
v -0.260577 0.863141 0.212996
v -0.292874 0.852085 0.195596
v -0.270694 0.843676 0.217269
v -0.279490 0.870989 0.192696
v -0.260577 0.863141 0.212996
v -0.270694 1.030515 -0.288154
v -0.292874 1.020936 -0.262133
v -0.260576 1.041416 -0.271469
v -0.279490 1.032399 -0.246821
v 0.293823 0.852085 0.195596
v 0.280439 0.870989 0.192696
v 0.271643 0.843676 0.217269
v 0.261525 0.863141 0.212996
v 0.271643 1.030515 -0.288154
v 0.261526 1.041416 -0.271469
v 0.293823 1.020936 -0.262133
v 0.280439 1.032399 -0.246821
v -0.271121 0.820530 0.448129
v -0.278905 0.811360 0.458764
v 0.272070 0.820530 0.448129
v 0.279854 0.811360 0.458764
v 0.289502 0.820530 0.430165
v 0.296823 0.811360 0.441796
v 0.289502 0.820530 0.296387
v 0.296823 0.811360 0.284756
v 0.272070 0.820530 0.278423
v 0.279854 0.811360 0.267789
v -0.271121 0.820530 0.278423
v -0.278905 0.811360 0.267789
v -0.288553 0.820530 0.296387
v -0.295874 0.811360 0.284756
v -0.288553 0.820530 0.430165
v -0.295874 0.811360 0.441796
v 0.272070 0.820530 0.278423
v -0.271121 0.820530 0.278423
v -0.288553 0.820530 0.296387
v -0.288553 0.820530 0.430165
v -0.271121 0.820530 0.448129
v 0.272070 0.820530 0.448129
v 0.289502 0.820530 0.296387
v 0.289502 0.820530 0.430165
vt -1.3302 0.9771
vt -1.3299 0.6917
vt -1.3190 0.9707
vt -1.3184 0.6975
vt -1.3083 0.6850
vt -1.3141 0.6735
vt -1.0270 0.6854
vt -1.0213 0.6740
vt -1.0170 0.6980
vt -1.0055 0.6922
vt -1.0171 0.9712
vt -1.0059 0.9776
vt -1.0272 0.9863
vt -1.0215 0.9978
vt -1.3086 0.9863
vt -1.3143 0.9978
vt -1.3086 0.9863
vt -1.3190 0.9707
vt -1.0272 0.9863
vt -1.0171 0.9712
vt -1.3184 0.6975
vt -1.0170 0.6980
vt -1.0270 0.6854
vt -1.3083 0.6850
vt -1.3299 0.6917
vt -1.3141 0.6735
vt -1.3184 0.6975
vt -1.3083 0.6850
vt -1.3143 0.9978
vt -1.3302 0.9771
vt -1.3086 0.9863
vt -1.3190 0.9707
vt -1.0055 0.6922
vt -1.0170 0.6980
vt -1.0213 0.6740
vt -1.0270 0.6854
vt -1.0215 0.9978
vt -1.0272 0.9863
vt -1.0059 0.9776
vt -1.0171 0.9712
vt 0.0180 0.3482
vt 0.0128 0.3394
vt 0.3120 0.3482
vt 0.3172 0.3394
vt 0.3214 0.3629
vt 0.3265 0.3534
vt 0.3214 0.4725
vt 0.3265 0.4821
vt 0.3120 0.4873
vt 0.3172 0.4960
vt 0.0180 0.4873
vt 0.0128 0.4960
vt 0.0086 0.4725
vt 0.0035 0.4821
vt 0.0086 0.3629
vt 0.0035 0.3534
vt 0.3120 0.4873
vt 0.0180 0.4873
vt 0.0086 0.4725
vt 0.0086 0.3629
vt 0.0180 0.3482
vt 0.3120 0.3482
vt 0.3214 0.4725
vt 0.3214 0.3629
vn -0.7681 0.6008 0.2216
vn -0.7746 0.5935 0.2184
vn -0.7747 0.5935 0.2184
vn -0.7812 0.5861 0.2152
vn 0.0000 0.2144 0.9767
vn 0.7812 0.5861 0.2152
vn 0.7746 0.5935 0.2184
vn 0.7747 0.5935 0.2184
vn 0.7681 0.6008 0.2216
vn 0.0000 0.8372 -0.5470
vn 0.0000 0.8372 -0.5469
vn 0.0000 0.9391 0.3436
vn 0.0000 0.9389 0.3443
vn 0.0000 0.9366 0.3503
vn -0.0000 0.9348 0.3553
vn 0.0000 0.9327 0.3606
vn -0.5163 0.4749 0.7127
vn -0.5397 0.4603 0.7048
vn -0.5627 0.4454 0.6964
vn -0.5638 0.8051 -0.1842
vn -0.5607 0.8132 -0.1558
vn -0.5571 0.8206 -0.1273
vn 0.5163 0.4749 0.7127
vn 0.5397 0.4603 0.7048
vn 0.5627 0.4454 0.6964
vn 0.5638 0.8051 -0.1842
vn 0.5607 0.8132 -0.1558
vn 0.5572 0.8206 -0.1273
vn -0.2784 0.8214 0.4979
vn -0.1393 0.7981 0.5862
vn 0.2095 0.8132 0.5429
vn 0.2097 0.8111 0.5460
vn 0.6205 0.7567 0.2060
vn 0.6211 0.7553 0.2094
vn 0.6824 0.7181 -0.1366
vn 0.5529 0.7856 -0.2778
vn 0.2784 0.8214 -0.4978
vn 0.1393 0.7981 -0.5862
vn -0.2095 0.8132 -0.5429
vn -0.2097 0.8111 -0.5460
vn -0.6205 0.7567 -0.2060
vn -0.6210 0.7553 -0.2094
vn -0.6824 0.7181 0.1366
vn -0.5529 0.7856 0.2778
vn 0.0000 1.0000 -0.0000
usemtl prop_pult5
s 1
f 1/1/1 2/2/2 3/3/3
f 3/3/3 2/2/2 4/4/4
f 5/5/5 6/6/5 7/7/5
f 7/7/5 6/6/5 8/8/5
f 9/9/6 10/10/7 11/11/8
f 11/11/8 10/10/7 12/12/9
f 13/13/10 14/14/10 15/15/11
f 15/15/11 14/14/10 16/16/11
f 17/17/12 18/18/13 19/19/12
f 19/19/12 18/18/13 20/20/13
f 20/20/13 18/18/13 21/21/14
f 20/20/13 21/21/14 22/22/15
f 23/23/16 22/22/15 24/24/16
f 21/21/14 24/24/16 22/22/15
f 25/25/17 26/26/18 27/27/18
f 27/27/18 26/26/18 28/28/19
f 29/29/20 30/30/21 31/31/21
f 31/31/21 30/30/21 32/32/22
f 33/33/23 34/34/24 35/35/24
f 35/35/24 34/34/24 36/36/25
f 37/37/26 38/38/27 39/39/27
f 39/39/27 38/38/27 40/40/28
f 41/41/29 42/42/30 43/43/31
f 43/43/31 42/42/30 44/44/32
f 45/45/33 46/46/34 47/47/35
f 47/47/35 46/46/34 48/48/36
f 49/49/37 50/50/38 51/51/39
f 51/51/39 50/50/38 52/52/40
f 53/53/41 54/54/42 55/55/43
f 55/55/43 54/54/42 56/56/44
f 57/57/45 58/58/45 59/59/45
f 60/60/45 61/61/45 62/62/45
f 63/63/45 57/57/45 59/59/45
f 60/60/45 63/63/45 59/59/45
f 60/60/45 62/62/45 64/64/45
f 60/60/45 64/64/45 63/63/45
f 42/42/30 41/41/29 56/56/44
f 56/56/44 41/41/29 55/55/43
f 44/44/32 46/46/34 43/43/31
f 43/43/31 46/46/34 45/45/33
f 50/50/38 49/49/37 48/48/36
f 48/48/36 49/49/37 47/47/35
f 52/52/40 54/54/42 51/51/39
f 51/51/39 54/54/42 53/53/41
o 0
v -0.315874 0.046562 -0.404040
v 0.316823 0.046562 -0.404040
v -0.315874 0.000000 -0.404040
v 0.316823 0.000000 -0.404040
v 0.316823 0.046562 -0.404040
v 0.316823 0.046562 0.011544
v 0.316823 0.000000 -0.404040
v 0.316823 -0.000000 0.011544
v 0.316823 0.046562 0.011544
v -0.315874 0.046562 0.011544
v 0.316823 -0.000000 0.011544
v -0.315874 -0.000000 0.011544
v -0.315874 0.046562 0.011544
v -0.315874 0.046562 -0.404040
v -0.315874 -0.000000 0.011544
v -0.315874 0.000000 -0.404040
vt 3.7917 0.3673
vt 2.9050 0.3679
vt 3.7917 0.3021
vt 2.9050 0.3027
vt 2.9050 0.3679
vt 2.3226 0.3679
vt 2.9050 0.3027
vt 2.3226 0.3027
vt 2.3226 0.3679
vt 1.4359 0.3672
vt 2.3226 0.3027
vt 1.4359 0.3020
vt 1.4359 0.3672
vt 0.8534 0.3671
vt 1.4359 0.3020
vt 0.8535 0.3018
vn 0.0000 0.0000 -1.0000
vn 1.0000 0.0000 0.0000
vn 0.0000 0.0000 1.0000
vn -1.0000 0.0000 0.0000
usemtl mtl_bochka_01
s 1
f 65/65/46 66/66/46 67/67/46
f 67/67/46 66/66/46 68/68/46
f 69/69/47 70/70/47 71/71/47
f 71/71/47 70/70/47 72/72/47
f 73/73/48 74/74/48 75/75/48
f 75/75/48 74/74/48 76/76/48
f 77/77/49 78/78/49 79/79/49
f 79/79/49 78/78/49 80/80/49
o 2
v -0.315874 0.046562 0.011544
v 0.316823 0.046562 0.011544
v -0.315874 0.365391 0.011544
v 0.316823 0.365391 0.011544
v -0.315874 0.791574 -0.404040
v 0.316823 0.791574 -0.404040
v -0.315874 0.365391 -0.404040
v 0.316823 0.365391 -0.404040
v 0.316823 0.046562 0.011544
v 0.316823 0.046562 -0.404040
v 0.316823 0.365391 0.011544
v 0.316823 0.365391 -0.404040
v -0.315874 0.046562 -0.404040
v -0.315874 0.046562 0.011544
v -0.315874 0.365391 -0.404040
v -0.315874 0.365391 0.011544
v -0.315874 0.620941 0.478764
v 0.316823 0.620941 0.478764
v -0.315874 0.791574 0.478764
v 0.316823 0.791574 0.478764
v -0.315873 1.038125 -0.309445
v 0.316822 1.038125 -0.309445
v -0.315874 1.038125 -0.404040
v 0.316823 1.038125 -0.404040
v -0.315874 0.811360 0.247789
v 0.316823 0.811360 0.247789
v -0.315873 0.833030 0.247789
v 0.316822 0.833030 0.247789
v -0.315874 0.365391 0.011544
v 0.316823 0.365391 0.011544
v -0.315874 0.620941 0.478764
v 0.316823 0.620941 0.478764
v -0.315873 0.833030 0.247789
v -0.292874 0.852085 0.195596
v -0.315873 1.038125 -0.309445
v -0.292874 1.020936 -0.262133
v -0.315873 0.833030 0.247789
v 0.316822 0.833030 0.247789
v -0.270694 0.843676 0.217269
v 0.271643 0.843676 0.217269
v 0.316822 0.833030 0.247789
v 0.316822 1.038125 -0.309445
v 0.293823 0.852085 0.195596
v 0.293823 1.020936 -0.262133
v 0.271643 1.030515 -0.288154
v -0.270694 1.030515 -0.288154
v -0.292874 0.852085 0.195596
v 0.293823 0.852085 0.195596
v -0.315874 0.811360 0.478764
v 0.316823 0.811360 0.478764
v -0.278905 0.811360 0.458764
v 0.279854 0.811360 0.458764
v 0.316823 0.811360 0.247789
v 0.296823 0.811360 0.441796
v 0.296823 0.811360 0.284756
v -0.315874 0.811360 0.247789
v 0.279854 0.811360 0.267789
v -0.278905 0.811360 0.267789
v -0.295874 0.811360 0.284756
v -0.295874 0.811360 0.441796
v 0.316823 0.365391 -0.404040
v 0.316823 0.791574 -0.404040
v 0.316823 0.365391 0.011544
v 0.316823 0.791574 0.478764
v 0.316823 0.620941 0.478764
v -0.315874 0.365391 -0.404040
v -0.315874 0.365391 0.011544
v -0.315874 0.791574 -0.404040
v -0.315874 0.791574 0.478764
v -0.315874 0.620941 0.478764
v -0.315874 0.791574 0.478764
v 0.316823 0.791574 0.478764
v -0.315874 0.811360 0.478764
v 0.316823 0.811360 0.478764
v 0.316823 0.811360 0.478764
v 0.316823 0.791574 0.478764
v 0.316823 0.811360 0.247789
v 0.316823 0.791574 -0.404040
v 0.316823 1.038125 -0.404040
v 0.316822 1.038125 -0.309445
v 0.316822 0.833030 0.247789
v -0.315874 0.791574 -0.404040
v -0.315874 0.791574 0.478764
v -0.315874 0.811360 0.247789
v -0.315874 0.811360 0.478764
v -0.315874 1.038125 -0.404040
v -0.315873 1.038125 -0.309445
v -0.315873 0.833030 0.247789
v -0.315874 0.365391 -0.404040
v 0.316823 0.365391 -0.404040
v -0.315874 0.046562 -0.404040
v 0.316823 0.046562 -0.404040
v -0.315874 1.038125 -0.404040
v 0.316823 1.038125 -0.404040
vt 1.0888 0.1143
vt 1.3070 0.1143
vt 1.0888 0.0024
vt 1.3070 0.0024
vt 0.7966 0.2442
vt 1.3054 0.2442
vt 0.7966 0.4824
vt 1.3054 0.4824
vt 0.1962 0.1146
vt 0.3466 0.1146
vt 0.1962 0.0007
vt 0.3466 0.0007
vt 0.3473 0.1146
vt 0.1969 0.1146
vt 0.3473 0.0007
vt 0.1969 0.0007
vt 2.9583 0.1130
vt 2.5458 0.1130
vt 2.9583 0.0018
vt 2.5458 0.0018
vt 1.7989 0.3398
vt 1.2966 0.3398
vt 1.7989 0.2467
vt 1.2966 0.2467
vt 0.7901 0.5281
vt 1.3067 0.5280
vt 0.7902 0.5457
vt 1.3066 0.5457
vt 1.0167 0.0024
vt 1.2913 0.0024
vt 1.0167 0.2476
vt 1.2913 0.2476
vt 2.8045 0.8702
vt 2.7900 0.8205
vt 2.8043 0.3396
vt 2.7899 0.3845
vt 2.8045 0.3408
vt 2.2958 0.3409
vt 2.7719 0.3630
vt 2.3284 0.3630
vt 2.2958 0.8701
vt 2.2955 0.3396
vt 2.3105 0.8205
vt 2.3100 0.3845
vt 2.3281 0.3598
vt 2.7718 0.3598
vt 2.7900 0.3789
vt 2.3105 0.3789
vt 0.7903 0.3397
vt 1.3068 0.3395
vt 0.8205 0.3560
vt 1.2766 0.3558
vt 1.3067 0.5280
vt 1.2905 0.3696
vt 1.2904 0.4978
vt 0.7901 0.5281
vt 1.2765 0.5117
vt 0.8204 0.5116
vt 0.8064 0.4979
vt 0.8066 0.3699
vt 0.2722 0.0292
vt 0.2722 0.2325
vt 0.0739 0.0292
vt -0.1490 0.2325
vt -0.1490 0.1511
vt 0.2731 0.0292
vt 0.0748 0.0292
vt 0.2731 0.2325
vt -0.1481 0.2325
vt -0.1481 0.1511
vt 1.8058 0.8791
vt 1.8058 0.4690
vt 1.7930 0.8791
vt 1.7930 0.4690
vt 0.3288 0.3543
vt 0.3288 0.3431
vt 0.4516 0.3543
vt 0.7983 0.3431
vt 0.7983 0.4826
vt 0.7480 0.4826
vt 0.4516 0.3665
vt 0.7993 0.3431
vt 0.3298 0.3431
vt 0.4526 0.3543
vt 0.3298 0.3543
vt 0.7993 0.4826
vt 0.7490 0.4826
vt 0.4526 0.3665
vt 1.2956 0.6397
vt 1.8046 0.6397
vt 1.2956 0.8860
vt 1.8046 0.8860
vt 0.7966 0.1063
vt 1.3054 0.1063
vn 0.0000 -0.0000 1.0000
vn 0.0000 0.0000 -1.0000
vn 1.0000 0.0000 0.0000
vn -1.0000 0.0000 0.0000
vn -0.0013 0.9579 0.2870
vn 0.0013 0.9728 0.2316
vn 0.0000 1.0000 -0.0000
vn 0.0000 -0.8773 0.4799
vn 0.0070 0.9400 0.3411
vn 0.0034 0.9380 0.3467
vn -0.0071 0.9388 0.3445
vn 0.0070 0.9400 0.3412
vn -0.0053 0.9411 0.3382
vn 0.0053 0.9417 0.3363
vn -0.0074 0.9407 0.3390
vn -0.0034 0.9380 0.3467
vn 0.0071 0.9388 0.3445
vn 0.0011 0.9409 0.3387
vn -0.0017 0.9405 0.3398
usemtl mtl_wall_04
s 1
f 81/81/50 82/82/50 83/83/50
f 83/83/50 82/82/50 84/84/50
f 85/85/51 86/86/51 87/87/51
f 87/87/51 86/86/51 88/88/51
f 89/89/52 90/90/52 91/91/52
f 91/91/52 90/90/52 92/92/52
f 93/93/53 94/94/53 95/95/53
f 95/95/53 94/94/53 96/96/53
f 97/97/50 98/98/50 99/99/50
f 99/99/50 98/98/50 100/100/50
f 101/101/54 102/102/55 103/103/56
f 103/103/56 102/102/55 104/104/56
f 105/105/50 106/106/50 107/107/50
f 107/107/50 106/106/50 108/108/50
f 109/109/57 110/110/57 111/111/57
f 111/111/57 110/110/57 112/112/57
f 113/113/58 114/114/59 115/115/54
f 115/115/54 114/114/59 116/116/60
f 117/117/61 118/118/62 119/119/63
f 119/119/63 118/118/62 120/120/64
f 121/121/62 122/122/55 123/123/65
f 123/123/65 122/122/55 124/124/66
f 122/122/55 115/115/54 125/125/67
f 125/125/67 115/115/54 126/126/68
f 127/127/59 117/117/61 119/119/63
f 126/126/68 115/115/54 116/116/60
f 120/120/64 118/118/62 128/128/65
f 124/124/66 122/122/55 125/125/67
f 129/129/56 130/130/56 131/131/56
f 131/131/56 130/130/56 132/132/56
f 130/130/56 133/133/56 134/134/56
f 134/134/56 133/133/56 135/135/56
f 133/133/56 136/136/56 137/137/56
f 137/137/56 136/136/56 138/138/56
f 136/136/56 129/129/56 139/139/56
f 139/139/56 129/129/56 140/140/56
f 140/140/56 129/129/56 131/131/56
f 132/132/56 130/130/56 134/134/56
f 135/135/56 133/133/56 137/137/56
f 138/138/56 136/136/56 139/139/56
f 141/141/52 142/142/52 143/143/52
f 144/144/52 145/145/52 142/142/52
f 143/143/52 142/142/52 145/145/52
f 146/146/53 147/147/53 148/148/53
f 149/149/53 148/148/53 150/150/53
f 147/147/53 150/150/53 148/148/53
f 151/151/50 152/152/50 153/153/50
f 153/153/50 152/152/50 154/154/50
f 155/155/52 156/156/52 157/157/52
f 157/157/52 156/156/52 158/158/52
f 159/159/52 160/160/52 158/158/52
f 157/157/52 158/158/52 161/161/52
f 158/158/52 160/160/52 161/161/52
f 162/162/53 163/163/53 164/164/53
f 163/163/53 165/165/53 164/164/53
f 166/166/53 162/162/53 167/167/53
f 164/164/53 168/168/53 162/162/53
f 162/162/53 168/168/53 167/167/53
f 169/169/51 170/170/51 171/171/51
f 171/171/51 170/170/51 172/172/51
f 173/173/51 174/174/51 85/85/51
f 85/85/51 174/174/51 86/86/51
