# Blender v2.76 (sub 0) OBJ File: ''
# www.blender.org
mtllib LeftLeg.mtl
o LLeg004
v 0.118957 0.488718 -0.129932
v 0.122896 0.400959 -0.228652
v 0.118957 0.366082 -0.129932
v 0.123758 0.488718 -0.250237
v 0.169901 0.443987 -0.178297
v 0.177261 0.488718 -0.127040
v 0.165886 0.443987 -0.077662
v 0.167894 0.426210 -0.127980
v 0.114157 0.488718 -0.009627
v 0.165447 0.488718 -0.066660
v 0.169901 0.533448 -0.178297
v 0.118957 0.611353 -0.129932
v 0.167894 0.551225 -0.127980
v 0.165886 0.533448 -0.077662
v 0.115019 0.576476 -0.031212
v 0.115019 0.400959 -0.031212
v 0.170340 0.488718 -0.189300
v 0.122896 0.576476 -0.228652
v -0.127027 0.098234 -0.252027
v -0.042342 0.758831 -0.252027
v -0.042342 0.098234 -0.263707
v 0.127027 0.098234 0.002027
v 0.042342 0.758831 0.002027
v 0.042342 0.098234 0.002027
v -0.127027 0.758831 -0.061486
v -0.042342 0.758831 0.002027
v -0.042342 0.758831 -0.061486
v -0.048220 -0.003331 -0.217448
v -0.144660 -0.003331 -0.273318
v -0.048220 -0.003331 -0.284998
v 0.127027 0.098234 -0.252027
v 0.127027 0.758831 -0.188513
v 0.163058 0.098234 -0.188513
v -0.127027 0.098234 0.002027
v -0.127027 0.098234 -0.061486
v -0.144660 -0.003331 -0.000458
v -0.144660 0.031400 -0.072788
v -0.144660 -0.003331 -0.072788
v 0.226961 -0.003331 -0.273318
v 0.262992 0.031400 -0.217448
v 0.262992 -0.003331 -0.217448
v 0.226961 -0.003331 -0.000458
v 0.048220 0.031400 -0.000458
v 0.048220 -0.003331 -0.000458
v -0.144660 0.031400 -0.273318
v -0.048220 0.031400 -0.284998
v -0.144660 0.031400 -0.000458
v -0.137978 0.035422 -0.061487
v 0.207041 0.035422 -0.252027
v 0.243072 0.035422 -0.188514
v 0.207041 0.035422 0.002027
v 0.042342 0.035422 0.002027
v -0.137978 0.035422 -0.252027
v -0.042342 0.035422 -0.263707
v 0.226961 0.031400 -0.000458
v 0.243072 0.035422 -0.061487
v 0.262992 0.031400 -0.072788
v 0.248540 0.035422 -0.125000
v 0.268459 0.031400 -0.145118
v -0.144660 0.031400 -0.217448
v -0.144660 0.031400 -0.145118
v -0.137978 0.035422 -0.188514
v -0.137978 0.035422 -0.125000
v 0.262992 -0.003331 -0.072788
v 0.268459 -0.003331 -0.145118
v -0.144660 -0.003331 -0.217448
v -0.144660 -0.003331 -0.145118
v -0.127027 0.098234 -0.188513
v -0.127027 0.758831 -0.252027
v -0.127027 0.098234 -0.125000
v -0.127027 0.758831 -0.188513
v -0.127027 0.758831 -0.125000
v 0.127027 0.758831 -0.061486
v 0.127027 0.758831 0.002027
v 0.163058 0.098234 -0.125000
v 0.163058 0.098234 -0.061486
v 0.127027 0.758831 -0.125000
v -0.048220 -0.003331 -0.072788
v -0.048220 -0.003331 -0.000458
v -0.048220 -0.003331 -0.145118
v -0.042342 0.758831 -0.188513
v -0.042342 0.758831 -0.125000
v 0.042342 0.758831 -0.125000
v 0.042342 0.758831 -0.061486
v 0.042342 0.758831 -0.188513
v 0.042342 0.758831 -0.252027
v 0.127027 0.758831 -0.252027
v 0.048220 -0.003331 -0.145118
v 0.048220 -0.003331 -0.217448
v 0.048220 -0.003331 -0.072788
v 0.048220 0.031400 -0.284998
v 0.226961 0.031400 -0.273318
v 0.042342 0.035422 -0.263707
v -0.048220 0.031400 -0.000458
v -0.137978 0.035422 0.002027
v -0.042342 0.035422 0.002027
v 0.048220 -0.003331 -0.284998
v -0.042342 0.098234 0.002027
v -0.127027 0.758831 0.002027
v 0.042342 0.098234 -0.263707
v 0.042342 0.059146 -0.263707
v 0.200564 0.062195 -0.252027
v -0.042342 0.059146 0.002027
v -0.137978 0.059146 0.002027
v 0.242062 0.062195 -0.125000
v 0.236595 0.062194 -0.061487
v 0.200564 0.062194 0.002027
v -0.137978 0.059146 -0.125000
v -0.137978 0.059146 -0.188513
v -0.137978 0.059146 -0.252027
v -0.137978 0.059146 -0.061487
v 0.236595 0.062195 -0.188513
v 0.042342 0.059146 0.002027
v -0.042342 0.059146 -0.263707
vt 0.598700 0.811800
vt 0.570000 0.785800
vt 0.558500 0.811800
vt 0.598700 0.780100
vt 0.584000 0.799000
vt 0.598700 0.812500
vt 0.584000 0.825600
vt 0.578200 0.812300
vt 0.598700 0.843500
vt 0.598700 0.828400
vt 0.613300 0.799000
vt 0.638800 0.811800
vt 0.619100 0.812300
vt 0.613300 0.825600
vt 0.627400 0.837800
vt 0.570000 0.837800
vt 0.598700 0.796100
vt 0.627400 0.785800
vt 0.397000 0.928400
vt 0.728700 0.948000
vt 0.397000 0.948000
vt 0.398300 0.982900
vt 0.727300 0.957900
vt 0.398300 0.957900
vt 0.733400 0.830300
vt 0.733400 0.848600
vt 0.840600 0.167200
vt 0.858200 0.119600
vt 0.861900 0.167200
vt 0.398300 0.775700
vt 0.733400 0.793900
vt 0.398300 0.793900
vt 0.398900 0.851600
vt 0.729700 0.869900
vt 0.398900 0.869900
vt 0.538600 0.667600
vt 0.583000 0.688900
vt 0.583000 0.667600
vt 0.706200 0.667600
vt 0.671900 0.688900
vt 0.671900 0.667600
vt 0.538600 0.688900
vt 0.713400 0.667600
vt 0.706200 0.688900
vt 0.713400 0.688900
vt 0.606000 0.658000
vt 0.604000 0.663800
vt 0.604000 0.658000
vt 0.588400 0.658000
vt 0.590400 0.663800
vt 0.588400 0.663800
vt 0.611200 0.658000
vt 0.613800 0.663800
vt 0.611200 0.663800
vt 0.595600 0.658000
vt 0.598200 0.663800
vt 0.595600 0.663800
vt 0.582600 0.658000
vt 0.584500 0.663800
vt 0.582600 0.663800
vt 0.584500 0.658000
vt 0.586500 0.663800
vt 0.586500 0.658000
vt 0.600100 0.658000
vt 0.598200 0.658000
vt 0.602100 0.658000
vt 0.600100 0.663800
vt 0.602100 0.663800
vt 0.627400 0.667600
vt 0.627400 0.688900
vt 0.398900 0.906300
vt 0.729700 0.924500
vt 0.398900 0.924500
vt 0.398900 0.888100
vt 0.729700 0.906300
vt 0.729700 0.888100
vt 0.398300 0.850100
vt 0.733400 0.831900
vt 0.733400 0.850100
vt 0.398300 0.812100
vt 0.398300 0.830300
vt 0.733400 0.812100
vt 0.772300 0.119600
vt 0.795100 0.167200
vt 0.772300 0.167200
vt 0.795100 0.119600
vt 0.817800 0.167200
vt 0.817800 0.119600
vt 0.733400 0.775700
vt 0.817800 0.214800
vt 0.840600 0.320700
vt 0.817800 0.323400
vt 0.840600 0.214800
vt 0.795100 0.320700
vt 0.795100 0.214800
vt 0.772300 0.302900
vt 0.772300 0.214800
vt 0.593000 0.658000
vt 0.590400 0.658000
vt 0.593000 0.663800
vt 0.608600 0.658000
vt 0.606000 0.663800
vt 0.608600 0.663800
vt 0.858200 0.302900
vt 0.861900 0.214800
vt 0.398300 0.932900
vt 0.727300 0.907800
vt 0.398300 0.907800
vt 0.727300 0.932900
vt 0.397000 0.987100
vt 0.728700 0.967600
vt 0.728700 0.987100
vt 0.397000 0.967600
vt 0.429300 0.455800
vt 0.478600 0.477100
vt 0.478600 0.455800
vt 0.559300 0.493400
vt 0.560700 0.479100
vt 0.429300 0.477100
vt 0.373600 0.477100
vt 0.373600 0.455800
vt 0.556300 0.498300
vt 0.542200 0.498100
vt 0.544400 0.493100
vt 0.532500 0.487900
vt 0.530300 0.492900
vt 0.520600 0.482700
vt 0.518400 0.487700
vt 0.428800 0.473400
vt 0.417000 0.474500
vt 0.418100 0.470500
vt 0.406200 0.471600
vt 0.407300 0.467500
vt 0.395500 0.468600
vt 0.396600 0.464600
vt 0.439600 0.476300
vt 0.427700 0.477400
vt 0.568300 0.503400
vt 0.554200 0.503300
vt 0.478600 0.512300
vt 0.535500 0.513800
vt 0.552700 0.486400
vt 0.429300 0.512300
vt 0.380000 0.512300
vt 0.571600 0.492700
vt 0.547500 0.513100
vt 0.573500 0.492600
vt 0.557400 0.481100
vt 0.527100 0.513800
vt 0.415200 0.481100
vt 0.404400 0.478200
vt 0.393700 0.475200
vt 0.438500 0.480400
vt 0.425900 0.484000
vt 0.728700 0.928400
vt 0.727300 0.982900
vt 0.840600 0.119600
vt 0.729700 0.851600
vt 0.613800 0.658000
vt 0.398300 0.831900
vt 0.566100 0.508500
vt 0.436700 0.487000
vn -0.999200 0.000000 -0.039900
vn 0.784800 -0.155300 -0.599900
vn 0.984600 -0.148900 0.091900
vn 0.734500 -0.155300 0.660600
vn 0.764800 -0.616400 -0.187300
vn 0.764800 0.616400 -0.187300
vn 0.747500 0.616400 0.247600
vn 0.747500 -0.616400 0.247600
vn 0.993200 -0.036900 -0.110400
vn 0.993200 0.036900 -0.110400
vn 0.734500 0.155300 0.660600
vn 0.984600 0.148900 0.091900
vn 0.784800 0.155300 -0.599900
vn -0.136600 0.017500 -0.990500
vn -0.000000 -0.000000 1.000000
vn 0.000000 1.000000 0.000000
vn -0.000000 -1.000000 -0.000000
vn 0.868800 0.047400 -0.492900
vn -1.000000 -0.000000 0.000000
vn 0.840400 0.000000 -0.542000
vn -0.120200 0.000000 -0.992700
vn -0.515700 0.856800 0.000000
vn 0.109800 0.992000 -0.062300
vn 0.000000 -0.525600 0.850700
vn -0.021900 0.983500 -0.179600
vn -0.021900 0.983500 -0.179500
vn -0.021900 0.983500 -0.179700
vn 0.210800 0.970200 0.119600
vn 0.212100 0.977100 0.016500
vn 0.209000 0.977800 0.017400
vn 0.207600 0.978000 0.017900
vn 0.179900 0.983600 -0.014000
vn 0.181800 0.983200 -0.015200
vn 0.182600 0.983100 -0.015700
vn 0.895100 -0.000000 0.445900
vn 0.997200 0.000000 0.075400
vn 0.997200 0.000000 -0.075400
vn 1.000000 0.000000 0.000000
vn 0.998500 0.054500 0.000000
vn 0.001700 0.984000 -0.178300
vn 0.012500 0.983500 -0.180300
vn 0.011500 0.984500 -0.175300
vn 0.000000 0.982600 -0.185600
vn 0.012000 0.983100 -0.182400
vn 0.065200 0.000000 -0.997900
vn 0.000000 0.000000 -1.000000
vn 0.000000 0.017700 -0.999800
vn 0.070700 0.017100 -0.997300
vn 0.968600 0.234300 -0.083400
vn 0.968600 0.234400 -0.083400
vn 0.968600 0.234300 0.083400
vn 0.851100 0.205900 0.482800
vn 0.851100 0.205900 -0.482900
vn -0.121200 0.000000 -0.992600
vn 0.070100 0.143100 -0.987200
vn 0.414800 0.909200 -0.035700
vn 0.440100 0.898000 0.000000
vn 0.427000 0.871200 0.242200
vn -0.962900 0.269800 0.000000
vn 0.427000 0.871200 -0.242200
vn -0.136600 0.000000 -0.990600
vn 0.980700 -0.037600 0.191900
vn 0.988900 -0.148000 -0.012800
vn 0.988900 0.148000 -0.012800
vn 0.980700 0.037600 0.191900
vn 0.118300 0.990000 -0.076300
vn -0.021700 0.983600 -0.179000
vn 0.268500 0.954000 0.133700
vn 0.213500 0.976800 0.016100
vn 0.179000 0.983800 -0.013500
vn 0.868800 0.047400 0.492900
vn 0.136600 0.017500 -0.990500
vn 0.073600 0.000000 -0.997300
vn 0.968600 0.234400 0.083400
vn 0.136600 0.000000 -0.990600
vn 0.414800 0.909200 0.035700
vn -0.121200 0.033900 -0.992100
usemtl None
s 1
f 1/1/1 2/2/1 3/3/1
f 4/4/2 5/5/2 2/2/2
f 6/6/3 7/7/3 8/8/3
f 9/9/4 7/7/4 10/10/4
f 3/3/5 5/5/5 8/8/5
f 11/11/6 12/12/6 13/13/6
f 14/14/7 12/12/7 15/15/7
f 3/3/8 7/7/8 16/16/8
f 6/6/9 5/5/9 17/17/9
f 1/1/1 16/16/1 9/9/1
f 15/15/1 1/1/1 9/9/1
f 11/11/10 6/6/10 17/17/10
f 14/14/11 9/9/11 10/10/11
f 14/14/12 6/6/12 13/13/12
f 11/11/13 4/4/13 18/18/13
f 18/18/1 1/1/1 12/12/1
f 19/19/14 20/20/14 21/21/14
f 22/22/15 23/23/15 24/24/15
f 25/25/16 26/26/16 27/25/16
f 28/27/17 29/28/17 30/29/17
f 31/30/18 32/31/18 33/32/18
f 34/33/19 25/34/19 35/35/19
f 36/36/19 37/37/19 38/38/19
f 39/39/20 40/40/20 41/41/20
f 42/36/15 43/42/15 44/36/15
f 30/43/21 45/44/21 46/45/21
f 47/46/22 48/47/22 37/48/22
f 40/49/23 49/50/23 50/51/23
f 43/52/24 51/53/24 52/54/24
f 46/55/25 53/56/26 54/57/27
f 55/58/28 56/59/28 51/60/28
f 57/61/29 58/62/30 56/59/31
f 59/63/32 50/51/33 58/62/34
f 60/64/22 53/56/22 45/65/22
f 61/66/22 62/67/22 60/64/22
f 37/48/22 63/68/22 61/66/22
f 64/38/35 55/42/35 42/36/35
f 65/69/36 57/37/36 64/38/36
f 41/41/37 59/70/37 65/69/37
f 29/39/19 60/40/19 45/44/19
f 66/41/19 61/70/19 60/40/19
f 38/38/19 61/70/19 67/69/19
f 68/71/19 69/72/19 19/73/19
f 70/74/19 71/75/19 68/71/19
f 35/35/19 72/76/19 70/74/19
f 22/77/38 73/78/38 74/79/38
f 75/80/39 73/25/39 76/81/39
f 33/32/39 77/82/39 75/80/39
f 36/83/17 78/84/17 79/85/17
f 38/86/17 80/87/17 78/84/17
f 67/88/17 28/27/17 80/87/17
f 69/89/16 81/31/16 20/89/16
f 71/31/16 82/82/16 81/31/16
f 72/82/16 27/25/16 82/82/16
f 83/82/16 73/25/16 77/82/16
f 82/82/16 84/25/16 83/82/16
f 85/31/16 77/82/16 32/31/16
f 81/31/16 83/82/16 85/31/16
f 86/89/16 32/31/16 87/89/16
f 20/89/16 85/31/16 86/89/16
f 88/90/17 41/91/17 65/92/17
f 80/87/17 89/93/17 88/90/17
f 64/94/17 88/90/17 65/92/17
f 78/84/17 88/90/17 90/95/17
f 42/96/17 90/95/17 64/94/17
f 79/85/17 90/95/17 44/97/17
f 91/98/40 49/50/41 92/99/42
f 91/98/40 54/57/43 93/100/44
f 94/101/24 95/102/24 47/46/24
f 43/52/24 96/103/24 94/101/24
f 97/43/45 92/44/45 39/39/45
f 30/43/46 91/45/46 97/43/46
f 79/36/15 47/42/15 36/36/15
f 44/36/15 94/42/15 79/36/15
f 89/93/17 39/104/17 41/91/17
f 28/27/17 97/105/17 89/93/17
f 84/25/16 74/26/16 73/25/16
f 27/25/16 23/26/16 84/25/16
f 98/106/15 99/107/15 34/108/15
f 24/24/15 26/109/15 98/106/15
f 31/110/46 86/111/46 87/112/46
f 21/21/47 86/111/47 100/113/47
f 54/114/46 101/115/46 93/116/46
f 93/116/48 102/117/48 49/118/48
f 52/116/15 103/119/15 96/114/15
f 96/114/15 104/120/15 95/121/15
f 50/122/49 105/123/49 58/124/50
f 56/125/51 105/123/51 106/126/51
f 51/127/52 106/126/52 107/128/52
f 48/129/19 108/130/19 63/131/19
f 63/131/19 109/132/19 62/133/19
f 62/133/19 110/134/19 53/135/19
f 95/136/19 111/137/19 48/129/19
f 49/138/53 112/139/53 50/122/53
f 52/116/15 107/117/15 113/115/15
f 53/121/54 114/119/54 54/114/54
f 114/119/46 100/140/46 101/115/46
f 101/115/55 31/141/55 102/142/55
f 113/115/15 98/143/15 103/119/15
f 103/119/15 34/144/15 104/120/15
f 112/145/56 75/146/56 105/147/56
f 106/145/57 75/146/57 76/146/57
f 107/148/58 76/146/58 22/149/58
f 111/137/59 70/150/59 108/130/59
f 108/130/59 68/151/59 109/132/59
f 109/132/59 19/152/59 110/134/59
f 104/153/59 35/154/59 111/137/59
f 102/148/60 33/146/60 112/145/60
f 113/115/15 22/141/15 24/140/15
f 114/119/61 19/144/61 21/143/61
f 1/1/1 4/4/1 2/2/1
f 4/4/2 17/17/2 5/5/2
f 6/6/62 10/10/62 7/7/62
f 9/9/4 16/16/4 7/7/4
f 3/3/5 2/2/5 5/5/5
f 11/11/6 18/18/6 12/12/6
f 14/14/7 13/13/7 12/12/7
f 3/3/8 8/8/8 7/7/8
f 6/6/63 8/8/63 5/5/63
f 1/1/1 3/3/1 16/16/1
f 15/15/1 12/12/1 1/1/1
f 11/11/64 13/13/64 6/6/64
f 14/14/11 15/15/11 9/9/11
f 14/14/65 10/10/65 6/6/65
f 11/11/13 17/17/13 4/4/13
f 18/18/1 4/4/1 1/1/1
f 19/19/46 69/155/46 20/20/46
f 22/22/15 74/156/15 23/23/15
f 25/25/16 99/26/16 26/26/16
f 28/27/17 66/157/17 29/28/17
f 31/30/38 87/89/38 32/31/38
f 34/33/19 99/158/19 25/34/19
f 36/36/19 47/42/19 37/37/19
f 39/39/20 92/44/20 40/40/20
f 42/36/15 55/42/15 43/42/15
f 30/43/21 29/39/21 45/44/21
f 47/46/22 95/102/22 48/47/22
f 40/49/66 92/99/66 49/50/66
f 43/52/24 55/159/24 51/53/24
f 46/55/25 45/65/67 53/56/26
f 55/58/68 57/61/68 56/59/68
f 57/61/29 59/63/69 58/62/30
f 59/63/32 40/49/70 50/51/33
f 60/64/22 62/67/22 53/56/22
f 61/66/22 63/68/22 62/67/22
f 37/48/22 48/47/22 63/68/22
f 64/38/35 57/37/35 55/42/35
f 65/69/36 59/70/36 57/37/36
f 41/41/37 40/40/37 59/70/37
f 29/39/19 66/41/19 60/40/19
f 66/41/19 67/69/19 61/70/19
f 38/38/19 37/37/19 61/70/19
f 68/71/19 71/75/19 69/72/19
f 70/74/19 72/76/19 71/75/19
f 35/35/19 25/34/19 72/76/19
f 22/77/71 76/160/71 73/78/71
f 75/80/39 77/82/39 73/25/39
f 33/32/39 32/31/39 77/82/39
f 36/83/17 38/86/17 78/84/17
f 38/86/17 67/88/17 80/87/17
f 67/88/17 66/157/17 28/27/17
f 69/89/16 71/31/16 81/31/16
f 71/31/16 72/82/16 82/82/16
f 72/82/16 25/25/16 27/25/16
f 83/82/16 84/25/16 73/25/16
f 82/82/16 27/25/16 84/25/16
f 85/31/16 83/82/16 77/82/16
f 81/31/16 82/82/16 83/82/16
f 86/89/16 85/31/16 32/31/16
f 20/89/16 81/31/16 85/31/16
f 88/90/17 89/93/17 41/91/17
f 80/87/17 28/27/17 89/93/17
f 64/94/17 90/95/17 88/90/17
f 78/84/17 80/87/17 88/90/17
f 42/96/17 44/97/17 90/95/17
f 79/85/17 78/84/17 90/95/17
f 91/98/40 93/100/44 49/50/41
f 91/98/40 46/55/43 54/57/43
f 94/101/24 96/103/24 95/102/24
f 43/52/24 52/54/24 96/103/24
f 97/43/45 91/45/45 92/44/45
f 30/43/46 46/45/46 91/45/46
f 79/36/15 94/42/15 47/42/15
f 44/36/15 43/42/15 94/42/15
f 89/93/17 97/105/17 39/104/17
f 28/27/17 30/29/17 97/105/17
f 84/25/16 23/26/16 74/26/16
f 27/25/16 26/26/16 23/26/16
f 98/106/15 26/109/15 99/107/15
f 24/24/15 23/23/15 26/109/15
f 31/110/72 100/113/72 86/111/72
f 21/21/47 20/20/47 86/111/47
f 54/114/46 114/119/46 101/115/46
f 93/116/73 101/115/73 102/117/73
f 52/116/15 113/115/15 103/119/15
f 96/114/15 103/119/15 104/120/15
f 50/122/49 112/139/49 105/123/49
f 56/125/51 58/124/74 105/123/51
f 51/127/52 56/125/52 106/126/52
f 48/129/19 111/137/19 108/130/19
f 63/131/19 108/130/19 109/132/19
f 62/133/19 109/132/19 110/134/19
f 95/136/19 104/153/19 111/137/19
f 49/138/53 102/161/53 112/139/53
f 52/116/15 51/118/15 107/117/15
f 53/121/54 110/120/54 114/119/54
f 114/119/46 21/143/46 100/140/46
f 101/115/75 100/140/75 31/141/75
f 113/115/15 24/140/15 98/143/15
f 103/119/15 98/143/15 34/144/15
f 112/145/57 33/146/57 75/146/57
f 106/145/76 105/147/76 75/146/76
f 107/148/58 106/145/58 76/146/58
f 111/137/59 35/154/59 70/150/59
f 108/130/59 70/150/59 68/151/59
f 109/132/59 68/151/59 19/152/59
f 104/153/59 34/162/59 35/154/59
f 102/148/60 31/149/60 33/146/60
f 113/115/15 107/142/15 22/141/15
f 114/119/77 110/120/77 19/144/77
