# Blender v2.76 (sub 0) OBJ File: ''
# www.blender.org
mtllib LeftArm.mtl
o LArm004
v -0.129116 0.732001 -0.504762
v 0.129467 1.512449 -0.504762
v 0.129467 0.732001 -0.504762
v 0.129467 0.732001 -0.246181
v -0.129116 1.512449 -0.246181
v -0.129116 0.732001 -0.246181
v -0.129116 1.512449 -0.504762
v 0.129467 1.512449 -0.246181
vt 0.620400 0.001300
vt 0.454200 0.349800
vt 0.454200 0.001300
vt 0.774200 0.001300
vt 0.709200 0.346100
vt 0.709200 0.001300
vt 0.615200 0.263700
vt 0.704400 0.174400
vt 0.704400 0.263700
vt 0.615100 0.000000
vt 0.697500 0.082500
vt 0.697500 0.000000
vt 0.460500 0.003000
vt 0.391600 0.348800
vt 0.391600 0.003000
vt 0.709500 0.000700
vt 0.611900 0.345000
vt 0.611900 0.000700
vt 0.620400 0.349800
vt 0.774200 0.346100
vt 0.615200 0.174400
vt 0.615100 0.082500
vt 0.460500 0.348800
vt 0.709500 0.345000
vn 0.000000 0.000000 -1.000000
vn 0.000000 -0.000000 1.000000
vn 0.000000 1.000000 0.000000
vn 0.000000 -1.000000 0.000000
vn 1.000000 -0.000000 0.000000
vn -1.000000 -0.000000 0.000000
usemtl None
s 1
f 1/1/1 2/2/1 3/3/1
f 4/4/2 5/5/2 6/6/2
f 7/7/3 8/8/3 2/9/3
f 6/10/4 3/11/4 4/12/4
f 3/13/5 8/14/5 4/15/5
f 6/16/6 7/17/6 1/18/6
f 1/1/1 7/19/1 2/2/1
f 4/4/2 8/20/2 5/5/2
f 7/7/3 5/21/3 8/8/3
f 6/10/4 1/22/4 3/11/4
f 3/13/5 2/23/5 8/14/5
f 6/16/6 5/24/6 7/17/6
