# ..:::Stalker models:::..
# WebSite: http://excalibur-craft.ru
mtllib kinder_item_lestnica.mtl
o 0.007
v 0.574165 2.998350 0.049026
v 0.512154 2.998356 0.049026
v 0.574165 -0.004732 0.011108
v 0.512154 -0.004720 0.011108
v 0.549553 3.003070 -0.011032
v 0.549583 -0.000018 -0.049026
v 0.549934 2.999938 0.028778
v 0.550362 -0.003150 -0.009216
v 0.512154 -0.004720 0.011108
v 0.512154 2.998356 0.049026
v 0.512123 -0.003116 -0.009186
v 0.512123 2.999957 0.028778
v 0.550362 -0.003150 -0.009216
v 0.512123 -0.003116 -0.009186
v 0.549934 2.999938 0.028778
v 0.512123 2.999957 0.028778
v 0.574165 -0.004732 0.011108
v 0.574242 0.000000 -0.049026
v 0.574165 2.998350 0.049026
v 0.574226 3.003081 -0.011032
v 0.549553 3.003070 -0.011032
v 0.574226 3.003081 -0.011032
v 0.549583 -0.000018 -0.049026
v 0.574242 0.000000 -0.049026
v -0.513054 -0.004751 0.011108
v -0.513054 2.998339 0.049026
v -0.574226 -0.004739 0.011108
v -0.574226 2.998348 0.049026
v -0.550468 3.003086 -0.011032
v -0.550468 2.999957 0.028778
v -0.550423 0.000012 -0.049026
v -0.550438 -0.003111 -0.009216
v -0.513054 2.999940 0.028687
v -0.513054 2.998339 0.049026
v -0.513054 -0.003150 -0.009216
v -0.513054 -0.004751 0.011108
v -0.513054 2.999940 0.028687
v -0.513054 -0.003150 -0.009216
v -0.550468 2.999957 0.028778
v -0.550438 -0.003111 -0.009216
v -0.574242 3.003076 -0.011032
v -0.574226 -0.000008 -0.049026
v -0.574226 2.998348 0.049026
v -0.574226 -0.004739 0.011108
v -0.574226 -0.000008 -0.049026
v -0.574242 3.003076 -0.011032
v -0.550423 0.000012 -0.049026
v -0.550468 3.003086 -0.011032
v 0.549553 0.876876 -0.008270
v -0.550484 0.876873 -0.008148
v 0.549599 0.858738 -0.019653
v -0.550453 0.858737 -0.019653
v 0.549583 0.878237 -0.033432
v -0.550453 0.878237 -0.033432
v 0.549553 0.876876 -0.008270
v -0.550484 0.876873 -0.008148
v 0.549599 0.858738 -0.019653
v -0.550453 0.858737 -0.019653
v 0.549583 0.878237 -0.033432
v -0.550453 0.878237 -0.033432
v 0.549553 1.108978 0.000687
v -0.550484 1.108976 0.000687
v 0.549583 1.090857 -0.011200
v -0.550484 1.090857 -0.011200
v 0.549583 1.110339 -0.024643
v -0.550453 1.110339 -0.024643
v 0.549553 1.108978 0.000687
v -0.550484 1.108976 0.000687
v 0.549583 1.090857 -0.011200
v -0.550484 1.090857 -0.011200
v 0.549583 1.110339 -0.024643
v -0.550453 1.110339 -0.024643
v 0.549553 1.341325 0.004913
v -0.550484 1.341323 0.004913
v 0.549583 1.323227 -0.007324
v -0.550484 1.323226 -0.007324
v 0.549583 1.342686 -0.020248
v -0.550453 1.342686 -0.020248
v 0.549553 1.341325 0.004913
v -0.550484 1.341323 0.004913
v 0.549583 1.323227 -0.007324
v -0.550484 1.323226 -0.007324
v 0.549583 1.342686 -0.020248
v -0.550453 1.342686 -0.020248
v 0.549553 1.559341 -0.003189
v -0.550484 1.559338 -0.003143
v 0.549599 1.541267 -0.015808
v -0.550453 1.541267 -0.015808
v 0.549583 1.560700 -0.028397
v -0.550423 1.560699 -0.028397
v 0.549553 1.559341 -0.003189
v -0.550484 1.559338 -0.003143
v 0.549599 1.541267 -0.015808
v -0.550453 1.541267 -0.015808
v 0.549583 1.560700 -0.028397
v -0.550423 1.560699 -0.028397
v 0.549553 1.791061 0.001205
v -0.550484 1.791058 0.001205
v 0.549583 1.773627 -0.011902
v -0.550484 1.773627 -0.011902
v 0.549583 1.792420 -0.024124
v -0.550423 1.792420 -0.024124
v 0.549553 1.791061 0.001205
v -0.550484 1.791058 0.001205
v 0.549583 1.773627 -0.011902
v -0.550484 1.773627 -0.011902
v 0.549583 1.792420 -0.024124
v -0.550423 1.792420 -0.024124
v 0.549553 2.023299 0.007492
v -0.550484 2.023297 0.007538
v 0.549583 2.005264 -0.005951
v -0.550438 2.005264 -0.005951
v 0.549583 2.024658 -0.017761
v -0.550423 2.024658 -0.017761
v 0.549553 2.023299 0.007492
v -0.550484 2.023297 0.007538
v 0.549583 2.005264 -0.005951
v -0.550438 2.005264 -0.005951
v 0.549583 2.024658 -0.017761
v -0.550423 2.024658 -0.017761
v 0.549553 2.255351 0.017181
v -0.550484 2.255349 0.017273
v 0.549583 2.237343 0.003357
v -0.550484 2.237343 0.003357
v 0.549553 2.256710 -0.008057
v -0.550484 2.256712 -0.008057
v 0.549553 2.255351 0.017181
v -0.550484 2.255349 0.017273
v 0.549583 2.237343 0.003357
v -0.550484 2.237343 0.003357
v 0.549553 2.256710 -0.008057
v -0.550484 2.256712 -0.008057
v 0.549553 2.473221 0.011673
v -0.550484 2.473219 0.011673
v 0.549583 2.455234 -0.002457
v -0.550484 2.455233 -0.002457
v 0.549553 2.474581 -0.013489
v -0.550484 2.474583 -0.013535
v 0.549553 2.473221 0.011673
v -0.550484 2.473219 0.011673
v 0.549583 2.455234 -0.002457
v -0.550484 2.455233 -0.002457
v 0.549553 2.474581 -0.013489
v -0.550484 2.474583 -0.013535
v 0.549553 2.704358 0.026917
v -0.550484 2.704356 0.027008
v 0.549583 2.687011 0.012360
v -0.550484 2.687011 0.012360
v 0.549553 2.705716 0.001724
v -0.550484 2.705717 0.001724
v 0.549553 2.704358 0.026917
v -0.550484 2.704356 0.027008
v 0.549583 2.687011 0.012360
v -0.550484 2.687011 0.012360
v 0.549553 2.705716 0.001724
v -0.550484 2.705717 0.001724
v 0.549553 0.163735 -0.008270
v -0.550484 0.163733 -0.008148
v 0.549599 0.145597 -0.019653
v -0.550453 0.145597 -0.019653
v 0.549583 0.165096 -0.033432
v -0.550453 0.165096 -0.033432
v 0.549553 0.163735 -0.008270
v -0.550484 0.163733 -0.008148
v 0.549599 0.145597 -0.019653
v -0.550453 0.145597 -0.019653
v 0.549583 0.165096 -0.033432
v -0.550453 0.165096 -0.033432
v 0.549553 0.395837 0.000687
v -0.550484 0.395835 0.000687
v 0.549583 0.377715 -0.011200
v -0.550484 0.377715 -0.011200
v 0.549583 0.397198 -0.024643
v -0.550453 0.397197 -0.024643
v 0.549553 0.395837 0.000687
v -0.550484 0.395835 0.000687
v 0.549583 0.377715 -0.011200
v -0.550484 0.377715 -0.011200
v 0.549583 0.397198 -0.024643
v -0.550453 0.397197 -0.024643
v 0.549553 0.628184 0.004913
v -0.550484 0.628182 0.004913
v 0.549583 0.610085 -0.007324
v -0.550484 0.610085 -0.007324
v 0.549583 0.629545 -0.020248
v -0.550453 0.629545 -0.020248
v 0.549553 0.628184 0.004913
v -0.550484 0.628182 0.004913
v 0.549583 0.610085 -0.007324
v -0.550484 0.610085 -0.007324
v 0.549583 0.629545 -0.020248
v -0.550453 0.629545 -0.020248
v -0.574226 2.998348 0.049026
v -0.513054 2.998339 0.049026
v -0.550468 2.999957 0.028778
v -0.513054 2.999940 0.028687
v -0.550468 3.003086 -0.011032
v -0.574242 3.003076 -0.011032
v -0.550468 2.999957 0.028778
v -0.574226 2.998348 0.049026
v 0.574165 2.998350 0.049026
v 0.549934 2.999938 0.028778
v 0.512154 2.998356 0.049026
v 0.512123 2.999957 0.028778
v 0.574165 2.998350 0.049026
v 0.574226 3.003081 -0.011032
v 0.549934 2.999938 0.028778
v 0.549553 3.003070 -0.011032
vt -0.1725 0.0525
vt -0.1555 0.0525
vt -0.1725 0.7735
vt -0.1555 0.7735
vt -0.1958 0.0536
vt -0.1959 0.7724
vt -0.2068 0.0528
vt -0.2068 0.7732
vt -0.1555 0.7735
vt -0.1555 0.0525
vt -0.1499 0.7732
vt -0.1499 0.0529
vt -0.1394 0.7732
vt -0.1499 0.7732
vt -0.1395 0.0528
vt -0.1499 0.0529
vt -0.1725 0.7735
vt -0.1891 0.7724
vt -0.1725 0.0525
vt -0.1891 0.0536
vt -0.1958 0.0536
vt -0.1891 0.0536
vt -0.1959 0.7724
vt -0.1891 0.7724
vt -0.2227 0.0536
vt -0.2227 0.7724
vt -0.2395 0.0536
vt -0.2395 0.7724
vt -0.2626 0.7735
vt -0.2736 0.7728
vt -0.2626 0.0525
vt -0.2736 0.0532
vt -0.2171 0.7728
vt -0.2227 0.7724
vt -0.2171 0.0532
vt -0.2227 0.0536
vt -0.2171 0.7728
vt -0.2171 0.0532
vt -0.2068 0.7728
vt -0.2068 0.0532
vt -0.2561 0.7735
vt -0.2561 0.0525
vt -0.2395 0.7724
vt -0.2395 0.0536
vt -0.2561 0.0525
vt -0.2561 0.7735
vt -0.2626 0.0525
vt -0.2626 0.7735
vt -0.1393 0.2490
vt -0.1394 0.0536
vt -0.1335 0.2490
vt -0.1335 0.0536
vt -0.1146 0.0536
vt -0.1145 0.2490
vt -0.1215 0.0536
vt -0.1215 0.2490
vt 0.0464 0.2490
vt 0.0464 0.0536
vt 0.0529 0.2490
vt 0.0529 0.0536
vt -0.0169 0.2490
vt -0.0169 0.0536
vt -0.0110 0.2490
vt -0.0110 0.0536
vt 0.0464 0.0536
vt 0.0464 0.2490
vt 0.0394 0.0536
vt 0.0394 0.2490
vt -0.0682 0.2490
vt -0.0682 0.0536
vt -0.0617 0.2490
vt -0.0617 0.0536
vt -0.0812 0.2490
vt -0.0812 0.0536
vt -0.0752 0.2490
vt -0.0752 0.0536
vt -0.0040 0.0536
vt -0.0040 0.2490
vt -0.0110 0.0536
vt -0.0110 0.2490
vt -0.0617 0.2490
vt -0.0617 0.0536
vt -0.0553 0.2490
vt -0.0553 0.0536
vt -0.1335 0.2490
vt -0.1335 0.0536
vt -0.1274 0.2490
vt -0.1274 0.0536
vt -0.1006 0.0536
vt -0.1006 0.2490
vt -0.1076 0.0536
vt -0.1076 0.2490
vt 0.0595 0.2490
vt 0.0595 0.0536
vt 0.0659 0.2490
vt 0.0659 0.0536
vt -0.0040 0.2490
vt -0.0040 0.0536
vt 0.0020 0.2490
vt 0.0020 0.0536
vt -0.0682 0.0536
vt -0.0682 0.2490
vt -0.0752 0.0536
vt -0.0752 0.2490
vt -0.0553 0.2490
vt -0.0553 0.0536
vt -0.0491 0.2490
vt -0.0491 0.0536
vt -0.0874 0.0536
vt -0.0874 0.2490
vt -0.0936 0.0536
vt -0.0936 0.2490
vt -0.0936 0.0536
vt -0.0936 0.2490
vt -0.1006 0.0536
vt -0.1006 0.2490
vt 0.0867 0.2490
vt 0.0867 0.0536
vt 0.0930 0.2490
vt 0.0930 0.0536
vt -0.0874 0.2490
vt -0.0874 0.0536
vt -0.0812 0.2490
vt -0.0812 0.0536
vt 0.0798 0.0536
vt 0.0798 0.2490
vt 0.0728 0.0536
vt 0.0728 0.2490
vt 0.0020 0.2490
vt 0.0020 0.0536
vt 0.0081 0.2490
vt 0.0081 0.0536
vt -0.0491 0.2490
vt -0.0491 0.0536
vt -0.0428 0.2490
vt -0.0428 0.0536
vt 0.0867 0.0536
vt 0.0867 0.2490
vt 0.0798 0.0536
vt 0.0798 0.2490
vt 0.0081 0.2490
vt 0.0081 0.0536
vt 0.0143 0.2490
vt 0.0143 0.0536
vt 0.0143 0.2490
vt 0.0143 0.0536
vt 0.0205 0.2490
vt 0.0205 0.0536
vt 0.0728 0.0536
vt 0.0728 0.2490
vt 0.0659 0.0536
vt 0.0659 0.2490
vt 0.0205 0.2490
vt 0.0205 0.0536
vt 0.0264 0.2490
vt 0.0264 0.0536
vt -0.1274 0.2490
vt -0.1274 0.0536
vt -0.1215 0.2490
vt -0.1215 0.0536
vt -0.1076 0.0536
vt -0.1076 0.2490
vt -0.1145 0.0536
vt -0.1145 0.2490
vt 0.0529 0.2490
vt 0.0529 0.0536
vt 0.0595 0.2490
vt 0.0595 0.0536
vt -0.0428 0.2490
vt -0.0428 0.0536
vt -0.0368 0.2490
vt -0.0368 0.0536
vt -0.0299 0.0536
vt -0.0299 0.2490
vt -0.0368 0.0536
vt -0.0368 0.2490
vt -0.0299 0.2490
vt -0.0299 0.0536
vt -0.0234 0.2490
vt -0.0234 0.0536
vt 0.0264 0.2490
vt 0.0264 0.0536
vt 0.0324 0.2490
vt 0.0324 0.0536
vt 0.0394 0.0536
vt 0.0394 0.2490
vt 0.0324 0.0536
vt 0.0324 0.2490
vt -0.0234 0.2490
vt -0.0234 0.0536
vt -0.0169 0.2490
vt -0.0169 0.0536
vt 0.0986 0.0367
vt 0.0986 0.0536
vt 0.1042 0.0433
vt 0.1042 0.0536
vt 0.1107 0.0370
vt 0.1042 0.0370
vt 0.1107 0.0480
vt 0.1042 0.0536
vt 0.0930 0.0536
vt 0.0986 0.0469
vt 0.0930 0.0365
vt 0.0986 0.0365
vt 0.1107 0.0370
vt 0.1107 0.0536
vt 0.1174 0.0426
vt 0.1175 0.0536
vn -0.0000 -0.0126 0.9999
vn -1.0000 -0.0001 0.0096
vn -0.9999 -0.0003 0.0146
vn -0.9999 -0.0003 0.0145
vn -0.9998 -0.0004 0.0195
vn -1.0000 -0.0000 0.0015
vn -0.0008 0.0127 -0.9999
vn 0.0000 0.0126 -0.9999
vn 1.0000 -0.0000 0.0013
vn 1.0000 -0.0000 0.0010
vn -0.0000 0.0127 -0.9999
vn 1.0000 0.0000 0.0000
vn 1.0000 0.0000 0.0004
vn -0.0024 0.0126 -0.9999
vn -0.0013 0.0126 -0.9999
vn -0.0012 0.0126 -0.9999
vn -1.0000 -0.0000 0.0003
vn -1.0000 -0.0000 0.0000
vn 0.0001 -0.5316 0.8470
vn 0.0000 -0.5336 0.8457
vn 0.0000 -0.5357 0.8444
vn 0.0000 0.9985 0.0540
vn 0.0000 0.9985 0.0539
vn 0.0000 -0.5771 -0.8167
vn 0.0000 -0.5485 0.8362
vn 0.0000 -0.5485 0.8361
vn 0.0000 0.9986 0.0536
vn -0.0000 0.9986 0.0537
vn 0.0000 -0.5679 -0.8231
vn 0.0000 -0.5601 0.8284
vn -0.0000 0.9985 0.0541
vn 0.0000 -0.5533 -0.8330
vn 0.0000 -0.5532 -0.8330
vn 0.0000 -0.5725 0.8199
vn 0.0000 -0.5732 0.8194
vn 0.0000 -0.5730 0.8195
vn 0.0000 -0.5739 0.8189
vn -0.0000 0.9985 0.0538
vn -0.0000 0.9986 0.0538
vn 0.0000 -0.5437 -0.8393
vn 0.0000 -0.6009 0.7993
vn 0.0000 -0.6010 0.7993
vn 0.0000 -0.5452 -0.8383
vn 0.0000 -0.5976 0.8018
vn 0.0000 -0.5984 0.8012
vn 0.0000 -0.5983 0.8012
vn 0.0000 -0.5990 0.8008
vn 0.0000 -0.5201 -0.8541
vn 0.0001 -0.6089 0.7932
vn 0.0000 -0.6103 0.7922
vn 0.0000 -0.6102 0.7923
vn 0.0000 -0.6115 0.7912
vn 0.0000 -0.5077 -0.8615
vn 0.0000 -0.6178 0.7864
vn 0.0000 -0.4953 -0.8687
vn 0.0000 -0.4961 -0.8683
vn 0.0000 -0.4959 -0.8684
vn 0.0000 -0.4968 -0.8678
vn 0.0001 -0.6428 0.7660
vn 0.0000 -0.6440 0.7650
vn 0.0000 -0.6452 0.7640
vn 0.0000 -0.4943 -0.8693
vn 0.0000 -0.5602 0.8284
vn -0.0002 0.9969 0.0790
vn 0.0005 0.9969 0.0788
vn -0.0001 0.9969 0.0787
vn 0.0006 0.9969 0.0785
vn -0.0004 0.9969 0.0784
vn -0.0005 0.9969 0.0784
vn -0.0003 0.9969 0.0786
vn -0.0004 0.9969 0.0787
vn 0.0001 0.9969 0.0781
vn 0.0002 0.9969 0.0782
vn 0.0004 0.9969 0.0786
vn 0.0005 0.9969 0.0789
vn -0.0003 0.9969 0.0785
vn -0.0004 0.9969 0.0785
usemtl mtl_pod_green.006
s 1
f 1/1/1 2/2/1 3/3/1
f 3/3/1 2/2/1 4/4/1
f 5/5/2 6/6/3 7/7/4
f 7/7/4 6/6/3 8/8/5
f 9/9/6 10/10/6 11/11/6
f 11/11/6 10/10/6 12/12/6
f 13/13/7 14/14/7 15/15/8
f 15/15/8 14/14/7 16/16/8
f 17/17/9 18/18/9 19/19/10
f 19/19/10 18/18/9 20/20/10
f 21/21/11 22/22/11 23/23/11
f 23/23/11 22/22/11 24/24/11
f 25/25/1 26/26/1 27/27/1
f 27/27/1 26/26/1 28/28/1
f 29/29/12 30/30/12 31/31/12
f 31/31/12 30/30/12 32/32/13
f 33/33/12 34/34/12 35/35/12
f 35/35/12 34/34/12 36/36/12
f 37/37/14 38/38/15 39/39/16
f 39/39/16 38/38/15 40/40/11
f 41/41/17 42/42/18 43/43/17
f 43/43/17 42/42/18 44/44/18
f 45/45/11 46/46/11 47/47/11
f 47/47/11 46/46/11 48/48/11
f 49/49/19 50/50/20 51/51/20
f 51/51/20 50/50/20 52/52/21
f 53/53/22 54/54/23 55/55/22
f 55/55/22 54/54/23 56/56/23
f 57/57/24 58/58/24 59/59/24
f 59/59/24 58/58/24 60/60/24
f 61/61/25 62/62/26 63/63/25
f 63/63/25 62/62/26 64/64/26
f 65/65/27 66/66/28 67/67/28
f 67/67/28 66/66/28 68/68/28
f 69/69/29 70/70/29 71/71/29
f 71/71/29 70/70/29 72/72/29
f 73/73/30 74/74/30 75/75/30
f 75/75/30 74/74/30 76/76/30
f 77/77/22 78/78/31 79/79/22
f 79/79/22 78/78/31 80/80/31
f 81/81/32 82/82/33 83/83/32
f 83/83/32 82/82/33 84/84/33
f 85/85/34 86/86/35 87/87/36
f 87/87/36 86/86/35 88/88/37
f 89/89/38 90/90/39 91/91/38
f 91/91/38 90/90/39 92/92/39
f 93/93/40 94/94/40 95/95/40
f 95/95/40 94/94/40 96/96/40
f 97/97/41 98/98/42 99/99/41
f 99/99/41 98/98/42 100/100/42
f 101/101/27 102/102/28 103/103/27
f 103/103/27 102/102/28 104/104/28
f 105/105/43 106/106/43 107/107/43
f 107/107/43 106/106/43 108/108/43
f 109/109/44 110/110/45 111/111/46
f 111/111/46 110/110/45 112/112/47
f 113/113/28 114/114/28 115/115/28
f 115/115/28 114/114/28 116/116/28
f 117/117/48 118/118/48 119/119/48
f 119/119/48 118/118/48 120/120/48
f 121/121/49 122/122/50 123/123/51
f 123/123/51 122/122/50 124/124/52
f 125/125/39 126/126/28 127/127/39
f 127/127/39 126/126/28 128/128/28
f 129/129/53 130/130/53 131/131/53
f 131/131/53 130/130/53 132/132/53
f 133/133/54 134/134/54 135/135/54
f 135/135/54 134/134/54 136/136/54
f 137/137/22 138/138/22 139/139/22
f 139/139/22 138/138/22 140/140/22
f 141/141/55 142/142/56 143/143/57
f 143/143/57 142/142/56 144/144/58
f 145/145/59 146/146/60 147/147/60
f 147/147/60 146/146/60 148/148/61
f 149/149/39 150/150/39 151/151/39
f 151/151/39 150/150/39 152/152/39
f 153/153/62 154/154/62 155/155/62
f 155/155/62 154/154/62 156/156/62
f 157/157/19 158/158/20 159/159/20
f 159/159/20 158/158/20 160/160/21
f 161/161/22 162/162/38 163/163/22
f 163/163/22 162/162/38 164/164/39
f 165/165/24 166/166/24 167/167/24
f 167/167/24 166/166/24 168/168/24
f 169/169/25 170/170/26 171/171/25
f 171/171/25 170/170/26 172/172/26
f 173/173/28 174/174/28 175/175/28
f 175/175/28 174/174/28 176/176/28
f 177/177/29 178/178/29 179/179/29
f 179/179/29 178/178/29 180/180/29
f 181/181/30 182/182/63 183/183/30
f 183/183/30 182/182/63 184/184/63
f 185/185/22 186/186/31 187/187/22
f 187/187/22 186/186/31 188/188/31
f 189/189/33 190/190/33 191/191/33
f 191/191/33 190/190/33 192/192/33
f 193/193/64 194/194/65 195/195/66
f 195/195/66 194/194/65 196/196/67
f 197/197/68 198/198/69 199/199/70
f 199/199/70 198/198/69 200/200/71
f 201/201/72 202/202/73 203/203/74
f 203/203/74 202/202/73 204/204/75
f 205/205/76 206/206/77 207/207/76
f 207/207/76 206/206/77 208/208/68
