# ..:::Stalker models:::..
# WebSite: http://excalibur-craft.ru
mtllib light_galogen_2.mtl
o lamp1_1.004
v -0.084773 -0.057361 -0.554982
v -0.093691 -0.073197 -0.554982
v -0.084773 -0.057361 0.554935
v -0.093691 -0.073197 0.554936
v -0.066894 -0.057354 -0.554982
v -0.066894 -0.057355 0.554935
v -0.057976 -0.073197 -0.554982
v -0.057976 -0.073197 0.554935
v -0.066894 -0.089027 -0.554982
v -0.066894 -0.089028 0.554935
v -0.084773 -0.089027 -0.554982
v -0.084773 -0.089028 0.554936
v -0.093691 -0.073197 -0.554982
v -0.093691 -0.073197 0.554936
vt 0.5325 0.0367
vt 0.5325 0.0000
vt 1.0000 0.0368
vt 1.0000 0.0000
vt 0.5325 0.0798
vt 1.0000 0.0798
vt 0.5325 0.1166
vt 1.0000 0.1166
vt 0.5325 0.1534
vt 1.0000 0.1534
vt 0.5325 0.1965
vt 1.0000 0.1965
vt 0.5325 0.2332
vt 1.0000 0.2332
vn -0.3304 0.9438 0.0001
vn -0.9828 0.1844 0.0000
vn -0.6605 0.7508 0.0001
vn -0.9828 -0.1846 0.0001
vn 0.6605 0.7509 0.0001
vn 0.3300 0.9440 0.0000
vn 0.9828 -0.1847 -0.0000
vn 0.9829 0.1844 -0.0001
vn 0.3302 -0.9439 -0.0000
vn 0.6603 -0.7510 0.0001
vn -0.6603 -0.7510 -0.0000
vn -0.3302 -0.9439 -0.0000
vn -0.9828 0.1845 0.0000
vn -0.9828 -0.1846 -0.0000
usemtl prop_Lampa_Galogen.004
s 1
f 1/1/1 2/2/2 3/3/3
f 3/3/3 2/2/2 4/4/4
f 5/5/5 1/1/1 6/6/6
f 6/6/6 1/1/1 3/3/3
f 7/7/7 5/5/5 8/8/8
f 8/8/8 5/5/5 6/6/6
f 9/9/9 7/7/7 10/10/10
f 10/10/10 7/7/7 8/8/8
f 11/11/11 9/9/9 12/12/12
f 12/12/12 9/9/9 10/10/10
f 13/13/13 11/11/11 14/14/14
f 14/14/14 11/11/11 12/12/12
o 0.007
v -0.084773 -0.089028 0.554936
v -0.093691 -0.073197 0.554936
v -0.066894 -0.089028 0.554935
v -0.057976 -0.073197 0.554935
v -0.084773 -0.057361 0.554935
v -0.066894 -0.057355 0.554935
v -0.066894 -0.057354 -0.554982
v -0.084773 -0.057361 -0.554982
v -0.057976 -0.073197 -0.554982
v -0.093691 -0.073197 -0.554982
v -0.066894 -0.089027 -0.554982
v -0.084773 -0.089027 -0.554982
v -0.084773 -0.057361 0.554935
v -0.093691 -0.073197 0.554936
v -0.085526 -0.055915 0.578204
v -0.095306 -0.073191 0.578229
v -0.066894 -0.057355 0.554935
v -0.084773 -0.057361 0.554935
v -0.066096 -0.055915 0.578204
v -0.085526 -0.055915 0.578204
v -0.057976 -0.073197 0.554935
v -0.056316 -0.073191 0.578229
v -0.066894 -0.089028 0.554935
v -0.066096 -0.090467 0.578229
v -0.084773 -0.089028 0.554936
v -0.085526 -0.090467 0.578229
v -0.093691 -0.073197 -0.554982
v -0.084773 -0.057361 -0.554982
v -0.095306 -0.073190 -0.578223
v -0.085526 -0.055914 -0.578223
v -0.085526 -0.055914 -0.578223
v -0.084773 -0.057361 -0.554982
v -0.066096 -0.055914 -0.578223
v -0.066894 -0.057354 -0.554982
v -0.056359 -0.073190 -0.578223
v -0.057976 -0.073197 -0.554982
v -0.066894 -0.089027 -0.554982
v -0.066096 -0.090466 -0.578223
v -0.084773 -0.089027 -0.554982
v -0.085526 -0.090466 -0.578223
v -0.103923 -0.044936 0.578231
v -0.103922 -0.044935 -0.578223
v -0.047398 -0.044936 0.578231
v -0.047398 -0.044935 -0.578223
v -0.103922 0.000246 -0.593217
v -0.103923 0.000245 0.593276
v -0.047398 0.000246 -0.593217
v -0.047398 0.000245 0.593276
v -0.047398 -0.044935 -0.593217
v -0.054420 -0.100486 -0.593243
v -0.103922 -0.044935 -0.593217
v -0.096900 -0.100486 -0.593243
v -0.047398 0.000246 -0.593217
v -0.103922 0.000246 -0.593217
v -0.096900 -0.100486 -0.578223
v -0.096900 -0.100486 -0.593243
v -0.054421 -0.100486 -0.578223
v -0.054420 -0.100486 -0.593243
v -0.103922 -0.044935 -0.578223
v -0.096900 -0.100486 -0.578223
v -0.047398 -0.044935 -0.578223
v -0.054421 -0.100486 -0.578223
v -0.047398 -0.044936 0.593276
v -0.047398 0.000245 0.593276
v -0.103923 -0.044936 0.593276
v -0.103923 0.000245 0.593276
v -0.054421 -0.100486 0.593276
v -0.096900 -0.100486 0.593276
v -0.054421 -0.100486 0.593276
v -0.096900 -0.100486 0.593276
v -0.054421 -0.100486 0.578231
v -0.096900 -0.100486 0.578231
v -0.054421 -0.100486 0.578231
v -0.096900 -0.100486 0.578231
v -0.047398 -0.044936 0.578231
v -0.103923 -0.044936 0.578231
v -0.103923 -0.044936 0.578231
v -0.103923 -0.044936 0.593276
v -0.103923 0.000245 0.593276
v -0.103922 -0.044935 -0.578223
v -0.103922 0.000246 -0.593217
v -0.103922 -0.044935 -0.593217
v -0.103922 -0.044935 -0.593217
v -0.096900 -0.100486 -0.593243
v -0.103922 -0.044935 -0.578223
v -0.096900 -0.100486 -0.578223
v -0.096900 -0.100486 0.578231
v -0.096900 -0.100486 0.593276
v -0.103923 -0.044936 0.578231
v -0.103923 -0.044936 0.593276
v -0.047398 -0.044935 -0.578223
v -0.047398 -0.044935 -0.593217
v -0.047398 0.000246 -0.593217
v -0.047398 -0.044936 0.578231
v -0.047398 0.000245 0.593276
v -0.047398 -0.044936 0.593276
v -0.054421 -0.100486 -0.578223
v -0.054420 -0.100486 -0.593243
v -0.047398 -0.044935 -0.578223
v -0.047398 -0.044935 -0.593217
v -0.047398 -0.044936 0.593276
v -0.054421 -0.100486 0.593276
v -0.047398 -0.044936 0.578231
v -0.054421 -0.100486 0.578231
vt 0.4523 0.1793
vt 0.4286 0.2333
vt 0.4523 0.0713
vt 0.4286 0.0173
vt 0.4049 0.1793
vt 0.4049 0.0713
vt 0.4049 0.0713
vt 0.4049 0.1793
vt 0.4286 0.0173
vt 0.4286 0.2333
vt 0.4523 0.0713
vt 0.4523 0.1793
vt 0.3729 0.2143
vt 0.3530 0.2143
vt 0.3729 0.0251
vt 0.3530 0.0251
vt 0.2783 0.2143
vt 0.2632 0.2143
vt 0.2783 0.0251
vt 0.2632 0.0251
vt 0.2982 0.2143
vt 0.2982 0.0251
vt 0.3181 0.2143
vt 0.3181 0.0251
vt 0.3332 0.2143
vt 0.3332 0.0251
vt 0.3530 0.2143
vt 0.3729 0.2143
vt 0.3530 0.0251
vt 0.3729 0.0251
vt 0.2632 0.0251
vt 0.2632 0.2143
vt 0.2783 0.0251
vt 0.2783 0.2143
vt 0.2982 0.0251
vt 0.2982 0.2143
vt 0.3181 0.2143
vt 0.3181 0.0251
vt 0.3332 0.2143
vt 0.3332 0.0251
vt 0.9824 0.5290
vt 0.0132 0.5290
vt 0.9824 0.2944
vt 0.0132 0.2944
vt 0.9952 0.9976
vt 0.0002 0.9976
vt 0.9952 0.7175
vt 0.0004 0.7175
vt 0.0484 0.2514
vt 0.0952 0.2222
vt 0.0484 0.0163
vt 0.0952 0.0455
vt 0.0104 0.2514
vt 0.0104 0.0163
vt 0.2222 0.2199
vt 0.2349 0.2199
vt 0.2222 0.0432
vt 0.2349 0.0432
vt 0.1143 0.2463
vt 0.1610 0.2172
vt 0.1143 0.0113
vt 0.1610 0.0404
vt 0.0484 0.2514
vt 0.0104 0.2514
vt 0.0484 0.0163
vt 0.0104 0.0163
vt 0.0952 0.2222
vt 0.0952 0.0455
vt 0.2349 0.0432
vt 0.2349 0.2199
vt 0.2222 0.0432
vt 0.2222 0.2199
vt 0.1610 0.0404
vt 0.1610 0.2172
vt 0.1143 0.0113
vt 0.1143 0.2463
vt 0.9824 0.5290
vt 0.9951 0.5289
vt 0.9952 0.7175
vt 0.0132 0.5290
vt 0.0004 0.7175
vt 0.0005 0.5289
vt 0.2011 0.2463
vt 0.2011 0.0153
vt 0.1884 0.2463
vt 0.1884 0.0153
vt 0.1884 0.0153
vt 0.2011 0.0153
vt 0.1884 0.2463
vt 0.2011 0.2463
vt 0.0132 0.5289
vt 0.0005 0.5289
vt 0.0004 0.7175
vt 0.9824 0.5289
vt 0.9952 0.7175
vt 0.9951 0.5289
vt 0.1884 0.0153
vt 0.2011 0.0153
vt 0.1884 0.2463
vt 0.2011 0.2463
vt 0.2011 0.2463
vt 0.2011 0.0153
vt 0.1884 0.2463
vt 0.1884 0.0153
vn -0.0001 -0.0000 -1.0000
vn -0.0000 -0.0000 -1.0000
vn 0.0000 0.0000 1.0000
vn -0.3296 0.9416 -0.0690
vn -0.9805 0.1848 -0.0673
vn -0.6583 0.7496 -0.0685
vn -0.9806 -0.1843 -0.0673
vn 0.6582 0.7496 -0.0697
vn -0.3296 0.9416 -0.0691
vn 0.3287 0.9418 -0.0697
vn -0.6583 0.7496 -0.0686
vn 0.9975 -0.0002 -0.0711
vn 0.9976 -0.0002 -0.0699
vn 0.6582 -0.7496 -0.0695
vn 0.3288 -0.9418 -0.0694
vn -0.5029 -0.8615 -0.0700
vn -0.5023 -0.8619 -0.0695
vn -0.9976 -0.0002 0.0693
vn -0.5030 0.8614 0.0704
vn -0.9977 0.0001 0.0682
vn -0.5025 0.8618 0.0699
vn -0.5025 0.8617 0.0699
vn 0.3292 0.9417 0.0698
vn 0.6587 0.7492 0.0692
vn 0.9976 0.0000 0.0692
vn 0.9976 -0.0003 0.0694
vn 0.6587 -0.7492 0.0691
vn 0.3294 -0.9416 0.0696
vn -0.5029 -0.8615 0.0701
vn -0.5025 -0.8618 0.0696
vn 0.0000 -1.0000 -0.0000
vn 0.0000 1.0000 0.0000
vn 0.0000 0.0002 -1.0000
vn 0.0000 0.0005 -1.0000
vn -0.9987 -0.0503 0.0000
vn -0.9980 -0.0629 -0.0000
vn -1.0000 0.0000 -0.0000
vn -0.9980 -0.0628 0.0000
vn -0.9921 -0.1254 -0.0000
vn 0.9980 -0.0629 0.0000
vn 0.9980 -0.0628 0.0000
vn 1.0000 0.0000 0.0000
vn 0.9987 -0.0503 0.0000
vn 0.9921 -0.1254 0.0001
vn 0.9921 -0.1254 -0.0000
usemtl prop_Lampa_Galogen.004
s 1
f 15/15/15 16/16/16 17/17/16
f 17/17/16 16/16/16 18/18/16
f 16/16/16 19/19/16 18/18/16
f 19/19/16 20/20/16 18/18/16
f 21/21/17 22/22/17 23/23/17
f 22/22/17 24/24/17 23/23/17
f 23/23/17 24/24/17 25/25/17
f 24/24/17 26/26/17 25/25/17
f 27/27/18 28/28/19 29/29/20
f 29/29/20 28/28/19 30/30/21
f 31/31/22 32/32/23 33/33/24
f 33/33/24 32/32/23 34/34/25
f 35/35/26 31/31/22 36/36/27
f 36/36/27 31/31/22 33/33/24
f 35/35/26 36/36/27 37/37/28
f 37/37/28 36/36/27 38/38/29
f 37/37/28 38/38/29 39/39/30
f 39/39/30 38/38/29 40/40/31
f 28/28/19 39/39/30 30/30/21
f 30/30/21 39/39/30 40/40/31
f 41/41/32 42/42/33 43/43/34
f 43/43/34 42/42/33 44/44/35
f 45/45/36 46/46/33 47/47/37
f 47/47/37 46/46/33 48/48/38
f 47/47/37 48/48/38 49/49/39
f 49/49/39 48/48/38 50/50/40
f 50/50/40 51/51/41 49/49/39
f 49/49/39 51/51/41 52/52/42
f 51/51/41 53/53/43 52/52/42
f 52/52/42 53/53/43 54/54/44
f 54/54/44 53/53/43 43/43/34
f 43/43/34 53/53/43 41/41/32
f 55/55/45 56/56/45 57/57/45
f 57/57/45 56/56/45 58/58/45
f 59/59/46 60/60/46 61/61/46
f 61/61/46 60/60/46 62/62/46
f 63/63/47 64/64/48 65/65/47
f 65/65/47 64/64/48 66/66/48
f 63/63/47 65/65/47 67/67/16
f 67/67/16 65/65/47 68/68/16
f 69/69/45 70/70/45 71/71/45
f 71/71/45 70/70/45 72/72/45
f 73/73/17 74/74/17 75/75/17
f 75/75/17 74/74/17 76/76/17
f 77/77/17 78/78/17 79/79/17
f 79/79/17 78/78/17 80/80/17
f 77/77/17 79/79/17 81/81/17
f 81/81/17 79/79/17 82/82/17
f 83/83/45 84/84/45 85/85/45
f 85/85/45 84/84/45 86/86/45
f 87/87/16 88/88/16 89/89/16
f 89/89/16 88/88/16 90/90/16
f 91/91/49 92/92/50 93/93/51
f 94/94/52 91/91/49 95/95/51
f 95/95/51 91/91/49 93/93/51
f 94/94/52 95/95/51 96/96/52
f 97/97/52 98/98/53 99/99/50
f 99/99/50 98/98/53 100/100/53
f 101/101/53 102/102/53 103/103/49
f 103/103/49 102/102/53 104/104/52
f 105/105/54 106/106/55 107/107/56
f 105/105/54 107/107/56 108/108/57
f 108/108/57 107/107/56 109/109/56
f 109/109/56 110/110/54 108/108/57
f 111/111/58 112/112/58 113/113/54
f 113/113/54 112/112/58 114/114/54
f 115/115/55 116/116/59 117/117/57
f 117/117/57 116/116/59 118/118/59
o 0.006
v -0.190192 -0.012663 -0.597813
v 0.189668 -0.012663 -0.597813
v -0.190192 -0.012664 0.597864
v 0.189667 -0.012664 0.597864
v -0.190192 -0.119451 -0.597813
v -0.190192 -0.012663 -0.597813
v -0.190192 -0.119452 0.597864
v -0.190192 -0.012664 0.597864
v -0.190192 -0.119452 0.597864
v -0.190192 -0.012664 0.597864
v 0.189667 -0.119452 0.597864
v 0.189667 -0.012664 0.597864
v 0.189667 -0.119452 0.597864
v 0.189667 -0.012664 0.597864
v 0.189668 -0.119452 -0.597813
v 0.189668 -0.012663 -0.597813
v 0.189668 -0.119452 -0.597813
v 0.189668 -0.012663 -0.597813
v -0.190192 -0.119451 -0.597813
v -0.190192 -0.012663 -0.597813
v -0.190192 -0.119451 -0.597813
v -0.199800 -0.119451 -0.609771
v 0.189668 -0.119452 -0.597813
v 0.199275 -0.119452 -0.609771
v -0.199800 -0.119452 0.609796
v -0.190192 -0.119452 0.597864
v 0.199275 -0.119452 0.609796
v 0.189667 -0.119452 0.597864
v 0.199275 0.000364 0.609796
v 0.199275 0.000365 -0.609797
v -0.199800 0.000364 0.609796
v -0.199800 0.000365 -0.609797
v -0.199800 0.000364 0.609796
v -0.199800 0.000365 -0.609797
v -0.199800 -0.119452 0.609796
v -0.199800 -0.119451 -0.609771
v 0.199275 0.000364 0.609796
v -0.199800 0.000364 0.609796
v 0.199275 -0.119452 0.609796
v -0.199800 -0.119452 0.609796
v 0.199275 0.000365 -0.609797
v 0.199275 0.000364 0.609796
v 0.199275 -0.119452 -0.609771
v 0.199275 -0.119452 0.609796
v -0.199800 0.000365 -0.609797
v 0.199275 0.000365 -0.609797
v -0.199800 -0.119451 -0.609771
v 0.199275 -0.119452 -0.609771
vt 0.9664 0.2806
vt 0.9664 0.7193
vt 0.0336 0.2806
vt 0.0336 0.7193
vt 0.9897 0.6997
vt 0.9897 0.9560
vt 0.0103 0.6997
vt 0.0103 0.9560
vt 0.6602 0.6997
vt 0.6602 0.9560
vt 0.3398 0.6997
vt 0.3398 0.9560
vt 0.9897 0.6997
vt 0.9897 0.9560
vt 0.0103 0.6997
vt 0.0103 0.9560
vt 0.6602 0.6997
vt 0.6602 0.9560
vt 0.3398 0.6997
vt 0.3398 0.9560
vt 0.9897 0.3398
vt 0.9995 0.3317
vt 0.9897 0.6602
vt 0.9995 0.6683
vt 0.0005 0.3317
vt 0.0103 0.3398
vt 0.0005 0.6683
vt 0.0103 0.6602
vt 0.9757 0.7305
vt 0.0243 0.7305
vt 0.9757 0.2695
vt 0.0243 0.2695
vt 0.9995 0.7288
vt 0.0005 0.7288
vt 0.9995 0.4412
vt 0.0005 0.4412
vt 0.6683 0.7288
vt 0.3317 0.7288
vt 0.6683 0.4412
vt 0.3317 0.4412
vt 0.9995 0.7288
vt 0.0005 0.7288
vt 0.9995 0.4412
vt 0.0005 0.4412
vt 0.6683 0.7288
vt 0.3317 0.7288
vt 0.6683 0.4412
vt 0.3317 0.4412
vn 0.0000 -1.0000 -0.0000
vn 1.0000 0.0000 0.0000
vn 0.0000 0.0000 -1.0000
vn -1.0000 0.0000 -0.0000
vn 0.0000 0.0000 1.0000
vn 0.0000 1.0000 0.0000
vn 0.0000 -0.0002 -1.0000
usemtl prop_Lampa_Galogen.003
s 1
f 119/119/60 120/120/60 121/121/60
f 121/121/60 120/120/60 122/122/60
f 123/123/61 124/124/61 125/125/61
f 125/125/61 124/124/61 126/126/61
f 127/127/62 128/128/62 129/129/62
f 129/129/62 128/128/62 130/130/62
f 131/131/63 132/132/63 133/133/63
f 133/133/63 132/132/63 134/134/63
f 135/135/64 136/136/64 137/137/64
f 137/137/64 136/136/64 138/138/64
f 139/139/60 140/140/60 141/141/60
f 141/141/60 140/140/60 142/142/60
f 140/140/60 139/139/60 143/143/60
f 143/143/60 139/139/60 144/144/60
f 143/143/60 144/144/60 145/145/60
f 145/145/60 144/144/60 146/146/60
f 145/145/60 146/146/60 142/142/60
f 142/142/60 146/146/60 141/141/60
f 147/147/65 148/148/65 149/149/65
f 149/149/65 148/148/65 150/150/65
f 151/151/63 152/152/63 153/153/63
f 153/153/63 152/152/63 154/154/63
f 155/155/64 156/156/64 157/157/64
f 157/157/64 156/156/64 158/158/64
f 159/159/61 160/160/61 161/161/61
f 161/161/61 160/160/61 162/162/61
f 163/163/66 164/164/66 165/165/66
f 165/165/66 164/164/66 166/166/66
o 0.000_0.008
v 0.077667 -0.089028 0.554936
v 0.068749 -0.073197 0.554936
v 0.095546 -0.089028 0.554935
v 0.104464 -0.073197 0.554935
v 0.077667 -0.057361 0.554935
v 0.095546 -0.057355 0.554935
v 0.095546 -0.057354 -0.554982
v 0.077667 -0.057361 -0.554982
v 0.104464 -0.073197 -0.554982
v 0.068749 -0.073197 -0.554982
v 0.095546 -0.089027 -0.554982
v 0.077667 -0.089027 -0.554982
v 0.077667 -0.057361 0.554935
v 0.068749 -0.073197 0.554936
v 0.076914 -0.055915 0.578204
v 0.067134 -0.073191 0.578229
v 0.095546 -0.057355 0.554935
v 0.077667 -0.057361 0.554935
v 0.096344 -0.055915 0.578204
v 0.076914 -0.055915 0.578204
v 0.104464 -0.073197 0.554935
v 0.106124 -0.073191 0.578229
v 0.095546 -0.089028 0.554935
v 0.096344 -0.090467 0.578229
v 0.077667 -0.089028 0.554936
v 0.076914 -0.090467 0.578229
v 0.068749 -0.073197 -0.554982
v 0.077667 -0.057361 -0.554982
v 0.067134 -0.073190 -0.578223
v 0.076914 -0.055914 -0.578223
v 0.076914 -0.055914 -0.578223
v 0.077667 -0.057361 -0.554982
v 0.096344 -0.055914 -0.578223
v 0.095546 -0.057354 -0.554982
v 0.106081 -0.073190 -0.578223
v 0.104464 -0.073197 -0.554982
v 0.095546 -0.089027 -0.554982
v 0.096344 -0.090466 -0.578223
v 0.077667 -0.089027 -0.554982
v 0.076914 -0.090466 -0.578223
v 0.058517 -0.044936 0.578231
v 0.058518 -0.044935 -0.578223
v 0.115042 -0.044936 0.578231
v 0.115042 -0.044935 -0.578223
v 0.058518 0.000246 -0.593217
v 0.058517 0.000245 0.593276
v 0.115042 0.000246 -0.593217
v 0.115042 0.000245 0.593276
v 0.115042 -0.044935 -0.593217
v 0.108020 -0.100486 -0.593243
v 0.058518 -0.044935 -0.593217
v 0.065540 -0.100486 -0.593243
v 0.115042 0.000246 -0.593217
v 0.058518 0.000246 -0.593217
v 0.065540 -0.100486 -0.578223
v 0.065540 -0.100486 -0.593243
v 0.108019 -0.100486 -0.578223
v 0.108020 -0.100486 -0.593243
v 0.058518 -0.044935 -0.578223
v 0.065540 -0.100486 -0.578223
v 0.115042 -0.044935 -0.578223
v 0.108019 -0.100486 -0.578223
v 0.115042 -0.044936 0.593276
v 0.115042 0.000245 0.593276
v 0.058517 -0.044936 0.593276
v 0.058517 0.000245 0.593276
v 0.108019 -0.100486 0.593276
v 0.065540 -0.100486 0.593276
v 0.108019 -0.100486 0.593276
v 0.065540 -0.100486 0.593276
v 0.108019 -0.100486 0.578231
v 0.065540 -0.100486 0.578231
v 0.108019 -0.100486 0.578231
v 0.065540 -0.100486 0.578231
v 0.115042 -0.044936 0.578231
v 0.058517 -0.044936 0.578231
v 0.058517 -0.044936 0.578231
v 0.058517 -0.044936 0.593276
v 0.058517 0.000245 0.593276
v 0.058518 -0.044935 -0.578223
v 0.058518 0.000246 -0.593217
v 0.058518 -0.044935 -0.593217
v 0.058518 -0.044935 -0.593217
v 0.065540 -0.100486 -0.593243
v 0.058518 -0.044935 -0.578223
v 0.065540 -0.100486 -0.578223
v 0.065540 -0.100486 0.578231
v 0.065540 -0.100486 0.593276
v 0.058517 -0.044936 0.578231
v 0.058517 -0.044936 0.593276
v 0.115042 -0.044935 -0.578223
v 0.115042 -0.044935 -0.593217
v 0.115042 0.000246 -0.593217
v 0.115042 -0.044936 0.578231
v 0.115042 0.000245 0.593276
v 0.115042 -0.044936 0.593276
v 0.108019 -0.100486 -0.578223
v 0.108020 -0.100486 -0.593243
v 0.115042 -0.044935 -0.578223
v 0.115042 -0.044935 -0.593217
v 0.115042 -0.044936 0.593276
v 0.108019 -0.100486 0.593276
v 0.115042 -0.044936 0.578231
v 0.108019 -0.100486 0.578231
vt 0.4523 0.1793
vt 0.4286 0.2333
vt 0.4523 0.0713
vt 0.4286 0.0173
vt 0.4049 0.1793
vt 0.4049 0.0713
vt 0.4049 0.0713
vt 0.4049 0.1793
vt 0.4286 0.0173
vt 0.4286 0.2333
vt 0.4523 0.0713
vt 0.4523 0.1793
vt 0.3729 0.2143
vt 0.3530 0.2143
vt 0.3729 0.0251
vt 0.3530 0.0251
vt 0.2783 0.2143
vt 0.2632 0.2143
vt 0.2783 0.0251
vt 0.2632 0.0251
vt 0.2982 0.2143
vt 0.2982 0.0251
vt 0.3181 0.2143
vt 0.3181 0.0251
vt 0.3332 0.2143
vt 0.3332 0.0251
vt 0.3530 0.2143
vt 0.3729 0.2143
vt 0.3530 0.0251
vt 0.3729 0.0251
vt 0.2632 0.0251
vt 0.2632 0.2143
vt 0.2783 0.0251
vt 0.2783 0.2143
vt 0.2982 0.0251
vt 0.2982 0.2143
vt 0.3181 0.2143
vt 0.3181 0.0251
vt 0.3332 0.2143
vt 0.3332 0.0251
vt 0.9824 0.5290
vt 0.0132 0.5290
vt 0.9824 0.2944
vt 0.0132 0.2944
vt 0.9952 0.9976
vt 0.0002 0.9976
vt 0.9952 0.7175
vt 0.0004 0.7175
vt 0.0484 0.2514
vt 0.0952 0.2222
vt 0.0484 0.0163
vt 0.0952 0.0455
vt 0.0104 0.2514
vt 0.0104 0.0163
vt 0.2222 0.2199
vt 0.2349 0.2199
vt 0.2222 0.0432
vt 0.2349 0.0432
vt 0.1143 0.2463
vt 0.1610 0.2172
vt 0.1143 0.0113
vt 0.1610 0.0404
vt 0.0484 0.2514
vt 0.0104 0.2514
vt 0.0484 0.0163
vt 0.0104 0.0163
vt 0.0952 0.2222
vt 0.0952 0.0455
vt 0.2349 0.0432
vt 0.2349 0.2199
vt 0.2222 0.0432
vt 0.2222 0.2199
vt 0.1610 0.0404
vt 0.1610 0.2172
vt 0.1143 0.0113
vt 0.1143 0.2463
vt 0.9824 0.5290
vt 0.9951 0.5289
vt 0.9952 0.7175
vt 0.0132 0.5290
vt 0.0004 0.7175
vt 0.0005 0.5289
vt 0.2011 0.2463
vt 0.2011 0.0153
vt 0.1884 0.2463
vt 0.1884 0.0153
vt 0.1884 0.0153
vt 0.2011 0.0153
vt 0.1884 0.2463
vt 0.2011 0.2463
vt 0.0132 0.5289
vt 0.0005 0.5289
vt 0.0004 0.7175
vt 0.9824 0.5289
vt 0.9952 0.7175
vt 0.9951 0.5289
vt 0.1884 0.0153
vt 0.2011 0.0153
vt 0.1884 0.2463
vt 0.2011 0.2463
vt 0.2011 0.2463
vt 0.2011 0.0153
vt 0.1884 0.2463
vt 0.1884 0.0153
vn -0.0001 -0.0000 -1.0000
vn -0.0000 -0.0000 -1.0000
vn 0.0000 0.0000 1.0000
vn -0.3296 0.9416 -0.0690
vn -0.9805 0.1848 -0.0673
vn -0.6583 0.7496 -0.0685
vn -0.9806 -0.1843 -0.0673
vn 0.6582 0.7496 -0.0697
vn -0.3296 0.9416 -0.0691
vn 0.3287 0.9418 -0.0697
vn -0.6583 0.7496 -0.0686
vn 0.9975 -0.0002 -0.0711
vn 0.9976 -0.0002 -0.0699
vn 0.6582 -0.7496 -0.0695
vn 0.3288 -0.9418 -0.0694
vn -0.5029 -0.8615 -0.0700
vn -0.5023 -0.8619 -0.0695
vn -0.9976 -0.0002 0.0693
vn -0.5030 0.8614 0.0704
vn -0.9977 0.0001 0.0682
vn -0.5025 0.8618 0.0699
vn -0.5025 0.8617 0.0699
vn 0.3292 0.9417 0.0698
vn 0.6587 0.7492 0.0692
vn 0.9976 0.0000 0.0692
vn 0.9976 -0.0003 0.0694
vn 0.6587 -0.7492 0.0691
vn 0.3294 -0.9416 0.0696
vn -0.5029 -0.8615 0.0701
vn -0.5025 -0.8618 0.0696
vn 0.0000 -1.0000 -0.0000
vn 0.0000 1.0000 0.0000
vn 0.0000 0.0002 -1.0000
vn 0.0000 0.0005 -1.0000
vn -0.9987 -0.0503 0.0000
vn -0.9980 -0.0629 -0.0000
vn -1.0000 0.0000 -0.0000
vn -0.9980 -0.0628 0.0000
vn -0.9921 -0.1254 0.0000
vn 0.9980 -0.0629 0.0000
vn 0.9980 -0.0628 0.0000
vn 1.0000 0.0000 0.0000
vn 0.9987 -0.0503 0.0000
vn 0.9921 -0.1254 0.0001
vn 0.9921 -0.1254 -0.0000
usemtl prop_Lampa_Galogen.005
s 1
f 167/167/67 168/168/68 169/169/68
f 169/169/68 168/168/68 170/170/68
f 168/168/68 171/171/68 170/170/68
f 171/171/68 172/172/68 170/170/68
f 173/173/69 174/174/69 175/175/69
f 174/174/69 176/176/69 175/175/69
f 175/175/69 176/176/69 177/177/69
f 176/176/69 178/178/69 177/177/69
f 179/179/70 180/180/71 181/181/72
f 181/181/72 180/180/71 182/182/73
f 183/183/74 184/184/75 185/185/76
f 185/185/76 184/184/75 186/186/77
f 187/187/78 183/183/74 188/188/79
f 188/188/79 183/183/74 185/185/76
f 187/187/78 188/188/79 189/189/80
f 189/189/80 188/188/79 190/190/81
f 189/189/80 190/190/81 191/191/82
f 191/191/82 190/190/81 192/192/83
f 180/180/71 191/191/82 182/182/73
f 182/182/73 191/191/82 192/192/83
f 193/193/84 194/194/85 195/195/86
f 195/195/86 194/194/85 196/196/87
f 197/197/88 198/198/85 199/199/89
f 199/199/89 198/198/85 200/200/90
f 199/199/89 200/200/90 201/201/91
f 201/201/91 200/200/90 202/202/92
f 202/202/92 203/203/93 201/201/91
f 201/201/91 203/203/93 204/204/94
f 203/203/93 205/205/95 204/204/94
f 204/204/94 205/205/95 206/206/96
f 206/206/96 205/205/95 195/195/86
f 195/195/86 205/205/95 193/193/84
f 207/207/97 208/208/97 209/209/97
f 209/209/97 208/208/97 210/210/97
f 211/211/98 212/212/98 213/213/98
f 213/213/98 212/212/98 214/214/98
f 215/215/99 216/216/100 217/217/99
f 217/217/99 216/216/100 218/218/100
f 215/215/99 217/217/99 219/219/68
f 219/219/68 217/217/99 220/220/68
f 221/221/97 222/222/97 223/223/97
f 223/223/97 222/222/97 224/224/97
f 225/225/69 226/226/69 227/227/69
f 227/227/69 226/226/69 228/228/69
f 229/229/69 230/230/69 231/231/69
f 231/231/69 230/230/69 232/232/69
f 229/229/69 231/231/69 233/233/69
f 233/233/69 231/231/69 234/234/69
f 235/235/97 236/236/97 237/237/97
f 237/237/97 236/236/97 238/238/97
f 239/239/68 240/240/68 241/241/68
f 241/241/68 240/240/68 242/242/68
f 243/243/101 244/244/102 245/245/103
f 246/246/104 243/243/101 247/247/103
f 247/247/103 243/243/101 245/245/103
f 246/246/104 247/247/103 248/248/104
f 249/249/104 250/250/105 251/251/102
f 251/251/102 250/250/105 252/252/105
f 253/253/105 254/254/105 255/255/101
f 255/255/101 254/254/105 256/256/104
f 257/257/106 258/258/107 259/259/108
f 257/257/106 259/259/108 260/260/109
f 260/260/109 259/259/108 261/261/108
f 261/261/108 262/262/106 260/260/109
f 263/263/110 264/264/110 265/265/106
f 265/265/106 264/264/110 266/266/106
f 267/267/107 268/268/111 269/269/109
f 269/269/109 268/268/111 270/270/111
o lamp2_1.005
v 0.077667 -0.057361 -0.554982
v 0.068749 -0.073197 -0.554982
v 0.077667 -0.057361 0.554935
v 0.068749 -0.073197 0.554936
v 0.095546 -0.057354 -0.554982
v 0.095546 -0.057355 0.554935
v 0.104464 -0.073197 -0.554982
v 0.104464 -0.073197 0.554935
v 0.095546 -0.089027 -0.554982
v 0.095546 -0.089028 0.554935
v 0.077667 -0.089027 -0.554982
v 0.077667 -0.089028 0.554936
v 0.068749 -0.073197 -0.554982
v 0.068749 -0.073197 0.554936
vt 0.5325 0.0367
vt 0.5325 0.0000
vt 1.0000 0.0368
vt 1.0000 0.0000
vt 0.5325 0.0798
vt 1.0000 0.0798
vt 0.5325 0.1166
vt 1.0000 0.1166
vt 0.5325 0.1534
vt 1.0000 0.1534
vt 0.5325 0.1965
vt 1.0000 0.1965
vt 0.5325 0.2332
vt 1.0000 0.2332
vn -0.3305 0.9438 0.0000
vn -0.9828 0.1844 0.0000
vn -0.6605 0.7508 0.0000
vn -0.9828 -0.1846 0.0001
vn 0.6605 0.7509 0.0000
vn 0.3300 0.9440 0.0001
vn 0.9828 -0.1847 -0.0000
vn 0.9829 0.1844 -0.0000
vn 0.3302 -0.9439 -0.0000
vn 0.6603 -0.7510 -0.0000
vn -0.6603 -0.7510 -0.0000
vn -0.3302 -0.9439 -0.0000
vn -0.9828 0.1845 0.0000
vn -0.9828 -0.1846 -0.0000
usemtl prop_Lampa_Galogen.005
s 1
f 271/271/112 272/272/113 273/273/114
f 273/273/114 272/272/113 274/274/115
f 275/275/116 271/271/112 276/276/117
f 276/276/117 271/271/112 273/273/114
f 277/277/118 275/275/116 278/278/119
f 278/278/119 275/275/116 276/276/117
f 279/279/120 277/277/118 280/280/121
f 280/280/121 277/277/118 278/278/119
f 281/281/122 279/279/120 282/282/123
f 282/282/123 279/279/120 280/280/121
f 283/283/124 281/281/122 284/284/125
f 284/284/125 281/281/122 282/282/123
