# ..:::Stalker models:::..
# WebSite: http://excalibur-craft.ru
mtllib stolb_1b_b.mtl
o 0
v 0.067027 0.002907 -0.063401
v 0.067027 0.002907 0.063401
v -0.064717 0.002907 0.063401
v -0.064717 0.002907 -0.063401
v 0.067027 1.672088 -0.063401
v -0.064717 1.672088 -0.063401
v -0.064717 1.672088 0.063401
v 0.067026 1.672088 0.063401
vt 0.0648 0.0796
vt 0.1176 0.0796
vt 0.1164 0.0366
vt 0.0676 0.0357
vt 0.2524 0.0649
vt 0.2967 0.0676
vt 0.2992 0.0289
vt 0.2526 0.0266
vt 0.5594 0.0069
vt 0.5587 0.3433
vt 0.6091 0.3453
vt 0.6063 0.0092
vt 0.1704 0.0163
vt 0.1666 0.3263
vt 0.2217 0.3267
vt 0.2206 0.0166
vt 0.3489 0.0072
vt 0.3406 0.3331
vt 0.3939 0.3347
vt 0.4034 0.0084
vt 0.4979 0.0024
vt 0.4947 0.3411
vt 0.5509 0.3446
vt 0.5507 0.0051
vn 0.0000 -1.0000 -0.0000
vn 0.0000 1.0000 -0.0000
vn 1.0000 0.0000 0.0000
vn 0.0000 -0.0000 1.0000
vn -1.0000 -0.0000 0.0000
vn 0.0000 0.0000 -1.0000
usemtl Material.001
s 1
f 1/1/1 2/2/1 3/3/1 4/4/1
f 5/5/2 6/6/2 7/7/2 8/8/2
f 1/9/3 5/10/3 8/11/3 2/12/3
f 2/13/4 8/14/4 7/15/4 3/16/4
f 3/17/5 7/18/5 6/19/5 4/20/5
f 5/21/6 1/22/6 4/23/6 6/24/6
