# Blender v2.76 (sub 0) OBJ File: ''
# www.blender.org
mtllib SkatRightLeg.mtl
o rightleg16007
v 0.031250 0.000708 -0.161060
v 0.000000 0.000708 -0.137500
v 0.000000 0.750708 -0.137500
v 0.031250 0.750708 -0.161060
v 0.218750 0.000708 -0.098560
v 0.250000 0.000708 -0.075000
v 0.250000 0.750708 -0.075000
v 0.218750 0.750708 -0.098560
v 0.000000 0.750708 -0.075000
v 0.031250 0.750708 -0.098560
v 0.031250 0.000708 -0.098560
v 0.000000 0.000708 -0.075000
v 0.250000 0.000708 -0.137500
v 0.250000 0.750708 -0.137500
v 0.218750 0.000708 -0.161060
v 0.187500 0.000708 -0.098560
v 0.187500 0.000708 -0.161060
v 0.156250 0.000708 -0.098560
v 0.156250 0.000708 -0.161060
v 0.125000 0.000708 -0.098560
v 0.125000 0.000708 -0.161060
v 0.093750 0.000708 -0.098560
v 0.093750 0.000708 -0.161060
v 0.062500 0.000708 -0.098560
v 0.062500 0.000708 -0.161060
v 0.218750 0.750708 -0.161060
v 0.187500 0.750708 -0.161060
v 0.187500 0.750708 -0.098560
v 0.156250 0.750708 -0.161060
v 0.156250 0.750708 -0.098560
v 0.125000 0.750708 -0.161060
v 0.125000 0.750708 -0.098560
v 0.093750 0.750708 -0.161060
v 0.093750 0.750708 -0.098560
v 0.062500 0.750708 -0.161060
v 0.062500 0.750708 -0.098560
v 0.050000 0.000708 -0.125000
v -0.012500 0.000708 -0.125000
v -0.012500 0.750708 -0.125000
v 0.050000 0.750708 -0.125000
v -0.012500 0.000708 0.125000
v 0.050000 0.000708 0.125000
v 0.050000 0.750708 0.125000
v -0.012500 0.750708 0.125000
v 0.256250 0.000708 -0.125000
v 0.193750 0.000708 -0.125000
v 0.193750 0.750708 -0.125000
v 0.256250 0.750708 -0.125000
v 0.193750 0.000708 0.125000
v 0.256250 0.000708 0.125000
v 0.256250 0.750708 0.125000
v 0.193750 0.750708 0.125000
v 0.273563 0.750708 0.097222
v 0.211063 0.750708 0.097222
v 0.273563 0.000708 -0.097222
v 0.211063 0.000708 -0.097222
v 0.273563 0.750708 -0.097222
v 0.211063 0.000708 0.097222
v 0.211063 0.750708 -0.097222
v 0.211063 0.000708 -0.069444
v 0.211063 0.750708 -0.069444
v 0.211063 0.000708 -0.041667
v 0.211063 0.750708 -0.041667
v 0.211063 0.000708 -0.013889
v 0.211063 0.750708 -0.013889
v 0.211063 0.000708 0.013889
v 0.211063 0.750708 0.013889
v 0.211063 0.000708 0.041667
v 0.211063 0.750708 0.041667
v 0.211063 0.000708 0.069444
v 0.211063 0.750708 0.069445
v 0.273563 0.000708 0.097222
v 0.273563 0.000708 0.069444
v 0.273563 0.750708 0.069445
v 0.273563 0.000708 0.041667
v 0.273563 0.750708 0.041667
v 0.273563 0.000708 0.013889
v 0.273563 0.750708 0.013889
v 0.273563 0.000708 -0.013889
v 0.273563 0.750708 -0.013889
v 0.273563 0.000708 -0.041667
v 0.273563 0.750708 -0.041667
v 0.273563 0.000708 -0.069444
v 0.273563 0.750708 -0.069444
v 0.027778 -0.045731 -0.248487
v 0.000000 -0.045731 -0.187500
v 0.000000 0.016769 -0.187500
v 0.027778 0.016769 -0.248487
v 0.222222 -0.045731 0.064013
v 0.250000 -0.045731 0.125000
v 0.250000 0.016769 0.125000
v 0.222222 0.016769 0.064013
v 0.000000 0.016769 0.125000
v 0.027778 0.016769 0.064013
v 0.027778 -0.045731 0.064013
v 0.000000 -0.045731 0.125000
v 0.250000 -0.045731 -0.187500
v 0.250000 0.016769 -0.187500
v 0.222222 -0.045731 -0.248487
v 0.194444 -0.045731 0.064013
v 0.194444 -0.045731 -0.248487
v 0.166667 -0.045731 0.064013
v 0.166667 -0.045731 -0.248487
v 0.138889 -0.045731 0.064013
v 0.138889 -0.045731 -0.248487
v 0.111111 -0.045731 0.064013
v 0.111111 -0.045731 -0.248487
v 0.083333 -0.045731 0.064013
v 0.083333 -0.045731 -0.248487
v 0.055556 -0.045731 0.064013
v 0.055556 -0.045731 -0.248487
v 0.222222 0.016769 -0.248487
v 0.194444 0.016769 -0.248487
v 0.194444 0.016769 0.064013
v 0.166667 0.016769 -0.248487
v 0.166667 0.016769 0.064013
v 0.138889 0.016769 -0.248487
v 0.138889 0.016769 0.064013
v 0.111111 0.016769 -0.248487
v 0.111111 0.016769 0.064013
v 0.083333 0.016769 -0.248487
v 0.083333 0.016769 0.064013
v 0.055556 0.016769 -0.248487
v 0.055556 0.016769 0.064013
v 0.035714 0.000708 0.099131
v 0.000000 0.000708 0.075000
v 0.000000 0.750708 0.075000
v 0.035714 0.750708 0.099131
v 0.214286 0.000708 0.161631
v 0.250000 0.000708 0.137500
v 0.250000 0.750708 0.137500
v 0.214286 0.750708 0.161631
v 0.000000 0.750708 0.137500
v 0.035714 0.750708 0.161631
v 0.035714 0.000708 0.161631
v 0.000000 0.000708 0.137500
v 0.250000 0.000708 0.075000
v 0.250000 0.750708 0.075000
v 0.214286 0.000708 0.099131
v 0.178571 0.000708 0.161631
v 0.178571 0.000708 0.099131
v 0.142857 0.000708 0.161631
v 0.142857 0.000708 0.099131
v 0.107143 0.000708 0.161631
v 0.107143 0.000708 0.099131
v 0.071429 0.000708 0.161631
v 0.071429 0.000708 0.099131
v 0.214286 0.750708 0.099131
v 0.178571 0.750708 0.099131
v 0.178571 0.750708 0.161631
v 0.142857 0.750708 0.099131
v 0.142857 0.750708 0.161631
v 0.107143 0.750708 0.099131
v 0.107143 0.750708 0.161631
v 0.071429 0.750708 0.099131
v 0.071429 0.750708 0.161631
vt 0.734375 0.031250
vt 0.734375 0.218750
vt 0.730469 0.218750
vt 0.773438 0.031250
vt 0.773438 0.218750
vt 0.769532 0.218750
vt 0.734375 0.234375
vt 0.730469 0.234375
vt 0.761719 0.218750
vt 0.765625 0.218750
vt 0.765625 0.234375
vt 0.703125 0.031250
vt 0.703125 0.218750
vt 0.695313 0.218750
vt 0.742188 0.031250
vt 0.742188 0.218750
vt 0.738281 0.218750
vt 0.738281 0.234375
vt 0.742188 0.234375
vt 0.746094 0.218750
vt 0.746094 0.234375
vt 0.750000 0.218750
vt 0.750000 0.234375
vt 0.753906 0.218750
vt 0.753906 0.234375
vt 0.757812 0.218750
vt 0.757812 0.234375
vt 0.761719 0.234375
vt 0.707031 0.218750
vt 0.707031 0.234375
vt 0.710938 0.218750
vt 0.710938 0.234375
vt 0.714844 0.218750
vt 0.714844 0.234375
vt 0.718750 0.218750
vt 0.718750 0.234375
vt 0.722656 0.218750
vt 0.722656 0.234375
vt 0.726562 0.218750
vt 0.726562 0.234375
vt 0.746094 0.031250
vt 0.750000 0.031250
vt 0.753907 0.031250
vt 0.757813 0.031250
vt 0.761719 0.031250
vt 0.765625 0.031250
vt 0.769532 0.031250
vt 0.707031 0.031250
vt 0.710938 0.031250
vt 0.714844 0.031250
vt 0.718750 0.031250
vt 0.722656 0.031250
vt 0.726562 0.031250
vt 0.730469 0.031250
vt 0.734375 0.343750
vt 0.734375 0.531250
vt 0.726563 0.531250
vt 0.773438 0.343750
vt 0.773438 0.531250
vt 0.765625 0.531250
vt 0.734375 0.593750
vt 0.726563 0.593750
vt 0.742188 0.531250
vt 0.742188 0.593750
vt 0.695313 0.343750
vt 0.726563 0.343750
vt 0.765625 0.343750
vt 0.734375 0.328125
vt 0.734375 0.515625
vt 0.726563 0.515625
vt 0.773438 0.328125
vt 0.773438 0.515625
vt 0.765625 0.515625
vt 0.734375 0.571181
vt 0.734375 0.578125
vt 0.726563 0.578125
vt 0.742188 0.571181
vt 0.742188 0.578125
vt 0.726563 0.328125
vt 0.723091 0.515625
vt 0.765625 0.328125
vt 0.762153 0.515625
vt 0.737847 0.328125
vt 0.737847 0.515625
vt 0.741319 0.328125
vt 0.741319 0.515625
vt 0.744792 0.328125
vt 0.744792 0.515625
vt 0.748264 0.328125
vt 0.748264 0.515625
vt 0.751736 0.328125
vt 0.751736 0.515625
vt 0.755208 0.328125
vt 0.755208 0.515625
vt 0.758680 0.328125
vt 0.758680 0.515625
vt 0.762153 0.328125
vt 0.698785 0.328125
vt 0.698785 0.515625
vt 0.695313 0.515625
vt 0.702257 0.328125
vt 0.702257 0.515625
vt 0.705730 0.328125
vt 0.705730 0.515625
vt 0.709202 0.328125
vt 0.709202 0.515625
vt 0.712674 0.328125
vt 0.712674 0.515625
vt 0.716146 0.328125
vt 0.716146 0.515625
vt 0.719619 0.328125
vt 0.719619 0.515625
vt 0.723091 0.328125
vt 0.742188 0.515625
vt 0.742188 0.522569
vt 0.742188 0.529514
vt 0.734375 0.529514
vt 0.742188 0.536458
vt 0.734375 0.536458
vt 0.742188 0.543403
vt 0.734375 0.543403
vt 0.742188 0.550347
vt 0.734375 0.550347
vt 0.742188 0.557292
vt 0.734375 0.557292
vt 0.742188 0.564236
vt 0.734375 0.564236
vt 0.734375 0.522569
vt 0.726563 0.529514
vt 0.726563 0.536458
vt 0.726563 0.543403
vt 0.726563 0.550347
vt 0.726563 0.557292
vt 0.726563 0.564236
vt 0.726563 0.571181
vt 0.496528 0.031250
vt 0.500000 0.031250
vt 0.500000 0.046875
vt 0.570313 0.031250
vt 0.570313 0.046875
vt 0.566841 0.046875
vt 0.500000 0.125000
vt 0.496528 0.125000
vt 0.527778 0.046875
vt 0.531250 0.046875
vt 0.531250 0.125000
vt 0.468750 0.031250
vt 0.468750 0.046875
vt 0.429688 0.046875
vt 0.539063 0.031250
vt 0.539063 0.046875
vt 0.503472 0.046875
vt 0.503472 0.125000
vt 0.506944 0.046875
vt 0.506944 0.125000
vt 0.510417 0.046875
vt 0.510417 0.125000
vt 0.513889 0.046875
vt 0.513889 0.125000
vt 0.517361 0.046875
vt 0.517361 0.125000
vt 0.520833 0.046875
vt 0.520833 0.125000
vt 0.524306 0.046875
vt 0.524306 0.125000
vt 0.527778 0.125000
vt 0.472222 0.046875
vt 0.472222 0.125000
vt 0.475694 0.046875
vt 0.475694 0.125000
vt 0.479167 0.046875
vt 0.479167 0.125000
vt 0.482639 0.046875
vt 0.482639 0.125000
vt 0.486111 0.046875
vt 0.486111 0.125000
vt 0.489583 0.046875
vt 0.489583 0.125000
vt 0.493056 0.046875
vt 0.493056 0.125000
vt 0.496528 0.046875
vt 0.542535 0.031250
vt 0.542535 0.046875
vt 0.546007 0.031250
vt 0.546007 0.046875
vt 0.549480 0.031250
vt 0.549480 0.046875
vt 0.552952 0.031250
vt 0.552952 0.046875
vt 0.556424 0.031250
vt 0.556424 0.046875
vt 0.559896 0.031250
vt 0.559896 0.046875
vt 0.563368 0.031250
vt 0.563369 0.046875
vt 0.566841 0.031250
vt 0.472222 0.031250
vt 0.475694 0.031250
vt 0.479167 0.031250
vt 0.482639 0.031250
vt 0.486111 0.031250
vt 0.489583 0.031250
vt 0.493056 0.031250
vt 0.729911 0.218750
vt 0.768974 0.218750
vt 0.761161 0.234375
vt 0.738839 0.218750
vt 0.738839 0.234375
vt 0.743304 0.218750
vt 0.743304 0.234375
vt 0.747768 0.218750
vt 0.747768 0.234375
vt 0.752232 0.218750
vt 0.752232 0.234375
vt 0.756696 0.218750
vt 0.756696 0.234375
vt 0.761161 0.218750
vt 0.707589 0.218750
vt 0.707589 0.234375
vt 0.703125 0.234375
vt 0.712054 0.218750
vt 0.712054 0.234375
vt 0.716518 0.218750
vt 0.716518 0.234375
vt 0.720982 0.218750
vt 0.720982 0.234375
vt 0.725446 0.218750
vt 0.725446 0.234375
vt 0.729911 0.234375
vt 0.746652 0.031250
vt 0.746652 0.218750
vt 0.751117 0.031250
vt 0.751117 0.218750
vt 0.755581 0.031250
vt 0.755581 0.218750
vt 0.760045 0.031250
vt 0.760045 0.218750
vt 0.764509 0.031250
vt 0.764509 0.218750
vt 0.768974 0.031250
vt 0.707589 0.031250
vt 0.712054 0.031250
vt 0.716518 0.031250
vt 0.720982 0.031250
vt 0.725446 0.031250
vt 0.729911 0.031250
vt 0.695313 0.031250
vt 0.695313 0.531250
vt 0.695313 0.328125
vt 0.726563 0.522569
vt 0.429688 0.031250
vt 0.468750 0.125000
vn -0.702800 -0.619100 -0.350300
vn -0.702800 0.619100 -0.350300
vn -0.243300 0.642200 -0.726900
vn 0.372300 -0.550800 0.747000
vn 0.372300 0.550800 0.747000
vn -0.196200 0.786000 0.586300
vn -0.372300 0.550800 0.747000
vn 0.196200 0.786000 0.586300
vn 0.196200 -0.786000 0.586300
vn -0.372300 -0.550800 0.747000
vn 0.702800 -0.619100 -0.350300
vn 0.702800 0.619100 -0.350300
vn -0.196200 -0.786000 0.586300
vn 0.243300 -0.642200 -0.726900
vn 0.000000 -0.707100 0.707100
vn 0.000000 -0.707100 -0.707100
vn -0.243300 -0.642200 -0.726900
vn 0.243300 0.642200 -0.726900
vn 0.000000 0.707100 -0.707100
vn 0.000000 0.707100 0.707100
vn -0.577400 -0.577400 -0.577400
vn -0.577400 0.577400 -0.577400
vn 0.577400 0.577400 -0.577400
vn 0.577400 -0.577400 0.577400
vn 0.577400 0.577400 0.577400
vn -0.577400 0.577400 0.577400
vn -0.577400 -0.577400 0.577400
vn 0.577400 -0.577400 -0.577400
vn -0.728200 -0.553600 -0.404200
vn -0.728200 0.553600 -0.404200
vn 0.383600 0.612500 -0.691200
vn 0.383600 -0.612500 0.691200
vn 0.383600 0.612500 0.691200
vn -0.728200 0.553600 0.404200
vn -0.608100 0.774600 -0.174000
vn -0.608100 -0.774600 0.174000
vn 0.383600 -0.612500 -0.691200
vn 0.730500 0.650100 -0.209000
vn -0.728200 -0.553600 0.404200
vn -0.608100 0.774600 0.174000
vn -0.707100 -0.707100 -0.000000
vn -0.707100 0.707100 0.000000
vn -0.608100 -0.774600 -0.174000
vn 0.730500 -0.650100 0.209000
vn 0.730500 0.650100 0.209000
vn 0.707100 -0.707100 -0.000000
vn 0.707100 0.707100 0.000000
vn 0.730500 -0.650100 -0.209000
vn -0.431500 -0.603200 -0.670700
vn -0.732200 -0.662300 -0.158900
vn -0.732200 0.662300 -0.158900
vn 0.178500 -0.539900 0.822600
vn 0.178500 0.539900 0.822600
vn -0.284000 0.851200 0.441400
vn -0.178500 0.539900 0.822600
vn 0.284000 0.851200 0.441400
vn 0.284000 -0.851200 0.441400
vn -0.178500 -0.539900 0.822600
vn 0.732200 -0.662300 -0.158900
vn 0.732200 0.662300 -0.158900
vn -0.284000 -0.851200 0.441400
vn 0.431500 -0.603200 -0.670700
vn 0.431500 0.603200 -0.670700
vn -0.431500 0.603200 -0.670700
vn -0.391100 -0.552400 -0.736200
vn -0.391100 0.552400 -0.736200
vn 0.183500 0.779300 -0.599200
vn 0.696200 -0.615200 0.369800
vn 0.696200 0.615200 0.369800
vn 0.223300 0.646800 0.729300
vn -0.696200 0.615200 0.369800
vn -0.696200 -0.615200 0.369800
vn 0.183500 -0.779300 -0.599200
vn 0.391100 -0.552400 -0.736200
vn 0.391100 0.552400 -0.736200
vn 0.223300 -0.646800 0.729300
vn -0.183500 -0.779300 -0.599200
vn -0.223300 -0.646800 0.729300
vn -0.183500 0.779300 -0.599200
vn -0.223300 0.646800 0.729300
usemtl None.023
s 1
f 2/1/1 3/2/2 4/3/3
f 6/4/4 7/5/5 8/6/6
f 3/2/2 9/7/7 10/8/8
f 11/9/9 12/10/10 2/11/1
f 13/12/11 14/13/12 7/14/5
f 12/15/10 9/16/7 3/2/2
f 5/17/13 15/18/14 13/7/11
f 16/16/15 17/19/16 15/18/14
f 18/20/15 19/21/16 17/19/16
f 20/22/15 21/23/16 19/21/16
f 22/24/15 23/25/16 21/23/16
f 24/26/15 25/27/16 23/25/16
f 11/9/9 1/28/17 25/27/16
f 14/13/12 26/29/18 8/30/6
f 27/31/19 28/32/20 8/30/6
f 29/33/19 30/34/20 28/32/20
f 31/35/19 32/36/20 30/34/20
f 33/37/19 34/38/20 32/36/20
f 35/39/19 36/40/20 34/38/20
f 4/3/3 10/8/8 36/40/20
f 11/41/9 10/20/8 9/16/7
f 24/42/15 36/22/20 10/20/8
f 22/43/15 34/24/20 36/22/20
f 20/44/15 32/26/20 34/24/20
f 18/45/15 30/9/20 32/26/20
f 16/46/15 28/10/20 30/9/20
f 5/47/13 8/6/6 28/10/20
f 15/48/14 26/29/18 14/13/12
f 17/49/16 27/31/19 26/29/18
f 19/50/16 29/33/19 27/31/19
f 21/51/16 31/35/19 29/33/19
f 23/52/16 33/37/19 31/35/19
f 25/53/16 35/39/19 33/37/19
f 1/54/17 4/3/3 35/39/19
f 38/55/21 39/56/22 40/57/23
f 42/58/24 43/59/25 44/60/26
f 39/56/22 44/61/26 43/62/25
f 41/63/27 38/64/21 37/61/28
f 42/65/24 37/66/28 40/57/23
f 41/67/27 44/60/26 39/56/22
f 46/68/29 47/69/30 48/70/31
f 50/71/32 51/72/33 52/73/34
f 54/74/35 52/75/34 51/76/33
f 56/77/36 46/78/29 45/75/37
f 45/79/37 48/70/31 57/80/38
f 49/81/39 52/73/34 54/82/35
f 56/83/36 59/84/40 47/69/30
f 60/85/41 61/86/42 59/84/40
f 62/87/41 63/88/42 61/86/42
f 64/89/41 65/90/42 63/88/42
f 66/91/41 67/92/42 65/90/42
f 68/93/41 69/94/42 67/92/42
f 70/95/41 71/96/42 69/94/42
f 58/97/43 54/82/35 71/96/42
f 72/98/44 53/99/45 51/100/33
f 73/101/46 74/102/47 53/99/45
f 75/103/46 76/104/47 74/102/47
f 75/103/46 77/105/46 78/106/47
f 77/105/46 79/107/46 80/108/47
f 79/107/46 81/109/46 82/110/47
f 83/111/46 84/112/47 82/110/47
f 83/111/46 55/113/48 57/80/38
f 50/69/32 49/114/39 58/115/43
f 58/115/43 70/116/41 73/117/46
f 70/116/41 68/118/41 75/119/46
f 68/118/41 66/120/41 77/121/46
f 66/120/41 64/122/41 79/123/46
f 64/122/41 62/124/41 81/125/46
f 62/124/41 60/126/41 83/127/46
f 60/126/41 56/77/36 55/74/48
f 48/70/31 47/69/30 59/128/40
f 59/128/40 61/117/42 84/129/47
f 61/117/42 63/119/42 82/130/47
f 63/119/42 65/121/42 80/131/47
f 65/121/42 67/123/42 78/132/47
f 67/123/42 69/125/42 76/133/47
f 69/125/42 71/127/42 74/134/47
f 71/127/42 54/74/35 53/135/45
f 85/136/49 86/137/50 87/138/51
f 90/139/52 91/140/53 92/141/54
f 87/138/51 93/142/55 94/143/56
f 95/144/57 96/145/58 86/146/50
f 97/147/59 98/148/60 91/149/53
f 96/150/58 93/151/55 87/138/51
f 89/152/61 99/153/62 97/142/59
f 100/154/15 101/155/16 99/153/62
f 102/156/15 103/157/16 101/155/16
f 104/158/15 105/159/16 103/157/16
f 106/160/15 107/161/16 105/159/16
f 108/162/15 109/163/16 107/161/16
f 110/164/15 111/165/16 109/163/16
f 95/144/57 85/166/49 111/165/16
f 98/148/60 112/167/63 92/168/54
f 113/169/19 114/170/20 92/168/54
f 115/171/19 116/172/20 114/170/20
f 117/173/19 118/174/20 116/172/20
f 119/175/19 120/176/20 118/174/20
f 121/177/19 122/178/20 120/176/20
f 123/179/19 124/180/20 122/178/20
f 88/181/64 94/143/56 124/180/20
f 95/182/57 94/183/56 93/151/55
f 110/184/15 124/185/20 94/183/56
f 108/186/15 122/187/20 124/185/20
f 106/188/15 120/189/20 122/187/20
f 104/190/15 118/191/20 120/189/20
f 102/192/15 116/193/20 118/191/20
f 100/194/15 114/195/20 116/193/20
f 89/196/61 92/141/54 114/195/20
f 99/197/62 112/167/63 98/148/60
f 101/198/16 113/169/19 112/167/63
f 103/199/16 115/171/19 113/169/19
f 105/200/16 117/173/19 115/171/19
f 107/201/16 119/175/19 117/173/19
f 109/202/16 121/177/19 119/175/19
f 111/203/16 123/179/19 121/177/19
f 85/136/49 88/181/64 123/179/19
f 126/1/65 127/2/66 128/204/67
f 130/4/68 131/5/69 132/205/70
f 128/204/67 127/2/66 133/7/71
f 136/10/72 126/11/65 125/206/73
f 137/12/74 138/13/75 131/14/69
f 136/15/72 133/16/71 127/2/66
f 130/2/68 129/207/76 139/208/77
f 140/209/15 141/210/16 139/208/77
f 142/211/15 143/212/16 141/210/16
f 144/213/15 145/214/16 143/212/16
f 146/215/15 147/216/16 145/214/16
f 135/217/78 125/206/73 147/216/16
f 148/218/79 132/219/70 131/220/69
f 149/221/19 150/222/20 132/219/70
f 151/223/19 152/224/20 150/222/20
f 153/225/19 154/226/20 152/224/20
f 155/227/19 156/228/20 154/226/20
f 128/204/67 134/229/80 156/228/20
f 135/230/78 134/231/80 133/16/71
f 146/232/15 156/233/20 134/231/80
f 144/234/15 154/235/20 156/233/20
f 142/236/15 152/237/20 154/235/20
f 140/238/15 150/239/20 152/237/20
f 129/240/76 132/205/70 150/239/20
f 139/241/77 148/218/79 138/13/75
f 141/242/16 149/221/19 148/218/79
f 143/243/16 151/223/19 149/221/19
f 145/244/16 153/225/19 151/223/19
f 147/245/16 155/227/19 153/225/19
f 125/246/73 128/204/67 155/227/19
f 1/54/17 2/1/1 4/3/3
f 5/47/13 6/4/4 8/6/6
f 4/3/3 3/2/2 10/8/8
f 1/28/17 11/9/9 2/11/1
f 6/247/4 13/12/11 7/14/5
f 2/1/1 12/15/10 3/2/2
f 6/2/4 5/17/13 13/7/11
f 5/17/13 16/16/15 15/18/14
f 16/16/15 18/20/15 17/19/16
f 18/20/15 20/22/15 19/21/16
f 20/22/15 22/24/15 21/23/16
f 22/24/15 24/26/15 23/25/16
f 24/26/15 11/9/9 25/27/16
f 7/220/5 14/13/12 8/30/6
f 26/29/18 27/31/19 8/30/6
f 27/31/19 29/33/19 28/32/20
f 29/33/19 31/35/19 30/34/20
f 31/35/19 33/37/19 32/36/20
f 33/37/19 35/39/19 34/38/20
f 35/39/19 4/3/3 36/40/20
f 12/15/10 11/41/9 9/16/7
f 11/41/9 24/42/15 10/20/8
f 24/42/15 22/43/15 36/22/20
f 22/43/15 20/44/15 34/24/20
f 20/44/15 18/45/15 32/26/20
f 18/45/15 16/46/15 30/9/20
f 16/46/15 5/47/13 28/10/20
f 13/12/11 15/48/14 14/13/12
f 15/48/14 17/49/16 26/29/18
f 17/49/16 19/50/16 27/31/19
f 19/50/16 21/51/16 29/33/19
f 21/51/16 23/52/16 31/35/19
f 23/52/16 25/53/16 33/37/19
f 25/53/16 1/54/17 35/39/19
f 37/66/28 38/55/21 40/57/23
f 41/67/27 42/58/24 44/60/26
f 40/57/23 39/56/22 43/62/25
f 42/56/24 41/63/27 37/61/28
f 43/248/25 42/65/24 40/57/23
f 38/55/21 41/67/27 39/56/22
f 45/79/37 46/68/29 48/70/31
f 49/81/39 50/71/32 52/73/34
f 53/135/45 54/74/35 51/76/33
f 55/74/48 56/77/36 45/75/37
f 55/113/48 45/79/37 57/80/38
f 58/97/43 49/81/39 54/82/35
f 46/68/29 56/83/36 47/69/30
f 56/83/36 60/85/41 59/84/40
f 60/85/41 62/87/41 61/86/42
f 62/87/41 64/89/41 63/88/42
f 64/89/41 66/91/41 65/90/42
f 66/91/41 68/93/41 67/92/42
f 68/93/41 70/95/41 69/94/42
f 70/95/41 58/97/43 71/96/42
f 50/249/32 72/98/44 51/100/33
f 72/98/44 73/101/46 53/99/45
f 73/101/46 75/103/46 74/102/47
f 76/104/47 75/103/46 78/106/47
f 78/106/47 77/105/46 80/108/47
f 80/108/47 79/107/46 82/110/47
f 81/109/46 83/111/46 82/110/47
f 84/112/47 83/111/46 57/80/38
f 72/128/44 50/69/32 58/115/43
f 72/128/44 58/115/43 73/117/46
f 73/117/46 70/116/41 75/119/46
f 75/119/46 68/118/41 77/121/46
f 77/121/46 66/120/41 79/123/46
f 79/123/46 64/122/41 81/125/46
f 81/125/46 62/124/41 83/127/46
f 83/127/46 60/126/41 55/74/48
f 57/250/38 48/70/31 59/128/40
f 57/250/38 59/128/40 84/129/47
f 84/129/47 61/117/42 82/130/47
f 82/130/47 63/119/42 80/131/47
f 80/131/47 65/121/42 78/132/47
f 78/132/47 67/123/42 76/133/47
f 76/133/47 69/125/42 74/134/47
f 74/134/47 71/127/42 53/135/45
f 88/181/64 85/136/49 87/138/51
f 89/196/61 90/139/52 92/141/54
f 88/181/64 87/138/51 94/143/56
f 85/166/49 95/144/57 86/146/50
f 90/251/52 97/147/59 91/149/53
f 86/137/50 96/150/58 87/138/51
f 90/138/52 89/152/61 97/142/59
f 89/152/61 100/154/15 99/153/62
f 100/154/15 102/156/15 101/155/16
f 102/156/15 104/158/15 103/157/16
f 104/158/15 106/160/15 105/159/16
f 106/160/15 108/162/15 107/161/16
f 108/162/15 110/164/15 109/163/16
f 110/164/15 95/144/57 111/165/16
f 91/252/53 98/148/60 92/168/54
f 112/167/63 113/169/19 92/168/54
f 113/169/19 115/171/19 114/170/20
f 115/171/19 117/173/19 116/172/20
f 117/173/19 119/175/19 118/174/20
f 119/175/19 121/177/19 120/176/20
f 121/177/19 123/179/19 122/178/20
f 123/179/19 88/181/64 124/180/20
f 96/150/58 95/182/57 93/151/55
f 95/182/57 110/184/15 94/183/56
f 110/184/15 108/186/15 124/185/20
f 108/186/15 106/188/15 122/187/20
f 106/188/15 104/190/15 120/189/20
f 104/190/15 102/192/15 118/191/20
f 102/192/15 100/194/15 116/193/20
f 100/194/15 89/196/61 114/195/20
f 97/147/59 99/197/62 98/148/60
f 99/197/62 101/198/16 112/167/63
f 101/198/16 103/199/16 113/169/19
f 103/199/16 105/200/16 115/171/19
f 105/200/16 107/201/16 117/173/19
f 107/201/16 109/202/16 119/175/19
f 109/202/16 111/203/16 121/177/19
f 111/203/16 85/136/49 123/179/19
f 125/246/73 126/1/65 128/204/67
f 129/240/76 130/4/68 132/205/70
f 134/229/80 128/204/67 133/7/71
f 135/217/78 136/10/72 125/206/73
f 130/247/68 137/12/74 131/14/69
f 126/1/65 136/15/72 127/2/66
f 137/7/74 130/2/68 139/208/77
f 129/207/76 140/209/15 139/208/77
f 140/209/15 142/211/15 141/210/16
f 142/211/15 144/213/15 143/212/16
f 144/213/15 146/215/15 145/214/16
f 146/215/15 135/217/78 147/216/16
f 138/13/75 148/218/79 131/220/69
f 148/218/79 149/221/19 132/219/70
f 149/221/19 151/223/19 150/222/20
f 151/223/19 153/225/19 152/224/20
f 153/225/19 155/227/19 154/226/20
f 155/227/19 128/204/67 156/228/20
f 136/15/72 135/230/78 133/16/71
f 135/230/78 146/232/15 134/231/80
f 146/232/15 144/234/15 156/233/20
f 144/234/15 142/236/15 154/235/20
f 142/236/15 140/238/15 152/237/20
f 140/238/15 129/240/76 150/239/20
f 137/12/74 139/241/77 138/13/75
f 139/241/77 141/242/16 148/218/79
f 141/242/16 143/243/16 149/221/19
f 143/243/16 145/244/16 151/223/19
f 145/244/16 147/245/16 153/225/19
f 147/245/16 125/246/73 155/227/19
