# Blender v2.78 (sub 0) OBJ File: ''
# www.blender.org
o Head
v 0.282710 1.933656 0.000000
v 0.282710 1.905218 -0.081393
v 0.282710 1.928489 -0.088236
v 0.086799 2.048968 -0.278120
v 0.263726 1.881477 -0.278209
v 0.075196 1.831684 -0.297146
v -0.086799 2.076530 0.000000
v -0.086799 2.048968 -0.278120
v -0.300909 1.821585 0.000000
v -0.260396 2.009836 -0.260396
v -0.278811 1.807805 -0.278209
v 0.283073 1.908271 0.000000
v 0.260396 1.724254 -0.263415
v 0.255600 2.009495 -0.256777
v 0.276043 1.972834 0.000000
v -0.104530 1.817845 -0.297146
v -0.066836 1.615604 -0.302513
v -0.106921 1.581049 -0.266958
v -0.260396 1.587358 -0.258166
v -0.282494 1.587358 0.000000
v 0.106921 1.620073 -0.276456
v 0.086799 2.076530 0.000000
v 0.308471 1.736399 0.000000
v 0.283626 1.908830 -0.082729
v 0.283626 1.912027 0.000000
v 0.328943 1.701573 -0.048471
v 0.371173 1.634125 -0.062427
v 0.328943 1.636404 -0.091765
v 0.290811 1.721264 -0.044095
v 0.328943 1.717854 0.000000
v 0.355381 1.515669 -0.040225
v 0.328943 1.498547 0.000000
v 0.328943 1.507948 -0.066788
v 0.378135 1.681857 -0.043000
v 0.371173 1.634125 0.000000
v 0.363277 1.566109 0.000000
v 0.355114 1.500585 0.000000
v 0.363277 1.566109 -0.062427
v 0.328943 1.563851 -0.091765
v 0.292625 1.584710 -0.264356
v 0.236477 1.543022 -0.194354
v 0.231759 1.598741 -0.212033
v 0.297344 1.528991 -0.246677
v 0.262122 1.507676 -0.155208
v 0.359763 1.492172 -0.161871
v 0.298896 1.506202 -0.109547
v 0.393621 1.525135 -0.127137
v 0.332754 1.539166 -0.074813
v 0.411630 1.579943 -0.116596
v 0.350763 1.593974 -0.064272
v 0.406911 1.635662 -0.134275
v 0.346045 1.649693 -0.081951
v 0.381267 1.671009 -0.173421
v 0.320400 1.685040 -0.121097
v 0.283626 1.686512 -0.166758
v 0.344492 1.672482 -0.219081
v 0.322988 1.493645 -0.207531
v 0.249768 1.653549 -0.201492
v 0.310634 1.639519 -0.253815
v 0.286421 1.701668 -0.123855
v 0.254426 1.496700 -0.252336
v 0.264601 1.731263 -0.260499
v 0.270759 1.494165 -0.123855
v 0.105530 1.479538 0.000000
v 0.079593 1.488152 -0.123855
v 0.079593 1.493924 -0.255938
v 0.282213 1.488788 0.000000
v 0.300164 1.732824 0.000000
v 0.290811 1.638387 -0.106261
v 0.290811 1.561868 -0.106261
v 0.290811 1.501076 -0.076658
v 0.290811 1.487675 0.000000
v 0.379069 1.695665 0.000000
v 0.305625 1.709536 -0.060616
v 0.277993 1.894443 -0.168950
v 0.294425 1.693381 -0.135647
v 0.266159 1.860196 -0.262465
v -0.073566 1.792964 -0.316544
v 0.066836 1.639997 -0.302513
v 0.049564 1.802086 -0.316544
v -0.254464 1.731263 -0.260953
v -0.252215 1.496589 -0.256392
v -0.254464 1.731263 0.000000
v -0.252215 1.496589 0.000000
v 0.275435 1.888229 -0.171293
v 0.272319 1.909377 -0.178136
v 0.266360 1.850066 -0.252249
v 0.264165 1.869893 -0.277198
v 0.261853 1.764421 -0.269412
v 0.131644 1.649148 -0.270736
v 0.282710 1.905218 0.081393
v 0.282710 1.908167 0.000000
v 0.263726 1.881477 0.278209
v 0.086799 2.048968 0.278120
v 0.075196 1.831684 0.297146
v -0.086799 2.048968 0.278120
v -0.260396 2.009836 0.260396
v -0.282494 2.037397 0.000000
v 0.255600 2.009495 0.256777
v 0.261241 2.015018 0.000000
v -0.104530 1.817845 0.297146
v -0.278811 1.807805 0.278209
v -0.066836 1.615604 0.302513
v -0.106921 1.581049 0.266958
v -0.260396 1.587358 0.258166
v 0.260396 1.724254 0.263415
v 0.106921 1.620073 0.276456
v 0.283626 1.908830 0.082729
v 0.371173 1.634125 0.062427
v 0.328943 1.701573 0.048471
v 0.328943 1.636404 0.091765
v 0.290811 1.721264 0.044095
v 0.355381 1.515669 0.040225
v 0.328943 1.507948 0.066788
v 0.378135 1.681857 0.043000
v 0.363277 1.566109 0.062427
v 0.328943 1.563851 0.091765
v 0.236477 1.543022 0.194354
v 0.292625 1.584710 0.264356
v 0.231759 1.598741 0.212033
v 0.262122 1.507676 0.155208
v 0.297344 1.528991 0.246677
v 0.359763 1.492172 0.161871
v 0.322988 1.493645 0.207531
v 0.298896 1.506202 0.109547
v 0.393621 1.525135 0.127137
v 0.332754 1.539166 0.074813
v 0.411630 1.579943 0.116596
v 0.350763 1.593974 0.064272
v 0.406911 1.635662 0.134275
v 0.346045 1.649693 0.081951
v 0.381267 1.671009 0.173421
v 0.283626 1.686512 0.166758
v 0.320400 1.685040 0.121097
v 0.344492 1.672482 0.219081
v 0.249768 1.653549 0.201492
v 0.310634 1.639519 0.253815
v 0.286421 1.701668 0.123855
v 0.254426 1.496700 0.252336
v 0.270759 1.494165 0.123855
v 0.079593 1.488152 0.123855
v 0.290811 1.638387 0.106261
v 0.290811 1.561868 0.106261
v 0.290811 1.501076 0.076658
v 0.277993 1.894443 0.168950
v 0.305625 1.709536 0.060616
v 0.266159 1.860196 0.262465
v 0.294425 1.693381 0.135647
v 0.066836 1.639997 0.302513
v -0.073566 1.792964 0.316544
v 0.049564 1.802086 0.316544
v 0.264601 1.731263 0.260499
v 0.079593 1.493924 0.255938
v -0.254464 1.731263 0.260953
v -0.252215 1.496589 0.256392
v 0.282710 1.928489 0.088236
v 0.275435 1.888229 0.171293
v 0.272319 1.909377 0.178136
v 0.266360 1.850066 0.252249
v 0.261853 1.764421 0.269412
v 0.264165 1.869893 0.277198
v 0.131644 1.649148 0.270736
v 0.128025 1.552327 0.260379
v 0.290811 1.744392 0.000000
v 0.264020 1.717433 -0.269125
v 0.261853 1.744593 -0.244463
v 0.128025 1.552327 -0.260379
v 0.264020 1.717433 0.269125
v 0.261853 1.744593 0.244463
v 0.023756 1.587358 0.000000
vt 0.5443 0.8328
vt 0.5685 0.8413
vt 0.5706 0.8343
vt 0.6240 0.8817
vt 0.6553 0.8612
vt 0.6584 0.8843
vt 0.5485 0.8923
vt 0.6012 0.8805
vt 0.5990 0.8961
vt 0.6124 0.9694
vt 0.5972 0.9395
vt 0.6423 0.9372
vt 0.6090 0.8836
vt 0.5713 0.8509
vt 0.6083 0.8638
vt 0.6092 0.8631
vt 0.5639 0.8746
vt 0.6201 0.9399
vt 0.6550 0.9056
vt 0.6218 0.8972
vt 0.6855 0.9123
vt 0.6898 0.9202
vt 0.6753 0.9497
vt 0.5973 0.9392
vt 0.6506 0.9822
vt 0.6800 0.8685
vt 0.6913 0.8915
vt 0.5563 0.8710
vt 0.6090 0.8629
vt 0.5156 0.1184
vt 0.5358 0.1489
vt 0.5156 0.1497
vt 0.4527 0.2727
vt 0.4807 0.2718
vt 0.4798 0.2635
vt 0.4422 0.2734
vt 0.4501 0.2892
vt 0.5189 0.2780
vt 0.5251 0.2892
vt 0.5217 0.2705
vt 0.4632 0.2772
vt 0.4807 0.2892
vt 0.5004 0.2892
vt 0.5244 0.2892
vt 0.5004 0.2718
vt 0.5013 0.2635
vt 0.4021 0.7720
vt 0.3783 0.7917
vt 0.3783 0.7720
vt 0.4021 0.7917
vt 0.3783 0.8115
vt 0.4021 0.8313
vt 0.3783 0.8313
vt 0.3783 0.6336
vt 0.4021 0.6534
vt 0.3783 0.6534
vt 0.4021 0.6731
vt 0.3783 0.6731
vt 0.4021 0.6929
vt 0.3783 0.6929
vt 0.4021 0.7127
vt 0.3783 0.7127
vt 0.3783 0.7324
vt 0.7346 0.7623
vt 0.7146 0.7007
vt 0.7346 0.7007
vt 0.4021 0.7324
vt 0.3783 0.7522
vt 0.4021 0.7522
vt 0.4581 0.2546
vt 0.5211 0.2187
vt 0.4604 0.2164
vt 0.8600 0.1443
vt 0.8891 0.1815
vt 0.8608 0.1876
vt 0.8311 0.1483
vt 0.8308 0.1878
vt 0.5371 0.2892
vt 0.4527 0.2892
vt 0.4721 0.2550
vt 0.5020 0.2595
vt 0.5242 0.2678
vt 0.5255 0.2892
vt 0.4582 0.2892
vt 0.5304 0.1105
vt 0.5570 0.1477
vt 0.5528 0.1063
vt 0.5844 0.1368
vt 0.6599 0.9029
vt 0.6860 0.8963
vt 0.6620 0.8895
vt 0.8926 0.2537
vt 0.8786 0.2542
vt 0.8934 0.2078
vt 0.8518 0.2078
vt 0.8520 0.2537
vt 0.8309 0.2080
vt 0.8308 0.2626
vt 0.8885 0.2627
vt 0.5945 0.8504
vt 0.5966 0.8441
vt 0.6165 0.8627
vt 0.6229 0.8553
vt 0.6278 0.8628
vt 0.5209 0.2185
vt 0.5010 0.1918
vt 0.4603 0.2167
vt 0.5685 0.8413
vt 0.5443 0.8387
vt 0.6553 0.8612
vt 0.6240 0.8817
vt 0.6584 0.8843
vt 0.6012 0.8805
vt 0.5990 0.8961
vt 0.5972 0.9395
vt 0.5855 0.9503
vt 0.6090 0.8836
vt 0.6092 0.8631
vt 0.5703 0.8526
vt 0.6550 0.9056
vt 0.6201 0.9399
vt 0.6423 0.9372
vt 0.6218 0.8972
vt 0.6855 0.9123
vt 0.6898 0.9202
vt 0.6753 0.9497
vt 0.5973 0.9392
vt 0.5443 0.9254
vt 0.6800 0.8685
vt 0.6913 0.8915
vt 0.6090 0.8629
vt 0.5358 0.1489
vt 0.4807 0.2718
vt 0.4527 0.2727
vt 0.4798 0.2635
vt 0.4422 0.2734
vt 0.5189 0.2780
vt 0.5217 0.2705
vt 0.4632 0.2772
vt 0.5004 0.2718
vt 0.5013 0.2635
vt 0.3783 0.7917
vt 0.4021 0.7720
vt 0.3783 0.7720
vt 0.3783 0.8115
vt 0.4021 0.7917
vt 0.4021 0.8313
vt 0.4021 0.8115
vt 0.3783 0.6336
vt 0.4021 0.6534
vt 0.4021 0.6336
vt 0.3783 0.6534
vt 0.4021 0.6731
vt 0.3783 0.6731
vt 0.4021 0.6929
vt 0.3783 0.6929
vt 0.4021 0.7127
vt 0.3783 0.7324
vt 0.3783 0.7127
vt 0.6984 0.7125
vt 0.7346 0.7623
vt 0.7570 0.7315
vt 0.3783 0.7522
vt 0.4021 0.7324
vt 0.4021 0.7522
vt 0.4581 0.2546
vt 0.5211 0.2187
vt 0.5253 0.2546
vt 0.8600 0.1443
vt 0.8881 0.1413
vt 0.8311 0.1483
vt 0.8608 0.1876
vt 0.4721 0.2550
vt 0.5020 0.2595
vt 0.5242 0.2678
vt 0.5570 0.1477
vt 0.5304 0.1105
vt 0.5844 0.1368
vt 0.5528 0.1063
vt 0.6860 0.8963
vt 0.6599 0.9029
vt 0.6620 0.8895
vt 0.8926 0.2537
vt 0.8934 0.2078
vt 0.8786 0.2542
vt 0.8518 0.2078
vt 0.8520 0.2537
vt 0.8308 0.2626
vt 0.5706 0.8343
vt 0.5945 0.8504
vt 0.5966 0.8441
vt 0.6165 0.8627
vt 0.6278 0.8628
vt 0.6229 0.8553
vt 0.5209 0.2185
vt 0.5010 0.1918
vt 0.5197 0.2012
vt 0.6318 0.8640
vt 0.5701 0.8528
vt 0.4386 0.2889
vt 0.4021 0.8115
vt 0.4021 0.6336
vt 0.7508 0.7125
vt 0.7570 0.7315
vt 0.7508 0.7506
vt 0.7146 0.7623
vt 0.6984 0.7506
vt 0.6922 0.7315
vt 0.6984 0.7125
vt 0.5253 0.2546
vt 0.5828 0.1118
vt 0.8315 0.2539
vt 0.6204 0.8687
vt 0.5197 0.2012
vt 0.6318 0.8640
vt 0.6083 0.8638
vt 0.3783 0.8313
vt 0.7508 0.7125
vt 0.7346 0.7007
vt 0.7146 0.7007
vt 0.6922 0.7315
vt 0.6984 0.7506
vt 0.7146 0.7623
vt 0.7508 0.7506
vt 0.4604 0.2164
vt 0.8308 0.1878
vt 0.5828 0.1118
vt 0.6204 0.8687
vt 0.4603 0.2167
vn 1.0000 0.0000 0.0000
vn 0.9994 -0.0101 -0.0342
vn 0.9989 -0.0023 -0.0470
vn 0.1098 0.7121 -0.6934
vn 0.7072 0.0337 -0.7062
vn 0.1400 0.1002 -0.9851
vn -0.1043 0.9946 0.0000
vn -0.1088 0.7093 -0.6965
vn -1.0000 0.0061 -0.0000
vn -0.6174 0.5332 -0.5783
vn -0.7163 -0.0023 -0.6978
vn 0.9971 0.0763 -0.0000
vn 0.5138 -0.0828 -0.8539
vn 0.6498 0.5522 -0.5223
vn 0.9787 0.2054 0.0000
vn -0.1595 0.0834 -0.9837
vn -0.1986 -0.4097 -0.8903
vn -0.1972 -0.2941 -0.9352
vn -0.6952 -0.1308 -0.7068
vn -0.9969 -0.0784 -0.0000
vn 0.2934 -0.2525 -0.9220
vn 0.1492 0.9888 -0.0000
vn 0.9941 0.1088 -0.0000
vn 0.9919 0.1157 -0.0532
vn 0.9901 0.1401 0.0000
vn 0.3627 0.7163 -0.5962
vn 0.8460 0.0675 -0.5289
vn 0.4628 0.2463 -0.8516
vn 0.3857 0.7583 -0.5256
vn 0.4617 0.8870 0.0000
vn 0.7847 -0.5604 -0.2648
vn 0.2405 -0.9707 -0.0000
vn 0.4489 -0.7050 -0.5490
vn 0.7792 0.3972 -0.4849
vn 0.9920 -0.1259 -0.0000
vn 0.9917 -0.1284 0.0000
vn 0.6252 -0.7804 -0.0000
vn 0.8781 -0.1753 -0.4453
vn 0.4961 -0.1852 -0.8483
vn 0.0016 -0.0708 -0.9975
vn -0.6129 -0.5527 -0.5648
vn -0.6466 0.0367 -0.7620
vn 0.0329 -0.5234 -0.8514
vn -0.3414 -0.9282 -0.1482
vn 0.5454 -0.8217 -0.1654
vn 0.0623 -0.9435 0.3254
vn 0.8264 -0.5528 0.1069
vn 0.4407 -0.5949 0.6722
vn 0.9770 -0.1119 0.1814
vn 0.6490 -0.0209 0.7605
vn 0.9427 0.3320 0.0333
vn 0.6112 0.5580 0.5613
vn 0.7382 0.6139 -0.2794
vn 0.3444 0.9264 0.1522
vn -0.0523 0.9477 -0.3149
vn 0.4396 0.6294 -0.6408
vn 0.2413 -0.8113 -0.5325
vn -0.4310 0.6099 -0.6650
vn 0.1581 0.3696 -0.9157
vn 0.9902 -0.0654 -0.1235
vn 0.4320 -0.4812 -0.7627
vn 0.4630 -0.0464 -0.8851
vn 0.6947 -0.7119 -0.1031
vn 0.0014 -1.0000 0.0000
vn -0.0028 -0.9989 -0.0471
vn 0.0076 -0.7008 -0.7133
vn 0.7092 -0.7050 -0.0000
vn 0.9973 -0.0734 -0.0000
vn 0.3390 0.2711 -0.9009
vn 0.3571 -0.2059 -0.9111
vn 0.2999 -0.7422 -0.5993
vn 0.2561 -0.9667 -0.0000
vn 0.8232 0.5677 0.0000
vn 0.9897 0.0805 -0.1183
vn 0.9898 0.0741 -0.1214
vn 0.9840 0.0391 -0.1737
vn 0.9842 0.0347 -0.1737
vn -0.2432 0.1836 -0.9524
vn 0.2593 -0.3172 -0.9122
vn 0.2193 0.2148 -0.9517
vn -0.7044 -0.0207 -0.7095
vn -0.5801 -0.5778 -0.5741
vn -1.0000 -0.0096 0.0000
vn -0.7145 -0.6997 0.0000
vn 0.9861 0.0885 -0.1406
vn 0.9864 0.0891 -0.1384
vn 0.9952 -0.0098 -0.0977
vn 0.9953 -0.0106 -0.0960
vn 0.9980 -0.0435 -0.0449
vn 0.0728 -0.0615 -0.9954
vn 0.9994 -0.0101 0.0342
vn 0.7072 0.0337 0.7062
vn 0.1098 0.7121 0.6934
vn 0.1400 0.1002 0.9851
vn -0.1088 0.7093 0.6965
vn -0.6174 0.5332 0.5783
vn -0.7404 0.6722 0.0000
vn 0.6498 0.5522 0.5223
vn 0.7077 0.7065 -0.0000
vn -0.1595 0.0834 0.9837
vn -0.7163 -0.0023 0.6978
vn -0.1986 -0.4097 0.8903
vn -0.1972 -0.2941 0.9352
vn -0.6952 -0.1308 0.7068
vn 0.5138 -0.0828 0.8539
vn 0.2934 -0.2525 0.9220
vn 0.9919 0.1157 0.0532
vn 0.8460 0.0675 0.5289
vn 0.3627 0.7163 0.5962
vn 0.4628 0.2463 0.8516
vn 0.3857 0.7583 0.5256
vn 0.7847 -0.5604 0.2648
vn 0.4489 -0.7050 0.5490
vn 0.7792 0.3972 0.4849
vn 0.8781 -0.1753 0.4453
vn 0.4961 -0.1852 0.8483
vn -0.6129 -0.5527 0.5648
vn 0.0016 -0.0708 0.9975
vn -0.6466 0.0367 0.7620
vn -0.3414 -0.9282 0.1482
vn 0.0329 -0.5234 0.8514
vn 0.5454 -0.8217 0.1654
vn 0.2413 -0.8113 0.5325
vn 0.0623 -0.9435 -0.3254
vn 0.8264 -0.5528 -0.1069
vn 0.4407 -0.5949 -0.6722
vn 0.9770 -0.1119 -0.1814
vn 0.6490 -0.0209 -0.7605
vn 0.9427 0.3320 -0.0333
vn 0.6112 0.5580 -0.5613
vn 0.7382 0.6139 0.2794
vn -0.0523 0.9477 0.3149
vn 0.3444 0.9264 -0.1522
vn 0.4396 0.6294 0.6408
vn -0.4310 0.6099 0.6650
vn 0.1581 0.3696 0.9157
vn 0.9902 -0.0654 0.1235
vn 0.4320 -0.4812 0.7627
vn 0.6947 -0.7119 0.1031
vn -0.0028 -0.9989 0.0471
vn 0.3390 0.2711 0.9009
vn 0.3571 -0.2059 0.9111
vn 0.2999 -0.7422 0.5993
vn 0.9898 0.0741 0.1214
vn 0.9897 0.0805 0.1183
vn 0.9842 0.0347 0.1737
vn 0.9840 0.0391 0.1737
vn 0.2593 -0.3172 0.9122
vn -0.2432 0.1836 0.9524
vn 0.2193 0.2148 0.9517
vn 0.4630 -0.0464 0.8851
vn 0.0076 -0.7008 0.7133
vn -0.7044 -0.0207 0.7095
vn -0.5801 -0.5778 0.5741
vn 0.9989 -0.0023 0.0470
vn 0.9861 0.0885 0.1406
vn 0.9864 0.0891 0.1384
vn 0.9952 -0.0098 0.0977
vn 0.9980 -0.0435 0.0449
vn 0.9953 -0.0106 0.0960
vn 0.0728 -0.0615 0.9954
vn 0.0162 -0.1069 0.9941
vn 0.5712 0.8208 0.0000
vn 0.9749 -0.0042 -0.2228
vn 0.9983 -0.0453 -0.0360
vn 0.0162 -0.1069 -0.9941
vn 0.9749 -0.0042 0.2228
vn 0.9983 -0.0453 0.0360
s 1
f 1/1/1 2/2/2 3/3/3
f 4/4/4 5/5/5 6/6/6
f 7/7/7 4/8/4 8/9/8
f 9/10/9 10/11/10 11/12/11
f 5/13/5 12/14/12 13/15/13
f 14/16/14 15/17/15 5/13/5
f 10/18/10 16/19/16 11/12/11
f 8/20/8 6/6/6 16/19/16
f 16/19/16 17/21/17 18/22/18
f 19/23/19 16/19/16 18/22/18
f 10/24/10 7/7/7 8/9/8
f 9/10/9 19/23/19 20/25/20
f 6/6/6 13/26/13 21/27/21
f 22/28/22 14/29/14 4/8/4
f 23/30/23 24/31/24 25/32/25
f 26/33/26 27/34/27 28/35/28
f 29/36/29 30/37/30 26/33/26
f 31/38/31 32/39/32 33/40/33
f 34/41/34 35/42/35 27/34/27
f 31/38/31 36/43/36 37/44/37
f 27/34/27 36/43/36 38/45/38
f 33/40/33 38/45/38 31/38/31
f 28/35/28 38/45/38 39/46/39
f 40/47/40 41/48/41 42/49/42
f 43/50/43 44/51/44 41/48/41
f 44/51/44 45/52/45 46/53/46
f 46/54/46 47/55/47 48/56/48
f 48/56/48 49/57/49 50/58/50
f 50/58/50 51/59/51 52/60/52
f 52/60/52 53/61/53 54/62/54
f 53/61/53 55/63/55 54/62/54
f 56/64/56 45/65/45 57/66/57
f 56/67/56 58/68/58 55/63/55
f 59/69/59 42/49/42 58/68/58
f 60/70/60 61/71/61 62/72/62
f 63/73/63 64/74/64 65/75/65
f 61/76/61 65/75/65 66/77/66
f 67/78/67 60/70/60 68/79/68
f 69/80/69 39/46/39 70/81/70
f 71/82/71 39/46/39 33/40/33
f 33/40/33 72/83/72 71/82/71
f 26/33/26 73/84/73 34/41/34
f 69/80/69 26/33/26 28/35/28
f 74/85/74 75/86/75 24/31/24
f 76/87/76 77/88/77 75/86/75
f 78/89/78 79/90/79 17/21/17
f 21/27/21 80/91/80 6/6/6
f 21/27/21 17/21/17 79/90/79
f 6/6/6 78/89/78 16/19/16
f 61/92/61 66/93/66 62/94/62
f 66/93/66 81/95/81 62/94/62
f 82/96/82 83/97/83 81/95/81
f 82/98/82 65/75/65 84/99/84
f 65/75/65 64/74/64 84/99/84
f 3/3/3 85/100/85 86/101/86
f 86/101/86 87/102/87 88/103/88
f 87/102/87 89/104/89 88/103/88
f 61/105/61 90/106/90 62/107/62
f 1/1/1 91/108/91 92/109/1
f 93/110/92 94/111/93 95/112/94
f 94/113/93 7/7/7 96/114/95
f 9/10/9 97/115/96 98/116/97
f 93/117/92 12/14/12 15/17/15
f 99/118/98 15/17/15 100/119/99
f 101/120/100 97/121/96 102/122/101
f 95/112/94 96/123/95 101/120/100
f 103/124/102 101/120/100 104/125/103
f 105/126/104 101/120/100 102/122/101
f 97/127/96 7/7/7 98/128/97
f 9/10/9 105/126/104 102/122/101
f 106/129/105 95/112/94 107/130/106
f 99/131/98 22/28/22 94/113/93
f 108/132/107 23/30/23 25/32/25
f 109/133/108 110/134/109 111/135/110
f 30/37/30 112/136/111 110/134/109
f 32/39/32 113/137/112 114/138/113
f 35/42/35 115/139/114 109/133/108
f 113/137/112 36/43/36 116/140/115
f 36/43/36 109/133/108 116/140/115
f 114/138/113 116/140/115 117/141/116
f 116/140/115 111/135/110 117/141/116
f 118/142/117 119/143/118 120/144/119
f 121/145/120 122/146/121 118/142/117
f 121/145/120 123/147/122 124/148/123
f 125/149/124 126/150/125 123/151/122
f 127/152/126 128/153/127 126/150/125
f 129/154/128 130/155/129 128/153/127
f 131/156/130 132/157/131 130/155/129
f 133/158/132 132/157/131 134/159/133
f 126/160/125 135/161/134 119/162/118
f 136/163/135 135/164/134 133/158/132
f 120/144/119 137/165/136 136/163/135
f 138/166/137 139/167/138 140/168/139
f 140/169/139 64/74/64 67/170/67
f 139/171/138 141/172/140 140/169/139
f 138/166/137 67/78/67 68/79/68
f 117/141/116 142/173/141 143/174/142
f 144/175/143 117/141/116 143/174/142
f 72/83/72 114/138/113 144/175/143
f 73/84/73 110/134/109 115/139/114
f 142/173/141 110/134/109 112/136/111
f 145/176/144 146/177/145 108/132/107
f 147/178/146 148/179/147 145/176/144
f 149/180/148 150/181/149 103/124/102
f 151/182/150 107/130/106 95/112/94
f 107/130/106 103/124/102 104/125/103
f 150/181/149 95/112/94 101/120/100
f 139/183/138 152/184/151 153/185/152
f 154/186/153 153/185/152 152/184/151
f 83/97/83 155/187/154 154/186/153
f 141/172/140 155/188/154 84/99/84
f 141/172/140 84/99/84 64/74/64
f 156/189/155 157/190/156 91/108/91
f 158/191/157 159/192/158 157/190/156
f 160/193/159 159/192/158 161/194/160
f 139/195/138 162/196/161 163/197/162
f 1/1/1 92/109/1 2/2/2
f 4/4/4 14/198/14 5/5/5
f 7/7/7 22/28/22 4/8/4
f 9/10/9 98/116/97 10/11/10
f 5/13/5 15/17/15 12/14/12
f 14/16/14 100/119/99 15/17/15
f 10/18/10 8/20/8 16/19/16
f 8/20/8 4/4/4 6/6/6
f 16/19/16 78/89/78 17/21/17
f 19/23/19 11/12/11 16/19/16
f 10/24/10 98/128/97 7/7/7
f 9/10/9 11/12/11 19/23/19
f 6/6/6 5/5/5 13/26/13
f 22/28/22 100/199/99 14/29/14
f 23/30/23 74/85/74 24/31/24
f 26/33/26 34/41/34 27/34/27
f 29/36/29 164/200/163 30/37/30
f 31/38/31 37/44/37 32/39/32
f 34/41/34 73/84/73 35/42/35
f 31/38/31 38/45/38 36/43/36
f 27/34/27 35/42/35 36/43/36
f 33/40/33 39/46/39 38/45/38
f 28/35/28 27/34/27 38/45/38
f 40/47/40 43/50/43 41/48/41
f 43/50/43 57/201/57 44/51/44
f 44/51/44 57/201/57 45/52/45
f 46/54/46 45/202/45 47/55/47
f 48/56/48 47/55/47 49/57/49
f 50/58/50 49/57/49 51/59/51
f 52/60/52 51/59/51 53/61/53
f 53/61/53 56/67/56 55/63/55
f 57/66/57 43/203/43 40/204/40
f 40/204/40 59/205/59 56/64/56
f 56/64/56 53/206/53 51/207/51
f 51/207/51 49/208/49 56/64/56
f 47/209/47 45/65/45 56/64/56
f 57/66/57 40/204/40 56/64/56
f 56/64/56 49/208/49 47/209/47
f 56/67/56 59/69/59 58/68/58
f 59/69/59 40/47/40 42/49/42
f 60/70/60 63/210/63 61/71/61
f 63/73/63 67/170/67 64/74/64
f 61/76/61 63/73/63 65/75/65
f 67/78/67 63/210/63 60/70/60
f 69/80/69 28/35/28 39/46/39
f 71/82/71 70/81/70 39/46/39
f 33/40/33 32/39/32 72/83/72
f 26/33/26 30/37/30 73/84/73
f 69/80/69 29/36/29 26/33/26
f 74/85/74 76/87/76 75/86/75
f 76/87/76 165/211/164 77/88/77
f 78/89/78 80/91/80 79/90/79
f 21/27/21 79/90/79 80/91/80
f 21/27/21 18/22/18 17/21/17
f 6/6/6 80/91/80 78/89/78
f 66/93/66 82/96/82 81/95/81
f 82/96/82 84/212/84 83/97/83
f 82/98/82 66/77/66 65/75/65
f 3/3/3 2/2/2 85/100/85
f 86/101/86 85/100/85 87/102/87
f 87/102/87 166/213/165 89/104/89
f 61/105/61 167/214/166 90/106/90
f 1/1/1 156/189/155 91/108/91
f 93/110/92 99/215/98 94/111/93
f 94/113/93 22/28/22 7/7/7
f 9/10/9 102/122/101 97/115/96
f 93/117/92 106/216/105 12/14/12
f 99/118/98 93/117/92 15/17/15
f 101/120/100 96/123/95 97/121/96
f 95/112/94 94/111/93 96/123/95
f 103/124/102 150/181/149 101/120/100
f 105/126/104 104/125/103 101/120/100
f 97/127/96 96/114/95 7/7/7
f 9/10/9 20/25/20 105/126/104
f 106/129/105 93/110/92 95/112/94
f 99/131/98 100/199/99 22/28/22
f 108/132/107 146/177/145 23/30/23
f 109/133/108 115/139/114 110/134/109
f 30/37/30 164/200/163 112/136/111
f 32/39/32 37/44/37 113/137/112
f 35/42/35 73/84/73 115/139/114
f 113/137/112 37/44/37 36/43/36
f 36/43/36 35/42/35 109/133/108
f 114/138/113 113/137/112 116/140/115
f 116/140/115 109/133/108 111/135/110
f 118/142/117 122/146/121 119/143/118
f 121/145/120 124/148/123 122/146/121
f 121/145/120 125/217/124 123/147/122
f 125/149/124 127/152/126 126/150/125
f 127/152/126 129/154/128 128/153/127
f 129/154/128 131/156/130 130/155/129
f 131/156/130 134/159/133 132/157/131
f 133/158/132 135/164/134 132/157/131
f 119/162/118 122/218/121 126/160/125
f 124/219/123 123/220/122 126/160/125
f 126/160/125 128/221/127 135/161/134
f 130/222/129 132/223/131 135/161/134
f 135/161/134 137/224/136 119/162/118
f 122/218/121 124/219/123 126/160/125
f 128/221/127 130/222/129 135/161/134
f 136/163/135 137/165/136 135/164/134
f 120/144/119 119/143/118 137/165/136
f 138/166/137 152/225/151 139/167/138
f 140/169/139 141/172/140 64/74/64
f 139/171/138 153/226/152 141/172/140
f 138/166/137 140/168/139 67/78/67
f 117/141/116 111/135/110 142/173/141
f 144/175/143 114/138/113 117/141/116
f 72/83/72 32/39/32 114/138/113
f 73/84/73 30/37/30 110/134/109
f 142/173/141 111/135/110 110/134/109
f 145/176/144 148/179/147 146/177/145
f 147/178/146 168/227/167 148/179/147
f 149/180/148 151/182/150 150/181/149
f 151/182/150 149/180/148 107/130/106
f 107/130/106 149/180/148 103/124/102
f 150/181/149 151/182/150 95/112/94
f 154/186/153 155/187/154 153/185/152
f 83/97/83 84/212/84 155/187/154
f 141/172/140 153/226/152 155/188/154
f 156/189/155 158/191/157 157/190/156
f 158/191/157 161/194/160 159/192/158
f 160/193/159 169/228/168 159/192/158
f 139/195/138 152/229/151 162/196/161
l 20 170
