# Blender v2.76 (sub 0) OBJ File: ''
# www.blender.org
mtllib RightArm.mtl
o RArm011
v -0.074232 0.880983 0.533316
v -0.141436 0.880983 0.506037
v -0.141436 0.816688 0.506037
v -0.074232 0.816688 0.533316
v 0.074583 0.816688 0.533316
v 0.152124 0.881442 0.432318
v 0.141787 0.880983 0.506037
v 0.141787 0.816688 0.506037
v 0.152124 0.816229 0.432318
v 0.144203 0.838572 0.432318
v -0.151773 0.881442 0.432318
v -0.151773 0.816229 0.432318
v 0.074583 0.880983 0.533316
v -0.143852 0.859099 0.432318
v -0.143852 0.838572 0.432318
v -0.143852 0.838572 0.314835
v 0.144203 0.859099 0.432318
v 0.144203 0.859099 0.314835
v 0.144203 0.838572 0.314835
v 0.159307 0.818232 0.312479
v -0.158956 0.818232 0.312479
v -0.143852 0.859099 0.314835
v -0.158956 0.879439 0.312479
v -0.136524 0.879439 0.241958
v 0.136875 0.818232 0.241958
v 0.136875 0.879439 0.241958
v 0.159307 0.879439 0.312479
v -0.136524 0.818232 0.241958
v -0.129116 0.732001 0.504762
v 0.129467 0.732001 0.504762
v 0.129467 1.512449 0.504762
v 0.129467 0.732001 0.246181
v -0.129116 0.732001 0.246181
v -0.129116 1.512449 0.246181
v -0.129116 1.512449 0.504762
v 0.129467 1.512449 0.246181
v 0.085613 1.497705 0.333717
v 0.085613 1.493413 0.416351
v 0.125334 1.493413 0.416351
v 0.125334 1.497705 0.333717
v -0.010617 1.091987 0.532419
v -0.038500 1.071728 0.532419
v -0.045082 1.091987 0.532419
v -0.011769 1.198107 0.533957
v -0.017911 1.179203 0.533957
v -0.043930 1.198107 0.533957
v 0.041045 0.878188 0.495321
v 0.024229 0.826433 0.495321
v 0.013835 0.858419 0.495321
v 0.000175 1.488207 0.526903
v 0.012859 1.492007 0.525307
v 0.020698 1.501956 0.521132
v 0.020698 1.514253 0.515971
v 0.012859 1.524203 0.511794
v 0.000175 1.528002 0.510200
v -0.012509 1.524203 0.511794
v -0.020348 1.514253 0.515971
v -0.020348 1.501956 0.521132
v -0.012509 1.492007 0.525307
v -0.144295 1.477427 0.287946
v -0.027850 1.068269 0.532419
v -0.017200 1.071728 0.532419
v -0.010617 1.080789 0.532419
v -0.017200 1.101047 0.532419
v -0.027850 1.104507 0.532419
v -0.038500 1.101047 0.532419
v -0.045082 1.080789 0.532419
v -0.037788 1.179203 0.533957
v -0.027850 1.175974 0.533957
v -0.011769 1.187657 0.533957
v -0.027850 1.209790 0.533957
v -0.017911 1.206560 0.533957
v -0.037788 1.206560 0.533957
v -0.043930 1.187657 0.533957
v 0.068254 0.858419 0.495321
v 0.041045 0.820969 0.495321
v 0.057861 0.826433 0.495321
v 0.068254 0.840737 0.495321
v 0.057861 0.872723 0.495321
v 0.024229 0.872723 0.495321
v 0.013835 0.840737 0.495321
v -0.074232 1.107588 0.533316
v -0.141436 1.107588 0.506037
v -0.141436 1.062604 0.506037
v -0.074232 1.062604 0.533316
v 0.074583 1.062604 0.533316
v 0.152124 1.107909 0.432319
v 0.141787 1.107588 0.506037
v 0.141787 1.062604 0.506037
v 0.152124 1.062283 0.432319
v 0.144203 1.077915 0.432319
v -0.151773 1.107909 0.432319
v -0.151773 1.062283 0.432319
v 0.074583 1.107588 0.533316
v -0.143852 1.092277 0.432319
v -0.143852 1.077915 0.432319
v -0.143852 1.077916 0.314836
v 0.144203 1.092277 0.432319
v 0.144203 1.092277 0.314836
v 0.144203 1.077916 0.314836
v 0.159307 1.063685 0.312479
v -0.158956 1.063685 0.312479
v -0.143852 1.092277 0.314836
v -0.158956 1.106508 0.312479
v -0.136524 1.106508 0.241958
v 0.159307 1.106508 0.312479
v 0.136875 1.063685 0.241958
v 0.136875 1.106508 0.241958
v -0.136524 1.063685 0.241958
v -0.074232 1.215557 0.533316
v -0.141436 1.215557 0.506037
v -0.141436 1.170393 0.506037
v -0.074232 1.170393 0.533316
v 0.074583 1.170393 0.533316
v 0.152124 1.215879 0.432319
v 0.141787 1.215557 0.506037
v 0.141787 1.170393 0.506037
v 0.152124 1.170071 0.432319
v 0.144203 1.185766 0.432319
v -0.151773 1.215879 0.432319
v -0.151773 1.170071 0.432319
v 0.074583 1.215557 0.533316
v -0.143852 1.200184 0.432319
v -0.143852 1.185766 0.432319
v -0.143852 1.185766 0.314836
v 0.144203 1.200184 0.432319
v 0.144203 1.200184 0.314836
v 0.144203 1.185766 0.314836
v 0.159307 1.171478 0.312479
v -0.158956 1.171478 0.312479
v -0.143852 1.200184 0.314836
v -0.158956 1.214472 0.312479
v -0.136524 1.214472 0.241958
v 0.136875 1.171478 0.241958
v 0.136875 1.214472 0.241958
v 0.159307 1.214472 0.312479
v -0.136524 1.171478 0.241958
v -0.074232 1.538164 0.520470
v -0.141436 1.529254 0.494687
v -0.141436 1.468485 0.515689
v -0.074232 1.477396 0.541472
v 0.074583 1.477396 0.541472
v 0.152124 1.505607 0.424862
v 0.141787 1.529254 0.494687
v 0.141787 1.468485 0.515689
v 0.152124 1.443972 0.446164
v 0.144203 1.464459 0.438055
v -0.151773 1.505607 0.424862
v -0.151773 1.443972 0.446164
v 0.074583 1.538164 0.520470
v -0.143852 1.483613 0.430674
v -0.143852 1.464459 0.438055
v -0.143852 1.453544 0.314836
v 0.144203 1.483613 0.430674
v 0.144203 1.474070 0.314836
v 0.144203 1.453544 0.314836
v 0.159307 1.433204 0.312479
v -0.158956 1.433204 0.312479
v -0.143852 1.474070 0.314836
v -0.158956 1.494410 0.312479
v -0.136524 1.494410 0.241958
v 0.159307 1.494410 0.312479
v 0.136875 1.433204 0.241958
v 0.136875 1.494410 0.241958
v -0.136524 1.433204 0.241958
vt 0.703300 0.655100
vt 0.657500 0.655100
vt 0.657500 0.589100
vt 0.703300 0.589100
vt 0.533800 0.655600
vt 0.563900 0.602200
vt 0.563900 0.598700
vt 0.533800 0.588600
vt 0.689100 0.669700
vt 0.689100 0.685000
vt 0.555100 0.685000
vt 0.555100 0.669700
vt 0.691700 0.685600
vt 0.691700 0.669500
vt 0.553300 0.669500
vt 0.553300 0.685600
vt 0.666000 0.587000
vt 0.666000 0.654200
vt 0.577900 0.654200
vt 0.577900 0.587000
vt 0.620400 0.088700
vt 0.454200 0.088700
vt 0.454200 0.349800
vt 0.774200 0.088700
vt 0.709200 0.088700
vt 0.709200 0.346100
vt 0.615200 0.263700
vt 0.704400 0.263700
vt 0.704400 0.174400
vt 0.615700 0.005500
vt 0.690700 0.005500
vt 0.690700 0.080700
vt 0.460500 0.090400
vt 0.391600 0.090400
vt 0.391600 0.348800
vt 0.709500 0.088100
vt 0.611900 0.088100
vt 0.611900 0.345000
vt 0.491000 0.654200
vt 0.494000 0.596700
vt 0.422000 0.384500
vt 0.422000 0.381900
vt 0.422200 0.397800
vt 0.422200 0.395400
vt 0.421000 0.415600
vt 0.421000 0.409100
vt 0.421000 0.413100
vt 0.419900 0.437300
vt 0.421100 0.434500
vt 0.420600 0.435800
vt 0.620400 0.349800
vt 0.774200 0.346100
vt 0.615200 0.174400
vt 0.615700 0.080700
vt 0.460500 0.348800
vt 0.709500 0.345000
vt 0.422000 0.381500
vt 0.422000 0.383100
vt 0.422000 0.385600
vt 0.422000 0.386000
vt 0.422200 0.395000
vt 0.422200 0.396400
vt 0.422200 0.399200
vt 0.422200 0.398800
vt 0.421000 0.408400
vt 0.421000 0.410900
vt 0.421000 0.414900
vt 0.421300 0.434100
vt 0.419200 0.439000
vt 0.419400 0.438600
vn -0.142900 0.666400 0.731800
vn -0.624900 0.608400 0.489200
vn -0.624900 -0.608400 0.489200
vn -0.142900 -0.666400 0.731800
vn 0.142900 -0.666400 0.731800
vn 0.619400 0.572200 -0.537500
vn 0.624900 0.608400 0.489200
vn 0.624900 -0.608400 0.489200
vn 0.619400 -0.572200 -0.537500
vn 0.301500 -0.301500 -0.904500
vn -0.619400 0.572200 -0.537500
vn -0.619400 -0.572200 -0.537500
vn 0.142900 0.666400 0.731800
vn -0.301500 0.301500 -0.904500
vn -0.301500 -0.301500 -0.904500
vn -0.364000 -0.339700 0.867200
vn 0.301500 0.301500 -0.904500
vn 0.364000 0.339700 0.867200
vn 0.364000 -0.339700 0.867200
vn 0.673700 -0.578400 0.459900
vn -0.673700 -0.578400 0.459900
vn -0.364000 0.339700 0.867200
vn -0.673700 0.578400 0.459900
vn -0.474300 0.595300 -0.648600
vn 0.474300 -0.595300 -0.648600
vn 0.474300 0.595300 -0.648600
vn 0.673700 0.578400 0.459900
vn -0.474300 -0.595300 -0.648600
vn -0.577400 -0.577400 0.577400
vn 0.577400 -0.577400 0.577400
vn 0.577400 0.577400 0.577400
vn 0.577400 -0.577400 -0.577400
vn -0.577400 -0.577400 -0.577400
vn -0.577400 0.577400 -0.577400
vn -0.577400 0.577400 0.577400
vn 0.577400 0.577400 -0.577400
vn 0.000000 -0.998700 -0.051900
vn 0.000000 0.000000 -1.000000
vn -0.000000 -0.387000 -0.922100
vn 0.000000 -0.387200 -0.922000
vn 0.000000 -0.387100 -0.922100
vn -0.000100 -0.387200 -0.922000
vn 0.000100 -0.387100 -0.922000
vn -0.624900 0.608900 0.488600
vn -0.624900 -0.608900 0.488600
vn 0.619500 0.571700 -0.537900
vn 0.624900 0.608900 0.488600
vn 0.624900 -0.608900 0.488600
vn 0.619500 -0.571700 -0.537900
vn -0.619500 0.571700 -0.537900
vn -0.619500 -0.571700 -0.537900
vn -0.357600 -0.363300 0.860300
vn 0.357600 0.363300 0.860300
vn 0.357600 -0.363300 0.860300
vn 0.677500 -0.578900 0.453700
vn -0.677500 -0.578900 0.453700
vn -0.357600 0.363300 0.860300
vn -0.677500 0.578900 0.453700
vn 0.677500 0.578900 0.453700
vn -0.357700 -0.363000 0.860400
vn 0.357700 0.363000 0.860400
vn 0.357700 -0.363000 0.860400
vn 0.677400 -0.578900 0.453800
vn -0.677400 -0.578900 0.453800
vn -0.357700 0.363000 0.860400
vn -0.677400 0.578900 0.453800
vn 0.677400 0.578900 0.453800
vn -0.142900 0.868900 0.474000
vn -0.624900 0.734800 0.263600
vn -0.624900 -0.415200 0.661100
vn -0.142900 -0.390800 0.909300
vn 0.142900 -0.390800 0.909300
vn 0.624600 0.384100 -0.680000
vn 0.624900 0.734800 0.263600
vn 0.624900 -0.415200 0.661100
vn 0.622200 -0.720300 -0.306700
vn 0.299000 -0.570900 -0.764700
vn -0.624600 0.384100 -0.680000
vn -0.622200 -0.720300 -0.306700
vn 0.142900 0.868900 0.474000
vn -0.516900 0.023300 -0.855700
vn -0.299000 -0.570900 -0.764700
vn -0.342000 -0.333100 0.878700
vn 0.516900 0.023300 -0.855700
vn 0.385300 0.343900 0.856300
vn 0.342000 -0.333100 0.878700
vn -0.385300 0.343900 0.856300
usemtl None.004
s 1
f 1/1/1 2/2/2 3/3/3
f 1/1/1 4/4/4 5/4/5
f 6/5/6 7/2/7 8/3/8
f 6/6/6 9/7/9 10/7/10
f 4/4/4 3/3/3 8/3/8
f 7/2/7 2/2/2 1/1/1
f 7/2/7 6/5/6 11/5/11
f 3/3/3 12/8/12 9/8/9
f 7/2/7 13/1/13 5/4/5
f 11/5/11 12/8/12 3/3/3
f 1/1/1 3/3/3 4/4/4
f 1/1/1 5/4/5 13/1/13
f 6/5/6 8/3/8 9/8/9
f 12/7/12 11/6/11 14/6/14
f 4/4/4 8/3/8 5/4/5
f 7/2/7 1/1/1 13/1/13
f 7/2/7 11/5/11 2/2/2
f 3/3/3 9/8/9 8/3/8
f 7/2/7 5/4/5 8/3/8
f 11/5/11 3/3/3 2/2/2
f 10/9/10 15/10/15 16/11/16
f 14/10/14 17/9/17 18/12/18
f 9/7/9 12/7/12 15/7/15
f 11/6/11 6/6/6 17/6/17
f 18/6/18 19/7/19 20/7/20
f 16/7/16 21/7/21 20/7/20
f 17/13/17 10/14/10 19/15/19
f 15/14/15 14/13/14 22/16/22
f 21/17/21 23/18/23 24/19/24
f 20/17/20 25/20/25 26/19/26
f 22/6/22 23/6/23 21/7/21
f 22/6/22 18/6/18 27/6/27
f 26/19/26 25/20/25 28/20/28
f 26/19/26 28/20/28 24/19/24
f 23/18/23 27/18/27 26/19/26
f 20/17/20 21/17/21 28/20/28
f 29/21/29 30/22/30 31/23/31
f 32/24/32 33/25/33 34/26/34
f 35/27/35 31/28/31 36/29/36
f 33/30/33 32/31/32 30/32/30
f 30/33/30 32/34/32 36/35/36
f 33/36/33 29/37/29 35/38/35
f 37/39/37 40/39/37 39/40/37
f 41/41/38 42/42/38 43/41/38
f 44/43/38 45/44/38 46/43/38
f 47/45/38 48/46/38 49/47/38
f 53/48/39 59/49/39 58/50/39
f 29/21/29 31/23/31 35/51/35
f 32/24/32 34/26/34 36/52/36
f 35/27/35 36/29/36 34/53/34
f 33/30/33 30/32/30 29/54/29
f 30/33/30 36/35/36 31/55/31
f 33/36/33 35/38/35 34/56/34
f 37/39/37 39/40/37 38/40/37
f 42/42/38 41/41/38 61/57/38
f 62/42/38 41/41/38 63/58/38
f 41/41/38 43/41/38 64/59/38
f 65/60/38 43/41/38 66/59/38
f 43/41/38 42/42/38 67/58/38
f 61/57/38 41/41/38 62/42/38
f 64/59/38 43/41/38 65/60/38
f 68/44/38 45/44/38 69/61/38
f 45/44/38 44/43/38 70/62/38
f 44/43/38 71/63/38 72/64/38
f 71/63/38 46/43/38 73/64/38
f 46/43/38 68/44/38 74/62/38
f 68/44/38 46/43/38 45/44/38
f 44/43/38 46/43/38 71/63/38
f 48/46/38 75/47/38 76/65/38
f 77/46/38 75/47/38 78/66/38
f 75/47/38 47/45/38 79/67/38
f 47/45/38 49/47/38 80/67/38
f 49/47/38 48/46/38 81/66/38
f 76/65/38 75/47/38 77/46/38
f 75/47/38 48/46/38 47/45/38
f 59/49/39 51/49/39 50/68/40
f 51/49/39 59/49/39 52/50/39
f 53/48/39 55/69/41 54/70/42
f 55/69/41 57/48/39 56/70/43
f 57/48/39 53/48/39 58/50/39
f 59/49/39 53/48/39 52/50/39
f 53/48/39 57/48/39 55/69/41
f 6/6/6 10/7/10 17/6/17
f 12/7/12 14/6/14 15/7/15
f 10/9/10 16/11/16 19/12/19
f 14/10/14 18/12/18 22/11/22
f 9/7/9 15/7/15 10/7/10
f 11/6/11 17/6/17 14/6/14
f 18/6/18 20/7/20 27/6/27
f 16/7/16 20/7/20 19/7/19
f 17/13/17 19/15/19 18/16/18
f 15/14/15 22/16/22 16/15/16
f 21/17/21 24/19/24 28/20/28
f 20/17/20 26/19/26 27/18/27
f 22/6/22 21/7/21 16/7/16
f 22/6/22 27/6/27 23/6/23
f 23/18/23 26/19/26 24/19/24
f 20/17/20 28/20/28 25/20/25
f 82/1/1 83/2/44 84/3/45
f 82/1/1 85/4/4 86/4/5
f 87/5/46 88/2/47 89/3/48
f 87/6/46 90/7/49 91/7/10
f 85/4/4 84/3/45 89/3/48
f 88/2/47 83/2/44 82/1/1
f 88/2/47 87/5/46 92/5/50
f 84/3/45 93/8/51 90/8/49
f 88/2/47 94/1/13 86/4/5
f 92/5/50 93/8/51 84/3/45
f 82/1/1 84/3/45 85/4/4
f 82/1/1 86/4/5 94/1/13
f 87/5/46 89/3/48 90/8/49
f 92/6/50 95/6/14 96/7/15
f 85/4/4 89/3/48 86/4/5
f 88/2/47 82/1/1 94/1/13
f 88/2/47 92/5/50 83/2/44
f 84/3/45 90/8/49 89/3/48
f 88/2/47 86/4/5 89/3/48
f 92/5/50 84/3/45 83/2/44
f 91/9/10 96/10/15 97/11/52
f 95/10/14 98/9/17 99/12/53
f 90/7/49 93/7/51 96/7/15
f 92/6/50 87/6/46 98/6/17
f 99/6/53 100/7/54 101/7/55
f 100/7/54 97/7/52 102/7/56
f 98/13/17 91/14/10 100/15/54
f 95/13/14 103/16/57 97/15/52
f 102/17/56 104/18/58 105/19/24
f 106/18/59 101/17/55 107/20/25
f 97/7/52 103/6/57 104/6/58
f 103/6/57 99/6/53 106/6/59
f 108/19/26 107/20/25 109/20/28
f 108/19/26 109/20/28 105/19/24
f 104/18/58 106/18/59 108/19/26
f 101/17/55 102/17/56 109/20/28
f 87/6/46 91/7/10 98/6/17
f 92/6/50 96/7/15 93/7/51
f 91/9/10 97/11/52 100/12/54
f 95/10/14 99/12/53 103/11/57
f 90/7/49 96/7/15 91/7/10
f 92/6/50 98/6/17 95/6/14
f 99/6/53 101/7/55 106/6/59
f 100/7/54 102/7/56 101/7/55
f 98/13/17 100/15/54 99/16/53
f 95/13/14 97/15/52 96/14/15
f 102/17/56 105/19/24 109/20/28
f 106/18/59 107/20/25 108/19/26
f 97/7/52 104/6/58 102/7/56
f 103/6/57 106/6/59 104/6/58
f 104/18/58 108/19/26 105/19/24
f 101/17/55 109/20/28 107/20/25
f 110/1/1 111/2/44 112/3/45
f 110/1/1 113/4/4 114/4/5
f 115/5/46 116/2/47 117/3/48
f 115/6/46 118/7/49 119/7/10
f 113/4/4 112/3/45 117/3/48
f 116/2/47 111/2/44 110/1/1
f 116/2/47 115/5/46 120/5/50
f 112/3/45 121/8/51 118/8/49
f 116/2/47 122/1/13 114/4/5
f 120/5/50 121/8/51 112/3/45
f 110/1/1 112/3/45 113/4/4
f 110/1/1 114/4/5 122/1/13
f 115/5/46 117/3/48 118/8/49
f 121/7/51 120/6/50 123/6/14
f 113/4/4 117/3/48 114/4/5
f 116/2/47 110/1/1 122/1/13
f 116/2/47 120/5/50 111/2/44
f 112/3/45 118/8/49 117/3/48
f 116/2/47 114/4/5 117/3/48
f 120/5/50 112/3/45 111/2/44
f 119/9/10 124/10/15 125/11/60
f 123/10/14 126/9/17 127/12/61
f 118/7/49 121/7/51 124/7/15
f 120/6/50 115/6/46 126/6/17
f 127/6/61 128/7/62 129/7/63
f 128/7/62 125/7/60 130/7/64
f 119/14/10 128/15/62 127/16/61
f 124/14/15 123/13/14 131/16/65
f 130/17/64 132/18/66 133/19/24
f 129/17/63 134/20/25 135/19/26
f 131/6/65 132/6/66 130/7/64
f 131/6/65 127/6/61 136/6/67
f 135/19/26 134/20/25 137/20/28
f 135/19/26 137/20/28 133/19/24
f 132/18/66 136/18/67 135/19/26
f 129/17/63 130/17/64 137/20/28
f 115/6/46 119/7/10 126/6/17
f 121/7/51 123/6/14 124/7/15
f 119/9/10 125/11/60 128/12/62
f 123/10/14 127/12/61 131/11/65
f 118/7/49 124/7/15 119/7/10
f 120/6/50 126/6/17 123/6/14
f 127/6/61 129/7/63 136/6/67
f 128/7/62 130/7/64 129/7/63
f 119/14/10 127/16/61 126/13/17
f 124/14/15 131/16/65 125/15/60
f 130/17/64 133/19/24 137/20/28
f 129/17/63 135/19/26 136/18/67
f 131/6/65 130/7/64 125/7/60
f 131/6/65 136/6/67 132/6/66
f 132/18/66 135/19/26 133/19/24
f 129/17/63 137/20/28 134/20/25
f 138/1/68 139/2/69 140/3/70
f 138/1/68 141/4/71 142/4/72
f 143/5/73 144/2/74 145/3/75
f 143/6/73 146/7/76 147/7/77
f 141/4/71 140/3/70 145/3/75
f 144/2/74 139/2/69 138/1/68
f 144/2/74 143/5/73 148/5/78
f 140/3/70 149/8/79 146/8/76
f 144/2/74 150/1/80 142/4/72
f 148/5/78 149/8/79 140/3/70
f 138/1/68 140/3/70 141/4/71
f 138/1/68 142/4/72 150/1/80
f 143/5/73 145/3/75 146/8/76
f 148/6/78 151/6/81 152/7/82
f 141/4/71 145/3/75 142/4/72
f 144/2/74 138/1/68 150/1/80
f 144/2/74 148/5/78 139/2/69
f 140/3/70 146/8/76 145/3/75
f 144/2/74 142/4/72 145/3/75
f 148/5/78 140/3/70 139/2/69
f 147/9/77 152/10/82 153/11/83
f 151/10/81 154/9/84 155/12/85
f 146/7/76 149/7/79 152/7/82
f 148/6/78 143/6/73 154/6/84
f 155/6/85 156/7/86 157/7/20
f 156/7/86 153/7/83 158/7/21
f 154/13/84 147/14/77 156/15/86
f 151/13/81 159/16/87 153/15/83
f 158/17/21 160/18/23 161/19/24
f 162/18/27 157/17/20 163/20/25
f 159/6/87 160/6/23 158/7/21
f 159/6/87 155/6/85 162/6/27
f 164/19/26 163/20/25 165/20/28
f 164/19/26 165/20/28 161/19/24
f 160/18/23 162/18/27 164/19/26
f 157/17/20 158/17/21 165/20/28
f 143/6/73 147/7/77 154/6/84
f 148/6/78 152/7/82 149/7/79
f 147/9/77 153/11/83 156/12/86
f 151/10/81 155/12/85 159/11/87
f 146/7/76 152/7/82 147/7/77
f 148/6/78 154/6/84 151/6/81
f 155/6/85 157/7/20 162/6/27
f 156/7/86 158/7/21 157/7/20
f 154/13/84 156/15/86 155/16/85
f 151/13/81 153/15/83 152/14/82
f 158/17/21 161/19/24 165/20/28
f 162/18/27 163/20/25 164/19/26
f 159/6/87 158/7/21 153/7/83
f 159/6/87 162/6/27 160/6/23
f 160/18/23 164/19/26 161/19/24
f 157/17/20 165/20/28 163/20/25
