# Blender v2.76 (sub 0) OBJ File: ''
# www.blender.org
mtllib LeftArm.mtl
o LArm011
v -0.074232 0.880983 -0.533316
v -0.141436 0.816688 -0.506037
v -0.141436 0.880983 -0.506037
v 0.074583 0.816688 -0.533316
v -0.074232 0.816688 -0.533316
v 0.152124 0.881442 -0.432318
v 0.141787 0.816688 -0.506037
v 0.141787 0.880983 -0.506037
v 0.144203 0.838572 -0.432318
v 0.152124 0.816229 -0.432318
v -0.151773 0.881442 -0.432318
v -0.151773 0.816229 -0.432318
v 0.074583 0.880983 -0.533316
v -0.143852 0.859099 -0.432318
v -0.143852 0.838572 -0.314835
v -0.143852 0.838572 -0.432318
v 0.144203 0.859099 -0.314835
v 0.144203 0.859099 -0.432318
v 0.159307 0.818232 -0.312478
v 0.144203 0.838572 -0.314835
v -0.158956 0.818232 -0.312478
v -0.143852 0.859099 -0.314835
v -0.158956 0.879439 -0.312478
v -0.136524 0.818232 -0.241958
v -0.136524 0.879439 -0.241958
v 0.159307 0.879439 -0.312478
v 0.136875 0.818232 -0.241958
v 0.136875 0.879439 -0.241958
v -0.129116 0.732001 -0.504762
v 0.129467 1.512449 -0.504762
v 0.129467 0.732001 -0.504762
v 0.129467 0.732001 -0.246181
v -0.129116 1.512449 -0.246181
v -0.129116 0.732001 -0.246181
v -0.129116 1.512449 -0.504762
v 0.129467 1.512449 -0.246181
v 0.085613 1.493413 -0.416351
v 0.085613 1.497705 -0.333717
v 0.125334 1.493413 -0.416351
v 0.125334 1.497705 -0.333717
v -0.010617 1.091987 -0.532419
v -0.045082 1.091987 -0.532419
v -0.038500 1.071728 -0.532419
v -0.011769 1.198107 -0.533957
v -0.043930 1.198107 -0.533957
v -0.017911 1.179203 -0.533957
v 0.041045 0.878188 -0.495321
v 0.013835 0.858419 -0.495321
v 0.024229 0.826433 -0.495321
v 0.012859 1.492007 -0.525307
v 0.000175 1.488207 -0.526903
v 0.020698 1.501956 -0.521132
v 0.020698 1.514253 -0.515971
v 0.012859 1.524203 -0.511794
v 0.000175 1.528002 -0.510200
v -0.012509 1.524203 -0.511794
v -0.020348 1.514253 -0.515971
v -0.020348 1.501956 -0.521132
v -0.012509 1.492007 -0.525307
v -0.144295 1.477427 -0.287946
v -0.027850 1.068269 -0.532419
v -0.017200 1.071728 -0.532419
v -0.010617 1.080789 -0.532419
v -0.017200 1.101047 -0.532419
v -0.027850 1.104507 -0.532419
v -0.038500 1.101047 -0.532419
v -0.045082 1.080789 -0.532419
v -0.037788 1.179203 -0.533957
v -0.027850 1.175974 -0.533957
v -0.011769 1.187657 -0.533957
v -0.017911 1.206560 -0.533957
v -0.027850 1.209790 -0.533957
v -0.037788 1.206560 -0.533957
v -0.043930 1.187657 -0.533957
v 0.041045 0.820969 -0.495321
v 0.068254 0.858419 -0.495321
v 0.057861 0.826433 -0.495321
v 0.068254 0.840737 -0.495321
v 0.057861 0.872723 -0.495321
v 0.024229 0.872723 -0.495321
v 0.013835 0.840737 -0.495321
v -0.074232 1.107588 -0.533316
v -0.141436 1.062604 -0.506037
v -0.141436 1.107588 -0.506037
v 0.074583 1.062604 -0.533316
v -0.074232 1.062604 -0.533316
v 0.152124 1.107909 -0.432318
v 0.141787 1.062604 -0.506037
v 0.141787 1.107588 -0.506037
v 0.144203 1.077916 -0.432318
v 0.152124 1.062283 -0.432318
v -0.151773 1.107909 -0.432318
v -0.151773 1.062283 -0.432318
v 0.074583 1.107588 -0.533316
v -0.143852 1.077916 -0.432318
v -0.143852 1.092277 -0.432318
v -0.143852 1.077916 -0.314835
v 0.144203 1.092277 -0.314835
v 0.144203 1.092277 -0.432318
v 0.159307 1.063685 -0.312478
v 0.144203 1.077916 -0.314835
v -0.158956 1.063685 -0.312478
v -0.143852 1.092277 -0.314835
v -0.136524 1.106508 -0.241958
v -0.158956 1.106508 -0.312478
v 0.159307 1.106508 -0.312478
v 0.136875 1.063685 -0.241958
v 0.136875 1.106508 -0.241958
v -0.136524 1.063685 -0.241958
v -0.074232 1.215557 -0.533316
v -0.141436 1.170393 -0.506037
v -0.141436 1.215557 -0.506037
v 0.074583 1.170393 -0.533316
v -0.074232 1.170393 -0.533316
v 0.152124 1.215880 -0.432318
v 0.141787 1.170393 -0.506037
v 0.141787 1.215557 -0.506037
v 0.144203 1.185766 -0.432318
v 0.152124 1.170071 -0.432318
v -0.151773 1.215880 -0.432318
v -0.151773 1.170071 -0.432318
v 0.074583 1.215557 -0.533316
v -0.143852 1.200185 -0.432318
v -0.143852 1.185766 -0.314835
v -0.143852 1.185766 -0.432318
v 0.144203 1.200184 -0.314835
v 0.144203 1.200185 -0.432318
v 0.144203 1.185766 -0.314835
v 0.159307 1.214472 -0.312478
v 0.159307 1.171478 -0.312478
v -0.158956 1.171478 -0.312478
v -0.143852 1.200184 -0.314835
v -0.158956 1.214472 -0.312478
v -0.136524 1.171478 -0.241958
v -0.136524 1.214472 -0.241958
v 0.136875 1.171478 -0.241958
v 0.136875 1.214472 -0.241958
v -0.074232 1.538165 -0.520469
v -0.141436 1.468486 -0.515689
v -0.141436 1.529254 -0.494687
v 0.074583 1.477396 -0.541471
v -0.074232 1.477396 -0.541471
v 0.152124 1.505607 -0.424862
v 0.141787 1.468486 -0.515689
v 0.141787 1.529254 -0.494687
v 0.144203 1.464460 -0.438054
v 0.152124 1.443972 -0.446164
v -0.151773 1.505607 -0.424862
v -0.151773 1.443972 -0.446164
v 0.074583 1.538165 -0.520469
v -0.143852 1.464460 -0.438054
v -0.143852 1.483613 -0.430674
v -0.143852 1.453544 -0.314835
v 0.144203 1.474070 -0.314835
v 0.144203 1.483613 -0.430674
v 0.159307 1.433204 -0.312478
v 0.144203 1.453544 -0.314835
v -0.158956 1.433204 -0.312478
v -0.143852 1.474070 -0.314835
v -0.136524 1.494410 -0.241958
v -0.158956 1.494410 -0.312478
v 0.159307 1.494410 -0.312478
v 0.136875 1.433204 -0.241958
v 0.136875 1.494410 -0.241958
v -0.136524 1.433204 -0.241958
vt 0.703300 0.655100
vt 0.657500 0.589100
vt 0.657500 0.655100
vt 0.703300 0.589100
vt 0.533800 0.655600
vt 0.563900 0.602200
vt 0.563900 0.598700
vt 0.533800 0.588600
vt 0.689100 0.669700
vt 0.555100 0.685000
vt 0.689100 0.685000
vt 0.555100 0.669700
vt 0.691700 0.685600
vt 0.553300 0.669500
vt 0.691700 0.669500
vt 0.553300 0.685600
vt 0.666000 0.654200
vt 0.577900 0.587000
vt 0.577900 0.654200
vt 0.666000 0.587000
vt 0.620400 0.088700
vt 0.454200 0.349800
vt 0.454200 0.088700
vt 0.774200 0.088700
vt 0.709200 0.346100
vt 0.709200 0.088700
vt 0.615200 0.263700
vt 0.704400 0.174400
vt 0.704400 0.263700
vt 0.615700 0.005500
vt 0.690700 0.080700
vt 0.690700 0.005500
vt 0.460500 0.090400
vt 0.391600 0.348800
vt 0.391600 0.090400
vt 0.709500 0.088100
vt 0.611900 0.345000
vt 0.611900 0.088100
vt 0.491000 0.654200
vt 0.494000 0.596700
vt 0.422000 0.384500
vt 0.422000 0.381900
vt 0.422200 0.397800
vt 0.422200 0.395400
vt 0.421000 0.415600
vt 0.421000 0.413100
vt 0.421000 0.409100
vt 0.419900 0.437300
vt 0.420600 0.435800
vt 0.421100 0.434500
vt 0.620400 0.349800
vt 0.774200 0.346100
vt 0.615200 0.174400
vt 0.615700 0.080700
vt 0.460500 0.348800
vt 0.709500 0.345000
vt 0.422000 0.381500
vt 0.422000 0.383100
vt 0.422000 0.385600
vt 0.422000 0.386000
vt 0.422200 0.395000
vt 0.422200 0.396400
vt 0.422200 0.398800
vt 0.422200 0.399200
vt 0.421000 0.408400
vt 0.421000 0.410900
vt 0.421000 0.414900
vt 0.421300 0.434100
vt 0.419400 0.438600
vt 0.419200 0.439000
vn -0.142900 0.666400 -0.731800
vn -0.624900 -0.608400 -0.489200
vn -0.624900 0.608400 -0.489200
vn 0.142900 -0.666400 -0.731800
vn -0.142900 -0.666400 -0.731800
vn 0.619400 0.572200 0.537500
vn 0.624900 -0.608400 -0.489200
vn 0.624900 0.608400 -0.489200
vn 0.301500 -0.301500 0.904500
vn 0.619400 -0.572200 0.537500
vn -0.619400 0.572200 0.537500
vn -0.619400 -0.572200 0.537500
vn 0.142900 0.666400 -0.731800
vn -0.301500 0.301500 0.904500
vn -0.364100 -0.339700 -0.867200
vn -0.301500 -0.301500 0.904500
vn 0.364100 0.339700 -0.867200
vn 0.301500 0.301500 0.904500
vn 0.673700 -0.578400 -0.459900
vn 0.364100 -0.339700 -0.867200
vn -0.673700 -0.578400 -0.459900
vn -0.364100 0.339700 -0.867200
vn -0.673700 0.578400 -0.459900
vn -0.474300 -0.595300 0.648600
vn -0.474300 0.595300 0.648600
vn 0.673700 0.578400 -0.459900
vn 0.474300 -0.595300 0.648600
vn 0.474300 0.595300 0.648600
vn -0.577400 -0.577400 -0.577400
vn 0.577400 0.577400 -0.577300
vn 0.577400 -0.577400 -0.577400
vn 0.577400 -0.577400 0.577400
vn -0.577400 0.577400 0.577400
vn -0.577400 -0.577400 0.577400
vn -0.577400 0.577400 -0.577400
vn 0.577400 0.577400 0.577400
vn 0.000000 -0.998700 0.051900
vn 0.000000 0.000000 1.000000
vn -0.000000 -0.387000 0.922100
vn 0.000000 -0.387200 0.922000
vn -0.000100 -0.387200 0.922000
vn -0.000000 -0.387100 0.922100
vn 0.000100 -0.387200 0.922000
vn -0.624900 -0.608900 -0.488600
vn -0.624900 0.608900 -0.488600
vn 0.619500 0.571700 0.537900
vn 0.624900 -0.608900 -0.488600
vn 0.624900 0.608900 -0.488600
vn 0.619500 -0.571700 0.537900
vn -0.619500 0.571700 0.537900
vn -0.619500 -0.571700 0.537900
vn -0.357600 -0.363300 -0.860300
vn 0.357600 0.363300 -0.860300
vn 0.677500 -0.578900 -0.453700
vn 0.357600 -0.363300 -0.860300
vn -0.677500 -0.578900 -0.453700
vn -0.357600 0.363300 -0.860300
vn -0.677500 0.578900 -0.453700
vn 0.677500 0.578900 -0.453700
vn -0.357700 -0.363000 -0.860400
vn 0.357700 0.363000 -0.860400
vn 0.357700 -0.363000 -0.860400
vn 0.677400 0.578900 -0.453800
vn 0.677400 -0.578900 -0.453800
vn -0.677400 -0.578900 -0.453800
vn -0.357700 0.363000 -0.860400
vn -0.677400 0.578900 -0.453800
vn -0.142900 0.868900 -0.473900
vn -0.624900 -0.415200 -0.661100
vn -0.624900 0.734800 -0.263600
vn 0.142900 -0.390800 -0.909300
vn -0.142900 -0.390800 -0.909300
vn 0.624600 0.384100 0.680000
vn 0.624900 -0.415200 -0.661100
vn 0.624900 0.734800 -0.263600
vn 0.299000 -0.570900 0.764600
vn 0.622200 -0.720300 0.306700
vn -0.624600 0.384100 0.680000
vn -0.622200 -0.720300 0.306600
vn 0.142900 0.868900 -0.473900
vn -0.299000 -0.570900 0.764600
vn -0.516900 0.023300 0.855700
vn -0.342000 -0.333100 -0.878700
vn 0.385300 0.343900 -0.856300
vn 0.516900 0.023300 0.855700
vn 0.342000 -0.333100 -0.878700
vn -0.385300 0.343900 -0.856300
usemtl None.002
s 1
f 1/1/1 2/2/2 3/3/3
f 1/1/1 4/4/4 5/4/5
f 6/5/6 7/2/7 8/3/8
f 6/6/6 9/7/9 10/7/10
f 5/4/5 7/2/7 2/2/2
f 8/3/8 1/1/1 3/3/3
f 8/3/8 11/5/11 6/5/6
f 2/2/2 10/8/10 12/8/12
f 8/3/8 4/4/4 13/1/13
f 11/5/11 2/2/2 12/8/12
f 1/1/1 5/4/5 2/2/2
f 1/1/1 13/1/13 4/4/4
f 6/5/6 10/8/10 7/2/7
f 12/7/12 14/6/14 11/6/11
f 5/4/5 4/4/4 7/2/7
f 8/3/8 13/1/13 1/1/1
f 8/3/8 3/3/3 11/5/11
f 2/2/2 7/2/7 10/8/10
f 8/3/8 7/2/7 4/4/4
f 11/5/11 3/3/3 2/2/2
f 9/9/9 15/10/15 16/11/16
f 14/11/14 17/12/17 18/9/18
f 10/7/10 16/7/16 12/7/12
f 11/6/11 18/6/18 6/6/6
f 17/6/17 19/7/19 20/7/20
f 20/7/20 21/7/21 15/7/15
f 18/13/18 20/14/20 9/15/9
f 16/15/16 22/16/22 14/13/14
f 23/17/23 24/18/24 25/19/25
f 26/17/26 27/18/27 19/20/19
f 22/6/22 21/7/21 23/6/23
f 22/6/22 26/6/26 17/6/17
f 28/19/28 24/18/24 27/18/27
f 28/19/28 25/19/25 24/18/24
f 23/17/23 28/19/28 26/17/26
f 19/20/19 24/18/24 21/20/21
f 29/21/29 30/22/30 31/23/31
f 32/24/32 33/25/33 34/26/34
f 35/27/35 36/28/36 30/29/30
f 34/30/34 31/31/31 32/32/32
f 31/33/31 36/34/36 32/35/32
f 34/36/34 35/37/35 29/38/29
f 38/39/37 39/40/37 40/39/37
f 41/41/38 42/41/38 43/42/38
f 44/43/38 45/43/38 46/44/38
f 47/45/38 48/46/38 49/47/38
f 53/48/39 58/49/39 59/50/39
f 29/21/29 35/51/35 30/22/30
f 32/24/32 36/52/36 33/25/33
f 35/27/35 33/53/33 36/28/36
f 34/30/34 29/54/29 31/31/31
f 31/33/31 30/55/30 36/34/36
f 34/36/34 33/56/33 35/37/35
f 38/39/37 37/40/37 39/40/37
f 43/42/38 61/57/38 41/41/38
f 62/42/38 63/58/38 41/41/38
f 41/41/38 64/59/38 42/41/38
f 65/60/38 66/59/38 42/41/38
f 42/41/38 67/58/38 43/42/38
f 61/57/38 62/42/38 41/41/38
f 64/59/38 65/60/38 42/41/38
f 68/44/38 69/61/38 46/44/38
f 46/44/38 70/62/38 44/43/38
f 44/43/38 71/63/38 72/64/38
f 72/64/38 73/63/38 45/43/38
f 45/43/38 74/62/38 68/44/38
f 68/44/38 46/44/38 45/43/38
f 44/43/38 72/64/38 45/43/38
f 49/47/38 75/65/38 76/46/38
f 77/47/38 78/66/38 76/46/38
f 76/46/38 79/67/38 47/45/38
f 47/45/38 80/67/38 48/46/38
f 48/46/38 81/66/38 49/47/38
f 75/65/38 77/47/38 76/46/38
f 76/46/38 47/45/38 49/47/38
f 59/50/39 51/68/40 50/50/39
f 50/50/39 52/49/39 59/50/39
f 53/48/39 54/69/41 55/70/42
f 55/70/42 56/69/43 57/48/39
f 57/48/39 58/49/39 53/48/39
f 59/50/39 52/49/39 53/48/39
f 53/48/39 55/70/42 57/48/39
f 6/6/6 18/6/18 9/7/9
f 12/7/12 16/7/16 14/6/14
f 9/9/9 20/12/20 15/10/15
f 14/11/14 22/10/22 17/12/17
f 10/7/10 9/7/9 16/7/16
f 11/6/11 14/6/14 18/6/18
f 17/6/17 26/6/26 19/7/19
f 20/7/20 19/7/19 21/7/21
f 18/13/18 17/16/17 20/14/20
f 16/15/16 15/14/15 22/16/22
f 23/17/23 21/20/21 24/18/24
f 26/17/26 28/19/28 27/18/27
f 22/6/22 15/7/15 21/7/21
f 22/6/22 23/6/23 26/6/26
f 23/17/23 25/19/25 28/19/28
f 19/20/19 27/18/27 24/18/24
f 82/1/1 83/2/44 84/3/45
f 82/1/1 85/4/4 86/4/5
f 87/5/46 88/2/47 89/3/48
f 87/6/46 90/7/9 91/7/49
f 86/4/5 88/2/47 83/2/44
f 89/3/48 82/1/1 84/3/45
f 89/3/48 92/5/50 87/5/46
f 83/2/44 91/8/49 93/8/51
f 89/3/48 85/4/4 94/1/13
f 92/5/50 83/2/44 93/8/51
f 82/1/1 86/4/5 83/2/44
f 82/1/1 94/1/13 85/4/4
f 87/5/46 91/8/49 88/2/47
f 92/6/50 95/7/16 96/6/14
f 86/4/5 85/4/4 88/2/47
f 89/3/48 94/1/13 82/1/1
f 89/3/48 84/3/45 92/5/50
f 83/2/44 88/2/47 91/8/49
f 89/3/48 88/2/47 85/4/4
f 92/5/50 84/3/45 83/2/44
f 90/9/9 97/10/52 95/11/16
f 96/11/14 98/12/53 99/9/18
f 91/7/49 95/7/16 93/7/51
f 92/6/50 99/6/18 87/6/46
f 98/6/53 100/7/54 101/7/55
f 101/7/55 102/7/56 97/7/52
f 90/15/9 98/16/53 101/14/55
f 95/15/16 103/16/57 96/13/14
f 102/20/56 104/19/25 105/17/58
f 106/17/59 107/18/27 100/20/54
f 97/7/52 105/6/58 103/6/57
f 103/6/57 106/6/59 98/6/53
f 108/19/28 109/18/24 107/18/27
f 108/19/28 104/19/25 109/18/24
f 105/17/58 108/19/28 106/17/59
f 100/20/54 109/18/24 102/20/56
f 87/6/46 99/6/18 90/7/9
f 92/6/50 93/7/51 95/7/16
f 90/9/9 101/12/55 97/10/52
f 96/11/14 103/10/57 98/12/53
f 91/7/49 90/7/9 95/7/16
f 92/6/50 96/6/14 99/6/18
f 98/6/53 106/6/59 100/7/54
f 101/7/55 100/7/54 102/7/56
f 90/15/9 99/13/18 98/16/53
f 95/15/16 97/14/52 103/16/57
f 102/20/56 109/18/24 104/19/25
f 106/17/59 108/19/28 107/18/27
f 97/7/52 102/7/56 105/6/58
f 103/6/57 105/6/58 106/6/59
f 105/17/58 104/19/25 108/19/28
f 100/20/54 107/18/27 109/18/24
f 110/1/1 111/2/44 112/3/45
f 110/1/1 113/4/4 114/4/5
f 115/5/46 116/2/47 117/3/48
f 115/6/46 118/7/9 119/7/49
f 114/4/5 116/2/47 111/2/44
f 117/3/48 110/1/1 112/3/45
f 117/3/48 120/5/50 115/5/46
f 111/2/44 119/8/49 121/8/51
f 117/3/48 113/4/4 122/1/13
f 120/5/50 111/2/44 121/8/51
f 110/1/1 114/4/5 111/2/44
f 110/1/1 122/1/13 113/4/4
f 115/5/46 119/8/49 116/2/47
f 121/7/51 123/6/14 120/6/50
f 114/4/5 113/4/4 116/2/47
f 117/3/48 122/1/13 110/1/1
f 117/3/48 112/3/45 120/5/50
f 111/2/44 116/2/47 119/8/49
f 117/3/48 116/2/47 113/4/4
f 120/5/50 112/3/45 111/2/44
f 118/9/9 124/10/60 125/11/16
f 123/11/14 126/12/61 127/9/18
f 119/7/49 125/7/16 121/7/51
f 120/6/50 127/6/18 115/6/46
f 128/7/62 129/6/63 130/7/64
f 128/7/62 131/7/65 124/7/60
f 127/13/18 128/14/62 118/15/9
f 123/13/14 124/14/60 132/16/66
f 133/17/67 134/18/24 135/19/25
f 129/17/63 136/18/27 130/20/64
f 124/7/60 133/6/67 132/6/66
f 132/6/66 129/6/63 126/6/61
f 137/19/28 134/18/24 136/18/27
f 137/19/28 135/19/25 134/18/24
f 133/17/67 137/19/28 129/17/63
f 130/20/64 134/18/24 131/20/65
f 115/6/46 127/6/18 118/7/9
f 121/7/51 125/7/16 123/6/14
f 118/9/9 128/12/62 124/10/60
f 123/11/14 132/10/66 126/12/61
f 119/7/49 118/7/9 125/7/16
f 120/6/50 123/6/14 127/6/18
f 128/7/62 126/6/61 129/6/63
f 128/7/62 130/7/64 131/7/65
f 127/13/18 126/16/61 128/14/62
f 123/13/14 125/15/16 124/14/60
f 133/17/67 131/20/65 134/18/24
f 129/17/63 137/19/28 136/18/27
f 124/7/60 131/7/65 133/6/67
f 132/6/66 133/6/67 129/6/63
f 133/17/67 135/19/25 137/19/28
f 130/20/64 136/18/27 134/18/24
f 138/1/68 139/2/69 140/3/70
f 138/1/68 141/4/71 142/4/72
f 143/5/73 144/2/74 145/3/75
f 143/6/73 146/7/76 147/7/77
f 142/4/72 144/2/74 139/2/69
f 145/3/75 138/1/68 140/3/70
f 145/3/75 148/5/78 143/5/73
f 139/2/69 147/8/77 149/8/79
f 145/3/75 141/4/71 150/1/80
f 148/5/78 139/2/69 149/8/79
f 138/1/68 142/4/72 139/2/69
f 138/1/68 150/1/80 141/4/71
f 143/5/73 147/8/77 144/2/74
f 148/6/78 151/7/81 152/6/82
f 142/4/72 141/4/71 144/2/74
f 145/3/75 150/1/80 138/1/68
f 145/3/75 140/3/70 148/5/78
f 139/2/69 144/2/74 147/8/77
f 145/3/75 144/2/74 141/4/71
f 148/5/78 140/3/70 139/2/69
f 146/9/76 153/10/83 151/11/81
f 152/11/82 154/12/84 155/9/85
f 147/7/77 151/7/81 149/7/79
f 148/6/78 155/6/85 143/6/73
f 154/6/84 156/7/19 157/7/86
f 157/7/86 158/7/21 153/7/83
f 155/13/85 157/14/86 146/15/76
f 152/13/82 153/14/83 159/16/87
f 158/20/21 160/19/25 161/17/23
f 162/17/26 163/18/27 156/20/19
f 159/6/87 158/7/21 161/6/23
f 159/6/87 162/6/26 154/6/84
f 164/19/28 165/18/24 163/18/27
f 164/19/28 160/19/25 165/18/24
f 161/17/23 164/19/28 162/17/26
f 156/20/19 165/18/24 158/20/21
f 143/6/73 155/6/85 146/7/76
f 148/6/78 149/7/79 151/7/81
f 146/9/76 157/12/86 153/10/83
f 152/11/82 159/10/87 154/12/84
f 147/7/77 146/7/76 151/7/81
f 148/6/78 152/6/82 155/6/85
f 154/6/84 162/6/26 156/7/19
f 157/7/86 156/7/19 158/7/21
f 155/13/85 154/16/84 157/14/86
f 152/13/82 151/15/81 153/14/83
f 158/20/21 165/18/24 160/19/25
f 162/17/26 164/19/28 163/18/27
f 159/6/87 153/7/83 158/7/21
f 159/6/87 161/6/23 162/6/26
f 161/17/23 160/19/25 164/19/28
f 156/20/19 163/18/27 165/18/24
