# ..:::Stalker models:::..
# WebSite: http://excalibur-craft.ru
mtllib el_box_07.mtl
o 0.017
v -0.025365 0.000000 -0.109084
v -0.035872 0.000000 -0.083719
v -0.025365 1.288340 -0.109084
v -0.035872 1.288340 -0.083719
v -0.025365 0.000000 -0.058354
v -0.025365 1.288340 -0.058354
v 0.000000 0.000000 -0.047847
v 0.000000 1.288340 -0.047847
v 0.000000 0.000000 -0.047847
v 0.025365 0.000000 -0.058354
v 0.000000 1.288340 -0.047847
v 0.025365 1.288340 -0.058354
v 0.035872 0.000000 -0.083719
v 0.035872 1.288340 -0.083719
v 0.025365 0.000000 -0.109084
v 0.025365 1.288340 -0.109084
v 0.000000 0.000000 -0.119590
v 0.000000 1.288340 -0.119590
v -0.185741 2.024177 -0.303590
v -0.188248 2.028218 -0.280290
v 0.185741 2.024177 -0.303590
v 0.188248 2.028218 -0.280290
v 0.231509 1.978408 -0.303590
v 0.234506 1.981960 -0.280290
v 0.231509 1.314306 -0.303590
v 0.234506 1.310754 -0.280290
v 0.185741 1.268537 -0.303590
v 0.188248 1.264496 -0.280290
v -0.185741 1.268537 -0.303590
v -0.188248 1.264496 -0.280290
v -0.231509 1.314306 -0.303590
v -0.234506 1.310754 -0.280290
v -0.231509 1.978408 -0.303590
v -0.234506 1.981960 -0.280290
v 0.220957 2.014669 -0.280290
v 0.218104 2.010772 -0.303590
v -0.220957 2.014669 -0.280290
v -0.218104 2.010772 -0.303590
v 0.220957 1.278045 -0.280290
v 0.218104 1.281943 -0.303590
v -0.220957 1.278045 -0.280290
v -0.218104 1.281943 -0.303590
v -0.234506 1.310754 -0.280290
v -0.220957 1.278045 -0.280290
v -0.234506 1.310754 0.000000
v -0.220957 1.278045 0.000000
v -0.188248 1.264496 -0.280290
v -0.188248 1.264496 0.000000
v -0.188248 1.264496 -0.280290
v 0.188248 1.264496 -0.280290
v -0.188248 1.264496 0.000000
v 0.188248 1.264496 0.000000
v 0.220957 1.278045 -0.280290
v 0.220957 1.278045 0.000000
v 0.234506 1.310754 -0.280290
v 0.234506 1.310754 0.000000
v 0.234506 1.981960 -0.280290
v 0.234506 1.981960 0.000000
v 0.220957 2.014669 -0.280290
v 0.220957 2.014669 0.000000
v 0.188248 2.028218 -0.280290
v 0.188248 2.028218 0.000000
v -0.188248 2.028218 -0.280290
v -0.188248 2.028218 0.000000
v -0.220957 2.014669 -0.280290
v -0.220957 2.014669 0.000000
v -0.234506 1.981960 -0.280290
v -0.234506 1.981960 0.000000
v 0.249102 1.869143 -0.275550
v 0.249102 1.910098 -0.275550
v 0.249102 1.869143 -0.238191
v 0.249102 1.910098 -0.238191
v 0.234507 1.869143 -0.275550
v 0.234507 1.910098 -0.275550
v 0.234507 1.910098 -0.233986
v 0.249102 1.910098 -0.238191
v 0.234507 1.910098 -0.275550
v 0.249102 1.910098 -0.275550
v 0.234507 1.910098 -0.233986
v 0.234507 1.869143 -0.233986
v 0.234507 1.869143 -0.233986
v 0.234507 1.869143 -0.275550
v 0.249102 1.869143 -0.238191
v 0.249102 1.869143 -0.275550
v 0.254324 1.874403 -0.277947
v 0.254324 1.904839 -0.277947
v 0.254324 1.874403 -0.269276
v 0.254324 1.904839 -0.269276
v 0.234506 1.874403 -0.280290
v 0.234506 1.904839 -0.280290
v 0.234506 1.904839 -0.280290
v 0.234506 1.904839 -0.266934
v 0.254324 1.904839 -0.277947
v 0.254324 1.904839 -0.269276
v 0.234506 1.904839 -0.266934
v 0.234506 1.874403 -0.266934
v 0.234506 1.874403 -0.266934
v 0.234506 1.874403 -0.280290
v 0.254324 1.874403 -0.269276
v 0.254324 1.874403 -0.277947
v 0.249102 1.405252 -0.275550
v 0.249102 1.446208 -0.275550
v 0.249102 1.405252 -0.238191
v 0.249102 1.446208 -0.238191
v 0.234507 1.405252 -0.275550
v 0.234507 1.446208 -0.275550
v 0.234507 1.446208 -0.233986
v 0.249102 1.446208 -0.238191
v 0.234507 1.446208 -0.275550
v 0.249102 1.446208 -0.275550
v 0.234507 1.446208 -0.233986
v 0.234507 1.405252 -0.233986
v 0.234507 1.405252 -0.233986
v 0.234507 1.405252 -0.275550
v 0.249102 1.405252 -0.238191
v 0.249102 1.405252 -0.275550
v 0.254324 1.410512 -0.277947
v 0.254324 1.440948 -0.277947
v 0.254324 1.410512 -0.269276
v 0.254324 1.440948 -0.269276
v 0.234506 1.410512 -0.280290
v 0.234506 1.440948 -0.280290
v 0.234506 1.440948 -0.280290
v 0.234506 1.440948 -0.266934
v 0.254324 1.440948 -0.277947
v 0.254324 1.440948 -0.269276
v 0.234506 1.440948 -0.266934
v 0.234506 1.410512 -0.266934
v 0.234506 1.410512 -0.266934
v 0.234506 1.410512 -0.280290
v 0.254324 1.410512 -0.269276
v 0.254324 1.410512 -0.277947
v -0.220957 2.014669 0.000000
v 0.220957 2.014669 0.000000
v -0.188248 2.028218 0.000000
v 0.188248 2.028218 0.000000
v 0.234506 1.981960 0.000000
v -0.234506 1.981960 0.000000
v -0.234506 1.310754 0.000000
v 0.234506 1.310754 0.000000
v 0.220957 1.278045 0.000000
v -0.220957 1.278045 0.000000
v 0.188248 1.264496 0.000000
v -0.188248 1.264496 0.000000
vt 0.6231 0.7673
vt 0.6181 0.7673
vt 0.6231 0.5695
vt 0.6181 0.5695
vt 0.6131 0.7673
vt 0.6131 0.5695
vt 0.6082 0.7673
vt 0.6082 0.5695
vt 0.6479 0.7673
vt 0.6429 0.7673
vt 0.6479 0.5695
vt 0.6429 0.5695
vt 0.6380 0.7673
vt 0.6380 0.5695
vt 0.6330 0.7673
vt 0.6330 0.5695
vt 0.6280 0.7673
vt 0.6280 0.5695
vt 0.9857 0.9765
vt 0.9960 0.9778
vt 0.9860 0.8206
vt 0.9962 0.8195
vt 0.9665 0.8056
vt 0.9685 0.7979
vt 0.6804 0.8050
vt 0.6785 0.7973
vt 0.6610 0.8198
vt 0.6508 0.8186
vt 0.6607 0.9751
vt 0.6506 0.9762
vt 0.6800 0.9900
vt 0.6782 0.9978
vt 0.9662 0.9914
vt 0.9681 0.9991
vt 0.9876 0.8047
vt 0.9797 0.8104
vt 0.9873 0.9924
vt 0.9794 0.9867
vt 0.6594 0.8040
vt 0.6673 0.8097
vt 0.6591 0.9909
vt 0.6669 0.9852
vt 0.2743 0.9472
vt 0.2743 0.9617
vt 0.3894 0.9472
vt 0.3894 0.9617
vt 0.2743 0.9763
vt 0.3894 0.9763
vt 0.2743 0.9153
vt 0.2743 0.7206
vt 0.3894 0.9153
vt 0.3894 0.7206
vt 0.2743 0.7061
vt 0.3894 0.7061
vt 0.2743 0.6916
vt 0.3894 0.6916
vt 0.2743 0.4158
vt 0.3894 0.4158
vt 0.2743 0.4332
vt 0.3894 0.4332
vt 0.2743 0.4477
vt 0.3894 0.4477
vt 0.2743 0.6424
vt 0.3894 0.6424
vt 0.2743 0.6569
vt 0.3894 0.6569
vt 0.2743 0.6715
vt 0.3894 0.6715
vt 0.6044 0.4787
vt 0.6525 0.4787
vt 0.6044 0.5275
vt 0.6525 0.5275
vt 0.6044 0.4616
vt 0.6525 0.4616
vt 0.6233 0.8987
vt 0.6062 0.8987
vt 0.6233 0.8499
vt 0.6062 0.8499
vt 0.6525 0.5447
vt 0.6044 0.5447
vt 0.6062 0.8987
vt 0.6062 0.8499
vt 0.6233 0.8987
vt 0.6233 0.8499
vt 0.5437 0.8269
vt 0.5437 0.8522
vt 0.5326 0.8269
vt 0.5326 0.8522
vt 0.5619 0.8269
vt 0.5619 0.8522
vt 0.6233 0.8641
vt 0.6023 0.8641
vt 0.6233 0.8987
vt 0.6023 0.8987
vt 0.5144 0.8522
vt 0.5144 0.8269
vt 0.6023 0.8641
vt 0.6233 0.8641
vt 0.6023 0.8987
vt 0.6233 0.8987
vt 0.6044 0.4787
vt 0.6525 0.4787
vt 0.6044 0.5275
vt 0.6525 0.5275
vt 0.6044 0.4616
vt 0.6525 0.4616
vt 0.6233 0.8987
vt 0.6062 0.8987
vt 0.6233 0.8499
vt 0.6062 0.8499
vt 0.6525 0.5447
vt 0.6044 0.5447
vt 0.6062 0.8987
vt 0.6062 0.8499
vt 0.6233 0.8987
vt 0.6233 0.8499
vt 0.5437 0.8269
vt 0.5437 0.8522
vt 0.5326 0.8269
vt 0.5326 0.8522
vt 0.5619 0.8269
vt 0.5619 0.8522
vt 0.6233 0.8641
vt 0.6023 0.8641
vt 0.6233 0.8987
vt 0.6023 0.8987
vt 0.5144 0.8522
vt 0.5144 0.8269
vt 0.6023 0.8641
vt 0.6233 0.8641
vt 0.6023 0.8987
vt 0.6233 0.8987
vt 0.6377 0.3831
vt 0.6377 0.2260
vt 0.6425 0.3715
vt 0.6425 0.2376
vt 0.6261 0.2211
vt 0.6261 0.3880
vt 0.3873 0.3880
vt 0.3873 0.2211
vt 0.3757 0.2260
vt 0.3757 0.3831
vt 0.3709 0.2376
vt 0.3709 0.3715
vn -0.6037 0.0000 -0.7972
vn -0.9906 -0.0000 -0.1368
vn -0.7972 0.0000 -0.6038
vn -0.9906 0.0000 0.1368
vn -0.7972 -0.0000 0.6038
vn -0.6038 0.0002 0.7972
vn -0.1368 0.0000 0.9906
vn 0.1368 -0.0000 0.9906
vn 0.6038 -0.0002 0.7972
vn 0.7972 -0.0000 0.6038
vn 0.9906 -0.0000 0.1368
vn 0.9906 0.0000 -0.1368
vn 0.7972 0.0000 -0.6038
vn 0.6037 0.0000 -0.7972
vn 0.1368 -0.0003 -0.9906
vn -0.1368 0.0001 -0.9906
vn -0.1228 0.6193 -0.7755
vn -0.1911 0.9635 -0.1877
vn 0.1142 0.8759 -0.4687
vn 0.2543 0.9479 -0.1918
vn 0.6319 0.1252 -0.7649
vn 0.9693 0.1920 -0.1539
vn 0.8905 -0.1160 -0.4400
vn 0.9532 -0.2555 -0.1615
vn 0.1229 -0.6192 -0.7755
vn 0.1911 -0.9635 -0.1877
vn -0.1142 -0.8759 -0.4687
vn -0.2543 -0.9479 -0.1918
vn -0.6318 -0.1252 -0.7649
vn -0.9692 -0.1921 -0.1539
vn -0.8905 0.1160 -0.4400
vn -0.9532 0.2555 -0.1615
vn 0.6934 0.6921 -0.2007
vn 0.4302 0.4294 -0.7941
vn -0.6934 0.6921 -0.2007
vn -0.3782 0.3775 -0.8453
vn 0.6933 -0.6921 -0.2007
vn 0.3782 -0.3775 -0.8453
vn -0.6933 -0.6921 -0.2007
vn -0.4302 -0.4294 -0.7941
vn -0.9915 -0.1298 0.0000
vn -0.7972 -0.6037 0.0001
vn -0.9657 -0.2596 0.0000
vn -0.6037 -0.7972 0.0004
vn -0.2596 -0.9657 0.0000
vn -0.1298 -0.9915 -0.0000
vn 0.1298 -0.9915 0.0000
vn 0.2596 -0.9657 0.0000
vn 0.6037 -0.7972 0.0001
vn 0.7972 -0.6037 -0.0001
vn 0.9657 -0.2596 -0.0000
vn 0.9915 -0.1298 0.0000
vn 0.9915 0.1298 -0.0000
vn 0.9657 0.2596 0.0000
vn 0.7972 0.6037 0.0001
vn 0.6037 0.7972 0.0000
vn 0.2596 0.9657 -0.0000
vn 0.1298 0.9915 -0.0000
vn -0.1298 0.9915 0.0000
vn -0.2596 0.9657 0.0000
vn -0.6037 0.7972 0.0001
vn -0.7972 0.6037 -0.0001
vn -0.9657 0.2596 -0.0000
vn -0.9915 0.1298 -0.0000
vn 0.4472 0.0000 -0.8944
vn 0.8944 0.0000 -0.4472
vn 0.9213 -0.0000 0.3889
vn 0.6287 -0.0000 0.7777
vn 0.0000 0.0000 -1.0000
vn 0.0000 1.0000 0.0000
vn 0.2768 -0.0000 0.9609
vn 0.2769 -0.0000 0.9609
vn 0.0000 -1.0000 0.0000
vn 0.5279 0.0000 -0.8493
vn 0.9054 0.0000 -0.4246
vn 0.9054 0.0000 0.4246
vn 0.5280 0.0000 0.8493
vn 0.1174 0.0000 -0.9931
vn 0.1174 0.0000 0.9931
vn 0.0000 -0.0000 1.0000
usemtl prop_el_box.008
s 1
f 1/1/1 2/2/2 3/3/3
f 3/3/3 2/2/2 4/4/4
f 2/2/2 5/5/5 4/4/4
f 4/4/4 5/5/5 6/6/6
f 5/5/5 7/7/7 6/6/6
f 6/6/6 7/7/7 8/8/8
f 9/9/7 10/10/9 11/11/8
f 11/11/8 10/10/9 12/12/10
f 10/10/9 13/13/11 12/12/10
f 12/12/10 13/13/11 14/14/12
f 13/13/11 15/15/13 14/14/12
f 14/14/12 15/15/13 16/16/14
f 15/15/13 17/17/15 16/16/14
f 16/16/14 17/17/15 18/18/16
f 17/17/15 1/1/1 18/18/16
f 18/18/16 1/1/1 3/3/3
f 19/19/17 20/20/18 21/21/19
f 21/21/19 20/20/18 22/22/20
f 23/23/21 24/24/22 25/25/23
f 25/25/23 24/24/22 26/26/24
f 27/27/25 28/28/26 29/29/27
f 29/29/27 28/28/26 30/30/28
f 31/31/29 32/32/30 33/33/31
f 33/33/31 32/32/30 34/34/32
f 35/35/33 36/36/34 22/22/20
f 22/22/20 36/36/34 21/21/19
f 35/35/33 24/24/22 36/36/34
f 36/36/34 24/24/22 23/23/21
f 37/37/35 38/38/36 34/34/32
f 34/34/32 38/38/36 33/33/31
f 37/37/35 20/20/18 38/38/36
f 38/38/36 20/20/18 19/19/17
f 39/39/37 40/40/38 26/26/24
f 26/26/24 40/40/38 25/25/23
f 39/39/37 28/28/26 40/40/38
f 40/40/38 28/28/26 27/27/25
f 41/41/39 42/42/40 30/30/28
f 30/30/28 42/42/40 29/29/27
f 41/41/39 32/32/30 42/42/40
f 42/42/40 32/32/30 31/31/29
f 42/42/40 31/31/29 38/38/36
f 38/38/36 31/31/29 33/33/31
f 38/38/36 19/19/17 36/36/34
f 36/36/34 19/19/17 21/21/19
f 36/36/34 23/23/21 40/40/38
f 40/40/38 23/23/21 25/25/23
f 40/40/38 27/27/25 42/42/40
f 42/42/40 27/27/25 29/29/27
f 42/42/40 38/38/36 40/40/38
f 38/38/36 36/36/34 40/40/38
f 43/43/41 44/44/42 45/45/43
f 45/45/43 44/44/42 46/46/44
f 44/44/42 47/47/45 46/46/44
f 46/46/44 47/47/45 48/48/46
f 49/49/45 50/50/47 51/51/46
f 51/51/46 50/50/47 52/52/48
f 50/50/47 53/53/49 52/52/48
f 52/52/48 53/53/49 54/54/50
f 53/53/49 55/55/51 54/54/50
f 54/54/50 55/55/51 56/56/52
f 55/55/51 57/57/53 56/56/52
f 56/56/52 57/57/53 58/58/54
f 57/57/53 59/59/55 58/58/54
f 58/58/54 59/59/55 60/60/56
f 59/59/55 61/61/57 60/60/56
f 60/60/56 61/61/57 62/62/58
f 61/61/57 63/63/59 62/62/58
f 62/62/58 63/63/59 64/64/60
f 63/63/59 65/65/61 64/64/60
f 64/64/60 65/65/61 66/66/62
f 65/65/61 67/67/63 66/66/62
f 66/66/62 67/67/63 68/68/64
f 67/67/63 43/43/41 68/68/64
f 68/68/64 43/43/41 45/45/43
f 69/69/65 70/70/66 71/71/67
f 71/71/67 70/70/66 72/72/68
f 73/73/69 74/74/69 69/69/65
f 69/69/65 74/74/69 70/70/66
f 75/75/70 76/76/70 77/77/70
f 77/77/70 76/76/70 78/78/70
f 79/79/71 80/80/72 72/72/68
f 72/72/68 80/80/72 71/71/67
f 81/81/73 82/82/73 83/83/73
f 83/83/73 82/82/73 84/84/73
f 85/85/74 86/86/75 87/87/76
f 87/87/76 86/86/75 88/88/77
f 89/89/78 90/90/78 85/85/74
f 85/85/74 90/90/78 86/86/75
f 91/91/70 92/92/70 93/93/70
f 93/93/70 92/92/70 94/94/70
f 95/95/79 96/96/79 88/88/77
f 88/88/77 96/96/79 87/87/76
f 97/97/73 98/98/73 99/99/73
f 99/99/73 98/98/73 100/100/73
f 101/101/65 102/102/66 103/103/67
f 103/103/67 102/102/66 104/104/68
f 105/105/69 106/106/69 101/101/65
f 101/101/65 106/106/69 102/102/66
f 107/107/70 108/108/70 109/109/70
f 109/109/70 108/108/70 110/110/70
f 111/111/71 112/112/71 104/104/68
f 104/104/68 112/112/71 103/103/67
f 113/113/73 114/114/73 115/115/73
f 115/115/73 114/114/73 116/116/73
f 117/117/74 118/118/75 119/119/76
f 119/119/76 118/118/75 120/120/77
f 121/121/78 122/122/78 117/117/74
f 117/117/74 122/122/78 118/118/75
f 123/123/70 124/124/70 125/125/70
f 125/125/70 124/124/70 126/126/70
f 127/127/79 128/128/79 120/120/77
f 120/120/77 128/128/79 119/119/76
f 129/129/73 130/130/73 131/131/73
f 131/131/73 130/130/73 132/132/73
f 133/133/80 134/134/80 135/135/80
f 135/135/80 134/134/80 136/136/80
f 137/137/80 134/134/80 138/138/80
f 138/138/80 134/134/80 133/133/80
f 137/137/80 138/138/80 139/139/80
f 140/140/80 137/137/80 139/139/80
f 141/141/80 142/142/80 143/143/80
f 143/143/80 142/142/80 144/144/80
f 142/142/80 141/141/80 139/139/80
f 139/139/80 141/141/80 140/140/80
