# ..:::Stalker models:::..
# WebSite: http://excalibur-craft.ru
mtllib el_box_04.mtl
o 0.013
v 0.322242 0.629482 -0.431251
v 0.332606 0.629482 -0.381893
v -0.173636 0.629482 -0.847342
v -0.224044 0.629482 -0.848978
v 0.332606 0.629482 -0.381893
v 0.322241 1.535776 -0.431251
v 0.332607 1.995161 -0.381893
v 0.322242 1.813227 -0.431251
v -0.173635 1.813227 -0.847342
v -0.224044 1.995161 -0.848978
v -0.173636 1.995161 -0.847342
v 0.322242 1.995161 -0.431251
v 0.322242 0.629482 -0.431251
v -0.205513 0.916122 -0.811142
v -0.213495 1.073559 -0.813270
v -0.263903 1.098453 -0.814906
v -0.255724 0.929360 -0.812939
v 0.331657 1.813227 -0.442472
v -0.164220 1.813227 -0.858562
v 0.322242 1.813227 -0.431251
v -0.173635 1.813227 -0.847342
v 0.331656 1.535776 -0.442470
v 0.331657 1.813227 -0.442472
v 0.322241 1.535776 -0.431251
v 0.322242 1.813227 -0.431251
v 0.322241 1.535776 -0.431251
v -0.173636 1.535776 -0.847341
v 0.331656 1.535776 -0.442470
v -0.164222 1.535776 -0.858561
v -0.164220 1.813227 -0.858562
v -0.164222 1.535776 -0.858561
v -0.173635 1.813227 -0.847342
v -0.173636 1.535776 -0.847341
v -0.164220 1.813227 -0.858562
v 0.331657 1.813227 -0.442472
v -0.164222 1.535776 -0.858561
v 0.331656 1.535776 -0.442470
v 0.332607 1.995161 -0.381893
v 0.322242 1.995161 -0.431251
v -0.224044 1.995161 -0.848978
v -0.173636 1.995161 -0.847342
v 0.332606 0.629482 -0.381893
v -0.263903 1.098453 -0.814906
v -0.255724 0.929360 -0.812939
v 0.339272 2.028218 0.009099
v 0.339272 2.000859 0.009099
v 0.339272 2.028218 -0.390992
v 0.339272 2.000859 -0.390849
v -0.400715 2.000859 0.009099
v -0.400715 2.028218 0.009099
v -0.400715 2.000859 -0.390849
v -0.400715 2.028218 -0.390992
v 0.298966 2.028218 -0.422140
v 0.298892 2.000859 -0.422140
v -0.360409 2.028218 -0.422140
v -0.360335 2.000859 -0.422141
v -0.400715 2.000859 0.009099
v 0.339272 2.000859 0.009099
v -0.400715 2.028218 0.009099
v 0.339272 2.028218 0.009099
v -0.394049 0.629482 0.000000
v -0.394049 1.995161 0.000000
v -0.394049 0.629482 -0.381893
v -0.394049 1.995161 -0.381893
v 0.332606 1.995161 0.000000
v 0.332606 0.629482 0.000000
v 0.332607 1.995161 -0.381893
v 0.332606 0.629482 -0.381893
v 0.298892 2.000859 -0.422140
v 0.332607 1.995161 -0.381893
v -0.360335 2.000859 -0.422141
v -0.394049 1.995161 -0.381893
v -0.400715 2.000859 -0.390849
v -0.394049 1.995161 -0.381893
v -0.400715 2.000859 0.009099
v -0.394049 1.995161 0.000000
v -0.394049 1.995161 0.000000
v 0.332606 1.995161 0.000000
v -0.400715 2.000859 0.009099
v 0.339272 2.000859 0.009099
v 0.332606 1.995161 0.000000
v 0.332607 1.995161 -0.381893
v 0.339272 2.000859 0.009099
v 0.339272 2.000859 -0.390849
v -0.025365 0.000000 -0.098023
v -0.035872 0.000000 -0.072658
v -0.025365 0.629482 -0.098023
v -0.035872 0.629482 -0.072658
v -0.025365 0.000000 -0.047293
v -0.025365 0.629482 -0.047293
v 0.000000 0.000000 -0.036786
v 0.000000 0.629482 -0.036786
v 0.000000 0.000000 -0.036786
v 0.025365 0.000000 -0.047293
v 0.000000 0.629482 -0.036786
v 0.025365 0.629482 -0.047293
v 0.035872 0.000000 -0.072658
v 0.035872 0.629482 -0.072658
v 0.025365 0.000000 -0.098023
v 0.025365 0.629482 -0.098023
v 0.000000 0.000000 -0.108530
v 0.000000 0.629482 -0.108530
v 0.339272 2.028218 -0.390992
v -0.400715 2.028218 -0.390992
v 0.339272 2.028218 0.009099
v -0.400715 2.028218 0.009099
v 0.339272 2.000859 -0.390849
v -0.400715 2.000859 -0.390849
v 0.298892 2.000859 -0.422140
v 0.298966 2.028218 -0.422140
v -0.394049 0.629482 -0.381893
v -0.394049 0.629482 0.000000
v 0.332606 0.629482 0.000000
v -0.360409 2.028218 -0.422140
v 0.298966 2.028218 -0.422140
v 0.332606 0.629482 0.000000
v 0.332606 1.995161 0.000000
v -0.394049 0.629482 0.000000
v -0.394049 1.995161 0.000000
v -0.394049 1.995161 -0.381893
v 0.332607 1.995161 -0.381893
v -0.373019 1.977299 -0.381893
v 0.311576 1.977299 -0.381893
v 0.332607 1.995161 -0.381893
v 0.332606 0.629482 -0.381893
v 0.311576 1.977299 -0.381893
v 0.311576 0.647344 -0.381893
v -0.394049 0.629482 -0.381893
v -0.394049 1.995161 -0.381893
v -0.373019 0.647344 -0.381893
v -0.373019 1.977299 -0.381893
v 0.332606 0.629482 -0.381893
v -0.394049 0.629482 -0.381893
v 0.311576 0.647344 -0.381893
v -0.373019 0.647344 -0.381893
v -0.373019 1.977299 -0.381893
v 0.311576 1.977299 -0.381893
v -0.373019 1.977299 -0.067884
v 0.311576 1.977299 -0.067884
v 0.311576 1.977299 -0.381893
v 0.311576 0.647344 -0.381893
v 0.311576 1.977299 -0.067884
v 0.311576 0.647344 -0.067884
v -0.373019 0.647344 -0.381893
v -0.373019 1.977299 -0.381893
v -0.373019 0.647344 -0.067884
v -0.373019 1.977299 -0.067884
v 0.311576 0.647344 -0.381893
v -0.373019 0.647344 -0.381893
v 0.311576 0.647344 -0.067884
v -0.373019 0.647344 -0.067884
v 0.311576 1.977299 -0.067884
v 0.311576 0.647344 -0.067884
v -0.373019 1.977299 -0.067884
v -0.373019 0.647344 -0.067884
v -0.224044 1.995161 -0.848978
v 0.332607 1.995161 -0.381893
v -0.173636 1.535776 -0.847341
v -0.173636 0.629482 -0.847342
v -0.224044 0.629482 -0.848978
v -0.224044 0.629482 -0.848978
vt 0.2622 0.4063
vt 0.2769 0.4178
vt 0.0233 0.4063
vt 0.0087 0.4178
vt 0.6580 0.3875
vt 0.6713 0.6583
vt 0.6580 0.7956
vt 0.6713 0.7412
vt 0.8419 0.7412
vt 0.8551 0.7956
vt 0.8414 0.7922
vt 0.6717 0.7922
vt 0.6713 0.3875
vt 0.8419 0.4732
vt 0.8419 0.5202
vt 0.8551 0.5277
vt 0.8551 0.4771
vt 0.6373 0.3960
vt 0.6373 0.9805
vt 0.6222 0.3960
vt 0.6222 0.9805
vt 0.6373 0.6608
vt 0.6373 0.9805
vt 0.6222 0.6608
vt 0.6222 0.9805
vt 0.6222 0.9805
vt 0.6222 0.3960
vt 0.6373 0.9805
vt 0.6373 0.3960
vt 0.6373 0.6608
vt 0.6373 0.9805
vt 0.6222 0.6608
vt 0.6222 0.9805
vt 0.9982 0.1100
vt 0.9982 0.3880
vt 0.8513 0.1100
vt 0.8513 0.3880
vt 0.6613 0.8004
vt 0.6717 0.7922
vt 0.8518 0.8004
vt 0.8414 0.7922
vt 0.2783 0.2225
vt 0.4098 0.3875
vt 0.3624 0.3875
vt 0.2058 0.3446
vt 0.2058 0.3306
vt 0.0425 0.3446
vt 0.0426 0.3306
vt 0.0905 0.3292
vt 0.0904 0.3432
vt 0.2538 0.3299
vt 0.2538 0.3439
vt 0.0056 0.3445
vt 0.0056 0.3305
vt 0.2746 0.3440
vt 0.2746 0.3300
vt 0.0110 0.3306
vt 0.2741 0.3306
vt 0.0110 0.3446
vt 0.2741 0.3446
vt 0.2766 0.4395
vt 0.2766 0.9001
vt 0.3902 0.4395
vt 0.3902 0.9001
vt 0.2766 0.9001
vt 0.2766 0.4395
vt 0.3902 0.9001
vt 0.3902 0.4395
vt 0.2693 0.8394
vt 0.2435 0.8610
vt 0.2693 0.4170
vt 0.2435 0.3954
vt 0.2538 0.3299
vt 0.2501 0.3263
vt 0.0905 0.3292
vt 0.0942 0.3256
vt 0.0134 0.3262
vt 0.2718 0.3262
vt 0.0110 0.3306
vt 0.2741 0.3306
vt 0.2021 0.3270
vt 0.0462 0.3270
vt 0.2058 0.3306
vt 0.0426 0.3306
vt 0.6213 0.7472
vt 0.6163 0.7472
vt 0.6213 0.6373
vt 0.6163 0.6373
vt 0.6113 0.7472
vt 0.6113 0.6373
vt 0.6064 0.7472
vt 0.6064 0.6373
vt 0.6461 0.7472
vt 0.6411 0.7472
vt 0.6461 0.6373
vt 0.6411 0.6373
vt 0.6362 0.7472
vt 0.6362 0.6373
vt 0.6312 0.7472
vt 0.6312 0.6373
vt 0.6262 0.7472
vt 0.6262 0.6373
vt 0.0038 0.4178
vt 0.2769 0.4178
vt 0.0038 0.5654
vt 0.2769 0.5654
vt 0.2492 0.8653
vt 0.2492 0.3911
vt 0.0217 0.3305
vt 0.0217 0.3445
vt 0.0087 0.4178
vt 0.0087 0.5587
vt 0.2769 0.5587
vt 0.2620 0.4063
vt 0.0186 0.4063
vt 0.2782 0.2211
vt 0.6584 0.2211
vt 0.2782 0.3868
vt 0.6584 0.3868
vt 0.6515 1.0143
vt 0.6515 0.7909
vt 0.6466 1.0078
vt 0.6466 0.7974
vt 0.6516 0.8036
vt 0.6516 0.3839
vt 0.6458 0.7981
vt 0.6458 0.3894
vt 0.6524 0.3831
vt 0.6524 0.8029
vt 0.6466 0.3886
vt 0.6466 0.7974
vt 0.6507 0.7830
vt 0.6507 1.0063
vt 0.6458 0.7894
vt 0.6458 0.9998
vt 0.6466 1.0078
vt 0.6466 0.7974
vt 0.5599 1.0078
vt 0.5599 0.7974
vt 0.6458 0.7981
vt 0.6458 0.3894
vt 0.5591 0.7981
vt 0.5591 0.3894
vt 0.6466 0.3886
vt 0.6466 0.7974
vt 0.5599 0.3886
vt 0.5599 0.7974
vt 0.6458 0.7894
vt 0.6458 0.9998
vt 0.5591 0.7894
vt 0.5591 0.9998
vt 0.3940 0.7966
vt 0.3940 0.3863
vt 0.6016 0.7966
vt 0.6016 0.3863
vt 0.6613 0.3875
vt 0.6613 0.2225
vt 0.8419 0.6583
vt 0.8419 0.3875
vt 0.8551 0.3875
vt 0.2783 0.3875
vn -0.0000 -1.0000 0.0000
vn 0.9787 0.0000 -0.2055
vn 0.8842 -0.0237 -0.4665
vn 0.9110 -0.0000 -0.4124
vn 0.3572 -0.0000 -0.9340
vn -0.0514 -0.0092 -0.9986
vn 0.7933 -0.0001 -0.6088
vn 0.7324 0.0487 -0.6791
vn 0.2854 0.0899 -0.9542
vn 0.3277 -0.0329 -0.9442
vn -0.0652 -0.0372 -0.9972
vn 0.0430 0.0348 -0.9985
vn 0.0000 1.0000 0.0000
vn 0.7660 0.0000 0.6428
vn 0.7661 -0.0000 0.6428
vn -0.7660 0.0000 -0.6428
vn -0.7661 0.0000 -0.6428
vn 0.6428 -0.0000 -0.7660
vn -0.6083 -0.0594 0.7915
vn -0.6094 0.0127 0.7927
vn -0.6178 -0.0890 0.7813
vn 1.0000 0.0000 0.0000
vn 0.8978 -0.0016 -0.4404
vn 0.8979 -0.0023 -0.4401
vn -1.0000 0.0000 0.0000
vn -0.8978 -0.0016 -0.4404
vn -0.8976 -0.0023 -0.4407
vn 0.3231 -0.0009 -0.9464
vn 0.3234 -0.0015 -0.9463
vn -0.3233 -0.0016 -0.9463
vn -0.3238 -0.0009 -0.9461
vn 0.0000 -0.0000 1.0000
vn 0.1417 -0.9567 -0.2541
vn 0.3351 -0.9323 -0.1358
vn -0.0943 -0.9717 -0.2165
vn -0.4172 -0.8992 -0.1320
vn -0.4815 -0.8564 -0.1864
vn -0.6498 -0.7601 -0.0000
vn 0.0000 -0.8476 0.5307
vn 0.0000 -0.8475 0.5307
vn 0.6497 -0.7601 0.0000
vn 0.3351 -0.9324 -0.1358
vn 0.6498 -0.7601 0.0000
vn 0.4815 -0.8564 -0.1864
vn -0.6038 0.0000 -0.7972
vn -0.9906 0.0000 -0.1368
vn -0.7972 -0.0001 -0.6038
vn -0.9906 0.0000 0.1368
vn -0.7972 -0.0003 0.6038
vn -0.6038 0.0000 0.7972
vn -0.1368 0.0000 0.9906
vn 0.1368 -0.0000 0.9906
vn 0.6038 -0.0002 0.7972
vn 0.7972 0.0001 0.6038
vn 0.9906 -0.0000 0.1368
vn 0.9906 0.0002 -0.1368
vn 0.7972 0.0001 -0.6038
vn 0.6038 0.0002 -0.7972
vn 0.1368 0.0000 -0.9906
vn -0.1368 0.0002 -0.9906
vn 0.3231 -0.0008 -0.9464
vn 0.0000 0.0000 -1.0000
vn -0.6417 0.0576 0.7648
vn -0.6152 0.0288 0.7878
vn 0.1194 -0.0562 -0.9913
vn 0.3520 0.1557 -0.9230
vn 0.0505 0.1275 -0.9906
vn -0.6347 -0.1580 0.7564
usemtl prop_el_box.004
s 1
f 1/1/1 2/2/1 3/3/1
f 3/3/1 2/2/1 4/4/1
f 5/5/2 6/6/3 7/7/2
f 7/7/2 6/6/3 8/8/4
f 9/9/5 10/10/6 11/11/5
f 8/8/4 9/9/5 12/12/7
f 12/12/7 9/9/5 11/11/5
f 5/5/2 13/13/8 6/6/3
f 13/13/8 14/14/9 15/15/10
f 16/16/11 15/15/10 17/17/12
f 17/17/12 15/15/10 14/14/9
f 7/7/2 8/8/4 12/12/7
f 18/18/13 19/19/13 20/20/13
f 20/20/13 19/19/13 21/21/13
f 22/22/14 23/23/15 24/24/14
f 24/24/14 23/23/15 25/25/15
f 26/26/1 27/27/1 28/28/1
f 28/28/1 27/27/1 29/29/1
f 30/30/16 31/31/17 32/32/16
f 32/32/16 31/31/17 33/33/17
f 34/34/18 35/35/18 36/36/18
f 36/36/18 35/35/18 37/37/18
f 38/38/13 39/39/13 40/40/13
f 40/40/13 39/39/13 41/41/13
f 42/42/19 43/43/20 44/44/21
f 45/45/22 46/46/22 47/47/23
f 47/47/23 46/46/22 48/48/24
f 49/49/25 50/50/25 51/51/26
f 51/51/26 50/50/25 52/52/27
f 53/53/28 54/54/29 55/55/30
f 55/55/30 54/54/29 56/56/31
f 57/57/32 58/58/32 59/59/32
f 59/59/32 58/58/32 60/60/32
f 61/61/25 62/62/25 63/63/25
f 63/63/25 62/62/25 64/64/25
f 65/65/22 66/66/22 67/67/22
f 67/67/22 66/66/22 68/68/22
f 69/69/33 70/70/34 71/71/35
f 71/71/35 70/70/34 72/72/36
f 73/73/37 74/74/36 75/75/38
f 75/75/38 74/74/36 76/76/38
f 77/77/39 78/78/40 79/79/39
f 79/79/39 78/78/40 80/80/40
f 81/81/41 82/82/42 83/83/43
f 83/83/43 82/82/42 84/84/44
f 85/85/45 86/86/46 87/87/47
f 87/87/47 86/86/46 88/88/48
f 86/86/46 89/89/49 88/88/48
f 88/88/48 89/89/49 90/90/50
f 89/89/49 91/91/51 90/90/50
f 90/90/50 91/91/51 92/92/52
f 93/93/51 94/94/53 95/95/52
f 95/95/52 94/94/53 96/96/54
f 94/94/53 97/97/55 96/96/54
f 96/96/54 97/97/55 98/98/56
f 97/97/55 99/99/57 98/98/56
f 98/98/56 99/99/57 100/100/58
f 99/99/57 101/101/59 100/100/58
f 100/100/58 101/101/59 102/102/60
f 101/101/59 85/85/45 102/102/60
f 102/102/60 85/85/45 87/87/47
f 103/103/13 104/104/13 105/105/13
f 105/105/13 104/104/13 106/106/13
f 70/70/34 69/69/33 107/107/44
f 72/72/36 108/108/37 71/71/35
f 48/48/24 109/109/29 47/47/23
f 47/47/23 109/109/29 110/110/61
f 52/52/27 55/55/30 51/51/26
f 51/51/26 55/55/30 56/56/31
f 111/111/1 2/2/1 112/112/1
f 112/112/1 2/2/1 113/113/1
f 114/114/13 104/104/13 115/115/13
f 115/115/13 104/104/13 103/103/13
f 116/116/32 117/117/32 118/118/32
f 118/118/32 117/117/32 119/119/32
f 120/120/62 121/121/62 122/122/62
f 122/122/62 121/121/62 123/123/62
f 124/124/62 125/125/62 126/126/62
f 126/126/62 125/125/62 127/127/62
f 128/128/62 129/129/62 130/130/62
f 130/130/62 129/129/62 131/131/62
f 132/132/62 133/133/62 134/134/62
f 134/134/62 133/133/62 135/135/62
f 136/136/1 137/137/1 138/138/1
f 138/138/1 137/137/1 139/139/1
f 140/140/25 141/141/25 142/142/25
f 142/142/25 141/141/25 143/143/25
f 144/144/22 145/145/22 146/146/22
f 146/146/22 145/145/22 147/147/22
f 148/148/13 149/149/13 150/150/13
f 150/150/13 149/149/13 151/151/13
f 152/152/62 153/153/62 154/154/62
f 154/154/62 153/153/62 155/155/62
f 156/156/63 43/43/20 157/157/64
f 157/157/64 43/43/20 42/42/19
f 16/16/11 10/10/6 158/158/65
f 158/158/65 10/10/6 9/9/5
f 15/15/10 16/16/11 158/158/65
f 13/13/8 15/15/10 6/6/3
f 6/6/3 15/15/10 158/158/65
f 13/13/8 159/159/66 14/14/9
f 17/17/12 14/14/9 160/160/67
f 160/160/67 14/14/9 159/159/66
f 42/42/19 44/44/21 161/161/68
