# ..:::Stalker models:::..
# WebSite: http://excalibur-craft.ru
mtllib el_box_08.mtl
o 0.019
v -0.025365 0.000000 -0.109084
v -0.035872 0.000000 -0.083719
v -0.025365 1.264496 -0.109084
v -0.035872 1.264496 -0.083719
v -0.025365 0.000000 -0.058354
v -0.025365 1.264496 -0.058354
v 0.000000 0.000000 -0.047847
v 0.000000 1.264496 -0.047847
v 0.000000 0.000000 -0.047847
v 0.025365 0.000000 -0.058354
v 0.000000 1.264496 -0.047847
v 0.025365 1.264496 -0.058354
v 0.035872 0.000000 -0.083719
v 0.035872 1.264496 -0.083719
v 0.025365 0.000000 -0.109084
v 0.025365 1.264496 -0.109084
v 0.000000 0.000000 -0.119590
v 0.000000 1.264496 -0.119590
v -0.234506 1.310754 -0.280290
v -0.220957 1.278045 -0.280290
v -0.234506 1.310754 0.000000
v -0.220957 1.278045 0.000000
v -0.188248 1.264496 -0.280290
v -0.188248 1.264496 0.000000
v -0.188248 1.264496 -0.280290
v 0.188248 1.264496 -0.280290
v -0.188248 1.264496 0.000000
v 0.188248 1.264496 0.000000
v 0.220958 1.278045 -0.280290
v 0.220958 1.278045 0.000000
v 0.234506 1.310754 -0.280290
v 0.234506 1.310754 0.000000
v 0.234506 1.981960 -0.280290
v 0.234506 1.981960 0.000000
v 0.220958 2.014669 -0.280290
v 0.220958 2.014669 0.000000
v 0.188248 2.028218 -0.280290
v 0.188248 2.028218 0.000000
v 0.188248 2.028218 -0.280290
v -0.188248 2.028218 -0.280290
v 0.188248 2.028218 0.000000
v -0.188248 2.028218 0.000000
v -0.220957 2.014669 -0.280290
v -0.220957 2.014669 0.000000
v -0.234506 1.981960 -0.280290
v -0.234506 1.981960 0.000000
v 0.249102 1.869143 -0.275550
v 0.249102 1.910098 -0.275550
v 0.249102 1.869143 -0.238191
v 0.249102 1.910098 -0.238191
v 0.234507 1.869143 -0.275550
v 0.234507 1.910098 -0.275550
v 0.234507 1.910098 -0.233986
v 0.249102 1.910098 -0.238191
v 0.234507 1.910098 -0.275550
v 0.249102 1.910098 -0.275550
v 0.234507 1.910098 -0.233986
v 0.234507 1.869143 -0.233986
v 0.234507 1.869143 -0.233986
v 0.234507 1.869143 -0.275550
v 0.249102 1.869143 -0.238191
v 0.249102 1.869143 -0.275550
v 0.254324 1.874403 -0.277947
v 0.254324 1.904839 -0.277947
v 0.254324 1.874403 -0.269276
v 0.254324 1.904839 -0.269276
v 0.234506 1.874403 -0.280290
v 0.234506 1.904839 -0.280290
v 0.234506 1.904839 -0.280290
v 0.234506 1.904839 -0.266934
v 0.254324 1.904839 -0.277947
v 0.254324 1.904839 -0.269276
v 0.234506 1.904839 -0.266934
v 0.234506 1.874403 -0.266934
v 0.234506 1.874403 -0.266934
v 0.234506 1.874403 -0.280290
v 0.254324 1.874403 -0.269276
v 0.254324 1.874403 -0.277947
v 0.249102 1.405252 -0.275550
v 0.249102 1.446207 -0.275550
v 0.249102 1.405252 -0.238191
v 0.249102 1.446207 -0.238191
v 0.234507 1.405252 -0.275550
v 0.234507 1.446207 -0.275550
v 0.234507 1.446207 -0.233986
v 0.249102 1.446207 -0.238191
v 0.234507 1.446207 -0.275550
v 0.249102 1.446207 -0.275550
v 0.234507 1.446207 -0.233986
v 0.234507 1.405252 -0.233986
v 0.234507 1.405252 -0.233986
v 0.234507 1.405252 -0.275550
v 0.249102 1.405252 -0.238191
v 0.249102 1.405252 -0.275550
v 0.254324 1.410512 -0.277947
v 0.254324 1.440948 -0.277947
v 0.254324 1.410512 -0.269276
v 0.254324 1.440948 -0.269276
v 0.234506 1.410512 -0.280290
v 0.234506 1.440948 -0.280290
v 0.234506 1.440948 -0.280290
v 0.234506 1.440948 -0.266934
v 0.254324 1.440948 -0.277947
v 0.254324 1.440948 -0.269276
v 0.234506 1.440948 -0.266934
v 0.234506 1.410512 -0.266934
v 0.234506 1.410512 -0.266934
v 0.234506 1.410512 -0.280290
v 0.254324 1.410512 -0.269276
v 0.254324 1.410512 -0.277947
v -0.188248 2.028218 0.000000
v -0.220957 2.014669 0.000000
v 0.188248 2.028218 0.000000
v 0.220958 2.014669 0.000000
v -0.234506 1.981960 0.000000
v 0.234506 1.981960 0.000000
v -0.234506 1.310754 0.000000
v 0.234506 1.310754 0.000000
v 0.220958 1.278045 0.000000
v -0.220957 1.278045 0.000000
v 0.188248 1.264496 0.000000
v -0.188248 1.264496 0.000000
v 0.207233 1.999503 -0.037274
v 0.219940 1.968140 -0.037274
v 0.176555 2.012493 -0.037274
v -0.176555 2.012493 -0.037274
v 0.219940 1.324573 -0.037274
v -0.207232 1.999503 -0.037274
v -0.219939 1.968140 -0.037274
v 0.207233 1.293211 -0.037274
v 0.176555 1.280220 -0.037274
v -0.207232 1.293211 -0.037274
v -0.219939 1.324573 -0.037274
v -0.176555 1.280220 -0.037274
v -0.188248 2.028218 -0.280290
v 0.188248 2.028218 -0.280290
v -0.176555 2.012493 -0.280290
v 0.176555 2.012493 -0.280290
v 0.220958 2.014669 -0.280290
v 0.207233 1.999503 -0.280290
v 0.188248 2.028218 -0.280290
v 0.220958 2.014669 -0.280290
v 0.234506 1.981960 -0.280290
v 0.219940 1.968140 -0.280290
v 0.234506 1.981960 -0.280290
v 0.234506 1.310754 -0.280290
v 0.219940 1.324573 -0.280290
v 0.220958 1.278045 -0.280290
v 0.207233 1.293211 -0.280290
v 0.234506 1.310754 -0.280290
v 0.220958 1.278045 -0.280290
v 0.188248 1.264496 -0.280290
v 0.176555 1.280220 -0.280290
v 0.188248 1.264496 -0.280290
v -0.188248 1.264496 -0.280290
v 0.176555 1.280220 -0.280290
v -0.176555 1.280220 -0.280290
v -0.220957 1.278045 -0.280290
v -0.207232 1.293211 -0.280290
v -0.188248 1.264496 -0.280290
v -0.220957 1.278045 -0.280290
v -0.234506 1.310754 -0.280290
v -0.219939 1.324573 -0.280290
v -0.234506 1.310754 -0.280290
v -0.234506 1.981960 -0.280290
v -0.219939 1.968140 -0.280290
v -0.220957 2.014669 -0.280290
v -0.207232 1.999503 -0.280290
v -0.234506 1.981960 -0.280290
v -0.220957 2.014669 -0.280290
v -0.188248 2.028218 -0.280290
v -0.176555 2.012493 -0.280290
v 0.176555 2.012493 -0.280290
v -0.176555 2.012493 -0.037274
v 0.176555 2.012493 -0.037274
v 0.207233 1.999503 -0.280290
v 0.207233 1.999503 -0.037274
v 0.219940 1.968140 -0.280290
v 0.219940 1.968140 -0.037274
v 0.219940 1.324573 -0.280290
v 0.219940 1.324573 -0.037274
v 0.207233 1.293211 -0.280290
v 0.207233 1.293211 -0.037274
v 0.176555 1.280220 -0.280290
v 0.176555 1.280220 -0.037274
v 0.176555 1.280220 -0.280290
v -0.176555 1.280220 -0.280290
v 0.176555 1.280220 -0.037274
v -0.176555 1.280220 -0.037274
v -0.207232 1.293211 -0.280290
v -0.207232 1.293211 -0.037274
v -0.219939 1.324573 -0.280290
v -0.219939 1.324573 -0.037274
v -0.219939 1.968140 -0.280290
v -0.219939 1.968140 -0.037274
v -0.207232 1.999503 -0.280290
v -0.207232 1.999503 -0.037274
v -0.199785 1.911245 -0.378353
v -0.207189 1.913976 -0.355919
v 0.153491 2.007025 -0.314944
v 0.150856 2.011050 -0.291655
v 0.208817 1.974617 -0.306100
v 0.206774 1.978295 -0.282716
v 0.380045 1.333143 -0.291119
v 0.379833 1.329960 -0.267575
v 0.347770 1.273351 -0.274427
v -0.013220 1.176278 -0.407965
v 0.348320 1.277134 -0.297899
v -0.007900 1.181353 -0.430580
v -0.177140 1.600286 -0.388264
v -0.187530 1.612332 -0.366135
v -0.231510 1.855235 -0.385132
v -0.239252 1.857368 -0.362771
v 0.185455 2.006396 -0.285766
v 0.187724 2.002421 -0.309118
v -0.234802 1.892456 -0.361197
v -0.227106 1.889952 -0.383574
v 0.375383 1.294872 -0.269150
v 0.375641 1.298427 -0.292677
v -0.047820 1.180932 -0.413853
v -0.042134 1.185958 -0.436407
v -0.069138 1.209032 -0.416904
v -0.063226 1.213762 -0.439425
v -0.161068 1.591286 -0.385685
v -0.234802 1.892456 -0.361197
v -0.239252 1.857368 -0.362771
v -0.207189 1.913976 -0.355919
v 0.150856 2.011050 -0.291655
v 0.379833 1.329960 -0.267575
v 0.206774 1.978295 -0.282716
v -0.187530 1.612332 -0.366135
v 0.185455 2.006396 -0.285766
v 0.375383 1.294872 -0.269150
v 0.347770 1.273351 -0.274427
v -0.013220 1.176278 -0.407965
v -0.069138 1.209032 -0.416904
v -0.047820 1.180932 -0.413853
vt 0.6086 0.7651
vt 0.6036 0.7651
vt 0.6086 0.5673
vt 0.6036 0.5673
vt 0.5986 0.7651
vt 0.5986 0.5673
vt 0.5937 0.7651
vt 0.5937 0.5673
vt 0.6334 0.7651
vt 0.6284 0.7651
vt 0.6334 0.5673
vt 0.6284 0.5673
vt 0.6235 0.7651
vt 0.6235 0.5673
vt 0.6185 0.7651
vt 0.6185 0.5673
vt 0.6135 0.7651
vt 0.6135 0.5673
vt 0.2766 0.4481
vt 0.2766 0.4341
vt 0.3877 0.4481
vt 0.3877 0.4341
vt 0.2766 0.4200
vt 0.3877 0.4200
vt 0.2766 0.9016
vt 0.2766 0.7523
vt 0.3877 0.9016
vt 0.3877 0.7523
vt 0.2766 0.7383
vt 0.3877 0.7383
vt 0.2766 0.7243
vt 0.3877 0.7243
vt 0.2766 0.4582
vt 0.3877 0.4582
vt 0.2766 0.4442
vt 0.3877 0.4442
vt 0.2766 0.4301
vt 0.3877 0.4301
vt 0.2766 0.8915
vt 0.2766 0.7423
vt 0.3877 0.8915
vt 0.3877 0.7423
vt 0.2766 0.7282
vt 0.3877 0.7282
vt 0.2766 0.7142
vt 0.3877 0.7142
vt 0.5974 0.8145
vt 0.6455 0.8145
vt 0.5974 0.8633
vt 0.6455 0.8633
vt 0.5974 0.7974
vt 0.6455 0.7974
vt 0.6233 0.8987
vt 0.6062 0.8987
vt 0.6233 0.8499
vt 0.6062 0.8499
vt 0.6455 0.8805
vt 0.5974 0.8805
vt 0.6062 0.8987
vt 0.6062 0.8499
vt 0.6233 0.8987
vt 0.6233 0.8499
vt 0.5437 0.8269
vt 0.5437 0.8522
vt 0.5326 0.8269
vt 0.5326 0.8522
vt 0.5619 0.8269
vt 0.5619 0.8522
vt 0.6233 0.8641
vt 0.6023 0.8641
vt 0.6233 0.8987
vt 0.6023 0.8987
vt 0.5144 0.8522
vt 0.5144 0.8269
vt 0.6023 0.8641
vt 0.6233 0.8641
vt 0.6023 0.8987
vt 0.6233 0.8987
vt 0.5974 0.8145
vt 0.6455 0.8145
vt 0.5974 0.8633
vt 0.6455 0.8633
vt 0.5974 0.7974
vt 0.6455 0.7974
vt 0.6233 0.8987
vt 0.6062 0.8987
vt 0.6233 0.8499
vt 0.6062 0.8499
vt 0.6455 0.8805
vt 0.5974 0.8805
vt 0.6062 0.8987
vt 0.6062 0.8499
vt 0.6233 0.8987
vt 0.6233 0.8499
vt 0.5437 0.8269
vt 0.5437 0.8522
vt 0.5326 0.8269
vt 0.5326 0.8522
vt 0.5619 0.8269
vt 0.5619 0.8522
vt 0.6233 0.8641
vt 0.6023 0.8641
vt 0.6233 0.8987
vt 0.6023 0.8987
vt 0.5144 0.8522
vt 0.5144 0.8269
vt 0.6023 0.8641
vt 0.6233 0.8641
vt 0.6023 0.8987
vt 0.6233 0.8987
vt 0.6425 0.3715
vt 0.6377 0.3831
vt 0.6425 0.2376
vt 0.6377 0.2260
vt 0.6261 0.3880
vt 0.6261 0.2211
vt 0.3873 0.3880
vt 0.3873 0.2211
vt 0.3757 0.2260
vt 0.3757 0.3831
vt 0.3709 0.2376
vt 0.3709 0.3715
vt 0.6018 0.9116
vt 0.5931 0.9154
vt 0.6054 0.9023
vt 0.6054 0.7957
vt 0.4148 0.9154
vt 0.6018 0.7865
vt 0.5931 0.7826
vt 0.4062 0.9116
vt 0.4026 0.9023
vt 0.4062 0.7865
vt 0.4148 0.7826
vt 0.4026 0.7957
vt 0.6528 0.6829
vt 0.6528 0.7767
vt 0.6496 0.6858
vt 0.6496 0.7738
vt 0.6536 0.7837
vt 0.6496 0.7821
vt 0.6535 0.7749
vt 0.6534 0.7799
vt 0.6534 0.7887
vt 0.6496 0.7905
vt 0.6526 0.7871
vt 0.6526 0.9542
vt 0.6496 0.9508
vt 0.6534 0.9614
vt 0.6496 0.9592
vt 0.6534 0.9526
vt 0.6536 0.9576
vt 0.6535 0.9664
vt 0.6496 0.9675
vt 0.6528 0.4012
vt 0.6528 0.4950
vt 0.6496 0.4041
vt 0.6496 0.4921
vt 0.6536 0.5020
vt 0.6496 0.5004
vt 0.6535 0.4932
vt 0.6534 0.4982
vt 0.6534 0.5070
vt 0.6496 0.5088
vt 0.6526 0.5054
vt 0.6526 0.6725
vt 0.6496 0.6691
vt 0.6534 0.6797
vt 0.6496 0.6775
vt 0.6534 0.6709
vt 0.6536 0.6759
vt 0.6535 0.6847
vt 0.6496 0.6858
vt 0.6496 0.7738
vt 0.5996 0.6857
vt 0.5996 0.7736
vt 0.6496 0.7821
vt 0.5996 0.7819
vt 0.6496 0.7905
vt 0.5996 0.7903
vt 0.6496 0.9508
vt 0.5996 0.9506
vt 0.6496 0.9592
vt 0.5996 0.9591
vt 0.6496 0.9675
vt 0.5996 0.9674
vt 0.6496 0.4041
vt 0.6496 0.4921
vt 0.5996 0.4040
vt 0.5996 0.4919
vt 0.6496 0.5004
vt 0.5996 0.5002
vt 0.6496 0.5088
vt 0.5996 0.5086
vt 0.6496 0.6691
vt 0.5996 0.6689
vt 0.6496 0.6775
vt 0.5996 0.6774
vt 0.9887 0.9763
vt 0.9990 0.9775
vt 0.9881 0.8204
vt 0.9983 0.8192
vt 0.9685 0.8055
vt 0.9704 0.7978
vt 0.6824 0.8066
vt 0.6804 0.7989
vt 0.6529 0.8204
vt 0.6536 0.9780
vt 0.6631 0.8215
vt 0.6637 0.9768
vt 0.8556 0.9914
vt 0.8616 0.9991
vt 0.9693 0.9913
vt 0.9712 0.9990
vt 0.9896 0.8045
vt 0.9817 0.8102
vt 0.9904 0.9922
vt 0.9825 0.9865
vt 0.6614 0.8057
vt 0.6693 0.8114
vt 0.6622 0.9926
vt 0.6700 0.9869
vt 0.6813 0.9994
vt 0.6831 0.9916
vt 0.8499 0.9867
vt 0.6594 0.6364
vt 0.6435 0.6307
vt 0.6665 0.6485
vt 0.6659 0.7796
vt 0.4027 0.7965
vt 0.6428 0.7974
vt 0.5528 0.6306
vt 0.6587 0.7918
vt 0.3869 0.7908
vt 0.3799 0.7786
vt 0.3804 0.6481
vt 0.4034 0.6304
vt 0.3875 0.6360
vn -0.6037 0.0000 -0.7972
vn -0.9906 -0.0002 -0.1368
vn -0.7972 0.0002 -0.6038
vn -0.9906 0.0001 0.1368
vn -0.7972 -0.0002 0.6038
vn -0.6038 0.0000 0.7972
vn -0.1368 0.0000 0.9906
vn 0.1368 -0.0000 0.9906
vn 0.6038 -0.0002 0.7972
vn 0.7972 0.0002 0.6038
vn 0.9906 -0.0000 0.1368
vn 0.9906 0.0001 -0.1368
vn 0.7972 -0.0002 -0.6038
vn 0.6037 0.0000 -0.7972
vn 0.1368 0.0001 -0.9906
vn -0.1368 -0.0001 -0.9906
vn -0.9915 -0.1298 0.0000
vn -0.7972 -0.6037 0.0001
vn -0.9657 -0.2596 0.0000
vn -0.6037 -0.7972 0.0003
vn -0.2596 -0.9657 0.0000
vn -0.1298 -0.9915 -0.0000
vn 0.1298 -0.9915 -0.0000
vn 0.2595 -0.9657 0.0000
vn 0.6038 -0.7972 0.0001
vn 0.7972 -0.6037 0.0002
vn 0.9657 -0.2595 -0.0000
vn 0.9915 -0.1298 0.0000
vn 0.9915 0.1298 -0.0000
vn 0.9657 0.2595 0.0000
vn 0.7972 0.6037 0.0001
vn 0.6038 0.7972 -0.0001
vn 0.2595 0.9657 0.0000
vn 0.1298 0.9915 -0.0001
vn 0.2596 0.9657 0.0000
vn -0.1298 0.9915 0.0000
vn 0.1298 0.9915 -0.0000
vn -0.2596 0.9657 0.0000
vn -0.6037 0.7972 0.0001
vn -0.7972 0.6037 -0.0001
vn -0.9657 0.2596 -0.0000
vn -0.9915 0.1298 -0.0000
vn 0.4472 0.0000 -0.8944
vn 0.8944 0.0000 -0.4472
vn 0.9213 -0.0000 0.3889
vn 0.6287 -0.0000 0.7777
vn 0.0000 0.0000 -1.0000
vn 0.0000 1.0000 0.0000
vn 0.2768 -0.0000 0.9609
vn 0.2769 -0.0000 0.9609
vn 0.0000 -1.0000 0.0000
vn 0.5280 0.0000 -0.8492
vn 0.9054 0.0000 -0.4246
vn 0.9054 0.0000 0.4246
vn 0.5280 0.0000 0.8493
vn 0.1174 0.0000 -0.9931
vn 0.1174 0.0000 0.9931
vn 0.0000 -0.0000 1.0000
vn 0.2647 -0.9643 0.0000
vn -0.1323 -0.9912 0.0000
vn 0.1323 -0.9912 -0.0000
vn -0.2647 -0.9643 0.0000
vn -0.6100 -0.7924 0.0000
vn -0.8018 -0.5975 0.0000
vn -0.9671 -0.2545 -0.0000
vn -0.9919 -0.1273 0.0000
vn -0.9919 0.1273 0.0000
vn -0.9671 0.2545 0.0000
vn -0.8018 0.5975 0.0000
vn -0.6100 0.7924 0.0000
vn -0.2646 0.9643 -0.0000
vn -0.1323 0.9912 0.0000
vn -0.2646 0.9644 0.0000
vn 0.1323 0.9912 0.0000
vn -0.1324 0.9912 0.0000
vn 0.2646 0.9644 0.0000
vn 0.6100 0.7924 0.0000
vn 0.8019 0.5975 -0.0000
vn 0.9671 0.2545 0.0000
vn 0.9919 0.1273 -0.0000
vn 0.9919 -0.1273 0.0000
vn 0.9671 -0.2545 -0.0000
vn 0.8018 -0.5975 0.0000
vn 0.6100 -0.7924 -0.0000
vn -0.1441 0.5840 -0.7989
vn -0.3981 0.8856 -0.2392
vn -0.0372 0.8861 -0.4620
vn 0.0302 0.9855 -0.1669
vn 0.6991 0.3011 -0.6485
vn 0.8985 0.4389 0.0095
vn 0.9518 0.1275 -0.2788
vn 1.0000 0.0026 0.0093
vn 0.5258 -0.8416 -0.1233
vn 0.1105 -0.9747 -0.1941
vn 0.4843 -0.6608 -0.5735
vn 0.2142 -0.7437 -0.6332
vn -0.6277 -0.1095 -0.7707
vn -0.9269 -0.2061 -0.3136
vn -0.6460 -0.0440 -0.7621
vn -0.9439 0.0250 -0.3292
vn 0.5152 0.8518 -0.0949
vn 0.4339 0.5436 -0.7185
vn -0.8036 0.4943 -0.3317
vn -0.3885 0.3263 -0.8617
vn 0.8721 -0.4852 -0.0637
vn 0.5919 -0.2256 -0.7738
vn -0.4467 -0.8427 -0.3004
vn -0.0682 -0.4721 -0.8789
vn -0.8494 -0.4229 -0.3158
vn -0.3658 -0.1478 -0.9189
vn 0.2463 0.1296 -0.9605
vn -0.1707 -0.0225 0.9851
vn -0.1675 -0.0309 0.9854
vn -0.1707 -0.0226 0.9851
vn -0.1681 -0.0359 0.9851
vn -0.2482 -0.0995 0.9636
vn -0.1820 -0.0280 0.9829
vn -0.1923 -0.0675 0.9790
vn -0.1766 -0.0335 0.9837
vn -0.2713 0.0373 0.9618
vn -0.2924 -0.1191 0.9489
vn -0.2740 -0.1548 0.9492
vn -0.2452 -0.2225 0.9436
usemtl prop_el_box.010
s 1
f 1/1/1 2/2/2 3/3/3
f 3/3/3 2/2/2 4/4/4
f 2/2/2 5/5/5 4/4/4
f 4/4/4 5/5/5 6/6/6
f 5/5/5 7/7/7 6/6/6
f 6/6/6 7/7/7 8/8/8
f 9/9/7 10/10/9 11/11/8
f 11/11/8 10/10/9 12/12/10
f 10/10/9 13/13/11 12/12/10
f 12/12/10 13/13/11 14/14/12
f 13/13/11 15/15/13 14/14/12
f 14/14/12 15/15/13 16/16/14
f 15/15/13 17/17/15 16/16/14
f 16/16/14 17/17/15 18/18/16
f 17/17/15 1/1/1 18/18/16
f 18/18/16 1/1/1 3/3/3
f 19/19/17 20/20/18 21/21/19
f 21/21/19 20/20/18 22/22/20
f 20/20/18 23/23/21 22/22/20
f 22/22/20 23/23/21 24/24/22
f 25/25/21 26/26/23 27/27/22
f 27/27/22 26/26/23 28/28/24
f 26/26/23 29/29/25 28/28/24
f 28/28/24 29/29/25 30/30/26
f 29/29/25 31/31/27 30/30/26
f 30/30/26 31/31/27 32/32/28
f 31/31/27 33/33/29 32/32/28
f 32/32/28 33/33/29 34/34/30
f 33/33/29 35/35/31 34/34/30
f 34/34/30 35/35/31 36/36/32
f 35/35/31 37/37/33 36/36/32
f 36/36/32 37/37/33 38/38/34
f 39/39/35 40/40/36 41/41/37
f 41/41/37 40/40/36 42/42/38
f 40/40/36 43/43/39 42/42/38
f 42/42/38 43/43/39 44/44/40
f 43/43/39 45/45/41 44/44/40
f 44/44/40 45/45/41 46/46/42
f 45/45/41 19/19/17 46/46/42
f 46/46/42 19/19/17 21/21/19
f 47/47/43 48/48/44 49/49/45
f 49/49/45 48/48/44 50/50/46
f 51/51/47 52/52/47 47/47/43
f 47/47/43 52/52/47 48/48/44
f 53/53/48 54/54/48 55/55/48
f 55/55/48 54/54/48 56/56/48
f 57/57/49 58/58/50 50/50/46
f 50/50/46 58/58/50 49/49/45
f 59/59/51 60/60/51 61/61/51
f 61/61/51 60/60/51 62/62/51
f 63/63/52 64/64/53 65/65/54
f 65/65/54 64/64/53 66/66/55
f 67/67/56 68/68/56 63/63/52
f 63/63/52 68/68/56 64/64/53
f 69/69/48 70/70/48 71/71/48
f 71/71/48 70/70/48 72/72/48
f 73/73/57 74/74/57 66/66/55
f 66/66/55 74/74/57 65/65/54
f 75/75/51 76/76/51 77/77/51
f 77/77/51 76/76/51 78/78/51
f 79/79/43 80/80/44 81/81/45
f 81/81/45 80/80/44 82/82/46
f 83/83/47 84/84/47 79/79/43
f 79/79/43 84/84/47 80/80/44
f 85/85/48 86/86/48 87/87/48
f 87/87/48 86/86/48 88/88/48
f 89/89/50 90/90/49 82/82/46
f 82/82/46 90/90/49 81/81/45
f 91/91/51 92/92/51 93/93/51
f 93/93/51 92/92/51 94/94/51
f 95/95/52 96/96/53 97/97/54
f 97/97/54 96/96/53 98/98/55
f 99/99/56 100/100/56 95/95/52
f 95/95/52 100/100/56 96/96/53
f 101/101/48 102/102/48 103/103/48
f 103/103/48 102/102/48 104/104/48
f 105/105/57 106/106/57 98/98/55
f 98/98/55 106/106/57 97/97/54
f 107/107/51 108/108/51 109/109/51
f 109/109/51 108/108/51 110/110/51
f 111/111/58 112/112/58 113/113/58
f 113/113/58 112/112/58 114/114/58
f 112/112/58 115/115/58 114/114/58
f 114/114/58 115/115/58 116/116/58
f 117/117/58 116/116/58 115/115/58
f 118/118/58 116/116/58 117/117/58
f 119/119/58 120/120/58 121/121/58
f 121/121/58 120/120/58 122/122/58
f 120/120/58 119/119/58 117/117/58
f 117/117/58 119/119/58 118/118/58
f 123/123/47 124/124/47 125/125/47
f 126/126/47 125/125/47 127/127/47
f 125/125/47 124/124/47 127/127/47
f 126/126/47 127/127/47 128/128/47
f 128/128/47 127/127/47 129/129/47
f 127/127/47 130/130/47 129/129/47
f 130/130/47 131/131/47 129/129/47
f 132/132/47 133/133/47 134/134/47
f 134/134/47 133/133/47 131/131/47
f 131/131/47 133/133/47 129/129/47
f 135/135/47 136/136/47 137/137/47
f 137/137/47 136/136/47 138/138/47
f 139/139/47 140/140/47 141/141/47
f 141/141/47 140/140/47 138/138/47
f 142/142/47 143/143/47 140/140/47
f 140/140/47 143/143/47 144/144/47
f 145/145/47 146/146/47 144/144/47
f 144/144/47 146/146/47 147/147/47
f 148/148/47 149/149/47 150/150/47
f 150/150/47 149/149/47 147/147/47
f 151/151/47 152/152/47 149/149/47
f 149/149/47 152/152/47 153/153/47
f 154/154/47 155/155/47 156/156/47
f 156/156/47 155/155/47 157/157/47
f 158/158/47 159/159/47 160/160/47
f 160/160/47 159/159/47 157/157/47
f 161/161/47 162/162/47 159/159/47
f 159/159/47 162/162/47 163/163/47
f 164/164/47 165/165/47 163/163/47
f 163/163/47 165/165/47 166/166/47
f 167/167/47 168/168/47 169/169/47
f 169/169/47 168/168/47 166/166/47
f 170/170/47 171/171/47 168/168/47
f 168/168/47 171/171/47 137/137/47
f 172/172/59 173/173/60 174/174/61
f 174/174/61 173/173/60 175/175/62
f 173/173/60 176/176/63 175/175/62
f 175/175/62 176/176/63 177/177/64
f 176/176/63 178/178/65 177/177/64
f 177/177/64 178/178/65 179/179/66
f 178/178/65 180/180/67 179/179/66
f 179/179/66 180/180/67 181/181/68
f 180/180/67 182/182/69 181/181/68
f 181/181/68 182/182/69 183/183/70
f 182/182/69 184/184/71 183/183/70
f 183/183/70 184/184/71 185/185/72
f 186/186/73 187/187/74 188/188/75
f 188/188/75 187/187/74 189/189/76
f 187/187/74 190/190/77 189/189/76
f 189/189/76 190/190/77 191/191/78
f 190/190/77 192/192/79 191/191/78
f 191/191/78 192/192/79 193/193/80
f 192/192/79 194/194/81 193/193/80
f 193/193/80 194/194/81 195/195/82
f 194/194/81 196/196/83 195/195/82
f 195/195/82 196/196/83 197/197/84
f 196/196/83 172/172/59 197/197/84
f 197/197/84 172/172/59 174/174/61
f 198/198/85 199/199/86 200/200/87
f 200/200/87 199/199/86 201/201/88
f 202/202/89 203/203/90 204/204/91
f 204/204/91 203/203/90 205/205/92
f 206/206/93 207/207/94 208/208/95
f 208/208/95 207/207/94 209/209/96
f 210/210/97 211/211/98 212/212/99
f 212/212/99 211/211/98 213/213/100
f 214/214/101 215/215/102 201/201/88
f 201/201/88 215/215/102 200/200/87
f 214/214/101 203/203/90 215/215/102
f 215/215/102 203/203/90 202/202/89
f 216/216/103 217/217/104 213/213/100
f 213/213/100 217/217/104 212/212/99
f 216/216/103 199/199/86 217/217/104
f 217/217/104 199/199/86 198/198/85
f 218/218/105 219/219/106 205/205/92
f 205/205/92 219/219/106 204/204/91
f 218/218/105 206/206/93 219/219/106
f 219/219/106 206/206/93 208/208/95
f 220/220/107 221/221/108 207/207/94
f 207/207/94 221/221/108 209/209/96
f 220/220/107 222/222/109 221/221/108
f 221/221/108 222/222/109 223/223/110
f 210/210/97 212/212/99 224/224/111
f 224/224/111 212/212/99 217/217/104
f 217/217/104 198/198/85 215/215/102
f 215/215/102 198/198/85 200/200/87
f 215/215/102 202/202/89 219/219/106
f 219/219/106 202/202/89 204/204/91
f 219/219/106 208/208/95 221/221/108
f 221/221/108 208/208/95 209/209/96
f 224/224/111 217/217/104 219/219/106
f 217/217/104 215/215/102 219/219/106
f 225/225/112 226/226/113 227/227/114
f 227/227/114 226/226/113 228/228/115
f 229/229/116 230/230/117 231/231/118
f 230/230/117 232/232/119 231/231/118
f 232/232/119 228/228/115 231/231/118
f 228/228/115 226/226/113 231/231/118
f 233/233/114 229/229/116 234/234/120
f 234/234/120 229/229/116 235/235/121
f 221/221/108 224/224/111 219/219/106
f 221/221/108 223/223/110 224/224/111
f 224/224/111 223/223/110 210/210/97
f 223/223/110 222/222/109 210/210/97
f 210/210/97 222/222/109 211/211/98
f 236/236/122 237/237/123 229/229/116
f 229/229/116 237/237/123 235/235/121
f 229/229/116 231/231/118 236/236/122
