# ..:::Stalker models:::..
# WebSite: http://excalibur-craft.ru
mtllib armatura.mtl
o 0
v -0.453058 0.960574 0.450887
v -0.453058 0.049217 0.450887
v -0.503152 0.049217 0.450887
v -0.503152 0.960574 0.450887
v -0.453058 0.960574 0.500983
v -0.503152 0.960574 0.500983
v -0.503152 0.049217 0.500982
v -0.453058 0.049215 0.500982
v -0.453058 0.002035 -0.500946
v -0.453058 0.002035 0.500946
v -0.503152 0.002035 0.500946
v -0.503152 0.002035 -0.500946
v -0.453058 0.052131 -0.500946
v -0.503152 0.052131 -0.500946
v -0.503152 0.052131 0.500946
v -0.453058 0.052131 0.500947
v -0.453058 0.953025 -0.500946
v -0.453058 0.953025 0.500946
v -0.503152 0.953025 0.500946
v -0.503152 0.953025 -0.500946
v -0.453058 1.003119 -0.500946
v -0.503152 1.003119 -0.500946
v -0.503152 1.003119 0.500946
v -0.453058 1.003119 0.500948
v -0.451385 0.990962 0.419861
v -0.451385 0.069480 -0.501622
v -0.501479 0.069480 -0.501622
v -0.501479 0.990962 0.419861
v -0.451385 0.940310 0.470511
v -0.501479 0.940310 0.470512
v -0.501479 0.018829 -0.450970
v -0.451385 0.018828 -0.450970
v 0.455922 0.960574 -0.446840
v 0.455922 0.049217 -0.446840
v 0.506016 0.049217 -0.446840
v 0.506016 0.960574 -0.446840
v 0.455922 0.960574 -0.496934
v 0.506016 0.960574 -0.496934
v 0.506016 0.049217 -0.496934
v 0.455922 0.049216 -0.496934
v 0.455922 0.002035 0.504995
v 0.455922 0.002035 -0.496898
v 0.506016 0.002035 -0.496898
v 0.506016 0.002035 0.504995
v 0.455922 0.052131 0.504995
v 0.506017 0.052131 0.504995
v 0.506016 0.052131 -0.496898
v 0.455922 0.052131 -0.496899
v 0.455922 0.953025 0.504995
v 0.455922 0.953025 -0.496899
v 0.506016 0.953025 -0.496897
v 0.506016 0.953025 0.504995
v 0.455922 1.003119 0.504995
v 0.506017 1.003119 0.504995
v 0.506016 1.003119 -0.496897
v 0.455922 1.003119 -0.496899
v 0.454249 0.990962 -0.415812
v 0.454249 0.069480 0.505669
v 0.504344 0.069480 0.505669
v 0.504343 0.990962 -0.415812
v 0.454249 0.940310 -0.466463
v 0.504343 0.940310 -0.466463
v 0.504344 0.018829 0.455019
v 0.454249 0.018828 0.455019
v 0.454444 0.960574 0.450887
v 0.454444 0.049215 0.450887
v 0.454444 0.049217 0.500982
v 0.454444 0.960574 0.500983
v 0.502510 0.960574 0.450887
v 0.502510 0.960574 0.500983
v 0.502510 0.049217 0.500982
v 0.502510 0.049215 0.450887
v -0.458841 0.002035 0.450887
v 0.502476 0.002035 0.450887
v 0.502476 0.002035 0.500982
v -0.458841 0.002035 0.500982
v -0.458841 0.052131 0.450887
v -0.458841 0.052131 0.500982
v 0.502476 0.052131 0.500982
v 0.502476 0.052131 0.450887
v -0.458841 0.953025 0.450887
v 0.502476 0.953025 0.450887
v 0.502476 0.953025 0.500983
v -0.458841 0.953025 0.500983
v -0.458841 1.003119 0.450887
v -0.458841 1.003119 0.500983
v 0.502476 1.003119 0.500983
v 0.502476 1.003119 0.450887
v 0.424673 0.990962 0.449214
v -0.459488 0.069480 0.449214
v -0.459488 0.069480 0.499309
v 0.424673 0.990962 0.499309
v 0.473273 0.940310 0.449214
v 0.473273 0.940310 0.499309
v -0.410888 0.018829 0.499309
v -0.410888 0.018828 0.449214
v -0.453118 0.960574 -0.450679
v -0.453118 0.049216 -0.450679
v -0.453118 0.049217 -0.500774
v -0.453118 0.960574 -0.500774
v -0.501183 0.960574 -0.450679
v -0.501183 0.960574 -0.500774
v -0.501183 0.049217 -0.500774
v -0.501183 0.049216 -0.450679
v 0.460167 0.002035 -0.450679
v -0.501150 0.002035 -0.450679
v -0.501150 0.002035 -0.500774
v 0.460167 0.002035 -0.500774
v 0.460167 0.052131 -0.450679
v 0.460167 0.052131 -0.500774
v -0.501150 0.052131 -0.500774
v -0.501150 0.052131 -0.450679
v 0.460167 0.953025 -0.450679
v -0.501150 0.953025 -0.450679
v -0.501150 0.953025 -0.500774
v 0.460167 0.953025 -0.500774
v 0.460167 1.003119 -0.450679
v 0.460167 1.003119 -0.500774
v -0.501150 1.003119 -0.500774
v -0.501150 1.003119 -0.450679
v -0.423347 0.990962 -0.449006
v 0.460814 0.069480 -0.449006
v 0.460814 0.069480 -0.499101
v -0.423348 0.990962 -0.499101
v -0.471947 0.940310 -0.449006
v -0.471947 0.940310 -0.499101
v 0.412214 0.018829 -0.499101
v 0.412214 0.018828 -0.449006
v 0.434927 0.951700 0.462090
v -0.485861 0.951700 -0.427105
v -0.440783 0.951700 -0.473785
v 0.480007 0.951700 0.415410
v 0.434927 1.001795 0.462090
v 0.480006 1.001795 0.415410
v -0.440783 1.001796 -0.473785
v -0.485861 1.001796 -0.427105
v 0.472549 0.004094 -0.431946
v -0.416646 0.004094 0.488844
v -0.463326 0.004094 0.443766
v 0.425869 0.004094 -0.477024
v 0.472547 0.054188 -0.431945
v 0.425869 0.054188 -0.477024
v -0.463326 0.054188 0.443766
v -0.416647 0.054188 0.488844
vt 0.7141 0.9383
vt 0.7085 0.0294
vt 0.6457 0.0293
vt 0.6514 0.9390
vt 0.4938 0.0246
vt 0.4459 0.0207
vt 0.4538 0.9544
vt 0.4977 0.9524
vt 0.6217 0.0351
vt 0.5758 0.0272
vt 0.5837 0.9472
vt 0.6335 0.9432
vt 0.7931 0.5757
vt 0.7405 0.5786
vt 0.7394 0.6235
vt 0.7926 0.6209
vt 0.5515 0.0233
vt 0.5115 0.0253
vt 0.5095 0.9491
vt 0.5574 0.9531
vt 0.7910 0.6401
vt 0.7380 0.6409
vt 0.7373 0.6978
vt 0.7891 0.6989
vt 0.7141 0.9383
vt 0.7085 0.0294
vt 0.6457 0.0293
vt 0.6514 0.9390
vt 0.4938 0.0246
vt 0.4459 0.0207
vt 0.4538 0.9544
vt 0.4977 0.9524
vt 0.6217 0.0351
vt 0.5758 0.0272
vt 0.5837 0.9472
vt 0.6335 0.9432
vt 0.7931 0.5757
vt 0.7405 0.5786
vt 0.7394 0.6235
vt 0.7926 0.6209
vt 0.5515 0.0233
vt 0.5115 0.0253
vt 0.5095 0.9491
vt 0.5574 0.9531
vt 0.7910 0.6401
vt 0.7380 0.6409
vt 0.7373 0.6978
vt 0.7891 0.6989
vt 0.7141 0.9383
vt 0.7085 0.0294
vt 0.6457 0.0293
vt 0.6514 0.9390
vt 0.4938 0.0246
vt 0.4459 0.0207
vt 0.4538 0.9544
vt 0.4977 0.9524
vt 0.6217 0.0351
vt 0.5758 0.0272
vt 0.5837 0.9472
vt 0.6335 0.9432
vt 0.7931 0.5757
vt 0.7405 0.5786
vt 0.7394 0.6235
vt 0.7926 0.6209
vt 0.5515 0.0233
vt 0.5115 0.0253
vt 0.5095 0.9491
vt 0.5574 0.9531
vt 0.7910 0.6401
vt 0.7380 0.6409
vt 0.7373 0.6978
vt 0.7891 0.6989
vt 0.7141 0.9383
vt 0.7085 0.0294
vt 0.6457 0.0293
vt 0.6514 0.9390
vt 0.4938 0.0246
vt 0.4459 0.0207
vt 0.4538 0.9544
vt 0.4977 0.9524
vt 0.6217 0.0351
vt 0.5758 0.0272
vt 0.5837 0.9472
vt 0.6335 0.9432
vt 0.7931 0.5757
vt 0.7405 0.5786
vt 0.7394 0.6235
vt 0.7926 0.6209
vt 0.5515 0.0233
vt 0.5115 0.0253
vt 0.5095 0.9491
vt 0.5574 0.9531
vt 0.7910 0.6401
vt 0.7380 0.6409
vt 0.7373 0.6978
vt 0.7891 0.6989
vt 0.7141 0.9383
vt 0.7085 0.0294
vt 0.6457 0.0293
vt 0.6514 0.9390
vt 0.4938 0.0246
vt 0.4459 0.0207
vt 0.4538 0.9544
vt 0.4977 0.9524
vt 0.6217 0.0351
vt 0.5758 0.0272
vt 0.5837 0.9472
vt 0.6335 0.9432
vt 0.7931 0.5757
vt 0.7405 0.5786
vt 0.7394 0.6235
vt 0.7926 0.6209
vt 0.5515 0.0233
vt 0.5115 0.0253
vt 0.5095 0.9491
vt 0.5574 0.9531
vt 0.7910 0.6401
vt 0.7380 0.6409
vt 0.7373 0.6978
vt 0.7891 0.6989
vt 0.7141 0.9383
vt 0.7085 0.0294
vt 0.6457 0.0293
vt 0.6514 0.9390
vt 0.4938 0.0246
vt 0.4459 0.0207
vt 0.4538 0.9544
vt 0.4977 0.9524
vt 0.6217 0.0351
vt 0.5758 0.0272
vt 0.5837 0.9472
vt 0.6335 0.9432
vt 0.7931 0.5757
vt 0.7405 0.5786
vt 0.7394 0.6235
vt 0.7926 0.6209
vt 0.5515 0.0233
vt 0.5115 0.0253
vt 0.5095 0.9491
vt 0.5574 0.9531
vt 0.7910 0.6401
vt 0.7380 0.6409
vt 0.7373 0.6978
vt 0.7891 0.6989
vt 0.7141 0.9383
vt 0.7085 0.0294
vt 0.6457 0.0293
vt 0.6514 0.9390
vt 0.4938 0.0246
vt 0.4459 0.0207
vt 0.4538 0.9544
vt 0.4977 0.9524
vt 0.6217 0.0351
vt 0.5758 0.0272
vt 0.5837 0.9472
vt 0.6335 0.9432
vt 0.7931 0.5757
vt 0.7405 0.5786
vt 0.7394 0.6235
vt 0.7926 0.6209
vt 0.5515 0.0233
vt 0.5115 0.0253
vt 0.5095 0.9491
vt 0.5574 0.9531
vt 0.7910 0.6401
vt 0.7380 0.6409
vt 0.7373 0.6978
vt 0.7891 0.6989
vt 0.7141 0.9383
vt 0.7085 0.0294
vt 0.6457 0.0293
vt 0.6514 0.9390
vt 0.4938 0.0246
vt 0.4459 0.0207
vt 0.4538 0.9544
vt 0.4977 0.9524
vt 0.6217 0.0351
vt 0.5758 0.0272
vt 0.5837 0.9472
vt 0.6335 0.9432
vt 0.7931 0.5757
vt 0.7405 0.5786
vt 0.7394 0.6235
vt 0.7926 0.6209
vt 0.5515 0.0233
vt 0.5115 0.0253
vt 0.5095 0.9491
vt 0.5574 0.9531
vt 0.7910 0.6401
vt 0.7380 0.6409
vt 0.7373 0.6978
vt 0.7891 0.6989
vt 0.7141 0.9383
vt 0.7085 0.0294
vt 0.6457 0.0293
vt 0.6514 0.9390
vt 0.4938 0.0246
vt 0.4459 0.0207
vt 0.4538 0.9544
vt 0.4977 0.9524
vt 0.6217 0.0351
vt 0.5758 0.0272
vt 0.5837 0.9472
vt 0.6335 0.9432
vt 0.7931 0.5757
vt 0.7405 0.5786
vt 0.7394 0.6235
vt 0.7926 0.6209
vt 0.5515 0.0233
vt 0.5115 0.0253
vt 0.5095 0.9491
vt 0.5574 0.9531
vt 0.7910 0.6401
vt 0.7380 0.6409
vt 0.7373 0.6978
vt 0.7891 0.6989
vt 0.7141 0.9383
vt 0.7085 0.0294
vt 0.6457 0.0293
vt 0.6514 0.9390
vt 0.4938 0.0246
vt 0.4459 0.0207
vt 0.4538 0.9544
vt 0.4977 0.9524
vt 0.6217 0.0351
vt 0.5758 0.0272
vt 0.5837 0.9472
vt 0.6335 0.9432
vt 0.7931 0.5757
vt 0.7405 0.5786
vt 0.7394 0.6235
vt 0.7926 0.6209
vt 0.5515 0.0233
vt 0.5115 0.0253
vt 0.5095 0.9491
vt 0.5574 0.9531
vt 0.7910 0.6401
vt 0.7380 0.6409
vt 0.7373 0.6978
vt 0.7891 0.6989
vt 0.7141 0.9383
vt 0.7085 0.0294
vt 0.6457 0.0293
vt 0.6514 0.9390
vt 0.4938 0.0246
vt 0.4459 0.0207
vt 0.4538 0.9544
vt 0.4977 0.9524
vt 0.6217 0.0351
vt 0.5758 0.0272
vt 0.5837 0.9472
vt 0.6335 0.9432
vt 0.7931 0.5757
vt 0.7405 0.5786
vt 0.7394 0.6235
vt 0.7926 0.6209
vt 0.5515 0.0233
vt 0.5115 0.0253
vt 0.5095 0.9491
vt 0.5574 0.9531
vt 0.7910 0.6401
vt 0.7380 0.6409
vt 0.7373 0.6978
vt 0.7891 0.6989
vt 0.7141 0.9383
vt 0.7085 0.0294
vt 0.6457 0.0293
vt 0.6514 0.9390
vt 0.4938 0.0246
vt 0.4459 0.0207
vt 0.4538 0.9544
vt 0.4977 0.9524
vt 0.6217 0.0351
vt 0.5758 0.0272
vt 0.5837 0.9472
vt 0.6335 0.9432
vt 0.7931 0.5757
vt 0.7405 0.5786
vt 0.7394 0.6235
vt 0.7926 0.6209
vt 0.5515 0.0233
vt 0.5115 0.0253
vt 0.5095 0.9491
vt 0.5574 0.9531
vt 0.7910 0.6401
vt 0.7380 0.6409
vt 0.7373 0.6978
vt 0.7891 0.6989
vt 0.7141 0.9383
vt 0.7085 0.0294
vt 0.6457 0.0293
vt 0.6514 0.9390
vt 0.4938 0.0246
vt 0.4459 0.0207
vt 0.4538 0.9544
vt 0.4977 0.9524
vt 0.6217 0.0351
vt 0.5758 0.0272
vt 0.5837 0.9472
vt 0.6335 0.9432
vt 0.7931 0.5757
vt 0.7405 0.5786
vt 0.7394 0.6235
vt 0.7926 0.6209
vt 0.5515 0.0233
vt 0.5115 0.0253
vt 0.5095 0.9491
vt 0.5574 0.9531
vt 0.7910 0.6401
vt 0.7380 0.6409
vt 0.7373 0.6978
vt 0.7891 0.6989
vt 0.7141 0.9383
vt 0.7085 0.0294
vt 0.6457 0.0293
vt 0.6514 0.9390
vt 0.4938 0.0246
vt 0.4459 0.0207
vt 0.4538 0.9544
vt 0.4977 0.9524
vt 0.6217 0.0351
vt 0.5758 0.0272
vt 0.5837 0.9472
vt 0.6335 0.9432
vt 0.7931 0.5757
vt 0.7405 0.5786
vt 0.7394 0.6235
vt 0.7926 0.6209
vt 0.5515 0.0233
vt 0.5115 0.0253
vt 0.5095 0.9491
vt 0.5574 0.9531
vt 0.7910 0.6401
vt 0.7380 0.6409
vt 0.7373 0.6978
vt 0.7891 0.6989
vt 0.7141 0.9383
vt 0.7085 0.0294
vt 0.6457 0.0293
vt 0.6514 0.9390
vt 0.4938 0.0246
vt 0.4459 0.0207
vt 0.4538 0.9544
vt 0.4977 0.9524
vt 0.6217 0.0351
vt 0.5758 0.0272
vt 0.5837 0.9472
vt 0.6335 0.9432
vt 0.7931 0.5757
vt 0.7405 0.5786
vt 0.7394 0.6235
vt 0.7926 0.6209
vt 0.5515 0.0233
vt 0.5115 0.0253
vt 0.5095 0.9491
vt 0.5574 0.9531
vt 0.7910 0.6401
vt 0.7380 0.6409
vt 0.7373 0.6978
vt 0.7891 0.6989
vt 0.7141 0.9383
vt 0.7085 0.0294
vt 0.6457 0.0293
vt 0.6514 0.9390
vt 0.4938 0.0246
vt 0.4459 0.0207
vt 0.4538 0.9544
vt 0.4977 0.9524
vt 0.6217 0.0351
vt 0.5758 0.0272
vt 0.5837 0.9472
vt 0.6335 0.9432
vt 0.7931 0.5757
vt 0.7405 0.5786
vt 0.7394 0.6235
vt 0.7926 0.6209
vt 0.5515 0.0233
vt 0.5115 0.0253
vt 0.5095 0.9491
vt 0.5574 0.9531
vt 0.7910 0.6401
vt 0.7380 0.6409
vt 0.7373 0.6978
vt 0.7891 0.6989
vt 0.7141 0.9383
vt 0.7085 0.0294
vt 0.6457 0.0293
vt 0.6514 0.9390
vt 0.4938 0.0246
vt 0.4459 0.0207
vt 0.4538 0.9544
vt 0.4977 0.9524
vt 0.6217 0.0351
vt 0.5758 0.0272
vt 0.5837 0.9472
vt 0.6335 0.9432
vt 0.7931 0.5757
vt 0.7405 0.5786
vt 0.7394 0.6235
vt 0.7926 0.6209
vt 0.5515 0.0233
vt 0.5115 0.0253
vt 0.5095 0.9491
vt 0.5574 0.9531
vt 0.7910 0.6401
vt 0.7380 0.6409
vt 0.7373 0.6978
vt 0.7891 0.6989
vt 0.7141 0.9383
vt 0.7085 0.0294
vt 0.6457 0.0293
vt 0.6514 0.9390
vt 0.4938 0.0246
vt 0.4459 0.0207
vt 0.4538 0.9544
vt 0.4977 0.9524
vt 0.6217 0.0351
vt 0.5758 0.0272
vt 0.5837 0.9472
vt 0.6335 0.9432
vt 0.7931 0.5757
vt 0.7405 0.5786
vt 0.7394 0.6235
vt 0.7926 0.6209
vt 0.5515 0.0233
vt 0.5115 0.0253
vt 0.5095 0.9491
vt 0.5574 0.9531
vt 0.7910 0.6401
vt 0.7380 0.6409
vt 0.7373 0.6978
vt 0.7891 0.6989
vn 0.0000 -0.0000 1.0000
vn 0.0000 0.0000 -1.0000
vn -1.0000 0.0000 0.0000
vn 0.0000 -1.0000 0.0000
vn 1.0000 0.0000 0.0000
vn 0.0000 1.0000 0.0000
vn 0.0000 0.7071 -0.7071
vn -0.0000 -0.7071 0.7071
vn -0.0000 -0.7071 -0.7071
vn 0.0000 0.7071 0.7071
vn 0.7216 0.6923 -0.0000
vn -0.7216 -0.6923 -0.0000
vn 0.7216 -0.6923 -0.0000
vn -0.7216 0.6923 0.0000
vn 0.7193 0.0000 0.6947
vn -0.6947 -0.0000 0.7193
vn -0.7193 0.0000 -0.6947
vn 0.6947 0.0000 -0.7193
usemtl Material.013
s 1
f 33/1/1 34/2/1 35/3/1 36/4/1
f 37/5/2 38/6/2 39/7/2 40/8/2
f 33/9/3 37/10/3 40/11/3 34/12/3
f 34/13/4 40/14/4 39/15/4 35/16/4
f 35/17/5 39/18/5 38/19/5 36/20/5
f 37/21/6 33/22/6 36/23/6 38/24/6
usemtl Material.003
f 1/25/2 2/26/2 3/27/2 4/28/2
f 5/29/1 6/30/1 7/31/1 8/32/1
f 1/33/5 5/34/5 8/35/5 2/36/5
f 2/37/4 8/38/4 7/39/4 3/40/4
f 3/41/3 7/42/3 6/43/3 4/44/3
f 5/45/6 1/46/6 4/47/6 6/48/6
usemtl Material.002
f 17/49/4 18/50/4 19/51/4 20/52/4
f 21/53/6 22/54/6 23/55/6 24/56/6
f 17/57/5 21/58/5 24/59/5 18/60/5
f 18/61/1 24/62/1 23/63/1 19/64/1
f 19/65/3 23/66/3 22/67/3 20/68/3
f 21/69/2 17/70/2 20/71/2 22/72/2
usemtl Material.004
f 25/73/7 26/74/7 27/75/7 28/76/7
f 29/77/8 30/78/8 31/79/8 32/80/8
f 25/81/5 29/82/5 32/83/5 26/84/5
f 26/85/9 32/86/9 31/87/9 27/88/9
f 27/89/3 31/90/3 30/91/3 28/92/3
f 29/93/10 25/94/10 28/95/10 30/96/10
usemtl Material.007
f 81/97/4 82/98/4 83/99/4 84/100/4
f 85/101/6 86/102/6 87/103/6 88/104/6
f 81/105/2 85/106/2 88/107/2 82/108/2
f 82/109/5 88/110/5 87/111/5 83/112/5
f 83/113/1 87/114/1 86/115/1 84/116/1
f 85/117/3 81/118/3 84/119/3 86/120/3
usemtl Material.006
f 73/121/4 74/122/4 75/123/4 76/124/4
f 77/125/6 78/126/6 79/127/6 80/128/6
f 73/129/2 77/130/2 80/131/2 74/132/2
f 74/133/5 80/134/5 79/135/5 75/136/5
f 75/137/1 79/138/1 78/139/1 76/140/1
f 77/141/3 73/142/3 76/143/3 78/144/3
usemtl Material.016
f 57/145/10 58/146/10 59/147/10 60/148/10
f 61/149/9 62/150/9 63/151/9 64/152/9
f 57/153/3 61/154/3 64/155/3 58/156/3
f 58/157/8 64/158/8 63/159/8 59/160/8
f 59/161/5 63/162/5 62/163/5 60/164/5
f 61/165/7 57/166/7 60/167/7 62/168/7
usemtl Material.010
f 105/169/4 106/170/4 107/171/4 108/172/4
f 109/173/6 110/174/6 111/175/6 112/176/6
f 105/177/1 109/178/1 112/179/1 106/180/1
f 106/181/3 112/182/3 111/183/3 107/184/3
f 107/185/2 111/186/2 110/187/2 108/188/2
f 109/189/5 105/190/5 108/191/5 110/192/5
usemtl Material.012
f 121/193/11 122/194/11 123/195/11 124/196/11
f 125/197/12 126/198/12 127/199/12 128/200/12
f 121/201/1 125/202/1 128/203/1 122/204/1
f 122/205/13 128/206/13 127/207/13 123/208/13
f 123/209/2 127/210/2 126/211/2 124/212/2
f 125/213/14 121/214/14 124/215/14 126/216/14
usemtl Material.011
f 113/217/4 114/218/4 115/219/4 116/220/4
f 117/221/6 118/222/6 119/223/6 120/224/6
f 113/225/1 117/226/1 120/227/1 114/228/1
f 114/229/3 120/230/3 119/231/3 115/232/3
f 115/233/2 119/234/2 118/235/2 116/236/2
f 117/237/5 113/238/5 116/239/5 118/240/5
usemtl Material.001
f 9/241/4 10/242/4 11/243/4 12/244/4
f 13/245/6 14/246/6 15/247/6 16/248/6
f 9/249/5 13/250/5 16/251/5 10/252/5
f 10/253/1 16/254/1 15/255/1 11/256/1
f 11/257/3 15/258/3 14/259/3 12/260/3
f 13/261/2 9/262/2 12/263/2 14/264/2
usemtl Material.023
f 137/265/4 138/266/4 139/267/4 140/268/4
f 141/269/6 142/270/6 143/271/6 144/272/6
f 137/273/15 141/274/15 144/275/15 138/276/15
f 138/277/16 144/278/16 143/279/16 139/280/16
f 139/281/17 143/282/17 142/283/17 140/284/17
f 141/285/18 137/286/18 140/287/18 142/288/18
usemtl Material.019
f 129/289/4 130/290/4 131/291/4 132/292/4
f 133/293/6 134/294/6 135/295/6 136/296/6
f 129/297/16 133/298/16 136/299/16 130/300/16
f 130/301/17 136/302/17 135/303/17 131/304/17
f 131/305/18 135/306/18 134/307/18 132/308/18
f 133/309/15 129/310/15 132/311/15 134/312/15
usemtl Material.015
f 49/313/4 50/314/4 51/315/4 52/316/4
f 53/317/6 54/318/6 55/319/6 56/320/6
f 49/321/3 53/322/3 56/323/3 50/324/3
f 50/325/2 56/326/2 55/327/2 51/328/2
f 51/329/5 55/330/5 54/331/5 52/332/5
f 53/333/1 49/334/1 52/335/1 54/336/1
usemtl Material.008
f 89/337/14 90/338/14 91/339/14 92/340/14
f 93/341/13 94/342/13 95/343/13 96/344/13
f 89/345/2 93/346/2 96/347/2 90/348/2
f 90/349/12 96/350/12 95/351/12 91/352/12
f 91/353/1 95/354/1 94/355/1 92/356/1
f 93/357/11 89/358/11 92/359/11 94/360/11
usemtl Material.005
f 65/361/3 66/362/3 67/363/3 68/364/3
f 69/365/5 70/366/5 71/367/5 72/368/5
f 65/369/2 69/370/2 72/371/2 66/372/2
f 66/373/4 72/374/4 71/375/4 67/376/4
f 67/377/1 71/378/1 70/379/1 68/380/1
f 69/381/6 65/382/6 68/383/6 70/384/6
usemtl Material.009
f 97/385/5 98/386/5 99/387/5 100/388/5
f 101/389/3 102/390/3 103/391/3 104/392/3
f 97/393/1 101/394/1 104/395/1 98/396/1
f 98/397/4 104/398/4 103/399/4 99/400/4
f 99/401/2 103/402/2 102/403/2 100/404/2
f 101/405/6 97/406/6 100/407/6 102/408/6
usemtl Material.014
f 41/409/4 42/410/4 43/411/4 44/412/4
f 45/413/6 46/414/6 47/415/6 48/416/6
f 41/417/3 45/418/3 48/419/3 42/420/3
f 42/421/2 48/422/2 47/423/2 43/424/2
f 43/425/5 47/426/5 46/427/5 44/428/5
f 45/429/1 41/430/1 44/431/1 46/432/1
