# ..:::Stalker models:::..
# WebSite: http://excalibur-craft.ru
mtllib sign_lim_zapovednik.mtl
o 0.008
v 0.700046 1.886058 -0.028873
v 0.700046 1.895028 -0.028873
v 0.700046 1.886059 0.012436
v 0.700046 1.895028 0.021127
v -0.702362 1.845028 0.012436
v -0.702362 1.845028 0.021127
v -0.702362 1.886058 0.012436
v -0.702362 1.895028 0.021127
v -0.702362 1.895028 -0.028873
v -0.702362 1.886059 -0.028873
v 0.700046 1.845028 0.021127
v 0.700046 1.845028 0.012436
v -0.702362 1.895028 0.021127
v -0.702362 1.845028 0.021127
v 0.700046 1.895028 0.021127
v 0.700046 1.845028 0.021127
v -0.702362 1.886058 0.012436
v -0.702362 1.886059 -0.028873
v 0.700046 1.886059 0.012436
v 0.700046 1.886058 -0.028873
v -0.702362 1.895028 -0.028873
v -0.702362 1.895028 0.021127
v 0.700046 1.895028 -0.028873
v 0.700046 1.895028 0.021127
v -0.702362 1.845028 0.021127
v -0.702362 1.845028 0.012436
v 0.700046 1.845028 0.021127
v 0.700046 1.845028 0.012436
v 0.700046 1.886059 0.012436
v 0.700046 1.845028 0.012436
v -0.702362 1.886058 0.012436
v -0.702362 1.845028 0.012436
v 0.700046 1.895028 -0.028873
v 0.700046 1.886058 -0.028873
v -0.702362 1.895028 -0.028873
v -0.702362 1.886059 -0.028873
v -0.710064 2.199654 0.038846
v -0.710064 2.199654 0.044564
v -0.710064 2.223316 0.038846
v -0.710064 2.229653 0.044564
v -0.710064 2.223316 0.038846
v -0.710064 2.223316 0.014564
v 0.710064 2.223316 0.038846
v 0.710064 2.223316 0.014564
v -0.710064 2.229653 0.014564
v -0.710064 2.223316 0.014564
v 0.710064 2.223316 0.014564
v 0.710064 2.229653 0.014564
v 0.710064 2.223316 0.038846
v 0.710064 2.229653 0.044564
v -0.710064 2.199654 0.038846
v 0.710064 2.199654 0.038846
v -0.710064 2.199654 0.044564
v 0.710064 2.199654 0.044564
v 0.710064 2.199654 0.044564
v 0.710064 2.199654 0.038846
v 0.710064 2.199654 0.044564
v 0.710064 2.229653 0.044564
v -0.710064 2.199654 0.044564
v -0.710064 2.229653 0.044564
v 0.710064 2.229653 0.044564
v 0.710064 2.229653 0.014564
v -0.710064 2.229653 0.044564
v -0.710064 2.229653 0.014564
v 0.710064 2.223316 0.038846
v 0.710064 2.199654 0.038846
v -0.710064 2.223316 0.038846
v -0.710064 2.199654 0.038846
v 0.710064 2.229653 0.014564
v 0.710064 2.223316 0.014564
v -0.710064 2.229653 0.014564
v -0.710064 2.223316 0.014564
v -0.702362 2.223316 0.021127
v -0.702362 1.176684 0.021127
v -0.702362 2.223316 0.033127
v -0.702362 1.176684 0.033127
v -0.702362 1.176684 0.033127
v -0.702362 1.176684 0.021127
v 0.700668 1.176684 0.033127
v 0.700668 1.176684 0.021127
v -0.702362 2.223316 0.021127
v -0.702362 2.223316 0.033127
v 0.700668 2.223316 0.021127
v 0.700668 2.223316 0.033127
v 0.700668 1.176684 0.033127
v 0.700668 1.176684 0.021127
v 0.700668 2.223316 0.033127
v 0.700668 2.223316 0.021127
v -0.702362 1.176684 0.033127
v 0.700668 1.176684 0.033127
v -0.702362 2.223316 0.033127
v 0.700668 2.223316 0.033127
v -0.678699 2.223316 0.038846
v -0.708699 2.223316 0.038846
v -0.678699 1.176564 0.038846
v -0.708699 1.176564 0.038846
v -0.678699 1.176564 0.033127
v -0.678699 1.176564 0.038846
v -0.702362 1.176684 0.033127
v -0.708699 1.176564 0.038846
v -0.708699 2.223316 0.038846
v -0.708699 2.223316 0.008846
v -0.708699 1.176564 0.038846
v -0.708699 1.176564 0.008846
v -0.702362 2.223316 0.033127
v -0.678699 2.223316 0.033127
v -0.702362 1.176684 0.033127
v -0.678699 1.176564 0.033127
v -0.708699 1.176564 0.008846
v -0.702362 1.176564 0.008846
v -0.702362 2.223316 0.008846
v -0.708699 2.223316 0.008846
v -0.702362 2.223316 0.033127
v -0.708699 2.223316 0.038846
v -0.702362 2.223316 0.008846
v -0.702362 1.176564 0.008846
v -0.708699 2.223316 0.008846
v -0.708699 1.176564 0.008846
v -0.678699 2.223316 0.038846
v -0.678699 2.223316 0.033127
v -0.702362 1.176684 0.033127
v -0.702362 1.176564 0.008846
v -0.702362 2.223316 0.033127
v -0.702362 2.223316 0.008846
v -0.678699 1.176564 0.038846
v -0.678699 1.176564 0.033127
v -0.678699 2.223316 0.038846
v -0.678699 2.223316 0.033127
v 0.677006 2.223316 0.038846
v 0.677006 1.176564 0.038846
v 0.707005 2.223316 0.038846
v 0.707005 1.176564 0.038846
v 0.707005 1.176564 0.038846
v 0.677006 1.176564 0.038846
v 0.700668 1.176684 0.033127
v 0.677006 1.176564 0.033127
v 0.707005 2.223316 0.038846
v 0.707005 1.176564 0.038846
v 0.707005 2.223316 0.008846
v 0.707005 1.176564 0.008846
v 0.700668 2.223316 0.033127
v 0.700668 1.176684 0.033127
v 0.677006 2.223316 0.033127
v 0.677006 1.176564 0.033127
v 0.700668 1.176564 0.008846
v 0.707005 1.176564 0.008846
v 0.707005 2.223316 0.038846
v 0.707005 2.223316 0.008846
v 0.700668 2.223316 0.033127
v 0.700668 2.223316 0.008846
v 0.700668 2.223316 0.008846
v 0.707005 2.223316 0.008846
v 0.700668 1.176564 0.008846
v 0.707005 1.176564 0.008846
v 0.677006 2.223316 0.033127
v 0.677006 2.223316 0.038846
v 0.700668 1.176684 0.033127
v 0.700668 2.223316 0.033127
v 0.700668 1.176564 0.008846
v 0.700668 2.223316 0.008846
v 0.677006 1.176564 0.038846
v 0.677006 2.223316 0.038846
v 0.677006 1.176564 0.033127
v 0.677006 2.223316 0.033127
v -0.710064 1.170347 0.044564
v -0.710064 1.200346 0.044564
v -0.710064 1.176684 0.038846
v -0.710064 1.200346 0.038846
v -0.710064 1.176684 0.038846
v 0.710064 1.176684 0.038846
v -0.710064 1.176684 0.014564
v 0.710064 1.176684 0.014564
v -0.710064 1.176684 0.014564
v -0.710064 1.170347 0.014564
v 0.710064 1.170347 0.044564
v 0.710064 1.170347 0.014564
v 0.710064 1.176684 0.038846
v 0.710064 1.176684 0.014564
v -0.710064 1.200346 0.038846
v -0.710064 1.200346 0.044564
v 0.710064 1.200346 0.038846
v 0.710064 1.200346 0.044564
v 0.710064 1.200346 0.038846
v 0.710064 1.200346 0.044564
v 0.710064 1.200346 0.044564
v -0.710064 1.200346 0.044564
v 0.710064 1.170347 0.044564
v -0.710064 1.170347 0.044564
v 0.710064 1.170347 0.044564
v -0.710064 1.170347 0.044564
v 0.710064 1.170347 0.014564
v -0.710064 1.170347 0.014564
v 0.710064 1.176684 0.038846
v -0.710064 1.176684 0.038846
v 0.710064 1.200346 0.038846
v -0.710064 1.200346 0.038846
v 0.710064 1.170347 0.014564
v -0.710064 1.170347 0.014564
v 0.710064 1.176684 0.014564
v -0.710064 1.176684 0.014564
vt 0.8768 0.1946
vt 0.8768 0.1990
vt 0.8563 0.1946
vt 0.8519 0.1990
vt 0.1506 0.1742
vt 0.1549 0.1742
vt 0.1506 0.1946
vt 0.1549 0.1990
vt 0.1301 0.1990
vt 0.1301 0.1946
vt 0.8519 0.1742
vt 0.8563 0.1742
vt 0.1549 0.1990
vt 0.1549 0.1742
vt 0.8519 0.1990
vt 0.8519 0.1742
vt 0.1549 0.2489
vt 0.1549 0.2283
vt 0.8519 0.2489
vt 0.8519 0.2283
vt 0.1549 0.2239
vt 0.1549 0.1990
vt 0.8519 0.2239
vt 0.8519 0.1990
vt 0.1549 0.1742
vt 0.1549 0.1699
vt 0.8519 0.1742
vt 0.8519 0.1699
vt 0.8519 0.1495
vt 0.8519 0.1699
vt 0.1549 0.1495
vt 0.1549 0.1699
vt 0.8519 0.2239
vt 0.8519 0.2283
vt 0.1549 0.2239
vt 0.1549 0.2283
vt 0.9997 0.2241
vt 0.9959 0.2236
vt 0.9955 0.2026
vt 0.9959 0.2029
vt 0.9957 0.1554
vt 0.9956 0.1735
vt 0.0054 0.1554
vt 0.0054 0.1733
vt 0.9994 0.2011
vt 0.9992 0.2039
vt 0.0018 0.2075
vt 0.0010 0.1995
vt 0.0018 0.2071
vt 0.0019 0.1995
vt 0.9947 0.2291
vt 0.0066 0.2263
vt 0.9947 0.2238
vt 0.0009 0.2229
vt 0.0010 0.2233
vt 0.0014 0.2229
vt 0.0010 0.2233
vt 0.0010 0.1999
vt 0.9949 0.2237
vt 0.9965 0.2027
vt 0.0019 0.1994
vt 0.0045 0.1789
vt 0.9963 0.2029
vt 0.9962 0.1779
vt 0.0062 0.2467
vt 0.0060 0.2269
vt 0.9997 0.2458
vt 0.9994 0.2290
vt 0.0056 0.1789
vt 0.0051 0.1725
vt 0.9963 0.1777
vt 0.9956 0.1735
vt 0.0005 0.9915
vt 0.0005 0.2463
vt 0.0074 0.9908
vt 0.0064 0.2466
vt 0.0064 0.2465
vt 0.0058 0.2374
vt 0.9960 0.2465
vt 0.9964 0.2383
vt 0.0074 0.9970
vt 0.0071 0.9908
vt 0.9987 0.9996
vt 0.9988 0.9920
vt 0.9960 0.2465
vt 0.9997 0.2465
vt 0.9988 0.9920
vt 0.9999 0.9920
vt 0.0066 0.2465
vt 0.9961 0.2465
vt 0.0031 0.9911
vt 0.9988 0.9920
vt 0.0010 0.2232
vt 0.0015 0.1999
vt 0.7447 0.2238
vt 0.7447 0.2011
vt 0.7490 0.2238
vt 0.7447 0.2238
vt 0.7490 0.2059
vt 0.7447 0.2011
vt 0.0015 0.2003
vt 0.0008 0.1784
vt 0.7447 0.2011
vt 0.7447 0.1785
vt 0.0006 0.2456
vt 0.0010 0.2287
vt 0.7447 0.2459
vt 0.7447 0.2281
vt 0.7674 0.2011
vt 0.7674 0.2059
vt 0.0014 0.2080
vt 0.0014 0.1993
vt 0.0020 0.2073
vt 0.0025 0.1990
vt 0.0005 0.1735
vt 0.7447 0.1737
vt 0.0007 0.1782
vt 0.7447 0.1785
vt 0.0006 0.2233
vt 0.0014 0.2227
vt 0.7447 0.1554
vt 0.7447 0.1737
vt 0.0007 0.1553
vt 0.0011 0.1734
vt 0.7447 0.2238
vt 0.7447 0.2281
vt 0.0010 0.2230
vt 0.0010 0.2281
vt 0.7447 0.2238
vt 0.0013 0.2232
vt 0.7447 0.2011
vt 0.0013 0.1993
vt 0.0023 0.1995
vt 0.0011 0.2230
vt 0.0022 0.2077
vt 0.0009 0.2227
vt 0.7447 0.2011
vt 0.0007 0.1999
vt 0.7447 0.1785
vt 0.0012 0.1782
vt 0.7447 0.2459
vt 0.0003 0.2457
vt 0.7447 0.2281
vt 0.0010 0.2284
vt 0.0016 0.2073
vt 0.0010 0.1995
vt 0.7447 0.2011
vt 0.7674 0.2011
vt 0.7490 0.2059
vt 0.7674 0.2059
vt 0.7447 0.1737
vt 0.7447 0.1785
vt 0.0008 0.1735
vt 0.0013 0.1784
vt 0.7490 0.2238
vt 0.7447 0.2238
vt 0.0008 0.1551
vt 0.7447 0.1554
vt 0.0011 0.1736
vt 0.7447 0.1737
vt 0.0010 0.2230
vt 0.7447 0.2238
vt 0.0010 0.2281
vt 0.7447 0.2281
vt 0.0014 0.1996
vt 0.0018 0.2232
vt 0.0017 0.2114
vt 0.0011 0.2229
vt 0.0058 0.1556
vt 0.9965 0.1552
vt 0.0058 0.1729
vt 0.9963 0.1735
vt 0.0019 0.2080
vt 0.0013 0.1997
vt 0.9963 0.2031
vt 0.9986 0.2029
vt 0.9992 0.2034
vt 0.9986 0.2038
vt 0.0062 0.2265
vt 0.0006 0.2229
vt 0.9954 0.2291
vt 0.9947 0.2233
vt 0.9996 0.2236
vt 0.9956 0.2238
vt 0.9949 0.2238
vt 0.0016 0.2232
vt 0.9963 0.2029
vt 0.0015 0.1994
vt 0.9963 0.2029
vt 0.0013 0.1996
vt 0.9960 0.1777
vt 0.0053 0.1787
vt 0.9998 0.2458
vt 0.0070 0.2459
vt 0.9996 0.2303
vt 0.0056 0.2265
vt 0.9960 0.1780
vt 0.0045 0.1789
vt 0.9965 0.1732
vt 0.0054 0.1731
vn 1.0000 -0.0000 0.0000
vn -1.0000 0.0000 0.0000
vn 0.0000 -0.0000 1.0000
vn 0.0000 -1.0000 -0.0000
vn 0.0000 1.0000 0.0000
vn 0.0000 0.0000 -1.0000
vn -0.0051 -1.0000 0.0000
vn -0.0025 -0.9999 -0.0105
vn 0.0034 -1.0000 -0.0040
vn 0.0099 -0.9999 -0.0100
vn 0.0094 -1.0000 0.0025
vn 0.0000 -1.0000 0.0050
vn -0.0095 -0.9999 -0.0105
vn 0.0025 -0.9999 -0.0105
vn -0.0035 -1.0000 -0.0040
vn 0.0051 -1.0000 0.0000
vn -0.0094 -1.0000 0.0025
usemtl prop_signs_04.001
s 1
f 1/1/1 2/2/1 3/3/1
f 3/3/1 2/2/1 4/4/1
f 5/5/2 6/6/2 7/7/2
f 7/7/2 6/6/2 8/8/2
f 8/8/2 9/9/2 7/7/2
f 7/7/2 9/9/2 10/10/2
f 4/4/1 11/11/1 3/3/1
f 3/3/1 11/11/1 12/12/1
f 13/13/3 14/14/3 15/15/3
f 15/15/3 14/14/3 16/16/3
f 17/17/4 18/18/4 19/19/4
f 19/19/4 18/18/4 20/20/4
f 21/21/5 22/22/5 23/23/5
f 23/23/5 22/22/5 24/24/5
f 25/25/4 26/26/4 27/27/4
f 27/27/4 26/26/4 28/28/4
f 29/29/6 30/30/6 31/31/6
f 31/31/6 30/30/6 32/32/6
f 33/33/6 34/34/6 35/35/6
f 35/35/6 34/34/6 36/36/6
f 37/37/2 38/38/2 39/39/2
f 39/39/2 38/38/2 40/40/2
f 41/41/4 42/42/4 43/43/4
f 43/43/4 42/42/4 44/44/4
f 40/40/2 45/45/2 39/39/2
f 39/39/2 45/45/2 46/46/2
f 47/47/1 48/48/1 49/49/1
f 49/49/1 48/48/1 50/50/1
f 51/51/4 52/52/4 53/53/4
f 53/53/4 52/52/4 54/54/4
f 50/50/1 55/55/1 49/49/1
f 49/49/1 55/55/1 56/56/1
f 57/57/3 58/58/3 59/59/3
f 59/59/3 58/58/3 60/60/3
f 61/61/5 62/62/5 63/63/5
f 63/63/5 62/62/5 64/64/5
f 65/65/6 66/66/6 67/67/6
f 67/67/6 66/66/6 68/68/6
f 69/69/6 70/70/6 71/71/6
f 71/71/6 70/70/6 72/72/6
f 73/73/2 74/74/2 75/75/2
f 75/75/2 74/74/2 76/76/2
f 77/77/4 78/78/4 79/79/4
f 79/79/4 78/78/4 80/80/4
f 81/81/5 82/82/5 83/83/5
f 83/83/5 82/82/5 84/84/5
f 85/85/1 86/86/1 87/87/1
f 87/87/1 86/86/1 88/88/1
f 89/89/3 90/90/3 91/91/3
f 91/91/3 90/90/3 92/92/3
f 93/93/3 94/94/3 95/95/3
f 95/95/3 94/94/3 96/96/3
f 97/97/7 98/98/8 99/99/9
f 99/99/9 98/98/8 100/100/10
f 101/101/2 102/102/2 103/103/2
f 103/103/2 102/102/2 104/104/2
f 105/105/6 106/106/6 107/107/6
f 107/107/6 106/106/6 108/108/6
f 100/100/10 109/109/11 99/99/9
f 99/99/9 109/109/11 110/110/12
f 111/111/5 112/112/5 113/113/5
f 113/113/5 112/112/5 114/114/5
f 115/115/6 116/116/6 117/117/6
f 117/117/6 116/116/6 118/118/6
f 114/114/5 119/119/5 113/113/5
f 113/113/5 119/119/5 120/120/5
f 121/121/1 122/122/1 123/123/1
f 123/123/1 122/122/1 124/124/1
f 125/125/1 126/126/1 127/127/1
f 127/127/1 126/126/1 128/128/1
f 129/129/3 130/130/3 131/131/3
f 131/131/3 130/130/3 132/132/3
f 133/133/13 134/134/14 135/135/15
f 135/135/15 134/134/14 136/136/16
f 137/137/1 138/138/1 139/139/1
f 139/139/1 138/138/1 140/140/1
f 141/141/6 142/142/6 143/143/6
f 143/143/6 142/142/6 144/144/6
f 145/145/12 146/146/17 135/135/15
f 135/135/15 146/146/17 133/133/13
f 147/147/5 148/148/5 149/149/5
f 149/149/5 148/148/5 150/150/5
f 151/151/6 152/152/6 153/153/6
f 153/153/6 152/152/6 154/154/6
f 155/155/5 156/156/5 149/149/5
f 149/149/5 156/156/5 147/147/5
f 157/157/2 158/158/2 159/159/2
f 159/159/2 158/158/2 160/160/2
f 161/161/2 162/162/2 163/163/2
f 163/163/2 162/162/2 164/164/2
f 165/165/2 166/166/2 167/167/2
f 167/167/2 166/166/2 168/168/2
f 169/169/5 170/170/5 171/171/5
f 171/171/5 170/170/5 172/172/5
f 173/173/2 174/174/2 167/167/2
f 167/167/2 174/174/2 165/165/2
f 175/175/1 176/176/1 177/177/1
f 177/177/1 176/176/1 178/178/1
f 179/179/5 180/180/5 181/181/5
f 181/181/5 180/180/5 182/182/5
f 183/183/1 184/184/1 177/177/1
f 177/177/1 184/184/1 175/175/1
f 185/185/3 186/186/3 187/187/3
f 187/187/3 186/186/3 188/188/3
f 189/189/4 190/190/4 191/191/4
f 191/191/4 190/190/4 192/192/4
f 193/193/6 194/194/6 195/195/6
f 195/195/6 194/194/6 196/196/6
f 197/197/6 198/198/6 199/199/6
f 199/199/6 198/198/6 200/200/6
o 1.003
v -0.476262 -0.120724 -0.044564
v -0.500753 -0.120724 -0.044564
v -0.476262 1.886058 -0.044564
v -0.500753 1.886058 -0.044564
v -0.518072 -0.120724 -0.027246
v -0.518072 1.886058 -0.027246
v -0.518072 -0.120724 -0.002754
v -0.518072 1.886058 -0.002754
v -0.500753 -0.120724 0.014564
v -0.500753 1.886058 0.014564
v -0.476262 -0.120724 0.014564
v -0.476262 1.886058 0.014564
v -0.458944 -0.120724 -0.002754
v -0.458944 1.886058 -0.002754
v -0.458943 -0.120724 -0.027246
v -0.458943 1.886058 -0.027246
v -0.476262 -0.120724 -0.044564
v -0.476262 1.886058 -0.044564
v -0.500753 -0.120724 -0.044564
v -0.476262 -0.120724 -0.044564
v -0.488508 -0.120724 -0.015000
v -0.518072 -0.120724 -0.027246
v -0.518072 -0.120724 -0.002754
v -0.500753 -0.120724 0.014564
v -0.476262 -0.120724 0.014564
v -0.458944 -0.120724 -0.002754
v -0.458943 -0.120724 -0.027246
v -0.476262 1.886058 -0.044564
v -0.500753 1.886058 -0.044564
v -0.488508 1.886058 -0.015000
v -0.518072 1.886058 -0.027246
v -0.518072 1.886058 -0.002754
v -0.500753 1.886058 0.014564
v -0.476262 1.886058 0.014564
v -0.458944 1.886058 -0.002754
v -0.458943 1.886058 -0.027246
v 0.474568 -0.120724 -0.044564
v 0.474568 1.886058 -0.044564
v 0.499060 -0.120724 -0.044564
v 0.499060 1.886058 -0.044564
v 0.516378 -0.120724 -0.027246
v 0.516378 1.886058 -0.027246
v 0.516378 -0.120724 -0.002754
v 0.516378 1.886058 -0.002754
v 0.499060 -0.120724 0.014564
v 0.499060 1.886058 0.014564
v 0.474568 -0.120724 0.014564
v 0.474568 1.886058 0.014564
v 0.457250 -0.120724 -0.002754
v 0.457250 1.886058 -0.002754
v 0.457250 -0.120724 -0.027246
v 0.457250 1.886058 -0.027246
v 0.474568 -0.120724 -0.044564
v 0.474568 1.886058 -0.044564
v 0.499060 -0.120724 -0.044564
v 0.486814 -0.120724 -0.015000
v 0.474568 -0.120724 -0.044564
v 0.516378 -0.120724 -0.027246
v 0.516378 -0.120724 -0.002754
v 0.499060 -0.120724 0.014564
v 0.474568 -0.120724 0.014564
v 0.457250 -0.120724 -0.002754
v 0.457250 -0.120724 -0.027246
v 0.474568 1.886058 -0.044564
v 0.486814 1.886058 -0.015000
v 0.499060 1.886058 -0.044564
v 0.516378 1.886058 -0.027246
v 0.516378 1.886058 -0.002754
v 0.499060 1.886058 0.014564
v 0.474568 1.886058 0.014564
v 0.457250 1.886058 -0.002754
v 0.457250 1.886058 -0.027246
v 0.700668 1.176684 0.021127
v -0.702362 1.176684 0.021127
v 0.700668 2.223316 0.021127
v -0.702362 2.223316 0.021127
vt 0.0001 0.8745
vt 0.0002 0.8589
vt 0.8960 0.8745
vt 0.8960 0.8589
vt 0.0003 0.8432
vt 0.8961 0.8432
vt 0.0004 0.8276
vt 0.8962 0.8276
vt 0.0005 0.8119
vt 0.8963 0.8119
vt 0.0006 0.7963
vt 0.8964 0.7963
vt 0.0006 0.7807
vt 0.8965 0.7807
vt 0.0007 0.7650
vt 0.8965 0.7650
vt 0.0008 0.7494
vt 0.8966 0.7494
vt 0.5684 0.0001
vt 0.5815 0.0001
vt 0.5749 0.0159
vt 0.5592 0.0094
vt 0.5592 0.0225
vt 0.5684 0.0317
vt 0.5815 0.0317
vt 0.5907 0.0225
vt 0.5907 0.0094
vt 0.5815 0.0636
vt 0.5684 0.0636
vt 0.5749 0.0478
vt 0.5592 0.0543
vt 0.5592 0.0412
vt 0.5684 0.0320
vt 0.5815 0.0320
vt 0.5907 0.0412
vt 0.5907 0.0543
vt 0.0001 0.8748
vt 0.8960 0.8748
vt 0.0002 0.8904
vt 0.8960 0.8904
vt 0.0003 0.9060
vt 0.8961 0.9060
vt 0.0004 0.9217
vt 0.8962 0.9217
vt 0.0004 0.9373
vt 0.8962 0.9373
vt 0.0005 0.9530
vt 0.8963 0.9530
vt 0.0006 0.9686
vt 0.8964 0.9686
vt 0.0006 0.9842
vt 0.8964 0.9842
vt 0.0007 0.9999
vt 0.8965 0.9999
vt 0.5815 0.0957
vt 0.5749 0.1115
vt 0.5684 0.0957
vt 0.5907 0.1049
vt 0.5907 0.1180
vt 0.5815 0.1273
vt 0.5684 0.1273
vt 0.5592 0.1180
vt 0.5592 0.1049
vt 0.5907 0.0731
vt 0.5749 0.0796
vt 0.5815 0.0638
vt 0.5684 0.0638
vt 0.5592 0.0731
vt 0.5592 0.0862
vt 0.5684 0.0954
vt 0.5815 0.0954
vt 0.5907 0.0862
vt 0.5589 0.0001
vt 0.5589 0.7491
vt 0.0001 0.0001
vt 0.0001 0.7491
vn 0.5055 0.0000 -0.8629
vn -0.2527 0.0000 -0.9675
vn 0.2527 -0.0000 -0.9675
vn -0.5055 0.0000 -0.8628
vn -0.8629 0.0001 -0.5054
vn -0.9675 0.0000 -0.2527
vn -0.9675 -0.0000 0.2527
vn -0.8629 0.0001 0.5054
vn -0.5055 0.0001 0.8628
vn -0.2527 -0.0000 0.9675
vn 0.2527 -0.0000 0.9675
vn 0.5054 -0.0000 0.8629
vn 0.8629 -0.0000 0.5054
vn 0.9675 -0.0002 0.2527
vn 0.9675 -0.0000 -0.2527
vn 0.8629 -0.0001 -0.5054
vn -0.0000 -1.0000 0.0000
vn 0.0000 1.0000 0.0000
vn -0.5055 0.0000 -0.8629
vn 0.5054 0.0000 -0.8629
vn 0.8629 0.0000 -0.5054
vn 0.9675 -0.0000 0.2527
vn -0.5054 -0.0000 0.8629
vn -0.8629 -0.0000 0.5054
vn -0.8629 0.0000 -0.5054
vn -0.5054 0.0001 -0.8629
vn 0.0000 0.0000 -1.0000
usemtl mtl_rja_blue.001
s 1
f 201/201/18 202/202/19 203/203/20
f 203/203/20 202/202/19 204/204/21
f 202/202/19 205/205/22 204/204/21
f 204/204/21 205/205/22 206/206/23
f 205/205/22 207/207/24 206/206/23
f 206/206/23 207/207/24 208/208/25
f 207/207/24 209/209/26 208/208/25
f 208/208/25 209/209/26 210/210/27
f 209/209/26 211/211/28 210/210/27
f 210/210/27 211/211/28 212/212/29
f 211/211/28 213/213/30 212/212/29
f 212/212/29 213/213/30 214/214/31
f 213/213/30 215/215/32 214/214/31
f 214/214/31 215/215/32 216/216/33
f 215/215/32 217/217/18 216/216/33
f 216/216/33 217/217/18 218/218/20
f 219/219/34 220/220/34 221/221/34
f 222/222/34 219/219/34 221/221/34
f 223/223/34 222/222/34 221/221/34
f 224/224/34 223/223/34 221/221/34
f 225/225/34 224/224/34 221/221/34
f 226/226/34 225/225/34 221/221/34
f 227/227/34 226/226/34 221/221/34
f 220/220/34 227/227/34 221/221/34
f 228/228/35 229/229/35 230/230/35
f 229/229/35 231/231/35 230/230/35
f 231/231/35 232/232/35 230/230/35
f 232/232/35 233/233/35 230/230/35
f 233/233/35 234/234/35 230/230/35
f 234/234/35 235/235/35 230/230/35
f 235/235/35 236/236/35 230/230/35
f 236/236/35 228/228/35 230/230/35
f 237/237/36 238/238/19 239/239/20
f 239/239/20 238/238/19 240/240/37
f 239/239/20 240/240/37 241/241/38
f 241/241/38 240/240/37 242/242/32
f 241/241/38 242/242/32 243/243/39
f 243/243/39 242/242/32 244/244/30
f 243/243/39 244/244/30 245/245/29
f 245/245/29 244/244/30 246/246/28
f 245/245/29 246/246/28 247/247/27
f 247/247/27 246/246/28 248/248/40
f 247/247/27 248/248/40 249/249/41
f 249/249/41 248/248/40 250/250/24
f 249/249/41 250/250/24 251/251/23
f 251/251/23 250/250/24 252/252/42
f 251/251/23 252/252/42 253/253/43
f 253/253/43 252/252/42 254/254/19
f 255/255/34 256/256/34 257/257/34
f 258/258/34 256/256/34 255/255/34
f 259/259/34 256/256/34 258/258/34
f 260/260/34 256/256/34 259/259/34
f 261/261/34 256/256/34 260/260/34
f 262/262/34 256/256/34 261/261/34
f 263/263/34 256/256/34 262/262/34
f 257/257/34 256/256/34 263/263/34
f 264/264/35 265/265/35 266/266/35
f 266/266/35 265/265/35 267/267/35
f 267/267/35 265/265/35 268/268/35
f 268/268/35 265/265/35 269/269/35
f 269/269/35 265/265/35 270/270/35
f 270/270/35 265/265/35 271/271/35
f 271/271/35 265/265/35 272/272/35
f 272/272/35 265/265/35 264/264/35
f 273/273/44 274/274/44 275/275/44
f 275/275/44 274/274/44 276/276/44
