# ..:::Stalker models:::..
# WebSite: http://excalibur-craft.ru
mtllib sign_boss.mtl
o 0.004
v 0.049817 1.457834 0.944242
v -0.049817 0.748901 0.944242
v 0.071841 1.454738 0.944242
v -0.027793 0.745806 0.944242
v 0.071841 1.454738 0.944242
v -0.027793 0.745806 0.944242
v 0.071842 1.454738 -0.944242
v -0.027792 0.745806 -0.944242
v 0.071842 1.454738 -0.944242
v -0.027792 0.745806 -0.944242
v 0.049817 1.457834 -0.944242
v -0.049817 0.748901 -0.944242
v 0.049817 1.457834 -0.944242
v -0.049817 0.748901 -0.944242
v 0.049817 1.457834 0.944242
v -0.049817 0.748901 0.944242
v -0.049817 0.748901 0.944242
v -0.049817 0.748901 -0.944242
v -0.027793 0.745806 0.944242
v -0.027792 0.745806 -0.944242
v 0.049817 1.457834 -0.944242
v 0.049817 1.457834 0.944242
v 0.071842 1.454738 -0.944242
v 0.071841 1.454738 0.944242
vt 1.7375 0.0077
vt 1.7375 0.2618
vt 1.7291 0.0077
vt 1.7291 0.2618
vt 1.0015 0.2593
vt 1.0015 0.0022
vt 1.7358 0.2593
vt 1.7358 0.0022
vt 1.7375 0.0077
vt 1.7375 0.2618
vt 1.7291 0.0077
vt 1.7291 0.2618
vt 1.7508 1.0073
vt 1.9826 1.0073
vt 1.7508 1.9888
vt 1.9826 1.9888
vt 1.7358 0.0062
vt 1.0015 0.0062
vt 1.7358 0.0022
vt 1.0015 0.0022
vt 1.0015 0.0036
vt 1.7358 0.0036
vt 1.0015 0.0048
vt 1.7358 0.0048
vn 0.0000 0.0000 1.0000
vn 0.9903 -0.1392 0.0000
vn 0.0000 0.0000 -1.0000
vn -0.9903 0.1392 -0.0000
vn -0.1392 -0.9903 0.0000
vn 0.1392 0.9903 0.0000
usemtl prop_signs_03.001
s 1
f 1/1/1 2/2/1 3/3/1
f 3/3/1 2/2/1 4/4/1
f 5/5/2 6/6/2 7/7/2
f 7/7/2 6/6/2 8/8/2
f 9/9/3 10/10/3 11/11/3
f 11/11/3 10/10/3 12/12/3
f 13/13/4 14/14/4 15/15/4
f 15/15/4 14/14/4 16/16/4
f 17/17/5 18/18/5 19/19/5
f 19/19/5 18/18/5 20/20/5
f 21/21/6 22/22/6 23/23/6
f 23/23/6 22/22/6 24/24/6
