# ..:::Stalker models:::..
# WebSite: http://excalibur-craft.ru
mtllib sign_zapravka.mtl
o 0.019
v -0.054065 0.292830 0.574947
v -0.031879 0.291279 0.574947
v 0.054327 1.842909 0.574947
v 0.076513 1.841357 0.574947
v 0.059812 1.921352 0.495042
v 0.081999 1.919801 0.495042
v 0.059812 1.921352 -0.495042
v 0.081999 1.919801 -0.495042
v 0.054327 1.842909 -0.574947
v 0.076514 1.841357 -0.574947
v -0.054065 0.292830 -0.574947
v -0.031878 0.291279 -0.574947
v -0.059812 0.210648 -0.495042
v -0.037625 0.209096 -0.495042
v -0.059812 0.210648 0.495042
v -0.037625 0.209096 0.495042
v 0.076513 1.841357 0.574947
v 0.076514 1.841357 -0.574947
v 0.079911 1.889941 0.552677
v 0.079911 1.889941 -0.552677
v 0.054327 1.842909 -0.574947
v 0.054327 1.842909 0.574947
v 0.057724 1.891492 -0.552677
v 0.057724 1.891492 0.552677
v -0.057424 0.244803 0.546630
v -0.031879 0.291279 0.574947
v -0.035237 0.243252 0.546630
v 0.057724 1.891492 0.552677
v 0.081999 1.919801 0.495042
v 0.079911 1.889941 0.552677
v 0.057724 1.891492 -0.552677
v 0.076514 1.841357 -0.574947
v 0.079911 1.889941 -0.552677
v -0.057424 0.244803 -0.546630
v -0.037625 0.209096 -0.495042
v -0.035237 0.243252 -0.546630
v -0.031879 0.291279 0.574947
v -0.035237 0.243252 0.546630
v -0.031878 0.291279 -0.574947
v -0.035237 0.243252 -0.546630
v -0.054065 0.292830 -0.574947
v -0.054065 0.292830 0.574947
v -0.057424 0.244803 -0.546630
v -0.057424 0.244803 0.546630
v 0.081999 1.919801 0.495042
v 0.081999 1.919801 -0.495042
v 0.059812 1.921352 -0.495042
v 0.059812 1.921352 0.495042
v 0.079911 1.889941 0.552677
v 0.076513 1.841357 0.574947
v 0.079911 1.889941 -0.552677
v 0.081999 1.919801 -0.495042
v -0.035237 0.243252 0.546630
v -0.037625 0.209096 0.495042
v -0.035237 0.243252 -0.546630
v -0.031878 0.291279 -0.574947
v -0.037625 0.209096 -0.495042
v -0.037625 0.209096 0.495042
v -0.059812 0.210648 0.495042
v -0.059812 0.210648 -0.495042
vt 0.2736 0.0177
vt 0.2728 0.0220
vt 0.0185 0.0177
vt 0.0182 0.0220
vt 0.0056 0.0323
vt 0.0085 0.0323
vt 0.0056 0.2131
vt 0.0085 0.2131
vt 0.0185 0.2277
vt 0.0187 0.2232
vt 0.2736 0.2277
vt 0.2738 0.2232
vt 0.2871 0.2131
vt 0.2824 0.2131
vt 0.2871 0.0323
vt 0.2824 0.0323
vt 0.1787 0.4993
vt 0.3337 0.4993
vt 0.1817 0.5058
vt 0.3307 0.5058
vt 0.0185 0.2277
vt 0.0185 0.0177
vt 0.0105 0.2236
vt 0.0105 0.0217
vt 0.2815 0.0228
vt 0.2717 0.0201
vt 0.2791 0.0250
vt 0.0105 0.0217
vt 0.0082 0.0332
vt 0.0132 0.0230
vt 0.0105 0.2236
vt 0.0202 0.2253
vt 0.0124 0.2210
vt 0.2815 0.2225
vt 0.2833 0.2111
vt 0.2775 0.2207
vt 0.1787 0.2924
vt 0.1825 0.2860
vt 0.3337 0.2924
vt 0.3298 0.2860
vt 0.2736 0.2277
vt 0.2736 0.0177
vt 0.2815 0.2225
vt 0.2815 0.0228
vt 0.1895 0.5098
vt 0.3229 0.5098
vt 0.0056 0.2131
vt 0.0056 0.0323
vt 0.0125 0.0242
vt 0.0200 0.0204
vt 0.0131 0.2223
vt 0.0083 0.2116
vt 0.2780 0.0253
vt 0.2833 0.0341
vt 0.2791 0.2198
vt 0.2714 0.2248
vt 0.3229 0.2815
vt 0.1895 0.2815
vt 0.2871 0.0323
vt 0.2871 0.2131
vn -0.0183 -0.2621 0.9649
vn 0.0099 0.1411 0.9899
vn 0.0197 0.2823 0.9591
vn 0.0678 0.9691 0.2372
vn 0.0689 0.9851 -0.1576
vn 0.0662 0.9467 -0.3152
vn 0.0148 0.2123 -0.9771
vn -0.0122 -0.1740 -0.9847
vn -0.0243 -0.3480 -0.9372
vn -0.0668 -0.9551 -0.2888
vn -0.0685 -0.9791 0.1916
vn -0.0645 -0.9214 0.3831
vn 0.9976 -0.0698 0.0000
vn -0.9976 0.0698 -0.0000
vn -0.0480 -0.6860 0.7260
vn 0.0481 0.6875 0.7246
vn 0.0149 0.2123 -0.9771
vn 0.0481 0.6875 -0.7246
vn -0.0480 -0.6860 -0.7260
vn 0.0099 0.1412 0.9899
vn -0.0644 -0.9214 0.3831
vn -0.0684 -0.9791 0.1916
vn -0.0121 -0.1740 -0.9847
usemtl prop_signs.003
s 1
f 1/1/1 2/2/1 3/3/2
f 3/3/2 2/2/1 4/4/3
f 5/5/4 6/6/4 7/7/5
f 7/7/5 6/6/4 8/8/6
f 9/9/7 10/10/7 11/11/8
f 11/11/8 10/10/7 12/12/9
f 13/13/10 14/14/10 15/15/11
f 15/15/11 14/14/10 16/16/12
f 17/17/13 18/18/13 19/19/13
f 19/19/13 18/18/13 20/20/13
f 21/21/14 22/22/14 23/23/14
f 23/23/14 22/22/14 24/24/14
f 1/1/1 25/25/15 26/26/1
f 26/26/1 25/25/15 27/27/15
f 5/5/4 28/28/16 29/29/4
f 29/29/4 28/28/16 30/30/16
f 9/9/17 31/31/18 32/32/7
f 32/32/7 31/31/18 33/33/18
f 13/13/10 34/34/19 35/35/10
f 35/35/10 34/34/19 36/36/19
f 37/37/13 38/38/13 39/39/13
f 39/39/13 38/38/13 40/40/13
f 37/37/13 39/39/13 17/17/13
f 17/17/13 39/39/13 18/18/13
f 41/41/14 42/42/14 21/21/14
f 21/21/14 42/42/14 22/22/14
f 41/41/14 43/43/14 42/42/14
f 42/42/14 43/43/14 44/44/14
f 19/19/13 20/20/13 45/45/13
f 45/45/13 20/20/13 46/46/13
f 23/23/14 24/24/14 47/47/14
f 47/47/14 24/24/14 48/48/14
f 49/49/16 28/28/16 50/50/3
f 50/50/3 28/28/16 3/3/20
f 51/51/18 31/31/18 52/52/6
f 52/52/6 31/31/18 7/7/5
f 53/53/15 25/25/15 54/54/21
f 54/54/21 25/25/15 15/15/22
f 55/55/19 34/34/19 56/56/9
f 56/56/9 34/34/19 11/11/23
f 40/40/13 38/38/13 57/57/13
f 57/57/13 38/38/13 58/58/13
f 44/44/14 43/43/14 59/59/14
f 59/59/14 43/43/14 60/60/14
