# ..:::Stalker models:::..
# WebSite: http://excalibur-craft.ru
mtllib sign_bar_strelka.mtl
o 1.009
v 0.021443 0.482639 -0.944242
v 0.026785 1.094861 -0.944242
v 0.021443 0.482639 0.944242
v 0.026786 1.094862 0.944242
vt 0.0021 0.0936
vt 0.0021 0.0036
vt 0.2904 0.0936
vt 0.2904 0.0036
vn 1.0000 -0.0087 0.0000
usemtl prop_signs.005
s 1
f 1/1/1 2/2/1 3/3/1
f 3/3/1 2/2/1 4/4/1
o 0.022
v 0.021443 0.482639 0.944242
v 0.026786 1.094862 0.944242
v -0.000797 0.482833 0.944242
v 0.004546 1.095056 0.944242
v -0.000797 0.482833 0.944242
v 0.004546 1.095056 0.944242
v -0.000798 0.482833 -0.944242
v 0.004545 1.095055 -0.944242
v -0.000798 0.482833 -0.944242
v 0.004545 1.095055 -0.944242
v 0.021443 0.482639 -0.944242
v 0.026785 1.094861 -0.944242
v 0.026786 1.094862 0.944242
v 0.026785 1.094861 -0.944242
v 0.004546 1.095056 0.944242
v 0.004545 1.095055 -0.944242
v 0.021443 0.482639 -0.944242
v 0.021443 0.482639 0.944242
v -0.000798 0.482833 -0.944242
v -0.000797 0.482833 0.944242
vt 2.0040 0.0109
vt 2.0040 0.3249
vt 1.9924 0.0109
vt 1.9924 0.3249
vt 0.9964 0.3216
vt 0.9964 0.0025
vt 2.0015 0.3216
vt 2.0015 0.0025
vt 2.0040 0.0109
vt 2.0040 0.3249
vt 1.9924 0.0109
vt 1.9924 0.3249
vt 2.0015 0.0089
vt 0.9964 0.0089
vt 2.0015 0.0026
vt 0.9964 0.0026
vt 0.9964 0.0045
vt 2.0015 0.0045
vt 0.9964 0.0070
vt 2.0015 0.0070
vn 0.0000 0.0000 1.0000
vn -1.0000 0.0087 0.0000
vn 0.0000 -0.0000 -1.0000
vn 0.0087 1.0000 -0.0000
vn -0.0087 -1.0000 0.0000
usemtl prop_signs_02.003
s 1
f 5/5/2 6/6/2 7/7/2
f 7/7/2 6/6/2 8/8/2
f 9/9/3 10/10/3 11/11/3
f 11/11/3 10/10/3 12/12/3
f 13/13/4 14/14/4 15/15/4
f 15/15/4 14/14/4 16/16/4
f 17/17/5 18/18/5 19/19/5
f 19/19/5 18/18/5 20/20/5
f 21/21/6 22/22/6 23/23/6
f 23/23/6 22/22/6 24/24/6
