# ..:::Stalker models:::..
# WebSite: http://excalibur-craft.ru
mtllib sign_marshrunka.mtl
o 0.010
v -0.086527 0.095956 0.574947
v -0.064452 0.093245 0.574947
v 0.086945 1.508775 0.574947
v 0.109020 1.506064 0.574947
v 0.095724 1.580273 0.495042
v 0.117799 1.577563 0.495042
v 0.095724 1.580273 -0.495042
v 0.117799 1.577563 -0.495042
v 0.086946 1.508776 -0.574947
v 0.109021 1.506065 -0.574947
v -0.086527 0.095956 -0.574947
v -0.064452 0.093245 -0.574947
v -0.095724 0.021050 -0.495042
v -0.073649 0.018340 -0.495042
v -0.095724 0.021050 0.495042
v -0.073649 0.018340 0.495042
v 0.109020 1.506064 0.574947
v 0.109021 1.506065 -0.574947
v 0.114458 1.550347 0.552677
v 0.114458 1.550347 -0.552677
v 0.086946 1.508776 -0.574947
v 0.086945 1.508775 0.574947
v 0.092383 1.553057 -0.552677
v 0.092382 1.553057 0.552677
v -0.091902 0.052183 0.546630
v -0.064452 0.093245 0.574947
v -0.069826 0.049472 0.546630
v 0.092382 1.553057 0.552677
v 0.117799 1.577563 0.495042
v 0.114458 1.550347 0.552677
v 0.092383 1.553057 -0.552677
v 0.109021 1.506065 -0.574947
v 0.114458 1.550347 -0.552677
v -0.091902 0.052183 -0.546630
v -0.073649 0.018340 -0.495042
v -0.069826 0.049472 -0.546630
v -0.064452 0.093245 0.574947
v -0.069826 0.049472 0.546630
v -0.064452 0.093245 -0.574947
v -0.069826 0.049472 -0.546630
v -0.086527 0.095956 -0.574947
v -0.086527 0.095956 0.574947
v -0.091902 0.052183 -0.546630
v -0.091902 0.052183 0.546630
v 0.117799 1.577563 0.495042
v 0.117799 1.577563 -0.495042
v 0.095724 1.580273 -0.495042
v 0.095724 1.580273 0.495042
v 0.114458 1.550347 0.552677
v 0.109020 1.506064 0.574947
v 0.114458 1.550347 -0.552677
v 0.117799 1.577563 -0.495042
v -0.069826 0.049472 0.546630
v -0.073649 0.018340 0.495042
v -0.069826 0.049472 -0.546630
v -0.064452 0.093245 -0.574947
v -0.073649 0.018340 -0.495042
v -0.073649 0.018340 0.495042
v -0.095724 0.021050 0.495042
v -0.095724 0.021050 -0.495042
vt 0.2736 0.0177
vt 0.2728 0.0220
vt 0.0185 0.0177
vt 0.0182 0.0220
vt 0.0056 0.0323
vt 0.0085 0.0323
vt 0.0056 0.2131
vt 0.0085 0.2131
vt 0.0185 0.2277
vt 0.0187 0.2232
vt 0.2736 0.2277
vt 0.2738 0.2232
vt 0.2871 0.2131
vt 0.2824 0.2131
vt 0.2871 0.0323
vt 0.2824 0.0323
vt 0.0019 0.4746
vt 0.1728 0.4746
vt 0.0052 0.4812
vt 0.1695 0.4812
vt 0.0185 0.2277
vt 0.0185 0.0177
vt 0.0105 0.2236
vt 0.0105 0.0217
vt 0.2815 0.0228
vt 0.2717 0.0201
vt 0.2791 0.0250
vt 0.0105 0.0217
vt 0.0082 0.0332
vt 0.0132 0.0230
vt 0.0105 0.2236
vt 0.0202 0.2253
vt 0.0124 0.2210
vt 0.2815 0.2225
vt 0.2833 0.2111
vt 0.2775 0.2207
vt 0.0019 0.2640
vt 0.0061 0.2575
vt 0.1728 0.2640
vt 0.1686 0.2575
vt 0.2736 0.2277
vt 0.2736 0.0177
vt 0.2815 0.2225
vt 0.2815 0.0228
vt 0.0138 0.4853
vt 0.1609 0.4853
vt 0.0056 0.2131
vt 0.0056 0.0323
vt 0.0125 0.0242
vt 0.0200 0.0204
vt 0.0131 0.2223
vt 0.0083 0.2116
vt 0.2780 0.0253
vt 0.2833 0.0341
vt 0.2791 0.2198
vt 0.2714 0.2248
vt 0.1609 0.2529
vt 0.0138 0.2529
vt 0.2871 0.0323
vt 0.2871 0.2131
vn -0.0343 -0.2794 0.9596
vn 0.0186 0.1513 0.9883
vn 0.0372 0.3027 0.9524
vn 0.1189 0.9682 0.2202
vn 0.1206 0.9819 -0.1464
vn 0.1165 0.9491 -0.2928
vn 0.0280 0.2277 -0.9733
vn -0.0228 -0.1854 -0.9824
vn -0.0455 -0.3708 -0.9276
vn -0.1173 -0.9557 -0.2698
vn -0.1174 -0.9557 -0.2698
vn -0.1199 -0.9765 0.1790
vn -0.1138 -0.9267 0.3581
vn 0.9925 -0.1219 0.0000
vn -0.9925 0.1219 -0.0000
vn -0.0343 -0.2795 0.9595
vn -0.0872 -0.7104 0.6984
vn 0.0870 0.7084 0.7004
vn 0.0870 0.7084 -0.7004
vn -0.1173 -0.9558 -0.2698
vn -0.0872 -0.7104 -0.6984
vn -0.1174 -0.9558 -0.2698
vn -0.0873 -0.7104 -0.6984
vn 0.0186 0.1514 0.9883
vn 0.1206 0.9818 -0.1464
vn -0.1199 -0.9765 0.1791
vn -0.0227 -0.1854 -0.9824
usemtl prop_signs.002
s 1
f 1/1/1 2/2/1 3/3/2
f 3/3/2 2/2/1 4/4/3
f 5/5/4 6/6/4 7/7/5
f 7/7/5 6/6/4 8/8/6
f 9/9/7 10/10/7 11/11/8
f 11/11/8 10/10/7 12/12/9
f 13/13/10 14/14/11 15/15/12
f 15/15/12 14/14/11 16/16/13
f 17/17/14 18/18/14 19/19/14
f 19/19/14 18/18/14 20/20/14
f 21/21/15 22/22/15 23/23/15
f 23/23/15 22/22/15 24/24/15
f 1/1/16 25/25/17 26/26/16
f 26/26/16 25/25/17 27/27/17
f 5/5/4 28/28/18 29/29/4
f 29/29/4 28/28/18 30/30/18
f 9/9/7 31/31/19 32/32/7
f 32/32/7 31/31/19 33/33/19
f 13/13/20 34/34/21 35/35/22
f 35/35/22 34/34/21 36/36/23
f 37/37/14 38/38/14 39/39/14
f 39/39/14 38/38/14 40/40/14
f 37/37/14 39/39/14 17/17/14
f 17/17/14 39/39/14 18/18/14
f 41/41/15 42/42/15 21/21/15
f 21/21/15 42/42/15 22/22/15
f 41/41/15 43/43/15 42/42/15
f 42/42/15 43/43/15 44/44/15
f 19/19/14 20/20/14 45/45/14
f 45/45/14 20/20/14 46/46/14
f 23/23/15 24/24/15 47/47/15
f 47/47/15 24/24/15 48/48/15
f 49/49/18 28/28/18 50/50/3
f 50/50/3 28/28/18 3/3/24
f 51/51/19 31/31/19 52/52/6
f 52/52/6 31/31/19 7/7/25
f 53/53/17 25/25/17 54/54/13
f 54/54/13 25/25/17 15/15/26
f 55/55/21 34/34/21 56/56/9
f 56/56/9 34/34/21 11/11/27
f 40/40/14 38/38/14 57/57/14
f 57/57/14 38/38/14 58/58/14
f 44/44/15 43/43/15 59/59/15
f 59/59/15 43/43/15 60/60/15
