# ..:::Stalker models:::..
# WebSite: http://excalibur-craft.ru
mtllib sign_stop.mtl
o 0.016
v 0.322367 1.911334 0.039691
v 0.131565 2.099359 0.039691
v 0.322367 1.911334 0.049691
v 0.131565 2.099359 0.049691
v -0.136306 2.097396 0.039691
v -0.136306 2.097396 0.049691
v -0.324331 1.906594 0.039691
v -0.324331 1.906594 0.049691
v -0.322367 1.638722 0.039691
v -0.322367 1.638722 0.049691
v -0.131565 1.450697 0.039691
v -0.131565 1.450697 0.049691
v 0.136306 1.452661 0.039691
v 0.136306 1.452661 0.049691
v 0.324331 1.643463 0.039691
v 0.324331 1.643463 0.049691
v 0.322367 1.911334 0.039691
v 0.322367 1.911334 0.049691
v 0.324331 1.643463 0.039691
v 0.136306 1.452661 0.039691
v 0.000000 1.775028 0.039691
v 0.322367 1.911334 0.039691
v 0.131565 2.099359 0.039691
v -0.136306 2.097396 0.039691
v -0.324331 1.906594 0.039691
v -0.322367 1.638722 0.039691
v -0.131565 1.450697 0.039691
v 0.136306 1.452661 0.049691
v 0.324331 1.643463 0.049691
v 0.000000 1.775028 0.049691
v 0.322367 1.911334 0.049691
v 0.131565 2.099359 0.049691
v -0.136306 2.097396 0.049691
v -0.324331 1.906594 0.049691
v -0.322367 1.638722 0.049691
v -0.131565 1.450697 0.049691
vt 0.5071 0.6195
vt 0.5671 0.6195
vt 0.5071 0.6309
vt 0.5671 0.6309
vt 0.6272 0.6195
vt 0.6272 0.6309
vt 0.6872 0.6195
vt 0.6872 0.6309
vt 0.7472 0.6195
vt 0.7472 0.6309
vt 0.8072 0.6195
vt 0.8072 0.6309
vt 0.8672 0.6195
vt 0.8672 0.6309
vt 0.9272 0.6195
vt 0.9272 0.6309
vt 0.9872 0.6195
vt 0.9872 0.6309
vt 0.4962 0.2972
vt 0.6422 0.0030
vt 0.7481 0.5000
vt 0.4977 0.7101
vt 0.6459 1.0000
vt 0.8540 0.9970
vt 1.0000 0.7028
vt 0.9985 0.2899
vt 0.8503 0.0000
vt 0.3574 0.0030
vt 0.5033 0.2972
vt 0.2517 0.5000
vt 0.5018 0.7101
vt 0.3538 1.0000
vt 0.1459 0.9970
vt 0.0000 0.7028
vt 0.0015 0.2899
vt 0.1496 0.0000
vn 0.9657 0.2598 0.0000
vn 0.4991 0.8665 -0.0001
vn 0.8591 0.5117 -0.0000
vn 0.2456 0.9694 0.0000
vn -0.2598 0.9657 0.0000
vn -0.5117 0.8591 -0.0001
vn -0.8665 0.4991 -0.0000
vn -0.9694 0.2456 -0.0000
vn -0.9657 -0.2598 0.0000
vn -0.8591 -0.5117 -0.0000
vn -0.4991 -0.8665 -0.0000
vn -0.2456 -0.9694 -0.0000
vn 0.2598 -0.9657 -0.0001
vn 0.5117 -0.8591 0.0000
vn 0.8665 -0.4991 -0.0000
vn 0.9694 -0.2456 0.0001
vn 0.8591 0.5118 -0.0000
vn 0.0000 0.0000 -1.0000
vn -0.0000 -0.0000 1.0000
usemtl sign_stop
s 1
f 1/1/1 2/2/2 3/3/3
f 3/3/3 2/2/2 4/4/4
f 2/2/2 5/5/5 4/4/4
f 4/4/4 5/5/5 6/6/6
f 5/5/5 7/7/7 6/6/6
f 6/6/6 7/7/7 8/8/8
f 7/7/7 9/9/9 8/8/8
f 8/8/8 9/9/9 10/10/10
f 9/9/9 11/11/11 10/10/10
f 10/10/10 11/11/11 12/12/12
f 11/11/11 13/13/13 12/12/12
f 12/12/12 13/13/13 14/14/14
f 13/13/13 15/15/15 14/14/14
f 14/14/14 15/15/15 16/16/16
f 15/15/15 17/17/1 16/16/16
f 16/16/16 17/17/1 18/18/17
f 19/19/18 20/20/18 21/21/18
f 22/22/18 19/19/18 21/21/18
f 23/23/18 22/22/18 21/21/18
f 24/24/18 23/23/18 21/21/18
f 25/25/18 24/24/18 21/21/18
f 26/26/18 25/25/18 21/21/18
f 27/27/18 26/26/18 21/21/18
f 20/20/18 27/27/18 21/21/18
f 28/28/19 29/29/19 30/30/19
f 29/29/19 31/31/19 30/30/19
f 31/31/19 32/32/19 30/30/19
f 32/32/19 33/33/19 30/30/19
f 33/33/19 34/34/19 30/30/19
f 34/34/19 35/35/19 30/30/19
f 35/35/19 36/36/19 30/30/19
f 36/36/19 28/28/19 30/30/19
o 1.007
v 0.030700 1.886058 -0.008226
v 0.030700 -0.120724 -0.008226
v 0.022474 1.886058 -0.022474
v 0.022474 -0.120724 -0.022474
v 0.008226 1.886058 -0.030700
v 0.008226 -0.120724 -0.030700
v -0.008226 1.886058 -0.030700
v -0.008226 -0.120724 -0.030700
v -0.022474 1.886058 -0.022474
v -0.022474 -0.120724 -0.022474
v -0.030700 1.886058 -0.008226
v -0.030700 -0.120724 -0.008226
v -0.030700 1.886058 0.008226
v -0.030700 -0.120724 0.008226
v -0.022474 1.886058 0.022474
v -0.022474 -0.120724 0.022474
v -0.008226 1.886058 0.030700
v -0.008226 -0.120724 0.030700
v 0.008226 1.886058 0.030700
v 0.008226 -0.120724 0.030700
v 0.022474 1.886058 0.022474
v 0.022474 -0.120724 0.022474
v 0.030700 1.886058 0.008226
v 0.030700 -0.120724 0.008226
v 0.030700 1.886058 -0.008226
v 0.030700 -0.120724 -0.008226
v 0.022877 1.846249 0.006130
v 0.022877 1.846249 -0.006130
v 0.016747 1.846249 0.016747
v 0.016747 1.846249 -0.016747
v 0.006130 1.846249 -0.022876
v -0.006130 1.846249 -0.022876
v -0.016747 1.846249 -0.016747
v -0.022877 1.846249 -0.006130
v -0.022877 1.846249 0.006130
v -0.016747 1.846249 0.016747
v -0.006130 1.846249 0.022877
v 0.006130 1.846249 0.022877
v 0.030700 1.886058 0.008226
v 0.030700 1.886058 -0.008226
v 0.022877 1.886058 0.006130
v 0.022877 1.886058 -0.006130
v 0.022474 1.886058 -0.022474
v 0.016747 1.886058 -0.016747
v 0.008226 1.886058 -0.030700
v 0.006130 1.886058 -0.022877
v -0.008226 1.886058 -0.030700
v -0.006130 1.886058 -0.022877
v -0.022474 1.886058 -0.022474
v -0.016747 1.886058 -0.016747
v -0.030700 1.886058 -0.008226
v -0.022877 1.886058 -0.006130
v -0.030700 1.886058 0.008226
v -0.022877 1.886058 0.006130
v -0.022474 1.886058 0.022474
v -0.016747 1.886058 0.016747
v -0.008226 1.886058 0.030700
v -0.006130 1.886058 0.022877
v 0.008226 1.886058 0.030700
v 0.006130 1.886058 0.022877
v 0.022474 1.886058 0.022474
v 0.016747 1.886058 0.016747
v 0.022877 1.886058 0.006130
v 0.022877 1.886058 -0.006130
v 0.022877 1.846249 0.006130
v 0.022877 1.846249 -0.006130
v 0.016747 1.886058 -0.016747
v 0.016747 1.846249 -0.016747
v 0.006130 1.886058 -0.022877
v 0.006130 1.846249 -0.022876
v -0.006130 1.886058 -0.022877
v -0.006130 1.846249 -0.022876
v -0.016747 1.886058 -0.016747
v -0.016747 1.846249 -0.016747
v -0.022877 1.886058 -0.006130
v -0.022877 1.846249 -0.006130
v -0.022877 1.886058 0.006130
v -0.022877 1.846249 0.006130
v -0.016747 1.886058 0.016747
v -0.016747 1.846249 0.016747
v -0.006130 1.886058 0.022877
v -0.006130 1.846249 0.022877
v 0.006130 1.886058 0.022877
v 0.006130 1.846249 0.022877
v 0.006130 1.886058 0.022877
v 0.016747 1.886058 0.016747
v 0.006130 1.846249 0.022877
v 0.016747 1.846249 0.016747
v -0.252309 1.822025 0.030073
v -0.252309 1.822025 0.040043
v 0.204739 1.822025 0.030073
v 0.204739 1.822025 0.040043
v -0.252309 1.750941 0.040043
v -0.252309 1.750941 0.030073
v 0.204739 1.750941 0.040043
v 0.204739 1.750941 0.030073
v 0.204739 1.822025 0.040043
v 0.204739 1.750941 0.040043
v 0.204739 1.822025 0.030073
v 0.204739 1.750941 0.030073
v -0.252309 1.822025 0.030073
v -0.252309 1.750941 0.030073
v -0.252309 1.822025 0.040043
v -0.252309 1.750941 0.040043
v -0.252309 1.750941 0.030073
v -0.252309 1.822025 0.030073
v 0.204739 1.750941 0.030073
v 0.204739 1.822025 0.030073
v 0.022474 -0.120724 -0.022474
v 0.030700 -0.120724 -0.008226
v 0.008226 -0.120724 -0.030700
v 0.030700 -0.120724 0.008226
v 0.022474 -0.120724 0.022474
v 0.008226 -0.120724 0.030700
v -0.008226 -0.120724 0.030700
v -0.022474 -0.120724 0.022474
v -0.030700 -0.120724 0.008226
v -0.030700 -0.120724 -0.008226
v -0.022474 -0.120724 -0.022474
v -0.008226 -0.120724 -0.030700
vt 0.1658 1.0000
vt 0.1658 0.0000
vt 0.1735 1.0000
vt 0.1735 0.0000
vt 0.1811 1.0000
vt 0.1811 0.0000
vt 0.1888 1.0000
vt 0.1888 0.0000
vt 0.1965 1.0000
vt 0.1965 0.0000
vt 0.2042 1.0000
vt 0.2042 0.0000
vt 0.2118 1.0000
vt 0.2118 0.0000
vt 0.2195 1.0000
vt 0.2195 0.0000
vt 0.2272 1.0000
vt 0.2272 0.0000
vt 0.2349 1.0000
vt 0.2349 0.0000
vt 0.2425 1.0000
vt 0.2425 0.0000
vt 0.2502 1.0000
vt 0.2502 0.0000
vt 0.2579 1.0000
vt 0.2579 0.0000
vt 0.2378 0.1373
vt 0.2304 0.1648
vt 0.2304 0.1099
vt 0.2104 0.1848
vt 0.1829 0.1922
vt 0.1555 0.1848
vt 0.1355 0.1648
vt 0.1281 0.1373
vt 0.1355 0.1099
vt 0.1555 0.0899
vt 0.1829 0.0825
vt 0.2104 0.0899
vt 0.1742 0.4289
vt 0.1619 0.4426
vt 0.1661 0.4248
vt 0.1569 0.4350
vt 0.1444 0.4483
vt 0.1439 0.4393
vt 0.1264 0.4445
vt 0.1305 0.4364
vt 0.1127 0.4322
vt 0.1203 0.4273
vt 0.1070 0.4147
vt 0.1160 0.4142
vt 0.1108 0.3967
vt 0.1189 0.4008
vt 0.1231 0.3830
vt 0.1281 0.3906
vt 0.1406 0.3773
vt 0.1411 0.3864
vt 0.1586 0.3812
vt 0.1545 0.3892
vt 0.1723 0.3935
vt 0.1647 0.3984
vt 0.1780 0.4109
vt 0.1689 0.4114
vt 0.2068 0.3822
vt 0.2302 0.3822
vt 0.2068 0.3148
vt 0.2302 0.3148
vt 0.2473 0.3822
vt 0.2473 0.3148
vt 0.2707 0.3822
vt 0.2707 0.3148
vt 0.2940 0.3822
vt 0.2940 0.3148
vt 0.3111 0.3822
vt 0.3111 0.3148
vt 0.3345 0.3822
vt 0.3345 0.3148
vt 0.3579 0.3822
vt 0.3579 0.3148
vt 0.3750 0.3822
vt 0.3750 0.3148
vt 0.3984 0.3822
vt 0.3984 0.3148
vt 0.4218 0.3822
vt 0.4218 0.3148
vt 0.1663 0.3822
vt 0.1834 0.3822
vt 0.1663 0.3148
vt 0.1834 0.3148
vt 0.6141 0.5549
vt 0.6207 0.5549
vt 0.6141 0.8561
vt 0.6207 0.8561
vt 0.5607 0.5549
vt 0.5673 0.5549
vt 0.5607 0.8561
vt 0.5673 0.8561
vt 0.6141 0.8627
vt 0.5673 0.8627
vt 0.6141 0.8561
vt 0.5673 0.8561
vt 0.6141 0.5549
vt 0.5673 0.5549
vt 0.6141 0.5483
vt 0.5673 0.5483
vt 0.5673 0.5549
vt 0.6141 0.5549
vt 0.5673 0.8561
vt 0.6141 0.8561
vt 0.3327 0.1563
vt 0.3327 0.1401
vt 0.3408 0.1703
vt 0.3408 0.1261
vt 0.3548 0.1180
vt 0.3710 0.1180
vt 0.3850 0.1261
vt 0.3931 0.1401
vt 0.3931 0.1563
vt 0.3850 0.1703
vt 0.3710 0.1784
vt 0.3548 0.1784
vn 0.9851 -0.0000 -0.1719
vn 0.9391 0.0000 -0.3437
vn 0.7672 0.0000 -0.6414
vn 0.6414 0.0000 -0.7672
vn 0.3437 0.0000 -0.9391
vn 0.1718 0.0000 -0.9851
vn -0.1718 0.0000 -0.9851
vn -0.3437 0.0000 -0.9391
vn -0.6414 0.0000 -0.7672
vn -0.7672 0.0000 -0.6414
vn -0.9391 0.0000 -0.3437
vn -0.9851 0.0000 -0.1718
vn -0.9851 -0.0000 0.1718
vn -0.9391 -0.0000 0.3437
vn -0.7672 -0.0000 0.6414
vn -0.6414 -0.0000 0.7672
vn -0.3437 -0.0000 0.9391
vn -0.1718 -0.0000 0.9851
vn 0.1718 -0.0000 0.9851
vn 0.3437 -0.0000 0.9391
vn 0.6414 -0.0000 0.7672
vn 0.7672 -0.0000 0.6414
vn 0.9391 -0.0000 0.3437
vn 0.9851 -0.0000 0.1718
vn 0.0000 1.0000 0.0000
vn -0.1719 0.0000 0.9851
vn 0.9851 -0.0000 -0.1718
vn -0.1719 -0.0000 -0.9851
vn 0.0000 -1.0000 0.0000
vn 1.0000 0.0000 0.0000
vn -1.0000 0.0000 0.0000
vn 0.0000 0.0000 -1.0000
usemtl mtl_pod_01
s 1
f 37/37/20 38/38/21 39/39/22
f 39/39/22 38/38/21 40/40/23
f 39/39/22 40/40/23 41/41/24
f 41/41/24 40/40/23 42/42/25
f 41/41/24 42/42/25 43/43/26
f 43/43/26 42/42/25 44/44/27
f 43/43/26 44/44/27 45/45/28
f 45/45/28 44/44/27 46/46/29
f 45/45/28 46/46/29 47/47/30
f 47/47/30 46/46/29 48/48/31
f 47/47/30 48/48/31 49/49/32
f 49/49/32 48/48/31 50/50/33
f 49/49/32 50/50/33 51/51/34
f 51/51/34 50/50/33 52/52/35
f 51/51/34 52/52/35 53/53/36
f 53/53/36 52/52/35 54/54/37
f 53/53/36 54/54/37 55/55/38
f 55/55/38 54/54/37 56/56/39
f 55/55/38 56/56/39 57/57/40
f 57/57/40 56/56/39 58/58/41
f 57/57/40 58/58/41 59/59/42
f 59/59/42 58/58/41 60/60/43
f 59/59/42 60/60/43 61/61/20
f 61/61/20 60/60/43 62/62/21
f 63/63/44 64/64/44 65/65/44
f 64/64/44 66/66/44 65/65/44
f 66/66/44 67/67/44 65/65/44
f 67/67/44 68/68/44 65/65/44
f 68/68/44 69/69/44 65/65/44
f 69/69/44 70/70/44 65/65/44
f 70/70/44 71/71/44 65/65/44
f 71/71/44 72/72/44 65/65/44
f 72/72/44 73/73/44 65/65/44
f 73/73/44 74/74/44 65/65/44
f 75/75/44 76/76/44 77/77/44
f 77/77/44 76/76/44 78/78/44
f 76/76/44 79/79/44 78/78/44
f 78/78/44 79/79/44 80/80/44
f 79/79/44 81/81/44 80/80/44
f 80/80/44 81/81/44 82/82/44
f 81/81/44 83/83/44 82/82/44
f 82/82/44 83/83/44 84/84/44
f 83/83/44 85/85/44 84/84/44
f 84/84/44 85/85/44 86/86/44
f 85/85/44 87/87/44 86/86/44
f 86/86/44 87/87/44 88/88/44
f 87/87/44 89/89/44 88/88/44
f 88/88/44 89/89/44 90/90/44
f 89/89/44 91/91/44 90/90/44
f 90/90/44 91/91/44 92/92/44
f 91/91/44 93/93/44 92/92/44
f 92/92/44 93/93/44 94/94/44
f 93/93/44 95/95/44 94/94/44
f 94/94/44 95/95/44 96/96/44
f 95/95/44 97/97/44 96/96/44
f 96/96/44 97/97/44 98/98/44
f 97/97/44 75/75/44 98/98/44
f 98/98/44 75/75/44 77/77/44
f 99/99/30 100/100/32 101/101/31
f 101/101/31 100/100/32 102/102/33
f 100/100/32 103/103/34 102/102/33
f 102/102/33 103/103/34 104/104/35
f 103/103/34 105/105/36 104/104/35
f 104/104/35 105/105/36 106/106/45
f 105/105/36 107/107/38 106/106/45
f 106/106/45 107/107/38 108/108/39
f 107/107/38 109/109/40 108/108/39
f 108/108/39 109/109/40 110/110/41
f 109/109/40 111/111/42 110/110/41
f 110/110/41 111/111/42 112/112/43
f 111/111/42 113/113/46 112/112/43
f 112/112/43 113/113/46 114/114/21
f 113/113/46 115/115/22 114/114/21
f 114/114/21 115/115/22 116/116/23
f 115/115/22 117/117/24 116/116/23
f 116/116/23 117/117/24 118/118/25
f 117/117/24 119/119/47 118/118/25
f 118/118/25 119/119/47 120/120/27
f 121/121/47 122/122/28 123/123/27
f 123/123/27 122/122/28 124/124/29
f 122/122/28 99/99/30 124/124/29
f 124/124/29 99/99/30 101/101/31
f 125/125/44 126/126/44 127/127/44
f 127/127/44 126/126/44 128/128/44
f 129/129/48 130/130/48 131/131/48
f 131/131/48 130/130/48 132/132/48
f 133/133/49 134/134/49 135/135/49
f 135/135/49 134/134/49 136/136/49
f 137/137/50 138/138/50 139/139/50
f 139/139/50 138/138/50 140/140/50
f 141/141/51 142/142/51 143/143/51
f 143/143/51 142/142/51 144/144/51
f 145/145/48 146/146/48 147/147/48
f 146/146/48 148/148/48 147/147/48
f 148/148/48 149/149/48 147/147/48
f 149/149/48 150/150/48 147/147/48
f 150/150/48 151/151/48 147/147/48
f 151/151/48 152/152/48 147/147/48
f 152/152/48 153/153/48 147/147/48
f 153/153/48 154/154/48 147/147/48
f 154/154/48 155/155/48 147/147/48
f 155/155/48 156/156/48 147/147/48
