# ..:::Stalker models:::..
# WebSite: http://excalibur-craft.ru
mtllib sign_prip_pripyat.mtl
o 0.014
v -1.116502 1.549850 0.050485
v -1.116502 1.549850 0.072726
v -1.116502 2.116484 0.050485
v -1.116502 2.116484 0.072726
v -1.057444 2.162547 0.050485
v -1.057444 2.162547 0.072726
v 1.065909 2.162547 0.050485
v 1.065909 2.162547 0.072726
v 1.116502 2.116484 0.050485
v 1.116502 2.116484 0.072726
v 1.116502 1.549850 0.050485
v 1.116502 1.549850 0.072726
v 1.065909 1.503787 0.050485
v 1.065909 1.503787 0.072726
v -1.057444 1.503787 0.050485
v -1.057444 1.503787 0.072726
v -1.116502 2.116484 0.072726
v 1.116502 2.116484 0.072726
v -1.057444 2.162547 0.072726
v 1.065909 2.162547 0.072726
v -1.116502 2.116484 0.050485
v -1.057444 2.162547 0.050485
v 1.116502 2.116484 0.050485
v 1.065909 2.162547 0.050485
v -1.116502 1.549850 0.072726
v -1.057444 1.503787 0.072726
v -1.057444 2.162547 0.072726
v -1.116502 2.116484 0.072726
v 1.116502 2.116484 0.072726
v 1.065909 2.162547 0.072726
v 1.065909 1.503787 0.072726
v 1.116502 1.549850 0.072726
v -1.116502 1.549850 0.072726
v -1.057444 1.503787 0.072726
v 1.116502 1.549850 0.072726
v 1.065909 1.503787 0.072726
v 1.116502 1.549850 0.050485
v -1.116502 1.549850 0.050485
v 1.065909 1.503787 0.050485
v -1.057444 1.503787 0.050485
vt 0.9922 0.1342
vt 0.9957 0.1342
vt 0.9922 0.2255
vt 0.9958 0.2255
vt 0.9827 0.2329
vt 0.9827 0.2365
vt 0.6406 0.2331
vt 0.6407 0.2366
vt 0.6325 0.2256
vt 0.6289 0.2256
vt 0.6325 0.1344
vt 0.6289 0.1344
vt 0.6406 0.1269
vt 0.6406 0.1234
vt 0.9826 0.1268
vt 0.9826 0.1232
vt 1.1657 0.6493
vt 1.5637 0.6493
vt 1.1762 0.6575
vt 1.5547 0.6575
vt 0.9922 0.2255
vt 0.9827 0.2329
vt 0.6325 0.2256
vt 0.6406 0.2331
vt 0.9944 0.1314
vt 0.9848 0.1239
vt 0.9849 0.2357
vt 0.9944 0.2283
vt 0.6301 0.2283
vt 0.6382 0.2357
vt 0.6382 0.1243
vt 0.6300 0.1317
vt 1.1657 0.5483
vt 1.1762 0.5401
vt 1.5637 0.5483
vt 1.5547 0.5401
vt 0.6325 0.1344
vt 0.9922 0.1342
vt 0.6406 0.1269
vt 0.9826 0.1268
vn -0.8986 -0.4388 0.0000
vn -0.8986 0.4388 0.0000
vn -0.3252 0.9457 0.0000
vn 0.3609 0.9326 0.0000
vn 0.9147 0.4042 0.0000
vn 0.9147 -0.4042 0.0000
vn 0.3609 -0.9326 0.0000
vn -0.3252 -0.9457 0.0000
vn -0.0000 -0.0000 1.0000
vn 0.0000 0.0000 -1.0000
vn -0.8986 -0.4387 0.0000
vn -0.3252 0.9457 0.0002
vn -0.8986 0.4387 0.0000
vn 0.3610 0.9326 0.0000
vn 0.3610 0.9326 -0.0001
vn 0.3610 -0.9326 0.0000
usemtl prop_signs_05.001
s 1
f 1/1/1 2/2/1 3/3/2
f 3/3/2 2/2/1 4/4/2
f 5/5/3 6/6/3 7/7/4
f 7/7/4 6/6/3 8/8/4
f 9/9/5 10/10/5 11/11/6
f 11/11/6 10/10/5 12/12/6
f 13/13/7 14/14/7 15/15/8
f 15/15/8 14/14/7 16/16/8
f 17/17/9 18/18/9 19/19/9
f 19/19/9 18/18/9 20/20/9
f 21/21/10 22/22/10 23/23/10
f 23/23/10 22/22/10 24/24/10
f 1/1/11 15/15/8 25/25/11
f 25/25/11 15/15/8 26/26/8
f 5/5/12 3/3/13 27/27/3
f 27/27/3 3/3/13 28/28/13
f 9/9/5 7/7/14 29/29/5
f 29/29/5 7/7/14 30/30/15
f 13/13/16 11/11/6 31/31/16
f 31/31/16 11/11/6 32/32/6
f 33/33/9 34/34/9 35/35/9
f 35/35/9 34/34/9 36/36/9
f 33/33/9 35/35/9 17/17/9
f 17/17/9 35/35/9 18/18/9
f 37/37/10 38/38/10 23/23/10
f 23/23/10 38/38/10 21/21/10
f 39/39/10 40/40/10 37/37/10
f 37/37/10 40/40/10 38/38/10
o 1.005
v 0.656050 -0.120724 -0.037791
v 0.631558 -0.120724 -0.037791
v 0.656050 2.031903 -0.037791
v 0.631558 2.031903 -0.037791
v 0.631558 -0.120724 -0.037791
v 0.614240 -0.120724 -0.020473
v 0.631558 2.031903 -0.037791
v 0.614240 2.031903 -0.020473
v 0.614240 -0.120724 0.004019
v 0.614240 2.031903 0.004019
v 0.631558 -0.120724 0.021337
v 0.631558 2.031903 0.021337
v 0.656050 -0.120724 0.021337
v 0.656050 2.031903 0.021337
v 0.673368 -0.120724 0.004019
v 0.673368 2.031903 0.004019
v 0.673368 -0.120724 -0.020473
v 0.673368 2.031903 -0.020473
v 0.631558 -0.120724 -0.037791
v 0.656050 -0.120724 -0.037791
v 0.643804 -0.120724 -0.008227
v 0.614240 -0.120724 -0.020473
v 0.614240 -0.120724 0.004019
v 0.631558 -0.120724 0.021337
v 0.656050 -0.120724 0.021337
v 0.673368 -0.120724 0.004019
v 0.673368 -0.120724 -0.020473
v 0.656050 2.031903 -0.037791
v 0.631558 2.031903 -0.037791
v 0.643804 2.031903 -0.008227
v 0.614240 2.031903 -0.020473
v 0.614240 2.031903 0.004019
v 0.631558 2.031903 0.021337
v 0.656050 2.031903 0.021337
v 0.673368 2.031903 0.004019
v 0.673368 2.031903 -0.020473
v 0.493976 1.968306 0.021337
v 0.793632 1.968306 0.021337
v 0.493976 1.968306 0.009337
v 0.793632 1.968306 0.009337
v 0.493976 1.968306 0.009337
v 0.793632 1.968306 0.009337
v 0.493976 1.866042 0.009337
v 0.793632 1.866042 0.009337
v 0.493976 1.866042 0.009337
v 0.793632 1.866042 0.009337
v 0.493976 1.866042 0.021337
v 0.793632 1.866042 0.021337
v 0.793632 1.866042 0.021337
v 0.793632 1.866042 0.009337
v 0.793632 1.968306 0.021337
v 0.793632 1.968306 0.009337
v 0.493976 1.866042 0.009337
v 0.493976 1.866042 0.021337
v 0.493976 1.968306 0.009337
v 0.493976 1.968306 0.021337
v -0.793631 1.968306 0.021337
v -0.493976 1.968306 0.021337
v -0.793631 1.968306 0.009337
v -0.493976 1.968306 0.009337
v -0.793631 1.968306 0.009337
v -0.493976 1.968306 0.009337
v -0.793631 1.866042 0.009337
v -0.493976 1.866042 0.009337
v -0.793631 1.866042 0.009337
v -0.493976 1.866042 0.009337
v -0.793631 1.866042 0.021337
v -0.493976 1.866042 0.021337
v -0.493976 1.866042 0.021337
v -0.493976 1.866042 0.009337
v -0.493976 1.968306 0.021337
v -0.493976 1.968306 0.009337
v -0.793631 1.866042 0.009337
v -0.793631 1.866042 0.021337
v -0.793631 1.968306 0.009337
v -0.793631 1.968306 0.021337
v -0.887015 1.618158 0.021337
v -0.887015 1.618158 0.037791
v -0.887015 2.062583 0.021337
v -0.887015 2.062584 0.037791
v -0.841686 2.108286 0.021337
v -0.841686 2.108286 0.037791
v 0.845126 2.108286 0.021337
v 0.845126 2.108286 0.037791
v 0.887015 2.062583 0.021337
v 0.887015 2.062583 0.037791
v 0.887015 1.618158 0.021337
v 0.887015 1.618158 0.037791
v 0.850233 1.574537 0.021337
v 0.850233 1.574537 0.037791
v -0.841686 1.574537 0.021337
v -0.841686 1.574537 0.037791
v -0.887015 2.062583 0.021337
v -0.841686 2.108286 0.021337
v 0.887015 2.062583 0.021337
v 0.845126 2.108286 0.021337
v -0.887015 1.618158 0.037791
v -0.841686 1.574537 0.037791
v -0.841686 2.108286 0.037791
v -0.887015 2.062584 0.037791
v 0.887015 2.062583 0.037791
v 0.845126 2.108286 0.037791
v 0.850233 1.574537 0.037791
v 0.887015 1.618158 0.037791
v 0.887015 1.618158 0.021337
v -0.887015 1.618158 0.021337
v 0.850233 1.574537 0.021337
v -0.841686 1.574537 0.021337
v -0.656049 -0.120724 -0.037791
v -0.656049 2.031903 -0.037791
v -0.631558 -0.120724 -0.037791
v -0.631558 2.031903 -0.037791
v -0.631558 -0.120724 -0.037791
v -0.631558 2.031903 -0.037791
v -0.614240 -0.120724 -0.020473
v -0.614240 2.031903 -0.020473
v -0.614240 -0.120724 0.004019
v -0.614240 2.031903 0.004019
v -0.631558 -0.120724 0.021337
v -0.631558 2.031903 0.021337
v -0.656049 -0.120724 0.021337
v -0.656049 2.031903 0.021337
v -0.673367 -0.120724 0.004019
v -0.673367 2.031903 0.004019
v -0.673368 -0.120724 -0.020473
v -0.673368 2.031903 -0.020473
v -0.631558 -0.120724 -0.037791
v -0.643804 -0.120724 -0.008227
v -0.656049 -0.120724 -0.037791
v -0.614240 -0.120724 -0.020473
v -0.614240 -0.120724 0.004019
v -0.631558 -0.120724 0.021337
v -0.656049 -0.120724 0.021337
v -0.673367 -0.120724 0.004019
v -0.673368 -0.120724 -0.020473
v -0.656049 2.031903 -0.037791
v -0.643804 2.031903 -0.008227
v -0.631558 2.031903 -0.037791
v -0.614240 2.031903 -0.020473
v -0.614240 2.031903 0.004019
v -0.631558 2.031903 0.021337
v -0.656049 2.031903 0.021337
v -0.673367 2.031903 0.004019
v -0.673368 2.031903 -0.020473
vt 2.3120 0.0737
vt 2.3242 0.0737
vt 2.3120 0.9961
vt 2.3242 0.9961
vt 2.2268 0.0737
vt 2.2390 0.0737
vt 2.2268 0.9961
vt 2.2390 0.9961
vt 2.2511 0.0737
vt 2.2511 0.9961
vt 2.2633 0.0737
vt 2.2633 0.9961
vt 2.2755 0.0737
vt 2.2755 0.9961
vt 2.2877 0.0737
vt 2.2877 0.9961
vt 2.2998 0.0737
vt 2.2998 0.9961
vt 2.2268 0.0737
vt 2.2182 0.0824
vt 2.2329 0.0884
vt 2.2390 0.0737
vt 2.2476 0.0824
vt 2.2476 0.0945
vt 2.2390 0.1031
vt 2.2268 0.1031
vt 2.2182 0.0945
vt 2.2182 1.0047
vt 2.2268 0.9961
vt 2.2329 1.0108
vt 2.2390 0.9961
vt 2.2476 1.0047
vt 2.2476 1.0169
vt 2.2390 1.0255
vt 2.2268 1.0255
vt 2.2182 1.0169
vt 1.4619 0.9084
vt 1.3130 0.9084
vt 1.4619 0.9024
vt 1.3130 0.9024
vt 1.4619 0.9024
vt 1.3130 0.9024
vt 1.4619 0.8516
vt 1.3130 0.8516
vt 1.4619 0.8516
vt 1.3130 0.8516
vt 1.4619 0.8456
vt 1.3130 0.8456
vt 1.3070 0.8516
vt 1.3130 0.8516
vt 1.3070 0.9024
vt 1.3130 0.9024
vt 1.4619 0.8516
vt 1.4679 0.8516
vt 1.4619 0.9024
vt 1.4679 0.9024
vt 0.5441 0.8950
vt 0.3951 0.8950
vt 0.5441 0.8890
vt 0.3951 0.8890
vt 0.5441 0.8890
vt 0.3951 0.8890
vt 0.5441 0.8382
vt 0.3951 0.8382
vt 0.5441 0.8382
vt 0.3951 0.8382
vt 0.5441 0.8323
vt 0.3951 0.8323
vt 0.3892 0.8382
vt 0.3951 0.8382
vt 0.3892 0.8890
vt 0.3951 0.8890
vt 0.5441 0.8382
vt 0.5500 0.8382
vt 0.5441 0.8890
vt 0.5500 0.8890
vt 1.6373 1.1725
vt 1.6455 1.1725
vt 1.6373 1.3934
vt 1.6455 1.3934
vt 1.6148 1.4161
vt 1.6148 1.4243
vt 0.7764 1.4161
vt 0.7764 1.4243
vt 0.7556 1.3934
vt 0.7474 1.3934
vt 0.7556 1.1725
vt 0.7474 1.1725
vt 0.7739 1.1509
vt 0.7739 1.1427
vt 1.6148 1.1509
vt 1.6148 1.1427
vt 1.6373 1.3934
vt 1.6148 1.4161
vt 0.7556 1.3934
vt 0.7764 1.4161
vt 1.6430 1.1666
vt 1.6204 1.1450
vt 1.6206 1.4219
vt 1.6431 1.3992
vt 0.7496 1.3989
vt 0.7704 1.4217
vt 0.7676 1.1456
vt 0.7494 1.1673
vt 0.7556 1.1725
vt 1.6373 1.1725
vt 0.7739 1.1509
vt 1.6148 1.1509
vt 1.6935 0.0896
vt 1.6935 0.9803
vt 1.6813 0.0896
vt 1.6813 0.9803
vt 1.7787 0.0896
vt 1.7787 0.9803
vt 1.7665 0.0896
vt 1.7665 0.9803
vt 1.7544 0.0896
vt 1.7544 0.9803
vt 1.7422 0.0896
vt 1.7422 0.9803
vt 1.7300 0.0896
vt 1.7300 0.9803
vt 1.7179 0.0896
vt 1.7179 0.9803
vt 1.7057 0.0896
vt 1.7057 0.9803
vt 1.6813 0.0896
vt 1.6874 0.1043
vt 1.6935 0.0896
vt 1.6727 0.0982
vt 1.6727 0.1104
vt 1.6813 0.1190
vt 1.6935 0.1190
vt 1.7021 0.1104
vt 1.7021 0.0982
vt 1.6935 0.9803
vt 1.6874 0.9950
vt 1.6813 0.9803
vt 1.6727 0.9889
vt 1.6727 1.0011
vt 1.6813 1.0097
vt 1.6935 1.0097
vt 1.7021 1.0011
vt 1.7021 0.9889
vn 0.5055 -0.0001 -0.8628
vn -0.2527 0.0000 -0.9675
vn 0.2527 0.0001 -0.9675
vn -0.5055 -0.0000 -0.8629
vn -0.8629 0.0000 -0.5054
vn -0.5054 -0.0000 -0.8629
vn -0.9675 0.0000 -0.2527
vn -0.9675 -0.0000 0.2527
vn -0.8629 -0.0000 0.5054
vn -0.5055 -0.0000 0.8628
vn -0.2528 -0.0001 0.9675
vn 0.2527 -0.0000 0.9675
vn 0.5055 -0.0000 0.8628
vn 0.8629 -0.0000 0.5054
vn 0.9675 -0.0000 0.2527
vn 0.9675 0.0000 -0.2527
vn 0.8629 0.0001 -0.5054
vn 0.0000 -1.0000 -0.0000
vn 0.0000 1.0000 -0.0000
vn 0.0000 0.0000 -1.0000
vn 1.0000 0.0000 0.0000
vn -1.0000 0.0000 0.0000
vn -0.9202 -0.3915 0.0000
vn -0.9247 0.3808 0.0000
vn -0.3846 0.9231 0.0000
vn 0.4027 0.9153 0.0001
vn 0.4027 0.9153 -0.0000
vn 0.9320 0.3625 0.0000
vn 0.9320 0.3625 -0.0001
vn 0.9393 -0.3432 0.0000
vn 0.4215 -0.9068 0.0000
vn 0.4215 -0.9068 -0.0001
vn -0.3738 -0.9275 0.0000
vn 0.9393 -0.3431 0.0000
vn 0.2527 0.0000 -0.9675
vn 0.5055 -0.0000 -0.8629
vn 0.5054 -0.0000 -0.8629
vn 0.8629 0.0000 -0.5054
vn 0.2528 -0.0000 0.9675
vn -0.2528 -0.0000 0.9675
vn -0.8628 0.0000 -0.5055
usemtl mtl_rja_blue.003
s 1
f 41/41/17 42/42/18 43/43/19
f 43/43/19 42/42/18 44/44/20
f 45/45/18 46/46/21 47/47/22
f 47/47/22 46/46/21 48/48/23
f 46/46/21 49/49/24 48/48/23
f 48/48/23 49/49/24 50/50/25
f 49/49/24 51/51/26 50/50/25
f 50/50/25 51/51/26 52/52/27
f 51/51/26 53/53/28 52/52/27
f 52/52/27 53/53/28 54/54/29
f 53/53/28 55/55/30 54/54/29
f 54/54/29 55/55/30 56/56/31
f 55/55/30 57/57/32 56/56/31
f 56/56/31 57/57/32 58/58/33
f 57/57/32 41/41/17 58/58/33
f 58/58/33 41/41/17 43/43/19
f 59/59/34 60/60/34 61/61/34
f 62/62/34 59/59/34 61/61/34
f 63/63/34 62/62/34 61/61/34
f 64/64/34 63/63/34 61/61/34
f 65/65/34 64/64/34 61/61/34
f 66/66/34 65/65/34 61/61/34
f 67/67/34 66/66/34 61/61/34
f 60/60/34 67/67/34 61/61/34
f 68/68/35 69/69/35 70/70/35
f 69/69/35 71/71/35 70/70/35
f 71/71/35 72/72/35 70/70/35
f 72/72/35 73/73/35 70/70/35
f 73/73/35 74/74/35 70/70/35
f 74/74/35 75/75/35 70/70/35
f 75/75/35 76/76/35 70/70/35
f 76/76/35 68/68/35 70/70/35
f 77/77/35 78/78/35 79/79/35
f 79/79/35 78/78/35 80/80/35
f 81/81/36 82/82/36 83/83/36
f 83/83/36 82/82/36 84/84/36
f 85/85/34 86/86/34 87/87/34
f 87/87/34 86/86/34 88/88/34
f 89/89/37 90/90/37 91/91/37
f 91/91/37 90/90/37 92/92/37
f 93/93/38 94/94/38 95/95/38
f 95/95/38 94/94/38 96/96/38
f 97/97/35 98/98/35 99/99/35
f 99/99/35 98/98/35 100/100/35
f 101/101/36 102/102/36 103/103/36
f 103/103/36 102/102/36 104/104/36
f 105/105/34 106/106/34 107/107/34
f 107/107/34 106/106/34 108/108/34
f 109/109/37 110/110/37 111/111/37
f 111/111/37 110/110/37 112/112/37
f 113/113/38 114/114/38 115/115/38
f 115/115/38 114/114/38 116/116/38
f 117/117/39 118/118/39 119/119/40
f 119/119/40 118/118/39 120/120/40
f 121/121/41 122/122/41 123/123/42
f 123/123/42 122/122/41 124/124/43
f 125/125/44 126/126/45 127/127/46
f 127/127/46 126/126/45 128/128/46
f 129/129/47 130/130/48 131/131/49
f 131/131/49 130/130/48 132/132/49
f 133/133/36 134/134/36 135/135/36
f 135/135/36 134/134/36 136/136/36
f 117/117/39 131/131/49 137/137/39
f 137/137/39 131/131/49 138/138/49
f 121/121/41 119/119/40 139/139/41
f 139/139/41 119/119/40 140/140/40
f 125/125/44 123/123/43 141/141/44
f 141/141/44 123/123/43 142/142/43
f 129/129/47 127/127/50 143/143/47
f 143/143/47 127/127/50 144/144/50
f 145/145/36 146/146/36 135/135/36
f 135/135/36 146/146/36 133/133/36
f 147/147/36 148/148/36 145/145/36
f 145/145/36 148/148/36 146/146/36
f 149/149/20 150/150/18 151/151/51
f 151/151/51 150/150/18 152/152/52
f 153/153/51 154/154/53 155/155/54
f 155/155/54 154/154/53 156/156/32
f 155/155/54 156/156/32 157/157/31
f 157/157/31 156/156/32 158/158/30
f 157/157/31 158/158/30 159/159/29
f 159/159/29 158/158/30 160/160/55
f 159/159/29 160/160/55 161/161/56
f 161/161/56 160/160/55 162/162/26
f 161/161/56 162/162/26 163/163/25
f 163/163/25 162/162/26 164/164/24
f 163/163/25 164/164/24 165/165/23
f 165/165/23 164/164/24 166/166/57
f 165/165/23 166/166/57 149/149/20
f 149/149/20 166/166/57 150/150/18
f 167/167/34 168/168/34 169/169/34
f 170/170/34 168/168/34 167/167/34
f 171/171/34 168/168/34 170/170/34
f 172/172/34 168/168/34 171/171/34
f 173/173/34 168/168/34 172/172/34
f 174/174/34 168/168/34 173/173/34
f 175/175/34 168/168/34 174/174/34
f 169/169/34 168/168/34 175/175/34
f 176/176/35 177/177/35 178/178/35
f 178/178/35 177/177/35 179/179/35
f 179/179/35 177/177/35 180/180/35
f 180/180/35 177/177/35 181/181/35
f 181/181/35 177/177/35 182/182/35
f 182/182/35 177/177/35 183/183/35
f 183/183/35 177/177/35 184/184/35
f 184/184/35 177/177/35 176/176/35
