# ..:::Stalker models:::..
# WebSite: http://excalibur-craft.ru
mtllib sign_radiation.mtl
o 0.015
v 0.030700 -0.120724 -0.008226
v 0.022474 -0.120724 -0.022474
v 0.030700 0.199780 -0.008226
v 0.022474 0.199780 -0.022474
v 0.008226 -0.120724 -0.030700
v 0.008226 0.199780 -0.030700
v -0.008226 -0.120724 -0.030700
v -0.008226 0.199780 -0.030700
v -0.022474 -0.120724 -0.022474
v -0.022474 0.199780 -0.022474
v -0.030700 -0.120724 -0.008226
v -0.030700 0.199780 -0.008226
v -0.030700 -0.120724 0.008226
v -0.030700 0.199780 0.008226
v -0.022474 -0.120724 0.022474
v -0.022474 0.199780 0.022474
v -0.008226 -0.120724 0.030700
v -0.008226 0.199780 0.030700
v 0.008226 -0.120724 0.030700
v 0.008226 0.199780 0.030700
v 0.022474 -0.120724 0.022474
v 0.022474 0.199780 0.022474
v 0.030700 -0.120724 0.008226
v 0.030700 0.199780 0.008226
v 0.030700 -0.120724 -0.008226
v 0.030700 0.199780 -0.008226
v 0.022877 1.569626 0.006130
v 0.022877 1.569626 -0.006130
v 0.016747 1.569626 0.016747
v 0.016747 1.569626 -0.016747
v 0.006130 1.569626 -0.022876
v -0.006130 1.569626 -0.022876
v -0.016747 1.569626 -0.016747
v -0.022877 1.569626 -0.006130
v -0.022877 1.569626 0.006130
v -0.016747 1.569626 0.016747
v -0.006130 1.569626 0.022877
v 0.006130 1.569626 0.022877
v 0.030700 1.609436 0.008226
v 0.030700 1.609436 -0.008226
v 0.022877 1.609436 0.006130
v 0.022877 1.609435 -0.006130
v 0.022474 1.609436 -0.022474
v 0.016747 1.609435 -0.016747
v 0.008226 1.609436 -0.030700
v 0.006130 1.609435 -0.022877
v -0.008226 1.609436 -0.030700
v -0.006130 1.609435 -0.022877
v -0.022474 1.609436 -0.022474
v -0.016747 1.609435 -0.016747
v -0.030700 1.609436 -0.008226
v -0.022877 1.609435 -0.006130
v -0.030700 1.609436 0.008226
v -0.022877 1.609436 0.006130
v -0.022474 1.609436 0.022474
v -0.016747 1.609436 0.016747
v -0.008226 1.609436 0.030700
v -0.006130 1.609436 0.022877
v 0.008226 1.609436 0.030700
v 0.006130 1.609436 0.022877
v 0.022474 1.609436 0.022474
v 0.016747 1.609436 0.016747
v 0.022877 1.609436 0.006130
v 0.022877 1.609435 -0.006130
v 0.022877 1.569626 0.006130
v 0.022877 1.569626 -0.006130
v 0.016747 1.609435 -0.016747
v 0.016747 1.569626 -0.016747
v 0.006130 1.609435 -0.022877
v 0.006130 1.569626 -0.022876
v -0.006130 1.609435 -0.022877
v -0.006130 1.569626 -0.022876
v -0.016747 1.609435 -0.016747
v -0.016747 1.569626 -0.016747
v -0.022877 1.609435 -0.006130
v -0.022877 1.569626 -0.006130
v -0.022877 1.609436 0.006130
v -0.022877 1.569626 0.006130
v -0.016747 1.609436 0.016747
v -0.016747 1.569626 0.016747
v -0.006130 1.609436 0.022877
v -0.006130 1.569626 0.022877
v 0.006130 1.609436 0.022877
v 0.006130 1.569626 0.022877
v 0.006130 1.609436 0.022877
v 0.016747 1.609436 0.016747
v 0.006130 1.569626 0.022877
v 0.016747 1.569626 0.016747
v 0.030700 0.789394 -0.008226
v 0.022474 0.789394 -0.022474
v 0.030700 1.609436 -0.008226
v 0.022474 1.609436 -0.022474
v 0.008226 0.789394 -0.030700
v 0.008226 1.609436 -0.030700
v -0.008226 0.789394 -0.030700
v -0.008226 1.609436 -0.030700
v -0.022474 0.789394 -0.022474
v -0.022474 1.609436 -0.022474
v -0.030700 0.789394 -0.008226
v -0.030700 1.609436 -0.008226
v -0.030700 0.789394 0.008226
v -0.030700 1.609436 0.008226
v -0.022474 0.789394 0.022474
v -0.022474 1.609436 0.022474
v -0.008226 0.789394 0.030700
v -0.008226 1.609436 0.030700
v 0.008226 0.789394 0.030700
v 0.008226 1.609436 0.030700
v 0.022474 0.789394 0.022474
v 0.022474 1.609436 0.022474
v 0.030700 0.789394 0.008226
v 0.030700 1.609436 0.008226
v 0.030700 0.789394 -0.008226
v 0.030700 1.609436 -0.008226
v -0.164634 1.537474 0.040043
v 0.164634 1.537474 0.040043
v -0.164634 1.537474 0.030073
v 0.164634 1.537474 0.030073
v -0.164634 1.466390 0.030073
v 0.164634 1.466390 0.030073
v -0.164634 1.466390 0.040043
v 0.164634 1.466390 0.040043
v 0.164634 1.466390 0.040043
v 0.164634 1.466390 0.030073
v 0.164634 1.537474 0.040043
v 0.164634 1.537474 0.030073
v -0.164634 1.466390 0.030073
v -0.164634 1.466390 0.040043
v -0.164634 1.537474 0.030073
v -0.164634 1.537474 0.040043
v -0.164634 1.537474 0.030073
v 0.164634 1.537474 0.030073
v -0.164634 1.466390 0.030073
v 0.164634 1.466390 0.030073
vt 0.1159 0.0000
vt 0.1319 0.0000
vt 0.1159 0.1762
vt 0.1319 0.1762
vt 0.1479 0.0000
vt 0.1479 0.1762
vt 0.1639 0.0000
vt 0.1639 0.1762
vt 0.1798 0.0000
vt 0.1798 0.1762
vt 0.1958 0.0000
vt 0.1958 0.1762
vt 0.2118 0.0000
vt 0.2118 0.1762
vt 0.2278 0.0000
vt 0.2278 0.1762
vt 0.2438 0.0000
vt 0.2438 0.1762
vt 0.2598 0.0000
vt 0.2598 0.1762
vt 0.2758 0.0000
vt 0.2758 0.1762
vt 0.2918 0.0000
vt 0.2918 0.1762
vt 0.3078 0.0000
vt 0.3078 0.1762
vt 0.2378 0.1373
vt 0.2304 0.1648
vt 0.2304 0.1099
vt 0.2104 0.1848
vt 0.1829 0.1922
vt 0.1555 0.1848
vt 0.1355 0.1648
vt 0.1281 0.1373
vt 0.1355 0.1099
vt 0.1555 0.0899
vt 0.1829 0.0825
vt 0.2104 0.0899
vt 0.1726 0.3456
vt 0.1471 0.3739
vt 0.1559 0.3371
vt 0.1369 0.3582
vt 0.1109 0.3857
vt 0.1099 0.3670
vt 0.0737 0.3778
vt 0.0822 0.3611
vt 0.0453 0.3524
vt 0.0611 0.3421
vt 0.0335 0.3162
vt 0.0523 0.3152
vt 0.0414 0.2789
vt 0.0581 0.2874
vt 0.0669 0.2506
vt 0.0771 0.2663
vt 0.1031 0.2388
vt 0.1041 0.2575
vt 0.1403 0.2467
vt 0.1318 0.2634
vt 0.1687 0.2721
vt 0.1529 0.2824
vt 0.1805 0.3083
vt 0.1617 0.3093
vt 0.0715 0.2586
vt 0.1097 0.2586
vt 0.0715 0.1483
vt 0.1097 0.1483
vt 0.1377 0.2586
vt 0.1377 0.1483
vt 0.1759 0.2586
vt 0.1759 0.1483
vt 0.2142 0.2586
vt 0.2142 0.1483
vt 0.2421 0.2586
vt 0.2421 0.1483
vt 0.2804 0.2586
vt 0.2804 0.1483
vt 0.3186 0.2586
vt 0.3186 0.1483
vt 0.3466 0.2586
vt 0.3466 0.1483
vt 0.3848 0.2586
vt 0.3848 0.1483
vt 0.4230 0.2586
vt 0.4230 0.1483
vt 0.0053 0.2586
vt 0.0333 0.2586
vt 0.0053 0.1483
vt 0.0333 0.1483
vt 0.1159 0.5004
vt 0.1319 0.5004
vt 0.1159 1.0000
vt 0.1319 1.0000
vt 0.1479 0.5004
vt 0.1479 1.0000
vt 0.1639 0.5004
vt 0.1639 1.0000
vt 0.1798 0.5004
vt 0.1798 1.0000
vt 0.1958 0.5004
vt 0.1958 1.0000
vt 0.2118 0.5004
vt 0.2118 1.0000
vt 0.2278 0.5004
vt 0.2278 1.0000
vt 0.2438 0.5004
vt 0.2438 1.0000
vt 0.2598 0.5004
vt 0.2598 1.0000
vt 0.2758 0.5004
vt 0.2758 1.0000
vt 0.2918 0.5004
vt 0.2918 1.0000
vt 0.3078 0.5004
vt 0.3078 1.0000
vt 0.0231 1.1088
vt 0.0231 2.1447
vt 0.0074 1.1088
vt 0.0074 2.1447
vt 0.0074 0.5844
vt 0.0074 0.4515
vt 0.0231 0.5844
vt 0.0231 0.4515
vt 0.0231 0.4515
vt 0.0074 0.4515
vt 0.0231 0.9759
vt 0.0074 0.9759
vt 0.0074 0.5844
vt 0.0231 0.5844
vt 0.0074 1.1088
vt 0.0231 1.1088
vt 0.4580 0.0182
vt 0.9536 0.0182
vt 0.4580 0.1920
vt 0.9536 0.1920
vn 0.9851 0.0000 -0.1719
vn 0.7672 0.0000 -0.6414
vn 0.9659 0.0000 -0.2588
vn 0.7071 0.0000 -0.7071
vn 0.3437 0.0000 -0.9391
vn 0.2588 0.0000 -0.9659
vn -0.1719 -0.0000 -0.9851
vn -0.2588 0.0000 -0.9659
vn -0.6414 -0.0000 -0.7672
vn -0.7071 0.0000 -0.7071
vn -0.9391 0.0000 -0.3437
vn -0.9659 0.0000 -0.2588
vn -0.9851 -0.0000 0.1719
vn -0.9659 -0.0000 0.2588
vn -0.7672 -0.0000 0.6414
vn -0.7071 -0.0000 0.7071
vn -0.3437 -0.0000 0.9391
vn -0.2588 -0.0000 0.9659
vn 0.1719 0.0000 0.9851
vn 0.2588 -0.0000 0.9659
vn 0.6414 -0.0000 0.7672
vn 0.7071 -0.0000 0.7071
vn 0.9391 -0.0000 0.3437
vn 0.9659 -0.0000 0.2588
vn 0.0000 1.0000 0.0000
vn -0.0001 1.0000 0.0000
vn -0.0001 1.0000 0.0001
vn -0.0000 1.0000 0.0001
vn 0.0000 1.0000 0.0002
vn 0.0001 1.0000 0.0001
vn 0.0001 1.0000 0.0000
vn -0.9851 0.0000 -0.1718
vn -0.9391 -0.0000 0.3437
vn -0.6414 0.0000 0.7672
vn -0.1719 0.0000 0.9851
vn 0.1718 0.0000 0.9851
vn 0.3437 0.0000 0.9391
vn 0.7672 -0.0000 0.6414
vn 0.9851 -0.0000 0.1718
vn 0.9391 0.0000 -0.3437
vn 0.6414 0.0000 -0.7672
vn 0.1718 0.0000 -0.9851
vn -0.3437 0.0000 -0.9391
vn -0.7672 0.0000 -0.6414
vn 0.1719 0.0000 -0.9851
vn -0.3437 0.0001 -0.9391
vn -0.9851 -0.0000 -0.1719
vn 0.9851 -0.0000 0.1719
vn 0.0000 -1.0000 0.0000
vn 1.0000 0.0000 0.0000
vn -1.0000 -0.0000 0.0000
vn 0.0000 0.0000 -1.0000
usemtl prop_ukazatel.003
s 1
f 1/1/1 2/2/2 3/3/3
f 3/3/3 2/2/2 4/4/4
f 2/2/2 5/5/5 4/4/4
f 4/4/4 5/5/5 6/6/6
f 5/5/5 7/7/7 6/6/6
f 6/6/6 7/7/7 8/8/8
f 7/7/7 9/9/9 8/8/8
f 8/8/8 9/9/9 10/10/10
f 9/9/9 11/11/11 10/10/10
f 10/10/10 11/11/11 12/12/12
f 11/11/11 13/13/13 12/12/12
f 12/12/12 13/13/13 14/14/14
f 13/13/13 15/15/15 14/14/14
f 14/14/14 15/15/15 16/16/16
f 15/15/15 17/17/17 16/16/16
f 16/16/16 17/17/17 18/18/18
f 17/17/17 19/19/19 18/18/18
f 18/18/18 19/19/19 20/20/20
f 19/19/19 21/21/21 20/20/20
f 20/20/20 21/21/21 22/22/22
f 21/21/21 23/23/23 22/22/22
f 22/22/22 23/23/23 24/24/24
f 23/23/23 25/25/1 24/24/24
f 24/24/24 25/25/1 26/26/3
f 27/27/25 28/28/25 29/29/25
f 28/28/25 30/30/25 29/29/25
f 30/30/25 31/31/25 29/29/25
f 31/31/25 32/32/25 29/29/25
f 32/32/25 33/33/25 29/29/25
f 33/33/25 34/34/25 29/29/25
f 34/34/25 35/35/25 29/29/25
f 35/35/25 36/36/25 29/29/25
f 36/36/25 37/37/25 29/29/25
f 37/37/25 38/38/25 29/29/25
f 39/39/25 40/40/26 41/41/25
f 41/41/25 40/40/26 42/42/26
f 40/40/26 43/43/27 42/42/26
f 42/42/26 43/43/27 44/44/27
f 43/43/27 45/45/28 44/44/27
f 44/44/27 45/45/28 46/46/28
f 45/45/28 47/47/28 46/46/28
f 46/46/28 47/47/28 48/48/29
f 47/47/28 49/49/30 48/48/29
f 48/48/29 49/49/30 50/50/30
f 49/49/30 51/51/31 50/50/30
f 50/50/30 51/51/31 52/52/31
f 51/51/31 53/53/25 52/52/31
f 52/52/31 53/53/25 54/54/25
f 53/53/25 55/55/25 54/54/25
f 54/54/25 55/55/25 56/56/25
f 55/55/25 57/57/25 56/56/25
f 56/56/25 57/57/25 58/58/25
f 57/57/25 59/59/25 58/58/25
f 58/58/25 59/59/25 60/60/25
f 59/59/25 61/61/25 60/60/25
f 60/60/25 61/61/25 62/62/25
f 61/61/25 39/39/25 62/62/25
f 62/62/25 39/39/25 41/41/25
f 63/63/11 64/64/13 65/65/32
f 65/65/32 64/64/13 66/66/33
f 64/64/13 67/67/15 66/66/33
f 66/66/33 67/67/15 68/68/34
f 67/67/15 69/69/17 68/68/34
f 68/68/34 69/69/17 70/70/35
f 69/69/17 71/71/36 70/70/35
f 70/70/35 71/71/36 72/72/37
f 71/71/36 73/73/21 72/72/37
f 72/72/37 73/73/21 74/74/38
f 73/73/21 75/75/23 74/74/38
f 74/74/38 75/75/23 76/76/39
f 75/75/23 77/77/1 76/76/39
f 76/76/39 77/77/1 78/78/40
f 77/77/1 79/79/2 78/78/40
f 78/78/40 79/79/2 80/80/41
f 79/79/2 81/81/5 80/80/41
f 80/80/41 81/81/5 82/82/42
f 81/81/5 83/83/7 82/82/42
f 82/82/42 83/83/7 84/84/43
f 85/85/7 86/86/9 87/87/43
f 87/87/43 86/86/9 88/88/44
f 86/86/9 63/63/11 88/88/44
f 88/88/44 63/63/11 65/65/32
f 89/89/3 90/90/4 91/91/40
f 91/91/40 90/90/4 92/92/41
f 90/90/4 93/93/6 92/92/41
f 92/92/41 93/93/6 94/94/45
f 93/93/6 95/95/8 94/94/45
f 94/94/45 95/95/8 96/96/46
f 95/95/8 97/97/10 96/96/46
f 96/96/46 97/97/10 98/98/44
f 97/97/10 99/99/12 98/98/44
f 98/98/44 99/99/12 100/100/47
f 99/99/12 101/101/14 100/100/47
f 100/100/47 101/101/14 102/102/33
f 101/101/14 103/103/16 102/102/33
f 102/102/33 103/103/16 104/104/34
f 103/103/16 105/105/18 104/104/34
f 104/104/34 105/105/18 106/106/35
f 105/105/18 107/107/20 106/106/35
f 106/106/35 107/107/20 108/108/37
f 107/107/20 109/109/22 108/108/37
f 108/108/37 109/109/22 110/110/38
f 109/109/22 111/111/24 110/110/38
f 110/110/38 111/111/24 112/112/48
f 111/111/24 113/113/3 112/112/48
f 112/112/48 113/113/3 114/114/40
f 3/3/3 4/4/4 89/89/3
f 89/89/3 4/4/4 90/90/4
f 4/4/4 6/6/6 90/90/4
f 90/90/4 6/6/6 93/93/6
f 6/6/6 8/8/8 93/93/6
f 93/93/6 8/8/8 95/95/8
f 8/8/8 10/10/10 95/95/8
f 95/95/8 10/10/10 97/97/10
f 10/10/10 12/12/12 97/97/10
f 97/97/10 12/12/12 99/99/12
f 12/12/12 14/14/14 99/99/12
f 99/99/12 14/14/14 101/101/14
f 14/14/14 16/16/16 101/101/14
f 101/101/14 16/16/16 103/103/16
f 16/16/16 18/18/18 103/103/16
f 103/103/16 18/18/18 105/105/18
f 18/18/18 20/20/20 105/105/18
f 105/105/18 20/20/20 107/107/20
f 20/20/20 22/22/22 107/107/20
f 107/107/20 22/22/22 109/109/22
f 22/22/22 24/24/24 109/109/22
f 109/109/22 24/24/24 111/111/24
f 24/24/24 26/26/3 111/111/24
f 111/111/24 26/26/3 113/113/3
f 115/115/25 116/116/25 117/117/25
f 117/117/25 116/116/25 118/118/25
f 119/119/49 120/120/49 121/121/49
f 121/121/49 120/120/49 122/122/49
f 123/123/50 124/124/50 125/125/50
f 125/125/50 124/124/50 126/126/50
f 127/127/51 128/128/51 129/129/51
f 129/129/51 128/128/51 130/130/51
f 131/131/52 132/132/52 133/133/52
f 133/133/52 132/132/52 134/134/52
o 1.006
v 0.433013 1.225084 0.040247
v -0.433013 1.225084 0.040247
v 0.000000 1.975084 0.040247
v 0.000000 1.975084 0.054521
v -0.433013 1.225084 0.054521
v 0.433013 1.225084 0.054521
v 0.000000 1.975084 0.040247
v -0.433013 1.225084 0.040247
v 0.000000 1.975084 0.054521
v -0.433013 1.225084 0.054521
v 0.433013 1.225084 0.054521
v -0.433013 1.225084 0.054521
v 0.433013 1.225084 0.040247
v -0.433013 1.225084 0.040247
v 0.433013 1.225084 0.040247
v 0.000000 1.975084 0.040247
v 0.433013 1.225084 0.054521
v 0.000000 1.975084 0.054521
vt -0.5000 0.9406
vt 0.5000 0.9406
vt 0.0000 0.0746
vt 0.5000 0.8660
vt 0.0000 0.0000
vt 1.0000 0.0000
vt 0.0722 0.0969
vt 0.4690 0.7823
vt 0.0596 0.1042
vt 0.4565 0.7896
vt 0.4565 0.7896
vt 0.0596 0.1042
vt 0.4690 0.7823
vt 0.0722 0.0969
vt 0.0722 0.0969
vt 0.4690 0.7823
vt 0.0596 0.1042
vt 0.4565 0.7896
vn 0.0000 0.0000 -1.0000
vn 0.0000 -0.0000 1.0000
vn -0.8660 0.5000 0.0000
vn 0.0000 -1.0000 0.0000
vn 0.8660 0.5000 0.0000
usemtl sign_radiation
s 1
f 135/135/53 136/136/53 137/137/53
f 138/138/54 139/139/54 140/140/54
f 141/141/55 142/142/55 143/143/55
f 143/143/55 142/142/55 144/144/55
f 145/145/56 146/146/56 147/147/56
f 147/147/56 146/146/56 148/148/56
f 149/149/57 150/150/57 151/151/57
f 151/151/57 150/150/57 152/152/57
