# Blender v2.76 (sub 0) OBJ File: ''
# www.blender.org
mtllib LeftArm.mtl
o rightarm
v -0.125000 0.801219 -0.500768
v -0.125000 0.825040 -0.250768
v -0.125000 1.421920 -0.250768
v -0.125000 1.421920 -0.500768
v 0.125000 0.801219 -0.250768
v 0.125000 0.801219 -0.500768
v 0.125000 1.421920 -0.500768
v 0.125000 1.421920 -0.250768
v -0.041667 0.801219 -0.511831
v 0.041667 0.801219 -0.511831
v -0.041667 0.825040 -0.250768
v 0.041667 0.801219 -0.250768
v -0.041666 1.421920 -0.250768
v 0.041667 1.421920 -0.250768
v -0.041666 1.421920 -0.511831
v 0.041667 1.421920 -0.511831
v 0.137722 0.784381 -0.334101
v 0.137722 0.784381 -0.417435
v 0.137722 1.421920 -0.417435
v 0.137722 1.421920 -0.334101
v -0.133837 0.792344 -0.417435
v -0.133837 0.792344 -0.334101
v -0.133837 1.421920 -0.334101
v -0.133837 1.421920 -0.417435
v 0.041667 0.801305 -0.334101
v 0.041667 0.801305 -0.417435
v -0.041667 0.801305 -0.334101
v -0.041667 0.801305 -0.417435
v -0.041666 1.421920 -0.334101
v -0.041666 1.421920 -0.417435
v 0.041667 1.421920 -0.334101
v 0.041667 1.421920 -0.417435
v -0.127782 1.403982 -0.505527
v -0.127782 1.415524 -0.249462
v -0.127782 1.465056 -0.249462
v -0.127782 1.465056 -0.505527
v 0.129672 1.415524 -0.249462
v 0.129672 1.400424 -0.505527
v 0.129672 1.465056 -0.505527
v 0.129672 1.465056 -0.249462
v -0.063418 1.383671 -0.515744
v 0.000945 1.376563 -0.515744
v 0.065309 1.383671 -0.515744
v -0.063418 1.415524 -0.249462
v 0.000945 1.415524 -0.249462
v 0.065309 1.415524 -0.249462
v -0.063418 1.494735 -0.249462
v 0.000945 1.494735 -0.249462
v 0.065309 1.494735 -0.249462
v -0.063418 1.465056 -0.505527
v 0.000945 1.465056 -0.505527
v 0.065309 1.465056 -0.505527
v 0.129672 1.424749 -0.505527
v 0.129672 1.441260 -0.505527
v 0.129672 1.432034 -0.249462
v 0.129672 1.448545 -0.249462
v -0.127782 1.432034 -0.249462
v -0.127782 1.448545 -0.249462
v -0.127782 1.428002 -0.505527
v -0.127782 1.444512 -0.505527
v -0.063418 1.440338 -0.249462
v -0.063418 1.465153 -0.249462
v 0.000945 1.440338 -0.249462
v 0.000945 1.465153 -0.249462
v 0.065309 1.440338 -0.249462
v 0.065309 1.465153 -0.249462
v 0.065309 1.415525 -0.515744
v 0.065309 1.443788 -0.515744
v 0.000945 1.415525 -0.515744
v 0.000945 1.443788 -0.515744
v -0.063418 1.415525 -0.515744
v -0.063418 1.443788 -0.515744
v 0.142551 1.411000 -0.313478
v 0.142551 1.407588 -0.377494
v 0.142551 1.403311 -0.441511
v 0.142551 1.465056 -0.441511
v 0.142551 1.465056 -0.377494
v 0.142551 1.465056 -0.313478
v -0.137907 1.408404 -0.441511
v -0.137907 1.411347 -0.377494
v -0.137907 1.411815 -0.313478
v -0.137907 1.465056 -0.313478
v -0.137907 1.465056 -0.377494
v -0.137907 1.465056 -0.441511
v 0.065309 1.407560 -0.313478
v 0.065309 1.399597 -0.377494
v 0.065309 1.391634 -0.441511
v 0.000945 1.405783 -0.313478
v 0.000945 1.396043 -0.377494
v 0.000945 1.386303 -0.441511
v -0.063418 1.407560 -0.313478
v -0.063418 1.399597 -0.377494
v -0.063418 1.391634 -0.441511
v -0.063418 1.496543 -0.313478
v -0.063418 1.490315 -0.377494
v -0.063418 1.484087 -0.441511
v 0.000945 1.496543 -0.313478
v 0.000945 1.490315 -0.377494
v 0.000945 1.484087 -0.441511
v 0.065309 1.496543 -0.313478
v 0.065309 1.490315 -0.377494
v 0.065309 1.484087 -0.441511
v 0.142551 1.432034 -0.441511
v 0.142551 1.432034 -0.377494
v 0.142551 1.432034 -0.313478
v 0.142551 1.448545 -0.441511
v 0.142551 1.448545 -0.377494
v 0.142551 1.448545 -0.313478
v -0.137907 1.432034 -0.313478
v -0.137907 1.432034 -0.377494
v -0.137907 1.432034 -0.441511
v -0.137907 1.448545 -0.313478
v -0.137907 1.448545 -0.377494
v -0.137907 1.448545 -0.441511
v 0.125000 0.956394 -0.500768
v 0.125000 1.111569 -0.500768
v 0.125000 1.294087 -0.500768
v 0.125000 0.956394 -0.250768
v 0.125000 1.111569 -0.250768
v 0.125000 1.266745 -0.250768
v -0.125000 0.956394 -0.250768
v -0.125000 1.111569 -0.250768
v -0.125000 1.266745 -0.250768
v -0.125000 0.956394 -0.500768
v -0.125000 1.111569 -0.500768
v -0.125000 1.266745 -0.500768
v -0.041667 0.956394 -0.250768
v -0.041666 1.111569 -0.250768
v -0.041666 1.266745 -0.250768
v 0.041667 0.956394 -0.250768
v 0.041667 1.111569 -0.250768
v 0.041667 1.266745 -0.250768
v 0.041667 0.956394 -0.511831
v 0.041667 1.111569 -0.516714
v 0.041667 1.266745 -0.511831
v -0.041667 0.956394 -0.516714
v -0.041667 1.111569 -0.516714
v -0.041666 1.266745 -0.511831
v 0.137722 0.938594 -0.334101
v 0.140251 1.099702 -0.334101
v 0.137722 1.276397 -0.334101
v 0.137722 0.938594 -0.417435
v 0.140251 1.099702 -0.417435
v 0.137722 1.288154 -0.417435
v -0.133837 0.938594 -0.417435
v -0.133837 1.099702 -0.417435
v -0.133837 1.260811 -0.417435
v -0.133837 0.938594 -0.334101
v -0.133837 1.099702 -0.334101
v -0.133837 1.260811 -0.334101
v 0.125000 1.374866 -0.500768
v 0.125000 1.361195 -0.250768
v -0.125000 1.361195 -0.250768
v -0.125000 1.361195 -0.500768
v -0.041666 1.361195 -0.250768
v 0.041667 1.361195 -0.250768
v 0.041667 1.361195 -0.511831
v -0.041666 1.361195 -0.511831
v 0.144729 1.366021 -0.334101
v 0.137722 1.371899 -0.417435
v -0.133837 1.358228 -0.417435
v -0.133837 1.358228 -0.334101
vt 0.471249 0.746057
vt 0.470745 0.781087
vt 0.450547 0.779182
vt 0.450073 0.756841
vt 0.448574 0.793184
vt 0.474131 0.788618
vt 0.066968 0.439550
vt 0.087802 0.439550
vt 0.089146 0.512801
vt 0.474779 0.681633
vt 0.495613 0.681633
vt 0.496957 0.754885
vt 0.410416 0.741056
vt 0.410150 0.775372
vt 0.384872 0.774102
vt 0.525149 0.744857
vt 0.525245 0.779487
vt 0.502011 0.780021
vt 0.479015 0.745723
vt 0.478778 0.780554
vt 0.455544 0.781087
vt 0.502082 0.745290
vt 0.335137 0.737484
vt 0.360230 0.738675
vt 0.359593 0.772832
vt 0.385323 0.739865
vt 0.492924 0.535131
vt 0.494268 0.608382
vt 0.473435 0.608382
vt 0.085113 0.293047
vt 0.086458 0.366298
vt 0.065624 0.366298
vt 0.044791 0.366298
vt 0.046135 0.439550
vt 0.025302 0.439550
vt 0.022613 0.293047
vt 0.043447 0.293047
vt 0.064280 0.293047
vt 0.452602 0.608382
vt 0.453946 0.681633
vt 0.433113 0.681633
vt 0.430424 0.535131
vt 0.451258 0.535131
vt 0.472091 0.535131
vt 0.455290 0.754884
vt 0.434457 0.754885
vt 0.476123 0.754884
vt 0.047479 0.512801
vt 0.026646 0.512801
vt 0.068312 0.512801
vt 0.500124 0.748851
vt 0.499688 0.784053
vt 0.475098 0.752846
vt 0.430694 0.742723
vt 0.430349 0.777277
vt 0.450972 0.744390
vt 0.092303 0.086747
vt 0.109035 0.102711
vt 0.091949 0.121235
vt 0.080168 0.094669
vt 0.091575 0.077109
vt 0.105365 0.093054
vt 0.078933 0.159683
vt 0.097596 0.168387
vt 0.084789 0.196892
vt 0.092427 0.161902
vt 0.096806 0.165210
vt 0.088238 0.186506
vt 0.092197 0.072870
vt 0.102074 0.084296
vt 0.095166 0.095659
vt 0.108523 0.123325
vt 0.116798 0.111061
vt 0.116966 0.122995
vt 0.091974 0.147854
vt 0.094284 0.157772
vt 0.086723 0.169364
vt 0.100249 0.135590
vt 0.101845 0.146179
vt 0.109405 0.134587
vt 0.064520 0.114889
vt 0.081349 0.118383
vt 0.074440 0.129745
vt 0.073746 0.100883
vt 0.088257 0.107021
vt 0.082972 0.086876
vt 0.122510 0.101323
vt 0.113942 0.122618
vt 0.108114 0.121516
vt 0.105374 0.143914
vt 0.136017 0.082871
vt 0.123210 0.111376
vt 0.105303 0.102106
vt 0.110403 0.139881
vt 0.092118 0.130895
vt 0.058584 0.069311
vt 0.070778 0.078094
vt 0.059234 0.094745
vt 0.030862 0.107901
vt 0.044723 0.088606
vt 0.047691 0.111395
vt 0.017002 0.127196
vt 0.036148 0.128046
vt 0.106759 0.100802
vt 0.107641 0.112064
vt 0.098653 0.125000
vt 0.097056 0.114410
vt 0.089664 0.137936
vt 0.087354 0.128019
vt 0.080675 0.150873
vt 0.083699 0.160118
vt 0.116462 0.087194
vt 0.116630 0.099128
vt 0.072444 0.050017
vt 0.082321 0.061443
vt 0.054041 0.064243
vt 0.063996 0.045217
vt 0.077785 0.061163
vt 0.067105 0.079456
vt 0.058841 0.054820
vt 0.075572 0.070784
vt 0.063157 0.087711
vt 0.077553 0.104473
vt 0.038326 0.121565
vt 0.048053 0.139924
vt 0.033302 0.157649
vt 0.050741 0.104638
vt 0.062803 0.122198
vt 0.028599 0.103205
vt 0.025910 0.138492
vt 0.038680 0.087077
vt 0.048761 0.070949
vt 0.045743 0.116043
vt 0.057355 0.129791
vt 0.045949 0.147351
vt 0.056424 0.097750
vt 0.068762 0.112230
vt 0.024176 0.121322
vt 0.034131 0.102296
vt 0.044086 0.083270
vt 0.055549 0.112922
vt 0.041608 0.142277
vt 0.022945 0.133574
vt 0.073833 0.121908
vt 0.060270 0.150980
vt 0.069490 0.083566
vt 0.037264 0.103935
vt 0.087396 0.092836
vt 0.065902 0.044657
vt 0.083431 0.054210
vt 0.100959 0.063764
vt 0.118488 0.073318
vt 0.090063 0.137299
vt 0.083668 0.155287
vt 0.079289 0.151980
vt 0.095166 0.139504
vt 0.088047 0.158595
vt 0.100270 0.141709
vt 0.090629 0.118208
vt 0.096457 0.119311
vt 0.102286 0.120413
vt 0.096299 0.101323
vt 0.102852 0.101323
vt 0.109405 0.101323
vt 0.115958 0.101323
vt 0.077273 0.173276
vt 0.073619 0.168865
vt 0.080928 0.177686
vt 0.084583 0.182096
vt 0.027667 0.171633
vt 0.008626 0.163214
vt 0.046707 0.180053
vt 0.065748 0.188472
vt 0.068967 0.143538
vt 0.056835 0.160366
vt 0.081100 0.126710
vt 0.093232 0.109882
vt 0.057779 0.158283
vt 0.040694 0.176807
vt 0.074864 0.139759
vt 0.453944 0.500841
vt 0.453095 0.570427
vt 0.432420 0.569950
vt 0.452245 0.640012
vt 0.431730 0.639059
vt 0.451396 0.709597
vt 0.431039 0.708168
vt 0.412277 0.500841
vt 0.433111 0.500841
vt 0.411746 0.569474
vt 0.411214 0.638107
vt 0.481869 0.502441
vt 0.479935 0.573986
vt 0.502302 0.572844
vt 0.478000 0.645530
vt 0.501430 0.643247
vt 0.476066 0.717074
vt 0.500559 0.713650
vt 0.524476 0.502441
vt 0.503173 0.502441
vt 0.524668 0.571703
vt 0.524860 0.640964
vt 0.388481 0.500206
vt 0.387578 0.568680
vt 0.363411 0.567887
vt 0.386676 0.637154
vt 0.362139 0.636202
vt 0.385774 0.705628
vt 0.360866 0.704517
vt 0.364684 0.499571
vt 0.339244 0.567093
vt 0.337601 0.635249
vt 0.480676 0.501908
vt 0.502576 0.502175
vt 0.502435 0.571636
vt 0.502294 0.641098
vt 0.479727 0.641231
vt 0.502152 0.710559
vt 0.479252 0.710893
vt 0.480201 0.571570
vt 0.457968 0.571503
vt 0.457160 0.641364
vt 0.456352 0.711226
vt 0.525052 0.710226
vt 0.410682 0.706740
vt 0.460566 0.502441
vt 0.457568 0.575127
vt 0.454570 0.647813
vt 0.451572 0.720498
vt 0.474777 0.500841
vt 0.473769 0.570903
vt 0.472761 0.640964
vt 0.471753 0.711026
vt 0.335958 0.703406
vt 0.455948 0.746157
vt 0.334315 0.771562
vt 0.023958 0.366298
vt 0.431768 0.608382
vt 0.055294 0.128895
vt 0.077651 0.141627
vt 0.018518 0.119334
vt 0.035062 0.134337
vt 0.051583 0.074296
vt 0.084959 0.135094
vt 0.340887 0.498936
vt 0.458776 0.501641
vn -0.994400 0.000000 0.105500
vn 0.988500 0.000000 -0.150900
vn 0.000000 1.000000 0.000000
vn 0.000000 -0.961800 0.273900
vn -0.131600 0.000000 -0.991300
vn 0.000000 0.000000 1.000000
vn 0.131600 -0.000000 -0.991300
vn 0.000000 0.000000 -1.000000
vn 0.000000 -1.000000 -0.001000
vn -0.265100 -0.927300 0.264100
vn 0.000000 -1.000000 0.000900
vn 0.000000 -1.000000 0.000000
vn -0.171000 -0.970500 -0.170000
vn -0.173500 -0.984800 0.000000
vn 0.096300 -0.990800 -0.095300
vn 0.096800 -0.995300 -0.000000
vn 0.981000 0.123000 0.149800
vn 1.000000 -0.000000 -0.000000
vn -0.994400 0.000000 -0.105500
vn -1.000000 -0.000000 0.000000
vn -0.987700 0.000000 0.156200
vn 0.980400 -0.000000 -0.197200
vn 0.418600 0.907800 0.025600
vn 0.000000 -0.992400 0.123400
vn 0.000000 0.433000 -0.901400
vn -0.418600 0.907800 0.025700
vn 0.000000 0.999600 0.028200
vn 0.156800 -0.000000 -0.987600
vn -0.156800 0.000000 -0.987600
vn -0.987700 0.000000 -0.156200
vn 0.980400 0.000000 0.197200
vn 0.000000 0.958500 -0.285000
vn 0.000000 0.995300 -0.096800
vn -0.247400 0.968100 -0.039100
vn -0.319800 0.943000 -0.091700
vn -0.387800 0.917400 -0.089300
vn -0.082100 -0.990900 0.106300
vn -0.054700 -0.990900 0.123300
vn -0.027400 -0.992000 0.123400
vn 0.082100 -0.990900 0.106300
vn 0.054700 -0.990900 0.123300
vn 0.027400 -0.992000 0.123400
vn 0.149500 -0.988700 0.014500
vn 0.102700 -0.992500 0.066300
vn 0.044400 -0.997600 0.053200
vn -0.219500 -0.975100 0.032600
vn -0.155700 -0.986800 0.045400
vn -0.057000 -0.998300 0.007300
vn 0.239000 0.969800 -0.048100
vn 0.309500 0.946400 -0.092100
vn 0.376000 0.922300 -0.089700
vn 0.999900 -0.015700 0.000000
vn 0.999900 0.013400 0.001900
vn 0.988500 -0.000000 0.150900
vn 0.987900 -0.015500 0.154100
vn 0.983900 0.014100 0.178100
vn 0.058500 -0.031400 -0.997800
vn 0.000000 0.031400 -0.999500
vn 0.187800 -0.030900 -0.981700
vn 0.187800 0.030900 -0.981700
vn -0.187900 0.000000 -0.982200
vn 0.983700 -0.000000 -0.180000
vn 0.996500 0.000000 -0.083800
vn 0.971300 -0.075900 0.225500
vn 0.090400 -0.930300 0.355400
vn -0.171000 -0.970500 0.170000
vn -0.000100 -1.000000 0.000900
vn 0.000100 -1.000000 0.000900
vn 0.973100 -0.000000 0.230400
vn 0.989500 0.124000 -0.074500
vn 0.376400 0.923400 0.075700
vn -0.056900 -0.996100 0.066700
vn -0.136900 0.429000 -0.892900
vn 0.044300 -0.995900 0.079300
vn 0.027300 -0.988300 0.150400
vn -0.027300 -0.988300 0.150400
vn -0.388600 0.919300 0.061500
vn -0.247500 0.968900 0.000000
vn -0.321100 0.947000 0.000000
vn -0.108800 -0.985600 0.129300
vn -0.081600 -0.985300 0.149900
vn -0.054500 -0.987200 0.150200
vn 0.108800 -0.985600 0.129300
vn 0.081600 -0.985300 0.149900
vn 0.054500 -0.987200 0.150200
vn 0.235100 -0.966400 0.103700
vn 0.148400 -0.981400 0.122100
vn 0.102100 -0.987200 0.122800
vn -0.284600 -0.953200 0.102200
vn -0.218000 -0.968500 0.120500
vn -0.154700 -0.980400 0.122000
vn 0.239200 0.971000 0.000000
vn 0.310800 0.950500 0.000000
vn 0.999900 0.014300 0.000000
vn 0.983700 -0.000000 0.180000
vn -0.187800 -0.030900 -0.981700
vn -0.187800 0.030900 -0.981700
vn 0.987900 -0.015500 -0.154100
vn 0.983900 0.013200 -0.178200
vn 0.996900 -0.077900 -0.011000
usemtl None
s off
f 153/1/1 3/2/1 23/3/1
f 151/4/2 7/5/2 19/6/2
f 31/7/3 14/8/3 8/9/3
f 27/10/4 11/11/4 2/12/4
f 154/13/5 4/14/5 15/15/5
f 152/16/6 8/17/6 14/18/6
f 155/19/6 13/20/6 3/21/6
f 156/22/6 14/18/6 13/20/6
f 151/23/7 157/24/7 16/25/7
f 158/26/8 15/15/8 16/25/8
f 5/27/9 12/28/9 25/29/9
f 12/28/10 11/11/10 27/10/10
f 3/30/3 13/31/3 29/32/3
f 13/31/3 14/8/3 31/7/3
f 30/33/3 32/34/3 16/35/3
f 29/32/3 31/7/3 32/34/3
f 4/36/3 24/37/3 30/33/3
f 23/38/3 29/32/3 30/33/3
f 26/39/11 28/40/11 9/41/11
f 25/29/12 27/10/12 28/40/12
f 6/42/13 18/43/13 26/39/13
f 18/43/14 17/44/14 25/29/14
f 28/40/15 21/45/15 1/46/15
f 27/10/16 22/47/16 21/45/16
f 32/34/3 19/48/3 7/49/3
f 31/7/3 20/50/3 19/48/3
f 159/51/17 20/52/17 8/17/17
f 160/53/18 19/6/18 20/52/18
f 154/13/19 161/54/19 24/55/19
f 161/54/20 162/56/20 23/3/20
f 58/57/21 35/58/21 82/59/21
f 106/60/22 54/61/22 39/62/22
f 100/63/23 49/64/23 40/65/23
f 91/66/24 44/67/24 34/68/24
f 60/69/8 36/70/8 50/71/8
f 66/72/6 56/73/6 40/74/6
f 62/75/6 47/76/6 35/77/6
f 64/78/6 48/79/6 47/76/6
f 66/72/6 49/80/6 48/79/6
f 68/81/25 52/82/25 39/83/25
f 68/81/25 70/84/25 51/85/25
f 70/84/25 72/86/25 50/71/25
f 37/87/24 46/88/24 85/89/24
f 85/89/24 46/88/24 45/90/24
f 45/90/24 44/67/24 91/66/24
f 35/91/26 47/92/26 94/93/26
f 47/92/27 48/94/27 97/95/27
f 48/94/27 49/64/27 100/63/27
f 41/96/8 71/97/8 69/98/8
f 69/98/8 71/97/8 72/86/8
f 43/99/8 42/100/8 69/98/8
f 67/101/8 69/98/8 70/84/8
f 38/102/28 43/99/28 67/101/28
f 53/103/28 67/101/28 68/81/28
f 46/104/6 65/105/6 63/106/6
f 65/105/6 66/72/6 64/78/6
f 45/107/6 63/106/6 61/108/6
f 63/106/6 64/78/6 62/75/6
f 44/109/6 61/108/6 57/110/6
f 61/108/6 62/75/6 58/111/6
f 46/104/6 37/112/6 55/113/6
f 65/105/6 55/113/6 56/73/6
f 33/114/29 59/115/29 71/97/29
f 59/115/29 60/69/29 72/86/29
f 75/116/22 38/117/22 53/118/22
f 103/119/22 53/118/22 54/61/22
f 34/120/21 57/121/21 109/122/21
f 57/121/21 58/57/21 112/123/21
f 111/124/30 114/125/30 60/126/30
f 110/127/20 113/128/20 114/125/20
f 109/122/20 112/123/20 113/128/20
f 79/129/30 111/124/30 59/130/30
f 80/131/20 110/127/20 111/124/20
f 81/132/20 109/122/20 110/127/20
f 105/133/31 108/134/31 56/135/31
f 104/136/18 107/137/18 108/134/18
f 103/119/18 106/60/18 107/137/18
f 37/138/31 73/139/31 105/133/31
f 73/139/18 74/140/18 104/136/18
f 74/140/18 75/116/18 103/119/18
f 99/141/32 102/142/32 52/143/32
f 98/144/33 101/145/33 102/142/33
f 97/95/33 100/63/33 101/145/33
f 96/146/32 99/141/32 51/147/32
f 95/148/33 98/144/33 99/141/33
f 94/93/33 97/95/33 98/144/33
f 36/149/34 84/150/34 96/146/34
f 83/151/35 95/148/35 96/146/35
f 82/152/36 94/93/36 95/148/36
f 90/153/37 93/154/37 41/155/37
f 89/156/38 92/157/38 93/154/38
f 88/158/39 91/66/39 92/157/39
f 43/159/40 87/160/40 90/153/40
f 87/160/41 86/161/41 89/156/41
f 86/161/42 85/89/42 88/158/42
f 38/162/43 75/163/43 87/160/43
f 75/163/44 74/164/44 86/161/44
f 74/164/45 73/165/45 85/89/45
f 93/154/46 79/166/46 33/167/46
f 92/157/47 80/168/47 79/166/47
f 91/66/48 81/169/48 80/168/48
f 102/142/49 76/170/49 39/171/49
f 102/142/50 101/145/50 77/172/50
f 101/145/51 100/63/51 78/173/51
f 108/134/31 78/174/31 40/175/31
f 107/137/18 77/176/18 78/174/18
f 106/60/18 76/177/18 77/176/18
f 114/125/30 84/178/30 36/179/30
f 113/128/20 83/180/20 84/178/20
f 112/123/20 82/59/20 83/180/20
f 22/181/20 148/182/20 145/183/20
f 148/182/20 149/184/20 146/185/20
f 149/184/20 150/186/20 147/187/20
f 1/188/19 21/189/19 145/183/19
f 124/190/19 145/183/19 146/185/19
f 125/191/19 146/185/19 147/187/19
f 18/192/18 142/193/18 139/194/18
f 142/193/52 143/195/52 140/196/52
f 143/195/53 144/197/53 141/198/53
f 5/199/54 17/200/54 139/194/54
f 118/201/55 139/194/55 140/196/55
f 119/202/56 140/196/56 141/198/56
f 9/203/57 136/204/57 133/205/57
f 136/204/8 137/206/8 134/207/8
f 137/206/58 138/208/58 135/209/58
f 10/210/7 133/205/7 115/211/7
f 133/205/59 134/207/59 116/212/59
f 116/212/60 134/207/60 135/209/60
f 11/213/6 12/214/6 130/215/6
f 130/215/6 131/216/6 128/217/6
f 131/216/6 132/218/6 129/219/6
f 11/213/6 127/220/6 121/221/6
f 127/220/6 128/217/6 122/222/6
f 128/217/6 129/219/6 123/223/6
f 5/199/6 118/201/6 130/215/6
f 118/201/6 119/202/6 131/216/6
f 119/202/6 120/224/6 132/218/6
f 9/203/5 1/188/5 124/190/5
f 124/190/61 125/191/61 137/206/61
f 125/191/5 126/225/5 138/208/5
f 6/226/2 115/227/2 142/193/2
f 115/227/62 116/228/62 143/195/62
f 116/228/2 117/229/2 144/197/2
f 2/230/1 121/231/1 148/182/1
f 121/231/1 122/232/1 149/184/1
f 122/232/1 123/233/1 150/186/1
f 150/186/20 162/56/20 161/54/20
f 126/225/19 147/187/19 161/54/19
f 144/197/63 160/53/63 159/51/63
f 141/198/64 159/51/64 152/16/64
f 138/208/8 158/26/8 157/24/8
f 117/234/7 135/209/7 157/24/7
f 132/218/6 156/22/6 155/19/6
f 129/219/6 155/19/6 153/235/6
f 120/224/6 152/16/6 156/22/6
f 126/225/5 154/13/5 158/26/5
f 117/229/2 151/4/2 160/53/2
f 123/233/1 153/1/1 162/56/1
f 162/56/1 153/1/1 23/3/1
f 160/53/2 151/4/2 19/6/2
f 20/50/3 31/7/3 8/9/3
f 22/47/65 27/10/65 2/12/65
f 158/26/5 154/13/5 15/15/5
f 156/22/6 152/16/6 14/18/6
f 153/235/6 155/19/6 3/21/6
f 155/19/6 156/22/6 13/20/6
f 7/236/7 151/23/7 16/25/7
f 157/24/8 158/26/8 16/25/8
f 17/44/66 5/27/66 25/29/66
f 25/29/9 12/28/9 27/10/9
f 23/38/3 3/30/3 29/32/3
f 29/32/3 13/31/3 31/7/3
f 15/237/3 30/33/3 16/35/3
f 30/33/3 29/32/3 32/34/3
f 15/237/3 4/36/3 30/33/3
f 24/37/3 23/38/3 30/33/3
f 10/238/11 26/39/11 9/41/11
f 26/39/12 25/29/12 28/40/12
f 10/238/67 6/42/67 26/39/67
f 26/39/14 18/43/14 25/29/14
f 9/41/68 28/40/68 1/46/68
f 28/40/16 27/10/16 21/45/16
f 16/35/3 32/34/3 7/49/3
f 32/34/3 31/7/3 19/48/3
f 152/16/69 159/51/69 8/17/69
f 159/51/70 160/53/70 20/52/70
f 4/14/19 154/13/19 24/55/19
f 24/55/20 161/54/20 23/3/20
f 112/123/21 58/57/21 82/59/21
f 76/177/22 106/60/22 39/62/22
f 78/173/71 100/63/71 40/65/71
f 81/169/72 91/66/72 34/68/72
f 72/86/73 60/69/73 50/71/73
f 49/80/6 66/72/6 40/74/6
f 58/111/6 62/75/6 35/77/6
f 62/75/6 64/78/6 47/76/6
f 64/78/6 66/72/6 48/79/6
f 54/239/28 68/81/28 39/83/28
f 52/82/25 68/81/25 51/85/25
f 51/85/25 70/84/25 50/71/25
f 73/165/74 37/87/74 85/89/74
f 88/158/75 85/89/75 45/90/75
f 88/158/76 45/90/76 91/66/76
f 82/152/77 35/91/77 94/93/77
f 94/93/27 47/92/27 97/95/27
f 97/95/27 48/94/27 100/63/27
f 42/100/8 41/96/8 69/98/8
f 70/84/8 69/98/8 72/86/8
f 67/101/8 43/99/8 69/98/8
f 68/81/8 67/101/8 70/84/8
f 53/103/28 38/102/28 67/101/28
f 54/239/28 53/103/28 68/81/28
f 45/107/6 46/104/6 63/106/6
f 63/106/6 65/105/6 64/78/6
f 44/109/6 45/107/6 61/108/6
f 61/108/6 63/106/6 62/75/6
f 34/240/6 44/109/6 57/110/6
f 57/110/6 61/108/6 58/111/6
f 65/105/6 46/104/6 55/113/6
f 66/72/6 65/105/6 56/73/6
f 41/96/29 33/114/29 71/97/29
f 71/97/29 59/115/29 72/86/29
f 103/119/22 75/116/22 53/118/22
f 106/60/22 103/119/22 54/61/22
f 81/132/21 34/120/21 109/122/21
f 109/122/21 57/121/21 112/123/21
f 59/130/30 111/124/30 60/126/30
f 111/124/20 110/127/20 114/125/20
f 110/127/20 109/122/20 113/128/20
f 33/241/30 79/129/30 59/130/30
f 79/129/20 80/131/20 111/124/20
f 80/131/20 81/132/20 110/127/20
f 55/242/31 105/133/31 56/135/31
f 105/133/18 104/136/18 108/134/18
f 104/136/18 103/119/18 107/137/18
f 55/242/31 37/138/31 105/133/31
f 105/133/18 73/139/18 104/136/18
f 104/136/18 74/140/18 103/119/18
f 51/147/32 99/141/32 52/143/32
f 99/141/33 98/144/33 102/142/33
f 98/144/33 97/95/33 101/145/33
f 50/243/32 96/146/32 51/147/32
f 96/146/33 95/148/33 99/141/33
f 95/148/33 94/93/33 98/144/33
f 50/243/32 36/149/32 96/146/32
f 84/150/78 83/151/78 96/146/78
f 83/151/79 82/152/79 95/148/79
f 42/244/80 90/153/80 41/155/80
f 90/153/81 89/156/81 93/154/81
f 89/156/82 88/158/82 92/157/82
f 42/244/83 43/159/83 90/153/83
f 90/153/84 87/160/84 89/156/84
f 89/156/85 86/161/85 88/158/85
f 43/159/86 38/162/86 87/160/86
f 87/160/87 75/163/87 86/161/87
f 86/161/88 74/164/88 85/89/88
f 41/155/89 93/154/89 33/167/89
f 93/154/90 92/157/90 79/166/90
f 92/157/91 91/66/91 80/168/91
f 52/143/32 102/142/32 39/171/32
f 76/170/92 102/142/92 77/172/92
f 77/172/93 101/145/93 78/173/93
f 56/135/31 108/134/31 40/175/31
f 108/134/18 107/137/18 78/174/18
f 107/137/18 106/60/18 77/176/18
f 60/126/30 114/125/30 36/179/30
f 114/125/20 113/128/20 84/178/20
f 113/128/20 112/123/20 83/180/20
f 21/189/20 22/181/20 145/183/20
f 145/183/20 148/182/20 146/185/20
f 146/185/20 149/184/20 147/187/20
f 124/190/19 1/188/19 145/183/19
f 125/191/19 124/190/19 146/185/19
f 126/225/19 125/191/19 147/187/19
f 17/200/18 18/192/18 139/194/18
f 139/194/52 142/193/52 140/196/52
f 140/196/94 143/195/94 141/198/94
f 118/201/54 5/199/54 139/194/54
f 119/202/95 118/201/95 140/196/95
f 120/224/54 119/202/54 141/198/54
f 10/210/8 9/203/8 133/205/8
f 133/205/57 136/204/57 134/207/57
f 134/207/58 137/206/58 135/209/58
f 6/245/7 10/210/7 115/211/7
f 115/211/7 133/205/7 116/212/7
f 117/234/7 116/212/7 135/209/7
f 127/220/6 11/213/6 130/215/6
f 127/220/6 130/215/6 128/217/6
f 128/217/6 131/216/6 129/219/6
f 2/246/6 11/213/6 121/221/6
f 121/221/6 127/220/6 122/222/6
f 122/222/6 128/217/6 123/223/6
f 12/214/6 5/199/6 130/215/6
f 130/215/6 118/201/6 131/216/6
f 131/216/6 119/202/6 132/218/6
f 136/204/96 9/203/96 124/190/96
f 136/204/61 124/190/61 137/206/61
f 137/206/97 125/191/97 138/208/97
f 18/192/2 6/226/2 142/193/2
f 142/193/98 115/227/98 143/195/98
f 143/195/99 116/228/99 144/197/99
f 22/181/1 2/230/1 148/182/1
f 148/182/1 121/231/1 149/184/1
f 149/184/1 122/232/1 150/186/1
f 147/187/20 150/186/20 161/54/20
f 154/13/19 126/225/19 161/54/19
f 141/198/100 144/197/100 159/51/100
f 120/224/54 141/198/54 152/16/54
f 135/209/8 138/208/8 157/24/8
f 151/23/7 117/234/7 157/24/7
f 129/219/6 132/218/6 155/19/6
f 123/223/6 129/219/6 153/235/6
f 132/218/6 120/224/6 156/22/6
f 138/208/5 126/225/5 158/26/5
f 144/197/2 117/229/2 160/53/2
f 150/186/1 123/233/1 162/56/1
