# Blender v2.76 (sub 0) OBJ File: ''
# www.blender.org
mtllib RightArm.mtl
o rightarm001
v 0.125000 0.801219 0.502327
v 0.125000 0.801219 0.252327
v 0.125000 1.421920 0.252327
v 0.125000 1.421920 0.502327
v -0.125000 0.801219 0.252327
v -0.125000 0.801219 0.502327
v -0.125000 1.421920 0.502327
v -0.125000 1.421920 0.252327
v 0.041667 0.801219 0.513390
v -0.041667 0.801219 0.513390
v 0.041667 0.801219 0.252327
v -0.041667 0.801219 0.252327
v 0.041666 1.421920 0.252327
v -0.041667 1.421920 0.252327
v 0.041666 1.421920 0.513390
v -0.041667 1.421920 0.513390
v -0.137722 0.793106 0.335660
v -0.137722 0.793106 0.418994
v -0.137722 1.421920 0.418994
v -0.137722 1.421920 0.335660
v 0.133837 0.793106 0.418994
v 0.133837 0.793106 0.335660
v 0.133837 1.421920 0.335660
v 0.133837 1.421920 0.418994
v -0.041667 0.808339 0.335660
v -0.041667 0.800481 0.418994
v 0.041667 0.808339 0.335660
v 0.041667 0.792719 0.418994
v 0.041666 1.421920 0.335660
v 0.041666 1.421920 0.418994
v -0.041667 1.421920 0.335660
v -0.041667 1.421920 0.418994
v 0.127782 1.403982 0.507086
v 0.127782 1.415524 0.251020
v 0.127782 1.465056 0.251020
v 0.127782 1.465056 0.507086
v -0.129672 1.415524 0.251020
v -0.129672 1.400424 0.507086
v -0.129672 1.465056 0.507086
v -0.129672 1.465056 0.251020
v 0.063418 1.383671 0.517303
v -0.000945 1.376563 0.517303
v -0.065309 1.383671 0.517303
v 0.063418 1.415524 0.251020
v -0.000945 1.415524 0.251020
v -0.065309 1.415524 0.251020
v 0.063418 1.494735 0.251020
v -0.000945 1.494735 0.251020
v -0.065309 1.494735 0.251020
v 0.063418 1.465056 0.507086
v -0.000945 1.465056 0.507086
v -0.065309 1.465056 0.507086
v -0.129672 1.424749 0.507086
v -0.129672 1.441260 0.507086
v -0.129672 1.432034 0.251020
v -0.129672 1.448545 0.251020
v 0.127782 1.432034 0.251020
v 0.127782 1.448545 0.251020
v 0.127782 1.428002 0.507086
v 0.127782 1.444512 0.507086
v 0.063418 1.440338 0.251020
v 0.063418 1.465153 0.251020
v -0.000945 1.440338 0.251020
v -0.000945 1.465153 0.251020
v -0.065309 1.440338 0.251020
v -0.065309 1.465153 0.251020
v -0.065309 1.415525 0.517303
v -0.065309 1.443788 0.517303
v -0.000945 1.415525 0.517303
v -0.000945 1.443788 0.517303
v 0.063418 1.415525 0.517303
v 0.063418 1.443788 0.517303
v -0.142551 1.411000 0.315037
v -0.142551 1.407588 0.379053
v -0.142551 1.403311 0.443070
v -0.142551 1.465056 0.443070
v -0.142551 1.465056 0.379053
v -0.142551 1.465056 0.315037
v 0.137907 1.408404 0.443070
v 0.137907 1.411347 0.379053
v 0.137907 1.411815 0.315037
v 0.137907 1.465056 0.315037
v 0.137907 1.465056 0.379053
v 0.137907 1.465056 0.443070
v -0.065309 1.407560 0.315037
v -0.065309 1.399597 0.379053
v -0.065309 1.391634 0.443070
v -0.000945 1.405783 0.315037
v -0.000945 1.396043 0.379053
v -0.000945 1.386303 0.443070
v 0.063418 1.407560 0.315037
v 0.063418 1.399597 0.379053
v 0.063418 1.391634 0.443070
v 0.063418 1.496543 0.315037
v 0.063418 1.490315 0.379053
v 0.063418 1.484087 0.443070
v -0.000945 1.496543 0.315037
v -0.000945 1.490315 0.379053
v -0.000945 1.484087 0.443070
v -0.065309 1.496543 0.315037
v -0.065309 1.490315 0.379053
v -0.065309 1.484087 0.443070
v -0.142551 1.432034 0.443070
v -0.142551 1.432034 0.379053
v -0.142551 1.432034 0.315037
v -0.142551 1.448545 0.443070
v -0.142551 1.448545 0.379053
v -0.142551 1.448545 0.315037
v 0.137907 1.432034 0.315037
v 0.137907 1.432034 0.379053
v 0.137907 1.432034 0.443070
v 0.137907 1.448545 0.315037
v 0.137907 1.448545 0.379053
v 0.137907 1.448545 0.443070
v -0.125000 0.956394 0.502327
v -0.125000 1.111569 0.502327
v -0.125000 1.266745 0.502327
v -0.125000 0.956394 0.252327
v -0.125000 1.111569 0.252327
v -0.125000 1.266745 0.252327
v 0.125000 0.956394 0.252327
v 0.125000 1.111569 0.252327
v 0.125000 1.266745 0.252327
v 0.125000 0.956394 0.502327
v 0.125000 1.111569 0.502327
v 0.125000 1.266745 0.502327
v 0.041667 0.956394 0.252327
v 0.041666 1.111569 0.252327
v 0.041666 1.266745 0.252327
v -0.041667 0.956394 0.252327
v -0.041667 1.111569 0.252327
v -0.041667 1.266745 0.252327
v -0.041667 0.956394 0.513390
v -0.041667 1.111569 0.519163
v -0.041667 1.266745 0.513390
v 0.041666 0.956394 0.519163
v 0.041666 1.111569 0.519163
v 0.041666 1.266745 0.513390
v -0.143764 0.938594 0.335660
v -0.143764 1.099702 0.335660
v -0.137722 1.260811 0.335660
v -0.137722 0.938594 0.418994
v -0.137722 1.099702 0.418994
v -0.137722 1.260811 0.418994
v 0.133837 0.938594 0.418994
v 0.144919 1.099702 0.418994
v 0.144919 1.260811 0.418994
v 0.133837 0.938594 0.335660
v 0.144919 1.099702 0.335660
v 0.133837 1.260811 0.335660
vt 0.471753 0.711026
vt 0.470745 0.781087
vt 0.450547 0.779182
vt 0.451572 0.720498
vt 0.448574 0.793184
vt 0.474131 0.788618
vt 0.066968 0.439550
vt 0.087802 0.439550
vt 0.089146 0.512801
vt 0.474779 0.681633
vt 0.495613 0.681633
vt 0.496957 0.754885
vt 0.410682 0.706740
vt 0.410150 0.775372
vt 0.384872 0.774102
vt 0.525052 0.710226
vt 0.525245 0.779487
vt 0.502011 0.780021
vt 0.479252 0.710893
vt 0.478778 0.780554
vt 0.455544 0.781087
vt 0.502152 0.710559
vt 0.360866 0.704517
vt 0.359593 0.772832
vt 0.334315 0.771562
vt 0.385774 0.705628
vt 0.492924 0.535131
vt 0.494268 0.608382
vt 0.473435 0.608382
vt 0.085113 0.293047
vt 0.086458 0.366298
vt 0.065624 0.366298
vt 0.044791 0.366298
vt 0.046135 0.439550
vt 0.025302 0.439550
vt 0.022613 0.293047
vt 0.043447 0.293047
vt 0.064280 0.293047
vt 0.452602 0.608382
vt 0.453946 0.681633
vt 0.433113 0.681633
vt 0.430424 0.535131
vt 0.451258 0.535131
vt 0.472091 0.535131
vt 0.455290 0.754884
vt 0.434457 0.754885
vt 0.476123 0.754884
vt 0.047479 0.512801
vt 0.026646 0.512801
vt 0.068312 0.512801
vt 0.500559 0.713650
vt 0.499688 0.784053
vt 0.476066 0.717074
vt 0.431039 0.708168
vt 0.430349 0.777277
vt 0.451396 0.709597
vt 0.092303 0.086747
vt 0.109035 0.102711
vt 0.091949 0.121235
vt 0.080168 0.094669
vt 0.091575 0.077109
vt 0.105365 0.093054
vt 0.078933 0.159683
vt 0.097596 0.168387
vt 0.084789 0.196892
vt 0.092427 0.161902
vt 0.096806 0.165210
vt 0.088238 0.186506
vt 0.092197 0.072870
vt 0.102074 0.084296
vt 0.095166 0.095659
vt 0.108523 0.123325
vt 0.116798 0.111061
vt 0.116966 0.122995
vt 0.091974 0.147854
vt 0.094284 0.157772
vt 0.086723 0.169364
vt 0.100249 0.135590
vt 0.101845 0.146179
vt 0.109405 0.134587
vt 0.064520 0.114889
vt 0.081349 0.118383
vt 0.074440 0.129745
vt 0.073746 0.100883
vt 0.088257 0.107021
vt 0.082972 0.086876
vt 0.122510 0.101323
vt 0.113942 0.122618
vt 0.108114 0.121516
vt 0.105374 0.143914
vt 0.136017 0.082871
vt 0.123210 0.111376
vt 0.105303 0.102106
vt 0.110403 0.139881
vt 0.092118 0.130895
vt 0.058584 0.069311
vt 0.070778 0.078094
vt 0.059234 0.094745
vt 0.030862 0.107901
vt 0.044723 0.088606
vt 0.047691 0.111395
vt 0.017002 0.127196
vt 0.036148 0.128046
vt 0.106759 0.100802
vt 0.107641 0.112064
vt 0.098653 0.125000
vt 0.097056 0.114410
vt 0.089664 0.137936
vt 0.087354 0.128019
vt 0.080675 0.150873
vt 0.083699 0.160118
vt 0.116462 0.087194
vt 0.116630 0.099128
vt 0.072444 0.050017
vt 0.082321 0.061443
vt 0.054041 0.064243
vt 0.063996 0.045217
vt 0.077785 0.061163
vt 0.067105 0.079456
vt 0.058841 0.054820
vt 0.075572 0.070784
vt 0.063157 0.087711
vt 0.077553 0.104473
vt 0.038326 0.121565
vt 0.048053 0.139924
vt 0.033302 0.157649
vt 0.050741 0.104638
vt 0.062803 0.122198
vt 0.028599 0.103205
vt 0.025910 0.138492
vt 0.038680 0.087077
vt 0.048761 0.070949
vt 0.045743 0.116043
vt 0.057355 0.129791
vt 0.045949 0.147351
vt 0.056424 0.097750
vt 0.068762 0.112230
vt 0.024176 0.121322
vt 0.034131 0.102296
vt 0.044086 0.083270
vt 0.055549 0.112922
vt 0.041608 0.142277
vt 0.022945 0.133574
vt 0.073833 0.121908
vt 0.060270 0.150980
vt 0.069490 0.083566
vt 0.037264 0.103935
vt 0.087396 0.092836
vt 0.065902 0.044657
vt 0.083431 0.054210
vt 0.100959 0.063764
vt 0.118488 0.073318
vt 0.090063 0.137299
vt 0.083668 0.155287
vt 0.079289 0.151980
vt 0.095166 0.139504
vt 0.088047 0.158595
vt 0.100270 0.141709
vt 0.090629 0.118208
vt 0.096457 0.119311
vt 0.102286 0.120413
vt 0.096299 0.101323
vt 0.102852 0.101323
vt 0.109405 0.101323
vt 0.115958 0.101323
vt 0.077273 0.173276
vt 0.073619 0.168865
vt 0.080928 0.177686
vt 0.084583 0.182096
vt 0.027667 0.171633
vt 0.008626 0.163214
vt 0.046707 0.180053
vt 0.065748 0.188472
vt 0.068967 0.143538
vt 0.056835 0.160366
vt 0.081100 0.126710
vt 0.093232 0.109882
vt 0.057779 0.158283
vt 0.040694 0.176807
vt 0.074864 0.139759
vt 0.453944 0.500841
vt 0.453095 0.570427
vt 0.432420 0.569950
vt 0.452245 0.640012
vt 0.431730 0.639059
vt 0.412277 0.500841
vt 0.433111 0.500841
vt 0.411746 0.569474
vt 0.411214 0.638107
vt 0.503173 0.502441
vt 0.481869 0.502441
vt 0.479935 0.573986
vt 0.478000 0.645530
vt 0.501430 0.643247
vt 0.524476 0.502441
vt 0.502302 0.572844
vt 0.524668 0.571703
vt 0.524860 0.640964
vt 0.388481 0.500206
vt 0.387578 0.568680
vt 0.363411 0.567887
vt 0.386676 0.637154
vt 0.362139 0.636202
vt 0.364684 0.499571
vt 0.339244 0.567093
vt 0.337601 0.635249
vt 0.502576 0.502175
vt 0.502435 0.571636
vt 0.480201 0.571570
vt 0.502294 0.641098
vt 0.479727 0.641231
vt 0.480676 0.501908
vt 0.457968 0.571503
vt 0.457160 0.641364
vt 0.456352 0.711226
vt 0.460566 0.502441
vt 0.457568 0.575127
vt 0.454570 0.647813
vt 0.474777 0.500841
vt 0.473769 0.570903
vt 0.472761 0.640964
vt 0.335958 0.703406
vt 0.023958 0.366298
vt 0.431768 0.608382
vt 0.055294 0.128895
vt 0.077651 0.141627
vt 0.018518 0.119334
vt 0.035062 0.134337
vt 0.051583 0.074296
vt 0.084959 0.135094
vt 0.340887 0.498936
vt 0.458776 0.501641
vn 0.994400 0.000000 -0.105500
vn -0.988500 0.000000 0.150900
vn 0.000000 1.000000 0.000000
vn 0.000000 -0.996400 0.085100
vn 0.131600 0.000000 0.991300
vn 0.000000 0.000000 -1.000000
vn -0.131600 -0.000000 0.991300
vn 0.000000 0.000000 1.000000
vn -0.092400 -0.991700 0.089300
vn 0.000000 -0.995600 -0.093900
vn 0.076300 -0.993500 0.085100
vn 0.156000 -0.983400 -0.092700
vn 0.004200 -0.995200 0.097300
vn -0.160300 -0.970200 -0.181900
vn -0.988500 -0.000000 -0.150900
vn -1.000000 -0.000000 0.000000
vn 0.971500 0.066800 0.227500
vn 1.000000 0.000000 0.000000
vn 0.987700 0.000000 -0.156200
vn -0.980400 -0.000000 0.197200
vn -0.418600 0.907800 -0.025600
vn 0.000000 -0.992400 -0.123400
vn 0.000000 0.433000 0.901400
vn 0.418600 0.907800 -0.025600
vn 0.000000 0.999600 -0.028200
vn -0.156800 -0.000000 0.987600
vn 0.156800 0.000000 0.987600
vn 0.987700 0.000000 0.156200
vn -0.980400 0.000000 -0.197200
vn 0.000000 0.958500 0.285000
vn 0.000000 0.995300 0.096800
vn 0.247400 0.968100 0.039100
vn 0.319800 0.943000 0.091700
vn 0.387800 0.917400 0.089300
vn 0.082100 -0.990900 -0.106300
vn 0.054700 -0.990900 -0.123300
vn 0.027400 -0.992000 -0.123400
vn -0.082100 -0.990900 -0.106300
vn -0.054700 -0.990900 -0.123300
vn -0.027400 -0.992000 -0.123400
vn -0.149500 -0.988700 -0.014500
vn -0.102700 -0.992500 -0.066300
vn -0.044400 -0.997600 -0.053200
vn 0.219500 -0.975100 -0.032600
vn 0.155700 -0.986800 -0.045400
vn 0.057000 -0.998300 -0.007300
vn -0.239000 0.969800 0.048100
vn -0.309500 0.946400 0.092100
vn -0.376000 0.922300 0.089700
vn 0.997600 -0.068600 0.000000
vn 0.989000 0.068000 -0.131500
vn 0.994400 0.000000 0.105500
vn 0.990500 -0.068100 0.119600
vn 0.972600 0.000000 0.232500
vn -0.997400 -0.000000 0.072300
vn -0.987100 -0.041000 -0.154700
vn -0.975600 -0.000000 -0.219700
vn -0.976000 0.036600 -0.214600
vn -0.069100 -0.037100 0.996900
vn 0.000000 0.037200 0.999300
vn -0.197900 -0.036400 0.979500
vn -0.197900 0.036400 0.979500
vn 0.198000 0.000000 0.980200
vn 0.972600 0.000000 -0.232500
vn -0.162600 -0.983600 -0.078500
vn 0.156200 -0.985100 -0.072100
vn 0.000000 -1.000000 0.007800
vn -0.091200 -0.978800 -0.183500
vn -0.001000 -1.000000 0.007800
vn 0.076600 -0.997100 0.000000
vn 0.011900 -0.995900 0.089700
vn 0.004200 -1.000000 0.000000
vn -0.376400 0.923400 -0.075700
vn 0.056900 -0.996100 -0.066700
vn 0.136900 0.429000 0.892900
vn -0.044300 -0.995900 -0.079300
vn -0.027300 -0.988300 -0.150400
vn 0.027300 -0.988300 -0.150400
vn 0.388600 0.919300 -0.061500
vn 0.247500 0.968900 0.000000
vn 0.321100 0.947000 0.000000
vn 0.108800 -0.985600 -0.129300
vn 0.081600 -0.985300 -0.149900
vn 0.054500 -0.987200 -0.150200
vn -0.108800 -0.985600 -0.129300
vn -0.081600 -0.985300 -0.149900
vn -0.054500 -0.987200 -0.150200
vn -0.235100 -0.966400 -0.103700
vn -0.148400 -0.981400 -0.122100
vn -0.102100 -0.987200 -0.122800
vn 0.284600 -0.953200 -0.102200
vn 0.218000 -0.968500 -0.120500
vn 0.154700 -0.980400 -0.122000
vn -0.239200 0.971000 0.000000
vn -0.310800 0.950500 0.000000
vn -0.996500 -0.041400 0.072300
vn -0.996700 0.037400 0.072300
vn 0.197900 -0.036400 0.979500
vn 0.197900 0.036400 0.979500
vn 0.990500 -0.068100 -0.119600
vn 0.972500 0.066900 -0.222900
usemtl None
s off
f 123/1/1 3/2/1 23/3/1
f 117/4/2 7/5/2 19/6/2
f 31/7/3 14/8/3 8/9/3
f 27/10/4 11/11/4 2/12/4
f 126/13/5 4/14/5 15/15/5
f 120/16/6 8/17/6 14/18/6
f 129/19/6 13/20/6 3/21/6
f 132/22/6 14/18/6 13/20/6
f 135/23/7 16/24/7 7/25/7
f 135/23/8 138/26/8 15/15/8
f 5/27/4 12/28/4 25/29/4
f 12/28/4 11/11/4 27/10/4
f 3/30/3 13/31/3 29/32/3
f 13/31/3 14/8/3 31/7/3
f 30/33/3 32/34/3 16/35/3
f 29/32/3 31/7/3 32/34/3
f 4/36/3 24/37/3 30/33/3
f 23/38/3 29/32/3 30/33/3
f 26/39/9 28/40/9 9/41/9
f 26/39/10 25/29/10 27/10/10
f 6/42/11 18/43/11 26/39/11
f 17/44/12 25/29/12 26/39/12
f 28/40/13 21/45/13 1/46/13
f 28/40/14 27/10/14 22/47/14
f 32/34/3 19/48/3 7/49/3
f 31/7/3 20/50/3 19/48/3
f 120/16/15 141/51/15 20/52/15
f 141/51/16 144/53/16 19/6/16
f 126/13/17 147/54/17 24/55/17
f 150/56/18 23/3/18 24/55/18
f 58/57/19 35/58/19 82/59/19
f 106/60/20 54/61/20 39/62/20
f 100/63/21 49/64/21 40/65/21
f 91/66/22 44/67/22 34/68/22
f 60/69/8 36/70/8 50/71/8
f 66/72/6 56/73/6 40/74/6
f 62/75/6 47/76/6 35/77/6
f 64/78/6 48/79/6 47/76/6
f 66/72/6 49/80/6 48/79/6
f 68/81/23 52/82/23 39/83/23
f 68/81/23 70/84/23 51/85/23
f 70/84/23 72/86/23 50/71/23
f 37/87/22 46/88/22 85/89/22
f 85/89/22 46/88/22 45/90/22
f 45/90/22 44/67/22 91/66/22
f 35/91/24 47/92/24 94/93/24
f 94/93/25 47/92/25 48/94/25
f 97/95/25 48/94/25 49/64/25
f 41/96/8 71/97/8 69/98/8
f 69/98/8 71/97/8 72/86/8
f 43/99/8 42/100/8 69/98/8
f 67/101/8 69/98/8 70/84/8
f 38/102/26 43/99/26 67/101/26
f 53/103/26 67/101/26 68/81/26
f 46/104/6 65/105/6 63/106/6
f 65/105/6 66/72/6 64/78/6
f 45/107/6 63/106/6 61/108/6
f 63/106/6 64/78/6 62/75/6
f 44/109/6 61/108/6 57/110/6
f 61/108/6 62/75/6 58/111/6
f 46/104/6 37/112/6 55/113/6
f 65/105/6 55/113/6 56/73/6
f 33/114/27 59/115/27 71/97/27
f 59/115/27 60/69/27 72/86/27
f 75/116/20 38/117/20 53/118/20
f 103/119/20 53/118/20 54/61/20
f 34/120/19 57/121/19 109/122/19
f 57/121/19 58/57/19 112/123/19
f 111/124/28 114/125/28 60/126/28
f 110/127/18 113/128/18 114/125/18
f 109/122/18 112/123/18 113/128/18
f 79/129/28 111/124/28 59/130/28
f 80/131/18 110/127/18 111/124/18
f 81/132/18 109/122/18 110/127/18
f 105/133/29 108/134/29 56/135/29
f 104/136/16 107/137/16 108/134/16
f 103/119/16 106/60/16 107/137/16
f 37/138/29 73/139/29 105/133/29
f 73/139/16 74/140/16 104/136/16
f 74/140/16 75/116/16 103/119/16
f 99/141/30 102/142/30 52/143/30
f 98/144/31 101/145/31 102/142/31
f 97/95/31 100/63/31 101/145/31
f 96/146/30 99/141/30 51/147/30
f 95/148/31 98/144/31 99/141/31
f 94/93/31 97/95/31 98/144/31
f 36/149/32 84/150/32 96/146/32
f 83/151/33 95/148/33 96/146/33
f 82/152/34 94/93/34 95/148/34
f 90/153/35 93/154/35 41/155/35
f 89/156/36 92/157/36 93/154/36
f 88/158/37 91/66/37 92/157/37
f 43/159/38 87/160/38 90/153/38
f 87/160/39 86/161/39 89/156/39
f 86/161/40 85/89/40 88/158/40
f 38/162/41 75/163/41 87/160/41
f 75/163/42 74/164/42 86/161/42
f 74/164/43 73/165/43 85/89/43
f 93/154/44 79/166/44 33/167/44
f 92/157/45 80/168/45 79/166/45
f 91/66/46 81/169/46 80/168/46
f 102/142/47 76/170/47 39/171/47
f 102/142/48 101/145/48 77/172/48
f 101/145/49 100/63/49 78/173/49
f 108/134/29 78/174/29 40/175/29
f 107/137/16 77/176/16 78/174/16
f 106/60/16 76/177/16 77/176/16
f 114/125/28 84/178/28 36/179/28
f 113/128/18 83/180/18 84/178/18
f 112/123/18 82/59/18 83/180/18
f 22/181/18 148/182/18 145/183/18
f 148/182/50 149/184/50 146/185/50
f 149/184/51 150/56/51 147/54/51
f 1/186/52 21/187/52 145/183/52
f 124/188/53 145/183/53 146/185/53
f 125/189/54 146/185/54 147/54/54
f 17/190/16 18/191/16 142/192/16
f 142/192/55 143/193/55 140/194/55
f 143/193/16 144/53/16 141/51/16
f 5/195/56 17/190/56 139/196/56
f 118/197/57 139/196/57 140/194/57
f 119/198/58 140/194/58 141/51/58
f 9/199/59 136/200/59 133/201/59
f 136/200/8 137/202/8 134/203/8
f 134/203/60 137/202/60 138/26/60
f 10/204/7 133/201/7 115/205/7
f 133/201/61 134/203/61 116/206/61
f 116/206/62 134/203/62 135/23/62
f 12/207/6 130/208/6 127/209/6
f 130/208/6 131/210/6 128/211/6
f 131/210/6 132/22/6 129/19/6
f 11/212/6 127/209/6 121/213/6
f 127/209/6 128/211/6 122/214/6
f 128/211/6 129/19/6 123/215/6
f 5/195/6 118/197/6 130/208/6
f 118/197/6 119/198/6 131/210/6
f 119/198/6 120/16/6 132/22/6
f 9/199/5 1/186/5 124/188/5
f 124/188/63 125/189/63 137/202/63
f 125/189/5 126/13/5 138/26/5
f 6/216/2 115/217/2 142/192/2
f 115/217/2 116/218/2 143/193/2
f 116/218/2 117/4/2 144/53/2
f 2/219/1 121/220/1 148/182/1
f 121/220/64 122/221/64 149/184/64
f 122/221/1 123/1/1 150/56/1
f 150/56/1 123/1/1 23/3/1
f 144/53/2 117/4/2 19/6/2
f 20/50/3 31/7/3 8/9/3
f 22/47/65 27/10/65 2/12/65
f 138/26/5 126/13/5 15/15/5
f 132/22/6 120/16/6 14/18/6
f 123/215/6 129/19/6 3/21/6
f 129/19/6 132/22/6 13/20/6
f 117/222/7 135/23/7 7/25/7
f 16/24/8 135/23/8 15/15/8
f 17/44/66 5/27/66 25/29/66
f 25/29/4 12/28/4 27/10/4
f 23/38/3 3/30/3 29/32/3
f 29/32/3 13/31/3 31/7/3
f 15/223/3 30/33/3 16/35/3
f 30/33/3 29/32/3 32/34/3
f 15/223/3 4/36/3 30/33/3
f 24/37/3 23/38/3 30/33/3
f 10/224/67 26/39/67 9/41/67
f 28/40/68 26/39/68 27/10/68
f 10/224/69 6/42/69 26/39/69
f 18/43/70 17/44/70 26/39/70
f 9/41/71 28/40/71 1/46/71
f 21/45/72 28/40/72 22/47/72
f 16/35/3 32/34/3 7/49/3
f 32/34/3 31/7/3 19/48/3
f 8/17/15 120/16/15 20/52/15
f 20/52/16 141/51/16 19/6/16
f 4/14/52 126/13/52 24/55/52
f 147/54/51 150/56/51 24/55/51
f 112/123/19 58/57/19 82/59/19
f 76/177/20 106/60/20 39/62/20
f 78/173/73 100/63/73 40/65/73
f 81/169/74 91/66/74 34/68/74
f 72/86/75 60/69/75 50/71/75
f 49/80/6 66/72/6 40/74/6
f 58/111/6 62/75/6 35/77/6
f 62/75/6 64/78/6 47/76/6
f 64/78/6 66/72/6 48/79/6
f 54/225/26 68/81/26 39/83/26
f 52/82/23 68/81/23 51/85/23
f 51/85/23 70/84/23 50/71/23
f 73/165/76 37/87/76 85/89/76
f 88/158/77 85/89/77 45/90/77
f 88/158/78 45/90/78 91/66/78
f 82/152/79 35/91/79 94/93/79
f 97/95/25 94/93/25 48/94/25
f 100/63/25 97/95/25 49/64/25
f 42/100/8 41/96/8 69/98/8
f 70/84/8 69/98/8 72/86/8
f 67/101/8 43/99/8 69/98/8
f 68/81/8 67/101/8 70/84/8
f 53/103/26 38/102/26 67/101/26
f 54/225/26 53/103/26 68/81/26
f 45/107/6 46/104/6 63/106/6
f 63/106/6 65/105/6 64/78/6
f 44/109/6 45/107/6 61/108/6
f 61/108/6 63/106/6 62/75/6
f 34/226/6 44/109/6 57/110/6
f 57/110/6 61/108/6 58/111/6
f 65/105/6 46/104/6 55/113/6
f 66/72/6 65/105/6 56/73/6
f 41/96/27 33/114/27 71/97/27
f 71/97/27 59/115/27 72/86/27
f 103/119/20 75/116/20 53/118/20
f 106/60/20 103/119/20 54/61/20
f 81/132/19 34/120/19 109/122/19
f 109/122/19 57/121/19 112/123/19
f 59/130/28 111/124/28 60/126/28
f 111/124/18 110/127/18 114/125/18
f 110/127/18 109/122/18 113/128/18
f 33/227/28 79/129/28 59/130/28
f 79/129/18 80/131/18 111/124/18
f 80/131/18 81/132/18 110/127/18
f 55/228/29 105/133/29 56/135/29
f 105/133/16 104/136/16 108/134/16
f 104/136/16 103/119/16 107/137/16
f 55/228/29 37/138/29 105/133/29
f 105/133/16 73/139/16 104/136/16
f 104/136/16 74/140/16 103/119/16
f 51/147/30 99/141/30 52/143/30
f 99/141/31 98/144/31 102/142/31
f 98/144/31 97/95/31 101/145/31
f 50/229/30 96/146/30 51/147/30
f 96/146/31 95/148/31 99/141/31
f 95/148/31 94/93/31 98/144/31
f 50/229/30 36/149/30 96/146/30
f 84/150/80 83/151/80 96/146/80
f 83/151/81 82/152/81 95/148/81
f 42/230/82 90/153/82 41/155/82
f 90/153/83 89/156/83 93/154/83
f 89/156/84 88/158/84 92/157/84
f 42/230/85 43/159/85 90/153/85
f 90/153/86 87/160/86 89/156/86
f 89/156/87 86/161/87 88/158/87
f 43/159/88 38/162/88 87/160/88
f 87/160/89 75/163/89 86/161/89
f 86/161/90 74/164/90 85/89/90
f 41/155/91 93/154/91 33/167/91
f 93/154/92 92/157/92 79/166/92
f 92/157/93 91/66/93 80/168/93
f 52/143/30 102/142/30 39/171/30
f 76/170/94 102/142/94 77/172/94
f 77/172/95 101/145/95 78/173/95
f 56/135/29 108/134/29 40/175/29
f 108/134/16 107/137/16 78/174/16
f 107/137/16 106/60/16 77/176/16
f 60/126/28 114/125/28 36/179/28
f 114/125/18 113/128/18 84/178/18
f 113/128/18 112/123/18 83/180/18
f 21/187/18 22/181/18 145/183/18
f 145/183/50 148/182/50 146/185/50
f 146/185/18 149/184/18 147/54/18
f 124/188/52 1/186/52 145/183/52
f 125/189/54 124/188/54 146/185/54
f 126/13/54 125/189/54 147/54/54
f 139/196/96 17/190/96 142/192/96
f 139/196/55 142/192/55 140/194/55
f 140/194/97 143/193/97 141/51/97
f 118/197/57 5/195/57 139/196/57
f 119/198/57 118/197/57 140/194/57
f 120/16/15 119/198/15 141/51/15
f 10/204/8 9/199/8 133/201/8
f 133/201/59 136/200/59 134/203/59
f 135/23/60 134/203/60 138/26/60
f 6/231/7 10/204/7 115/205/7
f 115/205/7 133/201/7 116/206/7
f 117/222/7 116/206/7 135/23/7
f 11/212/6 12/207/6 127/209/6
f 127/209/6 130/208/6 128/211/6
f 128/211/6 131/210/6 129/19/6
f 2/232/6 11/212/6 121/213/6
f 121/213/6 127/209/6 122/214/6
f 122/214/6 128/211/6 123/215/6
f 12/207/6 5/195/6 130/208/6
f 130/208/6 118/197/6 131/210/6
f 131/210/6 119/198/6 132/22/6
f 136/200/98 9/199/98 124/188/98
f 136/200/63 124/188/63 137/202/63
f 137/202/99 125/189/99 138/26/99
f 18/191/2 6/216/2 142/192/2
f 142/192/2 115/217/2 143/193/2
f 143/193/2 116/218/2 144/53/2
f 22/181/1 2/219/1 148/182/1
f 148/182/100 121/220/100 149/184/100
f 149/184/101 122/221/101 150/56/101
