# ..:::Stalker models:::..
# WebSite: http://excalibur-craft.ru
mtllib transiver_16.mtl
o 2.007
v 0.018730 0.031953 0.010693
v 0.000020 0.031958 0.021514
v 0.041870 0.015999 0.024043
v 0.000039 0.015999 0.048203
v 0.018740 0.031946 -0.010908
v 0.041870 0.015999 -0.024258
v 0.000044 0.031946 -0.021709
v 0.000034 0.015999 -0.048418
v -0.018662 0.031951 -0.010908
v -0.041797 0.015999 -0.024258
v -0.018672 0.031960 0.010713
v -0.018662 0.031951 -0.010908
v -0.041797 0.015999 0.024043
v -0.041797 0.015999 -0.024258
v -0.018662 0.031951 -0.010908
v -0.018672 0.031960 0.010713
v -0.018662 0.215264 -0.010908
v -0.018672 0.215273 0.010713
v 0.000020 0.031958 0.021514
v 0.000015 0.215271 0.021514
v 0.018730 0.031953 0.010693
v 0.018730 0.215266 0.010693
v 0.018740 0.031946 -0.010908
v 0.018740 0.215259 -0.010908
v 0.000044 0.031946 -0.021709
v 0.000044 0.215256 -0.021709
v -0.018662 0.031951 -0.010908
v -0.018662 0.215264 -0.010908
v -0.018672 0.215273 0.010713
v 0.000015 0.215271 0.021514
v -0.041797 0.231221 0.024043
v 0.000034 0.231221 0.048203
v -0.018662 0.215264 -0.010908
v -0.041797 0.231221 -0.024258
v 0.000044 0.215256 -0.021709
v -0.018662 0.215264 -0.010908
v 0.000039 0.231221 -0.048418
v -0.041797 0.231221 -0.024258
v 0.018740 0.215259 -0.010908
v 0.041870 0.231221 -0.024258
v 0.018730 0.215266 0.010693
v 0.041870 0.231221 0.024043
v 0.253125 0.247217 -0.049473
v -0.169419 0.247217 0.194707
v 0.151670 0.247217 -0.225439
v -0.271060 0.247222 0.018623
v -0.035654 0.406384 0.110850
v -0.120312 0.406406 -0.036025
v -0.049165 0.339844 0.087324
v -0.120317 0.339863 -0.036035
v 0.030518 0.406404 -0.123115
v -0.120312 0.406406 -0.036025
v 0.023433 0.418970 -0.119023
v -0.113262 0.418972 -0.040098
v -0.113262 0.418972 -0.040098
v -0.028413 0.418953 0.106865
v 0.023433 0.418970 -0.119023
v 0.108315 0.418950 0.027998
v 0.115474 0.406382 0.024053
v 0.101738 0.339841 0.000283
v 0.030518 0.406404 -0.123115
v 0.030513 0.339861 -0.123105
v 0.023433 0.418970 -0.119023
v 0.108315 0.418950 0.027998
v 0.030513 0.339861 -0.123105
v -0.120317 0.339863 -0.036035
v 0.261514 0.339841 -0.013096
v 0.142173 0.339844 -0.219961
v -0.142144 0.339846 0.219912
v -0.261528 0.339849 0.013115
v -0.169419 0.247217 0.194707
v 0.253125 0.247217 -0.049473
v -0.151714 0.325149 0.225342
v 0.270854 0.325144 -0.018760
v -0.142144 0.339846 0.219912
v 0.261514 0.339841 -0.013096
v -0.271060 0.247222 0.018623
v -0.169419 0.247217 0.194707
v -0.270991 0.325154 0.018584
v -0.151714 0.325149 0.225342
v -0.142144 0.339846 0.219912
v -0.261528 0.339849 0.013115
v 0.270854 0.325144 -0.018760
v 0.253125 0.247217 -0.049473
v 0.151641 0.325149 -0.225430
v 0.151670 0.247217 -0.225439
v 0.142173 0.339844 -0.219961
v 0.261514 0.339841 -0.013096
v 0.151641 0.325149 -0.225430
v -0.270991 0.325154 0.018584
v 0.142173 0.339844 -0.219961
v -0.261528 0.339849 0.013115
v 0.151670 0.247217 -0.225439
v -0.271060 0.247222 0.018623
vt 0.2607 0.0500
vt 0.2096 0.0500
vt 0.2607 0.0089
vt 0.2096 0.0090
vt 0.3118 0.0500
vt 0.3118 0.0089
vt 0.3628 0.0500
vt 0.3628 0.0089
vt 0.4139 0.0500
vt 0.4139 0.0089
vt 0.1586 0.0500
vt 0.1075 0.0500
vt 0.1586 0.0090
vt 0.1075 0.0090
vt 0.1075 0.0500
vt 0.1586 0.0500
vt 0.1075 0.4832
vt 0.1586 0.4832
vt 0.2096 0.0500
vt 0.2096 0.4832
vt 0.2607 0.0500
vt 0.2607 0.4832
vt 0.3118 0.0500
vt 0.3118 0.4832
vt 0.3628 0.0500
vt 0.3628 0.4832
vt 0.4139 0.0500
vt 0.4139 0.4832
vt 0.1586 0.4832
vt 0.2096 0.4832
vt 0.1586 0.5242
vt 0.2096 0.5242
vt 0.1075 0.4832
vt 0.1075 0.5243
vt 0.3628 0.4832
vt 0.4139 0.4832
vt 0.3628 0.5243
vt 0.4139 0.5243
vt 0.3118 0.4832
vt 0.3118 0.5243
vt 0.2607 0.4832
vt 0.2607 0.5243
vt 0.0527 0.9984
vt 0.0527 0.0025
vt 0.4672 0.9988
vt 0.4676 0.0027
vt 0.4587 0.1661
vt 0.0960 0.1662
vt 0.4006 0.0237
vt 0.0959 0.0239
vt 0.5420 0.2514
vt 0.5420 0.5126
vt 0.5231 0.2637
vt 0.5231 0.5003
vt 0.0960 0.1983
vt 0.4591 0.1983
vt 0.0960 0.5360
vt 0.4593 0.5360
vt 0.4591 0.3933
vt 0.4004 0.5357
vt 0.0956 0.3933
vt 0.0956 0.5357
vt 0.0956 0.3612
vt 0.4588 0.3612
vt 0.6417 0.2514
vt 0.6417 0.5125
vt 0.5134 0.9984
vt 0.0030 0.9985
vt 0.5134 0.0025
vt 0.0023 0.0025
vt 0.6847 0.9982
vt 0.6847 0.0008
vt 0.8597 0.9983
vt 0.8597 0.0008
vt 0.8897 0.9758
vt 0.8898 0.0232
vt 0.5127 0.3407
vt 0.0776 0.3407
vt 0.5127 0.5073
vt 0.0020 0.5073
vt 0.0018 0.5465
vt 0.5127 0.5464
vt 0.0015 0.0414
vt 0.0772 0.2079
vt 0.5116 0.0414
vt 0.5111 0.2079
vt 0.5112 0.0023
vt 0.0010 0.0023
vt 0.5477 0.0033
vt 0.5477 0.6743
vt 0.5232 0.0184
vt 0.5232 0.6593
vt 0.6774 0.0033
vt 0.6774 0.6745
vn 0.4911 0.8544 0.1699
vn 0.0983 0.8543 0.5104
vn 0.3930 0.8543 0.3401
vn -0.0984 0.8541 0.5108
vn 0.3928 0.8544 -0.3401
vn 0.4910 0.8544 -0.1701
vn -0.0981 0.8544 -0.5103
vn 0.0982 0.8544 -0.5102
vn -0.4911 0.8543 -0.1704
vn -0.3927 0.8544 -0.3402
vn -0.3933 0.8541 0.3404
vn -0.4912 0.8542 -0.1704
vn -0.4914 0.8542 0.1701
vn -0.3928 0.8544 -0.3402
vn -0.7559 -0.0002 -0.6547
vn -0.9451 -0.0000 0.3269
vn -0.9448 -0.0000 -0.3276
vn -0.7562 -0.0000 0.6543
vn -0.1891 -0.0001 0.9820
vn 0.1893 -0.0000 0.9819
vn 0.7562 -0.0000 0.6544
vn 0.9448 0.0000 0.3275
vn 0.9450 0.0002 -0.3270
vn 0.7561 0.0002 -0.6544
vn 0.1892 0.0000 -0.9819
vn -0.1889 0.0000 -0.9820
vn -0.7559 -0.0000 -0.6547
vn -0.4912 -0.8543 0.1701
vn -0.0984 -0.8543 0.5104
vn -0.3931 -0.8542 0.3403
vn 0.0982 -0.8543 0.5104
vn -0.3931 -0.8542 -0.3403
vn -0.4911 -0.8543 -0.1701
vn 0.0982 -0.8542 -0.5105
vn -0.3930 -0.8543 -0.3403
vn -0.0983 -0.8542 -0.5105
vn 0.4911 -0.8544 -0.1699
vn 0.3931 -0.8542 -0.3403
vn 0.3928 -0.8543 0.3403
vn 0.4910 -0.8543 0.1703
vn 0.0000 -1.0000 -0.0000
vn -0.8019 0.3781 0.4625
vn -0.8509 0.1879 0.4906
vn -0.8663 -0.0002 0.4996
vn -0.8662 -0.0000 0.4996
vn -0.5000 0.0000 -0.8660
vn -0.5000 0.0001 -0.8660
vn -0.5000 -0.0002 -0.8660
vn -0.4123 0.8794 0.2380
vn -0.4110 0.8802 0.2374
vn 0.4129 0.8791 -0.2382
vn 0.4130 0.8790 -0.2383
vn 0.8304 0.2842 -0.4793
vn 0.8661 -0.0002 -0.4999
vn 0.8661 -0.0001 -0.4999
vn 0.4128 0.8791 -0.2382
vn 0.4129 0.8790 -0.2383
vn -0.4999 -0.0001 -0.8661
vn 0.3891 0.8934 -0.2245
vn 0.3890 0.8935 -0.2243
vn -0.2548 0.9557 0.1473
vn -0.5106 0.8077 0.2947
vn 0.4556 -0.4134 0.7884
vn 0.4556 -0.4135 0.7883
vn 0.4797 -0.2833 0.8304
vn 0.4946 -0.1482 0.8564
vn 0.5000 -0.0109 0.8659
vn 0.4999 -0.0161 0.8660
vn -0.8661 0.0010 0.4999
vn -0.8661 0.0009 0.4998
vn -0.8471 0.2087 0.4888
vn -0.7870 0.4176 0.4541
vn -0.2549 0.9557 0.1472
vn 0.7875 0.4164 -0.4543
vn 0.8662 -0.0000 -0.4996
vn 0.8473 0.2084 -0.4886
vn 0.8663 0.0004 -0.4995
vn 0.3890 0.8935 -0.2244
vn -0.5000 -0.0001 -0.8660
vn -0.5000 -0.0003 -0.8660
usemtl prop_krisagenerator
s 1
f 1/1/1 2/2/2 3/3/3
f 3/3/3 2/2/2 4/4/4
f 5/5/5 1/1/1 6/6/6
f 6/6/6 1/1/1 3/3/3
f 7/7/7 5/5/5 8/8/8
f 8/8/8 5/5/5 6/6/6
f 9/9/9 7/7/7 10/10/10
f 10/10/10 7/7/7 8/8/8
f 11/11/11 12/12/12 13/13/13
f 13/13/13 12/12/12 14/14/14
f 2/2/2 11/11/11 4/4/4
f 4/4/4 11/11/11 13/13/13
f 15/15/15 16/16/16 17/17/17
f 17/17/17 16/16/16 18/18/18
f 16/16/16 19/19/19 18/18/18
f 18/18/18 19/19/19 20/20/20
f 19/19/19 21/21/21 20/20/20
f 20/20/20 21/21/21 22/22/22
f 21/21/21 23/23/23 22/22/22
f 22/22/22 23/23/23 24/24/24
f 23/23/23 25/25/25 24/24/24
f 24/24/24 25/25/25 26/26/26
f 25/25/25 27/27/27 26/26/26
f 26/26/26 27/27/27 28/28/17
f 29/29/28 30/30/29 31/31/30
f 31/31/30 30/30/29 32/32/31
f 33/33/32 29/29/28 34/34/33
f 34/34/33 29/29/28 31/31/30
f 35/35/34 36/36/35 37/37/36
f 37/37/36 36/36/35 38/38/33
f 39/39/37 35/35/34 40/40/38
f 40/40/38 35/35/34 37/37/36
f 41/41/39 39/39/37 42/42/40
f 42/42/40 39/39/37 40/40/38
f 30/30/29 41/41/39 32/32/31
f 32/32/31 41/41/39 42/42/40
f 43/43/41 44/44/41 45/45/41
f 45/45/41 44/44/41 46/46/41
f 47/47/42 48/48/43 49/49/44
f 49/49/44 48/48/43 50/50/45
f 51/51/46 52/52/46 53/53/47
f 53/53/47 52/52/46 54/54/48
f 48/48/43 47/47/42 55/55/49
f 55/55/49 47/47/42 56/56/50
f 57/57/51 55/55/49 58/58/52
f 58/58/52 55/55/49 56/56/50
f 59/59/53 60/60/54 61/61/53
f 61/61/53 60/60/54 62/62/55
f 63/63/56 64/64/57 61/61/53
f 61/61/53 64/64/57 59/59/53
f 65/65/58 66/66/47 51/51/46
f 51/51/46 66/66/47 52/52/46
f 67/67/59 68/68/60 69/69/61
f 69/69/61 68/68/60 70/70/62
f 71/71/63 72/72/64 73/73/65
f 73/73/65 72/72/64 74/74/66
f 73/73/65 74/74/66 75/75/67
f 75/75/67 74/74/66 76/76/68
f 77/77/69 78/78/70 79/79/71
f 79/79/71 78/78/70 80/80/72
f 81/81/73 82/82/62 80/80/72
f 80/80/72 82/82/62 79/79/71
f 83/83/74 84/84/75 85/85/76
f 85/85/76 84/84/75 86/86/77
f 85/85/76 87/87/78 83/83/74
f 83/83/74 87/87/78 88/88/59
f 89/89/46 90/90/79 91/91/47
f 91/91/47 90/90/79 92/92/80
f 93/93/79 94/94/46 89/89/46
f 89/89/46 94/94/46 90/90/79
o 0.014
v -0.049165 0.339844 0.087324
v 0.101738 0.339841 0.000283
v -0.035654 0.406384 0.110850
v 0.115474 0.406382 0.024053
v -0.028413 0.418953 0.106865
v 0.108315 0.418950 0.027998
vt 1.7907 0.6626
vt 1.9994 0.6626
vt 1.7907 0.7493
vt 1.9994 0.7495
vt 1.8006 0.7645
vt 1.9896 0.7646
vn 0.4627 -0.3775 0.8021
vn 0.4614 -0.3796 0.8019
vn 0.4813 -0.2611 0.8368
vn 0.4944 -0.1291 0.8596
vn 0.4988 0.0003 0.8667
vn 0.4996 0.0127 0.8662
usemtl prop_pult4.005
s 1
f 95/95/81 96/96/82 97/97/83
f 97/97/83 96/96/82 98/98/84
f 97/97/83 98/98/84 99/99/85
f 99/99/85 98/98/84 100/100/86
o 1.010
v -0.110103 0.000000 -0.101104
v -0.110098 -0.000000 0.100879
v -0.097998 0.015999 -0.090342
v -0.097993 0.016001 0.090117
v -0.097998 0.015999 -0.090342
v -0.097993 0.016001 0.090117
v 0.098076 0.016001 -0.090186
v 0.098047 0.016003 0.090107
v 0.098076 0.016001 -0.090186
v 0.098047 0.016003 0.090107
v 0.110181 0.000002 -0.100928
v 0.110151 0.000002 0.100869
v -0.110098 -0.000000 0.100879
v 0.110151 0.000002 0.100869
v -0.097993 0.016001 0.090117
v 0.098047 0.016003 0.090107
v 0.110181 0.000002 -0.100928
v -0.110103 0.000000 -0.101104
v 0.098076 0.016001 -0.090186
v -0.097998 0.015999 -0.090342
v -0.322397 0.231221 0.013184
v -0.172671 0.231221 0.272471
v -0.322397 0.247219 0.013184
v -0.172671 0.247222 0.272471
v -0.322397 0.247219 0.013184
v -0.172671 0.247222 0.272471
v 0.172891 0.247222 -0.272480
v 0.322393 0.247224 -0.013389
v 0.172891 0.247222 -0.272480
v 0.322393 0.247224 -0.013389
v 0.172891 0.231223 -0.272480
v 0.322393 0.231223 -0.013389
v 0.172891 0.231223 -0.272480
v 0.322393 0.231223 -0.013389
v -0.322397 0.231221 0.013184
v -0.172671 0.231221 0.272471
v -0.172671 0.231221 0.272471
v 0.322393 0.231223 -0.013389
v -0.172671 0.247222 0.272471
v 0.322393 0.247224 -0.013389
v 0.172891 0.231223 -0.272480
v -0.322397 0.231221 0.013184
v 0.172891 0.247222 -0.272480
v -0.322397 0.247219 0.013184
vt 2.9186 0.9750
vt 3.1944 0.9750
vt 2.9333 1.0024
vt 3.1797 1.0024
vt 0.6480 0.2471
vt 0.6480 0.0007
vt 0.9157 0.2469
vt 0.9156 0.0007
vt 2.5067 1.0024
vt 2.2605 1.0024
vt 2.5214 0.9750
vt 2.2458 0.9750
vt 2.6267 0.9759
vt 2.9275 0.9760
vt 2.6433 1.0023
vt 2.9109 1.0023
vt 2.3735 0.9761
vt 2.6743 0.9759
vt 2.3901 1.0024
vt 2.6578 1.0022
vt 3.2885 0.0048
vt 2.9227 0.0044
vt 3.2885 0.0148
vt 2.9227 0.0151
vt 5.0508 0.3810
vt 5.0508 0.0152
vt 4.3523 0.3806
vt 4.3524 0.0152
vt 3.9870 0.0152
vt 4.3524 0.0152
vt 3.9869 0.0044
vt 4.3524 0.0044
vt 4.3523 0.3698
vt 4.3524 0.0044
vt 5.0508 0.3702
vt 5.0507 0.0044
vt 5.0507 0.0044
vt 4.3524 0.0044
vt 5.0508 0.0152
vt 4.3524 0.0152
vt 3.9869 0.0044
vt 3.2885 0.0048
vt 3.9870 0.0152
vt 3.2885 0.0148
vn -0.7975 0.6034 0.0000
vn -0.7975 0.6033 0.0000
vn -0.0000 1.0000 -0.0000
vn 0.7975 0.6033 0.0001
vn 0.0000 0.5581 0.8298
vn 0.0007 0.5578 -0.8300
vn -0.8660 0.0000 0.5001
vn 0.8661 0.0000 -0.4998
vn 0.0000 -1.0000 -0.0000
vn 0.5000 0.0000 0.8660
vn -0.4996 0.0000 -0.8662
usemtl mtl_tubes3b.001
s 1
f 101/101/87 102/102/88 103/103/87
f 103/103/87 102/102/88 104/104/88
f 105/105/89 106/106/89 107/107/89
f 107/107/89 106/106/89 108/108/89
f 109/109/90 110/110/90 111/111/90
f 111/111/90 110/110/90 112/112/90
f 113/113/91 114/114/91 115/115/91
f 115/115/91 114/114/91 116/116/91
f 117/117/92 118/118/92 119/119/92
f 119/119/92 118/118/92 120/120/92
f 121/121/93 122/122/93 123/123/93
f 123/123/93 122/122/93 124/124/93
f 125/125/89 126/126/89 127/127/89
f 127/127/89 126/126/89 128/128/89
f 129/129/94 130/130/94 131/131/94
f 131/131/94 130/130/94 132/132/94
f 133/133/95 134/134/95 135/135/95
f 135/135/95 134/134/95 136/136/95
f 137/137/96 138/138/96 139/139/96
f 139/139/96 138/138/96 140/140/96
f 141/141/97 142/142/97 143/143/97
f 143/143/97 142/142/97 144/144/97
