# ..:::Stalker models:::..
# WebSite: http://excalibur-craft.ru
mtllib axe.mtl
o 0.002
v -0.036875 0.329227 -0.372483
v -0.041298 0.545104 -0.960340
v -0.018663 0.307531 -0.380644
v -0.022491 0.522697 -0.968770
v 0.035017 0.245933 0.189283
v -0.030832 0.246015 0.189687
v 0.034695 0.155474 0.157329
v -0.031220 0.155345 0.157660
v -0.013675 0.134322 0.150132
v 0.017557 0.134383 0.149975
v 0.010989 0.522762 -0.968937
v -0.022491 0.522697 -0.968770
v 0.029364 0.545242 -0.960694
v -0.041298 0.545104 -0.960340
v 0.029452 0.613387 -0.935392
v -0.041210 0.613699 -0.934870
v -0.027397 0.626394 -0.930235
v 0.015180 0.626478 -0.930449
v 0.031549 0.329362 -0.372827
v 0.031163 0.394832 -0.348514
v 0.034695 0.155474 0.157329
v 0.035017 0.245933 0.189283
v -0.023125 0.407247 -0.343592
v -0.027397 0.626394 -0.930235
v -0.036322 0.395132 -0.348014
v -0.041210 0.613699 -0.934870
v 0.017557 0.134383 0.149975
v -0.013675 0.134322 0.150132
v 0.013756 0.307595 -0.380808
v 0.031549 0.329362 -0.372827
v 0.034695 0.155474 0.157329
v 0.015180 0.626478 -0.930449
v 0.017530 0.407326 -0.343796
v 0.029452 0.613387 -0.935392
v -0.031220 0.155345 0.157660
v 0.029364 0.545242 -0.960694
v -0.030832 0.246015 0.189687
v 0.010989 0.522762 -0.968937
v 0.029364 0.545242 -0.960694
v -0.011665 0.074183 0.101119
v -0.038769 0.158150 0.125125
v -0.012567 0.130332 -0.058472
v -0.039615 0.210737 -0.024339
v -0.041901 0.272785 0.165475
v -0.038769 0.158150 0.125125
v 0.045262 0.272901 0.165024
v 0.042019 0.158258 0.124706
v -0.042746 0.325371 0.016011
v -0.041901 0.272785 0.165475
v 0.044417 0.325488 0.015559
v 0.045262 0.272901 0.165024
v -0.012567 0.130332 -0.058472
v 0.014095 0.130368 -0.058610
v 0.000672 0.022341 -0.113953
v 0.042019 0.158258 0.124706
v 0.041173 0.210846 -0.024758
v 0.045262 0.272901 0.165024
v 0.044417 0.325488 0.015559
v -0.041901 0.272785 0.165475
v -0.042746 0.325371 0.016011
v 0.014095 0.130368 -0.058610
v 0.014998 0.074218 0.100980
v -0.011665 0.074183 0.101119
v 0.014998 0.074218 0.100980
v -0.039615 0.210737 -0.024339
v -0.042746 0.325371 0.016011
v 0.041173 0.210846 -0.024758
v 0.044417 0.325488 0.015559
v 0.001750 -0.044710 0.076624
v 0.000672 0.022341 -0.113953
v 0.001238 -0.019988 -0.015884
v 0.001750 -0.044710 0.076624
v 0.000672 0.022341 -0.113953
v 0.001238 -0.019988 -0.015884
v 0.001750 -0.044710 0.076624
v 0.007105 0.149503 0.126472
v 0.012820 0.132802 0.161367
v 0.001795 0.131453 0.160754
v -0.009034 0.203505 0.197012
v 0.001795 0.131453 0.160754
v 0.001991 0.204854 0.197625
v 0.012820 0.132802 0.161367
v -0.009034 0.203505 0.197012
v 0.001991 0.204854 0.197625
v -0.003725 0.221554 0.162731
v 0.012820 0.132802 0.161367
v 0.007105 0.149503 0.126472
v 0.001991 0.204854 0.197625
v -0.003725 0.221554 0.162731
v -0.009034 0.203505 0.197012
v -0.003725 0.221554 0.162731
v 0.001795 0.131453 0.160754
v 0.007105 0.149503 0.126472
v -0.007076 0.211227 -0.097418
v 0.007878 0.211067 -0.097563
v -0.010855 0.182404 -0.079104
v 0.011923 0.182435 -0.079222
v -0.014372 0.163144 -0.041002
v 0.015887 0.163185 -0.041159
v 0.007878 0.211067 -0.097563
v 0.000575 0.195984 -0.067789
v 0.011923 0.182435 -0.079222
v 0.000575 0.195984 -0.067789
v 0.015887 0.163185 -0.041159
v 0.000774 0.186893 -0.031823
v 0.007878 0.211067 -0.097563
v -0.007076 0.211227 -0.097418
v 0.000575 0.195984 -0.067789
v -0.007076 0.211227 -0.097418
v -0.010855 0.182404 -0.079104
v 0.000575 0.195984 -0.067789
v -0.014372 0.163144 -0.041002
v 0.000575 0.195984 -0.067789
v 0.000774 0.186893 -0.031823
vt 0.4658 0.2847
vt 0.4654 0.0283
vt 0.4779 0.2844
vt 0.4778 0.0283
vt 0.3696 0.0274
vt 0.3696 0.0009
vt 0.4082 0.0273
vt 0.4082 0.0008
vt 0.4172 0.0078
vt 0.4172 0.0204
vt 0.4755 0.0074
vt 0.4755 0.0208
vt 0.4672 0.0005
vt 0.4672 0.0283
vt 0.4369 0.0005
vt 0.4369 0.0283
vt 0.4289 0.0208
vt 0.4289 0.0074
vt 0.3714 0.2842
vt 0.4024 0.2853
vt 0.3685 0.5121
vt 0.4051 0.5135
vt 0.4295 0.2856
vt 0.4275 0.0283
vt 0.4371 0.2854
vt 0.4354 0.0283
vt 0.4930 0.5123
vt 0.4802 0.5124
vt 0.4911 0.2844
vt 0.5030 0.2846
vt 0.5045 0.5124
vt 0.4101 0.0283
vt 0.4128 0.2855
vt 0.4044 0.0283
vt 0.4686 0.5127
vt 0.3771 0.0283
vt 0.4293 0.5141
vt 0.4915 0.0283
vt 0.5039 0.0283
vt 0.6614 0.7118
vt 0.6147 0.7091
vt 0.6614 0.6252
vt 0.6147 0.6280
vt 0.5525 0.7091
vt 0.6147 0.7091
vt 0.5537 0.7536
vt 0.6202 0.7498
vt 0.5525 0.6280
vt 0.5525 0.7091
vt 0.5079 0.6280
vt 0.5079 0.7091
vt 0.6614 0.6252
vt 0.6629 0.6118
vt 0.7234 0.6168
vt 0.6147 0.6280
vt 0.6147 0.7091
vt 0.5525 0.6280
vt 0.5525 0.7091
vt 0.5525 0.7091
vt 0.5525 0.6280
vt 0.6614 0.7118
vt 0.6614 0.6252
vt 0.6614 0.7118
vt 0.6629 0.7252
vt 0.6147 0.6280
vt 0.5525 0.6280
vt 0.6202 0.5872
vt 0.5537 0.5834
vt 0.7234 0.7202
vt 0.7234 0.6168
vt 0.7271 0.6714
vt 0.7234 0.7202
vt 0.7234 0.7202
vt 0.7271 0.6714
vt 0.7234 0.6168
vt 0.0619 0.0014
vt 0.0619 0.0305
vt 0.0701 0.0293
vt 0.0619 0.0387
vt 0.0014 0.0387
vt 0.0619 0.0305
vt 0.0014 0.0305
vt 0.0701 0.0293
vt 0.0619 0.0305
vt 0.0619 0.0014
vt 0.0014 0.0305
vt 0.0014 0.0014
vt 0.0619 0.0305
vt 0.0619 0.0014
vt 0.0619 0.0305
vt 0.0619 0.0014
vt 0.0014 0.0305
vt 0.0014 0.0014
vt 0.1225 0.0233
vt 0.1226 0.0169
vt 0.1371 0.0250
vt 0.1372 0.0153
vt 0.1554 0.0268
vt 0.1555 0.0138
vt 0.1226 0.0169
vt 0.1335 0.0071
vt 0.1372 0.0153
vt 0.1378 0.0063
vt 0.1555 0.0138
vt 0.1529 0.0014
vt 0.1226 0.0169
vt 0.1195 0.0113
vt 0.1335 0.0071
vt 0.1225 0.0233
vt 0.1371 0.0250
vt 0.1333 0.0332
vt 0.1554 0.0268
vt 0.1376 0.0340
vt 0.1526 0.0391
vn -0.9213 -0.3705 -0.1177
vn -0.9458 -0.3072 -0.1055
vn -0.5220 -0.8065 -0.2777
vn -0.2876 -0.9001 -0.3273
vn 0.0054 -0.3331 0.9429
vn -0.0054 0.3481 -0.9374
vn -0.0054 0.3481 -0.9375
vn 0.9055 -0.3994 -0.1432
vn 0.9664 0.2460 0.0750
vn 0.9772 -0.1997 -0.0717
vn 0.7046 0.6825 0.1942
vn -0.3774 0.8778 0.2949
vn -0.3773 0.8666 0.3265
vn -0.9423 0.3142 0.1154
vn -0.9215 0.3614 0.1423
vn 0.5819 -0.7719 -0.2561
vn -0.4368 -0.8564 -0.2754
vn 0.2911 -0.9036 -0.3143
vn 0.3782 0.8677 0.3226
vn 0.3236 0.8967 0.3021
vn 0.8595 0.4798 0.1764
vn -0.9770 -0.2052 -0.0571
vn 0.9774 -0.1975 -0.0759
vn -0.5290 0.8123 0.2457
vn 0.5819 -0.7629 -0.2818
vn -0.9853 -0.1635 -0.0490
vn -0.9867 -0.1553 -0.0490
vn -0.9793 -0.1921 -0.0641
vn -0.9866 -0.1553 -0.0491
vn 0.0053 -0.3319 0.9433
vn 0.0053 -0.3125 0.9499
vn 0.0053 -0.2929 0.9561
vn 0.0005 0.9433 0.3319
vn -0.0053 0.4119 -0.9112
vn -0.0053 0.4232 -0.9060
vn -0.0052 0.4565 -0.8897
vn 0.9866 -0.1521 -0.0591
vn 0.9996 -0.0234 -0.0139
vn -0.9997 -0.0261 -0.0035
vn 0.9853 -0.1583 -0.0640
vn 0.9793 -0.1899 -0.0701
vn 0.0054 -0.2494 0.9684
vn 0.0054 -0.2374 0.9714
vn -0.0053 0.3607 -0.9327
vn -0.0053 0.3319 -0.9433
vn 0.0053 -0.2012 0.9795
vn -0.9940 -0.1022 -0.0384
vn -0.9942 -0.1028 -0.0301
vn -0.9939 -0.1074 -0.0232
vn 0.9939 -0.0987 -0.0484
vn 0.9942 -0.0994 -0.0402
vn 0.9940 -0.1039 -0.0333
vn 0.1331 -0.8853 -0.4455
vn 0.0052 -0.4489 0.8936
vn 0.0053 -0.4489 0.8936
vn -0.1331 0.8853 0.4455
vn 0.9803 0.1838 -0.0726
vn 0.9803 0.1839 -0.0726
vn -0.9818 -0.0562 -0.1816
vn -0.0139 -0.5350 -0.8448
vn -0.0088 -0.5373 -0.8433
vn -0.0051 -0.7413 -0.6712
vn -0.0025 -0.7422 -0.6701
vn -0.0011 -0.8924 -0.4512
vn 0.8406 0.3714 0.3943
vn 0.8490 0.4729 0.2357
vn 0.8401 0.4572 0.2921
vn 0.8400 0.4572 0.2921
vn 0.8419 0.5174 0.1532
vn 0.8580 0.4991 0.1214
vn 0.0139 0.8906 0.4546
vn -0.8373 0.3672 0.4051
vn -0.8383 0.4540 0.3019
vn -0.8479 0.4700 0.2452
vn -0.8417 0.5151 0.1619
vn -0.8580 0.4968 0.1303
usemtl prop_instrument_1.002
s 1
f 1/1/1 2/2/2 3/3/3
f 3/3/3 2/2/2 4/4/4
f 5/5/5 6/6/5 7/7/5
f 7/7/5 6/6/5 8/8/5
f 8/8/5 9/9/5 7/7/5
f 7/7/5 9/9/5 10/10/5
f 11/11/6 12/12/6 13/13/6
f 13/13/6 12/12/6 14/14/6
f 13/13/6 14/14/6 15/15/6
f 15/15/6 14/14/6 16/16/6
f 17/17/6 18/18/7 16/16/6
f 16/16/6 18/18/7 15/15/6
f 19/19/8 20/20/9 21/21/10
f 21/21/10 20/20/9 22/22/11
f 23/23/12 24/24/13 25/25/14
f 25/25/14 24/24/13 26/26/15
f 27/27/16 28/28/17 29/29/18
f 29/29/18 28/28/17 3/3/3
f 29/29/18 30/30/8 27/27/16
f 27/27/16 30/30/8 31/31/10
f 32/32/19 24/24/13 33/33/20
f 33/33/20 24/24/13 23/23/12
f 20/20/9 34/34/21 33/33/20
f 33/33/20 34/34/21 32/32/19
f 26/26/15 2/2/2 25/25/14
f 25/25/14 2/2/2 1/1/1
f 3/3/3 28/28/17 1/1/1
f 1/1/1 28/28/17 35/35/22
f 34/34/21 20/20/9 36/36/23
f 36/36/23 20/20/9 19/19/8
f 23/23/12 25/25/14 37/37/24
f 37/37/24 25/25/14 35/35/22
f 35/35/22 25/25/14 1/1/1
f 38/38/25 29/29/18 4/4/4
f 4/4/4 29/29/18 3/3/3
f 39/39/23 30/30/8 38/38/25
f 38/38/25 30/30/8 29/29/18
f 23/23/12 37/37/24 33/33/20
f 33/33/20 37/37/24 22/22/11
f 22/22/11 20/20/9 33/33/20
f 40/40/26 41/41/27 42/42/28
f 42/42/28 41/41/27 43/43/29
f 44/44/30 45/45/31 46/46/30
f 46/46/30 45/45/31 47/47/32
f 48/48/33 49/49/33 50/50/33
f 50/50/33 49/49/33 51/51/33
f 52/52/34 53/53/35 54/54/36
f 55/55/37 56/56/37 57/57/38
f 57/57/38 56/56/37 58/58/38
f 59/59/39 60/60/39 41/41/27
f 41/41/27 60/60/39 43/43/29
f 61/61/40 56/56/37 62/62/41
f 62/62/41 56/56/37 55/55/37
f 45/45/31 63/63/42 47/47/32
f 47/47/32 63/63/42 64/64/43
f 65/65/44 66/66/45 67/67/44
f 67/67/44 66/66/45 68/68/45
f 64/64/43 63/63/42 69/69/46
f 70/70/47 71/71/48 42/42/28
f 42/42/28 71/71/48 40/40/26
f 40/40/26 71/71/48 72/72/49
f 73/73/50 61/61/40 74/74/51
f 74/74/51 61/61/40 62/62/41
f 62/62/41 75/75/52 74/74/51
f 53/53/35 52/52/34 67/67/44
f 67/67/44 52/52/34 65/65/44
f 76/76/53 77/77/53 78/78/53
f 79/79/54 80/80/55 81/81/54
f 81/81/54 80/80/55 82/82/55
f 83/83/56 84/84/56 85/85/56
f 86/86/57 87/87/57 88/88/58
f 88/88/58 87/87/57 89/89/58
f 90/90/59 91/91/59 92/92/59
f 92/92/59 91/91/59 93/93/59
f 94/94/60 95/95/61 96/96/62
f 96/96/62 95/95/61 97/97/63
f 98/98/64 96/96/62 99/99/64
f 99/99/64 96/96/62 97/97/63
f 100/100/65 101/101/66 102/102/67
f 102/102/68 103/103/66 104/104/69
f 104/104/69 103/103/66 105/105/70
f 106/106/71 107/107/71 108/108/71
f 109/109/72 110/110/73 111/111/74
f 110/110/73 112/112/75 113/113/74
f 113/113/74 112/112/75 114/114/76
