# ..:::Stalker models:::..
# WebSite: http://excalibur-craft.ru
mtllib keyga.mtl
o 0.003
v 0.070028 0.016643 0.135617
v 0.069995 0.016643 0.109929
v 0.070028 0.001649 0.135617
v 0.069995 0.001649 0.109929
v 0.070028 0.016643 0.135617
v 0.113718 0.016643 0.090808
v 0.069995 0.016643 0.109929
v 0.096071 0.016643 0.087994
v 0.102973 0.016643 0.125404
v 0.117931 0.001649 0.167933
v 0.100631 0.001649 0.167327
v 0.094594 0.001649 0.147647
v 0.146443 0.001649 0.134532
v 0.123880 0.001649 0.114535
v 0.143502 0.001649 0.116914
v 0.082779 0.001649 0.159613
v 0.070028 0.001649 0.135617
v 0.134680 0.001649 0.102675
v 0.113718 0.001649 0.090808
v 0.102973 0.001649 0.125404
v 0.069995 0.001649 0.109929
v 0.096071 0.001649 0.087994
v 0.123880 0.001649 0.114535
v 0.123880 0.016643 0.114535
v 0.102973 0.001649 0.125404
v 0.102973 0.016643 0.125404
v 0.096071 0.001649 0.087994
v 0.096071 0.016643 0.087994
v 0.113718 0.001649 0.090808
v 0.113718 0.016643 0.090808
v 0.082779 0.001649 0.159613
v 0.082779 0.016643 0.159613
v 0.070028 0.016643 0.135617
v 0.113718 0.016643 0.090808
v 0.134680 0.001649 0.102675
v 0.134680 0.016643 0.102675
v 0.100631 0.001649 0.167327
v 0.100631 0.016643 0.167327
v 0.082779 0.016643 0.159613
v 0.134680 0.016643 0.102675
v 0.143502 0.001649 0.116914
v 0.143502 0.016643 0.116914
v 0.117931 0.001649 0.167933
v 0.117931 0.016643 0.167933
v 0.100631 0.016643 0.167327
v 0.143502 0.016643 0.116914
v 0.146443 0.001649 0.134532
v 0.146443 0.016643 0.134532
v 0.117931 0.001649 0.167933
v 0.094594 0.001649 0.147647
v 0.117931 0.016643 0.167933
v 0.094594 0.016643 0.147647
v 0.146443 0.001649 0.134532
v 0.146443 0.016643 0.134532
v 0.123880 0.016643 0.114535
v 0.102973 0.016643 0.125404
v 0.094594 0.016643 0.147647
v -0.096071 0.016643 -0.088106
v -0.069995 0.016643 -0.110040
v -0.069995 0.001649 -0.110040
v -0.096071 0.001649 -0.088106
v -0.069995 0.001649 -0.110040
v -0.069995 0.016643 -0.110040
v 0.096071 0.016643 0.087994
v 0.069995 0.016643 0.109929
v -0.096071 0.001649 -0.088106
v -0.096071 0.016643 -0.088106
v -0.070028 0.001649 -0.135617
v -0.070028 0.016643 -0.135617
v -0.070028 0.016643 -0.135617
v -0.113718 0.016643 -0.090808
v -0.102973 0.016643 -0.125404
v -0.117931 0.001649 -0.167933
v -0.100631 0.001649 -0.167327
v -0.094594 0.001649 -0.147647
v -0.146443 0.001649 -0.134532
v -0.123880 0.001649 -0.114535
v -0.143502 0.001649 -0.116914
v -0.082779 0.001649 -0.159613
v -0.070028 0.001649 -0.135617
v -0.134680 0.001649 -0.102675
v -0.113718 0.001649 -0.090808
v -0.102973 0.001649 -0.125404
v -0.123880 0.001649 -0.114535
v -0.123880 0.016643 -0.114535
v -0.102973 0.001649 -0.125404
v -0.102973 0.016643 -0.125404
v -0.113718 0.001649 -0.090808
v -0.113718 0.016643 -0.090808
v -0.096071 0.016643 -0.088106
v -0.082779 0.001649 -0.159613
v -0.082779 0.016643 -0.159613
v -0.070028 0.016643 -0.135617
v -0.113718 0.016643 -0.090808
v -0.134680 0.001649 -0.102675
v -0.134680 0.016643 -0.102675
v -0.100631 0.001649 -0.167327
v -0.100631 0.016643 -0.167327
v -0.082779 0.016643 -0.159613
v -0.134680 0.016643 -0.102675
v -0.143502 0.001649 -0.116914
v -0.143502 0.016643 -0.116914
v -0.117931 0.001649 -0.167933
v -0.117931 0.016643 -0.167933
v -0.100631 0.016643 -0.167327
v -0.143502 0.016643 -0.116914
v -0.146443 0.001649 -0.134532
v -0.146443 0.016643 -0.134532
v -0.117931 0.001649 -0.167933
v -0.094594 0.001649 -0.147647
v -0.117931 0.016643 -0.167933
v -0.094594 0.016643 -0.147647
v -0.146443 0.001649 -0.134532
v -0.146443 0.016643 -0.134532
v -0.123880 0.016643 -0.114535
v -0.102973 0.016643 -0.125404
v -0.094594 0.016643 -0.147647
v 0.117931 0.016643 0.167933
v 0.094594 0.016643 0.147647
v 0.100631 0.016643 0.167327
v 0.146443 0.016643 0.134532
v 0.143502 0.016643 0.116914
v 0.123880 0.016643 0.114535
v 0.082779 0.016643 0.159613
v 0.134680 0.016643 0.102675
v -0.117931 0.016643 -0.167933
v -0.094594 0.016643 -0.147647
v -0.100631 0.016643 -0.167327
v -0.146443 0.016643 -0.134532
v -0.143502 0.016643 -0.116914
v -0.123880 0.016643 -0.114535
v -0.082779 0.016643 -0.159613
v -0.134680 0.016643 -0.102675
vt 0.5851 0.3335
vt 0.6005 0.3151
vt 0.5958 0.3425
vt 0.6112 0.3241
vt 0.5958 0.3425
vt 0.6539 0.3367
vt 0.6112 0.3241
vt 0.6430 0.3241
vt 0.6255 0.3550
vt 0.6107 0.3943
vt 0.5987 0.3835
vt 0.6062 0.3658
vt 0.6511 0.3876
vt 0.6470 0.3598
vt 0.6595 0.3732
vt 0.5905 0.3673
vt 0.5958 0.3425
vt 0.6618 0.3578
vt 0.6539 0.3367
vt 0.6255 0.3550
vt 0.6112 0.3241
vt 0.6430 0.3241
vt 0.6470 0.3598
vt 0.6439 0.3734
vt 0.6255 0.3550
vt 0.6225 0.3686
vt 0.6430 0.3241
vt 0.6536 0.3150
vt 0.6539 0.3367
vt 0.6645 0.3276
vt 0.5905 0.3673
vt 0.5769 0.3644
vt 0.5821 0.3396
vt 0.6670 0.3318
vt 0.6618 0.3578
vt 0.6749 0.3529
vt 0.5987 0.3835
vt 0.5862 0.3898
vt 0.5780 0.3736
vt 0.6756 0.3598
vt 0.6595 0.3732
vt 0.6734 0.3752
vt 0.6107 0.3943
vt 0.6013 0.4047
vt 0.5893 0.3939
vt 0.6716 0.3804
vt 0.6511 0.3876
vt 0.6631 0.3947
vt 0.6107 0.3943
vt 0.6062 0.3658
vt 0.6245 0.3922
vt 0.6200 0.3637
vt 0.6511 0.3876
vt 0.6372 0.3896
vt 0.6331 0.3618
vt 0.6323 0.3672
vt 0.6130 0.3780
vt 0.6114 0.0830
vt 0.6439 0.0823
vt 0.6439 0.0823
vt 0.6114 0.0830
vt 0.6439 0.0823
vt 0.6568 0.0860
vt 0.6570 0.3241
vt 0.5972 0.3241
vt 0.6114 0.0830
vt 0.5974 0.0830
vt 0.6580 0.0635
vt 0.6688 0.0685
vt 0.6580 0.0635
vt 0.6004 0.0705
vt 0.6289 0.0522
vt 0.6437 0.0128
vt 0.6557 0.0237
vt 0.6482 0.0413
vt 0.6033 0.0196
vt 0.6074 0.0474
vt 0.5948 0.0339
vt 0.6638 0.0399
vt 0.6580 0.0635
vt 0.5926 0.0494
vt 0.6004 0.0705
vt 0.6289 0.0522
vt 0.6074 0.0474
vt 0.6105 0.0338
vt 0.6289 0.0522
vt 0.6319 0.0385
vt 0.6004 0.0705
vt 0.5899 0.0797
vt 0.6009 0.0922
vt 0.6638 0.0399
vt 0.6775 0.0428
vt 0.6722 0.0676
vt 0.5873 0.0754
vt 0.5926 0.0494
vt 0.5795 0.0543
vt 0.6557 0.0237
vt 0.6682 0.0174
vt 0.6764 0.0336
vt 0.5788 0.0474
vt 0.5948 0.0339
vt 0.5810 0.0319
vt 0.6437 0.0128
vt 0.6531 0.0025
vt 0.6651 0.0133
vt 0.5828 0.0268
vt 0.6033 0.0196
vt 0.5913 0.0125
vt 0.6437 0.0128
vt 0.6482 0.0413
vt 0.6299 0.0150
vt 0.6344 0.0435
vt 0.6033 0.0196
vt 0.6172 0.0175
vt 0.6213 0.0454
vt 0.6220 0.0400
vt 0.6414 0.0291
vt 0.6107 0.3943
vt 0.6062 0.3658
vt 0.5987 0.3835
vt 0.6511 0.3876
vt 0.6595 0.3732
vt 0.6470 0.3598
vt 0.5905 0.3673
vt 0.6618 0.3578
vt 0.6437 0.0128
vt 0.6482 0.0413
vt 0.6557 0.0237
vt 0.6033 0.0196
vt 0.5948 0.0339
vt 0.6074 0.0474
vt 0.6638 0.0399
vt 0.5926 0.0494
vn -0.9702 -0.0000 0.2424
vn -0.9395 -0.0000 0.3425
vn 0.0000 1.0000 0.0000
vn -0.0000 -1.0000 -0.0000
vn -0.3412 0.0000 0.9400
vn 0.1022 -0.0000 0.9948
vn 0.6579 -0.0000 0.7531
vn 0.8259 -0.0000 0.5638
vn 0.5967 -0.0000 -0.8024
vn 0.3817 -0.0000 -0.9243
vn 0.2731 0.0000 -0.9620
vn 0.3864 -0.0000 -0.9223
vn -0.5882 0.0000 0.8087
vn -0.7588 -0.0000 0.6513
vn 0.2730 0.0000 -0.9620
vn 0.6292 0.0000 -0.7772
vn 0.7518 -0.0000 -0.6594
vn -0.1580 0.0000 0.9874
vn -0.2804 -0.0000 0.9599
vn -0.5881 0.0000 0.8088
vn 0.9108 0.0000 -0.4129
vn 0.9570 -0.0000 -0.2902
vn -0.0350 0.0000 0.9994
vn 0.9864 -0.0000 -0.1646
vn 0.6561 0.0000 -0.7547
vn 0.9695 -0.0000 -0.2450
vn -0.6633 0.0000 0.7484
vn 0.9739 -0.0000 -0.2271
vn 0.8916 0.0000 -0.4529
vn -0.4903 -0.0000 0.8715
vn 0.9468 0.0000 -0.3217
vn 0.9869 -0.0000 -0.1615
vn 0.3412 -0.0000 -0.9400
vn -0.1022 0.0000 -0.9948
vn -0.6579 0.0000 -0.7531
vn -0.8259 0.0000 -0.5638
vn -0.3274 0.0000 0.9449
vn -0.4904 0.0000 0.8715
vn 0.5882 0.0000 -0.8087
vn 0.7588 -0.0000 -0.6513
vn 0.9469 0.0000 -0.3217
vn -0.6292 0.0000 0.7772
vn -0.7518 -0.0000 0.6594
vn 0.1580 0.0000 -0.9874
vn 0.2804 -0.0000 -0.9599
vn 0.5881 0.0000 -0.8088
vn -0.9108 0.0000 0.4129
vn -0.9570 -0.0000 0.2902
vn 0.0350 0.0000 -0.9994
vn -0.9864 0.0000 0.1646
vn -0.6561 0.0000 0.7547
vn -0.9695 0.0000 0.2450
vn 0.6633 0.0000 -0.7484
usemtl prop_instrument_1.003
s 1
f 1/1/1 2/2/2 3/3/1
f 3/3/1 2/2/2 4/4/2
f 5/5/3 6/6/3 7/7/3
f 7/7/3 6/6/3 8/8/3
f 6/6/3 5/5/3 9/9/3
f 10/10/4 11/11/4 12/12/4
f 13/13/4 14/14/4 15/15/4
f 11/11/4 16/16/4 12/12/4
f 12/12/4 16/16/4 17/17/4
f 15/15/4 14/14/4 18/18/4
f 18/18/4 14/14/4 19/19/4
f 12/12/4 17/17/4 20/20/4
f 19/19/4 20/20/4 17/17/4
f 17/17/4 21/21/4 19/19/4
f 19/19/4 21/21/4 22/22/4
f 14/14/4 20/20/4 19/19/4
f 23/23/5 24/24/6 25/25/7
f 25/25/7 24/24/6 26/26/8
f 27/27/9 28/28/10 29/29/11
f 29/29/11 28/28/10 30/30/12
f 31/31/13 32/32/14 3/3/1
f 3/3/1 32/32/14 33/33/1
f 29/29/15 34/34/12 35/35/16
f 35/35/16 34/34/12 36/36/17
f 37/37/18 38/38/19 31/31/20
f 31/31/20 38/38/19 39/39/14
f 35/35/16 40/40/17 41/41/21
f 41/41/21 40/40/17 42/42/22
f 43/43/23 44/44/23 37/37/18
f 37/37/18 44/44/23 45/45/19
f 41/41/21 46/46/22 47/47/24
f 47/47/24 46/46/22 48/48/24
f 49/49/25 50/50/26 51/51/25
f 51/51/25 50/50/26 52/52/26
f 53/53/27 54/54/27 23/23/5
f 23/23/5 54/54/27 55/55/6
f 25/25/7 56/56/8 50/50/26
f 50/50/26 56/56/8 57/57/26
f 58/58/3 7/7/3 59/59/3
f 59/59/3 7/7/3 8/8/3
f 60/60/4 22/22/4 61/61/4
f 61/61/4 22/22/4 21/21/4
f 62/62/28 63/63/29 27/27/9
f 27/27/9 63/63/29 64/64/10
f 4/4/2 65/65/2 66/66/30
f 66/66/30 65/65/2 67/67/30
f 68/68/31 69/69/32 62/62/28
f 62/62/28 69/69/32 63/63/29
f 70/70/3 71/71/3 59/59/3
f 59/59/3 71/71/3 58/58/3
f 71/71/3 70/70/3 72/72/3
f 73/73/4 74/74/4 75/75/4
f 76/76/4 77/77/4 78/78/4
f 74/74/4 79/79/4 75/75/4
f 75/75/4 79/79/4 80/80/4
f 78/78/4 77/77/4 81/81/4
f 81/81/4 77/77/4 82/82/4
f 75/75/4 80/80/4 83/83/4
f 82/82/4 83/83/4 80/80/4
f 80/80/4 60/60/4 82/82/4
f 82/82/4 60/60/4 61/61/4
f 77/77/4 83/83/4 82/82/4
f 84/84/33 85/85/34 86/86/35
f 86/86/35 85/85/34 87/87/36
f 88/88/37 66/66/38 89/89/37
f 89/89/37 66/66/38 90/90/38
f 91/91/39 92/92/40 68/68/41
f 68/68/41 92/92/40 93/93/32
f 88/88/37 94/94/37 95/95/42
f 95/95/42 94/94/37 96/96/43
f 97/97/44 98/98/45 91/91/46
f 91/91/46 98/98/45 99/99/40
f 95/95/42 100/100/43 101/101/47
f 101/101/47 100/100/43 102/102/48
f 103/103/49 104/104/49 97/97/44
f 97/97/44 104/104/49 105/105/45
f 101/101/47 106/106/48 107/107/50
f 107/107/50 106/106/48 108/108/50
f 109/109/51 110/110/52 111/111/51
f 111/111/51 110/110/52 112/112/52
f 113/113/53 114/114/53 84/84/33
f 84/84/33 114/114/53 115/115/34
f 86/86/35 116/116/36 110/110/52
f 110/110/52 116/116/36 117/117/52
f 118/118/3 119/119/3 120/120/3
f 121/121/3 122/122/3 123/123/3
f 120/120/3 119/119/3 124/124/3
f 124/124/3 119/119/3 5/5/3
f 122/122/3 125/125/3 123/123/3
f 123/123/3 125/125/3 6/6/3
f 5/5/3 119/119/3 9/9/3
f 6/6/3 9/9/3 123/123/3
f 126/126/3 127/127/3 128/128/3
f 129/129/3 130/130/3 131/131/3
f 128/128/3 127/127/3 132/132/3
f 132/132/3 127/127/3 70/70/3
f 130/130/3 133/133/3 131/131/3
f 131/131/3 133/133/3 71/71/3
f 70/70/3 127/127/3 72/72/3
f 71/71/3 72/72/3 131/131/3
