# ..:::Stalker models:::..
# WebSite: http://excalibur-craft.ru
mtllib riffler.mtl
o 0.006
v -0.079192 0.036316 -0.124582
v -0.079192 0.022490 -0.125186
v -0.108320 0.036182 -0.121497
v -0.108477 0.022361 -0.122224
v -0.124782 0.034328 -0.079035
v 0.270264 0.017096 0.315636
v -0.121625 0.035601 -0.108204
v 0.315855 0.019084 0.270088
v -0.108320 0.036182 -0.121497
v -0.079192 0.036316 -0.124582
v 0.315855 0.005259 0.269485
v 0.315855 0.019084 0.270088
v 0.270264 0.003270 0.315032
v 0.270264 0.017096 0.315636
v -0.079192 0.022490 -0.125186
v 0.315855 0.005259 0.269485
v -0.108477 0.022361 -0.122224
v -0.121748 0.021782 -0.108966
v 0.270264 0.003270 0.315032
v -0.124782 0.020502 -0.079638
v -0.124782 0.034328 -0.079035
v -0.124782 0.020502 -0.079638
v 0.270264 0.017096 0.315636
v 0.270264 0.003270 0.315032
v 0.315855 0.019084 0.270088
v 0.315855 0.005259 0.269485
v -0.079192 0.036316 -0.124582
v -0.079192 0.022490 -0.125186
v -0.124782 0.034328 -0.079035
v -0.121625 0.035601 -0.108204
v -0.124782 0.020502 -0.079638
v -0.121748 0.021782 -0.108966
v -0.227752 0.065664 -0.251264
v -0.252846 0.064569 -0.226195
v -0.109482 0.051291 -0.126079
v -0.127218 0.050542 -0.108379
v -0.270762 0.060258 -0.288796
v -0.261157 0.037011 -0.299559
v -0.214960 0.035499 -0.264902
v -0.270896 0.012921 -0.290997
v -0.227264 0.004230 -0.253466
v -0.290240 0.012077 -0.271672
v -0.252365 0.003135 -0.228389
v -0.252365 0.003135 -0.228389
v -0.265154 0.033310 -0.214755
v -0.290240 0.012077 -0.271672
v -0.299844 0.035324 -0.260908
v -0.290105 0.059414 -0.269470
v -0.290105 0.059414 -0.269470
v -0.270762 0.060258 -0.288796
v -0.293368 0.036729 -0.293089
v -0.261157 0.037011 -0.299559
v -0.270896 0.012921 -0.290997
v -0.290240 0.012077 -0.271672
v -0.299844 0.035324 -0.260908
v -0.108477 0.022361 -0.122224
v -0.121748 0.021782 -0.108966
v -0.109276 0.007904 -0.127707
v -0.127011 0.007155 -0.110007
v -0.100511 0.029972 -0.135743
v -0.108320 0.036182 -0.121497
v -0.100511 0.029972 -0.135743
v -0.109276 0.007904 -0.127707
v -0.127011 0.007155 -0.110007
v -0.135982 0.028473 -0.100343
v -0.127011 0.007155 -0.110007
v -0.127218 0.050542 -0.108379
v -0.121625 0.035601 -0.108204
v -0.109482 0.051291 -0.126079
v -0.135982 0.028473 -0.100343
vt 0.2918 0.2059
vt 0.2786 0.2059
vt 0.2918 0.1791
vt 0.2786 0.1790
vt 0.3531 0.2059
vt 0.3531 0.7372
vt 0.3318 0.1919
vt 0.2918 0.7372
vt 0.3130 0.1919
vt 0.2918 0.2059
vt 0.2918 0.7503
vt 0.2918 0.7372
vt 0.3531 0.7503
vt 0.3531 0.7372
vt 0.2786 0.2059
vt 0.2786 0.7372
vt 0.2574 0.1918
vt 0.2386 0.1918
vt 0.2173 0.7372
vt 0.2173 0.2059
vt 0.3531 0.2059
vt 0.3662 0.2059
vt 0.3531 0.7372
vt 0.3662 0.7372
vt 0.2918 0.7372
vt 0.2786 0.7372
vt 0.2918 0.2059
vt 0.2786 0.2059
vt 0.3531 0.2059
vt 0.3531 0.1790
vt 0.3662 0.2059
vt 0.3662 0.1789
vt 0.2918 0.1325
vt 0.2676 0.1325
vt 0.2916 0.0012
vt 0.2676 0.0012
vt 0.2918 0.1774
vt 0.3161 0.1774
vt 0.3160 0.1325
vt 0.3402 0.1774
vt 0.3402 0.1325
vt 0.3646 0.1774
vt 0.3646 0.1325
vt 0.2191 0.1325
vt 0.2434 0.1325
vt 0.2191 0.1774
vt 0.2434 0.1774
vt 0.2676 0.1774
vt 0.1634 0.0176
vt 0.1771 0.0007
vt 0.1879 0.0228
vt 0.1987 0.0007
vt 0.2124 0.0176
vt 0.2033 0.0406
vt 0.1725 0.0406
vt 0.1977 0.0684
vt 0.1889 0.0534
vt 0.2114 0.0638
vt 0.1993 0.0432
vt 0.1995 0.0846
vt 0.1868 0.0747
vt 0.3162 0.0012
vt 0.3402 0.0012
vt 0.3646 0.0012
vt 0.2434 0.0012
vt 0.2191 0.0012
vt 0.1638 0.0641
vt 0.1780 0.0598
vt 0.1760 0.0846
vt 0.1755 0.0433
vn -0.1054 0.0434 -0.9935
vn -0.1031 0.0484 -0.9935
vn -0.1030 0.0485 -0.9935
vn -0.1007 0.0534 -0.9935
vn 0.0000 0.9990 0.0436
vn 0.7071 -0.0308 0.7064
vn -0.0000 -0.9990 -0.0436
vn -0.7071 -0.0308 0.7064
vn 0.7071 0.0308 -0.7064
vn -0.9942 0.0047 -0.1074
vn -0.9944 0.0096 -0.1048
vn -0.9947 0.0145 -0.1023
vn 0.3774 0.8211 -0.4282
vn -0.3406 0.8907 0.3011
vn 0.3954 0.8771 -0.2728
vn -0.4203 0.7326 0.5354
vn -0.0964 0.8415 -0.5316
vn 0.2859 0.1621 -0.9445
vn 0.6781 0.0325 -0.7343
vn 0.0246 -0.7582 -0.6516
vn 0.3492 -0.8498 -0.3949
vn -0.7153 -0.6986 0.0195
vn -0.3819 -0.8783 0.2875
vn -0.3819 -0.8784 0.2875
vn -0.7352 -0.0288 0.6772
vn -0.9506 0.1082 0.2908
vn -0.6837 0.7271 -0.0627
vn -0.7071 0.0341 -0.7063
vn 0.8271 -0.1802 0.5324
vn 0.5825 -0.2170 0.7833
vn 0.7612 -0.2666 0.5911
vn 0.5633 -0.2586 0.7847
vn 0.8968 -0.0163 0.4420
vn 0.8298 0.1418 0.5398
vn 0.7354 -0.1602 -0.6584
vn 0.3958 -0.8505 -0.3465
vn -0.1891 -0.9540 0.2325
vn -0.6515 -0.2195 0.7262
vn 0.5517 0.2159 0.8056
vn 0.5769 0.1617 0.8006
vn 0.7600 0.2415 0.6034
vn 0.4520 -0.0355 0.8913
usemtl prop_instrument_1.006
s 1
f 1/1/1 2/2/2 3/3/3
f 3/3/3 2/2/2 4/4/4
f 5/5/5 6/6/5 7/7/5
f 6/6/5 8/8/5 7/7/5
f 7/7/5 8/8/5 9/9/5
f 10/10/5 9/9/5 8/8/5
f 11/11/6 12/12/6 13/13/6
f 13/13/6 12/12/6 14/14/6
f 15/15/7 16/16/7 17/17/7
f 17/17/7 16/16/7 18/18/7
f 18/18/7 16/16/7 19/19/7
f 19/19/7 20/20/7 18/18/7
f 21/21/8 22/22/8 23/23/8
f 23/23/8 22/22/8 24/24/8
f 25/25/9 26/26/9 27/27/9
f 27/27/9 26/26/9 28/28/9
f 29/29/10 30/30/11 31/31/11
f 31/31/11 30/30/11 32/32/12
f 33/33/13 34/34/14 35/35/15
f 35/35/15 34/34/14 36/36/16
f 37/37/17 33/33/13 38/38/18
f 38/38/18 33/33/13 39/39/19
f 38/38/18 39/39/19 40/40/20
f 40/40/20 39/39/19 41/41/21
f 42/42/22 40/40/20 43/43/23
f 43/43/23 40/40/20 41/41/21
f 44/44/24 45/45/25 46/46/22
f 46/46/22 45/45/25 47/47/26
f 45/45/25 34/34/14 47/47/26
f 47/47/26 34/34/14 48/48/27
f 49/49/27 50/50/17 51/51/28
f 50/50/17 52/52/18 51/51/28
f 52/52/18 53/53/20 51/51/28
f 53/53/20 54/54/22 51/51/28
f 54/54/22 55/55/26 51/51/28
f 55/55/26 49/49/27 51/51/28
f 56/56/29 57/57/30 58/58/31
f 58/58/31 57/57/30 59/59/32
f 58/58/31 60/60/33 56/56/29
f 56/56/29 60/60/33 61/61/34
f 48/48/27 34/34/14 37/37/17
f 37/37/17 34/34/14 33/33/13
f 33/33/13 35/35/15 39/39/19
f 39/39/19 35/35/15 62/62/35
f 39/39/19 62/62/35 41/41/21
f 41/41/21 62/62/35 63/63/36
f 43/43/23 41/41/21 64/64/37
f 64/64/37 41/41/21 63/63/36
f 45/45/25 44/44/24 65/65/38
f 65/65/38 44/44/24 66/66/37
f 34/34/14 45/45/25 36/36/16
f 36/36/16 45/45/25 65/65/38
f 67/67/39 68/68/40 69/69/41
f 69/69/41 68/68/40 61/61/34
f 67/67/39 70/70/42 68/68/40
f 68/68/40 70/70/42 57/57/30
f 57/57/30 70/70/42 59/59/32
f 61/61/34 60/60/33 69/69/41
