# ..:::Stalker models:::..
# WebSite: http://excalibur-craft.ru
mtllib saw.mtl
o 1
v -0.497111 0.307570 0.000007
v -0.141380 0.229556 0.007470
v -0.530591 0.152162 0.000010
v -0.175916 0.050749 0.007470
v -0.141380 0.229556 0.007470
v -0.530591 0.152162 0.000010
v -0.534592 0.129281 0.000007
v 0.212948 0.162072 0.010272
v -0.175916 0.050749 0.007470
v 0.181329 -0.017251 0.010272
v 0.181329 -0.017251 0.010272
v 0.212948 0.162072 0.010272
v 0.568979 0.104301 0.007099
v 0.540278 -0.075536 0.007099
v 0.212948 0.162072 0.010272
v 0.212948 0.162072 0.010272
v 0.540278 -0.075536 0.007099
v 0.568979 0.104301 0.007099
v 0.904076 -0.124404 -0.000030
v 0.908268 -0.101576 -0.000025
v 0.908268 -0.101576 -0.000025
v 0.929834 0.055951 -0.000030
v 0.929834 0.055951 -0.000030
v -0.497111 0.307570 0.000007
v -0.534592 0.129281 0.000007
v 0.181329 -0.017251 0.010272
v 0.181329 -0.017251 0.010272
v 0.904076 -0.124404 -0.000030
vt 0.0002 0.9998
vt 0.4998 0.9997
vt 0.0003 0.7870
vt 0.4998 0.7562
vt 0.4998 0.9997
vt 0.0004 0.7870
vt 0.0002 0.7565
vt 0.9998 0.9997
vt 0.4998 0.7562
vt 0.9998 0.7562
vt 0.9998 0.7562
vt 0.9998 0.9997
vt 0.5000 0.9997
vt 0.5000 0.7562
vt 1.0000 0.9997
vt 1.0000 0.9997
vt 0.5000 0.7562
vt 0.5000 0.9997
vt 0.0002 0.7564
vt 0.0002 0.7869
vt 0.0003 0.7870
vt 0.0002 0.9998
vt 0.0002 0.9997
vt 0.0002 0.9998
vt 0.0001 0.7565
vt 1.0000 0.7562
vt 1.0000 0.7562
vt 0.0004 0.7566
vn 0.0200 -0.0043 -0.9998
vn 0.0158 -0.0032 -0.9999
vn 0.0200 -0.0038 -0.9998
vn -0.0137 0.0026 0.9999
vn -0.0158 0.0032 0.9999
vn -0.0200 0.0038 0.9998
vn -0.0201 0.0034 0.9998
vn -0.0005 0.0000 -1.0000
vn 0.0137 -0.0026 -0.9999
vn -0.0005 0.0001 -1.0000
vn 0.0005 -0.0001 1.0000
vn 0.0005 0.0000 1.0000
vn -0.0157 0.0024 -0.9999
vn -0.0139 0.0022 -0.9999
vn 0.0139 -0.0022 0.9999
vn 0.0157 -0.0023 0.9999
vn -0.0191 0.0037 -0.9998
vn -0.0192 0.0032 -0.9998
vn 0.0192 -0.0032 0.9998
vn -0.0194 0.0026 -0.9998
vn 0.0194 -0.0026 0.9998
vn -0.0200 0.0043 0.9998
vn 0.0201 -0.0034 -0.9998
vn 0.0191 -0.0037 0.9998
usemtl prop_instrument_1.007
s 1
f 1/1/1 2/2/2 3/3/3
f 4/4/4 5/5/5 6/6/6
f 4/4/4 6/6/6 7/7/7
f 2/2/2 8/8/8 9/9/9
f 9/9/9 8/8/8 10/10/10
f 11/11/11 12/12/12 4/4/4
f 13/13/13 14/14/14 15/15/8
f 16/16/12 17/17/15 18/18/16
f 19/19/17 14/14/14 20/20/18
f 21/21/19 18/18/16 17/17/15
f 20/20/18 13/13/13 22/22/20
f 23/23/21 18/18/16 21/21/19
f 6/6/6 5/5/5 24/24/22
f 3/3/3 2/2/2 9/9/9
f 25/25/23 3/3/3 9/9/9
f 4/4/4 12/12/12 5/5/5
f 15/15/8 14/14/14 26/26/10
f 27/27/11 17/17/15 16/16/12
f 21/21/19 17/17/15 28/28/24
f 14/14/14 13/13/13 20/20/18
o 0.007
v -0.587459 0.110224 -0.013649
v -0.560910 0.158953 -0.013649
v -0.571926 0.107487 -0.013649
v -0.560910 0.158953 0.013687
v -0.553257 0.157313 -0.000005
v -0.530591 0.152162 0.000010
v -0.560910 0.158953 -0.013649
v -0.560910 0.158953 0.013687
v -0.587459 0.110224 0.013687
v -0.571926 0.107487 0.013687
v -0.571926 0.107487 -0.013649
v -0.564190 0.106124 0.000004
v -0.581220 0.100231 0.000018
v -0.474747 0.516165 0.000004
v -0.482433 0.517810 -0.013649
v -0.488150 0.528850 0.000018
v -0.497866 0.521113 -0.013649
v -0.527689 0.314187 -0.013649
v -0.530591 0.152162 0.000010
v -0.497111 0.307570 0.000007
v -0.527689 0.314187 0.013687
v -0.497111 0.307570 0.000007
v -0.530591 0.152162 0.000010
v -0.497866 0.521113 0.013687
v -0.505583 0.522764 0.000019
v -0.595224 0.111592 0.000019
v -0.482433 0.517810 -0.013649
v -0.482433 0.517810 -0.013649
v -0.474747 0.516165 0.000004
v -0.527689 0.314187 -0.013649
v -0.520066 0.312383 -0.000006
v -0.482433 0.517810 0.013687
v -0.527689 0.314187 -0.013649
v -0.520066 0.312383 -0.000006
v -0.497111 0.307570 0.000007
v -0.527689 0.314187 0.013687
v -0.564190 0.106124 0.000004
v -0.553257 0.157313 -0.000005
v -0.571926 0.107487 -0.013649
v -0.560910 0.158953 -0.013649
v -0.595224 0.111592 0.000019
v -0.587459 0.110224 0.013687
v -0.571926 0.107487 0.013687
v -0.587459 0.110224 -0.013649
v -0.497866 0.521113 0.013687
v -0.505583 0.522764 0.000019
v -0.497866 0.521113 -0.013649
v -0.482433 0.517810 0.013687
v 0.947237 -0.160393 -0.013687
v 0.931705 -0.157653 -0.013687
v 0.938956 -0.105523 -0.013687
v 0.938956 -0.105523 0.013649
v 0.908268 -0.101576 -0.000025
v 0.931203 -0.104446 -0.000043
v 0.938956 -0.105523 -0.013687
v 0.938956 -0.105523 0.013649
v 0.931705 -0.157653 0.013649
v 0.947237 -0.160393 0.013649
v 0.931705 -0.157653 -0.013687
v 0.937957 -0.167650 -0.000019
v 0.923969 -0.156288 -0.000033
v 0.980163 0.259616 -0.000033
v 0.997096 0.266952 -0.000019
v 0.987948 0.258534 -0.013687
v 1.003580 0.256358 -0.013687
v 0.960831 0.051711 -0.013687
v 0.929834 0.055951 -0.000030
v 0.908268 -0.101576 -0.000025
v 0.960831 0.051711 0.013649
v 0.929834 0.055951 -0.000030
v 0.908268 -0.101576 -0.000025
v 1.003580 0.256358 0.013649
v 1.011396 0.255271 -0.000019
v 0.955002 -0.161763 -0.000019
v 0.987948 0.258534 -0.013687
v 0.987948 0.258534 -0.013687
v 0.960831 0.051711 -0.013687
v 0.980163 0.259616 -0.000033
v 0.953051 0.052623 -0.000043
v 0.987948 0.258534 0.013649
v 0.960831 0.051711 -0.013687
v 0.929834 0.055951 -0.000030
v 0.953051 0.052623 -0.000043
v 0.960831 0.051711 0.013649
v 0.931203 -0.104446 -0.000043
v 0.923969 -0.156288 -0.000033
v 0.938956 -0.105523 -0.013687
v 0.931705 -0.157653 -0.013687
v 0.955002 -0.161763 -0.000019
v 0.947237 -0.160393 0.013649
v 0.931705 -0.157653 0.013649
v 0.947237 -0.160393 -0.013687
v 1.003580 0.256358 0.013649
v 1.011396 0.255271 -0.000019
v 1.003580 0.256358 -0.013687
v 0.987948 0.258534 0.013649
vt 0.1322 0.0414
vt 0.1588 0.1318
vt 0.1588 0.0414
vt 0.1768 0.0895
vt 0.1797 0.1159
vt 0.2155 0.1315
vt 0.1588 0.1318
vt 0.0527 0.1315
vt 0.0795 0.0414
vt 0.0524 0.0414
vt 0.1069 0.0003
vt 0.0824 0.0003
vt 0.0935 0.0208
vt 0.0689 0.0208
vt 0.0800 0.0003
vt 0.0934 0.0208
vt 0.1322 0.7516
vt 0.1588 0.3996
vt 0.2155 0.1315
vt 0.2150 0.3997
vt 0.0537 0.3997
vt 0.0006 0.3997
vt 0.0006 0.1315
vt 0.0789 0.7516
vt 0.1056 0.7516
vt 0.1051 0.0414
vt 0.1588 0.7516
vt 0.0006 0.7516
vt 0.0271 0.7516
vt 0.0006 0.3997
vt 0.0271 0.3997
vt 0.0523 0.7516
vt 0.1588 0.3996
vt 0.1787 0.4155
vt 0.2150 0.3997
vt 0.1758 0.4419
vt 0.0271 0.0414
vt 0.0271 0.1315
vt 0.0006 0.0414
vt 0.0006 0.1315
vt 0.1051 0.0414
vt 0.0795 0.0414
vt 0.0689 0.0208
vt 0.1180 0.0208
vt 0.1074 0.0414
vt 0.1180 0.0208
vt 0.1045 0.0003
vt 0.0819 0.0414
vt 0.1322 0.0414
vt 0.1588 0.0414
vt 0.1588 0.1318
vt 0.1768 0.0895
vt 0.2155 0.1315
vt 0.1797 0.1159
vt 0.1588 0.1318
vt 0.0527 0.1315
vt 0.0524 0.0414
vt 0.0795 0.0414
vt 0.1069 0.0003
vt 0.0935 0.0208
vt 0.0824 0.0003
vt 0.1180 0.0208
vt 0.0935 0.0208
vt 0.1069 0.0003
vt 0.1322 0.7516
vt 0.1588 0.3996
vt 0.2150 0.3997
vt 0.2155 0.1315
vt 0.0537 0.3997
vt 0.0006 0.3997
vt 0.0006 0.1315
vt 0.0789 0.7516
vt 0.1056 0.7516
vt 0.1051 0.0414
vt 0.1588 0.7516
vt 0.0006 0.7516
vt 0.0006 0.3997
vt 0.0271 0.7516
vt 0.0271 0.3997
vt 0.0523 0.7516
vt 0.1588 0.3996
vt 0.2150 0.3997
vt 0.1787 0.4155
vt 0.1758 0.4419
vt 0.0271 0.1315
vt 0.0271 0.0414
vt 0.0006 0.1315
vt 0.0006 0.0414
vt 0.1051 0.0414
vt 0.0795 0.0414
vt 0.0689 0.0208
vt 0.1180 0.0208
vt 0.0795 0.0414
vt 0.0689 0.0208
vt 0.0824 0.0003
vt 0.1051 0.0414
vn -0.3884 0.0847 -0.9176
vn 0.4548 -0.0974 -0.8852
vn 0.4897 -0.1048 -0.8656
vn -0.2216 -0.9751 -0.0071
vn -0.2216 -0.9751 0.0000
vn -0.2216 -0.9751 0.0071
vn 0.4553 -0.0975 0.8850
vn -0.3884 0.0847 0.9176
vn 0.4901 -0.1049 0.8653
vn 0.0875 -0.9033 -0.4201
vn 0.3270 -0.9450 -0.0003
vn -0.1735 -0.9848 -0.0000
vn 0.6874 0.7263 -0.0003
vn 0.4331 0.7811 -0.4498
vn 0.2092 0.9779 -0.0000
vn -0.3198 0.0697 -0.9449
vn 0.3890 -0.0859 -0.9172
vn 0.3934 -0.0848 -0.9154
vn 0.3924 -0.0843 -0.9159
vn 0.2699 -0.0593 0.9611
vn 0.3927 -0.0843 0.9158
vn 0.3939 -0.0848 0.9152
vn -0.3198 0.0697 0.9449
vn -0.9770 0.2130 0.0000
vn -0.9771 0.2130 -0.0000
vn 0.4886 -0.1086 -0.8657
vn 0.9587 -0.2132 -0.1883
vn 0.9588 -0.2132 0.1875
vn 0.6407 -0.1425 0.7545
vn 0.2052 0.9786 0.0148
vn 0.2052 0.9787 0.0000
vn 0.2052 0.9786 -0.0147
vn 0.9779 -0.2092 -0.0005
vn 0.9779 -0.2089 -0.0008
vn 0.4549 -0.0971 -0.8852
vn -0.6300 -0.7766 0.0000
vn -0.3907 -0.8189 0.4204
vn 0.0876 -0.9033 0.4199
vn -0.3907 -0.8189 -0.4204
vn -0.0753 0.8898 0.4501
vn -0.3296 0.9441 0.0000
vn -0.0753 0.8898 -0.4502
vn 0.4333 0.7811 0.4497
vn 0.3939 -0.0533 -0.9176
vn -0.4960 0.0690 -0.8656
vn -0.4610 0.0640 -0.8851
vn -0.1242 -0.9922 -0.0077
vn -0.1242 -0.9923 -0.0000
vn -0.1242 -0.9922 0.0078
vn -0.4615 0.0641 0.8848
vn -0.4964 0.0691 0.8653
vn 0.3939 -0.0533 0.9176
vn -0.3914 -0.8188 -0.4199
vn -0.1737 -0.9848 0.0000
vn -0.6305 -0.7762 -0.0003
vn -0.3975 0.9176 -0.0003
vn 0.1378 0.9905 0.0000
vn -0.1398 0.8822 -0.4497
vn 0.3244 -0.0439 -0.9449
vn -0.3949 0.0523 -0.9172
vn -0.3981 0.0549 -0.9157
vn -0.4002 0.0548 -0.9148
vn -0.2739 0.0366 0.9611
vn -0.3987 0.0550 0.9154
vn -0.4005 0.0549 0.9147
vn 0.3244 -0.0439 0.9449
vn 0.9910 -0.1340 0.0000
vn -0.4963 0.0651 -0.8657
vn -0.9738 0.1276 -0.1883
vn -0.9739 0.1276 0.1875
vn -0.6508 0.0853 0.7545
vn 0.1419 0.9898 0.0147
vn 0.1419 0.9899 0.0000
vn 0.1419 0.9898 -0.0147
vn -0.9904 0.1382 -0.0008
vn -0.9905 0.1378 -0.0004
vn 0.3265 -0.9452 0.0000
vn 0.0871 -0.9032 0.4204
vn -0.3912 -0.8189 0.4200
vn 0.0871 -0.9032 -0.4204
vn 0.3751 0.8103 0.4502
vn 0.6326 0.7745 0.0000
vn 0.3751 0.8103 -0.4502
vn -0.1400 0.8822 0.4497
usemtl prop_instrument_1.007_NONE
s 1
f 29/29/25 30/30/26 31/31/27
f 32/32/28 33/33/29 34/34/29
f 33/33/29 35/35/30 34/34/29
f 36/36/31 37/37/32 38/38/33
f 39/39/34 40/40/35 41/41/36
f 42/42/37 43/43/38 44/44/39
f 45/45/40 46/46/41 29/29/25
f 29/29/25 46/46/41 30/30/26
f 47/47/42 30/30/26 48/48/43
f 48/48/43 30/30/26 46/46/41
f 49/49/44 36/36/31 50/50/45
f 50/50/45 36/36/31 51/51/46
f 52/52/47 37/37/32 49/49/44
f 49/49/44 37/37/32 36/36/31
f 52/52/47 53/53/48 37/37/32
f 37/37/32 53/53/48 54/54/49
f 45/45/40 29/29/25 53/53/48
f 53/53/48 29/29/25 54/54/49
f 45/45/40 55/55/50 46/46/41
f 56/56/50 57/57/51 58/58/41
f 58/58/41 57/57/51 59/59/52
f 57/57/51 60/60/53 59/59/52
f 59/59/52 60/60/53 49/49/44
f 49/49/44 60/60/53 52/52/47
f 61/61/54 62/62/55 63/63/55
f 62/62/55 64/64/56 63/63/55
f 38/38/33 65/65/57 36/36/31
f 36/36/31 65/65/57 66/66/58
f 67/67/27 68/68/59 65/65/57
f 65/65/57 68/68/59 66/66/58
f 69/69/60 41/41/36 70/70/61
f 41/41/36 71/71/62 70/70/61
f 41/41/36 40/40/35 71/71/62
f 72/72/63 39/39/34 41/41/36
f 69/69/60 72/72/63 41/41/36
f 73/73/64 44/44/39 74/74/65
f 44/44/39 75/75/66 74/74/65
f 44/44/39 43/43/38 75/75/66
f 76/76/67 42/42/37 44/44/39
f 73/73/64 76/76/67 44/44/39
f 77/77/68 78/78/69 79/79/70
f 80/80/71 81/81/72 82/82/72
f 82/82/72 81/81/72 83/83/73
f 84/84/74 85/85/75 86/86/76
f 87/87/77 88/88/78 89/89/79
f 90/90/80 91/91/81 92/92/82
f 93/93/83 77/77/68 94/94/84
f 94/94/84 77/77/68 79/79/70
f 94/94/84 79/79/70 95/95/85
f 95/95/85 79/79/70 96/96/86
f 97/97/87 98/98/88 84/84/74
f 84/84/74 98/98/88 99/99/89
f 84/84/74 86/86/76 97/97/87
f 97/97/87 86/86/76 100/100/90
f 100/100/90 86/86/76 101/101/91
f 101/101/91 86/86/76 102/102/91
f 102/102/91 77/77/68 101/101/91
f 101/101/91 77/77/68 93/93/83
f 93/93/83 94/94/84 103/103/92
f 104/104/92 105/105/84 106/106/93
f 106/106/93 105/105/84 107/107/94
f 106/106/93 107/107/94 108/108/95
f 108/108/95 107/107/94 97/97/87
f 97/97/87 100/100/90 108/108/95
f 109/109/96 110/110/97 111/111/97
f 111/111/97 110/110/97 112/112/98
f 113/113/99 114/114/100 84/84/74
f 84/84/74 114/114/100 85/85/75
f 113/113/99 115/115/70 114/114/100
f 114/114/100 115/115/70 116/116/69
f 117/117/101 118/118/102 88/88/78
f 88/88/78 118/118/102 119/119/103
f 88/88/78 119/119/103 89/89/79
f 120/120/104 88/88/78 87/87/77
f 117/117/101 88/88/78 120/120/104
f 121/121/105 122/122/106 91/91/81
f 91/91/81 122/122/106 123/123/107
f 91/91/81 123/123/107 92/92/82
f 124/124/108 91/91/81 90/90/80
f 121/121/105 91/91/81 124/124/108
