# ..:::Stalker models:::..
# WebSite: http://excalibur-craft.ru
mtllib saw_2.mtl
o 0.010
v -0.770490 0.029894 0.102037
v -0.735884 0.029894 0.145416
v -0.755669 0.029894 0.096645
v -0.735884 0.002558 0.145416
v -0.728631 0.016250 0.142472
v -0.707205 0.016235 0.133463
v -0.735884 0.029894 0.145416
v -0.735884 0.002558 0.145416
v -0.770490 0.002558 0.102037
v -0.755669 0.002558 0.096645
v -0.755669 0.029894 0.096645
v -0.748287 0.016241 0.093959
v -0.766082 0.016227 0.091113
v -0.589001 0.016241 0.482239
v -0.596284 0.029894 0.485193
v -0.599997 0.016227 0.497059
v -0.610909 0.029894 0.491126
v -0.676211 0.029894 0.292522
v -0.707205 0.016235 0.133463
v -0.647247 0.016238 0.280696
v -0.676211 0.002558 0.292522
v -0.647247 0.016238 0.280696
v -0.707205 0.016235 0.133463
v -0.610909 0.002558 0.491126
v -0.618222 0.016226 0.494092
v -0.777900 0.016226 0.104733
v -0.596284 0.029894 0.485193
v -0.596284 0.029894 0.485193
v -0.589001 0.016241 0.482239
v -0.676211 0.029894 0.292522
v -0.669017 0.016251 0.289422
v -0.596284 0.002558 0.485193
v -0.676211 0.029894 0.292522
v -0.669017 0.016251 0.289422
v -0.647247 0.016238 0.280696
v -0.676211 0.002558 0.292522
v -0.748287 0.016241 0.093959
v -0.728631 0.016250 0.142472
v -0.755669 0.029894 0.096645
v -0.735884 0.029894 0.145416
v -0.777900 0.016226 0.104733
v -0.770490 0.002558 0.102037
v -0.755669 0.002558 0.096645
v -0.770490 0.029894 0.102037
v -0.610909 0.002558 0.491126
v -0.618222 0.016226 0.494092
v -0.610909 0.029894 0.491126
v -0.596284 0.002558 0.485193
v 0.693897 0.029932 -0.430966
v 0.679077 0.029932 -0.425570
v 0.695270 0.029932 -0.375491
v 0.695270 0.002596 -0.375491
v 0.665734 0.016270 -0.366275
v 0.687822 0.016288 -0.373084
v 0.695270 0.029932 -0.375491
v 0.695270 0.002596 -0.375491
v 0.679077 0.002596 -0.425570
v 0.693897 0.002596 -0.430966
v 0.679077 0.029932 -0.425570
v 0.683498 0.016264 -0.436501
v 0.671696 0.016278 -0.422882
v 0.799257 0.016278 -0.023055
v 0.817207 0.016264 -0.018771
v 0.806736 0.029932 -0.025473
v 0.821752 0.029932 -0.030330
v 0.744116 0.029932 -0.224444
v 0.714327 0.016275 -0.214886
v 0.665734 0.016270 -0.366275
v 0.744116 0.002596 -0.224444
v 0.714327 0.016275 -0.214886
v 0.665734 0.016270 -0.366275
v 0.821752 0.002596 -0.030330
v 0.829261 0.016264 -0.032757
v 0.701306 0.016264 -0.433664
v 0.806736 0.029932 -0.025473
v 0.806736 0.029932 -0.025473
v 0.744116 0.029932 -0.224444
v 0.799257 0.016278 -0.023055
v 0.736613 0.016288 -0.222195
v 0.806736 0.002596 -0.025473
v 0.744116 0.029932 -0.224444
v 0.714327 0.016275 -0.214886
v 0.736613 0.016288 -0.222195
v 0.744116 0.002596 -0.224444
v 0.687822 0.016288 -0.373084
v 0.671696 0.016278 -0.422882
v 0.695270 0.029932 -0.375491
v 0.679077 0.029932 -0.425570
v 0.701306 0.016264 -0.433664
v 0.693897 0.002596 -0.430966
v 0.679077 0.002596 -0.425570
v 0.693897 0.029932 -0.430966
v 0.821752 0.002596 -0.030330
v 0.829261 0.016264 -0.032757
v 0.821752 0.029932 -0.030330
v 0.806736 0.002596 -0.025473
vt 0.1322 0.0414
vt 0.1588 0.1318
vt 0.1588 0.0414
vt 0.1768 0.0895
vt 0.1797 0.1159
vt 0.2155 0.1315
vt 0.1588 0.1318
vt 0.0527 0.1315
vt 0.0795 0.0414
vt 0.0524 0.0414
vt 0.1069 0.0003
vt 0.0824 0.0003
vt 0.0935 0.0208
vt 0.0689 0.0208
vt 0.0800 0.0003
vt 0.0934 0.0208
vt 0.1322 0.7516
vt 0.1588 0.3996
vt 0.2155 0.1315
vt 0.2150 0.3997
vt 0.0537 0.3997
vt 0.0006 0.3997
vt 0.0006 0.1315
vt 0.0789 0.7516
vt 0.1056 0.7516
vt 0.1051 0.0414
vt 0.1588 0.7516
vt 0.0006 0.7516
vt 0.0271 0.7516
vt 0.0006 0.3997
vt 0.0271 0.3997
vt 0.0523 0.7516
vt 0.1588 0.3996
vt 0.1787 0.4155
vt 0.2150 0.3997
vt 0.1758 0.4419
vt 0.0271 0.0414
vt 0.0271 0.1315
vt 0.0006 0.0414
vt 0.0006 0.1315
vt 0.1051 0.0414
vt 0.0795 0.0414
vt 0.0689 0.0208
vt 0.1180 0.0208
vt 0.1074 0.0414
vt 0.1180 0.0208
vt 0.1045 0.0003
vt 0.0819 0.0414
vt 0.1322 0.0414
vt 0.1588 0.0414
vt 0.1588 0.1318
vt 0.1768 0.0895
vt 0.2155 0.1315
vt 0.1797 0.1159
vt 0.1588 0.1318
vt 0.0527 0.1315
vt 0.0524 0.0414
vt 0.0795 0.0414
vt 0.1069 0.0003
vt 0.0935 0.0208
vt 0.0824 0.0003
vt 0.1180 0.0208
vt 0.0935 0.0208
vt 0.1069 0.0003
vt 0.1322 0.7516
vt 0.1588 0.3996
vt 0.2150 0.3997
vt 0.2155 0.1315
vt 0.0537 0.3997
vt 0.0006 0.3997
vt 0.0006 0.1315
vt 0.0789 0.7516
vt 0.1056 0.7516
vt 0.1051 0.0414
vt 0.1588 0.7516
vt 0.0006 0.7516
vt 0.0006 0.3997
vt 0.0271 0.7516
vt 0.0271 0.3997
vt 0.0523 0.7516
vt 0.1588 0.3996
vt 0.2150 0.3997
vt 0.1787 0.4155
vt 0.1758 0.4419
vt 0.0271 0.1315
vt 0.0271 0.0414
vt 0.0006 0.1315
vt 0.0006 0.0414
vt 0.1051 0.0414
vt 0.0795 0.0414
vt 0.0689 0.0208
vt 0.1180 0.0208
vt 0.0795 0.0414
vt 0.0689 0.0208
vt 0.0824 0.0003
vt 0.1051 0.0414
vn -0.3678 0.9176 0.1508
vn 0.4310 0.8852 -0.1749
vn 0.4641 0.8656 -0.1882
vn -0.3876 0.0071 -0.9218
vn -0.3876 -0.0000 -0.9218
vn -0.3876 -0.0071 -0.9218
vn 0.4315 -0.8850 -0.1751
vn -0.3678 -0.9176 0.1508
vn 0.4644 -0.8653 -0.1884
vn -0.0707 0.4201 -0.9047
vn 0.1579 0.0003 -0.9875
vn -0.3419 0.0000 -0.9397
vn 0.8031 0.0003 0.5959
vn 0.5622 0.4498 0.6940
vn 0.3759 0.0000 0.9267
vn -0.3029 0.9449 0.1242
vn 0.3682 0.9172 -0.1521
vn 0.3727 0.9154 -0.1518
vn 0.3718 0.9159 -0.1511
vn 0.2555 -0.9611 -0.1052
vn 0.3721 -0.9158 -0.1512
vn 0.3732 -0.9152 -0.1519
vn -0.3029 -0.9449 0.1242
vn -0.9252 -0.0000 0.3795
vn -0.9252 -0.0000 0.3794
vn 0.4624 0.8657 -0.1918
vn 0.9071 0.1883 -0.3764
vn 0.9072 -0.1875 -0.3765
vn 0.6062 -0.7545 -0.2515
vn 0.3720 -0.0147 0.9281
vn 0.3721 -0.0000 0.9282
vn 0.3720 0.0147 0.9281
vn 0.9267 0.0005 -0.3758
vn 0.9268 0.0008 -0.3755
vn 0.4311 0.8852 -0.1746
vn -0.7553 -0.0000 -0.6554
vn -0.5270 -0.4204 -0.7386
vn -0.0706 -0.4199 -0.9048
vn -0.5270 0.4204 -0.7386
vn 0.0804 -0.4502 0.8893
vn -0.1607 -0.0000 0.9870
vn 0.0803 0.4502 0.8893
vn 0.5623 -0.4497 0.6940
vn 0.3787 0.9176 -0.1209
vn -0.4765 0.8656 0.1541
vn -0.4429 0.8851 0.1431
vn -0.2946 0.0077 -0.9556
vn -0.2946 -0.0000 -0.9556
vn -0.2946 -0.0078 -0.9556
vn -0.4433 -0.8848 0.1432
vn -0.4769 -0.8653 0.1542
vn 0.3787 -0.9176 -0.1209
vn -0.5274 0.4200 -0.7385
vn -0.3421 -0.0000 -0.9396
vn -0.7557 0.0003 -0.6549
vn -0.2321 0.0003 0.9727
vn 0.3077 -0.0000 0.9515
vn 0.0155 0.4498 0.8930
vn 0.3118 0.9449 -0.0995
vn -0.3798 0.9172 0.1201
vn -0.3826 0.9157 0.1233
vn -0.3846 0.9148 0.1234
vn -0.2633 -0.9611 0.0836
vn -0.3830 -0.9155 0.1234
vn -0.3849 -0.9147 0.1236
vn 0.3118 -0.9449 -0.0995
vn 0.9527 0.0000 -0.3040
vn 0.9527 -0.0000 -0.3041
vn -0.4775 0.8657 0.1503
vn -0.3799 0.9172 0.1201
vn -0.9368 0.1883 0.2948
vn -0.9370 -0.1875 0.2948
vn -0.6261 -0.7545 0.1970
vn 0.3116 -0.0147 0.9501
vn 0.3116 -0.0000 0.9502
vn 0.3116 0.0147 0.9501
vn -0.9514 0.0008 0.3081
vn -0.9515 0.0004 0.3077
vn 0.1573 0.0000 -0.9875
vn -0.0711 -0.4204 -0.9046
vn -0.5275 -0.4200 -0.7385
vn -0.0711 0.4204 -0.9046
vn 0.5101 -0.4502 0.7329
vn 0.7575 0.0000 0.6529
vn 0.5101 0.4502 0.7329
vn 0.0154 -0.4497 0.8931
usemtl prop_instrument_1.008
s 1
f 1/1/1 2/2/2 3/3/3
f 4/4/4 5/5/5 6/6/5
f 5/5/5 7/7/6 6/6/5
f 8/8/7 9/9/8 10/10/9
f 11/11/10 12/12/11 13/13/12
f 14/14/13 15/15/14 16/16/15
f 17/17/16 18/18/17 1/1/1
f 1/1/1 18/18/17 2/2/2
f 19/19/18 2/2/2 20/20/19
f 20/20/19 2/2/2 18/18/17
f 21/21/20 8/8/7 22/22/21
f 22/22/21 8/8/7 23/23/22
f 24/24/23 9/9/8 21/21/20
f 21/21/20 9/9/8 8/8/7
f 24/24/23 25/25/24 9/9/8
f 9/9/8 25/25/24 26/26/25
f 17/17/16 1/1/1 25/25/24
f 25/25/24 1/1/1 26/26/25
f 17/17/16 27/27/26 18/18/17
f 28/28/26 29/29/27 30/30/17
f 30/30/17 29/29/27 31/31/28
f 29/29/27 32/32/29 31/31/28
f 31/31/28 32/32/29 21/21/20
f 21/21/20 32/32/29 24/24/23
f 33/33/30 34/34/31 35/35/31
f 34/34/31 36/36/32 35/35/31
f 10/10/9 37/37/33 8/8/7
f 8/8/7 37/37/33 38/38/34
f 39/39/3 40/40/35 37/37/33
f 37/37/33 40/40/35 38/38/34
f 41/41/36 13/13/12 42/42/37
f 13/13/12 43/43/38 42/42/37
f 13/13/12 12/12/11 43/43/38
f 44/44/39 11/11/10 13/13/12
f 41/41/36 44/44/39 13/13/12
f 45/45/40 16/16/15 46/46/41
f 16/16/15 47/47/42 46/46/41
f 16/16/15 15/15/14 47/47/42
f 48/48/43 14/14/13 16/16/15
f 45/45/40 48/48/43 16/16/15
f 49/49/44 50/50/45 51/51/46
f 52/52/47 53/53/48 54/54/48
f 54/54/48 53/53/48 55/55/49
f 56/56/50 57/57/51 58/58/52
f 59/59/53 60/60/54 61/61/55
f 62/62/56 63/63/57 64/64/58
f 65/65/59 49/49/44 66/66/60
f 66/66/60 49/49/44 51/51/46
f 66/66/60 51/51/46 67/67/61
f 67/67/61 51/51/46 68/68/62
f 69/69/63 70/70/64 56/56/50
f 56/56/50 70/70/64 71/71/65
f 56/56/50 58/58/52 69/69/63
f 69/69/63 58/58/52 72/72/66
f 72/72/66 58/58/52 73/73/67
f 73/73/67 58/58/52 74/74/68
f 74/74/68 49/49/44 73/73/67
f 73/73/67 49/49/44 65/65/59
f 65/65/59 66/66/60 75/75/69
f 76/76/69 77/77/70 78/78/71
f 78/78/71 77/77/70 79/79/72
f 78/78/71 79/79/72 80/80/73
f 80/80/73 79/79/72 69/69/63
f 69/69/63 72/72/66 80/80/73
f 81/81/74 82/82/75 83/83/75
f 83/83/75 82/82/75 84/84/76
f 85/85/77 86/86/78 56/56/50
f 56/56/50 86/86/78 57/57/51
f 85/85/77 87/87/46 86/86/78
f 86/86/78 87/87/46 88/88/45
f 89/89/79 90/90/80 60/60/54
f 60/60/54 90/90/80 91/91/81
f 60/60/54 91/91/81 61/61/55
f 92/92/82 60/60/54 59/59/53
f 89/89/79 60/60/54 92/92/82
f 93/93/83 94/94/84 63/63/57
f 63/63/57 94/94/84 95/95/85
f 63/63/57 95/95/85 64/64/58
f 96/96/86 63/63/57 62/62/56
f 93/93/83 63/63/57 96/96/86
o 1.001
v -0.647247 0.016238 0.280696
v -0.310467 0.008775 0.142096
v -0.707205 0.016235 0.133463
v -0.375528 0.008775 -0.027998
v -0.310467 0.008775 0.142096
v -0.707205 0.016235 0.133463
v -0.715118 0.016238 0.111625
v 0.026759 0.005973 0.014108
v -0.375528 0.008775 -0.027998
v -0.035518 0.005973 -0.157000
v -0.035518 0.005973 -0.157000
v 0.026759 0.005973 0.014108
v 0.367349 0.009146 -0.104609
v 0.307857 0.009146 -0.276730
v 0.026759 0.005973 0.014108
v 0.026759 0.005973 0.014108
v 0.307857 0.009146 -0.276730
v 0.367349 0.009146 -0.104609
v 0.657642 0.016275 -0.388028
v 0.665734 0.016270 -0.366275
v 0.665734 0.016270 -0.366275
v 0.714327 0.016275 -0.214886
v 0.714327 0.016275 -0.214886
v -0.647247 0.016238 0.280696
v -0.715118 0.016238 0.111625
v -0.035518 0.005973 -0.157000
v -0.035518 0.005973 -0.157000
v 0.657642 0.016275 -0.388028
vt 0.0001 0.9997
vt 0.5000 0.9997
vt 0.0001 0.7868
vt 0.5000 0.7562
vt 0.5000 0.9997
vt 0.0001 0.7868
vt 0.0002 0.7563
vt 1.0000 0.9997
vt 0.5000 0.7562
vt 1.0000 0.7562
vt 1.0000 0.7562
vt 1.0000 0.9997
vt 0.5000 0.9997
vt 0.5000 0.7562
vt 1.0000 0.9997
vt 1.0000 0.9997
vt 0.5000 0.7562
vt 0.5000 0.9997
vt 0.0001 0.7563
vt 0.0001 0.7868
vt 0.0001 0.7868
vt 0.0001 0.9997
vt 0.0001 0.9997
vt 0.0001 0.9997
vt 0.0001 0.7563
vt 1.0000 0.7562
vt 1.0000 0.7562
vt 0.0001 0.7562
vn 0.0190 0.9998 -0.0077
vn 0.0151 0.9999 -0.0059
vn 0.0191 0.9998 -0.0072
vn -0.0131 -0.9999 0.0050
vn -0.0151 -0.9999 0.0059
vn -0.0191 -0.9998 0.0072
vn -0.0192 -0.9998 0.0068
vn -0.0005 1.0000 0.0001
vn 0.0131 0.9999 -0.0050
vn -0.0005 1.0000 0.0002
vn 0.0005 -1.0000 -0.0002
vn 0.0005 -1.0000 -0.0001
vn -0.0151 0.9999 0.0051
vn -0.0133 0.9999 0.0046
vn 0.0133 -0.9999 -0.0046
vn 0.0152 -0.9999 -0.0050
vn -0.0182 0.9998 0.0070
vn -0.0184 0.9998 0.0065
vn 0.0184 -0.9998 -0.0065
vn -0.0186 0.9998 0.0060
vn 0.0186 -0.9998 -0.0060
vn -0.0190 -0.9998 0.0077
vn 0.0192 0.9998 -0.0068
vn 0.0182 -0.9998 -0.0070
usemtl prop_instrument_1.008_prop_instrument_1.png
s 1
f 97/97/87 98/98/88 99/99/89
f 100/100/90 101/101/91 102/102/92
f 100/100/90 102/102/92 103/103/93
f 98/98/88 104/104/94 105/105/95
f 105/105/95 104/104/94 106/106/96
f 107/107/97 108/108/98 100/100/90
f 109/109/99 110/110/100 111/111/94
f 112/112/98 113/113/101 114/114/102
f 115/115/103 110/110/100 116/116/104
f 117/117/105 114/114/102 113/113/101
f 116/116/104 109/109/99 118/118/106
f 119/119/107 114/114/102 117/117/105
f 102/102/92 101/101/91 120/120/108
f 99/99/89 98/98/88 105/105/95
f 121/121/109 99/99/89 105/105/95
f 100/100/90 108/108/98 101/101/91
f 111/111/94 110/110/100 122/122/96
f 123/123/97 113/113/101 112/112/98
f 117/117/105 113/113/101 124/124/110
f 110/110/100 109/109/99 116/116/104
