# Blender v2.76 (sub 0) OBJ File: ''
# www.blender.org
mtllib LeftLeg.mtl
o LLeg008
v -0.129801 0.046490 -0.255270
v -0.129801 -0.002948 -0.169618
v -0.129801 0.046490 -0.169618
v 0.151854 -0.002948 -0.255270
v -0.129801 -0.002948 -0.255270
v 0.152513 0.046490 0.001686
v 0.189127 -0.002948 -0.083966
v 0.189786 0.046490 -0.083966
v -0.129801 0.046490 0.001686
v 0.151854 -0.002948 0.001686
v 0.189127 -0.002948 -0.169618
v 0.128832 0.087946 -0.251322
v -0.129801 0.071716 -0.166986
v 0.132618 0.092339 -0.166986
v 0.128832 0.087946 0.001686
v 0.132618 0.092339 -0.082650
v -0.129801 0.071716 -0.251322
v -0.129801 0.071716 -0.082650
v -0.129801 0.071716 0.001686
v -0.129801 0.046490 -0.083966
v 0.152513 0.046490 -0.255270
v 0.189786 0.046490 -0.169618
v -0.129801 -0.002948 -0.083966
v -0.129801 -0.002948 0.001686
v 0.125190 0.080148 -0.250190
v -0.125190 0.750574 -0.250190
v 0.125190 0.750574 -0.250190
v 0.125190 0.080148 0.000190
v -0.125190 0.750574 0.000191
v -0.125190 0.058874 0.000190
v 0.125190 0.750574 0.000191
v -0.125190 0.058874 -0.250190
vt 0.618200 0.277900
vt 0.597000 0.282700
vt 0.607500 0.269400
vt 0.604500 0.077200
vt 0.562200 0.218000
vt 0.580500 0.074200
vt 0.581500 0.245800
vt 0.582900 0.269100
vt 0.593700 0.255600
vt 0.586200 0.221300
vt 0.789800 0.067100
vt 0.703700 0.093300
vt 0.692300 0.067100
vt 0.690000 0.187300
vt 0.637200 0.170100
vt 0.690800 0.170100
vt 0.612500 0.205800
vt 0.604400 0.242000
vt 0.628500 0.080300
vt 0.628200 0.264200
vt 0.617700 0.255900
vt 0.607200 0.247600
vt 0.586200 0.252500
vt 0.596700 0.239200
vt 0.596900 0.260900
vt 0.616400 0.251700
vt 0.618300 0.275300
vt 0.628500 0.261300
vt 0.606000 0.265400
vt 0.690000 0.135700
vt 0.637200 0.152900
vt 0.637200 0.135700
vt 0.690800 0.152900
vt 0.789800 0.041000
vt 0.703700 0.014800
vt 0.789800 0.014800
vt 0.692300 0.041000
vt 0.595200 0.278900
vt 0.607500 0.288700
vt 0.575700 0.265700
vt 0.586300 0.274200
vt 0.305300 0.033600
vt 0.366500 0.397800
vt 0.305300 0.397800
vt 0.176300 0.032000
vt 0.071500 0.384800
vt 0.071500 0.032000
vt 0.382500 0.346000
vt 0.289200 0.439400
vt 0.289200 0.346000
vt 0.475900 0.346000
vt 0.382500 0.439400
vt 0.307100 0.012200
vt 0.177900 0.399700
vt 0.177900 0.012200
vt 0.313500 0.045100
vt 0.359300 0.383600
vt 0.359300 0.045100
vt 0.607700 0.291200
vt 0.570700 0.259300
vt 0.789800 0.093300
vt 0.637200 0.187300
vt 0.592300 0.232300
vt 0.366500 0.033600
vt 0.176300 0.384800
vt 0.475900 0.439400
vt 0.307100 0.399700
vt 0.313500 0.383600
vn -0.691600 0.053800 -0.720200
vn -0.707100 -0.707100 -0.000000
vn -1.000000 -0.000000 0.000000
vn 0.434000 -0.604800 -0.667800
vn -0.577400 -0.577400 -0.577400
vn 0.609000 0.233700 0.758000
vn 0.727800 -0.668800 0.151800
vn 0.897900 0.401800 0.179800
vn -0.707100 -0.000000 0.707100
vn 0.434000 -0.604800 0.667800
vn 0.727800 -0.668800 -0.151800
vn 0.359900 0.719300 -0.594200
vn -0.732100 0.681100 -0.003300
vn 0.320500 0.944800 -0.067700
vn 0.361000 0.688600 0.628800
vn 0.324200 0.943400 0.070500
vn -0.603400 0.596800 -0.528900
vn -0.732100 0.681100 0.003300
vn -0.593400 0.557300 0.580700
vn 0.597900 0.250600 -0.761400
vn 0.896400 0.404300 -0.181600
vn -0.577400 -0.577400 0.577400
vn -0.000000 0.000000 -1.000000
vn 0.000000 -0.000000 1.000000
vn 0.000000 1.000000 0.000000
vn 0.084700 -0.996400 -0.000000
vn 1.000000 0.000000 0.000000
usemtl None
s 1
f 1/1/1 2/2/2 3/3/3
f 1/4/1 4/5/4 5/6/5
f 6/7/6 7/8/7 8/9/8
f 9/4/9 10/5/10 6/10/6
f 2/11/2 4/12/4 11/13/11
f 12/14/12 13/15/13 14/16/14
f 15/17/15 9/4/9 6/10/6
f 16/18/16 6/7/6 8/9/8
f 12/17/12 1/4/1 17/19/17
f 17/20/17 3/3/3 13/21/13
f 18/22/18 9/23/9 19/24/19
f 13/21/13 20/25/3 18/22/18
f 14/26/14 21/27/20 12/28/12
f 14/26/14 8/9/8 22/29/21
f 15/30/15 18/31/18 19/32/19
f 14/16/14 18/31/18 16/33/16
f 23/34/2 10/35/10 24/36/22
f 2/11/2 7/37/7 23/34/2
f 21/27/20 11/38/11 4/39/4
f 8/9/8 11/38/11 22/29/21
f 20/25/3 24/40/22 9/23/9
f 3/3/3 23/41/2 20/25/3
f 25/42/23 26/43/23 27/44/23
f 28/45/24 29/46/24 30/47/24
f 26/48/25 31/49/25 27/50/25
f 30/51/26 25/52/26 28/48/26
f 25/53/27 31/54/27 28/55/27
f 30/56/3 26/57/3 32/58/3
f 1/1/1 5/59/5 2/2/2
f 1/4/1 21/10/20 4/5/4
f 6/7/6 10/60/10 7/8/7
f 9/4/9 24/6/22 10/5/10
f 2/11/2 5/61/5 4/12/4
f 12/14/12 17/62/17 13/15/13
f 15/17/15 19/19/19 9/4/9
f 16/18/16 15/63/15 6/7/6
f 12/17/12 21/10/20 1/4/1
f 17/20/17 1/1/1 3/3/3
f 18/22/18 20/25/3 9/23/9
f 13/21/13 3/3/3 20/25/3
f 14/26/14 22/29/21 21/27/20
f 14/26/14 16/18/16 8/9/8
f 15/30/15 16/33/16 18/31/18
f 14/16/14 13/15/13 18/31/18
f 23/34/2 7/37/7 10/35/10
f 2/11/2 11/13/11 7/37/7
f 21/27/20 22/29/21 11/38/11
f 8/9/8 7/8/7 11/38/11
f 20/25/3 23/41/2 24/40/22
f 3/3/3 2/2/2 23/41/2
f 25/42/23 32/64/23 26/43/23
f 28/45/24 31/65/24 29/46/24
f 26/48/25 29/52/25 31/49/25
f 30/51/26 32/66/26 25/52/26
f 25/53/27 27/67/27 31/54/27
f 30/56/3 29/68/3 26/57/3
