# Blender v2.78 (sub 0) OBJ File: ''
# www.blender.org
o Head
v -0.323837 1.701551 0.000000
v -0.252599 2.005348 -0.256334
v -0.271193 1.701551 -0.277539
v 0.263935 1.701551 -0.281104
v 0.334753 1.905038 -0.149290
v 0.321270 1.689790 -0.190654
v 0.046441 1.701551 -0.322377
v 0.251092 2.007518 -0.257157
v 0.062067 1.494282 -0.303365
v 0.258147 1.571754 -0.310478
v 0.253972 1.494282 -0.285006
v 0.304767 1.540266 -0.248263
v 0.273571 1.482794 -0.174611
v -0.304539 1.571754 0.000000
v -0.253683 1.494282 -0.269473
v -0.262116 1.494282 0.000000
v 0.045828 1.571754 -0.350549
v -0.274519 1.571754 -0.290467
v 0.267179 2.029392 0.000000
v 0.341211 1.906633 0.000000
v -0.117520 2.069988 0.000000
v -0.093463 2.024657 -0.265596
v 0.065673 2.074856 0.000000
v -0.103703 1.494282 -0.286419
v -0.068197 1.491751 -0.072057
v -0.119323 1.490951 0.000000
v -0.120486 1.571754 -0.320508
v -0.115358 1.701551 -0.299958
v 0.065673 2.028972 -0.274858
v -0.252599 2.005348 0.256334
v -0.271239 2.034350 0.000000
v 0.263935 1.701551 0.281104
v 0.354221 1.860425 0.166908
v 0.251092 2.007518 0.257157
v 0.046441 1.701551 0.322377
v 0.065673 2.028972 0.274858
v 0.062067 1.494282 0.303365
v 0.258147 1.571754 0.310478
v 0.045828 1.571754 0.350549
v 0.253972 1.494282 0.285006
v 0.304767 1.540266 0.248263
v -0.253683 1.494282 0.269473
v -0.271193 1.701551 0.277539
v -0.093463 2.024657 0.265596
v -0.103703 1.494282 0.286419
v -0.068197 1.491751 0.072057
v -0.120486 1.571754 0.320508
v -0.115358 1.701551 0.299958
v 0.273571 1.482794 0.174611
v -0.274519 1.571754 0.290467
v 0.321270 1.689790 0.190654
vt 0.1024 0.9847
vt 0.1836 0.9388
vt 0.1047 0.9381
vt 0.1054 0.8156
vt 0.1824 0.7730
vt 0.1045 0.7605
vt 0.1042 0.8766
vt 0.1842 0.8156
vt 0.1060 0.8156
vt 0.0301 0.8766
vt 0.0539 0.8156
vt 0.0246 0.8156
vt 0.0233 0.8156
vt 0.0542 0.7548
vt 0.0230 0.7546
vt 0.0558 0.9834
vt 0.0278 0.9389
vt 0.0302 0.9820
vt 0.0537 0.8766
vt 0.0535 0.8156
vt 0.0526 0.9387
vt 0.2259 0.8156
vt 0.2251 0.7694
vt 0.1817 0.9385
vt 0.2263 0.9049
vt 0.1833 0.9049
vt 0.2264 0.8766
vt 0.2255 0.8156
vt 0.0293 0.9049
vt 0.0706 0.8766
vt 0.0650 0.9049
vt 0.0531 0.9049
vt 0.1044 0.9049
vt 0.0748 0.8156
vt 0.1044 0.9385
vt 0.0289 0.9385
vt 0.0523 0.9385
vt 0.0629 0.9385
vt 0.1827 0.8766
vt 0.1836 0.9388
vt 0.1607 0.9899
vt 0.1054 0.8156
vt 0.1824 0.7730
vt 0.1844 0.8156
vt 0.1042 0.8766
vt 0.1842 0.8156
vt 0.1827 0.8766
vt 0.0301 0.8766
vt 0.0539 0.8156
vt 0.0537 0.8766
vt 0.0233 0.8156
vt 0.0542 0.7548
vt 0.0535 0.8156
vt 0.0278 0.9389
vt 0.1047 0.9381
vt 0.1817 0.9385
vt 0.1833 0.9049
vt 0.0293 0.9049
vt 0.0695 0.8766
vt 0.0531 0.9049
vt 0.1044 0.9049
vt 0.0737 0.8156
vt 0.1044 0.9385
vt 0.0289 0.9385
vt 0.0523 0.9385
vt 0.0638 0.9049
vt 0.1844 0.8156
vt 0.2211 0.9385
vt 0.1045 0.7605
vt 0.1060 0.8156
vt 0.0246 0.8156
vt 0.0230 0.7546
vt 0.0526 0.9387
vt 0.0618 0.9385
vn -0.9998 -0.0177 0.0000
vn -0.5804 0.5473 -0.6030
vn -0.7128 0.0810 -0.6967
vn 0.5720 0.1221 -0.8111
vn 0.8815 0.3441 -0.3232
vn 0.8466 0.0750 -0.5269
vn 0.0150 0.1590 -0.9872
vn 0.5020 0.6009 -0.6221
vn 0.0164 -0.8410 -0.5408
vn 0.4842 -0.0594 -0.8730
vn 0.3744 -0.7237 -0.5797
vn 0.8254 -0.2745 -0.4934
vn 0.2333 -0.9654 -0.1169
vn -0.9620 -0.2731 -0.0000
vn -0.5059 -0.7289 -0.4613
vn -0.5269 -0.8499 0.0000
vn 0.0073 -0.1486 -0.9889
vn -0.7230 -0.1279 -0.6790
vn 0.5777 0.8162 0.0050
vn 0.8561 0.5163 0.0217
vn -0.1140 0.9935 -0.0000
vn -0.0957 0.6959 -0.7117
vn 0.0770 0.9970 -0.0000
vn -0.0724 -0.8451 -0.5297
vn -0.0079 -0.9998 -0.0155
vn -0.0123 -0.9999 -0.0000
vn -0.1566 -0.1278 -0.9794
vn -0.1332 0.1303 -0.9825
vn 0.0440 0.6975 -0.7153
vn -0.5804 0.5473 0.6030
vn -0.7243 0.6895 -0.0000
vn 0.5562 0.1010 0.8249
vn 0.8566 0.2806 0.4330
vn 0.4910 0.6137 0.6183
vn 0.0150 0.1590 0.9872
vn 0.0440 0.6975 0.7153
vn 0.0164 -0.8410 0.5408
vn 0.4842 -0.0594 0.8730
vn 0.0073 -0.1486 0.9889
vn 0.3744 -0.7237 0.5797
vn 0.8254 -0.2745 0.4934
vn -0.5059 -0.7289 0.4613
vn -0.7128 0.0810 0.6967
vn -0.0957 0.6959 0.7117
vn -0.0724 -0.8451 0.5297
vn -0.0079 -0.9998 0.0155
vn -0.1566 -0.1278 0.9794
vn -0.1332 0.1303 0.9825
vn 0.2333 -0.9654 0.1169
vn -0.7230 -0.1279 0.6790
vn 0.8446 -0.0010 0.5355
s 1
f 1/1/1 2/2/2 3/3/3
f 4/4/4 5/5/5 6/6/6
f 7/7/7 8/8/8 4/9/4
f 9/10/9 10/11/10 11/12/11
f 11/13/11 12/14/12 13/15/13
f 14/16/14 15/17/15 16/18/16
f 7/7/7 10/11/10 17/19/17
f 4/4/4 12/14/12 10/20/10
f 14/16/14 3/3/3 18/21/18
f 5/5/5 19/22/19 20/23/20
f 2/24/2 21/25/21 22/26/22
f 8/8/8 23/27/23 19/28/19
f 24/29/24 25/30/25 26/31/26
f 27/32/27 7/7/7 17/19/17
f 24/29/24 17/19/17 9/10/9
f 22/26/22 7/7/7 28/33/28
f 13/34/13 9/10/9 11/12/11
f 2/24/2 28/33/28 3/35/3
f 15/36/15 27/32/27 24/29/24
f 3/35/3 27/32/27 18/37/18
f 15/36/15 26/31/26 16/38/16
f 22/26/22 23/27/23 29/39/29
f 1/1/1 30/40/30 31/41/31
f 32/42/32 33/43/33 34/44/34
f 35/45/35 34/46/34 36/47/36
f 37/48/37 38/49/38 39/50/39
f 40/51/40 41/52/41 38/53/38
f 42/54/42 14/16/14 16/18/16
f 38/49/38 35/45/35 39/50/39
f 41/52/41 32/42/32 38/53/38
f 14/16/14 43/55/43 1/1/1
f 33/43/33 19/22/19 34/44/34
f 21/25/21 30/56/30 44/57/44
f 34/46/34 23/27/23 36/47/36
f 45/58/45 46/59/46 37/48/37
f 47/60/47 35/45/35 48/61/48
f 45/58/45 39/50/39 47/60/47
f 35/45/35 44/57/44 48/61/48
f 49/62/49 37/48/37 46/59/46
f 48/61/48 30/56/30 43/63/43
f 42/64/42 47/60/47 50/65/50
f 47/60/47 43/63/43 50/65/50
f 42/64/42 26/66/26 45/58/45
f 23/27/23 44/57/44 36/47/36
f 1/1/1 31/41/31 2/2/2
f 4/4/4 8/67/8 5/5/5
f 7/7/7 29/39/29 8/8/8
f 9/10/9 17/19/17 10/11/10
f 11/13/11 10/20/10 12/14/12
f 14/16/14 18/21/18 15/17/15
f 7/7/7 4/9/4 10/11/10
f 4/4/4 6/6/6 12/14/12
f 14/16/14 1/1/1 3/3/3
f 5/5/5 8/67/8 19/22/19
f 2/24/2 31/68/31 21/25/21
f 8/8/8 29/39/29 23/27/23
f 24/29/24 9/10/9 25/30/25
f 27/32/27 28/33/28 7/7/7
f 24/29/24 27/32/27 17/19/17
f 22/26/22 29/39/29 7/7/7
f 13/34/13 25/30/25 9/10/9
f 2/24/2 22/26/22 28/33/28
f 15/36/15 18/37/18 27/32/27
f 3/35/3 28/33/28 27/32/27
f 15/36/15 24/29/24 26/31/26
f 22/26/22 21/25/21 23/27/23
f 1/1/1 43/55/43 30/40/30
f 32/42/32 51/69/51 33/43/33
f 35/45/35 32/70/32 34/46/34
f 37/48/37 40/71/40 38/49/38
f 40/51/40 49/72/49 41/52/41
f 42/54/42 50/73/50 14/16/14
f 38/49/38 32/70/32 35/45/35
f 41/52/41 51/69/51 32/42/32
f 14/16/14 50/73/50 43/55/43
f 33/43/33 20/23/20 19/22/19
f 21/25/21 31/68/31 30/56/30
f 34/46/34 19/28/19 23/27/23
f 45/58/45 26/66/26 46/59/46
f 47/60/47 39/50/39 35/45/35
f 45/58/45 37/48/37 39/50/39
f 35/45/35 36/47/36 44/57/44
f 49/62/49 40/71/40 37/48/37
f 48/61/48 44/57/44 30/56/30
f 42/64/42 45/58/45 47/60/47
f 47/60/47 48/61/48 43/63/43
f 42/64/42 16/74/16 26/66/26
f 23/27/23 21/25/21 44/57/44
