# Blender v2.78 (sub 0) OBJ File: ''
# www.blender.org
o RLeg
v -0.129644 0.754834 0.255380
v -0.129644 -0.004667 -0.003909
v -0.129644 -0.004667 0.255380
v -0.129644 0.754834 -0.003909
v 0.129644 -0.004667 -0.003909
v 0.129644 0.754834 -0.003909
v 0.129644 -0.004667 0.255380
v 0.129644 0.754834 0.255380
v -0.139878 0.408428 0.027734
v -0.136487 0.756361 0.258273
v -0.144588 0.756361 0.000000
v 0.136451 0.408428 0.258512
v 0.142956 0.756361 0.258273
v 0.178804 0.448445 0.162288
v 0.154980 0.756361 0.148429
v -0.138469 0.408428 0.258512
vt 0.9160 0.5143
vt 0.9986 0.2724
vt 0.9160 0.2724
vt 0.6683 0.5143
vt 0.7509 0.2724
vt 0.6683 0.2724
vt 0.7509 0.5143
vt 0.8334 0.2724
vt 0.8334 0.5143
vt 0.9986 0.5969
vt 0.9160 0.5144
vt 0.9160 0.5969
vt 0.9159 0.5969
vt 0.8333 0.5144
vt 0.8333 0.5969
vt 0.9986 0.5143
vt 0.9986 0.5144
vt 0.9159 0.5144
vt 0.6583 0.0039
vt 0.5860 0.2114
vt 0.6624 0.2114
vt 0.5854 0.2127
vt 0.4483 0.0057
vt 0.4623 0.2159
vt 0.4623 0.2164
vt 0.4165 0.0151
vt 0.4262 0.2080
vt 0.5858 0.2136
vt 0.4584 0.2657
vt 0.5887 0.3361
vt 0.5717 0.0039
vt 0.5715 0.0037
vt 0.4461 0.0069
vt 0.4627 0.2136
vn -1.0000 0.0000 0.0000
vn 0.0000 0.0000 -1.0000
vn 1.0000 0.0000 0.0000
vn 0.0000 -0.0000 1.0000
vn 0.0000 -1.0000 -0.0000
vn 0.0000 1.0000 0.0000
vn -0.9999 -0.0010 0.0163
vn -0.5695 0.5785 0.5840
vn -0.8138 0.5806 0.0255
vn 0.4702 -0.0082 0.8825
vn 0.5203 0.5969 0.6107
vn 0.9374 0.0005 0.3483
vn 0.5950 0.8011 0.0651
vn -0.7061 0.0045 0.7081
s off
f 1/1/1 2/2/1 3/3/1
f 4/4/2 5/5/2 2/6/2
f 6/7/3 7/8/3 5/5/3
f 8/9/4 3/3/4 7/8/4
f 5/10/5 3/11/5 2/12/5
f 4/13/6 8/14/6 6/15/6
f 1/1/1 4/16/1 2/2/1
f 4/4/2 6/7/2 5/5/2
f 6/7/3 8/9/3 7/8/3
f 8/9/4 1/1/4 3/3/4
f 5/10/5 7/17/5 3/11/5
f 4/13/6 1/18/6 8/14/6
s 1
f 9/19/7 10/20/8 11/21/9
f 10/22/8 12/23/10 13/24/11
f 13/25/11 14/26/12 15/27/13
f 10/28/8 15/29/13 11/30/9
f 9/19/7 16/31/14 10/20/8
f 10/22/8 16/32/14 12/23/10
f 13/25/11 12/33/10 14/26/12
f 10/28/8 13/34/11 15/29/13
