# ..:::Stalker models:::..
# WebSite: http://excalibur-craft.ru
mtllib komp_block.mtl
o 0.002
v -0.088053 0.250927 -0.355200
v -0.077705 0.258292 -0.355200
v -0.067357 0.235146 -0.374381
v 0.084421 0.248823 -0.355200
v 0.082696 -0.000318 -0.355200
v 0.064874 0.234094 -0.374415
v 0.064874 0.234094 -0.374415
v 0.082696 -0.000318 -0.355200
v 0.064873 0.006320 -0.374348
v -0.067357 0.006320 -0.374392
v -0.088053 -0.000318 -0.355200
v -0.067357 0.235146 -0.374381
v -0.088053 -0.000318 -0.355200
v -0.067357 0.006320 -0.374392
v -0.067357 0.006320 -0.374392
v -0.067357 0.235146 -0.374381
v 0.075222 0.258292 -0.355200
v 0.075222 0.258292 -0.355200
v -0.067357 0.235146 -0.374381
v -0.077705 0.258292 -0.355200
v 0.082696 -0.000318 -0.355200
v 0.132502 -0.000547 -0.353472
v 0.130368 -0.000546 0.354030
v -0.130276 -0.000546 -0.354264
v 0.124341 -0.000546 0.354017
v -0.132518 -0.000547 0.353460
v -0.124486 -0.000547 0.353478
v -0.132549 0.624453 0.353436
v -0.004044 0.624453 0.353742
v -0.130276 0.624454 -0.354264
v -0.132549 0.624453 0.353436
v -0.132518 -0.000547 0.353460
v -0.124100 0.604369 0.353455
v -0.124486 -0.000547 0.353478
v 0.124341 -0.000546 0.359415
v 0.114526 0.610196 0.359421
v -0.124486 -0.000547 0.358876
v 0.064587 0.615030 0.359303
v 0.032253 0.616725 0.359226
v -0.004840 0.616978 0.359137
v -0.042057 0.615937 0.359049
v -0.074284 0.612558 0.358972
v -0.100590 0.609191 0.358909
v -0.124100 0.604369 0.358853
v 0.130417 0.624453 0.354062
v 0.130368 -0.000546 0.354030
v 0.132502 -0.000547 -0.353472
v 0.132452 0.624453 -0.353501
v 0.130417 0.624453 0.354062
v 0.132452 0.624453 -0.353501
v 0.132502 -0.000547 -0.353472
v -0.130276 -0.000546 -0.354264
v -0.130276 0.624454 -0.354264
v -0.130276 0.624454 -0.354264
v -0.130276 -0.000546 -0.354264
v -0.132518 -0.000547 0.353460
v -0.132549 0.624453 0.353436
v -0.004840 0.616978 0.353739
v 0.032253 0.616725 0.353828
v -0.004044 0.624453 0.353742
v 0.124341 -0.000546 0.354017
v 0.130368 -0.000546 0.354030
v 0.114526 0.610196 0.354023
v 0.130417 0.624453 0.354062
v -0.100590 0.609191 0.353511
v 0.064587 0.615030 0.353904
v -0.042057 0.615937 0.353651
v -0.074284 0.612558 0.353574
v 0.132452 0.624453 -0.353501
v 0.132452 0.624453 -0.353501
v 0.130417 0.624453 0.354062
v 0.124341 -0.000546 0.354017
v 0.114526 0.610196 0.354023
v 0.124341 -0.000546 0.359415
v 0.114526 0.610196 0.359421
v 0.064587 0.615030 0.353904
v 0.064587 0.615030 0.359303
v 0.114526 0.610196 0.354023
v 0.064587 0.615030 0.359303
v 0.114526 0.610196 0.359421
v 0.032253 0.616725 0.353828
v 0.032253 0.616725 0.359226
v 0.064587 0.615030 0.353904
v 0.032253 0.616725 0.359226
v -0.004840 0.616978 0.353739
v -0.004840 0.616978 0.359137
v 0.032253 0.616725 0.353828
v -0.004840 0.616978 0.359137
v -0.042057 0.615937 0.353651
v -0.042057 0.615937 0.359049
v -0.004840 0.616978 0.353739
v -0.042057 0.615937 0.359049
v -0.074284 0.612558 0.353574
v -0.074284 0.612558 0.358972
v -0.042057 0.615937 0.353651
v -0.074284 0.612558 0.358972
v -0.100590 0.609191 0.353511
v -0.100590 0.609191 0.358909
v -0.074284 0.612558 0.353574
v -0.100590 0.609191 0.358909
v -0.124100 0.604369 0.353455
v -0.124100 0.604369 0.358853
v -0.100590 0.609191 0.353511
v -0.124100 0.604369 0.353455
v -0.124486 -0.000547 0.353478
v -0.124100 0.604369 0.358853
v -0.124486 -0.000547 0.358876
v -0.124486 -0.000547 0.353478
v 0.124341 -0.000546 0.354017
v -0.124486 -0.000547 0.358876
v 0.124341 -0.000546 0.359415
vt 0.6929 0.9625
vt 0.6986 0.9541
vt 0.6806 0.9457
vt 0.6912 0.8221
vt 0.4975 0.8226
vt 0.6798 0.8380
vt 0.6798 0.8380
vt 0.4975 0.8226
vt 0.5028 0.8368
vt 0.5027 0.9454
vt 0.4975 0.9624
vt 0.6806 0.9457
vt 0.4975 0.9624
vt 0.5027 0.9454
vt 0.5027 0.9454
vt 0.6806 0.9457
vt 0.6986 0.8296
vt 0.6986 0.8296
vt 0.6806 0.9457
vt 0.6986 0.9541
vt 0.4975 0.8226
vt 0.5212 0.1772
vt 0.9846 0.1633
vt 0.5212 0.3273
vt 0.9884 0.1633
vt 0.9830 0.3391
vt 0.9884 0.3391
vt 0.0986 0.3959
vt 0.1537 0.3959
vt 0.0986 0.0733
vt 0.9994 0.5751
vt 0.4890 0.5751
vt 0.9831 0.5818
vt 0.4891 0.5815
vt 0.4934 0.7786
vt 0.9878 0.7708
vt 0.4891 0.5815
vt 0.9917 0.7312
vt 0.9931 0.7056
vt 0.9933 0.6763
vt 0.9925 0.6468
vt 0.9897 0.6213
vt 0.9870 0.6004
vt 0.9831 0.5818
vt 0.5960 0.1675
vt 0.5960 0.3530
vt 0.9154 0.3530
vt 0.9154 0.1675
vt 0.5960 0.1675
vt 0.9986 0.7824
vt 0.4875 0.7824
vt 0.4875 0.9978
vt 0.9986 0.9978
vt 0.5966 0.1668
vt 0.5966 0.3529
vt 0.9141 0.3529
vt 0.9141 0.1668
vt 0.9933 0.6763
vt 0.9931 0.7056
vt 0.9994 0.6769
vt 0.4934 0.7786
vt 0.4935 0.7834
vt 0.9878 0.7708
vt 0.9994 0.7834
vt 0.9870 0.6004
vt 0.9917 0.7312
vt 0.9925 0.6468
vt 0.9897 0.6213
vt 0.2113 0.0733
vt 0.2113 0.0733
vt 0.2113 0.3959
vt 0.5251 0.5836
vt 0.7962 0.5836
vt 0.5251 0.5860
vt 0.7962 0.5860
vt 0.9818 0.7286
vt 0.9857 0.7286
vt 0.9822 0.7640
vt 0.9857 0.7286
vt 0.9861 0.7639
vt 0.9816 0.7058
vt 0.9854 0.7057
vt 0.9818 0.7286
vt 0.9854 0.7057
vt 0.9813 0.6795
vt 0.9851 0.6795
vt 0.9816 0.7058
vt 0.9851 0.6795
vt 0.9810 0.6532
vt 0.9848 0.6532
vt 0.9813 0.6795
vt 0.9848 0.6532
vt 0.9807 0.6304
vt 0.9845 0.6304
vt 0.9810 0.6532
vt 0.9845 0.6304
vt 0.9805 0.6118
vt 0.9843 0.6118
vt 0.9807 0.6304
vt 0.9843 0.6118
vt 0.9803 0.5952
vt 0.9841 0.5951
vt 0.9805 0.6118
vt 0.7958 0.5852
vt 0.5273 0.5852
vt 0.7958 0.5828
vt 0.5273 0.5828
vt 0.4891 0.5815
vt 0.4934 0.7786
vt 0.4891 0.5815
vt 0.4934 0.7786
vn -0.5417 0.2608 -0.7991
vn -0.3542 0.4977 -0.7917
vn 0.5938 0.2211 -0.7736
vn 0.7029 -0.0049 -0.7113
vn 0.3174 0.2887 -0.9033
vn 0.3993 -0.0002 -0.9168
vn 0.7319 -0.0002 -0.6814
vn 0.3133 -0.4043 -0.8593
vn -0.4318 -0.6002 -0.6733
vn -0.6800 0.0000 -0.7332
vn -0.6798 0.0000 -0.7334
vn 0.0003 -0.5799 -0.8147
vn -0.0003 0.0000 -1.0000
vn 0.0024 0.3286 -0.9445
vn 0.2316 0.5423 -0.8076
vn 0.0000 0.6381 -0.7700
vn 0.0001 -0.9448 -0.3276
vn 0.0001 -0.9449 -0.3275
vn -0.0000 -1.0000 0.0000
vn -0.0020 -0.4472 0.8944
vn -0.0010 -0.8944 0.4472
vn -0.0000 1.0000 0.0000
vn -0.0023 -0.0000 1.0000
vn -0.0019 -0.4472 0.8944
vn -0.0022 0.0000 1.0000
vn -0.0024 0.0000 1.0000
vn 1.0000 -0.0001 0.0030
vn 1.0000 0.0001 0.0029
vn 0.7071 0.7071 0.0021
vn 0.0029 -0.0000 -1.0000
vn 0.0030 -0.0000 -1.0000
vn -1.0000 -0.0000 -0.0032
vn -0.0024 -0.0001 1.0000
vn -0.0023 0.0001 1.0000
vn 0.7071 0.7071 0.0020
vn 0.9999 0.0161 0.0000
vn 0.0743 0.9972 -0.0000
vn 0.0963 0.9953 0.0000
vn 0.0295 0.9996 -0.0000
vn 0.0294 0.9996 0.0000
vn 0.0524 0.9986 0.0000
vn -0.0105 0.9999 0.0000
vn -0.0106 0.9999 0.0000
vn 0.0068 1.0000 0.0000
vn -0.0662 0.9978 0.0000
vn -0.0280 0.9996 0.0000
vn -0.1154 0.9933 0.0000
vn -0.1156 0.9933 0.0000
vn -0.1043 0.9945 0.0000
vn -0.1640 0.9865 -0.0000
vn -0.1641 0.9864 0.0000
vn -0.1270 0.9919 0.0000
vn -0.2009 0.9796 0.0000
vn -1.0000 0.0006 0.0000
usemtl prop_komp
s 1
f 1/1/1 2/2/2 3/3/1
f 4/4/3 5/5/4 6/6/5
f 7/7/6 8/8/7 9/9/8
f 10/10/9 11/11/9 12/12/10
f 3/3/1 13/13/11 1/1/1
f 9/9/8 14/14/12 7/7/6
f 6/6/5 15/15/13 16/16/14
f 6/6/5 16/16/14 17/17/15
f 18/18/16 19/19/16 20/20/16
f 6/6/5 17/17/15 4/4/3
f 9/9/8 21/21/17 14/14/12
f 10/10/9 21/21/18 11/11/9
f 22/22/19 23/23/19 24/24/19
f 23/23/19 25/25/19 24/24/19
f 26/26/20 24/24/19 27/27/21
f 24/24/19 25/25/19 27/27/21
f 28/28/22 29/29/22 30/30/22
f 31/31/23 32/32/24 33/33/25
f 33/33/25 32/32/24 34/34/21
f 35/35/25 36/36/23 37/37/25
f 36/36/23 38/38/26 37/37/25
f 38/38/26 39/39/26 37/37/25
f 39/39/26 40/40/26 37/37/25
f 40/40/26 41/41/26 37/37/25
f 41/41/26 42/42/26 37/37/25
f 42/42/26 43/43/26 37/37/25
f 43/43/26 44/44/26 37/37/25
f 45/45/27 46/46/27 47/47/27
f 47/47/28 48/48/29 49/49/29
f 50/50/30 51/51/31 52/52/31
f 52/52/31 53/53/30 50/50/30
f 54/54/32 55/55/32 56/56/32
f 56/56/32 57/57/32 54/54/32
f 58/58/33 59/59/34 60/60/33
f 61/61/25 62/62/25 63/63/33
f 63/63/33 62/62/25 64/64/33
f 33/33/25 65/65/33 31/31/23
f 64/64/33 66/66/33 63/63/33
f 59/59/34 66/66/33 60/60/33
f 60/60/33 66/66/33 64/64/33
f 60/60/33 67/67/33 58/58/33
f 60/60/33 31/31/23 67/67/33
f 31/31/23 68/68/33 67/67/33
f 31/31/23 65/65/33 68/68/33
f 30/30/22 29/29/22 69/69/22
f 70/70/35 29/29/22 71/71/35
f 72/72/36 73/73/36 74/74/36
f 74/74/36 73/73/36 75/75/36
f 76/76/37 77/77/37 78/78/38
f 78/78/38 79/79/38 80/80/38
f 81/81/39 82/82/40 83/83/41
f 76/76/37 84/84/41 77/77/37
f 85/85/42 86/86/43 87/87/44
f 81/81/39 88/88/44 82/82/40
f 89/89/45 90/90/45 91/91/46
f 85/85/42 92/92/46 86/86/43
f 93/93/47 94/94/48 95/95/49
f 89/89/45 96/96/49 90/90/45
f 97/97/50 98/98/51 99/99/52
f 93/93/47 100/100/52 94/94/48
f 101/101/53 102/102/53 103/103/53
f 97/97/50 102/102/53 98/98/51
f 104/104/54 105/105/54 106/106/54
f 106/106/54 105/105/54 107/107/54
f 108/108/19 109/109/19 110/110/19
f 110/110/19 109/109/19 111/111/19
