# ..:::Stalker models:::..
# WebSite: http://excalibur-craft.ru
mtllib komp_klava.mtl
o 0.003
v 0.248675 0.005368 -0.089143
v 0.248675 0.016348 -0.089143
v 0.248668 0.027270 -0.089313
v -0.248675 0.016346 -0.089108
v -0.248675 0.005368 -0.089108
v -0.248660 0.005368 0.089313
v -0.248660 0.019293 0.089024
v -0.248674 0.027268 -0.089269
v -0.248660 0.019293 0.089024
v -0.248660 0.005368 0.089313
v 0.248655 0.005367 0.089248
v 0.248655 0.019296 0.088959
v 0.248675 0.005368 -0.089143
v 0.248668 0.027270 -0.089313
v 0.248655 0.019296 0.088959
v 0.248655 0.005367 0.089248
v 0.248675 0.016348 -0.089143
v 0.248675 0.005368 -0.089143
v -0.248675 0.005368 -0.089108
v -0.248675 0.016346 -0.089108
v -0.248674 0.027268 -0.089269
v 0.248668 0.027270 -0.089313
v -0.002181 0.030854 -0.073973
v -0.002194 0.029807 -0.053662
v 0.082919 0.029807 -0.053662
v 0.082919 0.030853 -0.073960
v 0.093835 0.029807 -0.053665
v 0.154595 0.029807 -0.053666
v 0.154596 0.030852 -0.073938
v 0.093833 0.030853 -0.073955
v 0.240254 0.024092 0.073156
v 0.240250 0.029194 -0.037013
v 0.166138 0.029193 -0.036991
v 0.166143 0.024092 0.073153
v -0.240253 0.024094 0.073122
v 0.082912 0.024093 0.073142
v 0.082918 0.029191 -0.036946
v -0.240200 0.029190 -0.036920
v 0.093847 0.024093 0.073145
v 0.154602 0.024092 0.073147
v 0.154601 0.025157 0.051546
v 0.135214 0.025157 0.051545
v 0.115715 0.025157 0.051543
v 0.135219 0.026092 0.030609
v 0.115377 0.026092 0.030606
v 0.154596 0.029193 -0.036987
v 0.154600 0.026092 0.030609
v 0.093845 0.025157 0.051542
v 0.093842 0.026093 0.030598
v 0.093834 0.029191 -0.036950
v 0.154600 0.021929 0.030211
v 0.135218 0.021929 0.030211
v 0.135368 0.020993 0.051135
v 0.154600 0.020993 0.051135
v 0.166137 0.025020 -0.038787
v 0.154602 0.019921 0.074959
v 0.166142 0.019921 0.074957
v 0.248655 0.019296 0.088959
v 0.093847 0.019921 0.074957
v 0.082912 0.019921 0.074954
v 0.093846 0.020993 0.051145
v 0.154596 0.025019 -0.038782
v 0.154595 0.025634 -0.052530
v 0.154596 0.026670 -0.075542
v 0.240250 0.025021 -0.038809
v 0.248668 0.027270 -0.089313
v 0.240255 0.019921 0.074968
v 0.093836 0.025018 -0.038754
v 0.093835 0.025634 -0.052529
v 0.082918 0.025018 -0.038750
v 0.082919 0.025634 -0.052527
v 0.082919 0.026671 -0.075564
v 0.093833 0.026671 -0.075559
v -0.248674 0.027268 -0.089269
v 0.093842 0.021929 0.030201
v 0.115715 0.020993 0.051145
v 0.115375 0.021929 0.030209
v -0.002181 0.026672 -0.075591
v -0.013518 0.026672 -0.075586
v -0.099788 0.026673 -0.075615
v -0.111039 0.026673 -0.075610
v -0.197556 0.026674 -0.075629
v -0.217816 0.026675 -0.075646
v -0.240189 0.026674 -0.075644
v -0.240189 0.025633 -0.052511
v -0.240200 0.025017 -0.038725
v -0.248660 0.019293 0.089024
v -0.002195 0.025633 -0.052521
v -0.013511 0.025634 -0.052523
v -0.099781 0.025633 -0.052516
v -0.111035 0.025633 -0.052518
v -0.197558 0.025633 -0.052511
v -0.217811 0.025633 -0.052514
v -0.240249 0.019923 0.074926
v -0.099787 0.030855 -0.073999
v -0.099780 0.029807 -0.053656
v -0.013513 0.029807 -0.053659
v -0.013518 0.030854 -0.073982
v -0.197556 0.030856 -0.074025
v -0.197558 0.029806 -0.053647
v -0.111035 0.029806 -0.053654
v -0.111039 0.030855 -0.074006
v -0.217816 0.030856 -0.074030
v -0.240189 0.030857 -0.074040
v -0.240189 0.029806 -0.053646
v -0.217811 0.029806 -0.053649
v -0.002195 0.025633 -0.052521
v 0.082919 0.025634 -0.052527
v 0.082919 0.029807 -0.053662
v -0.002194 0.029807 -0.053662
v 0.082919 0.025634 -0.052527
v 0.082919 0.026671 -0.075564
v 0.082919 0.030853 -0.073960
v 0.082919 0.029807 -0.053662
v 0.082919 0.026671 -0.075564
v -0.002181 0.026672 -0.075591
v -0.002181 0.030854 -0.073973
v 0.082919 0.030853 -0.073960
v -0.002181 0.026672 -0.075591
v -0.002195 0.025633 -0.052521
v -0.002194 0.029807 -0.053662
v -0.002181 0.030854 -0.073973
v 0.154596 0.026670 -0.075542
v 0.093833 0.026671 -0.075559
v 0.093833 0.030853 -0.073955
v 0.154596 0.030852 -0.073938
v 0.093833 0.026671 -0.075559
v 0.093835 0.025634 -0.052529
v 0.093835 0.029807 -0.053665
v 0.093833 0.030853 -0.073955
v 0.093835 0.025634 -0.052529
v 0.154595 0.025634 -0.052530
v 0.154595 0.029807 -0.053666
v 0.093835 0.029807 -0.053665
v 0.166142 0.019921 0.074957
v 0.240255 0.019921 0.074968
v 0.240254 0.024092 0.073156
v 0.166143 0.024092 0.073153
v 0.240255 0.019921 0.074968
v 0.240250 0.025021 -0.038809
v 0.240250 0.029194 -0.037013
v 0.240254 0.024092 0.073156
v 0.240250 0.025021 -0.038809
v 0.166137 0.025020 -0.038787
v 0.166138 0.029193 -0.036991
v 0.240250 0.029194 -0.037013
v 0.166137 0.025020 -0.038787
v 0.166142 0.019921 0.074957
v 0.166143 0.024092 0.073153
v 0.166138 0.029193 -0.036991
v 0.082912 0.019921 0.074954
v 0.082918 0.025018 -0.038750
v 0.082918 0.029191 -0.036946
v 0.082912 0.024093 0.073142
v 0.082918 0.025018 -0.038750
v -0.240200 0.025017 -0.038725
v -0.240200 0.029190 -0.036920
v 0.082918 0.029191 -0.036946
v -0.240200 0.025017 -0.038725
v -0.240249 0.019923 0.074926
v -0.240253 0.024094 0.073122
v -0.240200 0.029190 -0.036920
v -0.240249 0.019923 0.074926
v 0.082912 0.019921 0.074954
v 0.082912 0.024093 0.073142
v -0.240253 0.024094 0.073122
v 0.093847 0.019921 0.074957
v 0.154602 0.019921 0.074959
v 0.154602 0.024092 0.073147
v 0.093847 0.024093 0.073145
v 0.154602 0.019921 0.074959
v 0.154600 0.020993 0.051135
v 0.154601 0.025157 0.051546
v 0.154602 0.024092 0.073147
v 0.154600 0.020993 0.051135
v 0.135368 0.020993 0.051135
v 0.135214 0.025157 0.051545
v 0.154601 0.025157 0.051546
v 0.135368 0.020993 0.051135
v 0.135218 0.021929 0.030211
v 0.135219 0.026092 0.030609
v 0.135214 0.025157 0.051545
v 0.135218 0.021929 0.030211
v 0.154600 0.021929 0.030211
v 0.154600 0.026092 0.030609
v 0.135219 0.026092 0.030609
v 0.154600 0.021929 0.030211
v 0.154596 0.025019 -0.038782
v 0.154596 0.029193 -0.036987
v 0.154600 0.026092 0.030609
v 0.154596 0.025019 -0.038782
v 0.093836 0.025018 -0.038754
v 0.093834 0.029191 -0.036950
v 0.154596 0.029193 -0.036987
v 0.093836 0.025018 -0.038754
v 0.093842 0.021929 0.030201
v 0.093842 0.026093 0.030598
v 0.093834 0.029191 -0.036950
v 0.093842 0.021929 0.030201
v 0.115375 0.021929 0.030209
v 0.115377 0.026092 0.030606
v 0.093842 0.026093 0.030598
v 0.115375 0.021929 0.030209
v 0.115715 0.020993 0.051145
v 0.115715 0.025157 0.051543
v 0.115377 0.026092 0.030606
v 0.115715 0.020993 0.051145
v 0.093846 0.020993 0.051145
v 0.093845 0.025157 0.051542
v 0.115715 0.025157 0.051543
v 0.093846 0.020993 0.051145
v 0.093847 0.019921 0.074957
v 0.093847 0.024093 0.073145
v 0.093845 0.025157 0.051542
v -0.099781 0.025633 -0.052516
v -0.013511 0.025634 -0.052523
v -0.013513 0.029807 -0.053659
v -0.099780 0.029807 -0.053656
v -0.013511 0.025634 -0.052523
v -0.013518 0.026672 -0.075586
v -0.013518 0.030854 -0.073982
v -0.013513 0.029807 -0.053659
v -0.013518 0.026672 -0.075586
v -0.099788 0.026673 -0.075615
v -0.099787 0.030855 -0.073999
v -0.013518 0.030854 -0.073982
v -0.099788 0.026673 -0.075615
v -0.099781 0.025633 -0.052516
v -0.099780 0.029807 -0.053656
v -0.099787 0.030855 -0.073999
v -0.197558 0.025633 -0.052511
v -0.111035 0.025633 -0.052518
v -0.111035 0.029806 -0.053654
v -0.197558 0.029806 -0.053647
v -0.111035 0.025633 -0.052518
v -0.111039 0.026673 -0.075610
v -0.111039 0.030855 -0.074006
v -0.111035 0.029806 -0.053654
v -0.111039 0.026673 -0.075610
v -0.197556 0.026674 -0.075629
v -0.197556 0.030856 -0.074025
v -0.111039 0.030855 -0.074006
v -0.197556 0.026674 -0.075629
v -0.197558 0.025633 -0.052511
v -0.197558 0.029806 -0.053647
v -0.197556 0.030856 -0.074025
v -0.217816 0.026675 -0.075646
v -0.240189 0.026674 -0.075644
v -0.240189 0.030857 -0.074040
v -0.217816 0.030856 -0.074030
v -0.240189 0.026674 -0.075644
v -0.240189 0.025633 -0.052511
v -0.240189 0.029806 -0.053646
v -0.240189 0.030857 -0.074040
v -0.240189 0.025633 -0.052511
v -0.217811 0.025633 -0.052514
v -0.217811 0.029806 -0.053649
v -0.240189 0.029806 -0.053646
v -0.217811 0.025633 -0.052514
v -0.217816 0.026675 -0.075646
v -0.217816 0.030856 -0.074030
v -0.217811 0.029806 -0.053649
v 0.154595 0.025634 -0.052530
v 0.154596 0.026670 -0.075542
v 0.154596 0.030852 -0.073938
v 0.154595 0.029807 -0.053666
vt 0.4274 0.5412
vt 0.4274 0.5510
vt 0.4362 0.5608
vt 0.4273 0.5510
vt 0.4273 0.5412
vt 0.6346 0.5412
vt 0.6346 0.5597
vt 0.4362 0.5608
vt 0.4163 0.3450
vt 0.4163 0.3618
vt 0.9950 0.3618
vt 0.9950 0.3450
vt 0.4274 0.5412
vt 0.4362 0.5608
vt 0.6347 0.5597
vt 0.6347 0.5412
vt 1.0000 0.5581
vt 1.0000 0.5664
vt 0.3949 0.5664
vt 0.3949 0.5581
vt 0.3949 0.5463
vt 1.0000 0.5463
vt 0.6933 0.5380
vt 0.6930 0.5113
vt 0.7972 0.5113
vt 0.7970 0.5373
vt 0.8105 0.5113
vt 0.8843 0.5116
vt 0.8840 0.5366
vt 0.8105 0.5372
vt 0.9901 0.3638
vt 0.9901 0.4918
vt 0.8982 0.4932
vt 0.8985 0.3637
vt 0.4038 0.3661
vt 0.7970 0.3661
vt 0.7973 0.4967
vt 0.4052 0.4963
vt 0.8103 0.3636
vt 0.8841 0.3637
vt 0.8842 0.3927
vt 0.8610 0.3925
vt 0.8373 0.3923
vt 0.8609 0.4166
vt 0.8368 0.4166
vt 0.8843 0.4937
vt 0.8842 0.4166
vt 0.8103 0.3921
vt 0.8103 0.4166
vt 0.8104 0.4963
vt 0.8842 0.4166
vt 0.8609 0.4166
vt 0.8610 0.3925
vt 0.8842 0.3927
vt 0.8982 0.4932
vt 0.8841 0.3637
vt 0.8985 0.3637
vt 0.9983 0.3474
vt 0.8103 0.3636
vt 0.7970 0.3636
vt 0.8103 0.3921
vt 0.8843 0.4937
vt 0.8843 0.5116
vt 0.8840 0.5364
vt 0.9885 0.4918
vt 0.9983 0.5493
vt 0.9884 0.3638
vt 0.8104 0.4963
vt 0.8105 0.5113
vt 0.7973 0.4967
vt 0.7972 0.5113
vt 0.7970 0.5373
vt 0.8105 0.5372
vt 0.3942 0.5493
vt 0.8103 0.4166
vt 0.8373 0.3923
vt 0.8368 0.4166
vt 0.6933 0.5380
vt 0.6797 0.5380
vt 0.5749 0.5387
vt 0.5611 0.5388
vt 0.4558 0.5394
vt 0.4315 0.5395
vt 0.4055 0.5397
vt 0.4054 0.5112
vt 0.4052 0.4963
vt 0.3942 0.3474
vt 0.6930 0.5113
vt 0.6793 0.5113
vt 0.5742 0.5113
vt 0.5606 0.5113
vt 0.4559 0.5113
vt 0.4308 0.5113
vt 0.4038 0.3635
vt 0.5749 0.5387
vt 0.5742 0.5113
vt 0.6793 0.5113
vt 0.6797 0.5380
vt 0.4558 0.5394
vt 0.4559 0.5113
vt 0.5606 0.5113
vt 0.5611 0.5388
vt 0.4315 0.5395
vt 0.4055 0.5397
vt 0.4054 0.5112
vt 0.4308 0.5113
vt 0.6935 0.5098
vt 0.7967 0.5098
vt 0.7966 0.5245
vt 0.6935 0.5245
vt 0.7550 0.3499
vt 0.7820 0.3506
vt 0.7818 0.3653
vt 0.7548 0.3645
vt 0.6953 0.5093
vt 0.7957 0.5093
vt 0.7957 0.5206
vt 0.6953 0.5205
vt 0.5089 0.5100
vt 0.5326 0.5099
vt 0.5326 0.5205
vt 0.5089 0.5206
vt 0.8129 0.5086
vt 0.8855 0.5086
vt 0.8855 0.5212
vt 0.8129 0.5212
vt 0.6295 0.5104
vt 0.6494 0.5104
vt 0.6494 0.5204
vt 0.6294 0.5204
vt 0.8106 0.5098
vt 0.8838 0.5098
vt 0.8837 0.5245
vt 0.8106 0.5245
vt 0.8998 0.3455
vt 0.9889 0.3455
vt 0.9888 0.3601
vt 0.8998 0.3601
vt 0.5651 0.3455
vt 0.6978 0.3493
vt 0.6976 0.3640
vt 0.5649 0.3601
vt 0.6971 0.5089
vt 0.7963 0.5089
vt 0.7963 0.5222
vt 0.6971 0.5222
vt 0.5341 0.4704
vt 0.6624 0.4706
vt 0.6622 0.4777
vt 0.5338 0.4776
vt 0.6018 0.3455
vt 0.7399 0.3494
vt 0.7397 0.3641
vt 0.6016 0.3601
vt 0.4014 0.4711
vt 0.7936 0.4711
vt 0.7936 0.4787
vt 0.4014 0.4787
vt 0.5609 0.4711
vt 0.6907 0.4711
vt 0.6905 0.4786
vt 0.5606 0.4785
vt 0.4045 0.3627
vt 0.7994 0.3627
vt 0.7994 0.3721
vt 0.4044 0.3721
vt 0.8125 0.3455
vt 0.8857 0.3455
vt 0.8856 0.3601
vt 0.8125 0.3601
vt 0.5852 0.3455
vt 0.6152 0.3463
vt 0.6150 0.3610
vt 0.5850 0.3601
vt 0.8120 0.3639
vt 0.8349 0.3639
vt 0.8350 0.3721
vt 0.8120 0.3721
vt 0.6195 0.3463
vt 0.6445 0.3470
vt 0.6443 0.3617
vt 0.6193 0.3610
vt 0.8733 0.3470
vt 0.8964 0.3470
vt 0.8964 0.3617
vt 0.8733 0.3617
vt 0.6400 0.3470
vt 0.7199 0.3493
vt 0.7197 0.3640
vt 0.6398 0.3617
vt 0.8124 0.4153
vt 0.8825 0.4154
vt 0.8825 0.4245
vt 0.8124 0.4245
vt 0.8099 0.4161
vt 0.8848 0.4160
vt 0.8846 0.4248
vt 0.8097 0.4249
vt 0.8233 0.3470
vt 0.8495 0.3470
vt 0.8495 0.3617
vt 0.8233 0.3617
vt 0.8615 0.4172
vt 0.8835 0.4175
vt 0.8830 0.4239
vt 0.8610 0.4237
vt 0.8585 0.3639
vt 0.8852 0.3639
vt 0.8852 0.3721
vt 0.8585 0.3721
vt 0.8113 0.5097
vt 0.8345 0.5100
vt 0.8342 0.5192
vt 0.8110 0.5189
vt 0.5747 0.5098
vt 0.6788 0.5098
vt 0.6787 0.5245
vt 0.5746 0.5245
vt 0.7777 0.3499
vt 0.8054 0.3507
vt 0.8052 0.3653
vt 0.7775 0.3645
vt 0.5744 0.5100
vt 0.6792 0.5100
vt 0.6793 0.5206
vt 0.5744 0.5206
vt 0.4823 0.5101
vt 0.5038 0.5104
vt 0.5035 0.5202
vt 0.4820 0.5199
vt 0.4563 0.5098
vt 0.5601 0.5098
vt 0.5600 0.5245
vt 0.4563 0.5245
vt 0.8006 0.3499
vt 0.8290 0.3507
vt 0.8288 0.3654
vt 0.8004 0.3645
vt 0.4545 0.5096
vt 0.5588 0.5096
vt 0.5589 0.5201
vt 0.4546 0.5201
vt 0.4561 0.5099
vt 0.4793 0.5099
vt 0.4792 0.5188
vt 0.4561 0.5188
vt 0.4037 0.5105
vt 0.4291 0.5105
vt 0.4292 0.5196
vt 0.4038 0.5196
vt 0.4041 0.5098
vt 0.4295 0.5098
vt 0.4293 0.5191
vt 0.4038 0.5191
vt 0.4416 0.3499
vt 0.4667 0.3499
vt 0.4667 0.3645
vt 0.4415 0.3645
vt 0.8256 0.3499
vt 0.8548 0.3507
vt 0.8546 0.3654
vt 0.8254 0.3645
vt 0.7385 0.3499
vt 0.7644 0.3506
vt 0.7643 0.3653
vt 0.7383 0.3646
vn -0.9992 0.0000 0.0390
vn -1.0000 0.0000 0.0001
vn -1.0000 0.0001 0.0001
vn 0.0001 0.0207 0.9998
vn 1.0000 -0.0000 0.0001
vn 1.0000 0.0003 0.0001
vn -0.0001 -0.0078 -1.0000
vn -0.0001 0.0000 -1.0000
vn -0.0001 -0.0074 -1.0000
vn -0.0001 -0.0151 -0.9999
vn -0.0001 -0.0156 -0.9999
vn 0.0000 0.9987 0.0515
vn -0.0000 0.9989 0.0463
vn 0.0000 0.9988 0.0492
vn -0.0000 0.9989 0.0477
vn -0.0000 0.9989 0.0471
vn 0.0000 0.9990 0.0451
vn 0.0000 0.9990 0.0454
vn 0.0000 0.9989 0.0458
vn -0.0002 0.9990 0.0447
vn 0.0000 0.9990 0.0447
vn 0.0005 0.9990 0.0448
vn 0.0003 0.9990 0.0448
vn 0.0004 0.9990 0.0447
vn 0.0000 0.9990 0.0446
vn -0.0000 0.9990 0.0448
vn -0.0001 0.9990 0.0448
vn -0.0000 0.9990 0.0440
vn 0.0003 0.9990 0.0447
vn 0.0003 0.9990 0.0441
vn -0.0001 0.9990 0.0447
vn -0.0000 0.9990 0.0443
vn -0.0006 0.9990 0.0440
vn 0.0000 0.9990 0.0438
vn 0.0000 0.9990 0.0439
vn -0.0013 0.9990 0.0443
vn -0.0006 0.9990 0.0447
vn -0.0007 0.9990 0.0447
vn 0.0001 0.9990 0.0444
vn -0.0000 0.9990 0.0449
vn 0.0001 0.9990 0.0447
vn 0.0000 0.9987 0.0514
vn 0.0000 0.2632 0.9647
vn 0.0001 0.2625 0.9649
vn 0.0000 0.2630 0.9648
vn 0.0000 0.2637 0.9646
vn 1.0000 -0.0000 0.0000
vn 0.0002 0.3595 -0.9331
vn 0.0003 0.3608 -0.9326
vn 0.0001 0.3581 -0.9337
vn -1.0000 0.0002 -0.0006
vn -1.0000 0.0001 -0.0006
vn 0.0003 0.3581 -0.9337
vn 0.0000 0.2627 0.9649
vn -0.0001 0.3975 0.9176
vn -0.0001 0.3985 0.9172
vn -0.0001 0.3977 0.9175
vn -0.0000 0.3970 0.9178
vn 1.0000 0.0002 -0.0000
vn -0.0003 0.3953 -0.9185
vn -1.0000 0.0002 0.0001
vn -1.0000 0.0003 0.0001
vn -0.0001 0.3968 -0.9179
vn -0.0001 0.3970 -0.9178
vn -1.0000 -0.0004 -0.0005
vn -1.0000 -0.0012 -0.0005
vn -1.0000 -0.0006 -0.0005
vn -1.0000 0.0002 -0.0005
vn -0.0001 0.3978 0.9175
vn -0.0001 0.3984 0.9172
vn -0.0001 0.3976 0.9176
vn -0.0001 0.3970 0.9178
vn -0.0000 0.3984 0.9172
vn -0.0000 0.3985 0.9172
vn 1.0000 -0.0001 -0.0001
vn 1.0000 -0.0002 -0.0001
vn 0.0000 0.0982 -0.9952
vn 0.0001 0.0983 -0.9952
vn 0.0000 0.0980 -0.9952
vn -0.0000 0.0979 -0.9952
vn 0.9998 0.0185 -0.0026
vn 1.0000 0.0004 -0.0071
vn 0.9993 0.0368 0.0019
vn -0.0000 -0.0948 0.9955
vn 0.0000 -0.0952 0.9955
vn 1.0000 0.0000 -0.0001
vn -0.0005 0.3958 -0.9183
vn -0.0004 0.3968 -0.9179
vn -0.0005 0.3960 -0.9182
vn -0.0006 0.3951 -0.9187
vn -1.0000 -0.0005 0.0001
vn -0.0004 -0.0949 0.9955
vn -0.0004 -0.0952 0.9955
vn -0.9999 -0.0011 0.0161
vn -0.9999 -0.0015 0.0162
vn 0.0000 0.0951 -0.9955
vn 0.0000 0.0949 -0.9955
vn -1.0000 -0.0002 0.0001
vn -1.0000 0.0000 0.0000
vn 0.0000 0.2634 0.9647
vn 0.0001 0.2627 0.9649
vn 0.0000 0.2635 0.9647
vn 1.0000 0.0004 -0.0002
vn 1.0000 0.0001 -0.0003
vn 1.0000 0.0005 -0.0002
vn 0.0003 0.3593 -0.9332
vn 0.0003 0.3604 -0.9328
vn 0.0002 0.3581 -0.9337
vn -1.0000 0.0005 0.0003
vn -1.0000 0.0003 0.0003
vn -1.0000 0.0001 0.0003
vn 0.0001 0.2623 0.9650
vn 1.0000 -0.0000 -0.0002
vn 1.0000 0.0001 -0.0002
vn 1.0000 -0.0001 -0.0002
vn -1.0000 0.0000 -0.0001
vn 0.0002 0.3594 -0.9332
vn -0.0001 0.3580 -0.9337
vn 0.0004 0.3605 -0.9328
usemtl prop_komp.001
s 1
f 1/1/1 2/2/1 3/3/1
f 4/4/2 5/5/2 6/6/2
f 4/4/2 6/6/2 7/7/2
f 4/4/2 7/7/2 8/8/3
f 9/9/4 10/10/4 11/11/4
f 11/11/4 12/12/4 9/9/4
f 13/13/5 14/14/6 15/15/5
f 13/13/5 15/15/5 16/16/5
f 17/17/7 18/18/8 19/19/8
f 19/19/8 20/20/9 17/17/7
f 17/17/7 20/20/9 21/21/10
f 21/21/10 22/22/11 17/17/7
f 23/23/12 24/24/12 25/25/12
f 25/25/12 26/26/12 23/23/12
f 27/27/12 28/28/12 29/29/12
f 29/29/12 30/30/12 27/27/12
f 31/31/13 32/32/13 33/33/13
f 33/33/13 34/34/13 31/31/13
f 35/35/13 36/36/13 37/37/13
f 37/37/13 38/38/13 35/35/13
f 39/39/14 40/40/14 41/41/14
f 39/39/14 41/41/14 42/42/15
f 39/39/14 42/42/15 43/43/16
f 42/42/15 44/44/17 43/43/16
f 44/44/17 45/45/18 43/43/16
f 44/44/17 46/46/19 45/45/18
f 44/44/17 47/47/19 46/46/19
f 39/39/14 43/43/16 48/48/14
f 46/46/19 49/49/19 45/45/18
f 46/46/19 50/50/19 49/49/19
f 51/51/20 52/52/21 53/53/21
f 53/53/21 54/54/22 51/51/20
f 55/55/23 51/51/20 54/54/22
f 55/55/23 54/54/22 56/56/24
f 55/55/23 56/56/24 57/57/25
f 58/58/21 57/57/25 56/56/24
f 58/58/21 56/56/24 59/59/26
f 58/58/21 59/59/26 60/60/21
f 60/60/21 59/59/26 61/61/27
f 55/55/23 62/62/21 51/51/20
f 63/63/25 62/62/21 55/55/23
f 55/55/23 64/64/28 63/63/25
f 55/55/23 65/65/29 64/64/28
f 64/64/28 65/65/29 66/66/30
f 58/58/21 66/66/30 65/65/29
f 65/65/29 67/67/31 58/58/21
f 58/58/21 67/67/31 57/57/25
f 68/68/21 62/62/21 63/63/25
f 63/63/25 69/69/26 68/68/21
f 68/68/21 69/69/26 70/70/21
f 70/70/21 69/69/26 71/71/26
f 72/72/32 71/71/26 69/69/26
f 69/69/26 73/73/28 72/72/32
f 74/74/33 72/72/32 73/73/28
f 74/74/33 73/73/28 66/66/30
f 73/73/28 64/64/28 66/66/30
f 60/60/21 68/68/21 70/70/21
f 60/60/21 75/75/20 68/68/21
f 60/60/21 61/61/27 75/75/20
f 75/75/20 61/61/27 76/76/21
f 76/76/21 77/77/21 75/75/20
f 74/74/33 78/78/28 72/72/32
f 74/74/33 79/79/34 78/78/28
f 74/74/33 80/80/28 79/79/34
f 74/74/33 81/81/35 80/80/28
f 74/74/33 82/82/28 81/81/35
f 74/74/33 83/83/28 82/82/28
f 74/74/33 84/84/36 83/83/28
f 84/84/36 74/74/33 85/85/37
f 86/86/38 85/85/37 74/74/33
f 86/86/38 74/74/33 87/87/21
f 88/88/39 78/78/28 79/79/34
f 79/79/34 89/89/26 88/88/39
f 70/70/21 88/88/39 89/89/26
f 70/70/21 89/89/26 90/90/26
f 70/70/21 90/90/26 91/91/21
f 81/81/35 91/91/21 90/90/26
f 90/90/26 80/80/28 81/81/35
f 70/70/21 71/71/26 88/88/39
f 70/70/21 91/91/21 92/92/40
f 70/70/21 92/92/40 93/93/21
f 83/83/28 93/93/21 92/92/40
f 92/92/40 82/82/28 83/83/28
f 70/70/21 93/93/21 85/85/37
f 70/70/21 85/85/37 86/86/38
f 86/86/38 87/87/21 94/94/41
f 58/58/21 94/94/41 87/87/21
f 58/58/21 60/60/21 94/94/41
f 95/95/42 96/96/42 97/97/42
f 97/97/42 98/98/42 95/95/42
f 99/99/12 100/100/12 101/101/12
f 101/101/12 102/102/12 99/99/12
f 103/103/12 104/104/12 105/105/12
f 105/105/12 106/106/12 103/103/12
f 107/107/43 108/108/44 109/109/45
f 109/109/45 110/110/46 107/107/43
f 111/111/47 112/112/47 113/113/47
f 113/113/47 114/114/47 111/111/47
f 115/115/48 116/116/49 117/117/48
f 117/117/48 118/118/50 115/115/48
f 119/119/51 120/120/52 121/121/52
f 121/121/52 122/122/51 119/119/51
f 123/123/53 124/124/53 125/125/53
f 125/125/53 126/126/53 123/123/53
f 127/127/2 128/128/2 129/129/2
f 129/129/2 130/130/2 127/127/2
f 131/131/54 132/132/54 133/133/54
f 133/133/54 134/134/54 131/131/54
f 135/135/55 136/136/56 137/137/57
f 137/137/57 138/138/58 135/135/55
f 139/139/59 140/140/47 141/141/47
f 141/141/47 142/142/59 139/139/59
f 143/143/60 144/144/60 145/145/60
f 145/145/60 146/146/60 143/143/60
f 147/147/61 148/148/62 149/149/62
f 149/149/62 150/150/61 147/147/61
f 151/151/5 152/152/5 153/153/5
f 153/153/5 154/154/5 151/151/5
f 155/155/63 156/156/64 157/157/64
f 157/157/64 158/158/63 155/155/63
f 159/159/65 160/160/66 161/161/67
f 161/161/67 162/162/68 159/159/65
f 163/163/69 164/164/70 165/165/71
f 165/165/71 166/166/72 163/163/69
f 167/167/73 168/168/74 169/169/73
f 169/169/73 170/170/73 167/167/73
f 171/171/75 172/172/76 173/173/76
f 173/173/76 174/174/47 171/171/75
f 175/175/77 176/176/78 177/177/79
f 177/177/79 178/178/80 175/175/77
f 179/179/81 180/180/82 181/181/81
f 181/181/81 182/182/83 179/179/81
f 183/183/84 184/184/85 185/185/85
f 185/185/85 186/186/85 183/183/84
f 187/187/86 188/188/86 189/189/86
f 189/189/86 190/190/86 187/187/86
f 191/191/87 192/192/88 193/193/89
f 193/193/89 194/194/90 191/191/87
f 195/195/91 196/196/2 197/197/2
f 197/197/2 198/198/91 195/195/91
f 199/199/92 200/200/92 201/201/92
f 201/201/92 202/202/93 199/199/92
f 203/203/94 204/204/95 205/205/95
f 205/205/95 206/206/94 203/203/94
f 207/207/96 208/208/97 209/209/97
f 209/209/97 210/210/96 207/207/96
f 211/211/98 212/212/99 213/213/99
f 213/213/99 214/214/98 211/211/98
f 215/215/100 216/216/101 217/217/101
f 217/217/101 218/218/102 215/215/100
f 219/219/103 220/220/104 221/221/105
f 221/221/105 222/222/103 219/219/103
f 223/223/106 224/224/107 225/225/106
f 225/225/106 226/226/108 223/223/106
f 227/227/109 228/228/110 229/229/110
f 229/229/110 230/230/111 227/227/109
f 231/231/101 232/232/101 233/233/101
f 233/233/101 234/234/112 231/231/101
f 235/235/113 236/236/114 237/237/114
f 237/237/114 238/238/115 235/235/113
f 239/239/108 240/240/108 241/241/108
f 241/241/108 242/242/108 239/239/108
f 243/243/116 244/244/116 245/245/116
f 245/245/116 246/246/116 243/243/116
f 247/247/117 248/248/118 249/249/117
f 249/249/117 250/250/119 247/247/117
f 251/251/99 252/252/99 253/253/99
f 253/253/99 254/254/99 251/251/99
f 255/255/44 256/256/44 257/257/44
f 257/257/44 258/258/44 255/255/44
f 259/259/113 260/260/114 261/261/114
f 261/261/114 262/262/115 259/259/113
f 263/263/47 264/264/47 265/265/47
f 265/265/47 266/266/47 263/263/47
