# Blender v2.78 (sub 0) OBJ File: 'Броня Монолита.blend'
# www.blender.org
o LLeg
v 0.162222 0.467454 -0.056972
v 0.148099 0.365533 -0.028460
v 0.148099 0.441901 -0.028460
v 0.162222 0.339980 -0.186686
v 0.162222 0.339980 -0.056972
v 0.122106 0.510206 -0.198188
v 0.122106 0.339485 -0.250241
v 0.122106 0.467950 -0.250241
v 0.122106 0.297228 -0.198188
v 0.122106 0.297228 -0.045469
v 0.122106 0.510206 -0.045469
v 0.162222 0.467454 -0.186686
v 0.122106 0.467513 0.006584
v 0.122106 0.339921 0.006584
v 0.148099 0.365272 -0.215198
v 0.148099 0.442163 -0.215198
v -0.132560 0.754527 -0.256098
v -0.132560 0.111802 0.005256
v -0.132560 0.111802 -0.256098
v -0.132560 0.754527 0.005256
v 0.132560 0.111802 0.005256
v 0.132560 0.754527 0.005256
v 0.132560 0.111802 -0.256098
v 0.132560 0.754527 -0.256098
v -0.134703 -0.004775 0.006975
v 0.133297 -0.004775 -0.257539
v -0.134703 -0.004775 -0.257539
v 0.133297 0.116862 0.006975
v 0.133297 -0.004775 0.006975
v 0.200310 0.080476 -0.025956
v -0.134703 0.116862 -0.257539
v -0.134703 0.116862 0.006975
v 0.190668 -0.004503 -0.025956
v 0.200310 0.080476 -0.224607
v 0.190668 -0.004503 -0.224607
v 0.133297 0.116862 -0.257539
vt 0.7044 0.1392
vt 0.7145 0.1302
vt 0.7145 0.1034
vt 0.7044 0.0944
vt 0.6590 0.0944
vt 0.6548 0.1542
vt 0.6366 0.1393
vt 0.6366 0.0943
vt 0.7085 0.0794
vt 0.6548 0.0794
vt 0.7085 0.1542
vt 0.6590 0.1392
vt 0.7269 0.1392
vt 0.7269 0.0944
vt 0.6490 0.1033
vt 0.6490 0.1303
vt 0.5094 0.2609
vt 0.5094 0.0017
vt 0.3975 0.0017
vt 0.3956 0.2609
vt 0.3956 0.0017
vt 0.6225 0.0017
vt 0.7436 0.2609
vt 0.7436 0.0017
vt 0.6225 0.0017
vt 0.6220 0.2609
vt 0.6220 0.0017
vt 0.5090 0.0017
vt 0.3122 0.1138
vt 0.3122 0.0097
vt 0.4178 0.0097
vt 0.3975 0.2609
vt 0.6225 0.2609
vt 0.6225 0.2609
vt 0.5090 0.2609
vt 0.4178 0.1138
vt 0.0095 0.0316
vt 0.0095 0.0090
vt 0.0424 0.0090
vt 0.0034 0.0234
vt 0.1702 0.0146
vt 0.1682 0.0742
vt 0.2061 0.0620
vt 0.1702 0.0146
vt 0.0034 0.0233
vt 0.0034 0.0898
vt 0.0546 0.0192
vt 0.0550 0.0845
vt 0.2225 0.0228
vt 0.2644 0.0377
vt 0.2471 0.0761
vt 0.0495 0.0288
vt 0.0424 0.0316
vt 0.1682 0.0742
vt 0.2061 0.0620
vt 0.2471 0.0756
vt 0.2569 0.0543
vt 0.2159 0.0362
vt 0.0034 0.0898
vt 0.2215 0.0240
vt 0.0034 0.0899
vt 0.2052 0.0612
vt 0.0495 0.0119
vt 0.2223 0.0217
vt 0.2054 0.0608
vn 0.8898 0.3559 0.2856
vn 0.8420 0.1308 0.5234
vn 0.8420 -0.1308 0.5234
vn 0.8898 -0.3559 0.2856
vn 0.8901 -0.3558 -0.2847
vn 0.5632 0.7609 -0.3222
vn -0.2184 0.4487 -0.8666
vn -0.2184 -0.4487 -0.8666
vn 0.5641 -0.7598 0.3233
vn 0.5632 -0.7609 -0.3222
vn 0.5641 0.7598 0.3233
vn 0.8901 0.3558 -0.2847
vn -0.2190 0.4462 0.8677
vn -0.2190 -0.4462 0.8677
vn 0.8421 -0.1313 -0.5230
vn 0.8421 0.1313 -0.5230
vn -0.5774 0.5774 -0.5774
vn -0.7071 0.0000 -0.7071
vn -0.7071 -0.0000 0.7071
vn -0.5774 0.5774 0.5774
vn 0.7071 -0.0000 0.7071
vn 0.5774 0.5774 0.5774
vn 0.7071 0.0000 -0.7071
vn 0.5774 0.5774 -0.5774
vn -0.5774 -0.5774 0.5774
vn -0.5774 -0.5774 -0.5774
vn 0.1839 -0.6592 -0.7291
vn 0.1839 -0.6592 0.7291
vn 0.3539 0.3452 0.8692
vn 0.8285 0.3733 0.4175
vn 0.6550 -0.6443 0.3948
vn 0.6550 -0.6443 -0.3948
vn 0.8285 0.3733 -0.4175
vn 0.3539 0.3452 -0.8692
s 1
f 1/1/1 3/2/2 2/3/3
f 1/1/1 5/4/4 4/5/5
f 6/6/6 8/7/7 7/8/8
f 5/4/4 10/9/9 9/10/10
f 11/11/11 1/1/1 12/12/12
f 13/13/13 14/14/14 2/3/3
f 10/9/9 5/4/4 2/3/3
f 11/11/11 13/13/13 3/2/2
f 11/11/11 10/9/9 14/14/14
f 15/15/15 7/8/8 8/7/7
f 9/10/10 7/8/8 15/15/15
f 6/6/6 12/12/12 16/16/16
f 12/12/12 4/5/5 15/15/15
f 17/17/17 19/18/18 18/19/19
f 20/20/20 18/21/19 21/22/21
f 22/23/22 21/24/21 23/25/23
f 24/26/24 23/27/23 19/28/18
f 22/29/22 24/30/24 17/31/17
f 1/1/1 2/3/3 5/4/4
f 1/1/1 4/5/5 12/12/12
f 6/6/6 7/8/8 9/10/10
f 5/4/4 9/10/10 4/5/5
f 11/11/11 12/12/12 6/6/6
f 13/13/13 2/3/3 3/2/2
f 10/9/9 2/3/3 14/14/14
f 11/11/11 3/2/2 1/1/1
f 11/11/11 14/14/14 13/13/13
f 15/15/15 8/7/7 16/16/16
f 9/10/10 15/15/15 4/5/5
f 6/6/6 16/16/16 8/7/7
f 12/12/12 15/15/15 16/16/16
f 17/17/17 18/19/19 20/32/20
f 20/20/20 21/22/21 22/33/22
f 22/23/22 23/25/23 24/34/24
f 24/26/24 19/28/18 17/35/17
f 22/29/22 17/31/17 20/36/20
f 25/37/25 27/38/26 26/39/27
f 25/40/25 29/41/28 28/42/29
f 30/43/30 28/42/29 29/41/28
f 26/44/27 27/45/26 31/46/18
f 27/45/26 25/47/25 32/48/19
f 33/49/31 35/50/32 34/51/33
f 33/52/31 29/53/28 26/39/27
f 26/44/27 36/54/34 34/55/33
f 34/56/33 36/57/34 28/58/29
f 25/37/25 26/39/27 29/53/28
f 25/40/25 28/42/29 32/59/19
f 30/43/30 29/41/28 33/60/31
f 26/44/27 31/46/18 36/54/34
f 27/45/26 32/48/19 31/61/18
f 33/49/31 34/51/33 30/62/30
f 33/52/31 26/39/27 35/63/32
f 26/44/27 34/55/33 35/64/32
f 34/56/33 28/58/29 30/65/30
