# ..:::Stalker models:::..
# WebSite: http://excalibur-craft.ru
mtllib bookcase_village_100x110_ph.mtl
o 0.013
v 0.510215 0.000000 0.000000
v 0.487546 -0.000000 0.041794
v -0.510213 -0.000000 0.000019
v -0.488354 -0.000000 0.041811
v 0.510215 0.000000 0.000000
v -0.510213 -0.000000 0.000019
v 0.510215 0.977706 0.000000
v -0.510213 0.977706 0.000019
v 0.509806 -0.000000 0.405643
v 0.510215 0.000000 0.000000
v 0.509807 0.977706 0.405643
v 0.510215 0.977706 0.000000
v -0.510213 -0.000000 0.000019
v -0.510622 -0.000000 0.405662
v -0.510213 0.977706 0.000019
v -0.510621 0.977706 0.405662
v 0.507025 1.000515 0.000000
v -0.507025 1.000515 0.000019
v 0.506619 1.000515 0.426273
v -0.507430 1.000515 0.426291
v 0.522352 0.977706 -0.013012
v -0.522353 0.977706 -0.012992
v 0.522352 0.997912 -0.013012
v -0.522353 0.997912 -0.012992
v -0.522353 0.977706 -0.012992
v -0.522758 0.977706 0.439304
v -0.522353 0.997912 -0.012992
v -0.522758 0.997912 0.439304
v -0.522758 0.977706 0.439304
v 0.521948 0.977706 0.439284
v -0.522758 0.997912 0.439304
v 0.521948 0.997912 0.439284
v 0.521948 0.977706 0.439284
v 0.522352 0.977706 -0.013012
v 0.521948 0.997912 0.439284
v 0.522352 0.997912 -0.013012
v 0.509807 0.977706 0.405643
v -0.510621 0.977706 0.405662
v 0.487545 0.964274 0.405644
v -0.488356 0.964274 0.405661
v 0.509806 -0.000000 0.405643
v 0.487545 -0.000000 0.405644
v -0.510622 -0.000000 0.405662
v -0.488356 -0.000000 0.405661
v 0.509806 -0.000000 0.405643
v 0.487545 -0.000000 0.405644
v -0.510622 -0.000000 0.405662
v -0.488356 -0.000000 0.405661
v 0.487761 0.719823 0.405644
v 0.487733 0.719822 0.041802
v 0.487761 0.746685 0.405644
v 0.487763 0.746686 0.041794
v 0.487733 0.719822 0.041802
v -0.488169 0.719823 0.041820
v 0.487763 0.746686 0.041794
v -0.488138 0.746686 0.041812
v -0.488169 0.719823 0.041820
v -0.488139 0.719823 0.405661
v -0.488138 0.746686 0.041812
v -0.488139 0.746685 0.405661
v 0.487763 0.475372 0.041794
v -0.488138 0.475372 0.041812
v 0.487733 0.502233 0.041803
v -0.488169 0.502233 0.041821
v 0.487761 0.475372 0.405644
v 0.487763 0.475372 0.041794
v 0.487761 0.502234 0.405644
v 0.487733 0.502233 0.041803
v -0.488139 0.502234 0.405661
v -0.488169 0.502233 0.041821
v -0.488139 0.475372 0.405661
v -0.488138 0.475372 0.041812
v 0.487761 0.230921 0.405644
v 0.487763 0.230921 0.041794
v 0.487761 0.257783 0.405644
v 0.487763 0.257783 0.041794
v 0.487763 0.230921 0.041794
v -0.488138 0.230921 0.041812
v 0.487763 0.257783 0.041794
v -0.488138 0.257783 0.041812
v -0.488138 0.230921 0.041812
v -0.488139 0.230921 0.405661
v -0.488138 0.257783 0.041812
v -0.488139 0.257783 0.405661
vt -0.2665 0.0026
vt -0.2473 0.0436
vt 0.7292 0.0026
vt 0.7108 0.0437
vt 0.4959 0.0000
vt 1.4162 0.0000
vt 0.4959 1.0000
vt 1.4162 1.0000
vt 0.0000 0.0000
vt 0.4959 0.0000
vt 0.0000 1.0000
vt 0.4959 1.0000
vt 1.4162 0.0000
vt 1.9121 0.0000
vt 1.4162 1.0000
vt 1.9121 1.0000
vt 0.9890 0.5586
vt 0.0004 0.5586
vt 0.9886 0.0062
vt 0.0000 0.0062
vt 5.3208 0.0254
vt 6.5969 0.0255
vt 5.3208 0.0002
vt 6.5969 0.0001
vt 1.3711 0.0254
vt 1.9942 0.0254
vt 1.3711 0.0002
vt 1.9942 0.0002
vt 3.6093 0.0254
vt 4.4261 0.0254
vt 3.6093 0.0002
vt 4.4261 0.0002
vt 2.4468 0.0254
vt 3.0699 0.0254
vt 2.4468 0.0002
vt 3.0699 0.0002
vt 0.0000 1.0015
vt 0.0000 0.0015
vt 0.0137 0.9830
vt 0.0137 0.0170
vt 1.0000 1.0015
vt 0.9863 0.9830
vt 1.0000 0.0015
vt 0.9863 0.0170
vt -0.2661 0.4008
vt -0.2473 0.4008
vt 0.7296 0.4009
vt 0.7108 0.4009
vt 0.0000 0.0000
vt 1.0000 0.0000
vt 0.0000 0.0822
vt 1.0000 0.0822
vt 0.0000 0.0000
vt 1.0000 0.0000
vt 0.0000 0.0306
vt 1.0000 0.0306
vt 0.0000 0.0000
vt 1.0000 0.0000
vt 0.0000 0.0822
vt 1.0000 0.0822
vt 0.0000 0.0000
vt 1.0000 0.0000
vt 0.0000 0.0306
vt 1.0000 0.0306
vt 0.0000 0.0002
vt 1.0000 0.0000
vt 0.0000 0.0823
vt 1.0000 0.0821
vt 0.0000 0.0000
vt 1.0000 0.0000
vt 0.0000 0.0811
vt 1.0000 0.0811
vt 0.0000 0.0000
vt 1.0000 0.0000
vt 0.0000 0.0822
vt 1.0000 0.0822
vt 0.0000 0.0000
vt 1.0000 0.0000
vt 0.0000 0.0306
vt 1.0000 0.0306
vt 0.0000 0.0000
vt 1.0000 0.0000
vt 0.0000 0.0822
vt 1.0000 0.0822
vn 0.0000 -1.0000 -0.0000
vn -0.0000 0.0000 -1.0000
vn 1.0000 -0.0000 0.0010
vn -1.0000 0.0000 -0.0010
vn 0.0750 0.9933 -0.0877
vn -0.0467 0.9974 -0.0548
vn 0.0467 0.9974 0.0548
vn -0.0750 0.9933 0.0877
vn -1.0000 0.0000 -0.0009
vn 0.0000 0.0000 1.0000
vn 1.0000 0.0000 0.0009
vn 1.0000 0.0000 -0.0001
vn 1.0000 -0.0006 -0.0000
vn 1.0000 -0.0005 -0.0000
vn 1.0000 -0.0011 0.0000
vn -0.0000 -0.0003 -1.0000
vn -1.0000 0.0011 0.0001
vn -1.0000 0.0005 0.0000
vn -1.0000 0.0006 0.0000
vn -1.0000 0.0000 -0.0000
vn -0.0000 0.0003 -1.0000
vn 1.0000 0.0000 0.0000
vn 1.0000 0.0005 -0.0000
vn 1.0000 0.0006 -0.0000
vn 1.0000 0.0011 -0.0001
vn -1.0000 0.0000 0.0001
vn -1.0000 -0.0004 0.0001
vn -1.0000 -0.0005 0.0000
vn -1.0000 -0.0011 -0.0000
usemtl wood_table_02.003
s 1
f 1/1/1 2/2/1 3/3/1
f 3/3/1 2/2/1 4/4/1
f 5/5/2 6/6/2 7/7/2
f 7/7/2 6/6/2 8/8/2
f 9/9/3 10/10/3 11/11/3
f 11/11/3 10/10/3 12/12/3
f 13/13/4 14/14/4 15/15/4
f 15/15/4 14/14/4 16/16/4
f 17/17/5 18/18/6 19/19/7
f 19/19/7 18/18/6 20/20/8
f 21/21/2 22/22/2 23/23/2
f 23/23/2 22/22/2 24/24/2
f 25/25/9 26/26/9 27/27/9
f 27/27/9 26/26/9 28/28/9
f 29/29/10 30/30/10 31/31/10
f 31/31/10 30/30/10 32/32/10
f 33/33/11 34/34/11 35/35/11
f 35/35/11 34/34/11 36/36/11
f 37/37/10 38/38/10 39/39/10
f 39/39/10 38/38/10 40/40/10
f 37/37/10 39/39/10 41/41/10
f 41/41/10 39/39/10 42/42/10
f 38/38/10 43/43/10 40/40/10
f 40/40/10 43/43/10 44/44/10
f 1/1/1 45/45/1 2/2/1
f 2/2/1 45/45/1 46/46/1
f 3/3/1 4/4/1 47/47/1
f 47/47/1 4/4/1 48/48/1
f 49/49/12 50/50/13 51/51/14
f 51/51/14 50/50/13 52/52/15
f 53/53/16 54/54/16 55/55/16
f 55/55/16 54/54/16 56/56/16
f 57/57/17 58/58/18 59/59/19
f 59/59/19 58/58/18 60/60/20
f 61/61/21 62/62/21 63/63/21
f 63/63/21 62/62/21 64/64/21
f 65/65/22 66/66/23 67/67/24
f 67/67/24 66/66/23 68/68/25
f 69/69/26 70/70/27 71/71/28
f 71/71/28 70/70/27 72/72/29
f 73/73/22 74/74/22 75/75/22
f 75/75/22 74/74/22 76/76/22
f 77/77/2 78/78/2 79/79/2
f 79/79/2 78/78/2 80/80/2
f 81/81/20 82/82/20 83/83/20
f 83/83/20 82/82/20 84/84/20
o 1.009
v 0.517638 0.998476 -0.012895
v -0.517639 0.998476 -0.012875
v 0.502449 1.001081 0.000000
v -0.502449 1.001081 0.000019
v 0.517638 0.998476 -0.012895
v 0.502449 1.001081 0.000000
v 0.517237 0.998476 0.435319
v 0.502047 1.001080 0.422426
v -0.502449 1.001081 0.000019
v -0.517639 0.998476 -0.012875
v -0.502851 1.001080 0.422444
v -0.518040 0.998476 0.435339
v 0.502047 1.001080 0.422426
v -0.502851 1.001080 0.422444
v 0.517237 0.998476 0.435319
v -0.518040 0.998476 0.435339
v -0.483734 0.475641 0.402000
v 0.483359 0.475641 0.401983
v -0.483734 0.502518 0.402000
v 0.483359 0.502518 0.401983
v -0.483734 0.231051 0.402000
v 0.483359 0.231051 0.401983
v -0.483734 0.257929 0.402000
v 0.483359 0.257929 0.401983
v 0.483359 0.747107 0.401983
v -0.483734 0.747107 0.402000
v 0.483359 0.720230 0.401983
v -0.483734 0.720230 0.402000
v 0.483359 0.475641 0.401983
v -0.483734 0.475641 0.402000
v 0.483361 0.475641 0.041417
v -0.483733 0.475641 0.041434
v 0.483359 0.231051 0.401983
v -0.483734 0.231051 0.402000
v 0.483361 0.231051 0.041417
v -0.483733 0.231051 0.041434
v -0.483734 0.257929 0.402000
v 0.483359 0.257929 0.401983
v -0.483733 0.257929 0.041434
v 0.483361 0.257929 0.041417
v -0.483734 0.747107 0.402000
v 0.483359 0.747107 0.401983
v -0.483733 0.747108 0.041434
v 0.483361 0.747108 0.041417
v -0.483734 0.502518 0.402000
v 0.483359 0.502518 0.401983
v -0.483763 0.502517 0.041443
v 0.483331 0.502517 0.041426
v 0.483359 0.720230 0.401983
v -0.483734 0.720230 0.402000
v 0.483331 0.720229 0.041425
v -0.483763 0.720230 0.041442
v 0.517638 0.978258 -0.012895
v 0.505610 0.978258 0.000000
v -0.517639 0.978258 -0.012875
v -0.505608 0.978258 0.000019
v 0.517237 0.978258 0.435319
v 0.505206 0.978258 0.401982
v -0.506012 0.978258 0.402001
v -0.518040 0.978258 0.435339
v 0.483146 0.964819 0.041417
v -0.483948 0.964819 0.041434
v 0.483146 -0.000000 0.041417
v -0.483947 -0.000000 0.041434
v 0.483145 0.964819 0.401983
v -0.483949 0.964819 0.402000
v 0.483146 0.964819 0.041417
v -0.483948 0.964819 0.041434
v -0.483947 -0.000000 0.041434
v -0.483948 0.964819 0.041434
v -0.483949 -0.000000 0.402000
v -0.483949 0.964819 0.402000
v 0.483146 -0.000000 0.041417
v 0.483145 -0.000000 0.401983
v 0.483146 0.964819 0.041417
v 0.483145 0.964819 0.401983
vt -4.2644 0.0164
vt -3.2776 0.0164
vt -4.2460 0.0021
vt -3.2960 0.0021
vt 0.6335 0.0164
vt 0.6196 0.0000
vt 0.0000 0.0164
vt 0.0139 0.0000
vt 0.6474 0.0000
vt 0.6335 0.0164
vt 1.2532 0.0000
vt 1.2671 0.0164
vt -1.3655 0.0021
vt -2.7433 0.0021
vt -1.3442 0.0164
vt -2.7645 0.0164
vt -0.8673 0.0000
vt 0.2364 0.0000
vt -0.8673 0.0216
vt 0.2364 0.0216
vt 1.3400 0.0000
vt 2.4437 0.0000
vt 1.3400 0.0216
vt 2.4437 0.0216
vt 1.3400 0.0216
vt 0.2364 0.0216
vt 1.3400 0.0000
vt 0.2364 0.0000
vt 1.2240 0.9989
vt 0.7128 0.9989
vt 1.2240 1.3496
vt 0.7128 1.3496
vt 0.8662 0.9989
vt 0.5790 0.9989
vt 0.8662 1.3496
vt 0.5790 1.3496
vt 0.1935 0.9998
vt 0.7047 0.9998
vt 0.1935 0.6491
vt 0.7047 0.6491
vt 0.2017 1.3496
vt 0.7128 1.3496
vt 0.2017 0.9989
vt 0.7128 0.9989
vt 1.3750 0.9998
vt 1.8861 0.9998
vt 1.3750 0.6491
vt 1.8861 0.6491
vt 1.2158 0.6520
vt 0.7047 0.6520
vt 1.2158 1.0027
vt 0.7047 1.0027
vt 0.6634 0.2402
vt 0.6535 0.2500
vt 0.3369 0.2402
vt 0.3468 0.2500
vt 0.6631 0.6895
vt 0.6532 0.6797
vt 0.3465 0.6797
vt 0.3366 0.6895
vt -0.0007 0.9990
vt -0.7083 0.9990
vt -0.0007 0.0000
vt -0.7083 0.0000
vt 3.0751 0.4451
vt 2.4264 0.4451
vt 3.0751 0.0000
vt 2.4264 0.0000
vt 0.0000 0.0000
vt 0.9990 0.0000
vt 0.0000 0.4451
vt 0.9990 0.4451
vt 0.9990 0.0000
vt 0.9990 0.4451
vt 1.9981 0.0000
vt 1.9981 0.4451
vn 0.0937 0.9915 -0.0900
vn -0.0937 0.9915 -0.0902
vn 0.0749 0.9949 -0.0680
vn -0.0466 0.9983 -0.0350
vn 0.0770 0.9910 -0.1096
vn 0.0581 0.9945 -0.0877
vn 0.0769 0.9910 0.1098
vn 0.0298 0.9981 0.0547
vn -0.0298 0.9981 -0.0547
vn -0.0769 0.9910 -0.1098
vn -0.0581 0.9945 0.0877
vn -0.0770 0.9910 0.1096
vn 0.0466 0.9983 0.0351
vn -0.0749 0.9949 0.0680
vn 0.0937 0.9915 0.0902
vn -0.0937 0.9915 0.0900
vn 0.0000 0.0000 1.0000
vn -0.0000 -1.0000 -0.0000
vn 0.0000 1.0000 0.0000
vn 1.0000 0.0000 0.0000
vn -1.0000 0.0000 -0.0000
usemtl wood_table_01.003
s 1
f 85/85/30 86/86/31 87/87/32
f 87/87/32 86/86/31 88/88/33
f 89/89/34 90/90/35 91/91/36
f 91/91/36 90/90/35 92/92/37
f 93/93/38 94/94/39 95/95/40
f 95/95/40 94/94/39 96/96/41
f 97/97/42 98/98/43 99/99/44
f 99/99/44 98/98/43 100/100/45
f 101/101/46 102/102/46 103/103/46
f 103/103/46 102/102/46 104/104/46
f 105/105/46 106/106/46 107/107/46
f 107/107/46 106/106/46 108/108/46
f 109/109/46 110/110/46 111/111/46
f 111/111/46 110/110/46 112/112/46
f 113/113/47 114/114/47 115/115/47
f 115/115/47 114/114/47 116/116/47
f 117/117/47 118/118/47 119/119/47
f 119/119/47 118/118/47 120/120/47
f 121/121/48 122/122/48 123/123/48
f 123/123/48 122/122/48 124/124/48
f 125/125/48 126/126/48 127/127/48
f 127/127/48 126/126/48 128/128/48
f 129/129/48 130/130/48 131/131/48
f 131/131/48 130/130/48 132/132/48
f 133/133/47 134/134/47 135/135/47
f 135/135/47 134/134/47 136/136/47
f 137/137/47 138/138/47 139/139/47
f 139/139/47 138/138/47 140/140/47
f 141/141/47 142/142/47 137/137/47
f 137/137/47 142/142/47 138/138/47
f 140/140/47 143/143/47 139/139/47
f 139/139/47 143/143/47 144/144/47
f 142/142/47 141/141/47 143/143/47
f 143/143/47 141/141/47 144/144/47
f 145/145/46 146/146/46 147/147/46
f 147/147/46 146/146/46 148/148/46
f 149/149/47 150/150/47 151/151/47
f 151/151/47 150/150/47 152/152/47
f 153/153/49 154/154/49 155/155/49
f 155/155/49 154/154/49 156/156/49
f 157/157/50 158/158/50 159/159/50
f 159/159/50 158/158/50 160/160/50
