# ..:::Stalker models:::..
# WebSite: http://excalibur-craft.ru
mtllib bookcase_village_50x120_ph_d.mtl
o 1.008
v 0.428189 1.095190 -0.012834
v -0.428190 1.095190 -0.012814
v 0.415625 1.098047 0.000000
v -0.415625 1.098047 0.000019
v 0.428189 1.095190 -0.012834
v 0.415625 1.098047 0.000000
v 0.427858 1.095190 0.433256
v 0.415292 1.098047 0.420424
v -0.415625 1.098047 0.000019
v -0.428190 1.095190 -0.012814
v -0.415957 1.098047 0.420442
v -0.428522 1.095190 0.433276
v 0.415292 1.098047 0.420424
v -0.415957 1.098047 0.420442
v 0.427858 1.095190 0.433256
v -0.428522 1.095190 0.433276
v -0.400144 0.521712 0.400095
v 0.399834 0.521712 0.400078
v -0.400144 0.551193 0.400095
v 0.399834 0.551193 0.400078
v -0.400144 0.253431 0.400095
v 0.399834 0.253431 0.400078
v -0.400144 0.282912 0.400095
v 0.399834 0.282912 0.400078
v 0.399834 0.819472 0.400078
v -0.400144 0.819472 0.400095
v 0.399834 0.789993 0.400078
v -0.400144 0.789993 0.400095
v 0.399834 0.521712 0.400078
v -0.400144 0.521712 0.400095
v 0.399835 0.521712 0.041221
v -0.400143 0.521712 0.041238
v 0.399834 0.253431 0.400078
v -0.400144 0.253431 0.400095
v 0.399835 0.253431 0.041221
v -0.400143 0.253431 0.041238
v -0.400144 0.282912 0.400095
v 0.399834 0.282912 0.400078
v -0.400143 0.282912 0.041238
v 0.399835 0.282912 0.041221
v -0.400144 0.819472 0.400095
v 0.399834 0.819472 0.400078
v -0.400143 0.819474 0.041238
v 0.399835 0.819474 0.041221
v -0.400144 0.551193 0.400095
v 0.399834 0.551193 0.400078
v -0.400168 0.551192 0.041247
v 0.399810 0.551192 0.041230
v 0.399834 0.789993 0.400078
v -0.400144 0.789993 0.400095
v 0.399810 0.789992 0.041229
v -0.400168 0.789993 0.041246
v 0.428189 1.073014 -0.012834
v 0.418240 1.073014 0.000000
v -0.428190 1.073014 -0.012814
v -0.418238 1.073014 0.000019
v 0.427858 1.073014 0.433256
v 0.417906 1.073014 0.400077
v -0.418573 1.073014 0.400096
v -0.428522 1.073014 0.433276
v 0.399657 1.058273 0.041221
v -0.400321 1.058273 0.041238
v 0.399657 -0.000000 0.041221
v -0.400320 -0.000000 0.041238
v 0.399657 1.058273 0.400078
v -0.400322 1.058273 0.400095
v 0.399657 1.058273 0.041221
v -0.400321 1.058273 0.041238
v -0.400320 -0.000000 0.041238
v -0.400321 1.058273 0.041238
v -0.400322 -0.000000 0.400095
v -0.400322 1.058273 0.400095
v 0.399657 -0.000000 0.041221
v 0.399657 -0.000000 0.400078
v 0.399657 1.058273 0.041221
v 0.399657 1.058273 0.400078
vt 0.5238 0.3570
vt 0.5238 0.7138
vt 0.5183 0.3622
vt 0.5183 0.7086
vt 0.3271 0.6268
vt 0.3217 0.6215
vt 0.3271 0.4410
vt 0.3217 0.4463
vt 0.3271 0.4463
vt 0.3325 0.4410
vt 0.3271 0.6215
vt 0.3325 0.6268
vt 0.5116 0.7086
vt 0.5116 0.3622
vt 0.5172 0.7138
vt 0.5172 0.3570
vt 0.5116 0.3570
vt 0.5116 0.6903
vt 0.4989 0.3570
vt 0.4989 0.6903
vt 0.5238 0.6903
vt 0.5238 0.3570
vt 0.5365 0.6903
vt 0.5365 0.3570
vt 0.3090 0.7743
vt 0.3090 0.4410
vt 0.3217 0.7743
vt 0.3217 0.4410
vt 0.0000 0.7743
vt 0.0000 0.4410
vt 0.1545 0.7743
vt 0.1545 0.4410
vt 0.1545 0.7743
vt 0.1545 0.4410
vt 0.3090 0.7743
vt 0.3090 0.4410
vt 0.6910 0.4410
vt 0.6910 0.7743
vt 0.5365 0.4410
vt 0.5365 0.7743
vt 0.6910 0.3333
vt 0.6910 0.0000
vt 0.8455 0.3333
vt 0.8455 0.0000
vt 0.8455 0.6667
vt 0.8455 1.0000
vt 0.6910 0.6667
vt 0.6910 1.0000
vt 1.0000 0.0000
vt 1.0000 0.3333
vt 0.8455 0.0000
vt 0.8455 0.3333
vt 0.5365 0.3570
vt 0.5310 0.3528
vt 0.5365 0.0001
vt 0.5310 0.0043
vt 0.3444 0.3568
vt 0.3587 0.3527
vt 0.3587 0.0041
vt 0.3444 0.0000
vt 0.0000 0.0000
vt 0.3444 0.0000
vt 0.0000 0.4410
vt 0.3444 0.4410
vt 0.6910 0.6667
vt 0.6910 0.3333
vt 0.8455 0.6667
vt 0.8455 0.3333
vt 0.6910 0.0000
vt 0.6910 0.4410
vt 0.5365 0.0000
vt 0.5365 0.4410
vt 0.4989 0.7979
vt 0.3444 0.7979
vt 0.4989 0.3570
vt 0.3444 0.3570
vn 0.1008 0.9881 -0.1160
vn -0.1007 0.9881 -0.1162
vn 0.0814 0.9925 -0.0916
vn -0.0539 0.9969 -0.0570
vn 0.1237 0.9869 -0.1037
vn 0.1075 0.9908 -0.0822
vn 0.1236 0.9869 0.1040
vn 0.0812 0.9955 0.0488
vn -0.0812 0.9955 -0.0488
vn -0.1236 0.9869 -0.1040
vn -0.1075 0.9908 0.0822
vn -0.1237 0.9869 0.1037
vn 0.0539 0.9969 0.0570
vn -0.0814 0.9925 0.0916
vn 0.1008 0.9881 0.1162
vn -0.1008 0.9881 0.1160
vn 0.0000 0.0000 1.0000
vn -0.0000 -1.0000 0.0000
vn 0.0000 1.0000 0.0000
vn 1.0000 0.0000 0.0000
vn -1.0000 0.0000 0.0000
usemtl wood_table_01.004
s 1
f 1/1/1 2/2/2 3/3/3
f 3/3/3 2/2/2 4/4/4
f 5/5/5 6/6/6 7/7/7
f 7/7/7 6/6/6 8/8/8
f 9/9/9 10/10/10 11/11/11
f 11/11/11 10/10/10 12/12/12
f 13/13/13 14/14/14 15/15/15
f 15/15/15 14/14/14 16/16/16
f 17/17/17 18/18/17 19/19/17
f 19/19/17 18/18/17 20/20/17
f 21/21/17 22/22/17 23/23/17
f 23/23/17 22/22/17 24/24/17
f 25/25/17 26/26/17 27/27/17
f 27/27/17 26/26/17 28/28/17
f 29/29/18 30/30/18 31/31/18
f 31/31/18 30/30/18 32/32/18
f 33/33/18 34/34/18 35/35/18
f 35/35/18 34/34/18 36/36/18
f 37/37/19 38/38/19 39/39/19
f 39/39/19 38/38/19 40/40/19
f 41/41/19 42/42/19 43/43/19
f 43/43/19 42/42/19 44/44/19
f 45/45/19 46/46/19 47/47/19
f 47/47/19 46/46/19 48/48/19
f 49/49/18 50/50/18 51/51/18
f 51/51/18 50/50/18 52/52/18
f 53/53/18 54/54/18 55/55/18
f 55/55/18 54/54/18 56/56/18
f 57/57/18 58/58/18 53/53/18
f 53/53/18 58/58/18 54/54/18
f 56/56/18 59/59/18 55/55/18
f 55/55/18 59/59/18 60/60/18
f 58/58/18 57/57/18 59/59/18
f 59/59/18 57/57/18 60/60/18
f 61/61/17 62/62/17 63/63/17
f 63/63/17 62/62/17 64/64/17
f 65/65/18 66/66/18 67/67/18
f 67/67/18 66/66/18 68/68/18
f 69/69/20 70/70/20 71/71/20
f 71/71/20 70/70/20 72/72/20
f 73/73/21 74/74/21 75/75/21
f 75/75/21 74/74/21 76/76/21
o 1.000_1.012
v 0.000922 1.073613 0.411362
v -0.411972 1.073613 0.411362
v 0.000923 1.073613 0.397900
v -0.411972 1.073614 0.397900
v -0.362779 1.034304 0.419157
v -0.042257 1.034304 0.419157
v -0.350440 1.023073 0.419157
v -0.054593 1.023073 0.419157
v -0.362779 1.034304 0.411362
v -0.042257 1.034304 0.411362
v -0.362779 1.034304 0.419157
v -0.042257 1.034304 0.419157
v -0.054594 1.023073 0.397921
v -0.350440 1.023073 0.397921
v -0.054593 1.023073 0.419157
v -0.350440 1.023073 0.419157
v -0.411972 1.073613 0.411362
v -0.411972 0.010944 0.411361
v -0.411972 1.073614 0.397900
v -0.411972 0.010944 0.397900
v -0.362779 0.381226 0.419157
v -0.362779 1.034304 0.419157
v -0.350440 0.392458 0.419157
v -0.350440 1.023073 0.419157
v -0.362779 0.381226 0.411361
v -0.362779 1.034304 0.411362
v -0.362779 0.381226 0.419157
v -0.362779 1.034304 0.419157
v -0.350440 1.023073 0.397921
v -0.350440 0.392458 0.397921
v -0.350440 1.023073 0.419157
v -0.350440 0.392458 0.419157
v -0.411972 0.010944 0.411361
v 0.001184 0.010944 0.411361
v -0.411972 0.010944 0.397900
v 0.001183 0.010944 0.397900
v -0.042011 0.381226 0.419157
v -0.362779 0.381226 0.419157
v -0.054353 0.392457 0.419157
v -0.350440 0.392458 0.419157
v -0.042011 0.381226 0.411361
v -0.362779 0.381226 0.411361
v -0.042011 0.381226 0.419157
v -0.362779 0.381226 0.419157
v -0.350440 0.392458 0.397921
v -0.054353 0.392457 0.397921
v -0.350440 0.392458 0.419157
v -0.054353 0.392457 0.419157
v 0.001184 0.010944 0.411361
v 0.000922 1.073613 0.411362
v 0.001183 0.010944 0.397900
v 0.000923 1.073613 0.397900
v -0.042257 1.034304 0.419157
v -0.054593 1.023073 0.419157
v -0.054353 0.392457 0.419157
v -0.042257 1.034304 0.411362
v -0.042011 0.381226 0.411361
v -0.042257 1.034304 0.419157
v -0.042011 0.381226 0.419157
v -0.054353 0.392457 0.397921
v -0.054594 1.023073 0.397921
v -0.054353 0.392457 0.419157
v -0.054593 1.023073 0.419157
v -0.411972 1.073613 0.411362
v 0.000922 1.073613 0.411362
v -0.362779 1.034304 0.411362
v -0.042257 1.034304 0.411362
v -0.042011 0.381226 0.411361
v 0.001184 0.010944 0.411361
v -0.362779 0.381226 0.411361
v -0.411972 0.010944 0.411361
v -0.054594 1.023073 0.397921
v 0.000923 1.073613 0.397900
v -0.350440 1.023073 0.397921
v -0.411972 1.073614 0.397900
v -0.350440 0.392458 0.397921
v -0.411972 0.010944 0.397900
v 0.001183 0.010944 0.397900
v -0.054353 0.392457 0.397921
vt 0.6126 0.9982
vt -0.1904 0.9956
vt 0.6126 0.9694
vt -0.1904 0.9669
vt 7.6128 0.0199
vt 8.0920 0.0199
vt 7.6313 0.0015
vt 8.0736 0.0015
vt 6.0606 0.0027
vt 5.5814 0.0027
vt 6.0606 0.0101
vt 5.5814 0.0101
vt 1.4781 0.0336
vt 1.0358 0.0332
vt 1.4781 0.0013
vt 1.0358 0.0016
vt -0.1904 0.9956
vt -2.4610 0.9956
vt -0.1904 0.9669
vt -2.4610 0.9669
vt 8.0920 0.0199
vt 9.1647 0.0199
vt 8.1105 0.0015
vt 9.1462 0.0015
vt 4.0292 0.0004
vt 2.9565 0.0071
vt 4.0293 0.0132
vt 2.9566 0.0199
vt 1.0358 0.0332
vt 0.0000 0.0332
vt 1.0358 0.0016
vt 0.0000 0.0016
vt 3.6867 1.0006
vt 2.8832 1.0006
vt 3.6867 0.9718
vt 2.8832 0.9718
vt 7.1333 0.0199
vt 7.6128 0.0199
vt 7.1517 0.0015
vt 7.5944 0.0015
vt 4.5087 0.0027
vt 4.0292 0.0004
vt 4.5088 0.0101
vt 4.0293 0.0132
vt 2.9565 0.0358
vt 2.5138 0.0354
vt 2.9565 0.0009
vt 2.5139 0.0005
vt 2.8832 1.0006
vt 0.6126 0.9982
vt 2.8832 0.9718
vt 0.6126 0.9694
vt 6.0606 0.0196
vt 6.0791 0.0011
vt 7.1148 0.0015
vt 5.5814 0.0027
vt 4.5087 0.0027
vt 5.5814 0.0101
vt 4.5088 0.0101
vt 2.5138 0.0354
vt 1.4781 0.0336
vt 2.5139 0.0005
vt 1.4781 0.0013
vt -0.0624 1.0000
vt -0.4160 1.0000
vt -0.1045 0.9630
vt -0.3790 0.9630
vt -0.3793 0.3484
vt -0.4163 0.0000
vt -0.1045 0.3484
vt -0.0624 0.0000
vt -0.4730 0.9525
vt -0.4254 1.0000
vt -0.7264 0.9525
vt -0.7791 1.0000
vt -0.7264 0.3590
vt -0.7791 0.0000
vt -0.4252 0.0000
vt -0.4727 0.3590
vn 0.0000 -1.0000 0.0000
vn -0.0000 -1.0000 -0.0001
vn 0.0000 0.0000 -1.0000
vn 0.0000 1.0000 -0.0000
vn 1.0000 0.0000 0.0000
vn -1.0000 0.0000 0.0000
vn -1.0000 -0.0002 0.0001
vn -1.0000 -0.0002 -0.0001
vn -1.0000 -0.0004 0.0000
vn 1.0000 0.0004 0.0000
vn 0.0002 0.0002 1.0000
vn -0.0002 0.0002 1.0000
vn -0.0002 -0.0000 1.0000
vn -0.0000 -0.0000 1.0000
vn 0.0000 -0.0001 1.0000
vn 0.0002 -0.0000 1.0000
usemtl wood_table_02.008
s 1
f 77/77/22 78/78/23 79/79/22
f 79/79/22 78/78/23 80/80/23
f 81/81/24 82/82/24 83/83/24
f 83/83/24 82/82/24 84/84/24
f 85/85/22 86/86/22 87/87/22
f 87/87/22 86/86/22 88/88/22
f 89/89/25 90/90/25 91/91/25
f 91/91/25 90/90/25 92/92/25
f 93/93/26 94/94/26 95/95/26
f 95/95/26 94/94/26 96/96/26
f 97/97/24 98/98/24 99/99/24
f 99/99/24 98/98/24 100/100/24
f 101/101/26 102/102/26 103/103/26
f 103/103/26 102/102/26 104/104/26
f 105/105/27 106/106/27 107/107/27
f 107/107/27 106/106/27 108/108/27
f 109/109/25 110/110/25 111/111/25
f 111/111/25 110/110/25 112/112/25
f 113/113/24 114/114/24 115/115/24
f 115/115/24 114/114/24 116/116/24
f 117/117/25 118/118/25 119/119/25
f 119/119/25 118/118/25 120/120/25
f 121/121/22 122/122/22 123/123/22
f 123/123/22 122/122/22 124/124/22
f 125/125/28 126/126/29 127/127/28
f 127/127/28 126/126/29 128/128/29
f 129/129/24 113/113/24 130/130/24
f 130/130/24 113/113/24 131/131/24
f 132/132/30 133/133/30 134/134/30
f 134/134/30 133/133/30 135/135/30
f 136/136/31 137/137/31 138/138/31
f 138/138/31 137/137/31 139/139/31
f 140/140/24 141/141/24 142/142/24
f 142/142/24 141/141/24 143/143/24
f 143/143/24 141/141/24 144/144/24
f 144/144/24 141/141/24 145/145/24
f 144/144/24 145/145/24 146/146/24
f 146/146/24 145/145/24 147/147/24
f 147/147/24 140/140/24 146/146/24
f 146/146/24 140/140/24 142/142/24
f 148/148/32 149/149/32 150/150/33
f 150/150/33 149/149/32 151/151/33
f 151/151/33 152/152/34 150/150/33
f 153/153/35 152/152/34 151/151/33
f 153/153/35 154/154/36 152/152/34
f 152/152/34 154/154/36 155/155/37
f 154/154/36 149/149/32 155/155/37
f 155/155/37 149/149/32 148/148/32
o 0.015
v 0.418240 0.000000 0.000000
v 0.399657 -0.000000 0.041221
v -0.418238 -0.000000 0.000019
v -0.400320 -0.000000 0.041238
v 0.418240 0.000000 0.000000
v -0.418238 -0.000000 0.000019
v 0.418240 1.073014 0.000000
v -0.418238 1.073014 0.000019
v 0.417905 -0.000000 0.400077
v 0.418240 0.000000 0.000000
v 0.417906 1.073014 0.400077
v 0.418240 1.073014 0.000000
v -0.418238 -0.000000 0.000019
v -0.418573 -0.000000 0.400096
v -0.418238 1.073014 0.000019
v -0.418573 1.073014 0.400096
v 0.415625 1.098047 0.000000
v -0.415625 1.098047 0.000019
v 0.415292 1.098047 0.420424
v -0.415957 1.098047 0.420442
v 0.428189 1.073014 -0.012834
v -0.428190 1.073014 -0.012814
v 0.428189 1.095190 -0.012834
v -0.428190 1.095190 -0.012814
v -0.428190 1.073014 -0.012814
v -0.428522 1.073014 0.433276
v -0.428190 1.095190 -0.012814
v -0.428522 1.095190 0.433276
v -0.428522 1.073014 0.433276
v 0.427858 1.073014 0.433256
v -0.428522 1.095190 0.433276
v 0.427858 1.095190 0.433256
v 0.427858 1.073014 0.433256
v 0.428189 1.073014 -0.012834
v 0.427858 1.095190 0.433256
v 0.428189 1.095190 -0.012834
v 0.417906 1.073014 0.400077
v -0.418573 1.073014 0.400096
v 0.399657 1.058273 0.400078
v -0.400322 1.058273 0.400095
v 0.417905 -0.000000 0.400077
v 0.399657 -0.000000 0.400078
v -0.418573 -0.000000 0.400096
v -0.400322 -0.000000 0.400095
v 0.417905 -0.000000 0.400077
v 0.399657 -0.000000 0.400078
v -0.418573 -0.000000 0.400096
v -0.400322 -0.000000 0.400095
v 0.399834 0.789993 0.400078
v 0.399810 0.789992 0.041229
v 0.399834 0.819472 0.400078
v 0.399835 0.819474 0.041221
v 0.399810 0.789992 0.041229
v -0.400168 0.789993 0.041246
v 0.399835 0.819474 0.041221
v -0.400143 0.819474 0.041238
v -0.400168 0.789993 0.041246
v -0.400144 0.789993 0.400095
v -0.400143 0.819474 0.041238
v -0.400144 0.819472 0.400095
v 0.399835 0.521712 0.041221
v -0.400143 0.521712 0.041238
v 0.399810 0.551192 0.041230
v -0.400168 0.551192 0.041247
v 0.399834 0.521712 0.400078
v 0.399835 0.521712 0.041221
v 0.399834 0.551193 0.400078
v 0.399810 0.551192 0.041230
v -0.400144 0.551193 0.400095
v -0.400168 0.551192 0.041247
v -0.400144 0.521712 0.400095
v -0.400143 0.521712 0.041238
v 0.399834 0.253431 0.400078
v 0.399835 0.253431 0.041221
v 0.399834 0.282912 0.400078
v 0.399835 0.282912 0.041221
v 0.399835 0.253431 0.041221
v -0.400143 0.253431 0.041238
v 0.399835 0.282912 0.041221
v -0.400143 0.282912 0.041238
v -0.400143 0.253431 0.041238
v -0.400144 0.253431 0.400095
v -0.400143 0.282912 0.041238
v -0.400144 0.282912 0.400095
vt -0.2665 0.0026
vt -0.2473 0.0436
vt 0.7292 0.0026
vt 0.7108 0.0437
vt 0.4959 0.0000
vt 1.4162 0.0000
vt 0.4959 1.0000
vt 1.4162 1.0000
vt 0.0000 0.0000
vt 0.4959 0.0000
vt 0.0000 1.0000
vt 0.4959 1.0000
vt 1.4162 0.0000
vt 1.9121 0.0000
vt 1.4162 1.0000
vt 1.9121 1.0000
vt 0.9890 0.5586
vt 0.0004 0.5586
vt 0.9886 0.0062
vt 0.0000 0.0062
vt 5.3208 0.0254
vt 6.5969 0.0255
vt 5.3208 0.0002
vt 6.5969 0.0001
vt 1.3711 0.0254
vt 1.9942 0.0254
vt 1.3711 0.0002
vt 1.9942 0.0002
vt 3.6093 0.0254
vt 4.4261 0.0254
vt 3.6093 0.0002
vt 4.4261 0.0002
vt 2.4468 0.0254
vt 3.0699 0.0254
vt 2.4468 0.0002
vt 3.0699 0.0002
vt 0.0000 1.0015
vt 0.0000 0.0015
vt 0.0137 0.9830
vt 0.0137 0.0170
vt 1.0000 1.0015
vt 0.9863 0.9830
vt 1.0000 0.0015
vt 0.9863 0.0170
vt -0.2661 0.4008
vt -0.2473 0.4008
vt 0.7296 0.4009
vt 0.7108 0.4009
vt 0.0000 0.0000
vt 1.0000 0.0000
vt 0.0000 0.0822
vt 1.0000 0.0822
vt 0.0000 0.0000
vt 1.0000 0.0000
vt 0.0000 0.0306
vt 1.0000 0.0306
vt 0.0000 0.0000
vt 1.0000 0.0000
vt 0.0000 0.0822
vt 1.0000 0.0822
vt 0.0000 0.0000
vt 1.0000 0.0000
vt 0.0000 0.0306
vt 1.0000 0.0306
vt 0.0000 0.0002
vt 1.0000 0.0000
vt 0.0000 0.0823
vt 1.0000 0.0821
vt 0.0000 0.0000
vt 1.0000 0.0000
vt 0.0000 0.0811
vt 1.0000 0.0811
vt 0.0000 0.0000
vt 1.0000 0.0000
vt 0.0000 0.0822
vt 1.0000 0.0822
vt 0.0000 0.0000
vt 1.0000 0.0000
vt 0.0000 0.0306
vt 1.0000 0.0306
vt 0.0000 0.0000
vt 1.0000 0.0000
vt 0.0000 0.0822
vt 1.0000 0.0822
vn 0.0000 -1.0000 -0.0000
vn -0.0000 0.0000 -1.0000
vn 1.0000 -0.0000 0.0008
vn -1.0000 -0.0000 -0.0008
vn 0.0750 0.9933 -0.0877
vn -0.0468 0.9974 -0.0548
vn 0.0468 0.9974 0.0548
vn -0.0750 0.9933 0.0877
vn -1.0000 0.0000 -0.0007
vn 0.0000 0.0000 1.0000
vn 1.0000 0.0000 0.0007
vn 0.0001 -0.0000 1.0000
vn 1.0000 0.0000 -0.0001
vn 1.0000 -0.0005 -0.0000
vn 1.0000 -0.0008 0.0000
vn -0.0000 -0.0003 -1.0000
vn -1.0000 0.0008 0.0001
vn -1.0000 0.0005 -0.0000
vn -1.0000 0.0002 -0.0000
vn -1.0000 0.0000 -0.0000
vn -0.0000 0.0003 -1.0000
vn 1.0000 0.0000 0.0000
vn 1.0000 0.0002 -0.0000
vn 1.0000 0.0006 0.0000
vn 1.0000 0.0008 -0.0001
vn -1.0000 0.0000 0.0001
vn -1.0000 0.0001 0.0001
vn -1.0000 -0.0005 -0.0000
vn -1.0000 -0.0008 -0.0000
usemtl wood_table_02.004
s 1
f 156/156/38 157/157/38 158/158/38
f 158/158/38 157/157/38 159/159/38
f 160/160/39 161/161/39 162/162/39
f 162/162/39 161/161/39 163/163/39
f 164/164/40 165/165/40 166/166/40
f 166/166/40 165/165/40 167/167/40
f 168/168/41 169/169/41 170/170/41
f 170/170/41 169/169/41 171/171/41
f 172/172/42 173/173/43 174/174/44
f 174/174/44 173/173/43 175/175/45
f 176/176/39 177/177/39 178/178/39
f 178/178/39 177/177/39 179/179/39
f 180/180/46 181/181/46 182/182/46
f 182/182/46 181/181/46 183/183/46
f 184/184/47 185/185/47 186/186/47
f 186/186/47 185/185/47 187/187/47
f 188/188/48 189/189/48 190/190/48
f 190/190/48 189/189/48 191/191/48
f 192/192/47 193/193/47 194/194/47
f 194/194/47 193/193/47 195/195/47
f 192/192/47 194/194/47 196/196/49
f 196/196/49 194/194/47 197/197/49
f 193/193/47 198/198/49 195/195/47
f 195/195/47 198/198/49 199/199/49
f 156/156/38 200/200/38 157/157/38
f 157/157/38 200/200/38 201/201/38
f 158/158/38 159/159/38 202/202/38
f 202/202/38 159/159/38 203/203/38
f 204/204/50 205/205/51 206/206/51
f 206/206/51 205/205/51 207/207/52
f 208/208/53 209/209/53 210/210/53
f 210/210/53 209/209/53 211/211/53
f 212/212/54 213/213/55 214/214/56
f 214/214/56 213/213/55 215/215/57
f 216/216/58 217/217/58 218/218/58
f 218/218/58 217/217/58 219/219/58
f 220/220/59 221/221/60 222/222/61
f 222/222/61 221/221/60 223/223/62
f 224/224/63 225/225/64 226/226/65
f 226/226/65 225/225/64 227/227/66
f 228/228/59 229/229/59 230/230/59
f 230/230/59 229/229/59 231/231/59
f 232/232/39 233/233/39 234/234/39
f 234/234/39 233/233/39 235/235/39
f 236/236/57 237/237/57 238/238/57
f 238/238/57 237/237/57 239/239/57
o 1.010
v 0.005975 1.073613 0.413139
v 0.418869 1.073613 0.413139
v 0.005973 1.073613 0.399678
v 0.418869 1.073614 0.399678
v 0.369675 1.034304 0.420934
v 0.049153 1.034304 0.420934
v 0.357336 1.023073 0.420934
v 0.061490 1.023073 0.420934
v 0.369675 1.034304 0.413139
v 0.049153 1.034304 0.413139
v 0.369675 1.034304 0.420934
v 0.049153 1.034304 0.420934
v 0.061490 1.023073 0.399699
v 0.357337 1.023073 0.399699
v 0.061490 1.023073 0.420934
v 0.357336 1.023073 0.420934
v 0.418869 1.073613 0.413139
v 0.418869 0.010944 0.413139
v 0.418869 1.073614 0.399678
v 0.418869 0.010944 0.399678
v 0.369675 0.381226 0.420934
v 0.369675 1.034304 0.420934
v 0.357336 0.392458 0.420934
v 0.357336 1.023073 0.420934
v 0.369675 0.381226 0.413139
v 0.369675 1.034304 0.413139
v 0.369675 0.381226 0.420934
v 0.369675 1.034304 0.420934
v 0.357337 1.023073 0.399699
v 0.357337 0.392458 0.399698
v 0.357336 1.023073 0.420934
v 0.357336 0.392458 0.420934
v 0.418869 0.010944 0.413139
v 0.005713 0.010944 0.413139
v 0.418869 0.010944 0.399678
v 0.005713 0.010944 0.399677
v 0.048908 0.381226 0.420934
v 0.369675 0.381226 0.420934
v 0.061249 0.392457 0.420934
v 0.357336 0.392458 0.420934
v 0.048908 0.381226 0.413139
v 0.369675 0.381226 0.413139
v 0.048908 0.381226 0.420934
v 0.369675 0.381226 0.420934
v 0.357337 0.392458 0.399698
v 0.061250 0.392457 0.399698
v 0.357336 0.392458 0.420934
v 0.061249 0.392457 0.420934
v 0.005713 0.010944 0.413139
v 0.005975 1.073613 0.413139
v 0.005713 0.010944 0.399677
v 0.005973 1.073613 0.399678
v 0.049153 1.034304 0.420934
v 0.061490 1.023073 0.420934
v 0.061249 0.392457 0.420934
v 0.049153 1.034304 0.413139
v 0.048908 0.381226 0.413139
v 0.049153 1.034304 0.420934
v 0.048908 0.381226 0.420934
v 0.061250 0.392457 0.399698
v 0.061490 1.023073 0.399699
v 0.061249 0.392457 0.420934
v 0.061490 1.023073 0.420934
v 0.418869 1.073613 0.413139
v 0.005975 1.073613 0.413139
v 0.369675 1.034304 0.413139
v 0.049153 1.034304 0.413139
v 0.048908 0.381226 0.413139
v 0.005713 0.010944 0.413139
v 0.369675 0.381226 0.413139
v 0.418869 0.010944 0.413139
v 0.061490 1.023073 0.399699
v 0.005973 1.073613 0.399678
v 0.357337 1.023073 0.399699
v 0.418869 1.073614 0.399678
v 0.357337 0.392458 0.399698
v 0.418869 0.010944 0.399678
v 0.005713 0.010944 0.399677
v 0.061250 0.392457 0.399698
vt 0.6126 0.9982
vt -0.1904 0.9956
vt 0.6126 0.9694
vt -0.1904 0.9669
vt 7.6128 0.0199
vt 8.0920 0.0199
vt 7.6313 0.0015
vt 8.0736 0.0015
vt 6.0606 0.0027
vt 5.5814 0.0027
vt 6.0606 0.0101
vt 5.5814 0.0101
vt 1.4781 0.0336
vt 1.0358 0.0332
vt 1.4781 0.0013
vt 1.0358 0.0016
vt -0.1904 0.9956
vt -2.4610 0.9956
vt -0.1904 0.9669
vt -2.4610 0.9669
vt 8.0920 0.0199
vt 9.1647 0.0199
vt 8.1105 0.0015
vt 9.1462 0.0015
vt 4.0292 0.0004
vt 2.9565 0.0071
vt 4.0293 0.0132
vt 2.9566 0.0199
vt 1.0358 0.0332
vt 0.0000 0.0332
vt 1.0358 0.0016
vt 0.0000 0.0016
vt 3.6867 1.0006
vt 2.8832 1.0006
vt 3.6867 0.9718
vt 2.8832 0.9718
vt 7.1333 0.0199
vt 7.6128 0.0199
vt 7.1517 0.0015
vt 7.5944 0.0015
vt 4.5087 0.0027
vt 4.0292 0.0004
vt 4.5088 0.0101
vt 4.0293 0.0132
vt 2.9565 0.0358
vt 2.5138 0.0354
vt 2.9565 0.0009
vt 2.5139 0.0005
vt 2.8832 1.0006
vt 0.6126 0.9982
vt 2.8832 0.9718
vt 0.6126 0.9694
vt 6.0606 0.0196
vt 6.0791 0.0011
vt 7.1148 0.0015
vt 5.5814 0.0027
vt 4.5087 0.0027
vt 5.5814 0.0101
vt 4.5088 0.0101
vt 2.5138 0.0354
vt 1.4781 0.0336
vt 2.5139 0.0005
vt 1.4781 0.0013
vt -0.0624 1.0000
vt -0.4160 1.0000
vt -0.1045 0.9630
vt -0.3790 0.9630
vt -0.3793 0.3484
vt -0.4163 0.0000
vt -0.1045 0.3484
vt -0.0624 0.0000
vt -0.4730 0.9525
vt -0.4254 1.0000
vt -0.7264 0.9525
vt -0.7791 1.0000
vt -0.7264 0.3590
vt -0.7791 0.0000
vt -0.4252 0.0000
vt -0.4727 0.3590
vn 0.0000 1.0000 0.0000
vn -0.0000 1.0000 0.0001
vn 0.0000 0.0000 1.0000
vn 0.0000 -1.0000 0.0000
vn 1.0000 0.0000 0.0000
vn -1.0000 0.0000 -0.0000
vn -1.0000 0.0002 0.0000
vn -1.0000 0.0002 0.0001
vn -1.0000 0.0004 0.0000
vn 1.0000 -0.0004 0.0000
vn 0.0002 -0.0002 -1.0000
vn -0.0002 -0.0002 -1.0000
vn -0.0002 0.0000 -1.0000
vn -0.0000 0.0000 -1.0000
vn 0.0002 0.0000 -1.0000
usemtl wood_table_02.006
s 1
f 240/240/67 241/241/68 242/242/67
f 242/242/67 241/241/68 243/243/68
f 244/244/69 245/245/69 246/246/69
f 246/246/69 245/245/69 247/247/69
f 248/248/67 249/249/67 250/250/67
f 250/250/67 249/249/67 251/251/67
f 252/252/70 253/253/70 254/254/70
f 254/254/70 253/253/70 255/255/70
f 256/256/71 257/257/71 258/258/71
f 258/258/71 257/257/71 259/259/71
f 260/260/69 261/261/69 262/262/69
f 262/262/69 261/261/69 263/263/69
f 264/264/71 265/265/71 266/266/71
f 266/266/71 265/265/71 267/267/71
f 268/268/72 269/269/72 270/270/72
f 270/270/72 269/269/72 271/271/72
f 272/272/70 273/273/70 274/274/70
f 274/274/70 273/273/70 275/275/70
f 276/276/69 277/277/69 278/278/69
f 278/278/69 277/277/69 279/279/69
f 280/280/70 281/281/70 282/282/70
f 282/282/70 281/281/70 283/283/70
f 284/284/67 285/285/67 286/286/67
f 286/286/67 285/285/67 287/287/67
f 288/288/73 289/289/74 290/290/73
f 290/290/73 289/289/74 291/291/74
f 292/292/69 276/276/69 293/293/69
f 293/293/69 276/276/69 294/294/69
f 295/295/75 296/296/75 297/297/75
f 297/297/75 296/296/75 298/298/75
f 299/299/76 300/300/76 301/301/76
f 301/301/76 300/300/76 302/302/76
f 303/303/69 304/304/69 305/305/69
f 305/305/69 304/304/69 306/306/69
f 306/306/69 304/304/69 307/307/69
f 307/307/69 304/304/69 308/308/69
f 307/307/69 308/308/69 309/309/69
f 309/309/69 308/308/69 310/310/69
f 310/310/69 303/303/69 309/309/69
f 309/309/69 303/303/69 305/305/69
f 311/311/77 312/312/77 313/313/78
f 313/313/78 312/312/77 314/314/78
f 314/314/78 315/315/79 313/313/78
f 316/316/80 315/315/79 314/314/78
f 316/316/80 317/317/80 315/315/79
f 315/315/79 317/317/80 318/318/81
f 317/317/80 312/312/77 318/318/81
f 318/318/81 312/312/77 311/311/77
