# ..:::Stalker models:::..
# WebSite: http://excalibur-craft.ru
mtllib bookcase_village_50x120_ph.mtl
o 1
v 0.229489 0.000000 -0.225484
v -0.270511 0.000000 -0.225465
v 0.229489 1.173448 -0.225483
v -0.270511 1.173448 -0.225464
v 0.229089 -0.000000 0.174498
v 0.229489 0.000000 -0.225484
v 0.229089 1.173448 0.174499
v 0.229489 1.173448 -0.225483
v -0.270511 0.000000 -0.225465
v -0.270911 -0.000000 0.174517
v -0.270511 1.173448 -0.225464
v -0.270911 1.173448 0.174518
v 0.229489 1.200825 -0.225483
v -0.270511 1.200825 -0.225464
v 0.229089 1.200825 0.194841
v -0.270911 1.200825 0.194859
v 0.244604 1.173448 -0.238314
v -0.285627 1.173448 -0.238294
v 0.244604 1.197700 -0.238314
v -0.285627 1.197700 -0.238294
v -0.285627 1.173448 -0.238294
v -0.286026 1.173448 0.207690
v -0.285627 1.197700 -0.238294
v -0.286026 1.197700 0.207690
v -0.286026 1.173448 0.207690
v 0.244205 1.173448 0.207670
v -0.286026 1.197700 0.207690
v 0.244205 1.197700 0.207670
v 0.244205 1.173448 0.207670
v 0.244604 1.173448 -0.238314
v 0.244205 1.197700 0.207670
v 0.244604 1.197700 -0.238314
v 0.229089 1.173448 0.174499
v -0.270911 1.173448 0.174518
v 0.210278 1.157328 0.174500
v -0.252101 1.157328 0.174517
v -0.270911 -0.000000 0.174517
v 0.229089 -0.000000 0.174498
v -0.252101 0.016120 0.174516
v 0.210278 0.016120 0.174499
v 0.210492 0.863936 0.174500
v 0.210464 0.863936 -0.184264
v 0.210492 0.896176 0.174500
v 0.210493 0.896176 -0.184272
v 0.210492 0.570544 0.174500
v 0.210493 0.570544 -0.184272
v 0.210492 0.602784 0.174500
v 0.210463 0.602784 -0.184263
v 0.210492 0.277153 0.174500
v 0.210493 0.277153 -0.184272
v 0.210492 0.309392 0.174500
v 0.210494 0.309392 -0.184272
v 0.210493 0.277153 -0.184272
v -0.251886 0.277153 -0.184255
v 0.210494 0.309392 -0.184272
v -0.251886 0.309392 -0.184255
v 0.210493 0.570544 -0.184272
v -0.251886 0.570544 -0.184255
v 0.210463 0.602784 -0.184263
v -0.251916 0.602784 -0.184246
v 0.210464 0.863936 -0.184264
v -0.251916 0.863936 -0.184247
v 0.210493 0.896176 -0.184272
v -0.251886 0.896176 -0.184255
v -0.251887 0.309392 0.174517
v -0.251886 0.309392 -0.184255
v -0.251887 0.277153 0.174517
v -0.251886 0.277153 -0.184255
v -0.251886 0.570544 -0.184255
v -0.251887 0.570544 0.174517
v -0.251916 0.602784 -0.184246
v -0.251887 0.602784 0.174517
v -0.251916 0.863936 -0.184247
v -0.251887 0.863936 0.174517
v -0.251886 0.896176 -0.184255
v -0.251887 0.896176 0.174517
vt 0.2778 0.6888
vt 0.0000 0.6888
vt 0.2778 0.0000
vt 0.0000 0.0000
vt 0.5556 0.0000
vt 0.7778 0.0000
vt 0.5556 0.6888
vt 0.7778 0.6888
vt 0.7778 0.0000
vt 1.0000 0.0000
vt 0.7778 0.6888
vt 1.0000 0.6888
vt 0.0000 0.9825
vt 0.0000 0.6890
vt 0.2335 0.9823
vt 0.2335 0.6888
vt 0.3092 0.6888
vt 0.3092 1.0000
vt 0.2957 0.6888
vt 0.2957 1.0000
vt 0.4436 0.9506
vt 0.4436 0.6888
vt 0.4571 0.9506
vt 0.4571 0.6888
vt 0.3092 1.0000
vt 0.3092 0.6888
vt 0.3226 1.0000
vt 0.3226 0.6888
vt 0.4436 0.6888
vt 0.4436 0.9506
vt 0.4301 0.6888
vt 0.4301 0.9506
vt 0.5556 0.6888
vt 0.2778 0.6888
vt 0.5451 0.6793
vt 0.2882 0.6793
vt 0.2778 0.0000
vt 0.5556 0.0000
vt 0.2882 0.0095
vt 0.5451 0.0095
vt 0.3226 0.8994
vt 0.3226 0.6888
vt 0.3406 0.8994
vt 0.3406 0.6888
vt 0.3406 0.8994
vt 0.3406 0.6888
vt 0.3585 0.8994
vt 0.3585 0.6888
vt 0.4301 0.6888
vt 0.4301 0.8994
vt 0.4122 0.6888
vt 0.4122 0.8994
vt 0.2957 0.6888
vt 0.2957 0.9602
vt 0.2778 0.6888
vt 0.2778 0.9602
vt 0.2514 0.6888
vt 0.2514 0.9602
vt 0.2335 0.6888
vt 0.2335 0.9602
vt 0.2514 0.9602
vt 0.2514 0.6888
vt 0.2693 0.9602
vt 0.2693 0.6888
vt 0.4122 0.6888
vt 0.4122 0.8994
vt 0.3943 0.6888
vt 0.3943 0.8994
vt 0.3764 0.6888
vt 0.3764 0.8994
vt 0.3585 0.6888
vt 0.3585 0.8994
vt 0.3943 0.6888
vt 0.3943 0.8994
vt 0.3764 0.6888
vt 0.3764 0.8994
vn -0.0000 0.0000 -1.0000
vn 1.0000 0.0000 0.0010
vn -1.0000 0.0000 -0.0010
vn 0.0819 0.9920 -0.0957
vn -0.0510 0.9969 -0.0598
vn 0.0510 0.9969 0.0598
vn -0.0819 0.9920 0.0957
vn -1.0000 0.0000 -0.0009
vn 0.0000 0.0000 1.0000
vn 1.0000 0.0000 0.0009
vn 1.0000 -0.0000 -0.0001
vn 1.0000 -0.0008 -0.0000
vn 1.0000 -0.0005 0.0000
vn 1.0000 -0.0009 0.0000
vn 1.0000 -0.0000 0.0000
vn 1.0000 0.0009 -0.0001
vn 1.0000 0.0005 0.0000
vn -0.0000 0.0003 -1.0000
vn -0.0000 -0.0002 -1.0000
vn -1.0000 0.0000 -0.0000
vn -1.0000 -0.0009 -0.0000
vn -1.0000 -0.0005 -0.0000
vn -1.0000 -0.0000 0.0001
vn -1.0000 0.0009 0.0001
vn -1.0000 0.0005 -0.0000
usemtl wood_table_02
s 1
f 1/1/1 2/2/1 3/3/1
f 3/3/1 2/2/1 4/4/1
f 5/5/2 6/6/2 7/7/2
f 7/7/2 6/6/2 8/8/2
f 9/9/3 10/10/3 11/11/3
f 11/11/3 10/10/3 12/12/3
f 13/13/4 14/14/5 15/15/6
f 15/15/6 14/14/5 16/16/7
f 17/17/1 18/18/1 19/19/1
f 19/19/1 18/18/1 20/20/1
f 21/21/8 22/22/8 23/23/8
f 23/23/8 22/22/8 24/24/8
f 25/25/9 26/26/9 27/27/9
f 27/27/9 26/26/9 28/28/9
f 29/29/10 30/30/10 31/31/10
f 31/31/10 30/30/10 32/32/10
f 33/33/9 34/34/9 35/35/9
f 35/35/9 34/34/9 36/36/9
f 37/37/9 38/38/9 39/39/9
f 39/39/9 38/38/9 40/40/9
f 33/33/9 35/35/9 38/38/9
f 38/38/9 35/35/9 40/40/9
f 34/34/9 37/37/9 36/36/9
f 36/36/9 37/37/9 39/39/9
f 41/41/11 42/42/12 43/43/13
f 43/43/13 42/42/12 44/44/14
f 45/45/15 46/46/16 47/47/17
f 47/47/17 46/46/16 48/48/16
f 49/49/15 50/50/15 51/51/15
f 51/51/15 50/50/15 52/52/15
f 53/53/1 54/54/1 55/55/1
f 55/55/1 54/54/1 56/56/1
f 57/57/18 58/58/18 59/59/18
f 59/59/18 58/58/18 60/60/18
f 61/61/19 62/62/19 63/63/19
f 63/63/19 62/62/19 64/64/19
f 65/65/20 66/66/20 67/67/20
f 67/67/20 66/66/20 68/68/20
f 69/69/21 70/70/22 71/71/22
f 71/71/22 70/70/22 72/72/23
f 73/73/24 74/74/25 75/75/24
f 75/75/24 74/74/25 76/76/20
o 0
v 0.244604 1.197700 -0.238314
v -0.285627 1.197700 -0.238294
v 0.229489 1.200825 -0.225483
v -0.270511 1.200825 -0.225464
v 0.244604 1.197700 -0.238314
v 0.229489 1.200825 -0.225483
v 0.244205 1.197700 0.207670
v 0.229089 1.200825 0.194841
v -0.270511 1.200825 -0.225464
v -0.285627 1.197700 -0.238294
v -0.270911 1.200825 0.194859
v -0.286026 1.197700 0.207690
v 0.229089 1.200825 0.194841
v -0.270911 1.200825 0.194859
v 0.244205 1.197700 0.207670
v -0.286026 1.197700 0.207690
v -0.251887 0.570544 0.174517
v 0.210492 0.570544 0.174500
v -0.251887 0.602784 0.174517
v 0.210492 0.602784 0.174500
v -0.251887 0.277153 0.174517
v 0.210492 0.277153 0.174500
v -0.251887 0.309392 0.174517
v 0.210492 0.309392 0.174500
v 0.210492 0.896176 0.174500
v -0.251887 0.896176 0.174517
v 0.210492 0.863936 0.174500
v -0.251887 0.863936 0.174517
v 0.210492 0.570544 0.174500
v -0.251887 0.570544 0.174517
v 0.210493 0.570544 -0.184272
v -0.251886 0.570544 -0.184255
v 0.210492 0.277153 0.174500
v -0.251887 0.277153 0.174517
v 0.210493 0.277153 -0.184272
v -0.251886 0.277153 -0.184255
v -0.251887 0.309392 0.174517
v 0.210492 0.309392 0.174500
v -0.251886 0.309392 -0.184255
v 0.210494 0.309392 -0.184272
v -0.251887 0.896176 0.174517
v 0.210492 0.896176 0.174500
v -0.251886 0.896176 -0.184255
v 0.210493 0.896176 -0.184272
v -0.251887 0.602784 0.174517
v 0.210492 0.602784 0.174500
v -0.251916 0.602784 -0.184246
v 0.210463 0.602784 -0.184263
v 0.210492 0.863936 0.174500
v -0.251887 0.863936 0.174517
v 0.210464 0.863936 -0.184264
v -0.251916 0.863936 -0.184247
v 0.244604 1.173448 -0.238314
v 0.229489 1.173448 -0.225483
v -0.285627 1.173448 -0.238294
v -0.270511 1.173448 -0.225464
v 0.244205 1.173448 0.207670
v 0.229089 1.173448 0.174499
v -0.270911 1.173448 0.174518
v -0.286026 1.173448 0.207690
v 0.210280 1.157328 -0.184272
v -0.252100 1.157328 -0.184255
v 0.210280 0.016120 -0.184273
v -0.252099 0.016120 -0.184256
v 0.210278 1.157328 0.174500
v -0.252101 1.157328 0.174517
v 0.210280 1.157328 -0.184272
v -0.252100 1.157328 -0.184255
v -0.252099 0.016120 -0.184256
v -0.252100 1.157328 -0.184255
v -0.252101 0.016120 0.174516
v -0.252101 1.157328 0.174517
v 0.210280 0.016120 -0.184273
v 0.210278 0.016120 0.174499
v 0.210280 1.157328 -0.184272
v 0.210278 1.157328 0.174500
v -0.252101 0.016120 0.174516
v 0.210278 0.016120 0.174499
v -0.252099 0.016120 -0.184256
v 0.210280 0.016120 -0.184273
v -0.270911 -0.000000 0.174517
v -0.270511 0.000000 -0.225465
v 0.229089 -0.000000 0.174498
v 0.229489 0.000000 -0.225484
vt 0.8453 0.0000
vt 0.8453 0.2711
vt 0.8387 0.0077
vt 0.8387 0.2634
vt 0.8597 0.2280
vt 0.8519 0.2215
vt 0.8597 0.0000
vt 0.8519 0.0066
vt 0.8597 0.0066
vt 0.8675 0.0000
vt 0.8597 0.2215
vt 0.8675 0.2280
vt 0.8453 0.2634
vt 0.8453 0.0077
vt 0.8519 0.2711
vt 0.8519 0.0000
vt 0.2219 0.8199
vt 0.2219 0.5835
vt 0.2385 0.8199
vt 0.2385 0.5835
vt 0.2052 0.8199
vt 0.2052 0.5835
vt 0.2219 0.8199
vt 0.2219 0.5835
vt 0.2017 0.5835
vt 0.2017 0.8199
vt 0.1851 0.5835
vt 0.1851 0.8199
vt 0.9787 0.5272
vt 0.9787 0.7636
vt 0.7937 0.5272
vt 0.7937 0.7636
vt 1.0000 0.2713
vt 1.0000 0.5077
vt 0.8149 0.2713
vt 0.8149 0.5077
vt 0.6086 0.7636
vt 0.6086 0.5272
vt 0.7937 0.7636
vt 0.7937 0.5272
vt 0.2385 0.8199
vt 0.2385 0.5835
vt 0.4236 0.8199
vt 0.4236 0.5835
vt 0.9787 0.7636
vt 0.9787 1.0000
vt 0.7937 0.7636
vt 0.7937 1.0000
vt 0.7937 0.7636
vt 0.7937 1.0000
vt 0.6086 0.7636
vt 0.6086 1.0000
vt 0.8387 0.2713
vt 0.8321 0.2636
vt 0.8387 0.0002
vt 0.8321 0.0079
vt 0.6086 0.2711
vt 0.6257 0.2634
vt 0.6257 0.0077
vt 0.6086 0.0000
vt 0.2385 0.5835
vt 0.0000 0.5835
vt 0.2385 0.0000
vt 0.0000 0.0000
vt 0.6086 0.5835
vt 0.6086 0.8199
vt 0.4236 0.5835
vt 0.4236 0.8199
vt 0.6086 0.0000
vt 0.6086 0.5835
vt 0.4236 0.0000
vt 0.4236 0.5835
vt 0.4236 0.5835
vt 0.2385 0.5835
vt 0.4236 0.0000
vt 0.2385 0.0000
vt 0.0000 0.8199
vt 0.0000 0.5835
vt 0.1851 0.8199
vt 0.1851 0.5835
vt 0.6086 0.2713
vt 0.8149 0.2715
vt 0.6086 0.5270
vt 0.8149 0.5272
vn 0.1026 0.9875 -0.1197
vn -0.1025 0.9875 -0.1199
vn 0.0819 0.9920 -0.0957
vn -0.0510 0.9969 -0.0598
vn 0.1025 0.9875 0.1199
vn 0.0510 0.9969 0.0598
vn -0.0819 0.9920 0.0957
vn -0.1025 0.9875 0.1197
vn 0.0000 -0.0000 1.0000
vn -0.0000 -1.0000 0.0000
vn 0.0000 1.0000 0.0000
vn 1.0000 0.0000 0.0000
vn -1.0000 0.0000 -0.0000
usemtl wood_table_01
s 1
f 77/77/26 78/78/27 79/79/28
f 79/79/28 78/78/27 80/80/29
f 81/81/26 82/82/28 83/83/30
f 83/83/30 82/82/28 84/84/31
f 85/85/29 86/86/27 87/87/32
f 87/87/32 86/86/27 88/88/33
f 89/89/31 90/90/32 91/91/30
f 91/91/30 90/90/32 92/92/33
f 93/93/34 94/94/34 95/95/34
f 95/95/34 94/94/34 96/96/34
f 97/97/34 98/98/34 99/99/34
f 99/99/34 98/98/34 100/100/34
f 101/101/34 102/102/34 103/103/34
f 103/103/34 102/102/34 104/104/34
f 105/105/35 106/106/35 107/107/35
f 107/107/35 106/106/35 108/108/35
f 109/109/35 110/110/35 111/111/35
f 111/111/35 110/110/35 112/112/35
f 113/113/36 114/114/36 115/115/36
f 115/115/36 114/114/36 116/116/36
f 117/117/36 118/118/36 119/119/36
f 119/119/36 118/118/36 120/120/36
f 121/121/36 122/122/36 123/123/36
f 123/123/36 122/122/36 124/124/36
f 125/125/35 126/126/35 127/127/35
f 127/127/35 126/126/35 128/128/35
f 129/129/35 130/130/35 131/131/35
f 131/131/35 130/130/35 132/132/35
f 133/133/35 134/134/35 129/129/35
f 129/129/35 134/134/35 130/130/35
f 132/132/35 135/135/35 131/131/35
f 131/131/35 135/135/35 136/136/35
f 134/134/35 133/133/35 135/135/35
f 135/135/35 133/133/35 136/136/35
f 137/137/34 138/138/34 139/139/34
f 139/139/34 138/138/34 140/140/34
f 141/141/35 142/142/35 143/143/35
f 143/143/35 142/142/35 144/144/35
f 145/145/37 146/146/37 147/147/37
f 147/147/37 146/146/37 148/148/37
f 149/149/38 150/150/38 151/151/38
f 151/151/38 150/150/38 152/152/38
f 153/153/36 154/154/36 155/155/36
f 155/155/36 154/154/36 156/156/36
f 157/157/35 158/158/35 159/159/35
f 159/159/35 158/158/35 160/160/35
