# ..:::Stalker models:::..
# WebSite: http://excalibur-craft.ru
mtllib bookcase_village_50x122.mtl
o 0.001
v 0.265115 1.216780 -0.012831
v -0.265116 1.216781 -0.012811
v 0.250000 1.219905 0.000000
v -0.250000 1.219905 0.000019
v 0.265115 1.216780 -0.012831
v 0.264716 1.216781 0.433153
v 0.249600 1.219905 0.420324
v -0.265116 1.216781 -0.012811
v -0.250400 1.219905 0.420342
v -0.265515 1.216781 0.433173
v 0.264716 1.216781 0.433153
v -0.265515 1.216781 0.433173
v -0.225232 0.571900 0.389494
v 0.222528 0.571900 0.389477
v -0.225232 0.597934 0.389494
v 0.222528 0.597934 0.389477
v 0.001217 0.280929 0.389814
v 0.222565 0.290135 0.389806
v 0.000121 0.308025 0.389815
v 0.222565 0.317230 0.389806
v 0.222528 0.571900 0.389477
v -0.225232 0.571900 0.389494
v 0.222529 0.571900 0.040593
v -0.225230 0.571900 0.040610
v -0.226055 0.280626 0.389823
v -0.226053 0.271178 0.040517
v 0.001217 0.280929 0.389814
v 0.222566 0.290135 0.040500
v 0.222565 0.290135 0.389806
v 0.222566 0.317230 0.040500
v 0.222566 0.290135 0.040500
v -0.226053 0.298273 0.040517
v -0.226053 0.271178 0.040517
v -0.226053 0.298273 0.040517
v -0.226055 0.307722 0.389823
v 0.000121 0.308025 0.389815
v 0.222565 0.317230 0.389806
v 0.222566 0.317230 0.040500
v -0.225232 0.597934 0.389494
v 0.222528 0.597934 0.389477
v -0.225260 0.597934 0.040619
v 0.222499 0.597934 0.040602
v -0.224733 1.163881 -0.000119
v -0.250000 1.192529 0.000019
v 0.222155 1.164147 -0.000137
v 0.250000 1.192529 0.000000
v 0.249600 -0.000000 0.399982
v 0.250000 0.000000 0.000000
v 0.249600 1.192529 0.399982
v 0.250000 1.192529 0.000000
v -0.250000 -0.000000 0.000019
v -0.250400 -0.000000 0.400001
v -0.250000 1.192529 0.000019
v -0.250400 1.192529 0.400001
v 0.265115 1.192529 -0.012831
v 0.250000 1.192529 0.000000
v -0.265116 1.192529 -0.012811
v -0.250000 1.192529 0.000019
v 0.264716 1.192529 0.433153
v 0.249600 1.192529 0.399982
v 0.265115 1.192529 -0.012831
v 0.250000 1.192529 0.000000
v -0.250000 1.192529 0.000019
v -0.250400 1.192529 0.400001
v -0.265116 1.192529 -0.012811
v -0.265515 1.192529 0.433173
v 0.249600 1.192529 0.399982
v 0.264716 1.192529 0.433153
v -0.250400 1.192529 0.400001
v -0.265515 1.192529 0.433173
v 0.265115 1.192529 -0.012831
v -0.265116 1.192529 -0.012811
v 0.265115 1.216780 -0.012831
v -0.265116 1.216781 -0.012811
v -0.265116 1.192529 -0.012811
v -0.265515 1.192529 0.433173
v -0.265116 1.216781 -0.012811
v -0.265515 1.216781 0.433173
v -0.265515 1.192529 0.433173
v 0.264716 1.192529 0.433153
v -0.265515 1.216781 0.433173
v 0.264716 1.216781 0.433153
v 0.264716 1.192529 0.433153
v 0.265115 1.192529 -0.012831
v 0.264716 1.216781 0.433153
v 0.265115 1.216780 -0.012831
v 0.249600 1.192529 0.399982
v -0.250400 1.192529 0.400001
v 0.221821 1.163853 0.399983
v -0.224415 1.163853 0.400000
v 0.249600 -0.000000 0.399982
v 0.221821 0.026065 0.399983
v -0.250400 -0.000000 0.400001
v -0.224415 0.026065 0.400000
v -0.224415 0.026065 0.400000
v 0.221821 0.026065 0.399983
v -0.224382 0.026273 -0.000166
v 0.221970 0.025734 -0.000187
v -0.250400 1.192529 0.400001
v -0.250400 -0.000000 0.400001
v -0.224415 1.163853 0.400000
v -0.224415 0.026065 0.400000
v -0.250400 -0.000000 0.400001
v -0.250000 -0.000000 0.000019
v 0.249600 -0.000000 0.399982
v 0.250000 0.000000 0.000000
v 0.222528 0.571900 0.389477
v 0.222529 0.571900 0.040593
v 0.222528 0.597934 0.389477
v 0.222499 0.597934 0.040602
v 0.222529 0.571900 0.040593
v -0.225230 0.571900 0.040610
v 0.222499 0.597934 0.040602
v -0.225260 0.597934 0.040619
v -0.225230 0.571900 0.040610
v -0.225232 0.571900 0.389494
v -0.225260 0.597934 0.040619
v -0.225232 0.597934 0.389494
v -0.226055 0.280626 0.389823
v -0.226055 0.307722 0.389823
v 0.221821 1.163853 0.399983
v -0.224415 1.163853 0.400000
v 0.222155 1.164147 -0.000137
v -0.224733 1.163881 -0.000119
v 0.249600 1.192529 0.399982
v 0.221821 1.163853 0.399983
v 0.249600 -0.000000 0.399982
v 0.221821 0.026065 0.399983
v 0.250000 1.192529 0.000000
v 0.250000 0.000000 0.000000
v 0.222155 1.164147 -0.000137
v 0.221970 0.025734 -0.000187
v -0.250000 1.192529 0.000019
v -0.224733 1.163881 -0.000119
v -0.250000 -0.000000 0.000019
v -0.224382 0.026273 -0.000166
v 0.250000 0.000000 0.000000
v -0.250000 -0.000000 0.000019
v 0.221970 0.025734 -0.000187
v -0.224382 0.026273 -0.000166
v -0.224415 1.163853 0.400000
v -0.224415 0.026065 0.400000
v -0.224733 1.163881 -0.000119
v -0.224382 0.026273 -0.000166
v 0.221821 0.026065 0.399983
v 0.221821 1.163853 0.399983
v 0.221970 0.025734 -0.000187
v 0.222155 1.164147 -0.000137
v -0.225232 0.858274 0.389494
v 0.222528 0.858274 0.389477
v -0.225232 0.883865 0.389494
v 0.222528 0.883865 0.389477
v 0.222528 0.858274 0.389477
v -0.225232 0.858274 0.389494
v 0.222529 0.858274 0.040593
v -0.225230 0.858274 0.040610
v -0.225232 0.883865 0.389494
v 0.222528 0.883865 0.389477
v -0.225260 0.883864 0.040619
v 0.222499 0.883864 0.040602
v 0.222528 0.858274 0.389477
v 0.222529 0.858274 0.040593
v 0.222528 0.883865 0.389477
v 0.222499 0.883864 0.040602
v 0.222529 0.858274 0.040593
v -0.225230 0.858274 0.040610
v 0.222499 0.883864 0.040602
v -0.225260 0.883864 0.040619
v -0.225230 0.858274 0.040610
v -0.225232 0.858274 0.389494
v -0.225260 0.883864 0.040619
v -0.225232 0.883865 0.389494
v 0.007983 0.899875 0.038655
v 0.217193 0.899875 0.038638
v 0.008017 0.900082 0.008589
v 0.217343 0.899544 0.008568
v 0.007983 0.026443 0.038655
v 0.008017 0.026651 0.008589
v 0.217193 0.026444 0.038638
v 0.217343 0.026112 0.008568
v 0.007983 0.026443 0.038655
v 0.217193 0.026444 0.038638
v 0.007983 0.899875 0.038655
v 0.217193 0.899875 0.038638
v 0.217343 0.026112 0.008568
v 0.217343 0.899544 0.008568
v 0.217193 0.026444 0.038638
v 0.217193 0.899875 0.038638
v 0.217343 0.026112 0.008568
v 0.008017 0.026651 0.008589
v 0.217343 0.899544 0.008568
v 0.008017 0.900082 0.008589
v 0.008017 0.026651 0.008589
v 0.007983 0.026443 0.038655
v 0.008017 0.900082 0.008589
v 0.007983 0.899875 0.038655
v -0.216883 0.910800 0.038655
v -0.005287 0.910800 0.038638
v -0.216852 0.911007 0.008589
v -0.005150 0.910468 0.008568
v -0.216883 0.027264 0.038655
v -0.216852 0.027471 0.008589
v -0.005287 0.027264 0.038638
v -0.005150 0.026932 0.008568
v -0.216883 0.027264 0.038655
v -0.005287 0.027264 0.038638
v -0.216883 0.910800 0.038655
v -0.005287 0.910800 0.038638
v -0.005150 0.026932 0.008568
v -0.005150 0.910468 0.008568
v -0.005287 0.027264 0.038638
v -0.005287 0.910800 0.038638
v -0.005150 0.026932 0.008568
v -0.216852 0.027471 0.008589
v -0.005150 0.910468 0.008568
v -0.216852 0.911007 0.008589
v -0.216852 0.027471 0.008589
v -0.216883 0.027264 0.038655
v -0.216852 0.911007 0.008589
v -0.216883 0.910800 0.038655
vt -0.1980 0.4208
vt -0.1980 0.7393
vt -0.2060 0.4299
vt -0.2060 0.7303
vt -0.1982 0.4206
vt -0.4662 0.4209
vt -0.4585 0.4301
vt -0.1982 0.7395
vt -0.4585 0.7305
vt -0.4662 0.7398
vt -0.4664 0.4211
vt -0.4664 0.7396
vt -1.2819 3.5880
vt -1.2819 1.8538
vt -1.4024 3.5880
vt -1.4024 1.8538
vt -1.4911 2.8591
vt -1.4912 2.0015
vt -1.4019 2.8632
vt -1.4020 2.0015
vt 0.8411 0.1465
vt 0.5482 0.1465
vt 0.8411 0.0738
vt 0.5482 0.0738
vt 0.4859 1.9342
vt 0.4858 2.1168
vt 0.5961 1.9342
vt 0.7044 2.1168
vt 0.7043 1.9342
vt 0.7051 2.1290
vt 0.7044 2.1168
vt 0.4865 2.1290
vt 0.4858 2.1168
vt 0.4859 1.7629
vt 0.4859 1.9455
vt 0.5955 1.9455
vt 0.7043 1.9455
vt 0.7043 1.7629
vt 0.5482 0.1669
vt 0.8411 0.1669
vt 0.5481 0.3872
vt 0.8411 0.3872
vt 0.0657 0.5714
vt 0.0506 0.5841
vt 0.0657 0.3614
vt 0.0507 0.3482
vt -0.1379 1.5740
vt 0.0508 1.5740
vt -0.1379 1.0204
vt 0.0508 1.0204
vt -0.1498 0.5616
vt 0.0341 0.5616
vt -0.1498 0.0004
vt 0.0341 0.0004
vt -0.1834 0.4208
vt -0.1757 0.4299
vt -0.1834 0.7393
vt -0.1757 0.7303
vt -0.4662 0.4063
vt -0.4585 0.3972
vt -0.1983 0.4060
vt -0.1938 0.3970
vt -0.2059 0.7632
vt -0.4462 0.7634
vt -0.1982 0.7541
vt -0.4661 0.7544
vt -0.5009 0.4301
vt -0.4810 0.4211
vt -0.5009 0.7305
vt -0.4810 0.7396
vt -0.1834 0.4208
vt -0.1834 0.7393
vt -0.1980 0.4208
vt -0.1980 0.7393
vt -0.1982 0.7541
vt -0.4661 0.7544
vt -0.1982 0.7395
vt -0.4662 0.7398
vt -0.4810 0.7396
vt -0.4810 0.4211
vt -0.4664 0.7396
vt -0.4664 0.4211
vt -0.4662 0.4063
vt -0.1983 0.4060
vt -0.4662 0.4209
vt -0.1982 0.4206
vt 0.2678 0.3484
vt 0.2678 0.5843
vt 0.2545 0.3615
vt 0.2545 0.5712
vt -1.1460 1.9642
vt -1.0537 2.0550
vt -1.1460 3.6004
vt -1.0537 3.5096
vt 0.2545 0.3615
vt 0.2545 0.5712
vt 0.0657 0.3615
vt 0.0657 0.5713
vt 0.0341 0.0004
vt 0.0341 0.5616
vt 0.0500 0.0129
vt 0.0500 0.5483
vt -0.1383 0.3486
vt 0.0504 0.3486
vt -0.1380 0.5845
vt 0.0507 0.5845
vt 0.8615 0.1669
vt 0.8615 0.3872
vt 0.8411 0.1669
vt 0.8411 0.3872
vt 0.8411 0.4076
vt 0.5482 0.4076
vt 0.8411 0.3872
vt 0.5481 0.3872
vt 0.5278 0.3872
vt 0.5278 0.1669
vt 0.5481 0.3872
vt 0.5482 0.1669
vt -1.4911 3.7321
vt -1.4019 3.7321
vt 0.2545 0.3615
vt 0.2545 0.5712
vt 0.0657 0.3614
vt 0.0657 0.5714
vt -0.1379 1.0204
vt -0.1563 1.0339
vt -0.1379 1.5740
vt -0.1563 1.5605
vt 0.0508 1.0204
vt 0.0508 1.5740
vt 0.0698 1.0351
vt 0.0697 1.5593
vt -0.1498 0.0004
vt -0.1650 0.0114
vt -0.1498 0.5616
vt -0.1652 0.5497
vt 0.0507 0.5845
vt 0.0504 0.3486
vt 0.0657 0.5713
vt 0.0657 0.3615
vt -0.3538 0.0113
vt -0.3539 0.5498
vt -0.1650 0.0114
vt -0.1652 0.5497
vt 0.2585 1.5592
vt 0.2585 1.0352
vt 0.0697 1.5593
vt 0.0698 1.0351
vt -1.5004 1.9971
vt -1.5004 3.7313
vt -1.3798 1.9971
vt -1.3798 3.7313
vt 0.5481 0.6915
vt 0.8411 0.6915
vt 0.5481 0.4712
vt 0.8411 0.4712
vt 0.8411 0.7119
vt 0.5481 0.7119
vt 0.8411 0.9322
vt 0.5482 0.9322
vt 0.5278 0.7119
vt 0.5278 0.9322
vt 0.5481 0.7119
vt 0.5482 0.9322
vt 0.5481 0.9526
vt 0.8411 0.9526
vt 0.5482 0.9322
vt 0.8411 0.9322
vt 0.8615 0.9322
vt 0.8615 0.7119
vt 0.8411 0.9322
vt 0.8411 0.7119
vt -0.8802 1.5191
vt -0.7677 1.5191
vt -0.8802 1.5346
vt -0.7676 1.5346
vt -0.8802 1.0721
vt -0.8802 1.0566
vt -0.7677 1.0721
vt -0.7676 1.0566
vt -0.8802 1.0721
vt -0.7677 1.0721
vt -0.8802 1.5191
vt -0.7677 1.5191
vt -0.7522 1.0719
vt -0.7522 1.5189
vt -0.7677 1.0721
vt -0.7677 1.5191
vt -0.7522 1.0719
vt -0.6395 1.0722
vt -0.7522 1.5189
vt -0.6395 1.5192
vt -0.6395 1.0722
vt -0.6240 1.0721
vt -0.6395 1.5192
vt -0.6240 1.5191
vt -0.4416 1.4069
vt -0.3288 1.4069
vt -0.4416 1.4224
vt -0.3287 1.4224
vt -0.4416 0.9520
vt -0.4416 0.9365
vt -0.3288 0.9520
vt -0.3287 0.9365
vt -0.4416 0.9520
vt -0.3288 0.9520
vt -0.4416 1.4069
vt -0.3288 1.4069
vt -0.3133 0.9518
vt -0.3133 1.4067
vt -0.3288 0.9520
vt -0.3288 1.4069
vt -0.3133 0.9518
vt -0.2003 0.9521
vt -0.3133 1.4067
vt -0.2003 1.4070
vt -0.2003 0.9521
vt -0.1848 0.9520
vt -0.2003 1.4070
vt -0.1848 1.4069
vn 0.1026 0.9875 -0.1197
vn -0.1025 0.9875 -0.1199
vn 0.0819 0.9920 -0.0957
vn -0.0510 0.9969 -0.0598
vn 0.1025 0.9875 0.1199
vn 0.0510 0.9969 0.0598
vn -0.0819 0.9920 0.0957
vn -0.1026 0.9875 0.1197
vn -0.1025 0.9875 0.1197
vn 0.0000 0.0000 1.0000
vn -0.0000 -1.0000 -0.0000
vn 0.0013 -0.9996 0.0270
vn 0.0218 -0.9997 0.0137
vn 0.0284 -0.9996 0.0091
vn 0.0420 -0.9991 0.0003
vn 0.0416 -0.9991 0.0000
vn -0.0000 0.0000 -1.0000
vn -0.0218 0.9997 -0.0138
vn -0.0013 0.9996 -0.0270
vn -0.0283 0.9996 -0.0092
vn -0.0413 0.9991 0.0000
vn -0.0419 0.9991 -0.0004
vn 0.0000 1.0000 0.0000
vn -0.0000 0.0048 -1.0000
vn -0.0000 0.0049 -1.0000
vn 1.0000 0.0000 0.0010
vn -1.0000 -0.0000 -0.0010
vn -1.0000 0.0000 -0.0009
vn 1.0000 0.0000 0.0009
vn 0.0000 1.0000 0.0005
vn 0.0006 1.0000 -0.0002
vn 0.0006 1.0000 -0.0001
vn 0.0012 1.0000 -0.0008
vn 1.0000 0.0000 0.0000
vn 1.0000 0.0006 -0.0000
vn 1.0000 0.0005 -0.0000
vn 1.0000 0.0012 -0.0001
vn -0.0000 0.0003 -1.0000
vn -1.0000 -0.0012 -0.0000
vn -1.0000 -0.0005 0.0000
vn -1.0000 0.0000 0.0001
vn -0.0000 -1.0000 -0.0007
vn 0.0003 -1.0000 -0.0004
vn 0.0006 -1.0000 -0.0001
vn 0.0049 0.0000 -1.0000
vn 0.0059 0.0000 -1.0000
vn 0.0056 0.0000 -1.0000
vn 0.0067 0.0000 -1.0000
vn -0.0055 0.0000 -1.0000
vn -0.0064 0.0000 -1.0000
vn -0.0063 0.0000 -1.0000
vn -0.0073 0.0000 -1.0000
vn -0.0000 -0.0073 -1.0000
vn -0.0001 -0.0070 -1.0000
vn 1.0000 0.0000 -0.0008
vn 1.0000 0.0002 -0.0001
vn 1.0000 0.0001 -0.0006
vn 1.0000 0.0003 0.0001
vn -1.0000 0.0000 -0.0004
vn -1.0000 0.0001 -0.0007
vn -1.0000 0.0000 -0.0005
vn -1.0000 0.0002 -0.0008
vn -0.0000 0.0004 -1.0000
vn -1.0000 -0.0004 0.0001
vn -1.0000 -0.0008 0.0000
vn 0.0000 1.0000 0.0069
vn 0.0013 1.0000 -0.0021
vn 0.0026 0.9999 -0.0110
vn 0.0000 -1.0000 -0.0069
vn -0.0013 -1.0000 0.0021
vn -0.0026 -0.9999 0.0110
vn 0.0001 -0.0000 1.0000
vn 1.0000 0.0000 0.0050
vn -0.0001 0.0000 -1.0000
vn -1.0000 0.0000 -0.0011
vn 0.0025 0.9999 -0.0110
vn -0.0025 -0.9999 0.0110
vn 1.0000 -0.0000 0.0046
usemtl wood_collect
s 1
f 1/1/1 2/2/2 3/3/3
f 3/3/3 2/2/2 4/4/4
f 5/5/1 3/3/3 6/6/5
f 6/6/5 3/3/3 7/7/6
f 4/4/4 8/8/2 9/9/7
f 9/9/7 8/8/2 10/10/8
f 7/7/6 9/9/7 11/11/5
f 11/11/5 9/9/7 12/12/9
f 13/13/10 14/14/10 15/15/10
f 15/15/10 14/14/10 16/16/10
f 17/17/10 18/18/10 19/19/10
f 19/19/10 18/18/10 20/20/10
f 21/21/11 22/22/11 23/23/11
f 23/23/11 22/22/11 24/24/11
f 25/25/12 26/26/13 27/27/14
f 27/27/14 26/26/13 28/28/15
f 29/29/16 27/27/14 28/28/15
f 30/30/17 31/31/17 32/32/17
f 32/32/17 31/31/17 33/33/17
f 34/34/18 35/35/19 36/36/20
f 36/36/20 37/37/21 38/38/22
f 39/39/23 40/40/23 41/41/23
f 41/41/23 40/40/23 42/42/23
f 43/43/24 44/44/24 45/45/25
f 45/45/25 44/44/24 46/46/25
f 47/47/26 48/48/26 49/49/26
f 49/49/26 48/48/26 50/50/26
f 51/51/27 52/52/27 53/53/27
f 53/53/27 52/52/27 54/54/27
f 55/55/11 56/56/11 57/57/11
f 57/57/11 56/56/11 58/58/11
f 59/59/11 60/60/11 61/61/11
f 61/61/11 60/60/11 62/62/11
f 63/63/11 64/64/11 65/65/11
f 65/65/11 64/64/11 66/66/11
f 67/67/11 68/68/11 69/69/11
f 69/69/11 68/68/11 70/70/11
f 3/3/3 4/4/4 7/7/6
f 7/7/6 4/4/4 9/9/7
f 71/71/17 72/72/17 73/73/17
f 73/73/17 72/72/17 74/74/17
f 75/75/28 76/76/28 77/77/28
f 77/77/28 76/76/28 78/78/28
f 79/79/10 80/80/10 81/81/10
f 81/81/10 80/80/10 82/82/10
f 83/83/29 84/84/29 85/85/29
f 85/85/29 84/84/29 86/86/29
f 87/87/10 88/88/10 89/89/10
f 89/89/10 88/88/10 90/90/10
f 91/91/10 92/92/10 93/93/10
f 93/93/10 92/92/10 94/94/10
f 95/95/30 96/96/31 97/97/32
f 97/97/32 96/96/31 98/98/33
f 99/99/10 100/100/10 101/101/10
f 101/101/10 100/100/10 102/102/10
f 103/103/11 104/104/11 105/105/11
f 105/105/11 104/104/11 106/106/11
f 107/107/34 108/108/35 109/109/36
f 109/109/36 108/108/35 110/110/37
f 111/111/38 112/112/38 113/113/38
f 113/113/38 112/112/38 114/114/38
f 115/115/39 116/116/40 117/117/40
f 117/117/40 116/116/40 118/118/41
f 17/17/10 19/19/10 119/119/10
f 119/119/10 19/19/10 120/120/10
f 121/121/42 122/122/43 123/123/43
f 123/123/43 122/122/43 124/124/44
f 125/125/10 126/126/10 127/127/10
f 127/127/10 126/126/10 128/128/10
f 129/129/45 130/130/46 131/131/47
f 131/131/47 130/130/46 132/132/48
f 133/133/49 134/134/50 135/135/51
f 135/135/51 134/134/50 136/136/52
f 137/137/53 138/138/54 139/139/53
f 139/139/53 138/138/54 140/140/54
f 141/141/55 142/142/56 143/143/57
f 143/143/57 142/142/56 144/144/58
f 145/145/59 146/146/60 147/147/61
f 147/147/61 146/146/60 148/148/62
f 149/149/10 150/150/10 151/151/10
f 151/151/10 150/150/10 152/152/10
f 153/153/11 154/154/11 155/155/11
f 155/155/11 154/154/11 156/156/11
f 157/157/23 158/158/23 159/159/23
f 159/159/23 158/158/23 160/160/23
f 161/161/34 162/162/35 163/163/36
f 163/163/36 162/162/35 164/164/37
f 165/165/63 166/166/63 167/167/63
f 167/167/63 166/166/63 168/168/63
f 169/169/39 170/170/64 171/171/65
f 171/171/65 170/170/64 172/172/41
f 173/173/66 174/174/67 175/175/67
f 175/175/67 174/174/67 176/176/68
f 177/177/69 178/178/70 179/179/70
f 179/179/70 178/178/70 180/180/71
f 181/181/72 182/182/72 183/183/72
f 183/183/72 182/182/72 184/184/72
f 185/185/73 186/186/73 187/187/73
f 187/187/73 186/186/73 188/188/73
f 189/189/74 190/190/74 191/191/74
f 191/191/74 190/190/74 192/192/74
f 193/193/75 194/194/75 195/195/75
f 195/195/75 194/194/75 196/196/75
f 197/197/66 198/198/67 199/199/67
f 199/199/67 198/198/67 200/200/76
f 201/201/69 202/202/70 203/203/70
f 203/203/70 202/202/70 204/204/77
f 205/205/72 206/206/72 207/207/72
f 207/207/72 206/206/72 208/208/72
f 209/209/78 210/210/78 211/211/78
f 211/211/78 210/210/78 212/212/78
f 213/213/74 214/214/74 215/215/74
f 215/215/74 214/214/74 216/216/74
f 217/217/27 218/218/27 219/219/27
f 219/219/27 218/218/27 220/220/27
f 38/38/22 34/34/18 36/36/20
