# Blender v2.78 (sub 0) OBJ File: ''
# www.blender.org
o RArm
v -0.130540 1.504506 0.507612
v -0.130540 0.779596 0.244006
v -0.130540 0.779596 0.507612
v -0.130540 1.511816 0.244006
v 0.130540 0.779596 0.244006
v 0.130540 1.504506 0.507612
v 0.130540 0.779596 0.507612
v 0.130540 1.511816 0.244006
vt 0.8444 0.1253
vt 0.9910 0.0508
vt 0.9908 0.1253
vt 0.8518 0.0349
vt 0.9918 0.1259
vt 0.9900 0.0504
vt 0.8533 0.2021
vt 0.9949 0.1953
vt 0.9069 0.1300
vt 0.9354 0.0887
vt 0.9107 0.0811
vt 0.8517 0.0351
vt 0.8446 0.1260
vt 0.9316 0.1377
vn -0.5788 0.5686 0.5846
vn -0.7071 0.0000 -0.7071
vn -0.7071 -0.0000 0.7071
vn -0.5759 0.5860 -0.5700
vn 0.7071 0.0000 -0.7071
vn 0.5788 0.5686 0.5846
vn 0.7071 -0.0000 0.7071
vn 0.5759 0.5860 -0.5700
s 1
f 1/1/1 2/2/2 3/3/3
f 4/4/4 5/5/5 2/6/2
f 5/5/5 6/7/6 7/8/7
f 6/7/6 3/3/3 7/8/7
f 4/9/4 6/10/6 8/11/8
f 1/1/1 4/12/4 2/2/2
f 4/4/4 8/13/8 5/5/5
f 5/5/5 8/13/8 6/7/6
f 6/7/6 1/1/1 3/3/3
f 4/9/4 1/14/1 6/10/6
