# Blender v2.78 (sub 0) OBJ File: ''
# www.blender.org
o RLeg
v -0.139878 0.408428 0.027734
v -0.136487 0.756361 0.258273
v -0.144588 0.756361 0.000000
v 0.136451 0.408428 0.258512
v 0.142956 0.756361 0.258273
v 0.178804 0.448445 0.162288
v 0.154980 0.756361 0.148429
v 0.162222 0.467454 0.056972
v 0.148099 0.365533 0.028460
v 0.148099 0.441901 0.028460
v 0.162222 0.339980 0.186686
v 0.162222 0.339980 0.056972
v 0.122106 0.510206 0.198188
v 0.122106 0.339485 0.250241
v 0.122106 0.467950 0.250241
v 0.122106 0.297228 0.198188
v 0.122106 0.297228 0.045469
v 0.122106 0.510206 0.045469
v 0.162222 0.467454 0.186686
v 0.122106 0.467513 -0.006584
v 0.122106 0.339921 -0.006584
v 0.148099 0.365272 0.215198
v 0.148099 0.442163 0.215198
v -0.132560 0.754527 0.256098
v -0.132560 0.111802 -0.005256
v -0.132560 0.111802 0.256098
v -0.132560 0.754527 -0.005256
v 0.132560 0.111802 -0.005256
v 0.132560 0.754527 -0.005256
v 0.132560 0.111802 0.256098
v 0.132560 0.754527 0.256098
v -0.138469 0.408428 0.258512
v -0.134703 -0.004775 -0.006975
v 0.133297 -0.004775 0.257539
v -0.134703 -0.004775 0.257539
v 0.133297 0.116862 -0.006975
v 0.133297 -0.004775 -0.006975
v 0.200310 0.080476 0.025956
v -0.134703 0.116862 0.257539
v -0.134703 0.116862 -0.006975
v 0.190668 -0.004503 0.025956
v 0.200310 0.080476 0.224607
v 0.190668 -0.004503 0.224607
v 0.133297 0.116862 0.257539
vt 0.6587 0.0039
vt 0.6116 0.2114
vt 0.6614 0.2114
vt 0.6112 0.2127
vt 0.5219 0.0057
vt 0.5310 0.2159
vt 0.5310 0.2164
vt 0.5012 0.0151
vt 0.5075 0.2080
vt 0.6115 0.2136
vt 0.5285 0.2657
vt 0.6134 0.3361
vt 0.3518 0.1392
vt 0.3568 0.1034
vt 0.3568 0.1302
vt 0.3291 0.0944
vt 0.3518 0.0944
vt 0.3270 0.1542
vt 0.3179 0.0943
vt 0.3179 0.1393
vt 0.3270 0.0794
vt 0.3538 0.0794
vt 0.3538 0.1542
vt 0.3291 0.1392
vt 0.3630 0.1392
vt 0.3630 0.0944
vt 0.3241 0.1033
vt 0.3241 0.1303
vt 0.2592 0.2609
vt 0.2069 0.0017
vt 0.2592 0.0017
vt 0.2060 0.2609
vt 0.3120 0.0017
vt 0.2060 0.0017
vt 0.3120 0.2609
vt 0.3686 0.0017
vt 0.3118 0.2609
vt 0.2590 0.0017
vt 0.3118 0.0017
vt 0.1557 0.1138
vt 0.2085 0.0097
vt 0.1557 0.0097
vt 0.6023 0.0039
vt 0.6022 0.0037
vt 0.5205 0.0069
vt 0.5313 0.2136
vt 0.2069 0.2609
vt 0.3686 0.2609
vt 0.2590 0.2609
vt 0.2085 0.1138
vt 0.0945 0.1552
vt 0.1103 0.1241
vt 0.0945 0.1241
vt 0.0070 0.0234
vt 0.0861 0.0742
vt 0.0871 0.0146
vt 0.1043 0.0620
vt 0.0871 0.0146
vt 0.0070 0.0898
vt 0.0070 0.0233
vt 0.0318 0.0845
vt 0.0316 0.0192
vt 0.1122 0.0228
vt 0.1240 0.0761
vt 0.1323 0.0377
vt 0.1137 0.1514
vt 0.1103 0.1552
vt 0.1043 0.0620
vt 0.0861 0.0742
vt 0.1240 0.0756
vt 0.1090 0.0362
vt 0.1287 0.0543
vt 0.0070 0.0898
vt 0.1117 0.0240
vt 0.0070 0.0899
vt 0.1039 0.0612
vt 0.1137 0.1280
vt 0.1121 0.0217
vt 0.1040 0.0608
vn -0.9999 -0.0010 0.0163
vn -0.5695 0.5785 0.5840
vn -0.8138 0.5806 0.0255
vn 0.4702 -0.0082 0.8825
vn 0.5203 0.5969 0.6107
vn 0.9374 0.0005 0.3483
vn 0.5950 0.8011 0.0651
vn 0.8898 0.3559 -0.2856
vn 0.8420 -0.1308 -0.5234
vn 0.8420 0.1308 -0.5234
vn 0.8901 -0.3558 0.2847
vn 0.8898 -0.3559 -0.2856
vn 0.5632 0.7609 0.3222
vn -0.2184 -0.4487 0.8666
vn -0.2184 0.4487 0.8666
vn 0.5632 -0.7609 0.3222
vn 0.5641 -0.7598 -0.3233
vn 0.5641 0.7598 -0.3233
vn 0.8901 0.3558 0.2847
vn -0.2190 0.4462 -0.8677
vn -0.2190 -0.4462 -0.8677
vn 0.8421 -0.1313 0.5230
vn 0.8421 0.1313 0.5230
vn -0.5774 0.5774 0.5774
vn -0.7071 0.0000 -0.7071
vn -0.7071 -0.0000 0.7071
vn -0.5774 0.5774 -0.5774
vn 0.7071 0.0000 -0.7071
vn 0.5774 0.5774 -0.5774
vn 0.7071 -0.0000 0.7071
vn 0.5774 0.5774 0.5774
vn -0.7061 0.0045 0.7081
vn -0.5774 -0.5774 -0.5774
vn 0.1839 -0.6592 0.7291
vn -0.5774 -0.5774 0.5774
vn 0.3539 0.3452 -0.8692
vn 0.1839 -0.6592 -0.7291
vn 0.8285 0.3733 -0.4175
vn 0.6550 -0.6443 -0.3948
vn 0.8285 0.3733 0.4175
vn 0.6550 -0.6443 0.3948
vn 0.3539 0.3452 0.8692
s 1
f 1/1/1 2/2/2 3/3/3
f 2/4/2 4/5/4 5/6/5
f 5/7/5 6/8/6 7/9/7
f 2/10/2 7/11/7 3/12/3
f 8/13/8 9/14/9 10/15/10
f 8/13/8 11/16/11 12/17/12
f 13/18/13 14/19/14 15/20/15
f 12/17/12 16/21/16 17/22/17
f 18/23/18 19/24/19 8/13/8
f 20/25/20 9/14/9 21/26/21
f 17/22/17 9/14/9 12/17/12
f 18/23/18 10/15/10 20/25/20
f 18/23/18 21/26/21 17/22/17
f 22/27/22 15/20/15 14/19/14
f 16/21/16 22/27/22 14/19/14
f 13/18/13 23/28/23 19/24/19
f 19/24/19 22/27/22 11/16/11
f 24/29/24 25/30/25 26/31/26
f 27/32/27 28/33/28 25/34/25
f 29/35/29 30/36/30 28/33/28
f 31/37/31 26/38/26 30/39/30
f 29/40/29 24/41/24 31/42/31
f 1/1/1 32/43/32 2/2/2
f 2/4/2 32/44/32 4/5/4
f 5/7/5 4/45/4 6/8/6
f 2/10/2 5/46/5 7/11/7
f 8/13/8 12/17/12 9/14/9
f 8/13/8 19/24/19 11/16/11
f 13/18/13 16/21/16 14/19/14
f 12/17/12 11/16/11 16/21/16
f 18/23/18 13/18/13 19/24/19
f 20/25/20 10/15/10 9/14/9
f 17/22/17 21/26/21 9/14/9
f 18/23/18 8/13/8 10/15/10
f 18/23/18 20/25/20 21/26/21
f 22/27/22 23/28/23 15/20/15
f 16/21/16 11/16/11 22/27/22
f 13/18/13 15/20/15 23/28/23
f 19/24/19 23/28/23 22/27/22
f 24/29/24 27/47/27 25/30/25
f 27/32/27 29/35/29 28/33/28
f 29/35/29 31/48/31 30/36/30
f 31/37/31 24/49/24 26/38/26
f 29/40/29 27/50/27 24/41/24
f 33/51/33 34/52/34 35/53/35
f 33/54/33 36/55/36 37/56/37
f 38/57/38 37/56/37 36/55/36
f 34/58/34 39/59/26 35/60/35
f 35/60/35 40/61/25 33/62/33
f 41/63/39 42/64/40 43/65/41
f 41/66/39 34/52/34 37/67/37
f 34/58/34 42/68/40 44/69/42
f 42/70/40 36/71/36 44/72/42
f 33/51/33 37/67/37 34/52/34
f 33/54/33 40/73/25 36/55/36
f 38/57/38 41/74/39 37/56/37
f 34/58/34 44/69/42 39/59/26
f 35/60/35 39/75/26 40/61/25
f 41/63/39 38/76/38 42/64/40
f 41/66/39 43/77/41 34/52/34
f 34/58/34 43/78/41 42/68/40
f 42/70/40 38/79/38 36/71/36
