# Blender v2.92.0 OBJ File: ''
# www.blender.org
mtllib concrete_block_2.mtl
o 1.022
v 1.031967 0.726702 3.947800
v 1.031967 0.780000 3.848650
v 0.962704 0.780000 3.947800
v 0.912609 0.780000 0.047800
v 1.031967 0.780000 0.192750
v 1.031967 0.734096 0.047800
vt 0.979100 0.524800
vt 0.979100 0.883300
vt 0.728600 0.524800
vt 0.512100 0.695200
vt 0.386300 0.964600
vt 0.313600 0.735000
vn 0.5611 0.7291 0.3919
vn 0.3442 0.8951 -0.2835
usemtl crete_beton_lom.001
s 1
f 1/1/1 2/2/1 3/3/1
f 4/4/2 5/5/2 6/6/2
o 0.026
v 1.031967 0.000002 0.047800
v 1.031967 0.780000 0.192750
v 1.031967 -0.000000 3.947800
v 1.031967 0.780000 3.848650
v 1.031967 0.734096 0.047800
v 1.031967 0.726702 3.947800
v 0.063732 -0.000000 3.947800
v 0.086664 0.644230 3.947800
v -0.025297 -0.000000 3.947800
v -0.025297 0.780000 3.947800
v 0.086664 0.644230 3.947800
v 0.962704 0.780000 3.947800
v 0.920008 0.644230 3.947800
v 0.912609 0.780000 0.047800
v -0.025297 0.780000 0.047800
v 1.031967 0.780000 3.848650
v -0.025297 0.780000 3.947800
v 1.031967 0.780000 0.192750
v 0.962704 0.780000 3.947800
v 0.063732 -0.000000 3.947800
v -0.025297 -0.000000 3.947800
v 0.067581 0.000002 0.047800
v -0.025297 0.000002 0.047800
v 0.067581 0.000002 0.047800
v -0.025297 0.000002 0.047800
v 0.086664 0.644229 0.047800
v -0.025297 0.780000 0.047800
v 0.920008 0.644229 0.047800
v 0.086664 0.644229 0.047800
v 0.912609 0.780000 0.047800
v 1.031967 0.734096 0.047800
v 0.942938 0.000002 0.047800
v 0.920008 0.644229 0.047800
v 1.031967 0.000002 0.047800
v 1.031967 0.734096 0.047800
v 0.942938 -0.000000 3.947800
v 1.031967 -0.000000 3.947800
v 0.920008 0.644230 3.947800
v 1.031967 0.726702 3.947800
v 1.031967 0.726702 3.947800
v 0.942938 0.000002 0.047800
v 0.942938 -0.000000 3.947800
v 0.920008 0.644229 0.047800
v 0.920008 0.644230 3.947800
v 0.942938 0.000002 0.047800
v 1.031967 0.000002 0.047800
v 0.942938 -0.000000 3.947800
v 1.031967 -0.000000 3.947800
v -0.025297 -0.000000 3.947800
v -0.025297 0.780000 3.947800
v -0.025297 0.000002 0.047800
v -0.025297 0.780000 0.047800
v 0.063732 -0.000000 3.947800
v 0.067581 0.000002 0.047800
v 0.086664 0.644230 3.947800
v 0.086664 0.644229 0.047800
v 0.086664 0.644230 3.947800
v 0.086664 0.644229 0.047800
v 0.920008 0.644230 3.947800
v 0.920008 0.644229 0.047800
vt 0.968700 0.365600
vt 0.968700 0.483800
vt 0.486900 0.483800
vt 0.968700 0.244400
vt 0.486900 0.362600
vt 0.968700 0.362600
vt 0.547500 0.605100
vt 0.786900 0.605100
vt 0.786900 0.547500
vt 0.485800 0.364600
vt 0.967700 0.364600
vt 0.485800 0.482800
vt 0.817200 0.786900
vt 0.817200 0.547500
vt 0.789900 0.786900
vt 0.605100 0.608100
vt 0.605100 0.847500
vt 0.547500 0.847500
vt 0.608100 0.847500
vt 0.665700 0.847500
vt 0.665700 0.608100
vt 0.486900 0.786900
vt 0.544500 0.547500
vt 0.544500 0.786900
vt 0.483800 0.483800
vt 0.244400 0.483800
vt 0.483800 0.002000
vt 0.482800 0.001000
vt 0.243400 0.482800
vt 0.243400 0.001000
vt 0.485800 0.243400
vt 0.485800 0.361600
vt 0.967700 0.243400
vt 0.607100 0.846500
vt 0.607100 0.607100
vt 0.664700 0.607100
vt 0.483800 0.999000
vt 0.483800 0.971700
vt 0.002000 0.999000
vt 0.001000 0.998000
vt 0.482800 0.970700
vt 0.001000 0.970700
vt 0.786900 0.877800
vt 0.786900 0.850500
vt 0.547500 0.877800
vt 0.546500 0.607100
vt 0.546500 0.846500
vt 0.604100 0.607100
vt 0.546500 0.546500
vt 0.785900 0.546500
vt 0.546500 0.604100
vt 0.485800 0.785900
vt 0.485800 0.546500
vt 0.543500 0.546500
vt 0.696000 0.608100
vt 0.696000 0.665700
vt 0.668700 0.665700
vt 0.546500 0.849500
vt 0.785900 0.849500
vt 0.546500 0.876800
vt 0.486900 0.544500
vt 0.726300 0.544500
vt 0.726300 0.486900
vt 0.788900 0.546500
vt 0.816200 0.546500
vt 0.788900 0.785900
vt 0.485800 0.485800
vt 0.725300 0.485800
vt 0.485800 0.543500
vt 0.667700 0.664700
vt 0.667700 0.607100
vt 0.695000 0.607100
vt 0.483800 0.968700
vt 0.002000 0.968700
vt 0.483800 0.729300
vt 0.482800 0.728300
vt 0.001000 0.967700
vt 0.001000 0.728300
vt 0.999000 0.483800
vt 0.971700 0.483800
vt 0.999000 0.002000
vt 0.998000 0.001000
vt 0.970700 0.482800
vt 0.970700 0.001000
vt 0.483800 0.726300
vt 0.483800 0.486900
vt 0.002000 0.726300
vt 0.001000 0.725300
vt 0.482800 0.485800
vt 0.001000 0.485800
vt 0.241400 0.483800
vt 0.241400 0.002000
vt 0.002000 0.483800
vt 0.001000 0.482800
vt 0.240400 0.001000
vt 0.001000 0.001000
vt 0.968700 0.241400
vt 0.486900 0.241400
vt 0.968700 0.002000
vt 0.967700 0.001000
vt 0.485800 0.240400
vt 0.485800 0.001000
vn 1.0000 -0.0000 0.0000
vn 0.0000 0.0000 1.0000
vn -0.0000 1.0000 0.0000
vn 0.0000 -1.0000 -0.0000
vn 0.0000 0.0000 -1.0000
vn -0.9994 -0.0356 -0.0000
vn -1.0000 0.0000 0.0000
vn 0.9994 -0.0356 0.0010
vn 0.9995 -0.0324 0.0005
vn 0.9995 -0.0325 0.0005
vn 0.9996 -0.0296 0.0000
usemtl crete_walls_02.001
s 1
f 7/7/3 8/8/3 9/9/3
f 9/10/3 8/11/3 10/12/3
f 7/13/3 11/14/3 8/15/3
f 12/16/3 9/17/3 10/18/3
f 13/19/4 14/20/4 15/21/4
f 15/22/4 14/23/4 16/24/4
f 16/25/4 17/26/4 18/27/4
f 18/28/4 17/29/4 19/30/4
f 20/31/5 21/32/5 22/33/5
f 22/34/5 21/35/5 23/36/5
f 24/37/5 20/38/5 22/39/5
f 23/40/5 25/41/5 22/42/5
f 26/43/6 27/44/6 28/45/6
f 28/46/6 27/47/6 29/48/6
f 30/49/7 31/50/7 32/51/7
f 32/52/7 31/53/7 33/54/7
f 34/55/7 35/56/7 36/57/7
f 36/58/7 35/59/7 33/60/7
f 34/61/7 36/62/7 37/63/7
f 38/64/7 39/65/7 40/66/7
f 40/67/7 39/68/7 41/69/7
f 42/70/4 43/71/4 44/72/4
f 44/73/4 43/74/4 45/75/4
f 19/76/4 46/77/4 18/78/4
f 47/79/8 48/80/8 49/81/8
f 49/82/8 48/83/8 50/84/8
f 51/85/6 52/86/6 53/87/6
f 53/88/6 52/89/6 54/90/6
f 55/91/9 56/92/9 57/93/9
f 57/94/9 56/95/9 58/96/9
f 59/97/10 60/98/11 61/99/12
f 61/100/12 60/101/11 62/102/13
f 63/103/6 64/104/6 65/105/6
f 65/106/6 64/107/6 66/108/6
