# Blender v2.92.0 OBJ File: ''
# www.blender.org
mtllib fenceangle.mtl
o 0.019_0.021
v 0.823820 1.623644 0.005890
v 0.742123 1.623644 0.005890
v 0.742123 0.000644 0.005890
v 0.823820 0.000644 0.005890
v 0.823820 0.000644 -0.034110
v 0.823820 1.623644 -0.034110
v 0.742123 1.623644 -0.034110
v 0.742123 0.000644 -0.034110
v 0.992401 1.623644 0.002912
v 0.910704 1.623644 0.002912
v 0.910704 0.000644 0.002912
v 0.992401 0.000644 0.002912
v 0.992401 0.000644 -0.037088
v 0.992401 1.623644 -0.037088
v 0.910704 1.623644 -0.037088
v 0.910704 0.000644 -0.037088
v 0.639777 1.623644 0.006887
v 0.558079 1.623644 0.006887
v 0.558080 0.000644 0.006887
v 0.639777 0.000644 0.006887
v 0.639777 0.000644 -0.033113
v 0.639777 1.623644 -0.033113
v 0.558079 1.623644 -0.033113
v 0.558080 0.000644 -0.033113
v 0.019828 0.275916 0.493720
v 0.019828 0.275916 0.002727
v 0.059585 0.275916 0.002727
v 0.059585 0.275916 0.493720
v 0.019828 0.402428 0.493720
v 0.059585 0.402428 0.493720
v 0.059585 0.402428 0.002727
v 0.019828 0.402428 0.002727
v -0.019237 1.623644 0.429102
v -0.019237 1.623644 0.347405
v -0.019237 0.000644 0.347405
v -0.019237 0.000644 0.429102
v 0.020763 0.000644 0.429102
v 0.020763 1.623644 0.429102
v 0.020763 1.623644 0.347405
v 0.020763 0.000644 0.347405
v 0.519902 1.133169 0.047286
v 0.519902 1.259382 0.047606
v 0.059459 1.259382 0.047606
v 0.059460 1.133169 0.047286
v 0.059460 1.133270 0.007622
v 0.519902 1.133270 0.007622
v 0.519902 1.259483 0.007943
v 0.059460 1.259483 0.007943
v 0.323820 1.623644 0.005890
v 0.242123 1.623644 0.005890
v 0.242123 0.000644 0.005890
v 0.323820 0.000644 0.005890
v 0.323820 0.000644 -0.034110
v 0.323820 1.623644 -0.034110
v 0.242123 1.623644 -0.034110
v 0.242123 0.000644 -0.034110
v 0.019828 1.137661 0.493720
v 0.019828 1.264174 0.493720
v 0.019828 1.264173 0.002727
v 0.019828 1.137661 0.002727
v 0.059585 1.137661 0.002727
v 0.059585 1.137661 0.493720
v 0.059585 1.264174 0.493720
v 0.059585 1.264173 0.002727
v 0.492401 1.623644 0.002912
v 0.410704 1.623644 0.002912
v 0.410704 0.000644 0.002912
v 0.492401 0.000644 0.002912
v 0.492401 0.000644 -0.037088
v 0.492401 1.623644 -0.037088
v 0.410704 1.623644 -0.037088
v 0.410704 0.000644 -0.037088
v -0.019237 1.623644 0.098208
v -0.019237 1.623644 0.016511
v -0.019237 0.000644 0.016511
v -0.019237 0.000644 0.098208
v 0.020763 0.000644 0.098208
v 0.020763 1.623644 0.098208
v 0.020763 1.623644 0.016511
v 0.020763 0.000644 0.016511
v -0.019237 1.623644 0.262695
v -0.019237 1.623644 0.180998
v -0.019237 0.000644 0.180998
v -0.019237 0.000644 0.262695
v 0.020763 0.000644 0.262695
v 0.020763 1.623644 0.262695
v 0.020763 1.623644 0.180998
v 0.020763 0.000644 0.180998
v 0.139777 1.623644 0.006887
v 0.058079 1.623644 0.006887
v 0.058080 0.000644 0.006887
v 0.139777 0.000644 0.006887
v 0.139777 0.000644 -0.033113
v 0.139777 1.623644 -0.033113
v 0.058079 1.623644 -0.033113
v 0.058080 0.000644 -0.033113
v 0.519902 0.275320 0.047286
v 0.519902 0.401533 0.047606
v 0.059459 0.401533 0.047606
v 0.059460 0.275320 0.047286
v 0.059460 0.275421 0.007622
v 0.519902 0.275421 0.007622
v 0.519902 0.401633 0.007943
v 0.059460 0.401633 0.007943
v 0.999902 1.133169 0.047286
v 0.999902 1.259382 0.047606
v 0.519459 1.259382 0.047606
v 0.519460 1.133169 0.047286
v 0.519460 1.133270 0.007622
v 0.999902 1.133270 0.007622
v 0.999902 1.259483 0.007943
v 0.519460 1.259483 0.007943
v 0.999902 0.275320 0.047286
v 0.999902 0.401533 0.047606
v 0.519459 0.401533 0.047606
v 0.519460 0.275320 0.047286
v 0.519460 0.275421 0.007622
v 0.999902 0.275421 0.007622
v 0.999902 0.401633 0.007943
v 0.519460 0.401633 0.007943
v 0.019828 0.275916 0.997500
v 0.019828 0.275916 0.492727
v 0.059585 0.275916 0.492727
v 0.059585 0.275916 0.997500
v 0.019828 0.402428 0.997500
v 0.059585 0.402428 0.997500
v 0.059585 0.402428 0.492727
v 0.019828 0.402428 0.492727
v 0.019828 1.137661 0.997500
v 0.019828 1.264174 0.997500
v 0.019828 1.264173 0.492727
v 0.019828 1.137661 0.492727
v 0.059585 1.137661 0.492727
v 0.059585 1.137661 0.997500
v 0.059585 1.264174 0.997500
v 0.059585 1.264173 0.492727
v -0.019237 1.623644 0.929102
v -0.019237 1.623644 0.847405
v -0.019237 0.000644 0.847405
v -0.019237 0.000644 0.929102
v 0.020763 0.000644 0.929102
v 0.020763 1.623644 0.929102
v 0.020763 1.623644 0.847405
v 0.020763 0.000644 0.847405
v -0.019237 1.623644 0.598208
v -0.019237 1.623644 0.516511
v -0.019237 0.000644 0.516511
v -0.019237 0.000644 0.598208
v 0.020763 0.000644 0.598208
v 0.020763 1.623644 0.598208
v 0.020763 1.623644 0.516511
v 0.020763 0.000644 0.516511
v -0.019237 1.623644 0.762695
v -0.019237 1.623644 0.680998
v -0.019237 0.000644 0.680998
v -0.019237 0.000644 0.762695
v 0.020763 0.000644 0.762695
v 0.020763 1.623644 0.762695
v 0.020763 1.623644 0.680998
v 0.020763 0.000644 0.680998
vt 0.924900 0.000600
vt 0.847600 0.001400
vt 0.843700 0.990300
vt 0.925000 0.989300
vt 0.340200 0.057700
vt 0.322200 0.905700
vt 0.365600 0.906400
vt 0.381700 0.058600
vt 0.228200 0.959500
vt 0.150200 0.957400
vt 0.151300 0.995700
vt 0.228500 0.995300
vt 0.470300 0.018600
vt 0.441400 0.016700
vt 0.431100 0.978300
vt 0.467400 0.979900
vt 0.830400 0.945000
vt 0.768600 0.945000
vt 0.768600 0.981800
vt 0.832700 0.981000
vt 0.227600 0.005000
vt 0.143600 0.003700
vt 0.143600 0.993600
vt 0.227900 0.993100
vt 0.570700 0.001000
vt 0.493300 0.002900
vt 0.489400 0.991800
vt 0.570700 0.990800
vt 0.340200 0.090500
vt 0.334700 0.994800
vt 0.370300 0.992300
vt 0.380100 0.082000
vt 0.228200 0.959500
vt 0.150200 0.957400
vt 0.151300 0.995700
vt 0.228500 0.995300
vt 0.470300 0.018600
vt 0.441400 0.016700
vt 0.431100 0.978300
vt 0.467400 0.979900
vt 0.830400 0.945000
vt 0.768600 0.945000
vt 0.768600 0.981800
vt 0.832700 0.981000
vt 0.658700 0.003000
vt 0.574800 0.001800
vt 0.574800 0.991600
vt 0.659000 0.991100
vt 0.667200 0.004900
vt 0.589800 0.006900
vt 0.585900 0.995700
vt 0.667200 0.994700
vt 0.021400 0.006100
vt 0.006600 0.927600
vt 0.054600 0.925100
vt 0.061400 0.008600
vt 0.228200 0.959500
vt 0.150200 0.957400
vt 0.151300 0.995700
vt 0.228500 0.995300
vt 0.470300 0.018600
vt 0.441400 0.016700
vt 0.431100 0.978300
vt 0.467400 0.979900
vt 0.830400 0.945000
vt 0.768600 0.945000
vt 0.768600 0.981800
vt 0.832700 0.981000
vt 0.837800 0.003000
vt 0.753900 0.001800
vt 0.753900 0.991600
vt 0.838200 0.991100
vt 0.834800 0.116000
vt 0.770400 0.115200
vt 0.768100 0.889500
vt 0.833600 0.890400
vt 0.568000 0.102700
vt 0.516900 0.102700
vt 0.507000 0.875500
vt 0.555600 0.873000
vt 0.670200 0.092400
vt 0.589300 0.092400
vt 0.581900 0.865200
vt 0.660200 0.862700
vt 0.668500 0.975300
vt 0.580300 0.974300
vt 0.580300 0.998100
vt 0.668500 0.996600
vt 0.764900 0.111100
vt 0.679900 0.110200
vt 0.676000 0.883900
vt 0.757400 0.883900
vt 0.758700 0.975800
vt 0.675400 0.975800
vt 0.675100 0.999600
vt 0.759700 0.999000
vt 0.395500 0.001000
vt 0.318100 0.002900
vt 0.314200 0.991800
vt 0.395500 0.990800
vt 0.746800 0.958300
vt 0.752200 0.002800
vt 0.682200 0.009600
vt 0.679300 0.959000
vt 0.228200 0.959500
vt 0.150200 0.957400
vt 0.151300 0.995700
vt 0.228500 0.995300
vt 0.470300 0.018600
vt 0.441400 0.016700
vt 0.431100 0.978300
vt 0.467400 0.979900
vt 0.830400 0.945000
vt 0.768600 0.945000
vt 0.768600 0.981800
vt 0.832700 0.981000
vt 0.662600 0.003000
vt 0.578700 0.001800
vt 0.578700 0.991600
vt 0.662900 0.991100
vt 0.670200 0.092400
vt 0.589300 0.092400
vt 0.581900 0.865200
vt 0.660200 0.862700
vt 0.834800 0.116000
vt 0.770400 0.115200
vt 0.768100 0.889500
vt 0.833600 0.890400
vt 0.758700 0.975800
vt 0.675400 0.975800
vt 0.675100 0.999600
vt 0.759700 0.999000
vt 0.568000 0.102700
vt 0.516900 0.102700
vt 0.507000 0.875500
vt 0.555600 0.873000
vt 0.668500 0.975300
vt 0.580300 0.974300
vt 0.580300 0.998100
vt 0.668500 0.996600
vt 0.764900 0.111100
vt 0.679900 0.110200
vt 0.676000 0.883900
vt 0.757400 0.883900
vt 0.924900 0.000600
vt 0.847600 0.001400
vt 0.843700 0.990300
vt 0.925000 0.989300
vt 0.340200 0.057700
vt 0.322200 0.905700
vt 0.365600 0.906400
vt 0.381700 0.058600
vt 0.228200 0.959500
vt 0.150200 0.957400
vt 0.151300 0.995700
vt 0.228500 0.995300
vt 0.470300 0.018600
vt 0.441400 0.016700
vt 0.431100 0.978300
vt 0.467400 0.979900
vt 0.830400 0.945000
vt 0.768600 0.945000
vt 0.768600 0.981800
vt 0.832700 0.981000
vt 0.227600 0.005000
vt 0.143600 0.003700
vt 0.143600 0.993600
vt 0.227900 0.993100
vt 0.670200 0.092400
vt 0.589300 0.092400
vt 0.581900 0.865200
vt 0.660200 0.862700
vt 0.834800 0.116000
vt 0.770400 0.115200
vt 0.768100 0.889500
vt 0.833600 0.890400
vt 0.758700 0.975800
vt 0.675400 0.975800
vt 0.675100 0.999600
vt 0.759700 0.999000
vt 0.568000 0.102700
vt 0.516900 0.102700
vt 0.507000 0.875500
vt 0.555600 0.873000
vt 0.668500 0.975300
vt 0.580300 0.974300
vt 0.580300 0.998100
vt 0.668500 0.996600
vt 0.764900 0.111100
vt 0.679900 0.110200
vt 0.676000 0.883900
vt 0.757400 0.883900
vt 0.570700 0.001000
vt 0.493300 0.002900
vt 0.489400 0.991800
vt 0.570700 0.990800
vt 0.340200 0.090500
vt 0.334700 0.994800
vt 0.370300 0.992300
vt 0.380100 0.082000
vt 0.228200 0.959500
vt 0.150200 0.957400
vt 0.151300 0.995700
vt 0.228500 0.995300
vt 0.470300 0.018600
vt 0.441400 0.016700
vt 0.431100 0.978300
vt 0.467400 0.979900
vt 0.830400 0.945000
vt 0.768600 0.945000
vt 0.768600 0.981800
vt 0.832700 0.981000
vt 0.658700 0.003000
vt 0.574800 0.001800
vt 0.574800 0.991600
vt 0.659000 0.991100
vt 0.140500 0.004000
vt 0.075600 0.003400
vt 0.073500 0.988300
vt 0.141600 0.988800
vt 0.246400 0.006900
vt 0.237900 0.936100
vt 0.292800 0.933200
vt 0.297300 0.009500
vt 0.228200 0.959500
vt 0.150200 0.957400
vt 0.151300 0.995700
vt 0.228500 0.995300
vt 0.470300 0.018600
vt 0.441400 0.016700
vt 0.431100 0.978300
vt 0.467400 0.979900
vt 0.763000 0.006900
vt 0.679100 0.005700
vt 0.679100 0.995500
vt 0.763300 0.995000
vt 0.830400 0.945000
vt 0.768600 0.945000
vt 0.768600 0.981800
vt 0.832700 0.981000
vt 0.577300 0.001000
vt 0.500000 0.003000
vt 0.496000 0.991800
vt 0.577300 0.990800
vt 0.335000 0.069900
vt 0.332400 0.981400
vt 0.393200 0.976600
vt 0.389900 0.072400
vt 0.228200 0.959500
vt 0.150200 0.957400
vt 0.151300 0.995700
vt 0.228500 0.995300
vt 0.922500 0.001000
vt 0.838600 0.000800
vt 0.838600 0.989600
vt 0.922800 0.989100
vt 0.830400 0.945000
vt 0.768600 0.945000
vt 0.768600 0.981800
vt 0.832700 0.981000
vt 0.470300 0.018600
vt 0.441400 0.016700
vt 0.431100 0.978300
vt 0.467400 0.979900
vt 0.667200 0.004900
vt 0.589800 0.006900
vt 0.585900 0.995700
vt 0.667200 0.994700
vt 0.021400 0.006100
vt 0.006600 0.927600
vt 0.054600 0.925100
vt 0.061400 0.008600
vt 0.228200 0.959500
vt 0.150200 0.957400
vt 0.151300 0.995700
vt 0.228500 0.995300
vt 0.470300 0.018600
vt 0.441400 0.016700
vt 0.431100 0.978300
vt 0.467400 0.979900
vt 0.830400 0.945000
vt 0.768600 0.945000
vt 0.768600 0.981800
vt 0.832700 0.981000
vt 0.837800 0.003000
vt 0.753900 0.001800
vt 0.753900 0.991600
vt 0.838200 0.991100
vt 0.670200 0.092400
vt 0.589300 0.092400
vt 0.581900 0.865200
vt 0.660200 0.862700
vt 0.834800 0.116000
vt 0.770400 0.115200
vt 0.768100 0.889500
vt 0.833600 0.890400
vt 0.758700 0.975800
vt 0.675400 0.975800
vt 0.675100 0.999600
vt 0.759700 0.999000
vt 0.568000 0.102700
vt 0.516900 0.102700
vt 0.507000 0.875500
vt 0.555600 0.873000
vt 0.764900 0.111100
vt 0.679900 0.110200
vt 0.676000 0.883900
vt 0.757400 0.883900
vt 0.668500 0.975300
vt 0.580300 0.974300
vt 0.580300 0.998100
vt 0.668500 0.996600
vt 0.670200 0.092400
vt 0.589300 0.092400
vt 0.581900 0.865200
vt 0.660200 0.862700
vt 0.834800 0.116000
vt 0.770400 0.115200
vt 0.768100 0.889500
vt 0.833600 0.890400
vt 0.758700 0.975800
vt 0.675400 0.975800
vt 0.675100 0.999600
vt 0.759700 0.999000
vt 0.568000 0.102700
vt 0.516900 0.102700
vt 0.507000 0.875500
vt 0.555600 0.873000
vt 0.668500 0.975300
vt 0.580300 0.974300
vt 0.580300 0.998100
vt 0.668500 0.996600
vt 0.764900 0.111100
vt 0.679900 0.110200
vt 0.676000 0.883900
vt 0.757400 0.883900
vt 0.670200 0.092400
vt 0.589300 0.092400
vt 0.581900 0.865200
vt 0.660200 0.862700
vt 0.834800 0.116000
vt 0.770400 0.115200
vt 0.768100 0.889500
vt 0.833600 0.890400
vt 0.758700 0.975800
vt 0.675400 0.975800
vt 0.675100 0.999600
vt 0.759700 0.999000
vt 0.568000 0.102700
vt 0.516900 0.102700
vt 0.507000 0.875500
vt 0.555600 0.873000
vt 0.764900 0.111100
vt 0.679900 0.110200
vt 0.676000 0.883900
vt 0.757400 0.883900
vt 0.668500 0.975300
vt 0.580300 0.974300
vt 0.580300 0.998100
vt 0.668500 0.996600
vt 0.834800 0.116000
vt 0.770400 0.115200
vt 0.768100 0.889500
vt 0.833600 0.890400
vt 0.568000 0.102700
vt 0.516900 0.102700
vt 0.507000 0.875500
vt 0.555600 0.873000
vt 0.670200 0.092400
vt 0.589300 0.092400
vt 0.581900 0.865200
vt 0.660200 0.862700
vt 0.668500 0.975300
vt 0.580300 0.974300
vt 0.580300 0.998100
vt 0.668500 0.996600
vt 0.764900 0.111100
vt 0.679900 0.110200
vt 0.676000 0.883900
vt 0.757400 0.883900
vt 0.758700 0.975800
vt 0.675400 0.975800
vt 0.675100 0.999600
vt 0.759700 0.999000
vt 0.670200 0.092400
vt 0.589300 0.092400
vt 0.581900 0.865200
vt 0.660200 0.862700
vt 0.834800 0.116000
vt 0.770400 0.115200
vt 0.768100 0.889500
vt 0.833600 0.890400
vt 0.758700 0.975800
vt 0.675400 0.975800
vt 0.675100 0.999600
vt 0.759700 0.999000
vt 0.568000 0.102700
vt 0.516900 0.102700
vt 0.507000 0.875500
vt 0.555600 0.873000
vt 0.668500 0.975300
vt 0.580300 0.974300
vt 0.580300 0.998100
vt 0.668500 0.996600
vt 0.764900 0.111100
vt 0.679900 0.110200
vt 0.676000 0.883900
vt 0.757400 0.883900
vt 0.395500 0.001000
vt 0.318100 0.002900
vt 0.314200 0.991800
vt 0.395500 0.990800
vt 0.746800 0.958300
vt 0.752200 0.002800
vt 0.682200 0.009600
vt 0.679300 0.959000
vt 0.228200 0.959500
vt 0.150200 0.957400
vt 0.151300 0.995700
vt 0.228500 0.995300
vt 0.470300 0.018600
vt 0.441400 0.016700
vt 0.431100 0.978300
vt 0.467400 0.979900
vt 0.830400 0.945000
vt 0.768600 0.945000
vt 0.768600 0.981800
vt 0.832700 0.981000
vt 0.662600 0.003000
vt 0.578700 0.001800
vt 0.578700 0.991600
vt 0.662900 0.991100
vt 0.140500 0.004000
vt 0.075600 0.003400
vt 0.073500 0.988300
vt 0.141600 0.988800
vt 0.246400 0.006900
vt 0.237900 0.936100
vt 0.292800 0.933200
vt 0.297300 0.009500
vt 0.228200 0.959500
vt 0.150200 0.957400
vt 0.151300 0.995700
vt 0.228500 0.995300
vt 0.470300 0.018600
vt 0.441400 0.016700
vt 0.431100 0.978300
vt 0.467400 0.979900
vt 0.763000 0.006900
vt 0.679100 0.005700
vt 0.679100 0.995500
vt 0.763300 0.995000
vt 0.830400 0.945000
vt 0.768600 0.945000
vt 0.768600 0.981800
vt 0.832700 0.981000
vt 0.577300 0.001000
vt 0.500000 0.003000
vt 0.496000 0.991800
vt 0.577300 0.990800
vt 0.335000 0.069900
vt 0.332400 0.981400
vt 0.393200 0.976600
vt 0.389900 0.072400
vt 0.228200 0.959500
vt 0.150200 0.957400
vt 0.151300 0.995700
vt 0.228500 0.995300
vt 0.922500 0.001000
vt 0.838600 0.000800
vt 0.838600 0.989600
vt 0.922800 0.989100
vt 0.830400 0.945000
vt 0.768600 0.945000
vt 0.768600 0.981800
vt 0.832700 0.981000
vt 0.470300 0.018600
vt 0.441400 0.016700
vt 0.431100 0.978300
vt 0.467400 0.979900
vn 0.0000 -0.0000 1.0000
vn 1.0000 -0.0000 0.0000
vn 0.0000 1.0000 0.0000
vn -1.0000 0.0000 0.0000
vn 0.0000 -1.0000 -0.0000
vn 0.0000 0.0000 -1.0000
vn 0.0000 -0.0025 1.0000
vn 0.0000 -1.0000 -0.0025
vn 0.0000 1.0000 0.0025
vn 0.0000 0.0025 -1.0000
usemtl Material.063
s 1
f 1/1/1 2/2/1 3/3/1 4/4/1
f 1/5/2 4/6/2 5/7/2 6/8/2
f 2/9/3 1/10/3 6/11/3 7/12/3
f 2/13/4 7/14/4 8/15/4 3/16/4
f 4/17/5 3/18/5 8/19/5 5/20/5
f 5/21/6 8/22/6 7/23/6 6/24/6
usemtl Material.061
f 9/25/1 10/26/1 11/27/1 12/28/1
f 9/29/2 12/30/2 13/31/2 14/32/2
f 10/33/3 9/34/3 14/35/3 15/36/3
f 10/37/4 15/38/4 16/39/4 11/40/4
f 12/41/5 11/42/5 16/43/5 13/44/5
f 13/45/6 16/46/6 15/47/6 14/48/6
usemtl Material.058
f 17/49/1 18/50/1 19/51/1 20/52/1
f 17/53/2 20/54/2 21/55/2 22/56/2
f 18/57/3 17/58/3 22/59/3 23/60/3
f 18/61/4 23/62/4 24/63/4 19/64/4
f 20/65/5 19/66/5 24/67/5 21/68/5
f 21/69/6 24/70/6 23/71/6 22/72/6
usemtl Material.001
f 25/73/5 26/74/5 27/75/5 28/76/5
f 29/77/3 30/78/3 31/79/3 32/80/3
f 25/81/4 29/82/4 32/83/4 26/84/4
f 26/85/6 32/86/6 31/87/6 27/88/6
f 27/89/2 31/90/2 30/91/2 28/92/2
f 29/93/1 25/94/1 28/95/1 30/96/1
usemtl Material.015
f 33/97/4 34/98/4 35/99/4 36/100/4
f 33/101/1 36/102/1 37/103/1 38/104/1
f 34/105/3 33/106/3 38/107/3 39/108/3
f 34/109/6 39/110/6 40/111/6 35/112/6
f 36/113/5 35/114/5 40/115/5 37/116/5
f 37/117/2 40/118/2 39/119/2 38/120/2
usemtl Material.039
f 41/121/7 42/122/7 43/123/7 44/124/7
f 41/125/8 44/126/8 45/127/8 46/128/8
f 42/129/2 41/130/2 46/131/2 47/132/2
f 42/133/9 47/134/9 48/135/9 43/136/9
f 44/137/4 43/138/4 48/139/4 45/140/4
f 45/141/10 48/142/10 47/143/10 46/144/10
usemtl Material.011
f 49/145/1 50/146/1 51/147/1 52/148/1
f 49/149/2 52/150/2 53/151/2 54/152/2
f 50/153/3 49/154/3 54/155/3 55/156/3
f 50/157/4 55/158/4 56/159/4 51/160/4
f 52/161/5 51/162/5 56/163/5 53/164/5
f 53/165/6 56/166/6 55/167/6 54/168/6
usemtl Material.023
f 57/169/4 58/170/4 59/171/4 60/172/4
f 57/173/5 60/174/5 61/175/5 62/176/5
f 58/177/1 57/178/1 62/179/1 63/180/1
f 58/181/3 63/182/3 64/183/3 59/184/3
f 60/185/6 59/186/6 64/187/6 61/188/6
f 61/189/2 64/190/2 63/191/2 62/192/2
usemtl Material.012
f 65/193/1 66/194/1 67/195/1 68/196/1
f 65/197/2 68/198/2 69/199/2 70/200/2
f 66/201/3 65/202/3 70/203/3 71/204/3
f 66/205/4 71/206/4 72/207/4 67/208/4
f 68/209/5 67/210/5 72/211/5 69/212/5
f 69/213/6 72/214/6 71/215/6 70/216/6
usemtl Material.013
f 73/217/4 74/218/4 75/219/4 76/220/4
f 73/221/1 76/222/1 77/223/1 78/224/1
f 74/225/3 73/226/3 78/227/3 79/228/3
f 74/229/6 79/230/6 80/231/6 75/232/6
f 77/233/2 80/234/2 79/235/2 78/236/2
f 76/237/5 75/238/5 80/239/5 77/240/5
usemtl Material.014
f 81/241/4 82/242/4 83/243/4 84/244/4
f 81/245/1 84/246/1 85/247/1 86/248/1
f 82/249/3 81/250/3 86/251/3 87/252/3
f 85/253/2 88/254/2 87/255/2 86/256/2
f 84/257/5 83/258/5 88/259/5 85/260/5
f 82/261/6 87/262/6 88/263/6 83/264/6
usemtl Material.003
f 89/265/1 90/266/1 91/267/1 92/268/1
f 89/269/2 92/270/2 93/271/2 94/272/2
f 90/273/3 89/274/3 94/275/3 95/276/3
f 90/277/4 95/278/4 96/279/4 91/280/4
f 92/281/5 91/282/5 96/283/5 93/284/5
f 93/285/6 96/286/6 95/287/6 94/288/6
usemtl Material.009
f 97/289/7 98/290/7 99/291/7 100/292/7
f 97/293/8 100/294/8 101/295/8 102/296/8
f 98/297/2 97/298/2 102/299/2 103/300/2
f 98/301/9 103/302/9 104/303/9 99/304/9
f 101/305/10 104/306/10 103/307/10 102/308/10
f 100/309/4 99/310/4 104/311/4 101/312/4
usemtl Material.033
f 105/313/7 106/314/7 107/315/7 108/316/7
f 105/317/8 108/318/8 109/319/8 110/320/8
f 106/321/2 105/322/2 110/323/2 111/324/2
f 106/325/9 111/326/9 112/327/9 107/328/9
f 108/329/4 107/330/4 112/331/4 109/332/4
f 109/333/10 112/334/10 111/335/10 110/336/10
usemtl Material.026
f 113/337/7 114/338/7 115/339/7 116/340/7
f 113/341/8 116/342/8 117/343/8 118/344/8
f 114/345/2 113/346/2 118/347/2 119/348/2
f 114/349/9 119/350/9 120/351/9 115/352/9
f 117/353/10 120/354/10 119/355/10 118/356/10
f 116/357/4 115/358/4 120/359/4 117/360/4
usemtl Material.046
f 121/361/5 122/362/5 123/363/5 124/364/5
f 125/365/3 126/366/3 127/367/3 128/368/3
f 121/369/4 125/370/4 128/371/4 122/372/4
f 122/373/6 128/374/6 127/375/6 123/376/6
f 123/377/2 127/378/2 126/379/2 124/380/2
f 125/381/1 121/382/1 124/383/1 126/384/1
usemtl Material.037
f 129/385/4 130/386/4 131/387/4 132/388/4
f 129/389/5 132/390/5 133/391/5 134/392/5
f 130/393/1 129/394/1 134/395/1 135/396/1
f 130/397/3 135/398/3 136/399/3 131/400/3
f 132/401/6 131/402/6 136/403/6 133/404/6
f 133/405/2 136/406/2 135/407/2 134/408/2
usemtl Material.049
f 137/409/4 138/410/4 139/411/4 140/412/4
f 137/413/1 140/414/1 141/415/1 142/416/1
f 138/417/3 137/418/3 142/419/3 143/420/3
f 138/421/6 143/422/6 144/423/6 139/424/6
f 140/425/5 139/426/5 144/427/5 141/428/5
f 141/429/2 144/430/2 143/431/2 142/432/2
usemtl Material.051
f 145/433/4 146/434/4 147/435/4 148/436/4
f 145/437/1 148/438/1 149/439/1 150/440/1
f 146/441/3 145/442/3 150/443/3 151/444/3
f 146/445/6 151/446/6 152/447/6 147/448/6
f 149/449/2 152/450/2 151/451/2 150/452/2
f 148/453/5 147/454/5 152/455/5 149/456/5
usemtl Material.050
f 153/457/4 154/458/4 155/459/4 156/460/4
f 153/461/1 156/462/1 157/463/1 158/464/1
f 154/465/3 153/466/3 158/467/3 159/468/3
f 157/469/2 160/470/2 159/471/2 158/472/2
f 156/473/5 155/474/5 160/475/5 157/476/5
f 154/477/6 159/478/6 160/479/6 155/480/6
