# Blender v2.92.0 OBJ File: ''
# www.blender.org
mtllib fence4.mtl
o 0
v 0.003479 1.138550 0.021359
v 1.005127 1.138550 0.021359
v 1.005127 1.138550 0.061359
v 0.003479 1.138550 0.061359
v 0.003479 1.265835 0.021359
v 0.003479 1.265835 0.061359
v 1.005127 1.265835 0.061359
v 1.005127 1.265835 0.021359
v 0.003479 0.274753 0.019949
v 1.005127 0.274753 0.019949
v 1.005127 0.274753 0.059949
v 0.003479 0.274753 0.059949
v 0.003479 0.402037 0.019949
v 0.003479 0.402038 0.059949
v 1.005127 0.402038 0.059949
v 1.005128 0.402037 0.019949
v 0.915531 1.623644 -0.019237
v 0.915530 0.000644 -0.019237
v 0.915530 0.000644 0.020763
v 0.915530 1.623644 0.020763
v 0.997227 1.623643 -0.019237
v 0.997228 1.623644 0.020763
v 0.997227 0.000644 0.020763
v 0.997227 0.000644 -0.019237
v 0.627547 1.617613 -0.019237
v 0.805645 0.004415 -0.019237
v 0.805645 0.004415 0.020763
v 0.627547 1.617613 0.020763
v 0.708750 1.626578 -0.019237
v 0.708750 1.626578 0.020763
v 0.886849 0.013380 0.020763
v 0.886849 0.013380 -0.019237
v 0.264648 1.622485 -0.019151
v 0.238414 -0.000302 -0.018873
v 0.238356 -0.000294 0.021126
v 0.264590 1.622493 0.020849
v 0.346335 1.621164 -0.019031
v 0.346276 1.621172 0.020969
v 0.320042 -0.001615 0.021246
v 0.320101 -0.001624 -0.018754
v 0.070898 1.623644 -0.019237
v 0.070898 0.000644 -0.019237
v 0.070898 0.000644 0.020763
v 0.070898 1.623644 0.020763
v 0.152595 1.623643 -0.019237
v 0.152595 1.623644 0.020763
v 0.152595 0.000644 0.020763
v 0.152595 0.000643 -0.019237
vt 0.834800 0.116000
vt 0.770400 0.115200
vt 0.768100 0.889500
vt 0.833600 0.890400
vt 0.568000 0.102700
vt 0.516900 0.102700
vt 0.507000 0.875500
vt 0.555600 0.873000
vt 0.763900 0.111100
vt 0.683100 0.111100
vt 0.675600 0.883900
vt 0.754000 0.881500
vt 0.668500 0.975300
vt 0.580300 0.974300
vt 0.580300 0.998100
vt 0.668500 0.996600
vt 0.402400 0.106400
vt 0.317400 0.105500
vt 0.313500 0.879200
vt 0.394900 0.879200
vt 0.758700 0.975800
vt 0.675400 0.975800
vt 0.675100 0.999600
vt 0.759700 0.999000
vt 0.834800 0.116000
vt 0.770400 0.115200
vt 0.768100 0.889500
vt 0.833600 0.890400
vt 0.568000 0.102700
vt 0.516900 0.102700
vt 0.507000 0.875500
vt 0.555600 0.873000
vt 0.670200 0.092400
vt 0.589300 0.092400
vt 0.581900 0.865200
vt 0.660200 0.862700
vt 0.668500 0.975300
vt 0.580300 0.974300
vt 0.580300 0.998100
vt 0.668500 0.996600
vt 0.764900 0.111100
vt 0.679900 0.110200
vt 0.676000 0.883900
vt 0.757400 0.883900
vt 0.758700 0.975800
vt 0.675400 0.975800
vt 0.675100 0.999600
vt 0.759700 0.999000
vt 0.021400 0.006100
vt 0.006600 0.927600
vt 0.054600 0.925100
vt 0.061400 0.008600
vt 0.470300 0.018600
vt 0.441400 0.016700
vt 0.431100 0.978300
vt 0.467400 0.979900
vt 0.667200 0.004900
vt 0.589800 0.006900
vt 0.585900 0.995700
vt 0.667200 0.994700
vt 0.830400 0.945000
vt 0.768600 0.945000
vt 0.768600 0.981800
vt 0.832700 0.981000
vt 0.837800 0.003000
vt 0.753900 0.001800
vt 0.753900 0.991600
vt 0.838200 0.991100
vt 0.228200 0.959500
vt 0.150200 0.957400
vt 0.151300 0.995700
vt 0.228500 0.995300
vt 0.340200 0.057700
vt 0.322200 0.905700
vt 0.365600 0.906400
vt 0.381700 0.058600
vt 0.470300 0.018600
vt 0.441400 0.016700
vt 0.431100 0.978300
vt 0.467400 0.979900
vt 0.924900 0.000600
vt 0.847600 0.001400
vt 0.843700 0.990300
vt 0.925000 0.989300
vt 0.830400 0.945000
vt 0.768600 0.945000
vt 0.768600 0.981800
vt 0.832700 0.981000
vt 0.227600 0.005000
vt 0.143600 0.003700
vt 0.143600 0.993600
vt 0.227900 0.993100
vt 0.228200 0.959500
vt 0.150200 0.957400
vt 0.151300 0.995700
vt 0.228500 0.995300
vt 0.340200 0.090500
vt 0.334700 0.994800
vt 0.370300 0.992300
vt 0.380100 0.082000
vt 0.470300 0.018600
vt 0.441400 0.016700
vt 0.431100 0.978300
vt 0.467400 0.979900
vt 0.570700 0.001000
vt 0.493300 0.002900
vt 0.489400 0.991800
vt 0.570700 0.990800
vt 0.830400 0.945000
vt 0.768600 0.945000
vt 0.768600 0.981800
vt 0.832700 0.981000
vt 0.658700 0.003000
vt 0.574800 0.001800
vt 0.574800 0.991600
vt 0.659000 0.991100
vt 0.228200 0.959500
vt 0.150200 0.957400
vt 0.151300 0.995700
vt 0.228500 0.995300
vt 0.746800 0.958300
vt 0.752200 0.002800
vt 0.682200 0.009600
vt 0.679300 0.959000
vt 0.470300 0.018600
vt 0.441400 0.016700
vt 0.431100 0.978300
vt 0.467400 0.979900
vt 0.395500 0.001000
vt 0.318100 0.002900
vt 0.314200 0.991800
vt 0.395500 0.990800
vt 0.830400 0.945000
vt 0.768600 0.945000
vt 0.768600 0.981800
vt 0.832700 0.981000
vt 0.662600 0.003000
vt 0.578700 0.001800
vt 0.578700 0.991600
vt 0.662900 0.991100
vt 0.228200 0.959500
vt 0.150200 0.957400
vt 0.151300 0.995700
vt 0.228500 0.995300
vn 0.0000 -1.0000 0.0000
vn 0.0000 1.0000 0.0000
vn 0.0000 0.0000 -1.0000
vn 1.0000 -0.0000 0.0000
vn 0.0000 -0.0000 1.0000
vn -1.0000 0.0000 0.0000
vn -0.9940 -0.1097 0.0000
vn 0.9940 0.1097 0.0000
vn 0.1097 -0.9940 -0.0000
vn -0.1097 0.9940 0.0000
vn -0.9999 0.0162 -0.0015
vn 0.9999 -0.0162 0.0015
vn 0.0015 -0.0002 -1.0000
vn -0.0162 -0.9999 0.0002
vn -0.0015 0.0002 1.0000
vn 0.0162 0.9999 -0.0002
usemtl Material.010
s 1
f 1/1/1 2/2/1 3/3/1 4/4/1
f 5/5/2 6/6/2 7/7/2 8/8/2
f 1/9/3 5/10/3 8/11/3 2/12/3
f 2/13/4 8/14/4 7/15/4 3/16/4
f 3/17/5 7/18/5 6/19/5 4/20/5
f 5/21/6 1/22/6 4/23/6 6/24/6
usemtl Material.001
f 9/25/1 10/26/1 11/27/1 12/28/1
f 13/29/2 14/30/2 15/31/2 16/32/2
f 9/33/3 13/34/3 16/35/3 10/36/3
f 10/37/4 16/38/4 15/39/4 11/40/4
f 11/41/5 15/42/5 14/43/5 12/44/5
f 13/45/6 9/46/6 12/47/6 14/48/6
usemtl Material.003
f 17/49/6 18/50/6 19/51/6 20/52/6
f 21/53/4 22/54/4 23/55/4 24/56/4
f 17/57/3 21/58/3 24/59/3 18/60/3
f 18/61/1 24/62/1 23/63/1 19/64/1
f 19/65/5 23/66/5 22/67/5 20/68/5
f 21/69/2 17/70/2 20/71/2 22/72/2
usemtl Material.011
f 25/73/7 26/74/7 27/75/7 28/76/7
f 29/77/8 30/78/8 31/79/8 32/80/8
f 25/81/3 29/82/3 32/83/3 26/84/3
f 26/85/9 32/86/9 31/87/9 27/88/9
f 27/89/5 31/90/5 30/91/5 28/92/5
f 29/93/10 25/94/10 28/95/10 30/96/10
usemtl Material.012
f 33/97/11 34/98/11 35/99/11 36/100/11
f 37/101/12 38/102/12 39/103/12 40/104/12
f 33/105/13 37/106/13 40/107/13 34/108/13
f 34/109/14 40/110/14 39/111/14 35/112/14
f 35/113/15 39/114/15 38/115/15 36/116/15
f 37/117/16 33/118/16 36/119/16 38/120/16
usemtl Material.015
f 41/121/6 42/122/6 43/123/6 44/124/6
f 45/125/4 46/126/4 47/127/4 48/128/4
f 41/129/3 45/130/3 48/131/3 42/132/3
f 42/133/1 48/134/1 47/135/1 43/136/1
f 43/137/5 47/138/5 46/139/5 44/140/5
f 45/141/2 41/142/2 44/143/2 46/144/2
