# Blender v2.92.0 OBJ File: ''
# www.blender.org
mtllib table2.mtl
o 0.002
v 0.029062 0.970182 0.905677
v 0.093651 0.970182 0.905677
v 0.029062 -0.000144 0.905675
v 0.093651 -0.000144 0.905675
v 0.029062 0.970182 0.957675
v 0.029062 0.970182 0.905677
v 0.029062 -0.000145 0.957675
v 0.029062 -0.000144 0.905675
v 0.093651 0.970182 0.957675
v 0.029062 0.970182 0.957675
v 0.093651 -0.000145 0.957675
v 0.029062 -0.000145 0.957675
v 0.093651 0.970182 0.905677
v 0.093651 0.970182 0.957675
v 0.093651 -0.000144 0.905675
v 0.093651 -0.000145 0.957675
v 0.029062 -0.000145 0.957675
v 0.029062 -0.000144 0.905675
v 0.093651 -0.000145 0.957675
v 0.093651 -0.000144 0.905675
v 0.093651 0.970182 0.905677
v 0.029062 0.970182 0.905677
v 0.093651 0.970182 0.957675
v 0.029062 0.970182 0.957675
v 0.037135 0.267041 0.100326
v 0.085577 0.267041 0.100326
v 0.037135 0.267042 0.905675
v 0.085577 0.267042 0.905675
v 0.037135 0.310369 0.100326
v 0.037135 0.267041 0.100326
v 0.037135 0.310369 0.905675
v 0.037135 0.267042 0.905675
v 0.085577 0.310369 0.100326
v 0.037135 0.310369 0.100326
v 0.085577 0.310369 0.905675
v 0.037135 0.310369 0.905675
v 0.085577 0.267041 0.100326
v 0.085577 0.310369 0.100326
v 0.085577 0.267042 0.905675
v 0.085577 0.310369 0.905675
v 0.037135 0.310369 0.905675
v 0.037135 0.267042 0.905675
v 0.085577 0.310369 0.905675
v 0.085577 0.267042 0.905675
v 0.085577 0.267041 0.100326
v 0.037135 0.267041 0.100326
v 0.085577 0.310369 0.100326
v 0.037135 0.310369 0.100326
v 0.029062 0.970182 0.047675
v 0.093651 0.970182 0.047675
v 0.029062 -0.000144 0.047675
v 0.093651 -0.000144 0.047675
v 0.029062 0.970182 0.099675
v 0.029062 0.970182 0.047675
v 0.029062 -0.000144 0.099675
v 0.029062 -0.000144 0.047675
v 0.093651 0.970182 0.099675
v 0.029062 0.970182 0.099675
v 0.093651 -0.000144 0.099675
v 0.029062 -0.000144 0.099675
v 0.093651 0.970182 0.047675
v 0.093651 0.970182 0.099675
v 0.093651 -0.000144 0.047675
v 0.093651 -0.000144 0.099675
v 0.029062 -0.000144 0.099675
v 0.029062 -0.000144 0.047675
v 0.093651 -0.000144 0.099675
v 0.093651 -0.000144 0.047675
v 0.093651 0.970182 0.047675
v 0.029062 0.970182 0.047675
v 0.093651 0.970182 0.099675
v 0.029062 0.970182 0.099675
v 1.902177 0.970182 0.047675
v 1.966768 0.970182 0.047675
v 1.902177 -0.000144 0.047675
v 1.966768 -0.000144 0.047675
v 1.902177 0.970182 0.099675
v 1.902177 0.970182 0.047675
v 1.902177 -0.000144 0.099675
v 1.902177 -0.000144 0.047675
v 1.966768 0.970182 0.099675
v 1.902177 0.970182 0.099675
v 1.966768 -0.000144 0.099675
v 1.902177 -0.000144 0.099675
v 1.966768 0.970182 0.047675
v 1.966768 0.970182 0.099675
v 1.966768 -0.000144 0.047675
v 1.966768 -0.000144 0.099675
v 1.902177 -0.000144 0.099675
v 1.902177 -0.000144 0.047675
v 1.966768 -0.000144 0.099675
v 1.966768 -0.000144 0.047675
v 1.966768 0.970182 0.047675
v 1.902177 0.970182 0.047675
v 1.966768 0.970182 0.099675
v 1.902177 0.970182 0.099675
v 1.902177 0.970182 0.905675
v 1.966768 0.970182 0.905675
v 1.902177 -0.000144 0.905675
v 1.966768 -0.000144 0.905675
v 1.902177 0.970182 0.957675
v 1.902177 0.970182 0.905675
v 1.902177 -0.000145 0.957675
v 1.902177 -0.000144 0.905675
v 1.966768 0.970182 0.957675
v 1.902177 0.970182 0.957675
v 1.966768 -0.000145 0.957675
v 1.902177 -0.000145 0.957675
v 1.966768 0.970182 0.905675
v 1.966768 0.970182 0.957675
v 1.966768 -0.000144 0.905675
v 1.966768 -0.000145 0.957675
v 1.902177 -0.000145 0.957675
v 1.902177 -0.000144 0.905675
v 1.966768 -0.000145 0.957675
v 1.966768 -0.000144 0.905675
v 1.966768 0.970182 0.905675
v 1.902177 0.970182 0.905675
v 1.966768 0.970182 0.957675
v 1.902177 0.970182 0.957675
v 1.909444 0.267041 0.100326
v 1.957887 0.267041 0.100326
v 1.909444 0.267042 0.905675
v 1.957887 0.267042 0.905675
v 1.909444 0.310369 0.100326
v 1.909444 0.267041 0.100326
v 1.909444 0.310369 0.905675
v 1.909444 0.267042 0.905675
v 1.957887 0.310369 0.100326
v 1.909444 0.310369 0.100326
v 1.957887 0.310369 0.905675
v 1.909444 0.310369 0.905675
v 1.957887 0.267041 0.100326
v 1.957887 0.310369 0.100326
v 1.957887 0.267042 0.905675
v 1.957887 0.310369 0.905675
v 1.909444 0.310369 0.905675
v 1.909444 0.267042 0.905675
v 1.957887 0.310369 0.905675
v 1.957887 0.267042 0.905675
v 1.957887 0.267041 0.100326
v 1.909444 0.267041 0.100326
v 1.957887 0.310369 0.100326
v 1.909444 0.310369 0.100326
v 1.901370 0.961064 0.912175
v 1.901370 0.917734 0.912175
v 0.093651 0.961064 0.912175
v 0.093651 0.917734 0.912175
v 1.901370 0.961064 0.951177
v 1.901370 0.961064 0.912175
v 0.093651 0.961064 0.951177
v 0.093651 0.961064 0.912175
v 1.901370 0.917734 0.951177
v 1.901370 0.961064 0.951177
v 0.093651 0.917734 0.951177
v 0.093651 0.961064 0.951177
v 1.901370 0.917734 0.912175
v 1.901370 0.917734 0.951177
v 0.093651 0.917734 0.912175
v 0.093651 0.917734 0.951177
v 0.093651 0.961064 0.951177
v 0.093651 0.961064 0.912175
v 0.093651 0.917734 0.951177
v 0.093651 0.917734 0.912175
v 1.901370 0.917734 0.912175
v 1.901370 0.961064 0.912175
v 1.901370 0.917734 0.951177
v 1.901370 0.961064 0.951177
v 1.909444 0.701348 0.100326
v 1.957887 0.701348 0.100326
v 1.909444 0.701348 0.905675
v 1.957887 0.701348 0.905675
v 1.909444 0.744678 0.100326
v 1.909444 0.701348 0.100326
v 1.909444 0.744678 0.905675
v 1.909444 0.701348 0.905675
v 1.957887 0.744678 0.100326
v 1.909444 0.744678 0.100326
v 1.957887 0.744678 0.905675
v 1.909444 0.744678 0.905675
v 1.957887 0.701348 0.100326
v 1.957887 0.744678 0.100326
v 1.957887 0.701348 0.905675
v 1.957887 0.744678 0.905675
v 1.909444 0.744678 0.905675
v 1.909444 0.701348 0.905675
v 1.957887 0.744678 0.905675
v 1.957887 0.701348 0.905675
v 1.957887 0.701348 0.100326
v 1.909444 0.701348 0.100326
v 1.957887 0.744678 0.100326
v 1.909444 0.744678 0.100326
v 1.901370 0.961064 0.054175
v 1.901370 0.917734 0.054175
v 0.093651 0.961064 0.054175
v 0.093651 0.917734 0.054175
v 1.901370 0.961064 0.093175
v 1.901370 0.961064 0.054175
v 0.093651 0.961064 0.093177
v 0.093651 0.961064 0.054175
v 1.901370 0.917734 0.093175
v 1.901370 0.961064 0.093175
v 0.093651 0.917734 0.093177
v 0.093651 0.961064 0.093177
v 1.901370 0.917734 0.054175
v 1.901370 0.917734 0.093175
v 0.093651 0.917734 0.054175
v 0.093651 0.917734 0.093177
v 0.093651 0.961064 0.093177
v 0.093651 0.961064 0.054175
v 0.093651 0.917734 0.093177
v 0.093651 0.917734 0.054175
v 1.901370 0.917734 0.054175
v 1.901370 0.961064 0.054175
v 1.901370 0.917734 0.093175
v 1.901370 0.961064 0.093175
v -0.011308 0.999069 0.015176
v 2.007136 0.999069 0.015176
v -0.011308 0.970182 0.015176
v 2.007136 0.970182 0.015176
v -0.011308 0.999069 0.990176
v -0.011308 0.999069 0.015176
v -0.011308 0.970182 0.990176
v -0.011308 0.970182 0.015176
v 2.007136 0.999069 0.990176
v -0.011308 0.999069 0.990176
v 2.007136 0.970182 0.990176
v -0.011308 0.970182 0.990176
v 2.007136 0.999069 0.015176
v 2.007136 0.999069 0.990176
v 2.007136 0.970182 0.015176
v 2.007136 0.970182 0.990176
v -0.011308 0.970182 0.990176
v -0.011308 0.970182 0.015176
v 2.007136 0.970182 0.990176
v 2.007136 0.970182 0.015176
v 2.007136 0.999069 0.015176
v -0.011308 0.999069 0.015176
v 2.007136 0.999069 0.990176
v -0.011308 0.999069 0.990176
v 0.036461 0.701348 0.100326
v 0.084903 0.701348 0.100326
v 0.036461 0.701348 0.905675
v 0.084903 0.701348 0.905675
v 0.036461 0.744678 0.100326
v 0.036461 0.701348 0.100326
v 0.036461 0.744678 0.905677
v 0.036461 0.701348 0.905675
v 0.084903 0.744678 0.100326
v 0.036461 0.744678 0.100326
v 0.084903 0.744678 0.905675
v 0.036461 0.744678 0.905677
v 0.084903 0.701348 0.100326
v 0.084903 0.744678 0.100326
v 0.084903 0.701348 0.905675
v 0.084903 0.744678 0.905675
v 0.036461 0.744678 0.905677
v 0.036461 0.701348 0.905675
v 0.084903 0.744678 0.905675
v 0.084903 0.701348 0.905675
v 0.084903 0.701348 0.100326
v 0.036461 0.701348 0.100326
v 0.084903 0.744678 0.100326
v 0.036461 0.744678 0.100326
v 1.908636 0.310371 0.483501
v 1.908636 0.267042 0.483501
v 0.085577 0.310369 0.483501
v 0.085577 0.267042 0.483501
v 1.908636 0.310369 0.522500
v 1.908636 0.310371 0.483501
v 0.085577 0.310369 0.483501
v 0.085577 0.310369 0.522502
v 1.908636 0.267042 0.522500
v 1.908636 0.310369 0.522500
v 0.085577 0.267042 0.522502
v 0.085577 0.310369 0.522502
v 1.908636 0.267042 0.483501
v 1.908636 0.267042 0.522500
v 0.085577 0.267042 0.483501
v 0.085577 0.267042 0.522502
v 1.908636 0.267042 0.483501
v 1.908636 0.310371 0.483501
v 1.908636 0.267042 0.522500
v 1.908636 0.310369 0.522500
v 0.085577 0.310369 0.483501
v 0.085577 0.267042 0.483501
v 0.085577 0.310369 0.522502
v 0.085577 0.267042 0.522502
vt 0.661400 0.288400
vt 0.661400 0.309200
vt 0.349600 0.288400
vt 0.349600 0.309200
vt 0.661400 0.513200
vt 0.661400 0.531800
vt 0.349600 0.513200
vt 0.349600 0.531800
vt 0.661400 0.332000
vt 0.661400 0.352800
vt 0.349600 0.332000
vt 0.349600 0.352800
vt 0.661400 0.493700
vt 0.661400 0.512200
vt 0.349600 0.493700
vt 0.349600 0.512200
vt 0.434500 0.551300
vt 0.434500 0.532800
vt 0.455300 0.551300
vt 0.455300 0.532800
vt 0.520700 0.551300
vt 0.499900 0.551300
vt 0.520700 0.532800
vt 0.499900 0.532800
vt 0.761900 0.532800
vt 0.777500 0.532800
vt 0.761900 0.820300
vt 0.777500 0.820300
vt 0.899600 0.532800
vt 0.913500 0.532800
vt 0.899600 0.820300
vt 0.913500 0.820300
vt 0.679000 0.532800
vt 0.694600 0.532800
vt 0.679000 0.820300
vt 0.694600 0.820300
vt 0.869800 0.532800
vt 0.883700 0.532800
vt 0.869800 0.820300
vt 0.883700 0.820300
vt 0.424100 0.566200
vt 0.424100 0.552300
vt 0.439700 0.566200
vt 0.439700 0.552300
vt 0.365200 0.566200
vt 0.349600 0.566200
vt 0.365200 0.552300
vt 0.349600 0.552300
vt 0.661400 0.266700
vt 0.661400 0.287400
vt 0.349600 0.266700
vt 0.349600 0.287400
vt 0.661400 0.376300
vt 0.661400 0.394900
vt 0.349600 0.376300
vt 0.349600 0.394900
vt 0.661400 0.310200
vt 0.661400 0.331000
vt 0.349600 0.310200
vt 0.349600 0.331000
vt 0.661400 0.435000
vt 0.661400 0.453600
vt 0.349600 0.435000
vt 0.349600 0.453600
vt 0.456300 0.551300
vt 0.456300 0.532800
vt 0.477100 0.551300
vt 0.477100 0.532800
vt 0.498900 0.551300
vt 0.478100 0.551300
vt 0.498900 0.532800
vt 0.478100 0.532800
vt 0.661400 0.201300
vt 0.661400 0.222100
vt 0.349600 0.201300
vt 0.349600 0.222100
vt 0.661400 0.395900
vt 0.661400 0.414400
vt 0.349600 0.395900
vt 0.349600 0.414400
vt 0.661400 0.244900
vt 0.661400 0.265700
vt 0.349600 0.244900
vt 0.349600 0.265700
vt 0.661400 0.415400
vt 0.661400 0.434000
vt 0.349600 0.415400
vt 0.349600 0.434000
vt 0.412700 0.551300
vt 0.412700 0.532800
vt 0.433500 0.551300
vt 0.433500 0.532800
vt 0.389900 0.532800
vt 0.389900 0.553600
vt 0.371400 0.532800
vt 0.371400 0.553600
vt 0.661400 0.179500
vt 0.661400 0.200300
vt 0.349600 0.179500
vt 0.349600 0.200300
vt 0.661400 0.474100
vt 0.661400 0.492700
vt 0.349600 0.474100
vt 0.349600 0.492700
vt 0.661400 0.223100
vt 0.661400 0.243900
vt 0.349600 0.223100
vt 0.349600 0.243900
vt 0.661400 0.454500
vt 0.661400 0.473100
vt 0.349600 0.454500
vt 0.349600 0.473100
vt 0.349600 0.551300
vt 0.349600 0.532800
vt 0.370400 0.551300
vt 0.370400 0.532800
vt 0.411700 0.551300
vt 0.390900 0.551300
vt 0.411700 0.532800
vt 0.390900 0.532800
vt 0.712200 0.532800
vt 0.727800 0.532800
vt 0.712200 0.820300
vt 0.727800 0.820300
vt 0.795200 0.532800
vt 0.809100 0.532800
vt 0.795100 0.820300
vt 0.809000 0.820300
vt 0.728800 0.532800
vt 0.744400 0.532800
vt 0.728800 0.820300
vt 0.744400 0.820300
vt 0.884700 0.532800
vt 0.898600 0.532800
vt 0.884700 0.820300
vt 0.898600 0.820300
vt 0.407500 0.566200
vt 0.407500 0.552300
vt 0.423100 0.566200
vt 0.423100 0.552300
vt 0.406500 0.566200
vt 0.390900 0.566200
vt 0.406500 0.552300
vt 0.390900 0.552300
vt 0.931600 0.164600
vt 0.931600 0.178500
vt 0.349600 0.164600
vt 0.349600 0.178500
vt 0.931600 0.090000
vt 0.931600 0.103900
vt 0.349600 0.090000
vt 0.349600 0.103900
vt 0.931600 0.149700
vt 0.931600 0.163600
vt 0.349600 0.149700
vt 0.349600 0.163600
vt 0.931600 0.075100
vt 0.931600 0.089000
vt 0.349600 0.075100
vt 0.349600 0.089000
vt 0.469500 0.566200
vt 0.455600 0.566200
vt 0.469500 0.552300
vt 0.455600 0.552300
vt 0.470500 0.552300
vt 0.484500 0.552300
vt 0.470500 0.566300
vt 0.484500 0.566300
vt 0.695600 0.532800
vt 0.711200 0.532800
vt 0.695600 0.820300
vt 0.711200 0.820300
vt 0.840000 0.532800
vt 0.853900 0.532800
vt 0.840000 0.820300
vt 0.853900 0.820300
vt 0.745300 0.532800
vt 0.760900 0.532800
vt 0.745300 0.820300
vt 0.760900 0.820300
vt 0.825000 0.532800
vt 0.839000 0.532800
vt 0.825000 0.820300
vt 0.839000 0.820300
vt 0.536600 0.561600
vt 0.536600 0.547700
vt 0.552200 0.561600
vt 0.552200 0.547700
vt 0.520700 0.566200
vt 0.505100 0.566200
vt 0.520700 0.552300
vt 0.505100 0.552300
vt 0.931600 0.134700
vt 0.931600 0.148700
vt 0.349600 0.134700
vt 0.349600 0.148700
vt 0.931600 0.104900
vt 0.931600 0.118800
vt 0.349600 0.104900
vt 0.349600 0.118800
vt 0.931600 0.119800
vt 0.931600 0.133800
vt 0.349600 0.119800
vt 0.349600 0.133800
vt 0.931600 0.060200
vt 0.931600 0.074100
vt 0.349600 0.060200
vt 0.349600 0.074100
vt 0.521700 0.563300
vt 0.521700 0.549400
vt 0.535600 0.563300
vt 0.535600 0.549400
vt 0.440700 0.552300
vt 0.454600 0.552300
vt 0.440700 0.566200
vt 0.454600 0.566300
vt 0.349600 0.365100
vt 0.937500 0.365100
vt 0.349600 0.375300
vt 0.937500 0.375300
vt 0.652100 0.880800
vt 0.652100 0.532800
vt 0.661400 0.880800
vt 0.661400 0.532800
vt 0.937500 0.364100
vt 0.349600 0.364100
vt 0.937500 0.353800
vt 0.349600 0.353800
vt 0.923800 0.532800
vt 0.923800 0.880800
vt 0.914500 0.532800
vt 0.914500 0.880800
vt 0.000500 0.999500
vt 0.000500 0.651400
vt 0.650400 0.999500
vt 0.650400 0.651400
vt 0.348600 0.000500
vt 0.348600 0.650400
vt 0.000500 0.000500
vt 0.000500 0.650400
vt 0.662400 0.532800
vt 0.678000 0.532800
vt 0.662400 0.820300
vt 0.678000 0.820300
vt 0.810100 0.532800
vt 0.824000 0.532800
vt 0.810100 0.820300
vt 0.824000 0.820300
vt 0.778500 0.532800
vt 0.794100 0.532800
vt 0.778500 0.820300
vt 0.794100 0.820300
vt 0.854900 0.532800
vt 0.868800 0.532800
vt 0.854900 0.820300
vt 0.868800 0.820300
vt 0.536600 0.546700
vt 0.536600 0.532800
vt 0.552200 0.546700
vt 0.552200 0.532800
vt 0.535600 0.532800
vt 0.535600 0.548400
vt 0.521700 0.532800
vt 0.521700 0.548400
vt 0.936600 0.045200
vt 0.936600 0.059200
vt 0.349600 0.045200
vt 0.349600 0.059200
vt 0.936600 0.000500
vt 0.936600 0.014400
vt 0.349600 0.014400
vt 0.349600 0.000500
vt 0.936600 0.030300
vt 0.936600 0.044300
vt 0.349600 0.030300
vt 0.349600 0.044300
vt 0.936600 0.015400
vt 0.936600 0.029300
vt 0.349600 0.015400
vt 0.349600 0.029300
vt 0.553200 0.532800
vt 0.567100 0.532800
vt 0.553200 0.546700
vt 0.567100 0.546700
vt 0.485400 0.552300
vt 0.499400 0.552300
vt 0.485400 0.566200
vt 0.499400 0.566200
vn 0.0000 0.0000 -1.0000
vn -1.0000 0.0000 0.0000
vn 0.0000 -0.0000 1.0000
vn 1.0000 -0.0000 0.0000
vn 0.0000 -1.0000 -0.0000
vn 0.0000 1.0000 0.0000
vn -0.0000 1.0000 0.0001
usemtl mtl_tubes3b.002
s 1
f 1/1/1 2/2/1 3/3/1
f 3/3/1 2/2/1 4/4/1
f 5/5/2 6/6/2 7/7/2
f 7/7/2 6/6/2 8/8/2
f 9/9/3 10/10/3 11/11/3
f 11/11/3 10/10/3 12/12/3
f 13/13/4 14/14/4 15/15/4
f 15/15/4 14/14/4 16/16/4
f 17/17/5 18/18/5 19/19/5
f 19/19/5 18/18/5 20/20/5
f 21/21/6 22/22/6 23/23/6
f 23/23/6 22/22/6 24/24/6
f 25/25/5 26/26/5 27/27/5
f 27/27/5 26/26/5 28/28/5
f 29/29/2 30/30/2 31/31/2
f 31/31/2 30/30/2 32/32/2
f 33/33/6 34/34/6 35/35/6
f 35/35/6 34/34/6 36/36/6
f 37/37/4 38/38/4 39/39/4
f 39/39/4 38/38/4 40/40/4
f 41/41/3 42/42/3 43/43/3
f 43/43/3 42/42/3 44/44/3
f 45/45/1 46/46/1 47/47/1
f 47/47/1 46/46/1 48/48/1
f 49/49/1 50/50/1 51/51/1
f 51/51/1 50/50/1 52/52/1
f 53/53/2 54/54/2 55/55/2
f 55/55/2 54/54/2 56/56/2
f 57/57/3 58/58/3 59/59/3
f 59/59/3 58/58/3 60/60/3
f 61/61/4 62/62/4 63/63/4
f 63/63/4 62/62/4 64/64/4
f 65/65/5 66/66/5 67/67/5
f 67/67/5 66/66/5 68/68/5
f 69/69/6 70/70/6 71/71/6
f 71/71/6 70/70/6 72/72/6
f 73/73/1 74/74/1 75/75/1
f 75/75/1 74/74/1 76/76/1
f 77/77/2 78/78/2 79/79/2
f 79/79/2 78/78/2 80/80/2
f 81/81/3 82/82/3 83/83/3
f 83/83/3 82/82/3 84/84/3
f 85/85/4 86/86/4 87/87/4
f 87/87/4 86/86/4 88/88/4
f 89/89/5 90/90/5 91/91/5
f 91/91/5 90/90/5 92/92/5
f 93/93/6 94/94/6 95/95/6
f 95/95/6 94/94/6 96/96/6
f 97/97/1 98/98/1 99/99/1
f 99/99/1 98/98/1 100/100/1
f 101/101/2 102/102/2 103/103/2
f 103/103/2 102/102/2 104/104/2
f 105/105/3 106/106/3 107/107/3
f 107/107/3 106/106/3 108/108/3
f 109/109/4 110/110/4 111/111/4
f 111/111/4 110/110/4 112/112/4
f 113/113/5 114/114/5 115/115/5
f 115/115/5 114/114/5 116/116/5
f 117/117/6 118/118/6 119/119/6
f 119/119/6 118/118/6 120/120/6
f 121/121/5 122/122/5 123/123/5
f 123/123/5 122/122/5 124/124/5
f 125/125/2 126/126/2 127/127/2
f 127/127/2 126/126/2 128/128/2
f 129/129/6 130/130/6 131/131/6
f 131/131/6 130/130/6 132/132/6
f 133/133/4 134/134/4 135/135/4
f 135/135/4 134/134/4 136/136/4
f 137/137/3 138/138/3 139/139/3
f 139/139/3 138/138/3 140/140/3
f 141/141/1 142/142/1 143/143/1
f 143/143/1 142/142/1 144/144/1
f 145/145/1 146/146/1 147/147/1
f 147/147/1 146/146/1 148/148/1
f 149/149/6 150/150/6 151/151/6
f 151/151/6 150/150/6 152/152/6
f 153/153/3 154/154/3 155/155/3
f 155/155/3 154/154/3 156/156/3
f 157/157/5 158/158/5 159/159/5
f 159/159/5 158/158/5 160/160/5
f 161/161/2 162/162/2 163/163/2
f 163/163/2 162/162/2 164/164/2
f 165/165/4 166/166/4 167/167/4
f 167/167/4 166/166/4 168/168/4
f 169/169/5 170/170/5 171/171/5
f 171/171/5 170/170/5 172/172/5
f 173/173/2 174/174/2 175/175/2
f 175/175/2 174/174/2 176/176/2
f 177/177/6 178/178/6 179/179/6
f 179/179/6 178/178/6 180/180/6
f 181/181/4 182/182/4 183/183/4
f 183/183/4 182/182/4 184/184/4
f 185/185/3 186/186/3 187/187/3
f 187/187/3 186/186/3 188/188/3
f 189/189/1 190/190/1 191/191/1
f 191/191/1 190/190/1 192/192/1
f 193/193/1 194/194/1 195/195/1
f 195/195/1 194/194/1 196/196/1
f 197/197/6 198/198/6 199/199/6
f 199/199/6 198/198/6 200/200/6
f 201/201/3 202/202/3 203/203/3
f 203/203/3 202/202/3 204/204/3
f 205/205/5 206/206/5 207/207/5
f 207/207/5 206/206/5 208/208/5
f 209/209/2 210/210/2 211/211/2
f 211/211/2 210/210/2 212/212/2
f 213/213/4 214/214/4 215/215/4
f 215/215/4 214/214/4 216/216/4
f 217/217/1 218/218/1 219/219/1
f 219/219/1 218/218/1 220/220/1
f 221/221/2 222/222/2 223/223/2
f 223/223/2 222/222/2 224/224/2
f 225/225/3 226/226/3 227/227/3
f 227/227/3 226/226/3 228/228/3
f 229/229/4 230/230/4 231/231/4
f 231/231/4 230/230/4 232/232/4
f 233/233/5 234/234/5 235/235/5
f 235/235/5 234/234/5 236/236/5
f 237/237/6 238/238/6 239/239/6
f 239/239/6 238/238/6 240/240/6
f 241/241/5 242/242/5 243/243/5
f 243/243/5 242/242/5 244/244/5
f 245/245/2 246/246/2 247/247/2
f 247/247/2 246/246/2 248/248/2
f 249/249/6 250/250/6 251/251/6
f 251/251/6 250/250/6 252/252/6
f 253/253/4 254/254/4 255/255/4
f 255/255/4 254/254/4 256/256/4
f 257/257/3 258/258/3 259/259/3
f 259/259/3 258/258/3 260/260/3
f 261/261/1 262/262/1 263/263/1
f 263/263/1 262/262/1 264/264/1
f 265/265/1 266/266/1 267/267/1
f 267/267/1 266/266/1 268/268/1
f 269/269/7 270/270/7 271/271/6
f 271/271/6 272/272/6 269/269/7
f 273/273/3 274/274/3 275/275/3
f 275/275/3 274/274/3 276/276/3
f 277/277/5 278/278/5 279/279/5
f 279/279/5 278/278/5 280/280/5
f 281/281/4 282/282/4 283/283/4
f 283/283/4 282/282/4 284/284/4
f 285/285/2 286/286/2 287/287/2
f 287/287/2 286/286/2 288/288/2
