# Blender v2.76 (sub 0) OBJ File: ''
# www.blender.org
mtllib RightLeg.mtl
o RLeg001
v -0.131287 0.198067 0.256215
v 0.127444 0.198067 0.256215
v 0.127444 0.761147 0.256215
v 0.127444 0.198067 -0.002515
v -0.131287 0.198067 -0.002515
v -0.131287 0.761147 -0.002515
v -0.131287 0.761147 0.256215
v 0.127444 0.761147 -0.002515
v -0.133871 -0.016829 -0.003089
v 0.206039 -0.016829 -0.003089
v 0.206039 -0.016829 0.260153
v -0.133871 -0.016829 0.260153
v -0.133871 0.081145 0.260153
v 0.206039 0.052575 -0.003089
v -0.133871 0.081145 -0.003089
v 0.206039 0.052575 0.260153
v -0.133871 0.107980 0.260153
v 0.129371 0.107980 -0.003089
v -0.133871 0.107980 -0.003089
v 0.129371 0.107980 0.260153
v -0.133871 0.191094 0.260153
v 0.129371 0.191094 -0.003089
v -0.133871 0.191094 -0.003089
v 0.129371 0.191094 0.260153
v 0.180867 0.435276 0.069066
v 0.158609 0.344492 0.082869
v 0.160238 0.375426 0.047839
v 0.123873 0.435276 0.006925
v 0.160681 0.435276 0.038311
v 0.077422 0.435276 0.183240
v 0.115594 0.314329 0.185015
v 0.113423 0.355540 0.231683
v 0.112834 0.435276 0.244377
v 0.152837 0.375426 0.207015
v 0.121113 0.314329 0.066288
v 0.123283 0.355540 0.019618
v 0.123283 0.515011 0.019618
v 0.121113 0.556223 0.066288
v 0.158609 0.526058 0.082869
v 0.118354 0.567298 0.125651
v 0.115594 0.556223 0.185015
v 0.154466 0.526058 0.171984
v 0.154466 0.344492 0.171984
v 0.118354 0.303254 0.125651
v 0.080182 0.435276 0.123877
v 0.082941 0.435276 0.064513
v 0.187697 0.435276 0.128875
v 0.175348 0.435276 0.187792
v 0.152837 0.495125 0.207015
v 0.113423 0.515011 0.231683
v 0.160238 0.495125 0.047839
v 0.156538 0.534371 0.127426
v 0.156538 0.336180 0.127426
v 0.152394 0.435276 0.216543
vt 0.578500 0.004900
vt 0.442000 0.004900
vt 0.442000 0.302000
vt 0.578500 0.302000
vt 0.750900 0.302000
vt 0.601000 0.302000
vt 0.721100 0.608400
vt 0.721100 0.520400
vt 0.774600 0.520400
vt 0.750900 0.004900
vt 0.601000 0.004900
vt 0.373200 0.004900
vt 0.523100 0.004900
vt 0.523100 0.302000
vt 0.021100 0.019900
vt 0.083900 0.019900
vt 0.083900 0.043300
vt 0.083400 0.016500
vt 0.020700 0.019700
vt 0.021600 0.036200
vt 0.036200 0.016900
vt 0.036200 0.041200
vt 0.120700 0.034100
vt 0.120700 0.016900
vt 0.021100 0.043300
vt 0.083900 0.049700
vt 0.086500 0.059900
vt 0.025300 0.073900
vt 0.028200 0.086800
vt 0.036200 0.047900
vt 0.101700 0.047900
vt 0.021100 0.049700
vt 0.083900 0.069500
vt 0.088700 0.075200
vt 0.029400 0.095600
vt 0.035800 0.114400
vt 0.036200 0.068500
vt 0.101700 0.068500
vt 0.021100 0.069500
vt 0.083000 0.071200
vt 0.021200 0.071200
vt 0.036900 0.070300
vt 0.101200 0.070300
vt 0.774600 0.608400
vt 0.373200 0.302000
vt 0.084300 0.033000
vt 0.089500 0.072800
vt 0.095200 0.093900
vt 0.595500 0.840400
vt 0.630900 0.833500
vt 0.618800 0.850000
vt 0.595500 0.868500
vt 0.595500 0.854500
vt 0.595500 0.784400
vt 0.642700 0.784400
vt 0.626600 0.762400
vt 0.595500 0.756400
vt 0.618800 0.774900
vt 0.642700 0.840400
vt 0.626600 0.862500
vt 0.564400 0.862500
vt 0.548300 0.840400
vt 0.560100 0.833500
vt 0.544000 0.812400
vt 0.548300 0.784400
vt 0.560100 0.791400
vt 0.630900 0.791400
vt 0.647000 0.812400
vt 0.595500 0.812400
vt 0.572100 0.774900
vt 0.564400 0.762400
vt 0.572100 0.850000
vt 0.556800 0.812400
vt 0.634100 0.812400
vt 0.595500 0.770400
vn 0.000000 0.277100 0.960800
vn 0.000000 0.272000 0.962300
vn 0.000000 -0.000000 1.000000
vn 0.000000 0.044300 -0.999000
vn 0.000000 0.045200 -0.999000
vn 0.000000 0.000000 -1.000000
vn 0.000000 1.000000 0.000000
vn 0.000000 -1.000000 -0.000000
vn 0.988300 0.152800 0.000000
vn 0.990500 0.137700 0.000000
vn 1.000000 -0.000000 0.000000
vn -0.983500 0.180700 0.000000
vn -0.979800 0.200100 0.000000
vn -1.000000 0.000000 0.000000
vn 0.890400 0.455100 0.000000
vn -0.989600 0.144100 0.000000
vn 0.991400 0.130900 0.000000
vn 0.000000 0.035800 -0.999400
vn 0.000000 0.233500 0.972400
vn -0.985100 0.172100 0.000000
vn 0.000000 0.037200 -0.999300
vn 0.994000 0.109000 0.000000
vn 0.000000 0.226100 0.974100
vn 0.955300 0.000000 -0.295500
vn 0.826300 -0.521900 -0.211600
vn 0.808600 -0.306100 -0.502500
vn -0.111900 0.000000 -0.993700
vn 0.743300 0.000000 -0.669000
vn -0.984000 0.000000 0.178400
vn -0.253000 -0.883200 0.395000
vn -0.223400 -0.507400 0.832200
vn -0.203600 0.000000 0.979100
vn 0.758500 -0.306100 0.575300
vn -0.215200 -0.883200 -0.416800
vn -0.145200 -0.507400 -0.849400
vn -0.145200 0.507400 -0.849400
vn -0.215200 0.883200 -0.416800
vn 0.826300 0.521900 -0.211600
vn -0.261000 0.965300 -0.012100
vn -0.253000 0.883200 0.395000
vn 0.803100 0.521900 0.287400
vn 0.803100 -0.521900 0.287400
vn -0.261100 -0.965200 -0.012100
vn -0.998900 -0.000000 -0.046400
vn -0.963200 0.000000 -0.268900
vn 0.998900 0.000000 0.046400
vn 0.923800 0.000000 0.382900
vn 0.758500 0.306100 0.575300
vn -0.223400 0.507400 0.832200
vn 0.808600 0.306100 -0.502500
vn 0.819700 0.571600 0.038100
vn 0.819700 -0.571600 0.038100
vn 0.678000 0.000000 0.735100
usemtl None
s 1
f 1/1/1 2/2/2 3/3/3
f 4/2/4 5/1/5 6/4/6
f 7/5/7 3/5/7 8/6/7
f 9/7/8 10/8/8 11/9/8
f 2/10/9 4/11/10 8/6/11
f 5/12/12 1/13/13 7/14/14
f 9/15/14 12/16/14 13/17/14
f 11/18/11 10/19/11 14/20/15
f 9/21/6 15/22/6 14/23/6
f 12/21/3 11/24/3 16/23/3
f 15/25/14 13/17/14 17/26/14
f 16/27/15 14/28/15 18/29/15
f 15/22/6 19/30/6 18/31/6
f 13/22/3 16/23/3 20/31/3
f 19/32/14 17/26/14 21/33/16
f 20/34/15 18/35/15 22/36/17
f 18/31/6 19/30/6 23/37/18
f 17/30/3 20/31/3 24/38/19
f 23/39/20 21/33/16 1/40/13
f 22/39/17 4/41/10 2/40/9
f 22/38/21 23/37/18 5/42/5
f 24/38/19 2/43/2 1/42/1
f 1/1/1 3/3/3 7/4/3
f 4/2/4 6/4/6 8/3/6
f 7/5/7 8/6/7 6/6/7
f 9/7/8 11/9/8 12/44/8
f 2/10/9 8/6/11 3/5/11
f 5/12/12 7/14/14 6/45/14
f 9/15/14 13/17/14 15/25/14
f 11/18/11 14/20/15 16/46/15
f 9/21/6 14/23/6 10/24/6
f 12/21/3 16/23/3 13/22/3
f 15/25/14 17/26/14 19/32/14
f 16/27/15 18/29/15 20/47/15
f 15/22/6 18/31/6 14/23/6
f 13/22/3 20/31/3 17/30/3
f 19/32/14 21/33/16 23/39/20
f 20/34/15 22/36/17 24/48/22
f 18/31/6 23/37/18 22/38/21
f 17/30/3 24/38/19 21/37/23
f 23/39/20 1/40/13 5/41/12
f 22/39/17 2/40/9 24/33/22
f 22/38/21 5/42/5 4/43/4
f 24/38/19 1/42/1 21/37/23
f 25/49/24 26/50/25 27/51/26
f 28/52/27 29/53/28 27/51/26
f 30/54/29 31/55/30 32/56/31
f 33/57/32 32/56/31 34/58/33
f 26/50/25 35/59/34 36/60/35
f 37/61/36 38/62/37 39/63/38
f 40/64/39 41/65/40 42/66/41
f 43/67/42 31/55/30 44/68/43
f 45/69/44 46/49/45 35/59/34
f 47/69/46 48/54/47 43/67/42
f 42/66/41 48/54/47 47/69/46
f 38/62/37 46/49/45 45/69/44
f 49/70/48 50/71/49 33/57/32
f 50/71/49 41/65/40 30/54/29
f 51/72/50 29/53/28 28/52/27
f 51/72/50 39/63/38 25/49/24
f 39/63/38 52/73/51 47/69/46
f 37/61/36 28/52/27 46/49/45
f 46/49/45 28/52/27 36/60/35
f 40/64/39 52/73/51 39/63/38
f 26/50/25 53/74/52 44/68/43
f 47/69/46 53/74/52 26/50/25
f 41/65/40 40/64/39 45/69/44
f 49/70/48 54/75/53 48/54/47
f 48/54/47 54/75/53 34/58/33
f 43/67/42 34/58/33 32/56/31
f 50/71/49 49/70/48 42/66/41
f 45/69/44 44/68/43 31/55/30
f 25/49/24 27/51/26 29/53/28
f 28/52/27 27/51/26 36/60/35
f 30/54/29 32/56/31 33/57/32
f 33/57/32 34/58/33 54/75/53
f 26/50/25 36/60/35 27/51/26
f 37/61/36 39/63/38 51/72/50
f 40/64/39 42/66/41 52/73/51
f 43/67/42 44/68/43 53/74/52
f 45/69/44 35/59/34 44/68/43
f 47/69/46 43/67/42 53/74/52
f 42/66/41 47/69/46 52/73/51
f 38/62/37 45/69/44 40/64/39
f 49/70/48 33/57/32 54/75/53
f 50/71/49 30/54/29 33/57/32
f 51/72/50 28/52/27 37/61/36
f 51/72/50 25/49/24 29/53/28
f 39/63/38 47/69/46 25/49/24
f 37/61/36 46/49/45 38/62/37
f 46/49/45 36/60/35 35/59/34
f 40/64/39 39/63/38 38/62/37
f 26/50/25 44/68/43 35/59/34
f 47/69/46 26/50/25 25/49/24
f 41/65/40 45/69/44 30/54/29
f 49/70/48 48/54/47 42/66/41
f 48/54/47 34/58/33 43/67/42
f 43/67/42 32/56/31 31/55/30
f 50/71/49 42/66/41 41/65/40
f 45/69/44 31/55/30 30/54/29
