# ..:::Stalker models:::..
# WebSite: http://excalibur-craft.ru
mtllib medical_armchair_one.mtl
o 0.002
v -0.193926 0.434430 -0.387734
v 0.193926 0.434430 -0.387734
v -0.193926 0.434430 0.228402
v 0.193926 0.434430 0.228402
v -0.223926 0.434170 0.258402
v -0.193926 0.403910 0.258402
v 0.223926 0.434170 0.258402
v 0.193926 0.403910 0.258402
v 0.223926 0.434170 0.258402
v 0.223926 0.403910 0.228402
v 0.223926 0.433910 -0.417734
v 0.223926 0.403910 -0.417734
v -0.223926 0.434170 0.258402
v -0.223926 0.433910 -0.417734
v -0.223926 0.403910 0.228402
v -0.223926 0.403910 -0.417734
v 0.193926 0.403910 -0.417734
v 0.223926 0.403910 -0.417734
v 0.193926 0.403910 -0.387734
v 0.193926 -0.000000 0.228402
v 0.223926 -0.000000 0.228402
v 0.193926 -0.000000 0.258402
v 0.223926 -0.000000 0.258402
v -0.193926 -0.000000 0.228402
v -0.193926 -0.000000 0.258402
v -0.223926 -0.000000 0.228402
v -0.223926 -0.000000 0.258402
v -0.223926 0.403910 -0.417734
v -0.193926 0.403910 -0.387734
v -0.223926 0.403910 0.228402
v -0.193926 0.403910 0.228402
v -0.193926 0.403910 -0.387734
v 0.193926 0.403910 -0.387734
v -0.193926 0.434430 -0.387734
v 0.193926 0.434430 -0.387734
v 0.193926 0.403910 -0.387734
v 0.193926 0.403910 0.228402
v 0.193926 0.434430 -0.387734
v 0.193926 0.434430 0.228402
v 0.193926 0.403910 0.228402
v -0.193926 0.403910 0.228402
v 0.193926 0.434430 0.228402
v -0.193926 0.434430 0.228402
v -0.193926 0.403910 0.228402
v -0.193926 0.403910 -0.387734
v -0.193926 0.434430 0.228402
v -0.193926 0.434430 -0.387734
v -0.193926 0.403910 -0.417734
v -0.223926 0.642993 -0.447734
v -0.193926 0.612992 -0.447734
v -0.223926 0.000000 -0.447734
v -0.193926 0.000000 -0.447734
v -0.193926 0.403910 -0.417734
v -0.193926 0.403910 -0.387734
v -0.193926 0.433910 -0.417734
v 0.193926 0.433910 -0.417734
v -0.193926 0.403910 -0.417734
v 0.193926 0.403910 -0.417734
v 0.223926 0.642993 -0.447734
v 0.223926 0.000000 -0.447734
v 0.193926 0.612992 -0.447734
v 0.193926 0.000000 -0.447734
v 0.223926 0.000000 -0.417734
v 0.193926 0.000000 -0.417734
v 0.223926 0.000000 -0.447734
v 0.193926 0.000000 -0.447734
v 0.193926 0.612992 -0.447734
v 0.193926 0.000000 -0.447734
v 0.193926 0.444452 -0.426869
v 0.193926 0.403910 -0.417734
v 0.223926 0.403910 -0.417734
v 0.223926 0.444452 -0.426869
v 0.223926 0.433910 -0.417734
v 0.223926 0.642993 -0.426869
v 0.223926 0.642993 -0.447734
v -0.193926 0.000000 -0.417734
v -0.223926 0.000000 -0.417734
v -0.193926 0.000000 -0.447734
v -0.223926 0.000000 -0.447734
v -0.223926 0.642993 -0.447734
v -0.223926 0.000000 -0.447734
v -0.223926 0.444452 -0.426869
v -0.193926 0.403910 -0.417734
v -0.193926 0.444452 -0.426869
v -0.193926 0.433910 -0.417734
v -0.223926 0.642993 -0.426869
v 0.193926 0.612993 -0.426869
v -0.193926 0.612992 -0.447734
v -0.193926 0.612993 -0.426869
v -0.223926 0.642993 -0.426869
v 0.223926 0.642993 -0.426869
v -0.223926 0.642993 -0.447734
v 0.223926 0.642993 -0.447734
v 0.193926 0.612993 -0.426869
v -0.193926 0.612993 -0.426869
v 0.193926 0.612992 -0.447734
v -0.193926 0.612992 -0.447734
v 0.223926 0.403910 -0.417734
v 0.193926 0.403910 -0.417734
v 0.223926 0.000000 -0.417734
v 0.193926 0.000000 -0.417734
v 0.193926 0.000000 -0.417734
v 0.223926 0.000000 -0.447734
v 0.223926 0.000000 -0.417734
v -0.193926 0.403910 -0.417734
v -0.223926 0.403910 -0.417734
v -0.193926 0.000000 -0.417734
v -0.223926 0.000000 -0.417734
v -0.223926 0.000000 -0.417734
v -0.193926 0.000000 -0.447734
v -0.193926 0.000000 -0.417734
v 0.193926 0.433910 -0.417734
v 0.223926 0.403910 0.228402
v 0.193926 0.403910 0.228402
v 0.193926 0.403910 0.258402
v -0.193926 0.403910 0.258402
v 0.193926 0.403910 0.228402
v -0.193926 0.403910 0.228402
v 0.223926 -0.000000 0.258402
v 0.223926 -0.000000 0.228402
v 0.193926 0.403910 0.228402
v 0.223926 0.403910 0.228402
v 0.193926 -0.000000 0.228402
v 0.223926 -0.000000 0.228402
v 0.223926 -0.000000 0.258402
v 0.193926 -0.000000 0.258402
v 0.193926 0.403910 0.258402
v 0.193926 0.403910 0.228402
v 0.193926 -0.000000 0.258402
v 0.193926 -0.000000 0.228402
v -0.223926 -0.000000 0.258402
v -0.193926 -0.000000 0.258402
v -0.193926 0.403910 0.228402
v -0.193926 0.403910 0.258402
v -0.193926 -0.000000 0.228402
v -0.193926 -0.000000 0.258402
v -0.223926 -0.000000 0.258402
v -0.223926 -0.000000 0.228402
v -0.223926 0.403910 0.228402
v -0.193926 0.403910 0.228402
v -0.223926 -0.000000 0.228402
v -0.193926 -0.000000 0.228402
vt -0.3129 0.4497
vt 0.3505 0.4497
vt -0.3129 0.6042
vt 0.3505 0.6042
vt 2.0431 1.3482
vt 2.0854 1.3902
vt 2.0430 1.9757
vt 2.0854 1.9337
vt 2.0430 1.9757
vt 2.0854 2.0177
vt 2.0434 2.9231
vt 2.0854 2.9231
vt 2.0431 1.3482
vt 2.0434 0.4008
vt 2.0855 1.3062
vt 2.0854 0.4008
vt 2.1275 2.9231
vt 2.0854 2.9231
vt 2.1275 2.8810
vt 2.6955 1.9337
vt 2.6955 1.9757
vt 2.6534 1.9337
vt 2.6534 1.9757
vt 2.6955 1.3903
vt 2.6534 1.3902
vt 2.6955 1.3482
vt 2.6534 1.3482
vt 2.0854 0.4008
vt 2.1275 0.4429
vt 2.0855 1.3062
vt 2.1275 1.3062
vt 2.6709 2.8811
vt 2.1275 2.8810
vt 2.6709 2.8383
vt 2.1275 2.8383
vt 2.1275 2.8810
vt 2.1275 2.0178
vt 2.1702 2.8810
vt 2.1702 2.0178
vt 2.1275 1.9337
vt 2.1275 1.3902
vt 2.1702 1.9337
vt 2.1702 1.3902
vt 2.1275 1.3062
vt 2.1275 0.4429
vt 2.1702 1.3062
vt 2.1702 0.4429
vt 2.1275 0.4008
vt 1.7505 0.3588
vt 1.7925 0.3168
vt 2.6534 0.3588
vt 2.6534 0.3168
vt 2.6709 2.9231
vt 2.6709 2.8811
vt 2.6709 2.9652
vt 2.1275 2.9651
vt 2.6709 2.9231
vt 2.1275 2.9231
vt 1.7505 0.2687
vt 2.6534 0.2687
vt 1.7925 0.2267
vt 2.6534 0.2266
vt 2.6955 0.2687
vt 2.6955 0.2266
vt 2.6534 0.2687
vt 2.6534 0.2266
vt 1.7925 0.2267
vt 2.6534 0.2266
vt 2.0286 0.1974
vt 2.0855 0.1846
vt 2.0855 0.3107
vt 2.0286 0.2979
vt 2.0434 0.3107
vt 1.7505 0.2979
vt 1.7505 0.2687
vt 2.6955 0.3168
vt 2.6955 0.3588
vt 2.6534 0.3168
vt 2.6534 0.3588
vt 1.7505 0.3588
vt 2.6534 0.3588
vt 2.0286 0.3880
vt 2.0854 0.2747
vt 2.0286 0.2875
vt 2.0434 0.2747
vt 1.7505 0.3880
vt 1.7925 0.1974
vt 1.7925 0.3168
vt 1.7925 0.2875
vt 1.7212 0.3588
vt 1.7212 0.2687
vt 1.7505 0.3588
vt 1.7505 0.2687
vt 1.8217 0.2267
vt 1.8217 0.3168
vt 1.7925 0.2267
vt 1.7925 0.3168
vt 2.0855 0.3107
vt 2.0855 0.3528
vt 2.6534 0.3107
vt 2.6534 0.3528
vt 2.6534 0.1846
vt 2.6534 0.2687
vt 2.6534 0.3107
vt 2.0854 0.4429
vt 2.0854 0.4008
vt 2.6534 0.4429
vt 2.6534 0.4008
vt 2.6534 0.4008
vt 2.6534 0.3168
vt 2.6534 0.2747
vt 2.0434 0.1846
vt 2.0854 2.0177
vt 2.1275 2.0178
vt 2.0854 1.9337
vt 2.0854 1.3902
vt 2.1275 1.9337
vt 2.1275 1.3902
vt 2.6534 1.9757
vt 2.6534 2.0177
vt 2.0854 2.0598
vt 2.0854 2.0177
vt 2.6534 2.0598
vt 2.6534 2.0177
vt 2.6534 1.9757
vt 2.6534 1.9337
vt 2.0854 1.9337
vt 2.0854 1.8916
vt 2.6534 1.9337
vt 2.6534 1.8916
vt 2.6534 1.3482
vt 2.6534 1.3902
vt 2.0854 1.4323
vt 2.0854 1.3902
vt 2.6534 1.4323
vt 2.6534 1.3902
vt 2.6534 1.3482
vt 2.6534 1.3062
vt 2.0855 1.3062
vt 2.0855 1.2641
vt 2.6534 1.3062
vt 2.6534 1.2641
vn 0.0000 -1.0000 -0.0000
vn 0.0000 -0.0000 1.0000
vn 1.0000 0.0000 0.0000
vn -1.0000 0.0000 0.0000
vn 0.0000 0.0000 -1.0000
vn 0.0000 1.0000 0.0000
vn 0.0000 -1.0000 0.0001
usemtl mtl_pod_01_stears.002
s 1
f 1/1/1 2/2/1 3/3/1
f 3/3/1 2/2/1 4/4/1
f 5/5/2 6/6/2 7/7/2
f 7/7/2 6/6/2 8/8/2
f 9/9/3 10/10/3 11/11/3
f 11/11/3 10/10/3 12/12/3
f 13/13/4 14/14/4 15/15/4
f 15/15/4 14/14/4 16/16/4
f 17/17/1 18/18/1 19/19/1
f 20/20/1 21/21/1 22/22/1
f 22/22/1 21/21/1 23/23/1
f 24/24/1 25/25/1 26/26/1
f 26/26/1 25/25/1 27/27/1
f 28/28/1 29/29/1 30/30/1
f 30/30/1 29/29/1 31/31/1
f 32/32/2 33/33/2 34/34/2
f 34/34/2 33/33/2 35/35/2
f 36/36/4 37/37/4 38/38/4
f 38/38/4 37/37/4 39/39/4
f 40/40/5 41/41/5 42/42/5
f 42/42/5 41/41/5 43/43/5
f 44/44/3 45/45/3 46/46/3
f 46/46/3 45/45/3 47/47/3
f 28/28/1 48/48/1 29/29/1
f 49/49/5 50/50/5 51/51/5
f 51/51/5 50/50/5 52/52/5
f 53/53/1 17/17/1 54/54/1
f 54/54/1 17/17/1 19/19/1
f 55/55/5 56/56/5 57/57/5
f 57/57/5 56/56/5 58/58/5
f 59/59/5 60/60/5 61/61/5
f 61/61/5 60/60/5 62/62/5
f 63/63/1 64/64/1 65/65/1
f 65/65/1 64/64/1 66/66/1
f 67/67/4 68/68/4 69/69/4
f 68/68/4 70/70/4 69/69/4
f 71/71/3 72/72/3 73/73/3
f 74/74/3 72/72/3 75/75/3
f 76/76/1 77/77/1 78/78/1
f 78/78/1 77/77/1 79/79/1
f 80/80/4 81/81/4 82/82/4
f 81/81/4 16/16/4 82/82/4
f 83/83/3 84/84/3 85/85/3
f 82/82/4 86/86/4 80/80/4
f 69/69/4 87/87/4 67/67/4
f 88/88/3 89/89/3 84/84/3
f 90/90/6 91/91/6 92/92/6
f 92/92/6 91/91/6 93/93/6
f 94/94/1 95/95/7 96/96/1
f 96/96/1 95/95/7 97/97/7
f 61/61/5 50/50/5 59/59/5
f 59/59/5 50/50/5 49/49/5
f 98/98/2 99/99/2 100/100/2
f 100/100/2 99/99/2 101/101/2
f 70/70/4 68/68/4 102/102/4
f 103/103/3 71/71/3 104/104/3
f 105/105/2 106/106/2 107/107/2
f 107/107/2 106/106/2 108/108/2
f 16/16/4 81/81/4 109/109/4
f 110/110/3 83/83/3 111/111/3
f 88/88/3 84/84/3 110/110/3
f 110/110/3 84/84/3 83/83/3
f 69/69/4 70/70/4 112/112/4
f 75/75/3 72/72/3 103/103/3
f 103/103/3 72/72/3 71/71/3
f 82/82/4 16/16/4 14/14/4
f 18/18/1 113/113/1 19/19/1
f 19/19/1 113/113/1 114/114/1
f 115/115/1 116/116/1 117/117/1
f 117/117/1 116/116/1 118/118/1
f 9/9/3 119/119/3 10/10/3
f 10/10/3 119/119/3 120/120/3
f 121/121/5 122/122/5 123/123/5
f 123/123/5 122/122/5 124/124/5
f 7/7/2 8/8/2 125/125/2
f 125/125/2 8/8/2 126/126/2
f 127/127/4 128/128/4 129/129/4
f 129/129/4 128/128/4 130/130/4
f 5/5/2 131/131/2 6/6/2
f 6/6/2 131/131/2 132/132/2
f 133/133/3 134/134/3 135/135/3
f 135/135/3 134/134/3 136/136/3
f 13/13/4 15/15/4 137/137/4
f 137/137/4 15/15/4 138/138/4
f 139/139/5 140/140/5 141/141/5
f 141/141/5 140/140/5 142/142/5
o 1.001
v -0.253923 0.502609 0.258402
v -0.251549 0.477680 -0.296396
v -0.253923 0.464428 0.258402
v -0.250149 0.445323 -0.294486
v -0.238370 0.502248 -0.293116
v -0.223926 0.532661 0.258454
v 0.238370 0.502248 -0.293116
v 0.223926 0.532661 0.258454
v -0.223926 0.504434 0.288399
v -0.223926 0.464428 0.288399
v 0.223926 0.504434 0.288399
v 0.223926 0.464428 0.288399
v -0.245138 0.443216 0.258402
v -0.237738 0.433913 -0.302466
v -0.223926 0.434170 0.258402
v -0.237738 0.476836 -0.303131
v -0.249291 0.495188 -0.295079
v -0.245149 0.523847 0.258428
v -0.223926 0.504434 0.288399
v -0.245149 0.503888 0.279602
v -0.223926 0.464428 0.288399
v -0.245138 0.464428 0.279613
v -0.225241 0.494284 -0.299768
v -0.223926 0.525010 0.279518
v -0.223926 0.443216 0.279613
v -0.233741 1.025809 -0.432707
v -0.233741 1.028664 -0.389167
v 0.233741 1.025809 -0.432707
v 0.233741 1.028664 -0.389167
v -0.261044 0.652559 -0.330988
v -0.255834 1.009164 -0.387788
v -0.263649 0.645680 -0.416900
v -0.233741 0.982784 -0.356165
v -0.228532 0.652546 -0.303924
v 0.233741 0.982784 -0.356165
v 0.228532 0.652546 -0.303924
v -0.255834 1.009164 -0.432707
v -0.246161 1.015749 -0.439471
v -0.261044 0.666330 -0.430837
v -0.250558 0.658707 -0.439334
v -0.233741 1.025809 -0.432707
v -0.247836 1.021608 -0.432707
v -0.233741 1.028664 -0.389167
v -0.249371 1.022946 -0.388771
v -0.249371 1.003144 -0.371526
v -0.251533 0.652552 -0.311860
v -0.250596 0.433910 -0.309514
v -0.260707 0.444452 -0.320699
v -0.250596 0.433910 -0.417734
v -0.260707 0.444452 -0.416639
v -0.233741 1.023031 -0.371676
v -0.253696 0.444452 -0.307049
v -0.237738 0.433913 -0.302466
v -0.249409 0.444452 -0.426869
v -0.253696 0.444452 -0.307049
v -0.252757 0.642993 -0.426869
v -0.252757 0.642993 -0.426869
v -0.249409 0.444452 -0.426869
v -0.237738 0.476836 -0.303131
v -0.237738 0.433913 -0.302466
v -0.225241 0.494284 -0.299768
v 0.250149 0.445323 -0.294486
v 0.251549 0.477680 -0.296396
v 0.253923 0.464428 0.258402
v 0.253923 0.502609 0.258402
v 0.245138 0.443216 0.258402
v 0.223926 0.434170 0.258402
v 0.237738 0.433913 -0.302466
v 0.237738 0.476836 -0.303131
v 0.245149 0.523847 0.258428
v 0.249291 0.495188 -0.295079
v 0.223926 0.504434 0.288399
v 0.223926 0.464428 0.288399
v 0.245149 0.503888 0.279602
v 0.245138 0.464428 0.279613
v 0.225241 0.494284 -0.299768
v 0.223926 0.525010 0.279518
v 0.223926 0.443216 0.279613
v -0.223926 0.525010 0.279518
v 0.223926 0.525010 0.279518
v -0.223926 0.434170 0.258402
v 0.223926 0.434170 0.258402
v -0.223926 0.443216 0.279613
v 0.223926 0.443216 0.279613
v 0.261044 0.652559 -0.330988
v 0.263649 0.645680 -0.416900
v 0.255834 1.009164 -0.387788
v 0.255834 1.009164 -0.432707
v 0.261044 0.666330 -0.430837
v 0.246161 1.015749 -0.439471
v 0.250558 0.658707 -0.439334
v 0.233741 1.025809 -0.432707
v 0.233741 1.028664 -0.389167
v 0.247836 1.021608 -0.432707
v 0.249371 1.022946 -0.388771
v 0.251533 0.652552 -0.311860
v 0.249371 1.003144 -0.371526
v 0.250596 0.433910 -0.309514
v 0.250596 0.433910 -0.417734
v 0.260707 0.444452 -0.320699
v 0.260707 0.444452 -0.416639
v 0.233741 1.023031 -0.371676
v 0.253696 0.444452 -0.307049
v 0.237738 0.433913 -0.302466
v 0.249409 0.444452 -0.426869
v 0.253696 0.444452 -0.307049
v -0.246161 1.015749 -0.439471
v 0.246161 1.015749 -0.439471
v -0.250558 0.658707 -0.439334
v 0.250558 0.658707 -0.439334
v -0.233741 1.023031 -0.371676
v 0.233741 1.023031 -0.371676
v 0.223926 0.433910 -0.417734
v 0.252757 0.642993 -0.426869
v 0.223926 0.642993 -0.426869
v -0.252757 0.642993 -0.426869
v -0.223926 0.642993 -0.426869
v 0.252757 0.642993 -0.426869
v 0.252757 0.642993 -0.426869
v 0.249409 0.444452 -0.426869
v 0.223926 0.642993 -0.426869
v 0.223926 0.444452 -0.426869
v 0.225241 0.494284 -0.299768
v 0.237738 0.476836 -0.303131
v 0.237738 0.433913 -0.302466
v 0.223926 0.433910 -0.417734
v -0.223926 0.433910 -0.417734
v -0.223926 0.433910 -0.417734
v 0.223926 0.444452 -0.426869
v -0.193926 0.444452 -0.426869
v 0.193926 0.444452 -0.426869
v -0.193926 0.433910 -0.417734
v 0.193926 0.433910 -0.417734
v -0.223926 0.444452 -0.426869
v -0.223926 0.642993 -0.426869
v -0.223926 0.444452 -0.426869
v -0.193926 0.612993 -0.426869
v 0.193926 0.612993 -0.426869
vt 3.5021 0.0979
vt 3.2242 0.0977
vt 3.5013 0.0789
vt 3.2244 0.0820
vt 3.2261 0.1122
vt 3.5029 0.1208
vt 3.2258 0.3512
vt 3.5031 0.3450
vt 3.5253 0.1209
vt 3.5453 0.1210
vt 3.5250 0.3449
vt 3.5448 0.3449
vt 3.5007 0.0676
vt 3.2199 0.0741
vt 3.5004 0.0560
vt 3.2165 0.0987
vt 3.2249 0.1058
vt 3.5025 0.1093
vt 3.5244 0.1021
vt 3.5130 0.0992
vt 3.5234 0.0740
vt 3.5126 0.0772
vt 3.2200 0.1181
vt 3.5158 0.1156
vt 3.5139 0.0609
vt 2.2090 0.3604
vt 2.2306 0.3616
vt 2.2100 0.1264
vt 2.2317 0.1257
vt 2.4284 0.3811
vt 2.2483 0.3944
vt 2.4294 0.4244
vt 2.2617 0.3682
vt 2.4293 0.3588
vt 2.2627 0.1201
vt 2.4302 0.1298
vt 2.2467 0.4203
vt 2.2427 0.4263
vt 2.4186 0.4308
vt 2.4221 0.4378
vt 2.2325 0.4195
vt 2.2402 0.4204
vt 2.2336 0.3942
vt 2.2418 0.3961
vt 2.2516 0.3833
vt 2.4291 0.3705
vt 2.5393 0.3760
vt 2.5321 0.3814
vt 2.5370 0.4301
vt 2.5298 0.4294
vt 2.2388 0.3823
vt 2.5346 0.3740
vt 2.5454 0.3721
vt 2.5357 0.4365
vt 2.5326 0.3737
vt 2.4311 0.4318
vt 2.4304 0.4319
vt 2.5295 0.4370
vt 2.5171 0.3648
vt 2.5380 0.3656
vt 2.5091 0.3576
vt 3.2236 0.3818
vt 3.2236 0.3657
vt 3.5004 0.3868
vt 3.5017 0.3679
vt 3.4998 0.3981
vt 3.4994 0.4096
vt 3.2189 0.3899
vt 3.2148 0.3614
vt 3.5025 0.3565
vt 3.2247 0.3574
vt 3.5246 0.3677
vt 3.5223 0.3922
vt 3.5127 0.3675
vt 3.5112 0.3887
vt 3.2203 0.3448
vt 3.5198 0.3539
vt 3.5128 0.4050
vt 3.5141 0.1209
vt 3.5141 0.3449
vt 3.5683 0.1210
vt 3.5677 0.3450
vt 3.5567 0.1210
vt 3.5562 0.3449
vt 2.4295 0.1075
vt 2.4309 0.0642
vt 2.2495 0.0937
vt 2.2480 0.0665
vt 2.4203 0.0577
vt 2.2441 0.0603
vt 2.4238 0.0507
vt 2.2339 0.0658
vt 2.2343 0.0931
vt 2.2417 0.0652
vt 2.2428 0.0921
vt 2.4301 0.1181
vt 2.2527 0.1050
vt 2.5410 0.1133
vt 2.5386 0.0595
vt 2.5334 0.1082
vt 2.5314 0.0601
vt 2.2399 0.1066
vt 2.5367 0.1167
vt 2.5474 0.1167
vt 2.5371 0.0529
vt 2.5337 0.1158
vt 2.2030 0.3665
vt 2.2040 0.1202
vt 2.0245 0.3679
vt 2.0255 0.1173
vt 2.2397 0.3630
vt 2.2408 0.1246
vt 2.5520 0.0588
vt 2.0155 0.1162
vt 2.0155 0.1306
vt 2.0144 0.3689
vt 2.0145 0.3545
vt 2.4327 0.0568
vt 2.4320 0.0568
vt 2.5312 0.0525
vt 2.4316 0.0423
vt 2.5309 0.0398
vt 2.5094 0.1309
vt 2.5178 0.1243
vt 2.5391 0.1240
vt 3.1609 0.3942
vt 3.1618 0.0696
vt 2.5501 0.4310
vt 2.5516 0.0517
vt 2.4611 0.3234
vt 2.4611 0.1295
vt 2.4541 0.3234
vt 2.4541 0.1295
vt 2.5487 0.4382
vt 2.4298 0.4463
vt 2.5291 0.4497
vt 2.5453 0.3234
vt 2.5453 0.1295
vn -0.9711 0.1499 0.1855
vn -0.9050 0.0319 -0.4242
vn -0.9749 -0.1622 0.1527
vn -0.8209 -0.4485 -0.3535
vn -0.2438 0.8823 -0.4026
vn -0.1291 0.9807 0.1469
vn 0.1731 0.8914 -0.4188
vn 0.1940 0.9700 0.1463
vn -0.1941 0.1989 0.9606
vn -0.1664 -0.1664 0.9719
vn 0.1292 0.2009 0.9711
vn 0.2327 -0.1534 0.9604
vn -0.6808 -0.6747 0.2850
vn -0.4204 -0.8824 0.2113
vn -0.3017 -0.9392 0.1640
vn -0.4060 0.0871 -0.9097
vn -0.6686 0.4702 -0.5762
vn -0.6640 0.7197 0.2029
vn -0.1940 0.1989 0.9606
vn -0.6418 0.2411 0.7280
vn -0.7348 -0.2357 0.6360
vn -0.0819 0.5233 -0.8482
vn -0.2409 0.6544 0.7168
vn -0.2368 -0.7310 0.6400
vn -0.1364 0.8844 -0.4464
vn -0.1400 0.9852 0.0985
vn 0.0916 0.8807 -0.4648
vn 0.1958 0.9767 0.0881
vn -0.9610 0.0401 0.2738
vn -0.9628 0.1972 0.1846
vn -0.9724 -0.0493 -0.2281
vn -0.2755 0.2332 0.9326
vn -0.1097 0.0889 0.9900
vn 0.1967 0.2428 0.9499
vn 0.1648 0.0872 0.9825
vn -0.9187 0.2666 -0.2915
vn -0.3345 0.3626 -0.8698
vn -0.7611 -0.1446 -0.6323
vn -0.2163 -0.3532 -0.9102
vn -0.5256 0.7943 -0.3047
vn -0.7000 0.6769 0.2275
vn -0.7414 0.2677 0.6154
vn -0.6033 0.0630 0.7950
vn -0.6003 -0.7062 0.3754
vn -0.9409 -0.2646 0.2113
vn -0.3929 -0.8786 -0.2715
vn -0.8306 -0.2779 -0.4826
vn -0.2559 0.6364 0.7277
vn -0.5952 -0.1337 0.7924
vn -0.2337 -0.3377 -0.9118
vn -0.5070 -0.2487 -0.8253
vn -0.2816 0.0216 0.9593
vn -0.2082 0.0232 0.9778
vn 0.8209 -0.4485 -0.3535
vn 0.9050 0.0319 -0.4242
vn 0.9749 -0.1622 0.1527
vn 0.9711 0.1499 0.1855
vn 0.6808 -0.6747 0.2850
vn 0.2516 -0.9457 0.2060
vn 0.4204 -0.8824 0.2113
vn 0.4060 0.0871 -0.9097
vn 0.6640 0.7197 0.2029
vn 0.6686 0.4702 -0.5762
vn 0.1291 0.2009 0.9711
vn 0.2327 -0.1533 0.9604
vn 0.6418 0.2411 0.7280
vn 0.7348 -0.2357 0.6360
vn 0.1091 0.4803 -0.8703
vn 0.2409 0.7541 0.6110
vn 0.2368 -0.6332 0.7369
vn 0.2516 -0.9456 0.2060
vn 0.9610 0.0401 0.2738
vn 0.9724 -0.0493 -0.2281
vn 0.9628 0.1972 0.1846
vn 0.9186 0.2667 -0.2915
vn 0.7611 -0.1446 -0.6323
vn 0.3360 0.2752 -0.9008
vn 0.3050 -0.3582 -0.8824
vn 0.1959 0.9767 0.0881
vn 0.5256 0.7943 -0.3047
vn 0.7000 0.6769 0.2275
vn 0.6033 0.0630 0.7950
vn 0.7414 0.2677 0.6154
vn 0.6003 -0.7062 0.3754
vn 0.3929 -0.8786 -0.2715
vn 0.9409 -0.2646 0.2113
vn 0.8306 -0.2779 -0.4826
vn 0.2563 0.7483 0.6118
vn 0.5952 -0.1337 0.7924
vn 0.2337 -0.3377 -0.9118
vn -0.3345 0.3625 -0.8699
vn -0.2559 0.6363 0.7277
vn 0.2563 0.7485 0.6117
vn -0.0008 -0.9097 -0.4153
vn 0.5070 -0.2488 -0.8253
vn 0.0000 -0.3939 -0.9191
vn -0.5070 -0.2488 -0.8253
vn 0.0000 -0.3290 -0.9443
vn 0.5070 -0.2487 -0.8253
vn 0.0000 -0.3495 -0.9370
vn 0.1564 0.0241 0.9874
vn 0.2816 0.0216 0.9593
vn 0.0008 -0.9097 -0.4153
vn 0.0000 -0.3495 -0.9369
vn 0.0000 -0.2312 -0.9729
vn 0.0000 -0.4624 -0.8867
vn 0.0000 -0.6549 -0.7557
vn 0.0000 0.0000 -1.0000
usemtl prop_brezent.001
s 1
f 143/143/8 144/144/9 145/145/10
f 145/145/10 144/144/9 146/146/11
f 147/147/12 148/148/13 149/149/14
f 149/149/14 148/148/13 150/150/15
f 151/151/16 152/152/17 153/153/18
f 153/153/18 152/152/17 154/154/19
f 146/146/11 155/155/20 145/145/10
f 156/156/21 157/157/22 146/146/11
f 146/146/11 157/157/22 155/155/20
f 156/156/21 146/146/11 158/158/23
f 158/158/23 146/146/11 144/144/9
f 159/159/24 160/160/25 147/147/12
f 147/147/12 160/160/25 148/148/13
f 144/144/9 143/143/8 159/159/24
f 159/159/24 143/143/8 160/160/25
f 161/161/26 162/162/27 163/163/17
f 163/163/17 162/162/27 164/164/28
f 162/162/27 143/143/8 164/164/28
f 164/164/28 143/143/8 145/145/10
f 159/159/24 147/147/12 165/165/29
f 159/159/24 165/165/29 158/158/23
f 160/160/25 143/143/8 162/162/27
f 162/162/27 161/161/26 166/166/30
f 166/166/30 148/148/13 160/160/25
f 164/164/28 155/155/20 167/167/31
f 155/155/20 157/157/22 167/167/31
f 167/167/31 163/163/17 164/164/28
f 159/159/24 158/158/23 144/144/9
f 160/160/25 162/162/27 166/166/30
f 164/164/28 145/145/10 155/155/20
f 168/168/32 169/169/33 170/170/34
f 170/170/34 169/169/33 171/171/35
f 172/172/36 173/173/37 174/174/38
f 175/175/39 176/176/40 177/177/41
f 177/177/41 176/176/40 178/178/42
f 179/179/43 180/180/44 181/181/45
f 181/181/45 180/180/44 182/182/46
f 183/183/32 184/184/47 185/185/33
f 185/185/33 184/184/47 186/186/48
f 184/184/47 179/179/43 186/186/48
f 186/186/48 179/179/43 173/173/37
f 187/187/49 188/188/50 175/175/39
f 175/175/39 188/188/50 176/176/40
f 173/173/37 172/172/36 187/187/49
f 187/187/49 172/172/36 188/188/50
f 189/189/51 190/190/52 191/191/53
f 191/191/53 190/190/52 192/192/54
f 183/183/32 180/180/44 184/184/47
f 186/186/48 173/173/37 187/187/49
f 187/187/49 175/175/39 193/193/55
f 193/193/55 185/185/33 186/186/48
f 194/194/56 190/190/52 189/189/51
f 189/189/51 195/195/21 194/194/56
f 192/192/54 196/196/57 191/191/53
f 193/193/55 186/186/48 187/187/49
f 172/172/36 190/190/52 188/188/50
f 188/188/50 190/190/52 197/197/56
f 184/184/47 180/180/44 179/179/43
f 182/182/46 198/198/58 181/181/45
f 181/181/45 198/198/58 174/174/38
f 174/174/38 199/199/58 192/192/54
f 192/192/54 199/199/58 200/200/57
f 192/192/54 190/190/52 174/174/38
f 174/174/38 190/190/52 172/172/36
f 174/174/38 179/179/43 181/181/45
f 174/174/38 173/173/37 179/179/43
f 201/201/59 197/197/56 202/202/21
f 176/176/40 188/188/50 203/203/60
f 203/203/60 188/188/50 201/201/59
f 201/201/59 188/188/50 197/197/56
f 204/204/61 205/205/62 206/206/63
f 206/206/63 205/205/62 207/207/64
f 204/204/61 206/206/63 208/208/65
f 208/208/65 209/209/66 204/204/61
f 204/204/61 209/209/66 210/210/67
f 210/210/67 211/211/68 204/204/61
f 204/204/61 211/211/68 205/205/62
f 150/150/15 212/212/69 149/149/14
f 149/149/14 212/212/69 213/213/70
f 212/212/69 207/207/64 213/213/70
f 213/213/70 207/207/64 205/205/62
f 214/214/71 215/215/72 216/216/73
f 216/216/73 215/215/72 217/217/74
f 216/216/73 217/217/74 207/207/64
f 207/207/64 217/217/74 206/206/63
f 213/213/70 218/218/75 149/149/14
f 213/213/70 211/211/68 218/218/75
f 212/212/69 216/216/73 207/207/64
f 216/216/73 219/219/76 214/214/71
f 219/219/76 212/212/69 150/150/15
f 217/217/74 220/220/77 208/208/65
f 208/208/65 220/220/77 209/209/66
f 220/220/77 217/217/74 215/215/72
f 213/213/70 205/205/62 211/211/68
f 212/212/69 219/219/76 216/216/73
f 217/217/74 208/208/65 206/206/63
f 151/151/16 153/153/18 221/221/30
f 221/221/30 153/153/18 222/222/76
f 221/221/30 222/222/76 148/148/13
f 148/148/13 222/222/76 150/150/15
f 223/223/22 224/224/78 225/225/31
f 225/225/31 224/224/78 226/226/77
f 225/225/31 226/226/77 152/152/17
f 152/152/17 226/226/77 154/154/19
f 147/147/12 149/149/14 165/165/29
f 165/165/29 149/149/14 218/218/75
f 227/227/79 228/228/80 229/229/81
f 230/230/82 231/231/83 232/232/84
f 232/232/84 231/231/83 233/233/85
f 234/234/34 235/235/86 236/236/87
f 236/236/87 235/235/86 237/237/88
f 236/236/87 237/237/88 230/230/82
f 230/230/82 237/237/88 229/229/81
f 178/178/42 238/238/89 177/177/41
f 177/177/41 238/238/89 239/239/90
f 238/238/89 227/227/79 239/239/90
f 239/239/90 227/227/79 229/229/81
f 240/240/91 241/241/92 242/242/93
f 242/242/93 241/241/92 243/243/94
f 234/234/34 236/236/87 232/232/84
f 237/237/88 239/239/90 229/229/81
f 239/239/90 244/244/95 177/177/41
f 244/244/95 237/237/88 235/235/86
f 245/245/96 240/240/91 242/242/93
f 240/240/91 245/245/96 246/246/67
f 243/243/94 241/241/92 247/247/97
f 244/244/95 239/239/90 237/237/88
f 248/248/96 242/242/93 238/238/89
f 238/238/89 242/242/93 227/227/79
f 249/249/98 250/250/84 251/251/46
f 251/251/46 250/250/84 252/252/85
f 168/168/32 170/170/34 249/249/98
f 249/249/98 170/170/34 250/250/84
f 175/175/39 177/177/41 253/253/99
f 253/253/99 177/177/41 254/254/100
f 253/253/99 254/254/100 169/169/33
f 169/169/33 254/254/100 171/171/35
f 255/255/101 247/247/97 241/241/92
f 236/236/87 230/230/82 232/232/84
f 256/256/102 257/257/103 252/252/85
f 252/252/85 257/257/103 251/251/46
f 258/258/104 251/251/46 259/259/105
f 251/251/46 257/257/103 259/259/105
f 228/228/80 260/260/106 231/231/83
f 231/231/83 260/260/106 233/233/85
f 261/261/106 262/262/97 263/263/103
f 263/263/103 262/262/97 264/264/107
f 228/228/80 243/243/94 261/261/106
f 261/261/106 243/243/94 262/262/97
f 243/243/94 228/228/80 242/242/93
f 242/242/93 228/228/80 227/227/79
f 228/228/80 231/231/83 230/230/82
f 228/228/80 230/230/82 229/229/81
f 203/203/60 265/265/108 176/176/40
f 176/176/40 265/265/108 178/178/42
f 266/266/109 267/267/67 248/248/96
f 178/178/42 265/265/108 238/238/89
f 238/238/89 265/265/108 266/266/109
f 266/266/109 248/248/96 238/238/89
f 246/246/67 241/241/92 240/240/91
f 268/268/101 210/210/67 209/209/66
f 191/191/53 195/195/21 189/189/51
f 255/255/101 241/241/92 246/246/67
f 156/156/21 269/269/110 157/157/22
f 191/191/53 270/270/110 195/195/21
f 271/271/111 247/247/97 255/255/101
f 196/196/57 270/270/110 191/191/53
f 272/272/112 273/273/113 274/274/114
f 274/274/114 273/273/113 275/275/114
f 196/196/57 276/276/111 270/270/110
f 199/199/58 277/277/105 200/200/57
f 200/200/57 277/277/105 278/278/107
f 279/279/115 280/280/115 272/272/112
f 272/272/112 280/280/115 273/273/113
