# ..:::Stalker models:::..
# WebSite: http://excalibur-craft.ru
mtllib cover_metal_shield_3.mtl
o 2.001
v -0.590109 0.003457 0.301382
v -0.503862 1.519835 -0.103925
v -0.590868 0.005866 0.311376
v -0.503648 1.522220 -0.094232
v -0.549710 1.509733 -0.146524
v -0.635948 -0.006670 0.258680
v -0.562286 1.509690 -0.147140
v -0.648524 -0.006713 0.258064
v -0.590109 0.003457 0.301382
v -0.590868 0.005866 0.311376
v -0.636489 0.004132 0.300543
v -0.649462 0.006554 0.310716
v -0.503862 1.519835 -0.103925
v -0.590109 0.003457 0.301382
v -0.550256 1.520523 -0.104723
v -0.636489 0.004132 0.300543
v -0.503862 1.519835 -0.103925
v -0.550256 1.520523 -0.104723
v -0.503648 1.522220 -0.094232
v -0.563208 1.522942 -0.094542
v -0.503648 1.522220 -0.094232
v -0.563208 1.522942 -0.094542
v -0.590868 0.005866 0.311376
v -0.649462 0.006554 0.310716
v -0.635948 -0.006670 0.258680
v -0.648524 -0.006713 0.258064
v -0.649462 0.006554 0.310716
v -0.562286 1.509690 -0.147140
v -0.648524 -0.006713 0.258064
v -0.563208 1.522942 -0.094542
v -0.649462 0.006554 0.310716
v -0.549710 1.509733 -0.146524
v -0.562286 1.509690 -0.147140
v -0.563208 1.522942 -0.094542
v -0.549710 1.509733 -0.146524
v -0.550256 1.520523 -0.104723
v -0.635948 -0.006670 0.258680
v -0.636489 0.004132 0.300543
v 0.551840 0.190191 0.239757
v 0.572783 0.190195 0.239766
v 0.567237 0.179225 -0.360728
v 0.586652 0.179713 -0.361511
v 0.551840 0.190191 0.239757
v 0.552031 0.139750 0.249888
v 0.572783 0.190195 0.239766
v 0.572974 0.139754 0.249897
v 0.552031 0.139750 0.249888
v 0.551840 0.190191 0.239757
v 0.566425 0.132171 -0.361050
v 0.567237 0.179225 -0.360728
v 0.572974 0.139754 0.249897
v 0.585840 0.132658 -0.361833
v 0.572783 0.190195 0.239766
v 0.586652 0.179713 -0.361511
v 0.585840 0.132658 -0.361833
v 0.572974 0.139754 0.249897
v 0.566425 0.132171 -0.361050
v 0.552031 0.139750 0.249888
v -0.675627 0.681682 0.130041
v -0.675670 0.686592 0.148023
v -0.667742 1.425861 -0.069093
v -0.667508 1.430940 -0.050360
v 0.665338 1.430414 -0.054778
v -0.667508 1.430940 -0.050360
v 0.657419 0.686259 0.144338
v -0.675670 0.686592 0.148023
v 0.657419 0.686259 0.144338
v 0.657349 0.681442 0.125532
v 0.665338 1.430414 -0.054778
v 0.665104 1.425788 -0.073656
v -0.667508 1.430940 -0.050360
v 0.665338 1.430414 -0.054778
v -0.667742 1.425861 -0.069093
v 0.665104 1.425788 -0.073656
v 0.657419 0.686259 0.144338
v -0.675670 0.686592 0.148023
v 0.657349 0.681442 0.125532
v -0.675627 0.681682 0.130041
v -0.675627 0.681682 0.130041
v -0.667742 1.425861 -0.069093
v 0.657349 0.681442 0.125532
v 0.665104 1.425788 -0.073656
v 0.446453 1.550629 -0.105790
v 0.446227 1.548243 -0.115493
v 0.555298 0.006315 0.307165
v 0.555079 0.003926 0.297461
v 0.597859 -0.005552 0.259796
v 0.585666 -0.005539 0.259983
v 0.489854 1.538799 -0.153239
v 0.477661 1.538812 -0.153052
v 0.555079 0.003926 0.297461
v 0.586153 0.003858 0.296769
v 0.555298 0.006315 0.307165
v 0.598949 0.006289 0.307075
v 0.446227 1.548243 -0.115493
v 0.477236 1.548204 -0.116061
v 0.555079 0.003926 0.297461
v 0.586153 0.003858 0.296769
v 0.490026 1.550631 -0.105766
v 0.477236 1.548204 -0.116061
v 0.446453 1.550629 -0.105790
v 0.446227 1.548243 -0.115493
v 0.598949 0.006289 0.307075
v 0.490026 1.550631 -0.105766
v 0.555298 0.006315 0.307165
v 0.446453 1.550629 -0.105790
v 0.586153 0.003858 0.296769
v 0.597859 -0.005552 0.259796
v 0.585666 -0.005539 0.259983
v 0.489854 1.538799 -0.153239
v 0.490026 1.550631 -0.105766
v 0.597859 -0.005552 0.259796
v 0.598949 0.006289 0.307075
v 0.477661 1.538812 -0.153052
v 0.477236 1.548204 -0.116061
v 0.489854 1.538799 -0.153239
v 0.586153 0.003858 0.296769
v 0.477236 1.548204 -0.116061
v 0.585666 -0.005539 0.259983
v 0.477661 1.538812 -0.153052
vt 0.9802 0.8041
vt 0.9804 0.0000
vt 0.9854 0.8043
vt 0.9854 0.0001
vt 0.9742 0.0000
vt 0.9742 0.8049
vt 0.9679 0.0003
vt 0.9679 0.8051
vt 0.0945 0.6867
vt 0.0996 0.6871
vt 0.0943 0.7105
vt 0.0996 0.7171
vt 0.8479 0.8057
vt 0.8479 0.0009
vt 0.8710 0.8049
vt 0.8710 0.0000
vt 0.0998 0.7171
vt 0.0996 0.6933
vt 0.1048 0.7172
vt 0.1048 0.6867
vt 0.7965 0.8061
vt 0.7669 0.8048
vt 0.7965 0.0012
vt 0.7674 0.0000
vt 0.0817 0.7143
vt 0.0816 0.6922
vt 0.0880 0.7145
vt 0.0880 0.6867
vt 0.8236 0.0000
vt 0.8236 0.8031
vt 0.7966 0.0004
vt 0.7965 0.8035
vt 0.0881 0.6869
vt 0.0943 0.6867
vt 0.0880 0.7090
vt 0.0943 0.7145
vt 0.9142 0.8043
vt 0.8927 0.8041
vt 0.9142 0.0002
vt 0.8927 0.0000
vt 0.0607 0.6867
vt 0.0712 0.6870
vt 0.0615 0.9889
vt 0.0712 0.9895
vt 0.0816 0.6867
vt 0.0816 0.7130
vt 0.0712 0.6868
vt 0.0712 0.7131
vt 0.0503 0.9995
vt 0.0252 0.9947
vt 0.0503 0.6867
vt 0.0269 0.6872
vt 0.0252 0.6867
vt 0.0252 1.0000
vt 0.0000 0.6916
vt 0.0017 0.9996
vt 0.0607 0.6867
vt 0.0607 0.9942
vt 0.0511 0.6873
vt 0.0503 0.9944
vt 1.0000 0.7890
vt 0.9907 0.7890
vt 1.0000 0.3947
vt 0.9903 0.3946
vt 0.7669 0.0000
vt 0.7669 0.6824
vt 0.3835 0.0042
vt 0.3835 0.6868
vt 1.0000 0.3946
vt 0.9903 0.3945
vt 1.0000 0.0002
vt 0.9903 0.0000
vt 0.9583 0.0001
vt 0.9583 0.6825
vt 0.9486 0.0000
vt 0.9486 0.6824
vt 0.9679 0.0000
vt 0.9679 0.6825
vt 0.9583 0.0000
vt 0.9587 0.6825
vt 0.3835 0.6867
vt 0.0001 0.6824
vt 0.3835 0.0042
vt 0.0000 0.0000
vt 0.9854 0.0001
vt 0.9903 0.0000
vt 0.9854 0.8192
vt 0.9903 0.8191
vt 0.9742 0.0000
vt 0.9802 0.0004
vt 0.9742 0.8204
vt 0.9802 0.8208
vt 0.1177 0.7092
vt 0.1174 0.6933
vt 0.1227 0.7091
vt 0.1227 0.6867
vt 0.9486 0.8214
vt 0.9332 0.8204
vt 0.9486 0.0010
vt 0.9332 0.0000
vt 0.1279 0.7091
vt 0.1227 0.7026
vt 0.1279 0.6868
vt 0.1230 0.6867
vt 0.8927 0.0000
vt 0.8927 0.8203
vt 0.8710 0.0015
vt 0.8710 0.8218
vt 0.1174 0.7117
vt 0.1111 0.7061
vt 0.1174 0.6868
vt 0.1113 0.6867
vt 0.8236 0.0000
vt 0.8479 0.0004
vt 0.8236 0.8177
vt 0.8479 0.8181
vt 0.1051 0.7117
vt 0.1048 0.6922
vt 0.1111 0.7118
vt 0.1111 0.6867
vt 0.9332 0.0000
vt 0.9332 0.8191
vt 0.9143 0.0002
vt 0.9142 0.8193
vn 0.9959 -0.0342 0.0839
vn 0.9982 -0.0469 0.0383
vn 0.9982 -0.0594 -0.0074
vn 0.0481 -0.2604 -0.9643
vn -0.0184 -0.9723 0.2330
vn -0.0161 -0.9745 0.2239
vn -0.0076 -0.9718 0.2355
vn -0.0016 -0.9733 0.2297
vn 0.0128 -0.2589 -0.9658
vn 0.0137 -0.2589 -0.9658
vn 0.0185 0.9708 -0.2393
vn 0.0073 0.9714 -0.2373
vn 0.0157 0.9737 -0.2274
vn 0.0009 0.9732 -0.2300
vn -0.0019 0.2585 0.9660
vn -0.0049 0.2586 0.9660
vn -0.0078 0.2586 0.9660
vn -0.0089 -0.9683 0.2497
vn 0.0009 -0.9690 0.2471
vn -0.9984 0.0488 -0.0298
vn -0.9984 0.0488 -0.0301
vn 0.0089 0.9683 -0.2498
vn -0.0011 0.9690 -0.2472
vn 0.9984 -0.0499 0.0259
vn 0.9984 -0.0499 0.0258
vn -0.0002 0.9998 -0.0183
vn -0.0130 0.9998 -0.0181
vn -0.0258 0.9995 -0.0180
vn -0.0005 0.1969 0.9804
vn -0.9997 -0.0085 -0.0234
vn -0.9997 0.0045 -0.0247
vn -0.9995 0.0174 -0.0259
vn 0.9997 0.0080 0.0209
vn 0.9997 -0.0047 0.0221
vn 0.9996 -0.0174 0.0234
vn 0.0256 -0.9996 0.0121
vn 0.0129 -0.9998 0.0123
vn 0.0002 -0.9999 0.0124
vn -0.9999 0.0093 -0.0049
vn -0.9999 0.0113 0.0020
vn -0.9999 0.0133 0.0089
vn 0.0033 0.2584 0.9660
vn 0.0029 0.2578 0.9662
vn 0.0031 0.2581 0.9661
vn 0.0027 0.2575 0.9663
vn 0.9999 -0.0109 -0.0009
vn 0.9999 -0.0119 -0.0051
vn 0.9999 -0.0119 -0.0050
vn 0.9999 -0.0129 -0.0092
vn -0.0005 0.9652 -0.2616
vn -0.0006 0.9683 -0.2499
vn -0.0006 0.9683 -0.2498
vn -0.0008 0.9713 -0.2380
vn 0.0004 -0.9687 0.2481
vn 0.0006 -0.9667 0.2558
vn 0.0007 -0.9647 0.2634
vn -0.0033 -0.2585 -0.9660
vn -0.9975 -0.0601 0.0380
vn -0.9975 -0.0603 0.0374
vn -0.0151 -0.2593 -0.9657
vn 0.0032 -0.9710 0.2390
vn -0.0014 -0.9708 0.2399
vn 0.0016 -0.9722 0.2343
vn -0.0059 -0.9716 0.2364
vn -0.0180 -0.2595 -0.9656
vn -0.0200 -0.2596 -0.9655
vn -0.0201 -0.2596 -0.9655
vn -0.0221 -0.2596 -0.9655
vn 0.0053 0.9718 -0.2357
vn 0.0012 0.9710 -0.2391
vn -0.0015 0.9722 -0.2341
vn -0.0031 0.9711 -0.2387
vn 0.0021 0.2584 0.9660
vn 0.0010 0.2583 0.9661
vn 0.0008 0.2583 0.9661
vn -0.0005 0.2583 0.9661
vn -0.0014 -0.9708 0.2398
vn -0.0044 -0.9694 0.2453
vn 0.0028 -0.9689 0.2475
vn 0.9977 0.0645 -0.0197
vn 0.9976 0.0623 -0.0289
vn 0.9975 0.0602 -0.0381
vn -0.0027 0.9692 -0.2461
vn 0.0039 0.9698 -0.2440
vn -0.9976 -0.0626 0.0292
vn -0.9977 -0.0654 0.0175
vn -0.9977 -0.0682 0.0059
usemtl mtl_walls10
s 1
f 1/1/1 2/2/2 3/3/2
f 3/3/2 2/2/2 4/4/3
f 5/5/4 6/6/4 7/7/4
f 7/7/4 6/6/4 8/8/4
f 9/9/5 10/10/6 11/11/7
f 11/11/7 10/10/6 12/12/8
f 13/13/9 14/14/10 15/15/9
f 15/15/9 14/14/10 16/16/10
f 17/17/11 18/18/12 19/19/13
f 19/19/13 18/18/12 20/20/14
f 21/21/15 22/22/16 23/23/16
f 23/23/16 22/22/16 24/24/17
f 25/25/18 11/26/7 26/27/19
f 26/27/19 11/26/7 27/28/8
f 28/29/20 29/30/21 30/31/20
f 30/31/20 29/30/21 31/32/21
f 32/33/22 33/34/23 18/35/12
f 18/35/12 33/34/23 34/36/14
f 35/37/24 36/38/24 37/39/25
f 37/39/25 36/38/24 38/40/25
f 39/41/26 40/42/27 41/43/27
f 41/43/27 40/42/27 42/44/28
f 43/45/29 44/46/29 45/47/29
f 45/47/29 44/46/29 46/48/29
f 47/49/30 48/50/31 49/51/31
f 49/51/31 48/50/31 50/52/32
f 51/53/33 52/54/34 53/55/34
f 53/55/34 52/54/34 54/56/35
f 55/57/36 56/58/37 57/59/37
f 57/59/37 56/58/37 58/60/38
f 59/61/39 60/62/40 61/63/40
f 61/63/40 60/62/40 62/64/41
f 63/65/42 64/66/43 65/67/44
f 65/67/44 64/66/43 66/68/45
f 67/69/46 68/70/47 69/71/48
f 69/71/48 68/70/47 70/72/49
f 71/73/50 72/74/51 73/75/52
f 73/75/52 72/74/51 74/76/53
f 75/77/54 76/78/55 77/79/55
f 77/79/55 76/78/55 78/80/56
f 79/81/57 80/82/57 81/83/57
f 81/83/57 80/82/57 82/84/57
f 83/85/58 84/86/58 85/87/59
f 85/87/59 84/86/58 86/88/59
f 87/89/60 88/90/60 89/91/60
f 89/91/60 88/90/60 90/92/60
f 91/93/61 92/94/62 93/95/63
f 93/95/63 92/94/62 94/96/64
f 95/97/65 96/98/66 97/99/67
f 97/99/67 96/98/66 98/100/68
f 99/101/69 100/102/70 101/103/71
f 101/103/71 100/102/70 102/104/72
f 103/105/73 104/106/74 105/107/75
f 105/107/75 104/106/74 106/108/76
f 94/109/64 107/110/77 108/111/78
f 108/111/78 107/110/77 109/112/79
f 110/113/80 111/114/81 112/115/81
f 112/115/81 111/114/81 113/116/82
f 114/117/83 115/118/70 116/119/84
f 116/119/84 115/118/70 99/120/69
f 117/121/85 118/122/86 119/123/86
f 119/123/86 118/122/86 120/124/87
o 0.003
v 0.517047 1.152068 -0.003126
v 0.595721 -0.000463 -0.355042
v 0.529296 1.152055 -0.003682
v 0.608934 -0.000497 -0.355529
v 0.536088 0.001539 -0.427194
v 0.536303 -0.000587 -0.411934
v 0.455465 1.164341 -0.065497
v 0.456149 1.162220 -0.050252
v 0.517047 1.152068 -0.003126
v 0.515671 1.164311 -0.052022
v 0.595721 -0.000463 -0.355042
v 0.595824 0.001502 -0.411891
v 0.527220 1.166421 -0.067803
v 0.515671 1.164311 -0.052022
v 0.529296 1.152055 -0.003682
v 0.517047 1.152068 -0.003126
v 0.607869 0.003617 -0.427315
v 0.527220 1.166421 -0.067803
v 0.608934 -0.000497 -0.355529
v 0.529296 1.152055 -0.003682
v 0.455465 1.164341 -0.065497
v 0.527220 1.166421 -0.067803
v 0.536088 0.001539 -0.427194
v 0.607869 0.003617 -0.427315
v 0.456149 1.162220 -0.050252
v 0.515671 1.164311 -0.052022
v 0.455465 1.164341 -0.065497
v 0.595824 0.001502 -0.411891
v 0.515671 1.164311 -0.052022
v 0.536303 -0.000587 -0.411934
v 0.456149 1.162220 -0.050252
v -0.581106 1.156503 -0.008338
v -0.596041 1.157836 -0.008372
v -0.652897 -0.006243 -0.362293
v -0.667892 -0.006284 -0.362900
v -0.533112 1.161529 -0.055871
v -0.603897 0.002080 -0.408448
v -0.533598 1.166011 -0.073702
v -0.604125 0.006398 -0.426303
v -0.652897 -0.006243 -0.362293
v -0.667892 -0.006284 -0.362900
v -0.652489 0.002680 -0.408316
v -0.667353 0.007010 -0.426009
v -0.581106 1.156503 -0.008338
v -0.652897 -0.006243 -0.362293
v -0.581538 1.165785 -0.054291
v -0.652489 0.002680 -0.408316
v -0.581106 1.156503 -0.008338
v -0.581538 1.165785 -0.054291
v -0.596041 1.157836 -0.008372
v -0.597512 1.171720 -0.071054
v -0.596041 1.157836 -0.008372
v -0.597512 1.171720 -0.071054
v -0.667892 -0.006284 -0.362900
v -0.667353 0.007010 -0.426009
v -0.603897 0.002080 -0.408448
v -0.652489 0.002680 -0.408316
v -0.604125 0.006398 -0.426303
v -0.597512 1.171720 -0.071054
v -0.533598 1.166011 -0.073702
v -0.667353 0.007010 -0.426009
v -0.604125 0.006398 -0.426303
v -0.533112 1.161529 -0.055871
v -0.533598 1.166011 -0.073702
v -0.581538 1.165785 -0.054291
v -0.652489 0.002680 -0.408316
v -0.603897 0.002080 -0.408448
v -0.581538 1.165785 -0.054291
v -0.533112 1.161529 -0.055871
v 0.543106 0.652947 0.127067
v -0.600103 0.652759 0.128822
v 0.542548 0.646480 0.100809
v -0.600709 0.645937 0.101100
v 0.542548 0.646480 0.100809
v -0.600709 0.645937 0.101100
v 0.540509 0.672422 0.094360
v -0.600068 0.673234 0.093514
v 0.541098 0.678893 0.120683
v 0.540509 0.672422 0.094360
v -0.599453 0.680053 0.121155
v -0.600068 0.673234 0.093514
v -0.639534 0.157353 -0.368782
v -0.625890 0.193517 0.241183
v -0.621993 0.157053 -0.369438
v -0.609099 0.193633 0.241474
v -0.626009 0.141452 0.250435
v -0.609218 0.141567 0.250727
v -0.625890 0.193517 0.241183
v -0.609099 0.193633 0.241474
v -0.640115 0.106005 -0.376646
v -0.626009 0.141452 0.250435
v -0.639534 0.157353 -0.368782
v -0.625890 0.193517 0.241183
v -0.609099 0.193633 0.241474
v -0.609218 0.141567 0.250727
v -0.621993 0.157053 -0.369438
v -0.622575 0.105705 -0.377302
v -0.640115 0.106005 -0.376646
v -0.622575 0.105705 -0.377302
v -0.626009 0.141452 0.250435
v -0.609218 0.141567 0.250727
v 0.465263 1.392419 -0.030935
v -0.517858 1.392675 -0.027246
v 0.464652 1.388413 -0.046835
v -0.518476 1.388672 -0.043145
v 0.464959 1.415821 -0.099264
v -0.518166 1.416081 -0.095549
v 0.465178 1.431852 -0.103552
v -0.518923 1.432136 -0.099563
v -0.518476 1.388672 -0.043145
v -0.517858 1.392675 -0.027246
v -0.518401 1.426834 -0.053214
v -0.518543 1.446895 -0.041301
v 0.464714 1.426578 -0.056914
v 0.464652 1.388413 -0.046835
v -0.518401 1.426834 -0.053214
v -0.518476 1.388672 -0.043145
v 0.464652 1.388413 -0.046835
v 0.464714 1.426578 -0.056914
v 0.465263 1.392419 -0.030935
v 0.464581 1.446634 -0.045017
v 0.465263 1.392419 -0.030935
v 0.464581 1.446634 -0.045017
v -0.517858 1.392675 -0.027246
v -0.518543 1.446895 -0.041301
v -0.518166 1.416081 -0.095549
v -0.518923 1.432136 -0.099563
v 0.465178 1.431852 -0.103552
v -0.518923 1.432136 -0.099563
v 0.464581 1.446634 -0.045017
v -0.518543 1.446895 -0.041301
v 0.464959 1.415821 -0.099264
v 0.465178 1.431852 -0.103552
v 0.464959 1.415821 -0.099264
v 0.464714 1.426578 -0.056914
v -0.518166 1.416081 -0.095549
v -0.518401 1.426834 -0.053214
vt 0.9521 0.9753
vt 0.9511 0.0008
vt 0.9645 0.9746
vt 0.9645 0.0000
vt 0.8879 0.0000
vt 0.9033 0.0020
vt 0.8879 0.9976
vt 0.9033 0.9996
vt 0.3380 0.0000
vt 0.3890 0.0022
vt 0.3334 0.9872
vt 0.3890 0.9994
vt 0.7493 0.5672
vt 0.7371 0.5546
vt 0.7493 0.5143
vt 0.7369 0.5142
vt 0.0707 0.0000
vt 0.0707 0.9954
vt 0.0000 0.0141
vt 0.0043 0.9997
vt 0.1433 0.9456
vt 0.0707 0.9431
vt 0.1433 0.0026
vt 0.0707 0.0000
vt 0.7494 0.6246
vt 0.7493 0.5760
vt 0.7650 0.6248
vt 0.7650 0.5661
vt 0.2732 0.9855
vt 0.2732 0.0018
vt 0.3334 0.9839
vt 0.3334 0.0000
vt 0.9184 0.9834
vt 0.9033 0.9838
vt 0.9184 0.0008
vt 0.9033 0.0000
vt 0.8693 0.9935
vt 0.8693 0.0009
vt 0.8879 0.9928
vt 0.8879 0.0000
vt 0.6791 0.6143
vt 0.6942 0.6147
vt 0.6790 0.6514
vt 0.6942 0.6656
vt 0.5440 0.0000
vt 0.5440 0.9956
vt 0.4968 0.0037
vt 0.4968 0.9996
vt 0.7678 0.6189
vt 0.7671 0.5810
vt 0.7829 0.6185
vt 0.7829 0.5667
vt 0.1435 0.0000
vt 0.2082 0.0041
vt 0.1433 0.9953
vt 0.2082 1.0000
vt 0.7493 0.5661
vt 0.7494 0.5264
vt 0.7671 0.5660
vt 0.7671 0.5142
vt 0.2732 0.9439
vt 0.2082 0.9423
vt 0.2732 0.0000
vt 0.2093 0.0025
vt 0.7671 0.5143
vt 0.7853 0.5142
vt 0.7675 0.5541
vt 0.7853 0.5667
vt 0.4382 0.9828
vt 0.3890 0.9810
vt 0.4382 0.0000
vt 0.3890 0.0013
vt 0.8137 0.0000
vt 0.8137 0.9358
vt 0.7868 0.0004
vt 0.7853 0.9362
vt 0.8416 0.0000
vt 0.8416 0.9358
vt 0.8151 0.0016
vt 0.8137 0.9352
vt 0.8693 0.9333
vt 0.8429 0.9331
vt 0.8693 0.0003
vt 0.8416 0.0000
vt 0.9822 0.4984
vt 0.9830 0.0005
vt 1.0000 0.4987
vt 1.0000 0.0000
vt 0.7112 0.6557
vt 0.6942 0.6556
vt 0.7112 0.6144
vt 0.6942 0.6143
vt 0.7853 0.0000
vt 0.7853 0.5142
vt 0.7339 0.0088
vt 0.7322 0.5091
vt 0.6790 0.0051
vt 0.7322 0.0000
vt 0.6808 0.5062
vt 0.7322 0.5150
vt 0.9645 0.0002
vt 0.9822 0.0000
vt 0.9653 0.5145
vt 0.9822 0.5150
vt 0.9348 0.8052
vt 0.9348 0.0004
vt 0.9511 0.8048
vt 0.9511 0.0000
vt 0.9185 0.8054
vt 0.9184 0.0006
vt 0.9348 0.8056
vt 0.9348 0.0000
vt 0.6791 0.5782
vt 0.6790 0.5648
vt 0.7190 0.5785
vt 0.7357 0.5650
vt 0.6401 0.0000
vt 0.6790 0.0001
vt 0.6401 0.8048
vt 0.6790 0.8049
vt 0.6790 0.5513
vt 0.7190 0.5510
vt 0.6790 0.5648
vt 0.7357 0.5644
vt 0.5966 0.8053
vt 0.5440 0.8048
vt 0.5966 0.0005
vt 0.5440 0.0000
vt 0.7190 0.6143
vt 0.7357 0.6142
vt 0.4382 0.8054
vt 0.4384 0.0004
vt 0.4968 0.8043
vt 0.4968 0.0000
vt 0.7189 0.5152
vt 0.7357 0.5150
vt 0.5966 0.0000
vt 0.6401 0.0004
vt 0.5966 0.8048
vt 0.6401 0.8051
vn 0.0431 -0.2891 0.9563
vn 0.0388 -0.2893 0.9564
vn 0.0345 -0.2896 0.9565
vn -0.9975 -0.0705 0.0042
vn -0.9970 -0.0748 0.0189
vn -0.9970 -0.0748 0.0190
vn -0.9963 -0.0792 0.0337
vn -0.9974 -0.0712 0.0102
vn -0.9976 -0.0694 0.0031
vn -0.9977 -0.0675 -0.0041
vn 0.0450 0.9853 0.1646
vn 0.0178 0.9839 0.1780
vn 0.0635 0.9715 0.2284
vn 0.0120 0.9701 0.2426
vn 0.9973 0.0725 -0.0106
vn 0.9972 0.0731 -0.0132
vn 0.9972 0.0737 -0.0158
vn -0.0392 0.2943 -0.9549
vn -0.0247 0.2945 -0.9553
vn -0.0101 0.2947 -0.9555
vn -0.0306 0.9898 0.1391
vn -0.0279 0.9915 0.1268
vn 0.0097 -0.2950 0.9554
vn 0.0242 -0.2947 0.9553
vn 0.0387 -0.2943 0.9549
vn -0.0280 -0.2895 0.9568
vn -0.0329 -0.2893 0.9567
vn -0.0330 -0.2893 0.9567
vn -0.0379 -0.2890 0.9566
vn 0.9980 -0.0489 -0.0395
vn 0.9982 -0.0509 -0.0325
vn 0.9983 -0.0529 -0.0256
vn 0.0104 -0.9817 -0.1902
vn -0.0144 -0.9800 -0.1983
vn -0.0130 -0.9765 -0.2153
vn -0.0249 -0.9757 -0.2179
vn 0.9983 -0.0554 -0.0206
vn 0.9983 -0.0577 -0.0117
vn 0.9982 -0.0600 -0.0028
vn 0.0867 0.9767 0.1965
vn 0.1036 0.9690 0.2244
vn 0.1124 0.9725 0.2038
vn 0.1172 0.9660 0.2303
vn -0.9981 0.0510 0.0347
vn -0.9983 0.0549 0.0193
vn -0.9983 0.0587 0.0038
vn -0.0126 -0.9719 -0.2349
vn -0.0116 -0.9726 -0.2322
vn -0.0135 0.2922 -0.9563
vn -0.0076 0.2916 -0.9565
vn -0.0016 0.2910 -0.9567
vn 0.0928 0.9662 0.2403
vn 0.0946 0.9649 0.2448
vn 0.1035 0.9690 0.2244
vn 0.1173 0.9660 0.2303
vn -0.0010 -0.2911 0.9567
vn 0.0023 -0.2912 0.9567
vn 0.0056 -0.2912 0.9566
vn 0.0005 -0.9710 0.2391
vn 0.0005 -0.9710 0.2390
vn -0.0001 -0.2413 -0.9705
vn 0.0002 -0.2545 -0.9671
vn 0.0005 -0.2678 -0.9635
vn 0.0009 0.9711 -0.2387
vn 0.0009 0.9711 -0.2388
vn 0.0009 0.9709 -0.2395
vn 0.0148 0.9981 -0.0595
vn 0.0045 0.9982 -0.0596
vn -0.0059 0.9982 -0.0596
vn -0.0183 0.1750 0.9844
vn -0.9997 0.0079 0.0220
vn -0.9997 0.0072 0.0220
vn -0.9997 0.0071 0.0220
vn -0.9997 0.0062 0.0220
vn 0.9998 -0.0060 -0.0207
vn 0.9998 -0.0069 -0.0208
vn 0.9998 -0.0071 -0.0208
vn 0.9998 -0.0081 -0.0208
vn -0.0150 -0.9983 0.0568
vn -0.0046 -0.9984 0.0568
vn -0.0045 -0.9984 0.0568
vn 0.0058 -0.9984 0.0569
vn 0.0007 -0.9697 0.2443
vn 0.0007 -0.9697 0.2441
vn -0.0037 -0.2583 -0.9660
vn -0.0039 -0.2506 -0.9681
vn -0.0040 -0.2427 -0.9701
vn -0.9993 0.0115 0.0360
vn -0.9998 0.0002 0.0212
vn -0.9998 -0.0145 0.0146
vn -0.9999 -0.0119 0.0081
vn -0.0037 -0.2553 -0.9668
vn -0.0037 -0.2551 -0.9669
vn 0.9993 -0.0110 -0.0356
vn 1.0000 -0.0027 -0.0060
vn 0.9998 -0.0001 -0.0213
vn 1.0000 0.0057 0.0015
vn 0.0037 0.2514 0.9679
vn 0.0037 0.2510 0.9680
vn -0.9989 -0.0456 0.0060
vn -0.9995 -0.0293 0.0079
vn -0.0007 0.9696 -0.2449
vn -0.0007 0.9694 -0.2455
vn -0.0007 0.9694 -0.2456
vn 0.9999 -0.0113 0.0087
vn 0.9999 -0.0054 0.0094
vn 0.0007 -0.9692 0.2462
usemtl mtl_rust_dark.001
s 1
f 121/125/88 122/126/89 123/127/89
f 123/127/89 122/126/89 124/128/90
f 125/129/91 126/130/92 127/131/93
f 127/131/93 126/130/92 128/132/94
f 129/133/95 130/134/96 131/135/96
f 131/135/96 130/134/96 132/136/97
f 133/137/98 134/138/99 135/139/100
f 135/139/100 134/138/99 136/140/101
f 137/141/102 138/142/103 139/143/103
f 139/143/103 138/142/103 140/144/104
f 141/145/105 142/146/106 143/147/106
f 143/147/106 142/146/106 144/148/107
f 145/149/108 146/150/99 147/151/109
f 147/151/109 146/150/99 133/152/98
f 148/153/110 149/154/111 150/155/111
f 150/155/111 149/154/111 151/156/112
f 152/157/113 153/158/114 154/159/115
f 154/159/115 153/158/114 155/160/116
f 156/161/117 157/162/118 158/163/118
f 158/163/118 157/162/118 159/164/119
f 160/165/120 161/166/121 162/167/122
f 162/167/122 161/166/121 163/168/123
f 164/169/124 165/170/125 166/171/125
f 166/171/125 165/170/125 167/172/126
f 168/173/127 169/174/128 170/175/129
f 170/175/129 169/174/128 171/176/130
f 172/177/131 173/178/132 174/179/132
f 174/179/132 173/178/132 175/180/133
f 176/181/134 177/182/122 178/183/135
f 178/183/135 177/182/122 163/184/123
f 179/185/136 180/186/137 181/187/137
f 181/187/137 180/186/137 182/188/138
f 183/189/139 184/190/140 185/191/141
f 185/191/141 184/190/140 171/192/142
f 186/193/143 187/194/144 188/195/144
f 188/195/144 187/194/144 189/196/145
f 190/197/146 191/198/147 192/199/146
f 192/199/146 191/198/147 193/200/147
f 194/201/148 195/202/149 196/203/149
f 196/203/149 195/202/149 197/204/150
f 198/205/151 199/206/152 200/207/153
f 200/207/153 199/206/152 201/208/153
f 202/209/154 203/210/155 204/211/155
f 204/211/155 203/210/155 205/212/156
f 206/213/157 207/214/157 208/215/157
f 208/215/157 207/214/157 209/216/157
f 210/217/158 211/218/159 212/219/160
f 212/219/160 211/218/159 213/220/161
f 214/221/162 215/222/163 216/223/164
f 216/223/164 215/222/163 217/224/165
f 218/225/166 219/226/167 220/227/168
f 220/227/168 219/226/167 221/228/169
f 222/229/170 223/230/171 224/231/170
f 224/231/170 223/230/171 225/232/171
f 226/233/172 227/234/173 228/235/173
f 228/235/173 227/234/173 229/236/174
f 230/237/175 231/238/176 232/239/177
f 232/239/177 231/238/176 233/240/178
f 234/241/179 235/242/179 236/243/180
f 236/243/180 235/242/179 237/244/180
f 238/245/181 239/246/182 240/247/183
f 240/247/183 239/246/182 241/248/184
f 242/249/185 243/250/185 244/251/186
f 244/251/186 243/250/185 245/252/186
f 246/253/187 232/239/177 247/254/188
f 247/254/188 232/239/177 233/240/178
f 248/255/189 249/256/190 250/257/189
f 250/257/189 249/256/190 251/258/191
f 252/259/192 253/260/193 239/246/182
f 239/246/182 253/260/193 241/248/184
f 254/261/194 255/262/194 256/263/194
f 256/263/194 255/262/194 257/264/194
o 1.002
v 0.670829 0.003312 0.306014
v 0.671068 0.007445 0.322419
v -0.662015 0.003626 0.310500
v -0.661769 0.007751 0.326920
v -0.667333 0.684463 0.140855
v -0.666818 0.688588 0.157244
v 0.666088 0.678525 0.127698
v 0.665988 0.682600 0.143326
v 0.666088 0.678525 0.127698
v 0.665988 0.682600 0.143326
v 0.670829 0.003312 0.306014
v 0.671068 0.007445 0.322419
v -0.662015 0.003626 0.310500
v -0.661769 0.007751 0.326920
v -0.667333 0.684463 0.140855
v -0.666818 0.688588 0.157244
v 0.671068 0.007445 0.322419
v 0.665988 0.682600 0.143326
v -0.661769 0.007751 0.326920
v -0.666818 0.688588 0.157244
v 0.670829 0.003312 0.306014
v -0.662015 0.003626 0.310500
v 0.666088 0.678525 0.127698
v -0.667333 0.684463 0.140855
vt 0.7137 0.9406
vt 0.7030 0.9407
vt 0.7097 0.0981
vt 0.6990 0.0983
vt 0.2503 0.0973
vt 0.2610 0.0974
vt 0.2568 0.9401
vt 0.2670 0.9399
vt 0.2669 0.9501
vt 0.2670 0.9399
vt 0.7028 0.9514
vt 0.7030 0.9407
vt 0.6991 0.0876
vt 0.6990 0.0983
vt 0.2611 0.0867
vt 0.2610 0.0974
vt 0.7030 0.9407
vt 0.2670 0.9399
vt 0.6990 0.0983
vt 0.2610 0.0974
vt 0.5255 0.0838
vt 0.5180 0.9262
vt 0.0896 0.0826
vt 0.0800 0.9253
vn 0.0006 -0.9697 0.2443
vn 0.0006 -0.9699 0.2436
vn 0.0019 0.9697 -0.2441
vn 0.0018 0.9687 -0.2482
vn 0.0018 0.9687 -0.2483
vn 0.0017 0.9676 -0.2523
vn 1.0000 0.0081 0.0043
vn 1.0000 0.0058 -0.0056
vn 0.9999 0.0034 -0.0154
vn -0.9999 -0.0038 0.0159
vn -0.9997 -0.0017 0.0236
vn -0.9995 0.0004 0.0313
vn 0.0033 0.2564 0.9666
vn 0.0072 0.2492 0.9684
vn 0.0073 0.2491 0.9685
vn 0.0112 0.2419 0.9702
vn -0.0033 -0.2554 -0.9668
vn -0.0070 -0.2486 -0.9686
vn -0.0107 -0.2418 -0.9703
usemtl mtl_rja_green
s 1
f 258/265/195 259/266/195 260/267/196
f 260/267/196 259/266/195 261/268/196
f 262/269/197 263/270/198 264/271/199
f 264/271/199 263/270/198 265/272/200
f 266/273/201 267/274/202 268/275/202
f 268/275/202 267/274/202 269/276/203
f 270/277/204 271/278/205 272/279/205
f 272/279/205 271/278/205 273/280/206
f 274/281/207 275/282/208 276/283/209
f 276/283/209 275/282/208 277/284/210
f 278/285/211 279/286/212 280/287/212
f 280/287/212 279/286/212 281/288/213
