# ..:::Stalker models:::..
# WebSite: http://excalibur-craft.ru
mtllib cover_barikada_3a.mtl
o 0
v -0.324070 0.413490 0.415444
v -0.324070 0.427326 0.564221
v -0.324070 0.899109 0.369647
v -0.324070 0.914861 0.524810
v 0.561690 0.899109 0.369647
v 0.561691 0.413491 0.415444
v -0.324070 0.899109 0.369647
v -0.324070 0.413490 0.415444
v -0.324070 0.427326 0.564221
v 0.561691 0.427327 0.564221
v -0.324070 0.914861 0.524810
v 0.561690 0.914862 0.524810
v -0.324070 0.914861 0.524810
v 0.561690 0.914862 0.524810
v -0.324070 0.899109 0.369647
v 0.561690 0.899109 0.369647
v 0.561691 0.413491 0.415444
v 0.561691 0.427327 0.564221
v -0.324070 0.413490 0.415444
v -0.324070 0.427326 0.564221
v 0.561426 0.361768 0.384339
v 0.561426 0.377553 0.557227
v 0.561426 0.930054 0.337556
v 0.561426 0.945840 0.510444
v 0.581263 0.930054 0.337556
v 0.581263 0.361768 0.384339
v 0.561426 0.930054 0.337556
v 0.561426 0.361768 0.384339
v 0.581263 0.945840 0.510444
v 0.581263 0.377553 0.557227
v 0.581263 0.930054 0.337556
v 0.581263 0.361768 0.384339
v 0.561426 0.377553 0.557227
v 0.581263 0.377553 0.557227
v 0.561426 0.945840 0.510444
v 0.581263 0.945840 0.510444
v 0.561426 0.945840 0.510444
v 0.581263 0.945840 0.510444
v 0.561426 0.930054 0.337556
v 0.581263 0.930054 0.337556
v 0.581263 0.361768 0.384339
v 0.581263 0.377553 0.557227
v 0.561426 0.361768 0.384339
v 0.561426 0.377553 0.557227
v 0.616932 0.664040 0.454996
v 0.616932 0.671570 0.469184
v 0.616932 0.648278 0.450158
v 0.616932 0.666458 0.484412
v 0.616932 0.651697 0.491758
v 0.616932 0.633518 0.457504
v 0.616932 0.635935 0.486920
v 0.616932 0.628405 0.472732
v 0.616932 0.635935 0.486920
v 0.616932 0.651697 0.491758
v 0.579388 0.640846 0.481341
v 0.579388 0.651099 0.484488
v 0.616932 0.666458 0.484412
v 0.579388 0.660702 0.479710
v 0.579388 0.664027 0.469804
v 0.616932 0.671570 0.469184
v 0.579388 0.659129 0.460575
v 0.616932 0.664040 0.454996
v 0.579388 0.648876 0.457427
v 0.616932 0.648278 0.450158
v 0.579388 0.639274 0.462206
v 0.616932 0.633518 0.457504
v 0.616932 0.628405 0.472732
v 0.579388 0.635948 0.472112
v 0.616932 0.628405 0.472732
v 0.579388 0.635948 0.472112
v -0.674330 1.339678 0.485332
v -0.674330 1.345874 0.559512
v 0.673468 1.341689 0.485164
v 0.673468 1.347499 0.559372
v 0.673468 1.341689 0.485164
v 0.673411 0.001008 0.597542
v -0.674330 1.339678 0.485332
v -0.674449 0.000958 0.597546
v 0.673468 1.347499 0.559372
v 0.673411 0.007219 0.671712
v 0.673468 1.341689 0.485164
v 0.673411 0.001008 0.597542
v -0.674449 0.007155 0.671728
v -0.674330 1.345874 0.559512
v -0.674449 0.000958 0.597546
v -0.674330 1.339678 0.485332
v 0.673411 0.007219 0.671712
v -0.674449 0.007155 0.671728
v 0.673411 0.001008 0.597542
v -0.674449 0.000958 0.597546
v -0.674449 0.007155 0.671728
v 0.673411 0.007219 0.671712
v -0.674330 1.345874 0.559512
v 0.673468 1.347499 0.559372
v 0.580896 0.000370 -0.584874
v 0.502798 0.000370 -0.584874
v 0.580899 0.084292 -0.591885
v 0.502800 0.084297 -0.591886
v 0.502798 0.000370 -0.584874
v 0.475892 0.093911 0.593914
v 0.502800 0.084297 -0.591886
v 0.475892 0.205057 0.584629
v 0.580896 0.000370 -0.584874
v 0.580894 0.093932 0.593913
v 0.502798 0.000370 -0.584874
v 0.475892 0.093911 0.593914
v 0.580894 0.205057 0.584629
v 0.580894 0.093932 0.593913
v 0.580899 0.084292 -0.591885
v 0.580896 0.000370 -0.584874
v 0.475892 0.205057 0.584629
v 0.580894 0.205057 0.584629
v 0.502800 0.084297 -0.591886
v 0.580899 0.084292 -0.591885
v -0.576277 1.146617 -0.675734
v -0.498179 1.146617 -0.675734
v -0.576279 1.062696 -0.668724
v -0.498181 1.062691 -0.668723
v -0.498179 1.146617 -0.675734
v -0.471272 1.244054 0.498247
v -0.498181 1.062691 -0.668723
v -0.471272 1.132908 0.507532
v -0.576277 1.146617 -0.675734
v -0.576275 1.244033 0.498249
v -0.498179 1.146617 -0.675734
v -0.471272 1.244054 0.498247
v -0.576274 1.132908 0.507532
v -0.576275 1.244033 0.498249
v -0.576279 1.062696 -0.668724
v -0.576277 1.146617 -0.675734
v -0.471272 1.132908 0.507532
v -0.576274 1.132908 0.507532
v -0.498181 1.062691 -0.668723
v -0.576279 1.062696 -0.668724
v 0.500362 1.062691 -0.668723
v 0.500359 1.146617 -0.675734
v 0.578460 1.062696 -0.668724
v 0.578458 1.146617 -0.675734
v 0.473453 1.132874 0.507119
v 0.473453 1.244020 0.497834
v 0.500362 1.062691 -0.668723
v 0.500359 1.146617 -0.675734
v 0.473453 1.244020 0.497834
v 0.578456 1.243998 0.497836
v 0.500359 1.146617 -0.675734
v 0.578458 1.146617 -0.675734
v 0.578455 1.132874 0.507119
v 0.578460 1.062696 -0.668724
v 0.578456 1.243998 0.497836
v 0.578458 1.146617 -0.675734
v 0.473453 1.132874 0.507119
v 0.500362 1.062691 -0.668723
v 0.578455 1.132874 0.507119
v 0.578460 1.062696 -0.668724
v -0.499574 0.086704 -0.592087
v -0.499572 0.002777 -0.585075
v -0.577673 0.086699 -0.592086
v -0.577670 0.002777 -0.585075
v -0.472666 0.207498 0.584842
v -0.472666 0.096352 0.594127
v -0.499574 0.086704 -0.592087
v -0.499572 0.002777 -0.585075
v -0.472666 0.096352 0.594127
v -0.577668 0.096374 0.594125
v -0.499572 0.002777 -0.585075
v -0.577670 0.002777 -0.585075
v -0.577668 0.207498 0.584842
v -0.577673 0.086699 -0.592086
v -0.577668 0.096374 0.594125
v -0.577670 0.002777 -0.585075
v -0.472666 0.207498 0.584842
v -0.499574 0.086704 -0.592087
v -0.577668 0.207498 0.584842
v -0.577673 0.086699 -0.592086
v 0.554531 0.427912 0.562636
v 0.554531 0.123400 0.588850
v 0.554531 0.415149 0.432135
v 0.554531 0.105829 0.379856
v 0.552978 1.195565 0.288827
v 0.554531 0.928587 0.385003
v 0.554531 1.213059 0.497819
v 0.554531 0.940988 0.520548
v 0.507157 0.105849 0.380093
v 0.506263 1.195585 0.289060
v 0.554531 0.105829 0.379856
v 0.552978 1.195565 0.288827
v 0.505659 1.213059 0.497819
v 0.506263 1.195585 0.289060
v 0.505660 0.940988 0.520548
v 0.505660 0.928587 0.385003
v 0.507157 0.105849 0.380093
v 0.505662 0.415149 0.432135
v 0.505663 0.123400 0.588850
v 0.505662 0.427912 0.562636
v -0.522177 0.125656 0.588661
v -0.522270 0.108195 0.379658
v 0.509803 0.125652 0.588662
v 0.509742 0.108192 0.379659
v 0.509803 0.177788 0.584306
v 0.509742 0.160323 0.375542
v -0.522177 0.177788 0.584306
v -0.522270 0.160324 0.375470
v 0.509742 0.160323 0.375542
v 0.509742 0.108192 0.379659
v -0.522270 0.160324 0.375470
v -0.522270 0.108195 0.379658
v -0.522000 1.164988 0.502224
v -0.522093 1.147542 0.293386
v 0.509846 1.164988 0.502224
v 0.509786 1.147550 0.293457
v -0.522093 1.147542 0.293386
v -0.522093 1.204248 0.288094
v 0.509786 1.147550 0.293457
v 0.509786 1.204244 0.288094
v 0.509846 1.221704 0.497097
v 0.509786 1.204244 0.288094
v -0.522000 1.221708 0.497097
v -0.522093 1.204248 0.288094
v -0.498668 0.123546 0.588838
v -0.498669 0.105988 0.380005
v -0.498675 1.213192 0.497808
v -0.498675 1.195712 0.288969
v -0.498669 0.105988 0.380005
v -0.548929 0.105975 0.379844
v -0.498675 1.195712 0.288969
v -0.548929 1.195698 0.288808
v -0.548929 1.213192 0.497808
v -0.548929 1.195698 0.288808
v -0.548929 0.123546 0.588838
v -0.548929 0.105975 0.379844
v 0.554531 0.940988 0.520548
v 0.505660 0.940988 0.520548
v 0.554531 0.928587 0.385003
v 0.505660 0.928587 0.385003
v 0.554531 0.415149 0.432135
v 0.554531 0.928587 0.385003
v 0.505662 0.415149 0.432135
v 0.505660 0.928587 0.385003
v 0.554531 0.415149 0.432135
v 0.505662 0.415149 0.432135
v 0.554531 0.427912 0.562636
v 0.505662 0.427912 0.562636
v -0.522177 0.883609 0.387065
v -0.522270 0.879820 0.354987
v 0.509803 0.883608 0.387065
v 0.509742 0.879820 0.354987
v 0.509803 0.917201 0.383199
v 0.509742 0.913411 0.350522
v -0.522177 0.917201 0.383199
v -0.522270 0.913412 0.350510
v 0.509742 0.913411 0.350522
v 0.509742 0.879820 0.354987
v -0.522270 0.913412 0.350510
v -0.522270 0.879820 0.354987
v 0.509803 0.917201 0.383199
v -0.522177 0.917201 0.383199
v 0.509803 0.883608 0.387065
v -0.522177 0.883609 0.387065
v -0.522177 0.397942 0.433516
v -0.522270 0.394153 0.401439
v 0.509803 0.397941 0.433516
v 0.509742 0.394152 0.401438
v 0.509803 0.431534 0.429650
v 0.509742 0.427744 0.396973
v -0.522177 0.431534 0.429650
v -0.522270 0.427745 0.396962
v 0.509742 0.427744 0.396973
v 0.509742 0.394152 0.401438
v -0.522270 0.427745 0.396962
v -0.522270 0.394153 0.401439
v 0.509803 0.431534 0.429650
v -0.522177 0.431534 0.429650
v 0.509803 0.397941 0.433516
v -0.522177 0.397942 0.433516
vt 2.0129 1.3083
vt 2.0127 1.1988
vt 2.3706 1.3083
vt 2.3714 1.1940
vt 2.3706 1.9553
vt 2.0129 1.9553
vt 2.3706 1.3083
vt 2.0129 1.3083
vt 2.3681 1.2994
vt 2.3681 1.9464
vt 2.0094 1.2994
vt 2.0094 1.9464
vt 2.4849 1.3083
vt 2.4849 1.9553
vt 2.3706 1.3083
vt 2.3706 1.9553
vt 2.0129 1.9553
vt 1.9033 1.9553
vt 2.0129 1.3083
vt 1.9033 1.3083
vt 1.9438 2.8196
vt 1.9427 2.6923
vt 1.5257 2.8196
vt 1.5246 2.6923
vt 1.5257 2.8341
vt 1.9438 2.8341
vt 1.5257 2.8196
vt 1.9438 2.8196
vt 1.5246 2.9614
vt 1.9427 2.9614
vt 1.5257 2.8341
vt 1.9438 2.8341
vt 1.9427 2.9760
vt 1.9427 2.9614
vt 1.5246 2.9760
vt 1.5246 2.9614
vt 1.5100 2.9613
vt 1.5246 2.9614
vt 1.5112 2.8340
vt 1.5257 2.8341
vt 1.9438 2.8341
vt 1.9427 2.9614
vt 1.9584 2.8343
vt 1.9572 2.9616
vt 0.4176 2.1962
vt 0.4179 2.2080
vt 0.4088 2.1879
vt 0.4096 2.2163
vt 0.3975 2.2163
vt 0.3968 2.1879
vt 0.3887 2.2080
vt 0.3884 2.1962
vt 0.3924 2.2199
vt 0.3898 2.2081
vt 0.4192 2.2116
vt 0.4175 2.2039
vt 0.3888 2.1961
vt 0.4169 2.1961
vt 0.4174 2.1884
vt 0.3896 2.1843
vt 0.4191 2.1809
vt 0.3923 2.1728
vt 0.4220 2.1736
vt 0.3967 2.1616
vt 0.4259 2.1668
vt 0.4026 2.1510
vt 0.4099 2.1418
vt 0.4306 2.1607
vt 0.3967 2.2309
vt 0.4220 2.2187
vt 0.0058 0.7345
vt 0.0058 0.6799
vt 0.9941 0.7342
vt 0.9941 0.6796
vt 0.0032 1.9951
vt 0.0033 1.0086
vt 0.9915 1.9937
vt 0.9916 1.0086
vt 0.0054 0.5192
vt 0.9916 0.5189
vt 0.0051 0.5738
vt 0.9916 0.5735
vt 0.0082 0.4463
vt 0.9933 0.4463
vt 0.0083 0.5009
vt 0.9933 0.5009
vt 0.0058 0.6060
vt 0.9941 0.6057
vt 0.0058 0.6606
vt 0.9942 0.6603
vt 0.9917 1.9950
vt 0.0033 1.9950
vt 0.9915 1.0099
vt 0.0032 1.0088
vt 2.9342 5.0068
vt 2.9914 5.0075
vt 2.9333 5.0685
vt 2.9906 5.0693
vt 2.9115 5.0007
vt 2.9392 5.8676
vt 2.8498 5.0024
vt 2.8575 5.8698
vt 2.7308 4.9996
vt 2.6988 5.8661
vt 2.6736 4.9975
vt 2.6218 5.8633
vt 2.7805 5.8688
vt 2.6988 5.8661
vt 2.7925 5.0016
vt 2.7308 4.9996
vt 2.8575 5.8698
vt 2.7805 5.8688
vt 2.8498 5.0024
vt 2.7925 5.0016
vt 2.0551 6.0060
vt 2.1123 6.0064
vt 2.0546 6.0677
vt 2.1118 6.0682
vt 1.7359 5.9934
vt 1.7625 5.1298
vt 1.7976 5.9953
vt 1.8443 5.1322
vt 1.6786 5.9929
vt 1.6855 5.1291
vt 1.7359 5.9934
vt 1.7625 5.1298
vt 1.6038 5.1285
vt 1.6855 5.1291
vt 1.6169 5.9924
vt 1.6786 5.9929
vt 1.5268 5.1296
vt 1.6038 5.1285
vt 1.5596 5.9933
vt 1.6169 5.9924
vt 2.2325 6.0637
vt 2.2324 6.0020
vt 2.1752 6.0638
vt 2.1751 6.0021
vt 2.3910 5.1336
vt 2.3092 5.1319
vt 2.3528 5.9967
vt 2.2911 5.9954
vt 2.3092 5.1319
vt 2.2322 5.1321
vt 2.2911 5.9954
vt 2.2338 5.9956
vt 2.1505 5.1322
vt 2.1720 5.9956
vt 2.2322 5.1321
vt 2.2338 5.9956
vt 2.0735 5.1341
vt 2.1148 5.9971
vt 2.1505 5.1322
vt 2.1720 5.9956
vt 1.9955 6.0003
vt 1.9956 6.0621
vt 1.9382 6.0004
vt 1.9383 6.0622
vt 1.9791 5.1284
vt 2.0608 5.1317
vt 1.9607 5.9960
vt 2.0224 5.9985
vt 1.7434 5.1321
vt 1.8204 5.1302
vt 1.7844 5.9988
vt 1.8417 5.9973
vt 1.9021 5.1285
vt 1.9034 5.9961
vt 1.8204 5.1302
vt 1.8417 5.9973
vt 1.9791 5.1284
vt 1.9607 5.9960
vt 1.9021 5.1285
vt 1.9034 5.9961
vt -0.2181 3.6810
vt -0.2181 3.9062
vt -0.3142 3.6822
vt -0.3719 3.9063
vt -0.3719 3.1044
vt -0.3179 3.3054
vt -0.2181 3.1044
vt -0.2181 3.3046
vt -0.4066 3.9062
vt -0.4061 3.1044
vt -0.3719 3.9063
vt -0.3719 3.1044
vt -0.5597 3.1042
vt -0.4061 3.1044
vt -0.5599 3.3044
vt -0.4601 3.3053
vt -0.4066 3.9062
vt -0.4640 3.6821
vt -0.5602 3.9060
vt -0.5601 3.6809
vt 0.7735 3.9181
vt 0.6197 3.9182
vt 0.7735 3.1614
vt 0.6197 3.1614
vt 0.4277 3.1614
vt 0.5813 3.1614
vt 0.4277 3.9181
vt 0.5813 3.9182
vt 0.5813 3.1614
vt 0.6197 3.1614
vt 0.5813 3.9182
vt 0.6197 3.9182
vt -1.0614 3.8861
vt -1.2151 3.8862
vt -1.0615 3.1295
vt -1.2151 3.1296
vt -1.2151 3.8862
vt -1.2603 3.8862
vt -1.2151 3.1296
vt -1.2603 3.1296
vt -1.4140 3.1295
vt -1.2603 3.1296
vt -1.4140 3.8862
vt -1.2603 3.8862
vt -0.8948 2.8533
vt -1.0485 2.8534
vt -0.8948 2.0515
vt -1.0485 2.0515
vt -1.0485 2.8534
vt -1.0853 2.8534
vt -1.0485 2.0515
vt -1.0853 2.0515
vt -1.2391 2.0515
vt -1.0853 2.0515
vt -1.2391 2.8533
vt -1.0853 2.8534
vt 0.4475 1.5198
vt 0.4475 1.4840
vt 0.5473 1.5198
vt 0.5473 1.4840
vt 0.6745 1.5198
vt 0.2976 1.5198
vt 0.6745 1.4840
vt 0.2976 1.4840
vt 0.5455 1.4840
vt 0.5455 1.5198
vt 0.4494 1.4840
vt 0.4494 1.5198
vt 1.1009 3.9285
vt 1.0773 3.9286
vt 1.1009 3.1718
vt 1.0773 3.1718
vt 1.0283 3.1718
vt 1.0524 3.1718
vt 1.0283 3.9285
vt 1.0524 3.9286
vt 1.0524 3.1718
vt 1.0773 3.1718
vt 1.0524 3.9286
vt 1.0773 3.9286
vt 1.0283 3.1718
vt 1.0283 3.9285
vt 1.0035 3.1718
vt 1.0035 3.9285
vt 0.9918 3.8148
vt 0.9681 3.8149
vt 0.9918 3.0581
vt 0.9681 3.0582
vt 0.9191 3.0581
vt 0.9433 3.0582
vt 0.9191 3.8148
vt 0.9433 3.8149
vt 0.9433 3.0582
vt 0.9681 3.0582
vt 0.9433 3.8149
vt 0.9681 3.8149
vt 0.9191 3.0581
vt 0.9191 3.8148
vt 0.8944 3.0581
vt 0.8943 3.8148
vn -1.0000 0.0000 0.0000
vn 0.0000 -0.0939 -0.9956
vn -0.0000 0.0806 0.9967
vn -0.0000 0.9949 -0.1010
vn 0.0000 -0.9957 0.0926
vn 0.0000 -0.0820 -0.9966
vn 1.0000 0.0000 0.0000
vn 0.0000 0.0820 0.9966
vn 0.0000 0.9959 -0.0909
vn 0.0000 -0.9959 0.0909
vn -0.1932 -0.7223 0.6641
vn -0.1907 0.0804 0.9783
vn -0.1915 -0.5156 0.8352
vn -0.1907 0.0803 0.9783
vn -0.1932 0.8210 0.5373
vn -0.1915 0.6450 0.7398
vn -0.1976 0.9770 -0.0803
vn -0.1915 0.5156 -0.8352
vn -0.1932 0.7223 -0.6641
vn -0.1907 -0.0804 -0.9784
vn -0.1907 -0.0804 -0.9783
vn -0.1915 -0.6450 -0.7398
vn -0.1932 -0.8210 -0.5373
vn -0.1976 -0.9770 0.0803
vn -0.0015 0.9965 -0.0832
vn -0.0014 0.9967 -0.0808
vn -0.0014 0.9967 -0.0806
vn -0.0012 0.9969 -0.0781
vn 0.0000 -0.0835 -0.9965
vn -1.0000 0.0001 -0.0000
vn 0.0000 -0.9965 0.0834
vn 0.0000 -0.9965 0.0833
vn 0.0000 -0.9965 0.0832
vn 0.0000 0.0835 0.9965
vn 0.0000 -0.0833 -0.9965
vn -0.9997 -0.0019 -0.0227
vn 0.0000 -0.9969 0.0791
vn 0.0002 -0.9969 0.0791
vn 0.0000 0.9948 -0.1021
vn 0.0001 0.9948 -0.1021
vn 0.0000 -0.0832 -0.9965
vn 0.9997 -0.0019 -0.0228
vn 0.0000 0.9966 -0.0827
vn -0.0002 0.9966 -0.0827
vn 0.0000 -0.9982 0.0596
vn -0.0001 -0.9982 0.0596
vn -0.9997 -0.0019 -0.0228
vn 0.0002 0.9966 -0.0827
vn 0.0001 -0.9982 0.0596
vn 0.9997 -0.0019 -0.0227
vn -0.0002 -0.9969 0.0791
vn -0.0001 0.9948 -0.1021
vn 1.0000 -0.0003 -0.0068
vn 1.0000 0.0005 -0.0028
vn 0.9999 0.0007 -0.0116
vn 1.0000 0.0003 -0.0098
vn 1.0000 0.0015 -0.0039
vn -0.0050 -0.0832 -0.9965
vn -1.0000 -0.0002 -0.0029
vn -1.0000 0.0001 -0.0048
vn -1.0000 0.0012 -0.0013
vn -1.0000 -0.0004 -0.0098
vn -0.9999 -0.0024 -0.0122
vn -1.0000 -0.0018 -0.0085
vn -1.0000 -0.0018 -0.0034
vn 0.0000 0.9965 -0.0834
vn 0.0000 0.9965 -0.0833
vn 0.0001 -0.0787 -0.9969
vn 0.0001 -0.0788 -0.9969
vn 0.0000 -0.0797 -0.9968
vn 0.0000 -0.0801 -0.9968
vn 0.0001 -0.0929 -0.9957
vn 0.0001 -0.0930 -0.9957
vn 0.0000 -0.0941 -0.9956
vn -0.0000 -0.0942 -0.9956
vn 0.0000 0.9965 -0.0832
vn 0.0032 -0.0832 -0.9965
vn 0.0000 -0.9958 0.0911
vn 0.0000 -0.6396 0.7687
vn 0.0000 0.7707 0.6372
vn 0.0000 0.9953 -0.0973
vn -0.0000 -0.9931 0.1173
vn 0.0000 0.9933 -0.1152
vn 0.0000 0.9933 -0.1151
vn 0.0000 -0.1318 -0.9913
vn 0.0000 -0.1321 -0.9912
vn 0.0000 0.1143 0.9934
usemtl wood_table_02
s 1
f 1/1/1 2/2/1 3/3/1
f 3/3/1 2/2/1 4/4/1
f 5/5/2 6/6/2 7/7/2
f 7/7/2 6/6/2 8/8/2
f 9/9/3 10/10/3 11/11/3
f 11/11/3 10/10/3 12/12/3
f 13/13/4 14/14/4 15/15/4
f 15/15/4 14/14/4 16/16/4
f 17/17/5 18/18/5 19/19/5
f 19/19/5 18/18/5 20/20/5
f 21/21/1 22/22/1 23/23/1
f 23/23/1 22/22/1 24/24/1
f 25/25/6 26/26/6 27/27/6
f 27/27/6 26/26/6 28/28/6
f 29/29/7 30/30/7 31/31/7
f 31/31/7 30/30/7 32/32/7
f 33/33/8 34/34/8 35/35/8
f 35/35/8 34/34/8 36/36/8
f 37/37/9 38/38/9 39/39/9
f 39/39/9 38/38/9 40/40/9
f 41/41/10 42/42/10 43/43/10
f 43/43/10 42/42/10 44/44/10
f 45/45/7 46/46/7 47/47/7
f 46/46/7 48/48/7 47/47/7
f 48/48/7 49/49/7 47/47/7
f 47/47/7 49/49/7 50/50/7
f 49/49/7 51/51/7 50/50/7
f 51/51/7 52/52/7 50/50/7
f 53/53/11 54/54/12 55/55/13
f 55/55/13 54/54/12 56/56/14
f 57/57/15 58/58/16 54/54/12
f 54/54/12 58/58/16 56/56/14
f 58/58/16 57/57/15 59/59/17
f 59/59/17 57/57/15 60/60/17
f 61/61/18 59/59/17 62/62/19
f 62/62/19 59/59/17 60/60/17
f 63/63/20 61/61/18 64/64/21
f 64/64/21 61/61/18 62/62/19
f 63/63/20 64/64/21 65/65/22
f 65/65/22 64/64/21 66/66/23
f 67/67/24 68/68/24 66/66/23
f 66/66/23 68/68/24 65/65/22
f 69/69/24 53/53/11 70/70/24
f 70/70/24 53/53/11 55/55/13
f 71/71/25 72/72/26 73/73/27
f 73/73/27 72/72/26 74/74/28
f 75/75/29 76/76/29 77/77/29
f 77/77/29 76/76/29 78/78/29
f 79/79/7 80/80/7 81/81/7
f 81/81/7 80/80/7 82/82/7
f 83/83/30 84/84/30 85/85/30
f 85/85/30 84/84/30 86/86/30
f 87/87/31 88/88/32 89/89/31
f 89/89/31 88/88/32 90/90/33
f 91/91/34 92/92/34 93/93/34
f 93/93/34 92/92/34 94/94/34
f 95/95/35 96/96/35 97/97/35
f 97/97/35 96/96/35 98/98/35
f 99/99/36 100/100/36 101/101/36
f 101/101/36 100/100/36 102/102/36
f 103/103/37 104/104/38 105/105/37
f 105/105/37 104/104/38 106/106/38
f 107/107/7 108/108/7 109/109/7
f 109/109/7 108/108/7 110/110/7
f 111/111/39 112/112/39 113/113/40
f 113/113/40 112/112/39 114/114/40
f 115/115/41 116/116/41 117/117/41
f 117/117/41 116/116/41 118/118/41
f 119/119/42 120/120/42 121/121/42
f 121/121/42 120/120/42 122/122/42
f 123/123/43 124/124/44 125/125/43
f 125/125/43 124/124/44 126/126/44
f 127/127/1 128/128/1 129/129/1
f 129/129/1 128/128/1 130/130/1
f 131/131/45 132/132/45 133/133/46
f 133/133/46 132/132/45 134/134/46
f 135/135/41 136/136/41 137/137/41
f 137/137/41 136/136/41 138/138/41
f 139/139/47 140/140/47 141/141/47
f 141/141/47 140/140/47 142/142/47
f 143/143/48 144/144/48 145/145/43
f 145/145/43 144/144/48 146/146/43
f 147/147/7 148/148/7 149/149/7
f 149/149/7 148/148/7 150/150/7
f 151/151/45 152/152/49 153/153/45
f 153/153/45 152/152/49 154/154/49
f 155/155/35 156/156/35 157/157/35
f 157/157/35 156/156/35 158/158/35
f 159/159/50 160/160/50 161/161/50
f 161/161/50 160/160/50 162/162/50
f 163/163/51 164/164/51 165/165/37
f 165/165/37 164/164/51 166/166/37
f 167/167/1 168/168/1 169/169/1
f 169/169/1 168/168/1 170/170/1
f 171/171/39 172/172/52 173/173/39
f 173/173/39 172/172/52 174/174/52
f 175/175/7 176/176/7 177/177/53
f 177/177/53 176/176/7 178/178/54
f 178/178/54 179/179/55 177/177/53
f 177/177/53 179/179/55 180/180/56
f 179/179/55 181/181/57 180/180/56
f 181/181/57 182/182/7 180/180/56
f 183/183/58 184/184/58 185/185/58
f 185/185/58 184/184/58 186/186/58
f 187/187/59 188/188/60 189/189/61
f 189/189/61 188/188/60 190/190/62
f 188/188/60 191/191/63 190/190/62
f 190/190/62 191/191/63 192/192/64
f 191/191/63 193/193/65 192/192/64
f 193/193/65 194/194/1 192/192/64
f 195/195/32 196/196/32 197/197/33
f 197/197/33 196/196/32 198/198/33
f 199/199/66 200/200/66 201/201/67
f 201/201/67 200/200/66 202/202/67
f 203/203/68 204/204/69 205/205/70
f 205/205/70 204/204/69 206/206/71
f 207/207/33 208/208/33 209/209/33
f 209/209/33 208/208/33 210/210/33
f 211/211/72 212/212/73 213/213/74
f 213/213/74 212/212/73 214/214/75
f 215/215/76 216/216/76 217/217/76
f 217/217/76 216/216/76 218/218/76
f 219/219/7 220/220/7 221/221/7
f 221/221/7 220/220/7 222/222/7
f 223/223/77 224/224/77 225/225/77
f 225/225/77 224/224/77 226/226/77
f 227/227/1 228/228/1 229/229/1
f 229/229/1 228/228/1 230/230/1
f 231/231/78 232/232/78 233/233/79
f 233/233/79 232/232/78 234/234/79
f 235/235/80 236/236/79 237/237/80
f 237/237/80 236/236/79 238/238/79
f 239/239/80 240/240/80 241/241/81
f 241/241/81 240/240/80 242/242/81
f 243/243/82 244/244/82 245/245/82
f 245/245/82 244/244/82 246/246/82
f 247/247/83 248/248/83 249/249/84
f 249/249/84 248/248/83 250/250/84
f 251/251/85 252/252/86 253/253/86
f 253/253/86 252/252/86 254/254/86
f 255/255/87 256/256/87 257/257/87
f 257/257/87 256/256/87 258/258/87
f 259/259/82 260/260/82 261/261/82
f 261/261/82 260/260/82 262/262/82
f 263/263/83 264/264/83 265/265/84
f 265/265/84 264/264/83 266/266/84
f 267/267/85 268/268/86 269/269/86
f 269/269/86 268/268/86 270/270/86
f 271/271/87 272/272/87 273/273/87
f 273/273/87 272/272/87 274/274/87
