# ..:::Stalker models:::..
# WebSite: http://excalibur-craft.ru
mtllib stol_8_village.mtl
o 1.002
v -0.906427 0.757791 0.337230
v -0.906427 0.969808 0.337230
v -0.243439 0.757791 0.337229
v -0.243439 0.969808 0.337229
v -0.243439 0.757791 0.357066
v -0.906427 0.757791 0.357067
v -0.243439 0.757791 0.337229
v -0.906427 0.757791 0.337230
v -0.243439 0.969808 0.357066
v -0.906427 0.969808 0.357067
v -0.243439 0.757791 0.357066
v -0.906427 0.757791 0.357067
v -0.906427 0.969808 0.337230
v -0.906427 0.969808 0.357067
v -0.243439 0.969808 0.337229
v -0.243439 0.969808 0.357066
v -0.243439 0.969808 0.337229
v -0.243439 0.969808 0.357066
v -0.243439 0.757791 0.337229
v -0.243439 0.757791 0.357066
v -0.906427 0.757791 0.357067
v -0.906427 0.969808 0.357067
v -0.906427 0.757791 0.337230
v -0.906427 0.969808 0.337230
vt 1.1061 0.9535
vt 1.1927 0.9535
vt 1.1061 1.2015
vt 1.1927 1.2015
vt 1.1162 1.2015
vt 1.1162 0.9535
vt 1.1061 1.2015
vt 1.1061 0.9535
vt 0.7115 1.0992
vt 0.7115 0.8511
vt 0.7981 1.0992
vt 0.7981 0.8511
vt 1.1927 0.9535
vt 1.1819 0.9535
vt 1.1927 1.2015
vt 1.1819 1.2015
vt 0.7115 1.0903
vt 0.7115 1.0992
vt 0.7981 1.0903
vt 0.7981 1.0992
vt 0.7981 0.8511
vt 0.7115 0.8511
vt 0.7981 0.8422
vt 0.7115 0.8422
vn -0.0000 0.0000 -1.0000
vn 0.0000 -1.0000 0.0000
vn 0.0000 -0.0000 1.0000
vn 0.0000 1.0000 0.0000
vn 1.0000 0.0000 0.0000
vn -1.0000 0.0000 0.0000
usemtl wood_board_02
s 1
f 1/1/1 2/2/1 3/3/1
f 3/3/1 2/2/1 4/4/1
f 5/5/2 6/6/2 7/7/2
f 7/7/2 6/6/2 8/8/2
f 9/9/3 10/10/3 11/11/3
f 11/11/3 10/10/3 12/12/3
f 13/13/4 14/14/4 15/15/4
f 15/15/4 14/14/4 16/16/4
f 17/17/5 18/18/5 19/19/5
f 19/19/5 18/18/5 20/20/5
f 21/21/6 22/22/6 23/23/6
f 23/23/6 22/22/6 24/24/6
o 0.003
v -0.211561 0.757791 -0.351694
v -0.211561 0.969808 -0.351694
v -0.211561 0.757791 0.364324
v -0.211561 0.969808 0.364324
v -0.211561 0.969808 0.364324
v -0.243439 0.969808 0.364324
v -0.211561 0.757791 0.364324
v -0.243439 0.757791 0.364324
v -0.243440 0.969808 -0.351694
v -0.243440 0.757791 -0.351694
v -0.243439 0.969808 0.364324
v -0.243439 0.757791 0.364324
v -0.211561 0.969808 -0.351694
v -0.243440 0.969808 -0.351694
v -0.211561 0.969808 0.364324
v -0.243439 0.969808 0.364324
v -0.211561 0.757791 -0.351694
v -0.211561 0.757791 0.364324
v -0.243440 0.757791 -0.351694
v -0.243439 0.757791 0.364324
v -0.211561 0.757791 -0.351694
v -0.243440 0.757791 -0.351694
v -0.211561 0.969808 -0.351694
v -0.243440 0.969808 -0.351694
v 0.926859 0.724552 0.372936
v 0.926859 0.757791 0.372936
v -0.929873 0.724552 0.372936
v -0.929887 0.757791 0.372936
v 0.926859 0.757791 -0.349132
v -0.929887 0.757791 -0.349131
v 0.926859 0.757791 0.372936
v -0.929887 0.757791 0.372936
v -0.929887 0.724552 -0.349131
v 0.926859 0.724552 -0.349132
v -0.929873 0.724552 0.372936
v 0.926859 0.724552 0.372936
v 0.926859 0.757791 -0.349132
v 0.926859 0.724552 -0.349132
v -0.929887 0.757791 -0.349131
v -0.929887 0.724552 -0.349131
v 0.926859 0.757791 0.372936
v 0.926859 0.724552 0.372936
v 0.926859 0.757791 -0.349132
v 0.926859 0.724552 -0.349132
v 0.892668 0.758648 -0.349259
v 0.926859 0.757791 -0.349132
v 0.892668 0.758648 0.371513
v 0.926797 0.758648 0.371513
v 0.892668 0.969967 0.371513
v 0.892668 0.969967 -0.349259
v 0.892668 0.758648 0.371513
v 0.892668 0.758648 -0.349259
v 0.926797 0.758648 0.371513
v 0.926859 0.757791 -0.349132
v 0.926797 0.969967 0.371513
v 0.926796 0.969967 -0.349259
v 0.892668 0.969967 -0.349259
v 0.892668 0.969967 0.371513
v 0.926796 0.969967 -0.349259
v 0.926797 0.969967 0.371513
v -0.925931 0.969808 -0.372056
v 0.926858 0.969808 -0.372056
v -0.925931 0.723615 -0.372056
v 0.926858 0.723615 -0.372056
v -0.925931 0.723615 -0.372056
v 0.926858 0.723615 -0.372056
v -0.925931 0.723615 -0.349131
v 0.926859 0.724552 -0.349132
v -0.925931 0.969808 -0.349131
v 0.926796 0.969967 -0.349259
v -0.925931 0.969808 -0.372056
v 0.926858 0.969808 -0.372056
v -1.004138 0.969808 -0.396740
v 1.011474 0.969808 -0.396741
v -1.004138 0.969808 0.412610
v 1.011475 0.969808 0.412610
v 1.011474 1.000511 -0.396741
v -1.004138 1.000511 -0.396740
v 1.011475 1.000510 0.412610
v -1.004138 1.000510 0.412610
v -1.004138 0.969808 -0.396740
v -1.004138 1.000511 -0.396740
v 1.011474 0.969808 -0.396741
v 1.011474 1.000511 -0.396741
v 1.011475 0.969808 0.412610
v 1.011475 1.000510 0.412610
v -1.004138 0.969808 0.412610
v -1.004138 1.000510 0.412610
v -1.004138 0.969808 0.412610
v -1.004138 1.000510 0.412610
v -1.004138 0.969808 -0.396740
v -1.004138 1.000511 -0.396740
v 1.011474 1.000511 -0.396741
v 1.011475 1.000510 0.412610
v 1.011474 0.969808 -0.396741
v 1.011475 0.969808 0.412610
v -0.624149 0.895602 0.396767
v -0.616483 0.877711 0.396767
v -0.616483 0.913493 0.396767
v -0.596232 0.870939 0.396767
v -0.575980 0.877711 0.396767
v -0.575980 0.913493 0.396767
v -0.568314 0.895602 0.396767
v -0.596232 0.920264 0.396767
v -0.616483 0.913493 0.396767
v -0.596232 0.920264 0.396767
v -0.605155 0.903485 0.356369
v -0.596232 0.906750 0.356369
v -0.575980 0.913493 0.396767
v -0.587309 0.903485 0.356369
v -0.583613 0.895602 0.356369
v -0.568314 0.895602 0.396767
v -0.587309 0.887719 0.356369
v -0.575980 0.877711 0.396767
v -0.596232 0.884454 0.356369
v -0.596232 0.870939 0.396767
v -0.596232 0.884454 0.356369
v -0.596232 0.870939 0.396767
v -0.605155 0.887719 0.356369
v -0.616483 0.877711 0.396767
v -0.624149 0.895602 0.396767
v -0.608851 0.895602 0.356369
v 0.926796 0.969967 -0.349259
v -0.925931 0.969808 -0.349131
v 0.926859 0.724552 -0.349132
v -0.925931 0.723615 -0.349131
v 0.926797 0.758648 0.371513
v 0.926797 0.969967 0.371513
v 0.892668 0.758648 0.371513
v 0.892668 0.969967 0.371513
v -0.903481 0.757791 -0.351852
v -0.903481 0.969808 -0.351852
v -0.903481 0.757791 0.369547
v -0.903481 0.969808 0.369547
v -0.927285 0.757791 0.369547
v -0.927285 0.757791 -0.351852
v -0.903481 0.757791 0.369547
v -0.903481 0.757791 -0.351852
v -0.927285 0.969808 0.369547
v -0.927285 0.969808 -0.351852
v -0.927285 0.757791 0.369547
v -0.927285 0.757791 -0.351852
v -0.903481 0.969808 -0.351852
v -0.927285 0.969808 -0.351852
v -0.903481 0.969808 0.369547
v -0.927285 0.969808 0.369547
v -0.903481 0.969808 0.369547
v -0.927285 0.969808 0.369547
v -0.903481 0.757791 0.369547
v -0.927285 0.757791 0.369547
v -0.927285 0.757791 -0.351852
v -0.927285 0.969808 -0.351852
v -0.903481 0.757791 -0.351852
v -0.903481 0.969808 -0.351852
v -0.919401 -0.000000 0.336948
v -0.919401 -0.000000 0.381222
v -0.970019 -0.000000 0.336948
v -0.970017 -0.000000 0.381222
v -0.970017 -0.000000 0.381222
v -0.919401 -0.000000 0.381222
v -0.976221 0.976090 0.386648
v -0.913197 0.976090 0.386648
v -0.976223 0.976090 0.331522
v -0.913199 0.976090 0.331522
v -0.970019 -0.000000 0.336948
v -0.919401 -0.000000 0.336948
v -0.919401 -0.000000 0.336948
v -0.913199 0.976090 0.331522
v -0.919401 -0.000000 0.381222
v -0.913197 0.976090 0.386648
v -0.976223 0.976090 0.331522
v -0.970019 -0.000000 0.336948
v -0.976221 0.976090 0.386648
v -0.970017 -0.000000 0.381222
v -0.919500 0.000000 -0.370607
v -0.919500 0.000000 -0.326506
v -0.969920 0.000000 -0.370607
v -0.969919 0.000000 -0.326506
v -0.969919 0.000000 -0.326506
v -0.919500 0.000000 -0.326506
v -0.976221 0.976090 -0.320993
v -0.913197 0.976090 -0.320993
v -0.976223 0.976090 -0.376119
v -0.913199 0.976090 -0.376119
v -0.969920 0.000000 -0.370607
v -0.919500 0.000000 -0.370607
v -0.919500 0.000000 -0.370607
v -0.913199 0.976090 -0.376119
v -0.919500 0.000000 -0.326506
v -0.913197 0.976090 -0.320993
v -0.976223 0.976090 -0.376119
v -0.969920 0.000000 -0.370607
v -0.976221 0.976090 -0.320993
v -0.969919 0.000000 -0.326506
v 0.980318 -0.000000 0.336948
v 0.980318 -0.000000 0.381222
v 0.929702 -0.000000 0.336948
v 0.929702 -0.000000 0.381222
v 0.929702 -0.000000 0.381222
v 0.980318 -0.000000 0.381222
v 0.923498 0.976090 0.386648
v 0.986522 0.976090 0.386648
v 0.923497 0.976090 0.331522
v 0.986522 0.976090 0.331522
v 0.929702 -0.000000 0.336948
v 0.980318 -0.000000 0.336948
v 0.980318 -0.000000 0.336948
v 0.986522 0.976090 0.331522
v 0.980318 -0.000000 0.381222
v 0.986522 0.976090 0.386648
v 0.923497 0.976090 0.331522
v 0.929702 -0.000000 0.336948
v 0.923498 0.976090 0.386648
v 0.929702 -0.000000 0.381222
v 0.980220 0.000000 -0.370607
v 0.980220 0.000000 -0.326506
v 0.929801 0.000000 -0.370607
v 0.929801 0.000000 -0.326506
v 0.929801 0.000000 -0.326506
v 0.980220 0.000000 -0.326506
v 0.923498 0.976090 -0.320993
v 0.986522 0.976090 -0.320993
v 0.923497 0.976090 -0.376119
v 0.986522 0.976090 -0.376119
v 0.929801 0.000000 -0.370607
v 0.980220 0.000000 -0.370607
v 0.980220 0.000000 -0.370607
v 0.986522 0.976090 -0.376119
v 0.980220 0.000000 -0.326506
v 0.986522 0.976090 -0.320993
v 0.923497 0.976090 -0.376119
v 0.929801 0.000000 -0.370607
v 0.923498 0.976090 -0.320993
v 0.929801 0.000000 -0.326506
v -0.928799 0.180240 0.348110
v -0.928799 0.180241 -0.335284
v -0.928799 0.241232 0.348110
v -0.928799 0.241232 -0.335284
v -0.928799 0.180240 0.348110
v -0.955781 0.180240 0.348110
v -0.928799 0.180241 -0.335284
v -0.955781 0.180241 -0.335284
v -0.955781 0.180240 0.348110
v -0.955781 0.241232 0.348110
v -0.955781 0.180241 -0.335284
v -0.955781 0.241232 -0.335284
v -0.928799 0.241232 0.348110
v -0.928799 0.241232 -0.335284
v -0.955781 0.241232 0.348110
v -0.955781 0.241232 -0.335284
v 0.968385 0.180240 0.348110
v 0.968384 0.180241 -0.335284
v 0.968385 0.241232 0.348110
v 0.968384 0.241232 -0.335284
v 0.968385 0.180240 0.348110
v 0.941403 0.180240 0.348110
v 0.968384 0.180241 -0.335284
v 0.941402 0.180241 -0.335284
v 0.941403 0.180240 0.348110
v 0.941403 0.241232 0.348110
v 0.941402 0.180241 -0.335284
v 0.941402 0.241232 -0.335284
v 0.968385 0.241232 0.348110
v 0.968384 0.241232 -0.335284
v 0.941403 0.241232 0.348110
v 0.941402 0.241232 -0.335284
v -0.929887 0.724552 -0.349131
v -0.929873 0.724552 0.372936
v -0.929887 0.757791 -0.349131
v -0.929887 0.757791 0.372936
vt 0.3961 0.8104
vt 0.4347 0.8104
vt 0.3961 0.9536
vt 0.4347 0.9536
vt 0.4347 0.9536
vt 0.4347 0.9589
vt 0.3961 0.9536
vt 0.3961 0.9589
vt 0.4294 0.8104
vt 0.4679 0.8104
vt 0.4294 0.9536
vt 0.4679 0.9536
vt 0.4347 0.8104
vt 0.4294 0.8104
vt 0.4347 0.9536
vt 0.4294 0.9536
vt 0.3961 0.8104
vt 0.3961 0.9536
vt 0.4014 0.8104
vt 0.4014 0.9536
vt 0.3961 0.8104
vt 0.3961 0.8051
vt 0.4347 0.8104
vt 0.4347 0.8051
vt 0.4210 0.3077
vt 0.4285 0.3077
vt 0.4210 0.6912
vt 0.4285 0.6923
vt 0.6080 0.3077
vt 0.6080 0.6923
vt 0.4285 0.3077
vt 0.4285 0.6923
vt 0.2416 0.6923
vt 0.2416 0.3077
vt 0.4210 0.6912
vt 0.4210 0.3077
vt 0.5145 0.3077
vt 0.5220 0.3077
vt 0.5145 0.6923
vt 0.5220 0.6923
vt 0.5145 0.4103
vt 0.5220 0.4103
vt 0.5145 0.5897
vt 0.5220 0.5897
vt 0.2265 0.7305
vt 0.2335 0.7305
vt 0.2265 0.9144
vt 0.2335 0.9144
vt 0.2879 0.9144
vt 0.2879 0.7305
vt 0.3353 0.9144
vt 0.3353 0.7305
vt 0.2335 0.9144
vt 0.2335 0.7305
vt 0.2809 0.9144
vt 0.2809 0.7305
vt 0.2879 0.7305
vt 0.2879 0.9144
vt 0.2809 0.7305
vt 0.2809 0.9144
vt 0.4147 0.0035
vt 0.4147 0.3051
vt 0.3699 0.0035
vt 0.3699 0.3051
vt 0.3699 0.0035
vt 0.3699 0.3051
vt 0.3654 0.0035
vt 0.3654 0.3051
vt 0.4193 0.0035
vt 0.4193 0.3051
vt 0.4147 0.0035
vt 0.4147 0.3051
vt 1.3845 2.2575
vt 1.3845 2.9135
vt 1.0607 2.2575
vt 1.0607 2.9135
vt 0.7254 2.9135
vt 0.7254 2.2575
vt 1.0491 2.9135
vt 1.0491 2.2575
vt 0.7138 2.2575
vt 0.7254 2.2575
vt 0.7138 2.9135
vt 0.7254 2.9135
vt 1.0607 2.9135
vt 1.0491 2.9135
vt 1.0607 2.2575
vt 1.0491 2.2575
vt 1.0491 2.2411
vt 1.0491 2.2575
vt 0.7254 2.2411
vt 0.7254 2.2575
vt 0.7254 2.9135
vt 1.0491 2.9135
vt 0.7254 2.9283
vt 1.0491 2.9283
vt 0.7540 1.2452
vt 0.7540 1.2363
vt 0.7605 1.2513
vt 0.7605 1.2298
vt 0.7696 1.2296
vt 0.7760 1.2446
vt 0.7760 1.2357
vt 0.7696 1.2510
vt 0.7562 1.2558
vt 0.7635 1.2553
vt 0.7596 1.2731
vt 0.7630 1.2728
vt 0.7708 1.2563
vt 0.7663 1.2733
vt 0.7693 1.2745
vt 0.7775 1.2588
vt 0.7720 1.2763
vt 0.7834 1.2629
vt 0.7742 1.2788
vt 0.7884 1.2684
vt 0.7514 1.2781
vt 0.7378 1.2668
vt 0.7538 1.2757
vt 0.7431 1.2617
vt 0.7493 1.2580
vt 0.7565 1.2741
vt 0.4193 0.3051
vt 0.4193 0.0035
vt 0.4641 0.3051
vt 0.4641 0.0035
vt 0.2335 0.9144
vt 0.2809 0.9144
vt 0.2334 0.9223
vt 0.2804 0.9223
vt 1.1061 0.9535
vt 1.1927 0.9535
vt 1.1061 1.2015
vt 1.1927 1.2015
vt 1.1162 1.2015
vt 1.1162 0.9535
vt 1.1061 1.2015
vt 1.1061 0.9535
vt 0.7115 1.0992
vt 0.7115 0.8511
vt 0.7981 1.0992
vt 0.7981 0.8511
vt 1.1927 0.9535
vt 1.1819 0.9535
vt 1.1927 1.2015
vt 1.1819 1.2015
vt 0.7115 1.0903
vt 0.7115 1.0992
vt 0.7981 1.0903
vt 0.7981 1.0992
vt 0.7981 0.8511
vt 0.7115 0.8511
vt 0.7981 0.8422
vt 0.7115 0.8422
vt 0.2709 0.9458
vt 0.2597 0.9458
vt 0.2710 0.9351
vt 0.2597 0.9351
vt 0.2597 0.9351
vt 0.2491 0.9351
vt 0.2597 0.7116
vt 0.2464 0.7117
vt 0.2737 0.7117
vt 0.2870 0.7119
vt 0.2710 0.9351
vt 0.2816 0.9353
vt 0.2378 0.9353
vt 0.2325 0.7119
vt 0.2491 0.9351
vt 0.2464 0.7117
vt 0.2737 0.7117
vt 0.2710 0.9351
vt 0.2597 0.7116
vt 0.2597 0.9351
vt 0.7603 0.6855
vt 0.7491 0.6856
vt 0.7603 0.6961
vt 0.7492 0.6962
vt 0.7492 0.6962
vt 0.7385 0.6961
vt 0.7492 0.9197
vt 0.7359 0.9196
vt 0.7631 0.9196
vt 0.7764 0.9193
vt 0.7603 0.6961
vt 0.7710 0.6959
vt 0.7710 0.6959
vt 0.7764 0.9193
vt 0.7822 0.6956
vt 0.7904 0.9189
vt 0.7631 0.9196
vt 0.7603 0.6961
vt 0.7492 0.9197
vt 0.7492 0.6962
vt 0.2663 0.0620
vt 0.2775 0.0622
vt 0.2665 0.0513
vt 0.2777 0.0515
vt 0.2882 0.0622
vt 0.2775 0.0622
vt 0.2882 0.2857
vt 0.2749 0.2856
vt 0.2476 0.2850
vt 0.2610 0.2854
vt 0.2556 0.0617
vt 0.2663 0.0620
vt 0.2663 0.0620
vt 0.2610 0.2854
vt 0.2775 0.0622
vt 0.2749 0.2856
vt 0.3022 0.2856
vt 0.2994 0.0622
vt 0.2882 0.2857
vt 0.2882 0.0622
vt 0.4179 0.2439
vt 0.4067 0.2440
vt 0.4179 0.2333
vt 0.4067 0.2333
vt 0.3961 0.2439
vt 0.4067 0.2440
vt 0.3934 0.4674
vt 0.4067 0.4675
vt 0.4340 0.4671
vt 0.4207 0.4674
vt 0.4286 0.2437
vt 0.4179 0.2439
vt 0.4179 0.2439
vt 0.4207 0.4674
vt 0.4067 0.2440
vt 0.4067 0.4675
vt 0.4340 0.4671
vt 0.4286 0.2437
vt 0.4480 0.4667
vt 0.4397 0.2434
vt 0.6270 0.5739
vt 0.6270 0.4077
vt 0.6406 0.5739
vt 0.6406 0.4077
vt 0.6432 0.5739
vt 0.6487 0.5739
vt 0.6432 0.4077
vt 0.6487 0.4077
vt 0.6487 0.5739
vt 0.6351 0.5739
vt 0.6487 0.4077
vt 0.6351 0.4077
vt 0.6406 0.5739
vt 0.6406 0.4077
vt 0.6351 0.5739
vt 0.6351 0.4077
vt 0.6270 0.5739
vt 0.6270 0.4077
vt 0.6406 0.5739
vt 0.6406 0.4077
vt 0.6270 0.5739
vt 0.6325 0.5739
vt 0.6270 0.4077
vt 0.6325 0.4077
vt 0.6487 0.5739
vt 0.6351 0.5739
vt 0.6487 0.4077
vt 0.6351 0.4077
vt 0.6406 0.5739
vt 0.6406 0.4077
vt 0.6351 0.5739
vt 0.6351 0.4077
vt 0.2416 0.6923
vt 0.4210 0.6912
vt 0.2416 0.6998
vt 0.4211 0.6988
vn 1.0000 0.0000 0.0000
vn 0.0000 -0.0000 1.0000
vn -1.0000 0.0000 0.0000
vn 0.0000 1.0000 0.0000
vn 0.0000 -1.0000 -0.0000
vn 0.0000 0.0000 -1.0000
vn -0.0251 -0.9997 -0.0000
vn -0.0114 -0.9999 0.0005
vn -0.0137 -0.9999 0.0006
vn 0.0000 -1.0000 0.0012
vn 1.0000 -0.0000 0.0001
vn 1.0000 0.0002 0.0000
vn 1.0000 0.0001 0.0001
vn 1.0000 0.0003 -0.0000
vn 0.0003 -0.9998 0.0224
vn 0.0003 -0.9998 0.0186
vn 0.0005 -0.9992 0.0408
vn -0.0001 1.0000 0.0000
vn 0.0000 1.0000 -0.0039
vn 0.0000 1.0000 -0.0032
vn 0.0000 1.0000 -0.0070
vn -0.7287 0.5907 -0.3466
vn 0.0000 0.9473 -0.3203
vn -0.5176 0.7849 -0.3406
vn -0.0000 0.9483 -0.3172
vn 0.7287 0.5907 -0.3466
vn 0.5177 0.7849 -0.3405
vn 0.9324 -0.0000 -0.3616
vn 0.9352 -0.0000 -0.3542
vn 0.5176 -0.7849 -0.3406
vn 0.7288 -0.5906 -0.3466
vn -0.0308 -0.9479 -0.3170
vn -0.0284 -0.9470 -0.3200
vn 0.0308 -0.9479 -0.3170
vn 0.0284 -0.9470 -0.3201
vn -0.5177 -0.7849 -0.3405
vn -0.7288 -0.5906 -0.3466
vn -0.9352 -0.0000 -0.3541
vn -0.9324 -0.0000 -0.3615
vn 0.0001 0.0005 1.0000
vn 0.0000 -0.0056 1.0000
vn 0.0000 -0.0056 -1.0000
vn 1.0000 -0.0064 0.0000
vn -1.0000 -0.0064 0.0000
vn 1.0000 -0.0065 0.0000
vn -1.0000 -0.0065 0.0000
vn -1.0000 -0.0004 0.0000
usemtl wood_board_01
s 1
f 25/25/7 26/26/7 27/27/7
f 27/27/7 26/26/7 28/28/7
f 29/29/8 30/30/8 31/31/8
f 31/31/8 30/30/8 32/32/8
f 33/33/9 34/34/9 35/35/9
f 35/35/9 34/34/9 36/36/9
f 37/37/10 38/38/10 39/39/10
f 39/39/10 38/38/10 40/40/10
f 41/41/11 42/42/11 43/43/11
f 43/43/11 42/42/11 44/44/11
f 45/45/12 46/46/12 47/47/12
f 47/47/12 46/46/12 48/48/12
f 49/49/8 50/50/8 51/51/8
f 51/51/8 50/50/8 52/52/8
f 53/53/10 54/54/10 55/55/10
f 55/55/10 54/54/10 56/56/10
f 57/57/11 58/58/11 59/59/11
f 59/59/11 58/58/11 60/60/11
f 61/61/12 62/62/12 63/63/12
f 63/63/12 62/62/12 64/64/12
f 65/65/7 66/66/7 67/67/7
f 67/67/7 66/66/7 68/68/7
f 69/69/13 70/70/14 71/71/15
f 71/71/15 70/70/14 72/72/16
f 73/73/9 74/74/9 75/75/9
f 75/75/9 74/74/9 76/76/9
f 77/77/17 78/78/18 79/79/19
f 79/79/19 78/78/18 80/80/20
f 81/81/10 82/82/10 83/83/10
f 83/83/10 82/82/10 84/84/10
f 85/85/12 86/86/12 87/87/12
f 87/87/12 86/86/12 88/88/12
f 89/89/11 90/90/21 91/91/22
f 91/91/22 90/90/21 92/92/23
f 93/93/24 94/94/25 95/95/26
f 95/95/26 94/94/25 96/96/27
f 97/97/11 98/98/11 99/99/11
f 99/99/11 98/98/11 100/100/11
f 101/101/10 102/102/10 103/103/10
f 103/103/10 102/102/10 104/104/10
f 105/105/12 106/106/12 107/107/12
f 107/107/12 106/106/12 108/108/12
f 109/109/8 110/110/8 111/111/8
f 111/111/8 110/110/8 112/112/8
f 113/113/9 114/114/9 115/115/9
f 115/115/9 114/114/9 116/116/9
f 117/117/7 118/118/7 119/119/7
f 119/119/7 118/118/7 120/120/7
f 121/121/8 122/122/8 123/123/8
f 123/123/8 122/122/8 124/124/8
f 124/124/8 125/125/8 126/126/8
f 126/126/8 125/125/8 127/127/8
f 124/124/8 126/126/8 123/123/8
f 123/123/8 126/126/8 128/128/8
f 129/129/28 130/130/29 131/131/30
f 131/131/30 130/130/29 132/132/31
f 133/133/32 134/134/33 130/130/29
f 130/130/29 134/134/33 132/132/31
f 134/134/33 133/133/32 135/135/34
f 135/135/34 133/133/32 136/136/35
f 137/137/36 135/135/34 138/138/37
f 138/138/37 135/135/34 136/136/35
f 139/139/38 137/137/36 140/140/39
f 140/140/39 137/137/36 138/138/37
f 141/141/40 142/142/41 143/143/42
f 143/143/42 142/142/41 144/144/43
f 145/145/44 146/146/45 144/144/43
f 144/144/43 146/146/45 143/143/42
f 145/145/44 129/129/28 146/146/45
f 146/146/45 129/129/28 131/131/30
f 147/147/46 148/148/8 149/149/46
f 149/149/46 148/148/8 150/150/8
f 151/151/8 152/152/8 153/153/8
f 153/153/8 152/152/8 154/154/8
f 155/155/7 156/156/7 157/157/7
f 157/157/7 156/156/7 158/158/7
f 159/159/11 160/160/11 161/161/11
f 161/161/11 160/160/11 162/162/11
f 163/163/9 164/164/9 165/165/9
f 165/165/9 164/164/9 166/166/9
f 167/167/10 168/168/10 169/169/10
f 169/169/10 168/168/10 170/170/10
f 171/171/8 172/172/8 173/173/8
f 173/173/8 172/172/8 174/174/8
f 175/175/12 176/176/12 177/177/12
f 177/177/12 176/176/12 178/178/12
f 179/179/11 180/180/11 181/181/11
f 181/181/11 180/180/11 182/182/11
f 183/183/47 184/184/47 185/185/47
f 185/185/47 184/184/47 186/186/47
f 187/187/48 188/188/48 189/189/48
f 189/189/48 188/188/48 190/190/48
f 191/191/49 192/192/49 193/193/49
f 193/193/49 192/192/49 194/194/49
f 195/195/50 196/196/50 197/197/50
f 197/197/50 196/196/50 198/198/50
f 199/199/11 200/200/11 201/201/11
f 201/201/11 200/200/11 202/202/11
f 203/203/47 204/204/47 205/205/47
f 205/205/47 204/204/47 206/206/47
f 207/207/48 208/208/48 209/209/48
f 209/209/48 208/208/48 210/210/48
f 211/211/51 212/212/51 213/213/51
f 213/213/51 212/212/51 214/214/51
f 215/215/52 216/216/52 217/217/52
f 217/217/52 216/216/52 218/218/52
f 219/219/11 220/220/11 221/221/11
f 221/221/11 220/220/11 222/222/11
f 223/223/47 224/224/47 225/225/47
f 225/225/47 224/224/47 226/226/47
f 227/227/48 228/228/48 229/229/48
f 229/229/48 228/228/48 230/230/48
f 231/231/49 232/232/49 233/233/49
f 233/233/49 232/232/49 234/234/49
f 235/235/50 236/236/50 237/237/50
f 237/237/50 236/236/50 238/238/50
f 239/239/11 240/240/11 241/241/11
f 241/241/11 240/240/11 242/242/11
f 243/243/47 244/244/47 245/245/47
f 245/245/47 244/244/47 246/246/47
f 247/247/48 248/248/48 249/249/48
f 249/249/48 248/248/48 250/250/48
f 251/251/51 252/252/51 253/253/51
f 253/253/51 252/252/51 254/254/51
f 255/255/52 256/256/52 257/257/52
f 257/257/52 256/256/52 258/258/52
f 259/259/7 260/260/7 261/261/7
f 261/261/7 260/260/7 262/262/7
f 263/263/11 264/264/11 265/265/11
f 265/265/11 264/264/11 266/266/11
f 267/267/9 268/268/9 269/269/9
f 269/269/9 268/268/9 270/270/9
f 271/271/10 272/272/10 273/273/10
f 273/273/10 272/272/10 274/274/10
f 275/275/7 276/276/7 277/277/7
f 277/277/7 276/276/7 278/278/7
f 279/279/11 280/280/11 281/281/11
f 281/281/11 280/280/11 282/282/11
f 283/283/9 284/284/9 285/285/9
f 285/285/9 284/284/9 286/286/9
f 287/287/10 288/288/10 289/289/10
f 289/289/10 288/288/10 290/290/10
f 291/291/9 292/292/53 293/293/9
f 293/293/9 292/292/53 294/294/53
