# ..:::Stalker models:::..
# WebSite: http://excalibur-craft.ru
mtllib stol_4.mtl
o 0.002
v -0.970938 0.970182 0.405677
v -0.906349 0.970182 0.405677
v -0.970938 -0.000144 0.405675
v -0.906349 -0.000144 0.405675
v -0.970938 0.970182 0.457675
v -0.970938 0.970182 0.405677
v -0.970938 -0.000145 0.457675
v -0.970938 -0.000144 0.405675
v -0.906349 0.970182 0.457675
v -0.970938 0.970182 0.457675
v -0.906349 -0.000145 0.457675
v -0.970938 -0.000145 0.457675
v -0.906349 0.970182 0.405677
v -0.906349 0.970182 0.457675
v -0.906349 -0.000144 0.405675
v -0.906349 -0.000145 0.457675
v -0.970938 -0.000145 0.457675
v -0.970938 -0.000144 0.405675
v -0.906349 -0.000145 0.457675
v -0.906349 -0.000144 0.405675
v -0.906349 0.970182 0.405677
v -0.970938 0.970182 0.405677
v -0.906349 0.970182 0.457675
v -0.970938 0.970182 0.457675
v -0.962865 0.267041 -0.399674
v -0.914423 0.267041 -0.399674
v -0.962865 0.267042 0.405675
v -0.914423 0.267042 0.405675
v -0.962865 0.310369 -0.399674
v -0.962865 0.267041 -0.399674
v -0.962865 0.310369 0.405675
v -0.962865 0.267042 0.405675
v -0.914423 0.310369 -0.399674
v -0.962865 0.310369 -0.399674
v -0.914423 0.310369 0.405675
v -0.962865 0.310369 0.405675
v -0.914423 0.267041 -0.399674
v -0.914423 0.310369 -0.399674
v -0.914423 0.267042 0.405675
v -0.914423 0.310369 0.405675
v -0.962865 0.310369 0.405675
v -0.962865 0.267042 0.405675
v -0.914423 0.310369 0.405675
v -0.914423 0.267042 0.405675
v -0.914423 0.267041 -0.399674
v -0.962865 0.267041 -0.399674
v -0.914423 0.310369 -0.399674
v -0.962865 0.310369 -0.399674
v -0.970938 0.970182 -0.452325
v -0.906349 0.970182 -0.452325
v -0.970938 -0.000144 -0.452325
v -0.906349 -0.000144 -0.452325
v -0.970938 0.970182 -0.400325
v -0.970938 0.970182 -0.452325
v -0.970938 -0.000144 -0.400325
v -0.970938 -0.000144 -0.452325
v -0.906349 0.970182 -0.400325
v -0.970938 0.970182 -0.400325
v -0.906349 -0.000144 -0.400325
v -0.970938 -0.000144 -0.400325
v -0.906349 0.970182 -0.452325
v -0.906349 0.970182 -0.400325
v -0.906349 -0.000144 -0.452325
v -0.906349 -0.000144 -0.400325
v -0.970938 -0.000144 -0.400325
v -0.970938 -0.000144 -0.452325
v -0.906349 -0.000144 -0.400325
v -0.906349 -0.000144 -0.452325
v -0.906349 0.970182 -0.452325
v -0.970938 0.970182 -0.452325
v -0.906349 0.970182 -0.400325
v -0.970938 0.970182 -0.400325
v 0.902177 0.970182 -0.452325
v 0.966768 0.970182 -0.452325
v 0.902177 -0.000144 -0.452325
v 0.966768 -0.000144 -0.452325
v 0.902177 0.970182 -0.400325
v 0.902177 0.970182 -0.452325
v 0.902177 -0.000144 -0.400325
v 0.902177 -0.000144 -0.452325
v 0.966768 0.970182 -0.400325
v 0.902177 0.970182 -0.400325
v 0.966768 -0.000144 -0.400325
v 0.902177 -0.000144 -0.400325
v 0.966768 0.970182 -0.452325
v 0.966768 0.970182 -0.400325
v 0.966768 -0.000144 -0.452325
v 0.966768 -0.000144 -0.400325
v 0.902177 -0.000144 -0.400325
v 0.902177 -0.000144 -0.452325
v 0.966768 -0.000144 -0.400325
v 0.966768 -0.000144 -0.452325
v 0.966768 0.970182 -0.452325
v 0.902177 0.970182 -0.452325
v 0.966768 0.970182 -0.400325
v 0.902177 0.970182 -0.400325
v 0.902177 0.970182 0.405675
v 0.966768 0.970182 0.405675
v 0.902177 -0.000144 0.405675
v 0.966768 -0.000144 0.405675
v 0.902177 0.970182 0.457675
v 0.902177 0.970182 0.405675
v 0.902177 -0.000145 0.457675
v 0.902177 -0.000144 0.405675
v 0.966768 0.970182 0.457675
v 0.902177 0.970182 0.457675
v 0.966768 -0.000145 0.457675
v 0.902177 -0.000145 0.457675
v 0.966768 0.970182 0.405675
v 0.966768 0.970182 0.457675
v 0.966768 -0.000144 0.405675
v 0.966768 -0.000145 0.457675
v 0.902177 -0.000145 0.457675
v 0.902177 -0.000144 0.405675
v 0.966768 -0.000145 0.457675
v 0.966768 -0.000144 0.405675
v 0.966768 0.970182 0.405675
v 0.902177 0.970182 0.405675
v 0.966768 0.970182 0.457675
v 0.902177 0.970182 0.457675
v 0.909444 0.267041 -0.399674
v 0.957887 0.267041 -0.399674
v 0.909444 0.267042 0.405675
v 0.957887 0.267042 0.405675
v 0.909444 0.310369 -0.399674
v 0.909444 0.267041 -0.399674
v 0.909444 0.310369 0.405675
v 0.909444 0.267042 0.405675
v 0.957887 0.310369 -0.399674
v 0.909444 0.310369 -0.399674
v 0.957887 0.310369 0.405675
v 0.909444 0.310369 0.405675
v 0.957887 0.267041 -0.399674
v 0.957887 0.310369 -0.399674
v 0.957887 0.267042 0.405675
v 0.957887 0.310369 0.405675
v 0.909444 0.310369 0.405675
v 0.909444 0.267042 0.405675
v 0.957887 0.310369 0.405675
v 0.957887 0.267042 0.405675
v 0.957887 0.267041 -0.399674
v 0.909444 0.267041 -0.399674
v 0.957887 0.310369 -0.399674
v 0.909444 0.310369 -0.399674
v 0.901370 0.961064 0.412175
v 0.901370 0.917734 0.412175
v -0.906349 0.961064 0.412175
v -0.906349 0.917734 0.412175
v 0.901370 0.961064 0.451177
v 0.901370 0.961064 0.412175
v -0.906349 0.961064 0.451177
v -0.906349 0.961064 0.412175
v 0.901370 0.917734 0.451177
v 0.901370 0.961064 0.451177
v -0.906349 0.917734 0.451177
v -0.906349 0.961064 0.451177
v 0.901370 0.917734 0.412175
v 0.901370 0.917734 0.451177
v -0.906349 0.917734 0.412175
v -0.906349 0.917734 0.451177
v -0.906349 0.961064 0.451177
v -0.906349 0.961064 0.412175
v -0.906349 0.917734 0.451177
v -0.906349 0.917734 0.412175
v 0.901370 0.917734 0.412175
v 0.901370 0.961064 0.412175
v 0.901370 0.917734 0.451177
v 0.901370 0.961064 0.451177
v 0.909444 0.701348 -0.399674
v 0.957887 0.701348 -0.399674
v 0.909444 0.701348 0.405675
v 0.957887 0.701348 0.405675
v 0.909444 0.744678 -0.399674
v 0.909444 0.701348 -0.399674
v 0.909444 0.744678 0.405675
v 0.909444 0.701348 0.405675
v 0.957887 0.744678 -0.399674
v 0.909444 0.744678 -0.399674
v 0.957887 0.744678 0.405675
v 0.909444 0.744678 0.405675
v 0.957887 0.701348 -0.399674
v 0.957887 0.744678 -0.399674
v 0.957887 0.701348 0.405675
v 0.957887 0.744678 0.405675
v 0.909444 0.744678 0.405675
v 0.909444 0.701348 0.405675
v 0.957887 0.744678 0.405675
v 0.957887 0.701348 0.405675
v 0.957887 0.701348 -0.399674
v 0.909444 0.701348 -0.399674
v 0.957887 0.744678 -0.399674
v 0.909444 0.744678 -0.399674
v 0.901370 0.961064 -0.445825
v 0.901370 0.917734 -0.445825
v -0.906349 0.961064 -0.445825
v -0.906349 0.917734 -0.445825
v 0.901370 0.961064 -0.406825
v 0.901370 0.961064 -0.445825
v -0.906349 0.961064 -0.406823
v -0.906349 0.961064 -0.445825
v 0.901370 0.917734 -0.406825
v 0.901370 0.961064 -0.406825
v -0.906349 0.917734 -0.406823
v -0.906349 0.961064 -0.406823
v 0.901370 0.917734 -0.445825
v 0.901370 0.917734 -0.406825
v -0.906349 0.917734 -0.445825
v -0.906349 0.917734 -0.406823
v -0.906349 0.961064 -0.406823
v -0.906349 0.961064 -0.445825
v -0.906349 0.917734 -0.406823
v -0.906349 0.917734 -0.445825
v 0.901370 0.917734 -0.445825
v 0.901370 0.961064 -0.445825
v 0.901370 0.917734 -0.406825
v 0.901370 0.961064 -0.406825
v -1.011308 0.999069 -0.484824
v 1.007136 0.999069 -0.484824
v -1.011308 0.970182 -0.484824
v 1.007136 0.970182 -0.484824
v -1.011308 0.999069 0.490176
v -1.011308 0.999069 -0.484824
v -1.011308 0.970182 0.490176
v -1.011308 0.970182 -0.484824
v 1.007136 0.999069 0.490176
v -1.011308 0.999069 0.490176
v 1.007136 0.970182 0.490176
v -1.011308 0.970182 0.490176
v 1.007136 0.999069 -0.484824
v 1.007136 0.999069 0.490176
v 1.007136 0.970182 -0.484824
v 1.007136 0.970182 0.490176
v -1.011308 0.970182 0.490176
v -1.011308 0.970182 -0.484824
v 1.007136 0.970182 0.490176
v 1.007136 0.970182 -0.484824
v 1.007136 0.999069 -0.484824
v -1.011308 0.999069 -0.484824
v 1.007136 0.999069 0.490176
v -1.011308 0.999069 0.490176
v -0.963539 0.701348 -0.399674
v -0.915097 0.701348 -0.399674
v -0.963539 0.701348 0.405675
v -0.915097 0.701348 0.405675
v -0.963539 0.744678 -0.399674
v -0.963539 0.701348 -0.399674
v -0.963539 0.744678 0.405677
v -0.963539 0.701348 0.405675
v -0.915097 0.744678 -0.399674
v -0.963539 0.744678 -0.399674
v -0.915097 0.744678 0.405675
v -0.963539 0.744678 0.405677
v -0.915097 0.701348 -0.399674
v -0.915097 0.744678 -0.399674
v -0.915097 0.701348 0.405675
v -0.915097 0.744678 0.405675
v -0.963539 0.744678 0.405677
v -0.963539 0.701348 0.405675
v -0.915097 0.744678 0.405675
v -0.915097 0.701348 0.405675
v -0.915097 0.701348 -0.399674
v -0.963539 0.701348 -0.399674
v -0.915097 0.744678 -0.399674
v -0.963539 0.744678 -0.399674
v 0.908636 0.310371 -0.016499
v 0.908636 0.267042 -0.016499
v -0.914423 0.310369 -0.016499
v -0.914423 0.267042 -0.016499
v 0.908636 0.310369 0.022500
v 0.908636 0.310371 -0.016499
v -0.914423 0.310369 -0.016499
v -0.914423 0.310369 0.022502
v 0.908636 0.267042 0.022500
v 0.908636 0.310369 0.022500
v -0.914423 0.267042 0.022502
v -0.914423 0.310369 0.022502
v 0.908636 0.267042 -0.016499
v 0.908636 0.267042 0.022500
v -0.914423 0.267042 -0.016499
v -0.914423 0.267042 0.022502
v 0.908636 0.267042 -0.016499
v 0.908636 0.310371 -0.016499
v 0.908636 0.267042 0.022500
v 0.908636 0.310369 0.022500
v -0.914423 0.310369 -0.016499
v -0.914423 0.267042 -0.016499
v -0.914423 0.310369 0.022502
v -0.914423 0.267042 0.022502
vt 0.6614 0.2884
vt 0.6614 0.3092
vt 0.3496 0.2884
vt 0.3496 0.3092
vt 0.6614 0.5132
vt 0.6614 0.5318
vt 0.3496 0.5132
vt 0.3496 0.5318
vt 0.6614 0.3320
vt 0.6614 0.3528
vt 0.3496 0.3320
vt 0.3496 0.3528
vt 0.6614 0.4937
vt 0.6614 0.5122
vt 0.3496 0.4937
vt 0.3496 0.5122
vt 0.4345 0.5513
vt 0.4345 0.5328
vt 0.4553 0.5513
vt 0.4553 0.5328
vt 0.5207 0.5513
vt 0.4999 0.5513
vt 0.5207 0.5328
vt 0.4999 0.5328
vt 0.7619 0.5328
vt 0.7775 0.5328
vt 0.7619 0.8203
vt 0.7775 0.8203
vt 0.8996 0.5328
vt 0.9135 0.5328
vt 0.8996 0.8203
vt 0.9135 0.8203
vt 0.6790 0.5328
vt 0.6946 0.5328
vt 0.6790 0.8203
vt 0.6946 0.8203
vt 0.8698 0.5328
vt 0.8837 0.5328
vt 0.8698 0.8203
vt 0.8837 0.8203
vt 0.4241 0.5662
vt 0.4241 0.5523
vt 0.4397 0.5662
vt 0.4397 0.5523
vt 0.3652 0.5662
vt 0.3496 0.5662
vt 0.3652 0.5523
vt 0.3496 0.5523
vt 0.6614 0.2667
vt 0.6614 0.2874
vt 0.3496 0.2667
vt 0.3496 0.2874
vt 0.6614 0.3763
vt 0.6614 0.3949
vt 0.3496 0.3763
vt 0.3496 0.3949
vt 0.6614 0.3102
vt 0.6614 0.3310
vt 0.3496 0.3102
vt 0.3496 0.3310
vt 0.6614 0.4350
vt 0.6614 0.4536
vt 0.3496 0.4350
vt 0.3496 0.4536
vt 0.4563 0.5513
vt 0.4563 0.5328
vt 0.4771 0.5513
vt 0.4771 0.5328
vt 0.4989 0.5513
vt 0.4781 0.5513
vt 0.4989 0.5328
vt 0.4781 0.5328
vt 0.6614 0.2013
vt 0.6614 0.2221
vt 0.3496 0.2013
vt 0.3496 0.2221
vt 0.6614 0.3959
vt 0.6614 0.4144
vt 0.3496 0.3959
vt 0.3496 0.4144
vt 0.6614 0.2449
vt 0.6614 0.2657
vt 0.3496 0.2449
vt 0.3496 0.2657
vt 0.6614 0.4154
vt 0.6614 0.4340
vt 0.3496 0.4154
vt 0.3496 0.4340
vt 0.4127 0.5513
vt 0.4127 0.5328
vt 0.4335 0.5513
vt 0.4335 0.5328
vt 0.3899 0.5328
vt 0.3899 0.5536
vt 0.3714 0.5328
vt 0.3714 0.5536
vt 0.6614 0.1795
vt 0.6614 0.2003
vt 0.3496 0.1795
vt 0.3496 0.2003
vt 0.6614 0.4741
vt 0.6614 0.4927
vt 0.3496 0.4741
vt 0.3496 0.4927
vt 0.6614 0.2231
vt 0.6614 0.2439
vt 0.3496 0.2231
vt 0.3496 0.2439
vt 0.6614 0.4545
vt 0.6614 0.4731
vt 0.3496 0.4545
vt 0.3496 0.4731
vt 0.3496 0.5513
vt 0.3496 0.5328
vt 0.3704 0.5513
vt 0.3704 0.5328
vt 0.4117 0.5513
vt 0.3909 0.5513
vt 0.4117 0.5328
vt 0.3909 0.5328
vt 0.7122 0.5328
vt 0.7278 0.5328
vt 0.7122 0.8203
vt 0.7278 0.8203
vt 0.7952 0.5328
vt 0.8091 0.5328
vt 0.7951 0.8203
vt 0.8090 0.8203
vt 0.7288 0.5328
vt 0.7444 0.5328
vt 0.7288 0.8203
vt 0.7444 0.8203
vt 0.8847 0.5328
vt 0.8986 0.5328
vt 0.8847 0.8203
vt 0.8986 0.8203
vt 0.4075 0.5662
vt 0.4075 0.5523
vt 0.4231 0.5662
vt 0.4231 0.5523
vt 0.4065 0.5662
vt 0.3909 0.5662
vt 0.4065 0.5523
vt 0.3909 0.5523
vt 0.9316 0.1646
vt 0.9316 0.1785
vt 0.3496 0.1646
vt 0.3496 0.1785
vt 0.9316 0.0900
vt 0.9316 0.1039
vt 0.3496 0.0900
vt 0.3496 0.1039
vt 0.9316 0.1497
vt 0.9316 0.1636
vt 0.3496 0.1497
vt 0.3496 0.1636
vt 0.9316 0.0751
vt 0.9316 0.0890
vt 0.3496 0.0751
vt 0.3496 0.0890
vt 0.4695 0.5662
vt 0.4556 0.5662
vt 0.4695 0.5523
vt 0.4556 0.5523
vt 0.4705 0.5523
vt 0.4845 0.5523
vt 0.4705 0.5663
vt 0.4845 0.5663
vt 0.6956 0.5328
vt 0.7112 0.5328
vt 0.6956 0.8203
vt 0.7112 0.8203
vt 0.8400 0.5328
vt 0.8539 0.5328
vt 0.8400 0.8203
vt 0.8539 0.8203
vt 0.7453 0.5328
vt 0.7609 0.5328
vt 0.7453 0.8203
vt 0.7609 0.8203
vt 0.8250 0.5328
vt 0.8390 0.5328
vt 0.8250 0.8203
vt 0.8390 0.8203
vt 0.5366 0.5616
vt 0.5366 0.5477
vt 0.5522 0.5616
vt 0.5522 0.5477
vt 0.5207 0.5662
vt 0.5051 0.5662
vt 0.5207 0.5523
vt 0.5051 0.5523
vt 0.9316 0.1347
vt 0.9316 0.1487
vt 0.3496 0.1347
vt 0.3496 0.1487
vt 0.9316 0.1049
vt 0.9316 0.1188
vt 0.3496 0.1049
vt 0.3496 0.1188
vt 0.9316 0.1198
vt 0.9316 0.1338
vt 0.3496 0.1198
vt 0.3496 0.1338
vt 0.9316 0.0602
vt 0.9316 0.0741
vt 0.3496 0.0602
vt 0.3496 0.0741
vt 0.5217 0.5633
vt 0.5217 0.5494
vt 0.5356 0.5633
vt 0.5356 0.5494
vt 0.4407 0.5523
vt 0.4546 0.5523
vt 0.4407 0.5662
vt 0.4546 0.5663
vt 0.3496 0.3651
vt 0.9375 0.3651
vt 0.3496 0.3753
vt 0.9375 0.3753
vt 0.6521 0.8808
vt 0.6521 0.5328
vt 0.6614 0.8808
vt 0.6614 0.5328
vt 0.9375 0.3641
vt 0.3496 0.3641
vt 0.9375 0.3538
vt 0.3496 0.3538
vt 0.9238 0.5328
vt 0.9238 0.8808
vt 0.9145 0.5328
vt 0.9145 0.8808
vt 0.0005 0.9995
vt 0.0005 0.6514
vt 0.6504 0.9995
vt 0.6504 0.6514
vt 0.3486 0.0005
vt 0.3486 0.6504
vt 0.0005 0.0005
vt 0.0005 0.6504
vt 0.6624 0.5328
vt 0.6780 0.5328
vt 0.6624 0.8203
vt 0.6780 0.8203
vt 0.8101 0.5328
vt 0.8240 0.5328
vt 0.8101 0.8203
vt 0.8240 0.8203
vt 0.7785 0.5328
vt 0.7941 0.5328
vt 0.7785 0.8203
vt 0.7941 0.8203
vt 0.8549 0.5328
vt 0.8688 0.5328
vt 0.8549 0.8203
vt 0.8688 0.8203
vt 0.5366 0.5467
vt 0.5366 0.5328
vt 0.5522 0.5467
vt 0.5522 0.5328
vt 0.5356 0.5328
vt 0.5356 0.5484
vt 0.5217 0.5328
vt 0.5217 0.5484
vt 0.9366 0.0452
vt 0.9366 0.0592
vt 0.3496 0.0452
vt 0.3496 0.0592
vt 0.9366 0.0005
vt 0.9366 0.0144
vt 0.3496 0.0144
vt 0.3496 0.0005
vt 0.9366 0.0303
vt 0.9366 0.0443
vt 0.3496 0.0303
vt 0.3496 0.0443
vt 0.9366 0.0154
vt 0.9366 0.0293
vt 0.3496 0.0154
vt 0.3496 0.0293
vt 0.5532 0.5328
vt 0.5671 0.5328
vt 0.5532 0.5467
vt 0.5671 0.5467
vt 0.4854 0.5523
vt 0.4994 0.5523
vt 0.4854 0.5662
vt 0.4994 0.5662
vn 0.0000 0.0000 -1.0000
vn -1.0000 0.0000 0.0000
vn 0.0000 -0.0000 1.0000
vn 1.0000 0.0000 0.0000
vn 0.0000 -1.0000 -0.0000
vn 0.0000 1.0000 0.0000
vn -0.0000 1.0000 0.0001
usemtl mtl_tubes3b.002
s 1
f 1/1/1 2/2/1 3/3/1
f 3/3/1 2/2/1 4/4/1
f 5/5/2 6/6/2 7/7/2
f 7/7/2 6/6/2 8/8/2
f 9/9/3 10/10/3 11/11/3
f 11/11/3 10/10/3 12/12/3
f 13/13/4 14/14/4 15/15/4
f 15/15/4 14/14/4 16/16/4
f 17/17/5 18/18/5 19/19/5
f 19/19/5 18/18/5 20/20/5
f 21/21/6 22/22/6 23/23/6
f 23/23/6 22/22/6 24/24/6
f 25/25/5 26/26/5 27/27/5
f 27/27/5 26/26/5 28/28/5
f 29/29/2 30/30/2 31/31/2
f 31/31/2 30/30/2 32/32/2
f 33/33/6 34/34/6 35/35/6
f 35/35/6 34/34/6 36/36/6
f 37/37/4 38/38/4 39/39/4
f 39/39/4 38/38/4 40/40/4
f 41/41/3 42/42/3 43/43/3
f 43/43/3 42/42/3 44/44/3
f 45/45/1 46/46/1 47/47/1
f 47/47/1 46/46/1 48/48/1
f 49/49/1 50/50/1 51/51/1
f 51/51/1 50/50/1 52/52/1
f 53/53/2 54/54/2 55/55/2
f 55/55/2 54/54/2 56/56/2
f 57/57/3 58/58/3 59/59/3
f 59/59/3 58/58/3 60/60/3
f 61/61/4 62/62/4 63/63/4
f 63/63/4 62/62/4 64/64/4
f 65/65/5 66/66/5 67/67/5
f 67/67/5 66/66/5 68/68/5
f 69/69/6 70/70/6 71/71/6
f 71/71/6 70/70/6 72/72/6
f 73/73/1 74/74/1 75/75/1
f 75/75/1 74/74/1 76/76/1
f 77/77/2 78/78/2 79/79/2
f 79/79/2 78/78/2 80/80/2
f 81/81/3 82/82/3 83/83/3
f 83/83/3 82/82/3 84/84/3
f 85/85/4 86/86/4 87/87/4
f 87/87/4 86/86/4 88/88/4
f 89/89/5 90/90/5 91/91/5
f 91/91/5 90/90/5 92/92/5
f 93/93/6 94/94/6 95/95/6
f 95/95/6 94/94/6 96/96/6
f 97/97/1 98/98/1 99/99/1
f 99/99/1 98/98/1 100/100/1
f 101/101/2 102/102/2 103/103/2
f 103/103/2 102/102/2 104/104/2
f 105/105/3 106/106/3 107/107/3
f 107/107/3 106/106/3 108/108/3
f 109/109/4 110/110/4 111/111/4
f 111/111/4 110/110/4 112/112/4
f 113/113/5 114/114/5 115/115/5
f 115/115/5 114/114/5 116/116/5
f 117/117/6 118/118/6 119/119/6
f 119/119/6 118/118/6 120/120/6
f 121/121/5 122/122/5 123/123/5
f 123/123/5 122/122/5 124/124/5
f 125/125/2 126/126/2 127/127/2
f 127/127/2 126/126/2 128/128/2
f 129/129/6 130/130/6 131/131/6
f 131/131/6 130/130/6 132/132/6
f 133/133/4 134/134/4 135/135/4
f 135/135/4 134/134/4 136/136/4
f 137/137/3 138/138/3 139/139/3
f 139/139/3 138/138/3 140/140/3
f 141/141/1 142/142/1 143/143/1
f 143/143/1 142/142/1 144/144/1
f 145/145/1 146/146/1 147/147/1
f 147/147/1 146/146/1 148/148/1
f 149/149/6 150/150/6 151/151/6
f 151/151/6 150/150/6 152/152/6
f 153/153/3 154/154/3 155/155/3
f 155/155/3 154/154/3 156/156/3
f 157/157/5 158/158/5 159/159/5
f 159/159/5 158/158/5 160/160/5
f 161/161/2 162/162/2 163/163/2
f 163/163/2 162/162/2 164/164/2
f 165/165/4 166/166/4 167/167/4
f 167/167/4 166/166/4 168/168/4
f 169/169/5 170/170/5 171/171/5
f 171/171/5 170/170/5 172/172/5
f 173/173/2 174/174/2 175/175/2
f 175/175/2 174/174/2 176/176/2
f 177/177/6 178/178/6 179/179/6
f 179/179/6 178/178/6 180/180/6
f 181/181/4 182/182/4 183/183/4
f 183/183/4 182/182/4 184/184/4
f 185/185/3 186/186/3 187/187/3
f 187/187/3 186/186/3 188/188/3
f 189/189/1 190/190/1 191/191/1
f 191/191/1 190/190/1 192/192/1
f 193/193/1 194/194/1 195/195/1
f 195/195/1 194/194/1 196/196/1
f 197/197/6 198/198/6 199/199/6
f 199/199/6 198/198/6 200/200/6
f 201/201/3 202/202/3 203/203/3
f 203/203/3 202/202/3 204/204/3
f 205/205/5 206/206/5 207/207/5
f 207/207/5 206/206/5 208/208/5
f 209/209/2 210/210/2 211/211/2
f 211/211/2 210/210/2 212/212/2
f 213/213/4 214/214/4 215/215/4
f 215/215/4 214/214/4 216/216/4
f 217/217/1 218/218/1 219/219/1
f 219/219/1 218/218/1 220/220/1
f 221/221/2 222/222/2 223/223/2
f 223/223/2 222/222/2 224/224/2
f 225/225/3 226/226/3 227/227/3
f 227/227/3 226/226/3 228/228/3
f 229/229/4 230/230/4 231/231/4
f 231/231/4 230/230/4 232/232/4
f 233/233/5 234/234/5 235/235/5
f 235/235/5 234/234/5 236/236/5
f 237/237/6 238/238/6 239/239/6
f 239/239/6 238/238/6 240/240/6
f 241/241/5 242/242/5 243/243/5
f 243/243/5 242/242/5 244/244/5
f 245/245/2 246/246/2 247/247/2
f 247/247/2 246/246/2 248/248/2
f 249/249/6 250/250/6 251/251/6
f 251/251/6 250/250/6 252/252/6
f 253/253/4 254/254/4 255/255/4
f 255/255/4 254/254/4 256/256/4
f 257/257/3 258/258/3 259/259/3
f 259/259/3 258/258/3 260/260/3
f 261/261/1 262/262/1 263/263/1
f 263/263/1 262/262/1 264/264/1
f 265/265/1 266/266/1 267/267/1
f 267/267/1 266/266/1 268/268/1
f 269/269/7 270/270/7 271/271/6
f 271/271/6 272/272/6 269/269/7
f 273/273/3 274/274/3 275/275/3
f 275/275/3 274/274/3 276/276/3
f 277/277/5 278/278/5 279/279/5
f 279/279/5 278/278/5 280/280/5
f 281/281/4 282/282/4 283/283/4
f 283/283/4 282/282/4 284/284/4
f 285/285/2 286/286/2 287/287/2
f 287/287/2 286/286/2 288/288/2
