# Blender v2.76 (sub 0) OBJ File: ''
# www.blender.org
mtllib Body.mtl
o body
v -0.139333 0.863208 -0.250000
v -0.128989 0.895209 -0.250000
v -0.141782 0.895209 -0.000000
v -0.138377 0.863208 0.250000
v -0.143234 0.863208 -0.000000
v -0.141782 0.799207 -0.000000
v -0.143234 0.831208 -0.000000
v -0.138377 0.831208 0.250000
v -0.128989 0.799207 -0.250000
v -0.139333 0.831208 -0.250000
v -0.128989 0.895209 0.250000
v -0.128989 0.799207 0.250000
v 0.131002 0.863208 -0.250000
v 0.132107 0.895209 -0.250000
v 0.143663 0.895209 0.000000
v 0.131958 0.863208 0.250000
v 0.151450 0.863208 0.000000
v 0.143664 0.799207 0.000000
v 0.151450 0.831208 0.000000
v 0.131958 0.831208 0.250000
v 0.132108 0.799207 -0.250000
v 0.131002 0.831208 -0.250000
v 0.132107 0.895209 0.250000
v 0.132108 0.799207 0.250000
v 0.130349 1.212500 -0.250000
v 0.125000 1.462500 -0.250000
v 0.132149 1.462500 -0.083333
v -0.125000 1.212500 0.250000
v -0.125000 1.462500 0.250000
v -0.138832 1.462500 0.083333
v -0.125000 1.462500 -0.250000
v -0.125000 0.712500 -0.250000
v 0.125000 0.712500 -0.250000
v 0.132149 0.712500 -0.083333
v 0.130349 1.212500 0.250000
v 0.125000 1.462500 0.250000
v -0.125000 1.212500 -0.250000
v -0.125000 0.712500 0.250000
v -0.138832 0.712500 0.083333
v 0.132149 0.712500 0.083333
v -0.138832 0.712500 -0.083333
v 0.132149 1.462500 0.083333
v -0.138832 1.462500 -0.083333
v -0.138832 1.212500 -0.083333
v -0.138832 1.212500 0.083333
v 0.137498 1.212500 0.083333
v 0.137498 1.212500 -0.083333
v 0.137498 0.962500 -0.083333
v 0.137498 0.962500 0.083333
v 0.130349 0.962500 0.250000
v -0.138832 0.962500 0.083333
v -0.138832 0.962500 -0.083333
v -0.125000 0.962500 -0.250000
v 0.130349 0.962500 -0.250000
v 0.125000 0.712500 0.250000
v -0.125000 0.962500 0.250000
vt 0.384793 0.336294
vt 0.381693 0.497465
vt 0.268201 0.496432
vt 0.934523 0.247416
vt 0.942790 0.357948
vt 0.871670 0.364665
vt 0.496079 0.375517
vt 0.437500 0.375000
vt 0.437500 0.500000
vt 0.562500 0.375000
vt 0.562500 0.500000
vt 0.520833 0.500000
vt 0.765699 0.258268
vt 0.910876 0.272736
vt 0.913976 0.396703
vt 0.899951 0.271186
vt 0.896850 0.401353
vt 0.763041 0.395153
vt 0.479167 0.375000
vt 0.479167 0.500000
vt 0.520833 0.375000
vt 0.554659 0.376033
vt 0.555692 0.512402
vt 0.614788 0.518602
vt 0.496596 0.506201
vt 0.806750 0.255684
vt 0.800549 0.371383
vt 0.729429 0.378100
vt 0.870636 0.251550
vt 0.048967 0.335261
vt 0.160909 0.335605
vt 0.154708 0.495399
vt 0.272851 0.335950
vt 0.282152 0.014985
vt 0.277502 0.175467
vt 0.167110 0.175812
vt 0.173310 0.016019
vt 0.056718 0.176156
vt 0.868569 0.025320
vt 0.869603 0.138435
vt 0.812951 0.139985
vt 0.819152 0.024286
vt 0.756299 0.141535
vt 0.742864 0.259818
vt 0.790945 0.004651
vt 0.906151 0.010851
vt 0.903051 0.141019
vt 0.781644 0.134818
vt 0.904675 0.024803
vt 0.907775 0.148770
vt 0.766732 0.147736
vt 0.917987 0.026353
vt 0.926255 0.136885
vt 0.390994 0.013952
vt 0.387894 0.175123
vt 0.764665 0.368799
vt 0.772342 0.264985
vt 0.613238 0.376550
vt 0.041216 0.494365
vt 0.064469 0.017052
vt 0.769734 0.023253
vt 0.767766 0.037205
vt 0.972404 0.784844
vt 0.960414 0.785551
vt 0.954387 0.561897
vt 0.973820 0.783617
vt 0.969694 0.562551
vt 1.000309 0.563859
vt 0.985002 0.563205
vt 0.986097 0.783191
vt 0.996385 0.783429
vt 0.984395 0.784136
vt 0.961544 0.784043
vt 0.998373 0.782765
vt 0.955617 0.614189
vt 0.970925 0.614843
vt 0.997233 0.616766
vt 0.986232 0.615496
vn 0.998900 0.021400 -0.042800
vn -0.996600 -0.000000 0.082700
vn 0.000000 1.000000 0.000000
vn 0.000000 -1.000000 0.000000
vn 0.000000 0.000000 1.000000
vn 0.000000 0.000000 -1.000000
vn -0.996600 -0.000000 -0.082700
vn -1.000000 -0.000000 -0.000000
vn 0.998900 0.021400 0.042800
vn 0.999800 0.021400 0.000000
vn 0.999800 -0.021400 0.000000
vn 1.000000 0.000000 0.000000
vn 0.998900 -0.021400 0.042800
vn 0.999100 0.000000 0.042900
vn 0.998900 -0.021400 -0.042800
vn 0.999100 0.000000 -0.042900
vn 0.998300 -0.034500 -0.046100
vn 0.968900 0.235800 0.075500
vn 0.968900 -0.235700 0.075500
vn 0.997000 0.000000 0.077700
vn 0.998300 0.034500 -0.046100
vn 0.996700 0.000000 -0.081500
vn 0.968600 0.235700 -0.079200
vn 0.998900 -0.004700 0.046200
vn 0.998900 0.004700 0.046200
vn 0.968600 -0.235700 -0.079200
vn 0.950400 -0.307200 0.048600
vn 0.998800 -0.045300 -0.019400
vn 0.998800 0.045300 -0.019400
vn 0.999800 0.000000 -0.019400
vn 0.950400 0.307200 0.048600
vn 0.999900 0.000000 0.015600
vn 0.998900 -0.045300 0.015600
vn 0.958400 -0.281200 -0.049000
vn 0.958400 0.281200 -0.049000
vn 0.998900 0.045300 0.015600
usemtl None_7.png
s 1
f 25/1/1 26/2/1 27/3/1
f 28/4/2 29/5/2 30/6/2
f 27/7/3 26/8/3 31/9/3
f 32/10/4 33/11/4 34/12/4
f 28/13/5 35/14/5 36/15/5
f 37/16/6 31/17/6 26/18/6
f 38/8/4 39/19/4 40/20/4
f 41/21/4 34/12/4 40/20/4
f 42/22/3 30/23/3 29/24/3
f 27/7/3 43/25/3 30/23/3
f 44/26/7 43/27/7 31/28/7
f 45/29/8 30/6/8 43/27/8
f 35/30/9 46/31/9 42/32/9
f 47/33/10 27/3/10 42/32/10
f 34/34/11 48/35/11 49/36/11
f 48/35/12 47/33/12 46/31/12
f 40/37/13 49/36/13 50/38/13
f 49/36/14 46/31/14 35/30/14
f 39/39/8 51/40/8 52/41/8
f 51/40/8 45/29/8 44/26/8
f 41/42/7 52/41/7 53/43/7
f 52/41/7 44/26/7 37/44/7
f 33/45/6 32/46/6 53/47/6
f 54/48/6 53/47/6 37/16/6
f 55/49/5 50/50/5 56/51/5
f 56/51/5 50/50/5 35/14/5
f 38/52/2 56/53/2 51/40/2
f 56/53/2 28/4/2 45/29/2
f 34/34/15 33/54/15 54/55/15
f 54/55/16 25/1/16 47/33/16
f 47/33/1 25/1/1 27/3/1
f 45/29/2 28/4/2 30/6/2
f 43/25/3 27/7/3 31/9/3
f 41/21/4 32/10/4 34/12/4
f 29/56/5 28/13/5 36/15/5
f 25/57/6 37/16/6 26/18/6
f 55/9/4 38/8/4 40/20/4
f 39/19/4 41/21/4 40/20/4
f 36/58/3 42/22/3 29/24/3
f 42/22/3 27/7/3 30/23/3
f 37/44/7 44/26/7 31/28/7
f 44/26/8 45/29/8 43/27/8
f 36/59/9 35/30/9 42/32/9
f 46/31/10 47/33/10 42/32/10
f 40/37/11 34/34/11 49/36/11
f 49/36/12 48/35/12 46/31/12
f 55/60/13 40/37/13 50/38/13
f 50/38/14 49/36/14 35/30/14
f 41/42/8 39/39/8 52/41/8
f 52/41/8 51/40/8 44/26/8
f 32/61/7 41/42/7 53/43/7
f 53/43/7 52/41/7 37/44/7
f 54/48/6 33/45/6 53/47/6
f 25/57/6 54/48/6 37/16/6
f 38/62/5 55/49/5 56/51/5
f 28/13/5 56/51/5 35/14/5
f 39/39/2 38/52/2 51/40/2
f 51/40/2 56/53/2 45/29/2
f 48/35/15 34/34/15 54/55/15
f 48/35/16 54/55/16 47/33/16
usemtl None_7.png.001
f 13/63/17 14/64/17 15/65/17
f 16/66/18 17/67/18 15/65/18
f 18/68/19 19/69/19 20/70/19
f 19/69/20 17/67/20 16/66/20
f 18/68/21 21/71/21 22/72/21
f 22/72/22 13/63/22 17/67/22
f 17/67/23 13/63/23 15/65/23
f 23/73/24 16/66/24 15/65/24
f 24/74/25 18/68/25 20/70/25
f 20/70/20 19/69/20 16/66/20
f 19/69/26 18/68/26 22/72/26
f 19/69/22 22/72/22 17/67/22
usemtl None.001
f 1/63/27 2/64/27 3/75/27
f 4/66/28 5/76/28 3/75/28
f 6/77/29 7/78/29 8/70/29
f 7/78/30 5/76/30 4/66/30
f 6/77/31 9/71/31 10/72/31
f 10/72/32 1/63/32 5/76/32
f 5/76/33 1/63/33 3/75/33
f 11/73/34 4/66/34 3/75/34
f 12/74/35 6/77/35 8/70/35
f 8/70/30 7/78/30 4/66/30
f 7/78/36 6/77/36 10/72/36
f 7/78/32 10/72/32 5/76/32
