# Blender v2.76 (sub 0) OBJ File: ''
# www.blender.org
mtllib RightArm.mtl
o rightarm
v 0.140059 0.850539 0.372025
v 0.125000 0.850539 0.247025
v 0.125000 1.462500 0.247025
v -0.125000 0.850539 0.497025
v -0.125000 1.462500 0.497025
v -0.149422 1.462500 0.372025
v -0.000000 1.488470 0.372025
v -0.000000 1.462500 0.247025
v -0.125000 1.462500 0.247025
v -0.000000 0.850539 0.372025
v -0.000000 0.850539 0.247025
v -0.000000 0.850539 0.515484
v 0.125000 0.850539 0.497025
v 0.125000 1.462500 0.497025
v -0.125000 0.850539 0.247025
v -0.000000 1.462500 0.515484
v 0.140059 1.462500 0.372025
v -0.149422 0.850539 0.372025
vt 0.831914 0.006976
vt 0.773253 0.009301
vt 0.750000 0.375000
vt 0.777338 0.012402
vt 0.752535 0.375000
vt 0.819722 0.376550
vt 0.822613 0.314647
vt 0.757751 0.318910
vt 0.765502 0.262820
vt 0.787451 0.317747
vt 0.816375 0.317360
vt 0.820251 0.259720
vt 0.834523 0.008526
vt 0.890576 0.004651
vt 0.889026 0.376550
vt 0.899311 0.003100
vt 0.886909 0.378100
vt 0.818455 0.376550
vt 0.836282 0.006201
vt 0.820571 0.376550
vt 0.752116 0.376550
vt 0.812500 0.375000
vt 0.819513 0.375775
vt 0.781250 0.375000
vt 0.793652 0.260495
vt 0.767052 0.261270
vt 0.825714 0.253519
vt 0.885925 0.244218
vt 0.838324 0.007751
vt 0.778469 0.012402
vt 0.887475 0.310384
vt 0.758526 0.318135
vn 0.992800 0.000000 -0.119600
vn -0.981400 -0.000000 0.191800
vn 0.000000 0.979100 -0.203400
vn 0.000000 -1.000000 -0.000000
vn 0.146100 0.000000 0.989300
vn 0.000000 0.000000 -1.000000
vn -0.146100 -0.000000 0.989300
vn 0.182300 0.983000 0.022000
vn -0.171100 0.984700 0.033400
vn -0.981400 -0.000000 -0.191800
vn 0.992800 0.000000 0.119600
vn -0.171100 0.984700 -0.033400
vn 0.182300 0.983000 -0.022000
vn 0.026300 0.983700 0.178100
vn -0.026300 0.983700 0.178100
usemtl None.005
s 1
f 1/1/1 2/2/1 3/3/1
f 4/4/2 5/5/2 6/6/2
f 7/7/3 8/8/3 9/9/3
f 10/10/4 11/11/4 2/12/4
f 12/13/5 13/14/5 14/15/5
f 15/16/6 9/17/6 8/18/6
f 11/19/6 8/18/6 3/3/6
f 12/13/7 16/20/7 5/21/7
f 15/22/4 11/11/4 10/10/4
f 3/3/3 8/8/3 7/7/3
f 14/15/8 17/23/8 7/7/8
f 4/3/4 18/24/4 10/10/4
f 10/10/4 1/25/4 13/26/4
f 7/7/9 6/27/9 5/28/9
f 18/29/10 6/6/10 9/17/10
f 1/1/11 17/23/11 14/15/11
f 17/23/1 1/1/1 3/3/1
f 18/29/2 4/4/2 6/6/2
f 6/27/12 7/7/12 9/9/12
f 1/25/4 10/10/4 2/12/4
f 16/20/5 12/13/5 14/15/5
f 11/19/6 15/16/6 8/18/6
f 2/2/6 11/19/6 3/3/6
f 4/30/7 12/13/7 5/21/7
f 18/24/4 15/22/4 10/10/4
f 17/23/13 3/3/13 7/7/13
f 16/31/14 14/15/14 7/7/14
f 12/32/4 4/3/4 10/10/4
f 12/32/4 10/10/4 13/26/4
f 16/31/15 7/7/15 5/28/15
f 15/16/10 18/29/10 9/17/10
f 13/14/11 1/1/11 14/15/11
