# Blender v2.76 (sub 0) OBJ File: ''
# www.blender.org
mtllib LeftLeg.mtl
o rightleg001
v 0.125000 0.562500 -0.244053
v 0.125000 0.712500 -0.244053
v 0.125000 0.712500 -0.181553
v -0.125000 0.562500 0.005947
v -0.125000 0.712500 0.005947
v -0.125000 0.712500 -0.056553
v -0.125000 0.712500 -0.244053
v -0.125000 0.712500 -0.181553
v -0.125000 -0.037500 -0.244053
v 0.214865 -0.037500 -0.244053
v 0.214865 -0.037500 -0.181553
v 0.125000 0.562500 0.005947
v 0.125000 0.712500 0.005947
v -0.125000 0.562500 -0.244053
v -0.125000 0.062500 -0.244053
v -0.125000 0.112500 -0.247319
v 0.125000 0.112500 -0.247319
v -0.125000 0.262500 -0.244053
v 0.125000 0.262500 -0.244053
v -0.125000 0.412500 -0.244053
v 0.125000 0.412500 -0.244053
v -0.125000 0.062500 0.005947
v 0.214865 0.062500 0.005947
v 0.125000 0.112500 0.005947
v 0.125000 0.262500 0.005947
v -0.125000 0.262500 0.005947
v 0.125000 0.412500 0.005947
v -0.125000 0.412500 0.005947
v -0.125000 0.112500 0.005947
v -0.125000 0.112500 -0.056553
v -0.125000 0.262500 -0.056553
v -0.125000 0.412500 -0.056553
v -0.125000 0.562500 -0.056553
v 0.214865 0.062500 -0.244053
v 0.125000 0.112500 -0.181553
v 0.125000 0.412500 -0.181553
v 0.125000 0.562500 -0.181553
v 0.125000 0.412500 -0.056553
v 0.125000 0.562500 -0.056553
v 0.125000 0.412500 -0.119053
v 0.125000 0.562500 -0.119053
v 0.125000 0.262500 -0.056553
v 0.125000 0.262500 -0.119053
v 0.125000 0.262500 -0.181553
v 0.125000 0.112500 -0.056553
v 0.125000 0.112500 -0.119053
v 0.214865 0.062500 -0.056553
v 0.214865 0.062500 -0.119053
v 0.214865 0.062500 -0.181553
v -0.125000 0.412500 -0.181553
v -0.125000 0.562500 -0.181553
v -0.125000 0.412500 -0.119053
v -0.125000 0.562500 -0.119053
v -0.125000 0.262500 -0.181553
v -0.125000 0.262500 -0.119053
v -0.125000 0.112500 -0.181553
v -0.125000 0.112500 -0.119053
v -0.125000 0.062500 -0.181553
v -0.125000 0.062500 -0.119053
v -0.125000 0.062500 -0.056553
v -0.125000 -0.037500 -0.056553
v 0.214865 -0.037500 -0.056553
v 0.214865 -0.037500 0.005947
v -0.125000 -0.037500 -0.119053
v 0.214865 -0.037500 -0.119053
v -0.125000 -0.037500 -0.181553
v 0.125000 0.712500 -0.056553
v 0.125000 0.712500 -0.119053
v -0.125000 0.712500 -0.119053
v -0.125000 0.012500 -0.056553
v -0.125000 0.012500 -0.119053
v -0.125000 0.012500 -0.181553
v -0.125000 0.012500 -0.244053
v 0.214865 0.012500 -0.181553
v 0.214865 0.012500 -0.119053
v 0.214865 0.012500 -0.056553
v 0.214865 0.012500 0.005947
v 0.214865 0.012500 -0.244053
v -0.125000 -0.037500 0.005947
v -0.125000 0.012500 0.005947
vt 0.815541 0.715980
vt 0.814432 0.748365
vt 0.805792 0.746501
vt 0.922002 0.716127
vt 0.922103 0.748776
vt 0.907634 0.748901
vt 0.785384 0.603088
vt 0.848819 0.643393
vt 0.803703 0.590477
vt 0.857185 0.667421
vt 0.836134 0.685248
vt 0.716924 0.712509
vt 0.778451 0.710198
vt 0.779873 0.740910
vt 0.865360 0.716250
vt 0.864229 0.749276
vt 0.902550 0.504348
vt 0.900982 0.541001
vt 0.840352 0.543631
vt 0.868755 0.617173
vt 0.867623 0.650198
vt 0.817759 0.651211
vt 0.866492 0.683224
vt 0.816650 0.683596
vt 0.845758 0.468329
vt 0.903151 0.467534
vt 0.903625 0.477771
vt 0.774184 0.618064
vt 0.775606 0.648775
vt 0.716560 0.650177
vt 0.777029 0.679487
vt 0.716742 0.681343
vt 0.904613 0.469329
vt 0.904647 0.480212
vt 0.891411 0.479961
vt 0.921699 0.618180
vt 0.921800 0.650829
vt 0.908256 0.650671
vt 0.921901 0.683478
vt 0.908049 0.683415
vt 0.907841 0.716158
vt 0.933177 0.483240
vt 0.908780 0.519614
vt 0.917761 0.531049
vt 0.807697 0.618636
vt 0.818868 0.618826
vt 0.806745 0.682568
vt 0.806268 0.714535
vt 0.786934 0.680514
vt 0.787723 0.711644
vt 0.796839 0.681541
vt 0.796996 0.713089
vt 0.786144 0.649384
vt 0.796683 0.649993
vt 0.807221 0.650602
vt 0.785355 0.618254
vt 0.796526 0.618445
vt 0.950708 0.496947
vt 0.921186 0.530028
vt 0.908795 0.515189
vt 0.967706 0.514332
vt 0.937484 0.539496
vt 0.957241 0.493429
vt 0.924633 0.524396
vt 0.933036 0.534436
vt 0.880344 0.683288
vt 0.879521 0.716219
vt 0.894196 0.683351
vt 0.893681 0.716188
vt 0.881168 0.650356
vt 0.894712 0.650514
vt 0.881991 0.617424
vt 0.895227 0.617676
vt 0.908463 0.617928
vt 0.852080 0.468197
vt 0.865213 0.468480
vt 0.864939 0.479457
vt 0.878347 0.468763
vt 0.878175 0.479709
vt 0.891480 0.469046
vt 0.820386 0.627682
vt 0.794033 0.720903
vt 0.772982 0.738730
vt 0.787180 0.632333
vt 0.815083 0.703076
vt 0.859387 0.588927
vt 0.788513 0.742773
vt 0.820669 0.644943
vt 0.806594 0.645718
vt 0.797152 0.744637
vt 0.834744 0.644168
vt 0.878697 0.749151
vt 0.893166 0.749026
vt 0.891618 0.447217
vt 0.891549 0.458132
vt 0.878518 0.457817
vt 0.878690 0.446871
vt 0.865488 0.457503
vt 0.865762 0.446525
vt 0.852457 0.457188
vt 0.881808 0.446376
vt 0.881649 0.457032
vt 0.870056 0.457120
vt 0.881490 0.467687
vt 0.870108 0.467636
vt 0.870004 0.446604
vt 0.858463 0.457208
vt 0.858726 0.467585
vt 0.858200 0.446832
vt 0.846870 0.457296
vt 0.847344 0.467534
vt 0.893611 0.446149
vt 0.893242 0.456944
vt 0.892872 0.467739
vt 0.904546 0.447563
vt 0.904580 0.458446
vt 0.902203 0.447059
vt 0.902677 0.457296
vt 0.845698 0.457940
vt 0.840894 0.434488
vt 0.922178 0.438961
vt 0.927953 0.457967
vt 0.927643 0.457667
vt 0.902912 0.504016
vt 0.842314 0.505462
vt 0.717106 0.743676
vt 0.841806 0.504769
vt 0.845819 0.478718
vt 0.716378 0.619010
vt 0.957450 0.492490
vt 0.931758 0.487374
vt 0.971610 0.505177
vt 0.851703 0.479205
vt 0.853592 0.623031
vt 0.852834 0.446179
vt 0.846396 0.447059
vt 0.845637 0.447551
vt 0.842370 0.462509
vt 0.843260 0.462793
vn 1.000000 0.000000 0.000000
vn -1.000000 -0.000000 0.000000
vn 0.000000 1.000000 0.000000
vn 0.000000 -1.000000 0.000000
vn -0.000000 -0.000000 1.000000
vn 0.000000 0.000000 -1.000000
vn 0.000000 -0.065200 -0.997900
vn -0.000000 0.021800 -0.999800
vn 0.486200 0.873800 0.000000
usemtl None.004
s 1
f 1/1/1 2/2/1 3/3/1
f 4/4/2 5/5/2 6/6/2
f 2/2/3 7/7/3 8/8/3
f 9/9/4 10/10/4 11/11/4
f 4/12/5 12/13/5 13/14/5
f 14/15/6 7/16/6 2/2/6
f 15/17/7 16/18/7 17/19/7
f 16/20/8 18/21/8 19/22/8
f 18/21/6 20/23/6 21/24/6
f 20/23/6 14/15/6 1/1/6
f 22/25/5 23/26/5 24/27/5
f 24/28/5 25/29/5 26/30/5
f 25/29/5 27/31/5 28/32/5
f 27/31/5 12/13/5 4/12/5
f 22/33/2 29/34/2 30/35/2
f 29/36/2 26/37/2 31/38/2
f 26/37/2 28/39/2 32/40/2
f 28/39/2 4/4/2 33/41/2
f 34/42/9 17/43/9 35/44/9
f 35/45/1 17/46/1 19/22/1
f 19/22/1 21/24/1 36/47/1
f 21/24/1 1/1/1 37/48/1
f 38/49/1 39/50/1 12/13/1
f 40/51/1 41/52/1 39/50/1
f 36/47/1 37/48/1 41/52/1
f 42/53/1 38/49/1 27/31/1
f 43/54/1 40/51/1 38/49/1
f 44/55/1 36/47/1 40/51/1
f 45/56/1 42/53/1 25/29/1
f 46/57/1 43/54/1 42/53/1
f 35/45/1 44/55/1 43/54/1
f 47/58/9 45/59/9 24/60/9
f 48/61/9 46/62/9 45/59/9
f 49/63/9 35/64/9 46/65/9
f 50/66/2 51/67/2 14/15/2
f 52/68/2 53/69/2 51/67/2
f 32/40/2 33/41/2 53/69/2
f 54/70/2 50/66/2 20/23/2
f 55/71/2 52/68/2 50/66/2
f 31/38/2 32/40/2 52/68/2
f 56/72/2 54/70/2 18/21/2
f 57/73/2 55/71/2 54/70/2
f 30/74/2 31/38/2 55/71/2
f 15/75/2 58/76/2 56/77/2
f 59/78/2 57/79/2 56/77/2
f 60/80/2 30/35/2 57/79/2
f 61/81/4 62/82/4 63/83/4
f 64/84/4 65/85/4 62/82/4
f 66/86/4 11/11/4 65/85/4
f 67/87/3 6/88/3 5/89/3
f 68/90/3 69/91/3 6/88/3
f 3/3/3 8/8/3 69/91/3
f 51/67/2 8/92/2 7/16/2
f 53/69/2 69/93/2 8/92/2
f 33/41/2 6/6/2 69/93/2
f 39/50/1 67/87/1 13/14/1
f 41/52/1 68/90/1 67/87/1
f 37/48/1 3/3/1 68/90/1
f 61/94/2 70/95/2 71/96/2
f 70/95/2 60/80/2 59/78/2
f 64/97/2 71/96/2 72/98/2
f 71/96/2 59/78/2 58/76/2
f 66/99/2 72/98/2 73/100/2
f 72/98/2 58/76/2 15/75/2
f 11/101/1 74/102/1 75/103/1
f 74/102/1 49/104/1 48/105/1
f 65/106/1 75/103/1 76/107/1
f 75/103/1 48/105/1 47/108/1
f 62/109/1 76/107/1 77/110/1
f 76/107/1 47/108/1 23/111/1
f 10/112/1 78/113/1 74/102/1
f 78/113/1 34/114/1 49/104/1
f 79/115/2 80/116/2 70/95/2
f 80/116/2 22/33/2 60/80/2
f 63/117/5 77/118/5 80/119/5
f 80/119/5 77/118/5 23/26/5
f 10/120/6 9/121/6 73/122/6
f 73/123/6 15/124/6 34/125/6
f 37/48/1 1/1/1 3/3/1
f 33/41/2 4/4/2 6/6/2
f 3/3/3 2/2/3 8/8/3
f 66/86/4 9/9/4 11/11/4
f 5/126/5 4/12/5 13/14/5
f 1/1/6 14/15/6 2/2/6
f 34/127/7 15/17/7 17/19/7
f 17/46/8 16/20/8 19/22/8
f 19/22/6 18/21/6 21/24/6
f 21/24/6 20/23/6 1/1/6
f 29/128/5 22/25/5 24/27/5
f 29/129/5 24/28/5 26/30/5
f 26/30/5 25/29/5 28/32/5
f 28/32/5 27/31/5 4/12/5
f 60/80/2 22/33/2 30/35/2
f 30/74/2 29/36/2 31/38/2
f 31/38/2 26/37/2 32/40/2
f 32/40/2 28/39/2 33/41/2
f 49/130/9 34/42/9 35/44/9
f 44/55/1 35/45/1 19/22/1
f 44/55/1 19/22/1 36/47/1
f 36/47/1 21/24/1 37/48/1
f 27/31/1 38/49/1 12/13/1
f 38/49/1 40/51/1 39/50/1
f 40/51/1 36/47/1 41/52/1
f 25/29/1 42/53/1 27/31/1
f 42/53/1 43/54/1 38/49/1
f 43/54/1 44/55/1 40/51/1
f 24/28/1 45/56/1 25/29/1
f 45/56/1 46/57/1 42/53/1
f 46/57/1 35/45/1 43/54/1
f 23/131/9 47/58/9 24/60/9
f 47/58/9 48/61/9 45/59/9
f 48/132/9 49/63/9 46/65/9
f 20/23/2 50/66/2 14/15/2
f 50/66/2 52/68/2 51/67/2
f 52/68/2 32/40/2 53/69/2
f 18/21/2 54/70/2 20/23/2
f 54/70/2 55/71/2 50/66/2
f 55/71/2 31/38/2 52/68/2
f 16/20/2 56/72/2 18/21/2
f 56/72/2 57/73/2 54/70/2
f 57/73/2 30/74/2 55/71/2
f 16/133/2 15/75/2 56/77/2
f 58/76/2 59/78/2 56/77/2
f 59/78/2 60/80/2 57/79/2
f 79/134/4 61/81/4 63/83/4
f 61/81/4 64/84/4 62/82/4
f 64/84/4 66/86/4 65/85/4
f 13/14/3 67/87/3 5/89/3
f 67/87/3 68/90/3 6/88/3
f 68/90/3 3/3/3 69/91/3
f 14/15/2 51/67/2 7/16/2
f 51/67/2 53/69/2 8/92/2
f 53/69/2 33/41/2 69/93/2
f 12/13/1 39/50/1 13/14/1
f 39/50/1 41/52/1 67/87/1
f 41/52/1 37/48/1 68/90/1
f 64/97/2 61/94/2 71/96/2
f 71/96/2 70/95/2 59/78/2
f 66/99/2 64/97/2 72/98/2
f 72/98/2 71/96/2 58/76/2
f 9/135/2 66/99/2 73/100/2
f 73/100/2 72/98/2 15/75/2
f 65/106/1 11/101/1 75/103/1
f 75/103/1 74/102/1 48/105/1
f 62/109/1 65/106/1 76/107/1
f 76/107/1 75/103/1 47/108/1
f 63/136/1 62/109/1 77/110/1
f 77/110/1 76/107/1 23/111/1
f 11/101/1 10/112/1 74/102/1
f 74/102/1 78/113/1 49/104/1
f 61/94/2 79/115/2 70/95/2
f 70/95/2 80/116/2 60/80/2
f 79/137/5 63/117/5 80/119/5
f 22/25/5 80/119/5 23/26/5
f 78/138/6 10/120/6 73/122/6
f 78/139/6 73/123/6 34/125/6
