# Blender v2.76 (sub 0) OBJ File: ''
# www.blender.org
mtllib LeftArm.mtl
o rightarm001
v 0.125000 0.825016 -0.498509
v 0.125000 1.462500 -0.498509
v 0.132539 1.462500 -0.373509
v -0.125000 0.825016 -0.248509
v -0.125000 1.462500 -0.248509
v -0.143434 1.462500 -0.373509
v -0.000000 1.475919 -0.373509
v -0.000000 1.462500 -0.513004
v -0.125000 1.462500 -0.498509
v -0.000000 0.825016 -0.373509
v -0.000000 0.825016 -0.513004
v 0.125000 0.825016 -0.248509
v 0.125000 1.462500 -0.248509
v -0.000000 1.462500 -0.248509
v -0.125000 0.825016 -0.498509
v 0.132539 0.825016 -0.373509
v -0.143434 0.825016 -0.373509
v -0.000000 0.825016 -0.248509
vt 0.773253 0.009301
vt 0.750000 0.375000
vt 0.819513 0.375775
vt 0.777338 0.012402
vt 0.752535 0.375000
vt 0.819722 0.376550
vt 0.822613 0.314647
vt 0.757751 0.318910
vt 0.765502 0.262820
vt 0.787451 0.317747
vt 0.816375 0.317360
vt 0.820251 0.259720
vt 0.890576 0.004651
vt 0.889026 0.376550
vt 0.820571 0.376550
vt 0.899311 0.003100
vt 0.886909 0.378100
vt 0.818455 0.376550
vt 0.793652 0.260495
vt 0.767052 0.261270
vt 0.825714 0.253519
vt 0.885925 0.244218
vt 0.838324 0.007751
vt 0.831914 0.006976
vt 0.781250 0.375000
vt 0.836282 0.006201
vt 0.834523 0.008526
vt 0.752116 0.376550
vt 0.812500 0.375000
vt 0.758526 0.318135
vt 0.887475 0.310384
vt 0.778469 0.012402
vn 0.998200 0.000000 -0.060200
vn -0.989300 -0.000000 0.145900
vn -0.011100 0.995300 -0.095700
vn 0.000000 -1.000000 -0.000000
vn 0.000000 0.000000 1.000000
vn -0.115200 -0.000000 -0.993300
vn -0.093100 0.995600 0.013700
vn -0.989300 -0.000000 -0.145900
vn 0.998200 0.000000 0.060200
vn 0.100700 0.994900 0.006100
vn 0.115200 0.000000 -0.993300
vn 0.011100 0.995300 -0.095700
vn -0.093100 0.995600 -0.013700
vn 0.000000 0.994300 0.106700
vn 0.100700 0.994900 -0.006100
usemtl None.003
s 1
f 1/1/1 2/2/1 3/3/1
f 4/4/2 5/5/2 6/6/2
f 7/7/3 8/8/3 9/9/3
f 10/10/4 11/11/4 1/12/4
f 12/13/5 13/14/5 14/15/5
f 15/16/6 9/17/6 8/18/6
f 10/10/4 16/19/4 12/20/4
f 7/7/7 6/21/7 5/22/7
f 17/23/8 6/6/8 9/17/8
f 16/24/9 3/3/9 13/14/9
f 13/14/10 3/3/10 7/7/10
f 4/2/4 17/25/4 10/10/4
f 1/1/11 11/26/11 8/18/11
f 18/27/5 14/15/5 5/28/5
f 15/29/4 11/11/4 10/10/4
f 2/2/12 8/8/12 7/7/12
f 16/24/1 1/1/1 3/3/1
f 17/23/2 4/4/2 6/6/2
f 6/21/13 7/7/13 9/9/13
f 16/19/4 10/10/4 1/12/4
f 18/27/5 12/13/5 14/15/5
f 11/26/6 15/16/6 8/18/6
f 18/30/4 10/10/4 12/20/4
f 14/31/14 7/7/14 5/22/14
f 15/16/8 17/23/8 9/17/8
f 12/13/9 16/24/9 13/14/9
f 14/31/14 13/14/14 7/7/14
f 18/30/4 4/2/4 10/10/4
f 2/2/11 1/1/11 8/18/11
f 4/32/5 18/27/5 5/28/5
f 17/25/4 15/29/4 10/10/4
f 3/3/15 2/2/15 7/7/15
