# ..:::Stalker models:::..
# WebSite: http://excalibur-craft.ru
mtllib garage_items_zaz_10.mtl
o 1.007
v -0.306590 0.069712 -0.289709
v -0.223100 0.069712 -0.289709
v -0.306590 0.000952 -0.289709
v -0.223100 0.000952 -0.289709
v -0.306590 0.069712 0.276971
v -0.306590 0.069712 -0.289709
v -0.306590 0.000952 0.276971
v -0.306590 0.000952 -0.289709
v -0.223100 0.069712 0.276971
v -0.306590 0.069712 0.276971
v -0.223100 0.000952 0.276971
v -0.306590 0.000952 0.276971
v -0.223100 0.069712 -0.289709
v -0.223100 0.069712 0.276971
v -0.223100 0.000952 -0.289709
v -0.223100 0.000952 0.276971
v 0.204460 0.069712 -0.289709
v 0.287950 0.069712 -0.289709
v 0.204460 0.000952 -0.289709
v 0.287950 0.000952 -0.289709
v 0.204460 0.069712 0.276971
v 0.204460 0.069712 -0.289709
v 0.204460 0.000952 0.276971
v 0.204460 0.000952 -0.289709
v 0.287950 0.069712 0.276971
v 0.204460 0.069712 0.276971
v 0.287950 0.000952 0.276971
v 0.204460 0.000952 0.276971
v 0.287950 0.069712 -0.289709
v 0.287950 0.069712 0.276971
v 0.287950 0.000952 -0.289709
v 0.287950 0.000952 0.276971
vt 0.6065 0.9931
vt 0.5489 0.9931
vt 0.6065 0.9381
vt 0.5489 0.9381
vt 0.9925 0.9706
vt 0.6342 0.9706
vt 0.9925 0.9253
vt 0.6342 0.9253
vt 0.6065 0.9931
vt 0.5489 0.9931
vt 0.6065 0.9381
vt 0.5489 0.9381
vt 0.9925 0.9706
vt 0.6342 0.9706
vt 0.9925 0.9253
vt 0.6342 0.9253
vt 0.6065 0.9931
vt 0.5489 0.9931
vt 0.6065 0.9381
vt 0.5489 0.9381
vt 0.9925 0.9706
vt 0.6342 0.9706
vt 0.9925 0.9253
vt 0.6342 0.9253
vt 0.6065 0.9931
vt 0.5489 0.9931
vt 0.6065 0.9381
vt 0.5489 0.9381
vt 0.9925 0.9706
vt 0.6342 0.9706
vt 0.9925 0.9253
vt 0.6342 0.9253
vn 0.0000 0.0000 -1.0000
vn -1.0000 0.0000 0.0000
vn 0.0000 0.0000 1.0000
vn 1.0000 0.0000 0.0000
usemtl veh_zaz_gorb.007
s 1
f 1/1/1 2/2/1 3/3/1
f 3/3/1 2/2/1 4/4/1
f 5/5/2 6/6/2 7/7/2
f 7/7/2 6/6/2 8/8/2
f 9/9/3 10/10/3 11/11/3
f 11/11/3 10/10/3 12/12/3
f 13/13/4 14/14/4 15/15/4
f 15/15/4 14/14/4 16/16/4
f 17/17/1 18/18/1 19/19/1
f 19/19/1 18/18/1 20/20/1
f 21/21/2 22/22/2 23/23/2
f 23/23/2 22/22/2 24/24/2
f 25/25/3 26/26/3 27/27/3
f 27/27/3 26/26/3 28/28/3
f 29/29/4 30/30/4 31/31/4
f 31/31/4 30/30/4 32/32/4
o 0.008
v 0.329080 0.231062 0.229971
v 0.329080 0.051512 0.305391
v 0.329080 0.148062 0.224631
v -0.165020 0.231202 0.212181
v -0.165020 0.598452 0.287871
v -0.000320 0.229292 0.223561
v -0.000320 0.596282 0.300801
v -0.000320 0.706352 0.433811
v -0.000320 0.575342 0.425731
v 0.164380 0.690522 0.432191
v 0.164380 0.576412 0.419351
v -0.312140 0.659092 0.420261
v -0.286010 0.689842 0.412381
v -0.312140 0.679702 0.306111
v -0.286010 0.707672 0.306001
v -0.286010 0.707672 0.306001
v -0.286010 0.689842 0.412381
v -0.165020 0.738572 0.321111
v -0.165020 0.722352 0.417831
v 0.313650 0.659092 0.420261
v 0.313650 0.679702 0.306111
v 0.291750 0.689842 0.412381
v 0.291750 0.707672 0.306001
v -0.165020 0.715442 0.294101
v -0.165020 0.738572 0.321111
v -0.000320 0.729462 0.306561
v -0.000320 0.753182 0.330011
v -0.000320 0.157492 0.225461
v 0.164380 0.176712 0.212111
v 0.164380 0.231202 0.212181
v 0.164380 0.598452 0.287871
v 0.305530 0.234522 0.209291
v 0.305470 0.602842 0.261671
v -0.306180 0.234522 0.216211
v -0.306050 0.602842 0.261681
v 0.164380 0.738572 0.321111
v 0.291750 0.707672 0.306001
v 0.164380 0.715442 0.294101
v 0.288460 0.689272 0.284491
v -0.286010 0.707672 0.306001
v -0.286650 0.689412 0.284541
v -0.164380 0.162412 0.226211
v -0.305310 0.162412 0.226211
v 0.305460 0.178222 0.198951
v -0.165020 0.690522 0.432191
v -0.312140 0.659092 0.420261
v -0.165020 0.576412 0.419351
v -0.329720 0.578212 0.408581
v 0.164380 0.722352 0.417831
v -0.000320 0.738022 0.420461
v -0.286010 0.689842 0.412381
v -0.165020 0.722352 0.417831
v 0.313650 0.659092 0.420261
v 0.291750 0.689842 0.412381
v 0.329080 0.580662 0.394001
v -0.329720 0.578212 0.408581
v -0.329720 0.599632 0.280831
v -0.329720 0.231062 0.236881
v -0.329720 0.051512 0.305391
v 0.329080 0.580662 0.394001
v 0.329080 0.599632 0.280841
v 0.329080 0.051512 0.305391
v 0.164380 0.722352 0.417831
v 0.291750 0.689842 0.412381
v 0.164380 0.738572 0.321111
v 0.291750 0.707672 0.306001
v -0.000320 0.738022 0.420461
v -0.000320 0.753182 0.330011
v -0.329720 0.152522 0.224011
v -0.305310 0.162412 0.226211
v -0.306180 0.234522 0.216211
v -0.306050 0.602842 0.261681
v -0.286650 0.689412 0.284541
v 0.305470 0.602842 0.261671
v 0.288460 0.689272 0.284491
v 0.305530 0.234522 0.209291
v 0.165020 0.195502 0.068381
v 0.165020 0.205842 -0.227999
v 0.000320 0.184032 0.067101
v 0.000320 0.192812 -0.229449
v 0.286010 0.218292 -0.338019
v 0.286010 0.076612 -0.342469
v 0.165020 0.212212 -0.371869
v 0.165020 0.080272 -0.375229
v 0.165020 0.231852 -0.342229
v 0.165020 0.212212 -0.371869
v 0.000320 0.223712 -0.359119
v 0.000320 0.207642 -0.388359
v -0.164380 0.195502 0.068381
v -0.164380 0.162412 0.226211
v -0.000320 0.157492 0.225461
v -0.164380 0.205842 -0.227999
v -0.305470 0.232242 -0.225049
v -0.305530 0.201742 0.070611
v 0.306060 0.232232 -0.225059
v 0.306180 0.201742 0.070611
v -0.164380 0.212212 -0.371869
v -0.291750 0.218292 -0.338019
v -0.164380 0.231852 -0.342229
v -0.288460 0.233942 -0.314429
v 0.286010 0.218292 -0.338019
v 0.286650 0.233932 -0.314579
v 0.164380 0.176712 0.212111
v 0.305460 0.178222 0.198951
v -0.305310 0.162412 0.226211
v 0.329720 0.072102 -0.241569
v 0.329720 0.212932 -0.227209
v 0.329720 0.180912 0.068281
v 0.329080 0.148062 0.224631
v -0.164380 0.080272 -0.375229
v -0.291750 0.076612 -0.342469
v -0.164380 0.212212 -0.371869
v -0.291750 0.218292 -0.338019
v 0.000320 0.082032 -0.391019
v 0.000320 0.207642 -0.388359
v 0.306180 0.201742 0.070611
v 0.305460 0.178222 0.198951
v 0.306060 0.232232 -0.225059
v 0.286650 0.233932 -0.314579
v 0.312140 0.210532 -0.311139
v -0.329080 0.212922 -0.227209
v -0.305470 0.232242 -0.225049
v -0.313650 0.210522 -0.311139
v -0.288460 0.233942 -0.314429
v -0.305530 0.201742 0.070611
v -0.329080 0.180912 0.068281
v -0.329720 0.152522 0.224011
v -0.305310 0.162412 0.226211
v 0.305460 0.178222 0.198951
v -0.329720 0.051512 0.305391
v 0.286010 0.076612 -0.342469
v 0.286010 0.218292 -0.338019
v -0.291750 0.218292 -0.338019
v -0.291750 0.076612 -0.342469
v -0.329080 0.064422 -0.232419
v -0.291750 0.076612 -0.342469
v -0.164380 0.080272 -0.375229
v -0.329080 0.064422 -0.232419
v 0.165020 0.080272 -0.375229
v 0.286010 0.076612 -0.342469
v 0.329720 0.072102 -0.241569
v -0.329720 0.051512 0.305391
v 0.329080 0.051512 0.305391
v 0.000320 0.082032 -0.391019
v 0.329080 0.051512 0.305391
vt 0.8829 0.1741
vt 0.8538 0.1430
vt 0.8683 0.1677
vt 0.8731 0.1382
vt 0.9455 0.1382
vt 0.8731 0.0922
vt 0.9455 0.0922
vt 0.9801 0.0921
vt 0.9475 0.0921
vt 0.9774 0.1383
vt 0.9475 0.1383
vt 0.9736 0.1434
vt 0.9784 0.1461
vt 0.9718 0.1725
vt 0.9779 0.1766
vt 0.9755 0.0133
vt 0.9476 0.0133
vt 0.9918 0.0530
vt 0.9639 0.0530
vt 0.9734 0.1437
vt 0.9719 0.1726
vt 0.9785 0.1468
vt 0.9778 0.1763
vt 0.9744 0.1382
vt 0.9893 0.1382
vt 0.9778 0.0922
vt 0.9962 0.0922
vt 0.8623 0.0922
vt 0.8649 0.0462
vt 0.8731 0.0462
vt 0.9455 0.0462
vt 0.8731 0.0085
vt 0.9455 0.0085
vt 0.8731 0.1776
vt 0.9455 0.1776
vt 0.9901 0.0462
vt 0.9651 0.0022
vt 0.9737 0.0462
vt 0.9632 0.0097
vt 0.9681 0.1842
vt 0.9641 0.1762
vt 0.8663 0.1382
vt 0.8681 0.1776
vt 0.8648 0.0085
vt 0.9761 0.0459
vt 0.9571 0.0024
vt 0.9475 0.0459
vt 0.9475 0.0024
vt 0.9918 0.1383
vt 0.9945 0.0921
vt 0.9682 0.0024
vt 0.9911 0.0459
vt 0.9578 0.1838
vt 0.9695 0.1838
vt 0.9475 0.1838
vt 0.9572 0.1408
vt 0.9550 0.1733
vt 0.8828 0.1738
vt 0.8536 0.1435
vt 0.9572 0.1404
vt 0.9552 0.1736
vt 0.8525 0.1611
vt 0.9639 0.1325
vt 0.9476 0.1722
vt 0.9918 0.1325
vt 0.9755 0.1722
vt 0.9658 0.0927
vt 0.9936 0.0927
vt 0.8687 0.1676
vt 0.8771 0.1791
vt 0.8833 0.1816
vt 0.9555 0.1807
vt 0.9735 0.1810
vt 0.9556 0.1811
vt 0.9734 0.1811
vt 0.8833 0.1820
vt 0.8731 0.1382
vt 0.9455 0.1382
vt 0.8731 0.0922
vt 0.9455 0.0922
vt 0.9755 0.0133
vt 0.9476 0.0133
vt 0.9918 0.0530
vt 0.9639 0.0530
vt 0.9744 0.1382
vt 0.9893 0.1382
vt 0.9778 0.0922
vt 0.9962 0.0922
vt 0.8731 0.0462
vt 0.8484 0.0462
vt 0.8484 0.0922
vt 0.9455 0.0462
vt 0.9455 0.0085
vt 0.8731 0.0085
vt 0.9455 0.1776
vt 0.8731 0.1776
vt 0.9901 0.0462
vt 0.9651 0.0022
vt 0.9737 0.0462
vt 0.9632 0.0097
vt 0.9681 0.1842
vt 0.9641 0.1762
vt 0.8484 0.1382
vt 0.8484 0.1775
vt 0.8484 0.0086
vt 0.9572 0.1408
vt 0.9550 0.1733
vt 0.8828 0.1738
vt 0.8526 0.1605
vt 0.9639 0.1325
vt 0.9476 0.1722
vt 0.9918 0.1325
vt 0.9755 0.1722
vt 0.9658 0.0927
vt 0.9936 0.0927
vt 0.8833 0.1816
vt 0.8530 0.1694
vt 0.9555 0.1807
vt 0.9735 0.1810
vt 0.9718 0.1725
vt 0.9552 0.1736
vt 0.9556 0.1811
vt 0.9719 0.1726
vt 0.9734 0.1811
vt 0.8833 0.1820
vt 0.8829 0.1742
vt 0.8525 0.1611
vt 0.8528 0.1699
vt 0.8731 0.1780
vt 0.8491 0.0024
vt 0.9784 0.1461
vt 0.9779 0.1766
vt 0.9778 0.1763
vt 0.9734 0.1437
vt 0.9475 0.1838
vt 0.9578 0.1838
vt 0.9774 0.1383
vt 0.9572 0.1404
vt 0.9911 0.0459
vt 0.9682 0.0024
vt 0.9475 0.0024
vt 0.8491 0.1838
vt 0.8491 0.1838
vt 0.9945 0.0921
vt 0.8491 0.0024
vn 0.9217 0.0504 -0.3847
vn 1.0000 0.0003 0.0015
vn 0.9691 0.2037 -0.1389
vn 0.0164 -0.0271 -0.9995
vn 0.0921 0.1503 -0.9844
vn -0.0110 0.0713 -0.9974
vn 0.0000 0.1011 -0.9949
vn -0.0000 0.2521 0.9677
vn 0.0000 -0.1391 0.9903
vn 0.0751 0.1507 0.9857
vn 0.0886 -0.1753 0.9805
vn -0.8898 0.4491 0.0811
vn -0.5182 0.8431 0.1435
vn -0.8445 0.4772 -0.2430
vn -0.4176 0.8431 -0.3388
vn -0.1437 0.9482 -0.2832
vn -0.1521 0.9748 0.1635
vn 0.9140 0.3992 0.0721
vn 0.8655 0.4300 -0.2569
vn 0.5496 0.8236 0.1401
vn 0.4378 0.8226 -0.3629
vn -0.0040 0.4411 -0.8974
vn 0.0000 0.5381 -0.8429
vn 0.0000 0.9899 -0.1417
vn -0.0415 -0.0264 -0.9988
vn -0.0799 -0.0079 -0.9968
vn -0.0564 0.1179 -0.9914
vn -0.0988 0.1534 -0.9832
vn 0.3133 0.1566 -0.9366
vn 0.3492 0.2481 -0.9036
vn -0.3286 0.0463 -0.9433
vn -0.3475 0.2472 -0.9045
vn 0.1380 0.9491 -0.2830
vn 0.0022 0.4386 -0.8987
vn 0.2731 0.4185 -0.8662
vn -0.2693 0.4441 -0.8546
vn 0.0200 -0.1423 -0.9896
vn -0.1731 -0.0763 -0.9819
vn 0.4929 0.7001 -0.5167
vn -0.0776 0.1547 0.9849
vn -0.0944 0.0428 0.9946
vn -0.0535 -0.1489 0.9874
vn -0.0662 -0.1603 0.9848
vn 0.0809 0.4023 0.9119
vn 0.0000 0.3884 0.9215
vn -0.1512 0.3859 0.9101
vn -0.0834 0.4022 0.9117
vn 0.1229 -0.0195 0.9922
vn 0.1444 0.3748 0.9158
vn 0.1539 -0.2253 0.9620
vn -0.9945 0.1032 0.0179
vn -0.8609 0.1646 -0.4815
vn -0.8650 0.0278 -0.5010
vn -1.0000 -0.0002 -0.0015
vn 0.9957 0.0909 0.0158
vn 0.8615 0.1618 -0.4812
vn 0.1479 0.9754 0.1635
vn 0.0000 0.9862 0.1653
vn -0.8680 0.3924 -0.3043
vn -0.2693 0.4440 -0.8546
vn 0.3133 0.1567 -0.9366
vn -0.0693 0.9924 0.1020
vn -0.1112 0.9887 0.1006
vn -0.0091 0.9950 0.0997
vn 0.0000 0.9868 0.1618
vn 0.4233 0.5346 -0.7315
vn 0.5821 -0.0022 -0.8131
vn 0.1481 0.4969 -0.8551
vn 0.1527 0.0237 -0.9880
vn 0.0039 0.9839 -0.1787
vn 0.1480 0.4969 -0.8551
vn 0.0000 0.9580 -0.2869
vn 0.0000 0.3497 -0.9369
vn 0.0835 0.9896 0.1168
vn 0.0366 0.9780 0.2052
vn -0.0355 0.9856 0.1650
vn 0.1111 0.9888 0.0997
vn -0.3448 0.9385 0.0154
vn -0.2653 0.9482 0.1749
vn 0.3435 0.9391 0.0110
vn 0.3341 0.9329 0.1342
vn -0.1422 0.4968 -0.8561
vn -0.4440 0.5531 -0.7050
vn -0.0022 0.9844 -0.1758
vn -0.2731 0.9476 -0.1654
vn 0.2692 0.9435 -0.1932
vn -0.0566 0.9884 0.1410
vn 0.4928 0.7001 -0.5167
vn -0.3640 0.9081 0.2070
vn 0.9880 -0.0169 -0.1533
vn 0.8976 0.4342 -0.0760
vn 0.8863 0.4577 0.0704
vn -0.1485 0.0237 -0.9886
vn -0.6099 -0.0007 -0.7925
vn -0.1423 0.4969 -0.8561
vn -0.0000 0.0212 -0.9998
vn 0.3341 0.9329 0.1343
vn 0.3436 0.9391 0.0110
vn 0.8428 0.3862 -0.3749
vn -0.9005 0.4300 -0.0650
vn -0.8633 0.3892 -0.3212
vn -0.2732 0.9476 -0.1654
vn -0.8590 0.5055 0.0808
vn -0.0351 -0.2054 0.9780
vn 0.5822 -0.0022 -0.8131
vn 0.0378 -0.9970 -0.0670
vn 0.0003 -0.9939 -0.1100
vn 0.0275 -0.9979 -0.0582
vn -0.9915 -0.0172 -0.1288
vn -0.0154 -0.9992 -0.0380
vn -0.0205 -0.9991 -0.0358
vn -0.0198 -0.9991 -0.0367
vn 0.0274 -0.9990 -0.0361
vn 0.0647 -0.1962 0.9784
vn -0.0000 -0.9991 -0.0415
vn -0.0086 -0.9991 -0.0407
usemtl veh_zaz_gorb.007
s 1
f 33/33/5 34/34/6 35/35/7
f 36/36/8 37/37/9 38/38/10
f 38/38/10 37/37/9 39/39/11
f 40/40/12 41/41/13 42/42/14
f 42/42/14 41/41/13 43/43/15
f 44/44/16 45/45/17 46/46/18
f 46/46/18 45/45/17 47/47/19
f 48/48/19 49/49/17 50/50/20
f 50/50/20 49/49/17 51/51/21
f 52/52/22 53/53/23 54/54/24
f 54/54/24 53/53/23 55/55/25
f 56/56/26 57/57/20 58/58/27
f 58/58/27 57/57/20 59/59/28
f 37/37/9 56/56/26 39/39/11
f 39/39/11 56/56/26 58/58/27
f 60/60/29 38/38/10 61/61/30
f 61/61/30 38/38/10 62/62/31
f 62/62/31 63/63/32 64/64/33
f 64/64/33 63/63/32 65/65/34
f 39/39/11 63/63/32 38/38/10
f 38/38/10 63/63/32 62/62/31
f 36/36/8 66/66/35 37/37/9
f 37/37/9 66/66/35 67/67/36
f 68/68/37 69/69/25 70/70/38
f 70/70/38 69/69/25 71/71/39
f 59/59/28 68/68/37 58/58/27
f 58/58/27 68/68/37 70/70/38
f 57/57/20 56/56/26 72/72/19
f 72/72/19 56/56/26 73/73/40
f 70/70/38 71/71/39 63/63/32
f 63/63/32 71/71/39 65/65/34
f 58/58/27 70/70/38 39/39/11
f 39/39/11 70/70/38 63/63/32
f 56/56/26 37/37/9 73/73/40
f 73/73/40 37/37/9 67/67/36
f 74/74/41 75/75/42 36/36/8
f 36/36/8 75/75/42 66/66/35
f 60/60/29 74/74/41 38/38/10
f 38/38/10 74/74/41 36/36/8
f 61/61/30 62/62/31 76/76/43
f 76/76/43 62/62/31 64/64/33
f 77/77/44 78/78/45 79/79/46
f 79/79/46 78/78/45 80/80/47
f 40/40/12 77/77/44 41/41/13
f 41/41/13 77/77/44 79/79/46
f 42/42/14 81/81/48 40/40/12
f 40/40/12 81/81/48 82/82/49
f 78/78/45 77/77/44 83/83/50
f 83/83/50 77/77/44 84/84/51
f 77/77/44 40/40/12 84/84/51
f 84/84/51 40/40/12 82/82/49
f 85/85/52 86/86/53 42/42/14
f 42/42/14 86/86/53 81/81/48
f 87/87/54 85/85/52 43/43/15
f 43/43/15 85/85/52 42/42/14
f 44/44/16 46/46/18 88/88/55
f 88/88/55 46/46/18 89/89/56
f 89/89/56 90/90/57 88/88/55
f 88/88/55 90/90/57 91/91/58
f 52/52/22 92/92/59 53/53/23
f 53/53/23 92/92/59 93/93/60
f 93/93/60 92/92/59 33/33/5
f 33/33/5 92/92/59 94/94/6
f 95/95/61 96/96/24 97/97/37
f 97/97/37 96/96/24 98/98/25
f 99/99/62 95/95/61 100/100/28
f 100/100/28 95/95/61 97/97/37
f 50/50/20 51/51/21 100/100/28
f 100/100/28 51/51/21 99/99/62
f 101/101/63 90/90/57 102/102/42
f 102/102/42 90/90/57 103/103/35
f 104/104/36 103/103/35 89/89/56
f 89/89/56 103/103/35 90/90/57
f 105/105/64 104/104/36 46/46/18
f 46/46/18 104/104/36 89/89/56
f 93/93/60 106/106/34 53/53/23
f 53/53/23 106/106/34 107/107/39
f 33/33/5 108/108/65 93/93/60
f 93/93/60 108/108/65 106/106/34
f 109/109/66 110/110/67 111/111/68
f 111/111/68 110/110/67 112/112/69
f 113/113/70 114/114/71 115/115/72
f 115/115/72 114/114/71 116/116/73
f 117/117/74 118/118/75 119/119/76
f 119/119/76 118/118/75 120/120/77
f 110/110/67 117/117/74 112/112/69
f 112/112/69 117/117/74 119/119/76
f 121/121/78 122/122/79 111/111/68
f 111/111/68 122/122/79 123/123/80
f 124/124/81 125/125/82 121/121/78
f 121/121/78 125/125/82 126/126/83
f 112/112/69 124/124/81 111/111/68
f 111/111/68 124/124/81 121/121/78
f 110/110/67 109/109/66 127/127/84
f 127/127/84 109/109/66 128/128/85
f 129/129/86 130/130/87 131/131/88
f 131/131/88 130/130/87 132/132/89
f 120/120/77 129/129/86 119/119/76
f 119/119/76 129/129/86 131/131/88
f 118/118/75 117/117/74 133/133/70
f 133/133/70 117/117/74 134/134/90
f 131/131/88 132/132/89 124/124/81
f 124/124/81 132/132/89 125/125/82
f 119/119/76 131/131/88 112/112/69
f 112/112/69 131/131/88 124/124/81
f 117/117/74 110/110/67 134/134/90
f 134/134/90 110/110/67 127/127/84
f 135/135/91 136/136/92 109/109/66
f 109/109/66 136/136/92 128/128/85
f 123/123/80 135/135/91 111/111/68
f 111/111/68 135/135/91 109/109/66
f 121/121/78 126/126/83 122/122/79
f 122/122/79 126/126/83 137/137/93
f 138/138/94 139/139/95 140/140/96
f 140/140/96 141/141/7 34/34/6
f 142/142/97 143/143/98 144/144/99
f 144/144/99 143/143/98 145/145/87
f 146/146/100 142/142/97 147/147/77
f 147/147/77 142/142/97 144/144/99
f 115/115/72 116/116/73 147/147/77
f 147/147/77 116/116/73 146/146/100
f 148/148/101 149/149/92 140/140/96
f 140/140/96 149/149/92 141/141/7
f 139/139/95 150/150/102 140/140/96
f 140/140/96 150/150/102 148/148/101
f 151/151/90 150/150/102 152/152/103
f 152/152/103 150/150/102 139/139/95
f 153/153/104 154/154/82 155/155/105
f 155/155/105 154/154/82 156/156/106
f 157/157/83 154/154/82 158/158/107
f 158/158/107 154/154/82 153/153/104
f 159/159/63 160/160/93 158/158/107
f 158/158/107 160/160/93 157/157/83
f 35/35/7 161/161/92 33/33/5
f 33/33/5 161/161/92 108/108/65
f 79/79/46 80/80/47 162/162/108
f 47/47/19 105/105/64 46/46/18
f 55/55/25 53/53/23 107/107/39
f 163/163/109 164/164/70 152/152/103
f 165/165/87 166/166/98 155/155/105
f 167/167/110 168/168/111 169/169/112
f 152/152/103 139/139/95 138/138/94
f 166/166/98 170/170/113 155/155/105
f 170/170/113 158/158/107 153/153/104
f 91/91/58 159/159/63 158/158/107
f 164/164/70 151/151/90 152/152/103
f 165/165/87 155/155/105 156/156/106
f 90/90/57 101/101/63 91/91/58
f 170/170/113 91/91/58 158/158/107
f 140/140/96 34/34/6 138/138/94
f 138/138/94 163/163/109 152/152/103
f 170/170/113 153/153/104 155/155/105
f 171/171/114 172/172/115 173/173/116
f 174/174/117 167/167/110 169/169/112
f 175/175/118 43/43/15 41/41/13
f 175/175/118 87/87/54 43/43/15
f 41/41/13 79/79/46 162/162/108
f 162/162/108 175/175/118 41/41/13
f 176/176/119 177/177/120 174/174/117
f 174/174/117 169/169/112 176/176/119
f 171/171/114 173/173/116 177/177/120
f 177/177/120 176/176/119 171/171/114
