# ..:::Stalker models:::..
# WebSite: http://excalibur-craft.ru
mtllib barrel_chair.mtl
o 0.009
v 0.134452 0.479412 -0.318110
v 0.248804 0.479412 -0.242001
v 0.134452 0.164335 -0.318110
v 0.221731 0.164335 -0.211118
v 0.326116 0.479413 -0.127607
v 0.283885 0.164335 -0.108139
v 0.353188 0.479413 0.007720
v 0.285016 0.164335 0.007720
v 0.326863 0.479413 0.143204
v 0.258691 0.164335 0.143204
v 0.326863 0.479413 0.143204
v 0.250754 0.479413 0.257557
v 0.258691 0.164335 0.143204
v 0.250754 0.164336 0.241495
v 0.136359 0.479413 0.334868
v 0.136359 0.164336 0.297796
v 0.001033 0.479413 0.361940
v 0.001032 0.164336 0.306778
v -0.133715 0.479413 0.335475
v -0.133715 0.164336 0.298404
v -0.248804 0.479413 0.259506
v -0.248804 0.164336 0.259506
v -0.326116 0.479413 0.145112
v -0.326116 0.164335 0.145112
v -0.353188 0.479413 0.009785
v -0.307251 0.164335 0.016008
v -0.326724 0.479412 -0.124963
v -0.289641 0.164335 -0.124961
v -0.250754 0.479412 -0.240052
v -0.250754 0.164335 -0.240050
v -0.136359 0.479412 -0.317363
v -0.136359 0.164335 -0.317363
v -0.001033 0.479412 -0.344436
v -0.001032 0.164335 -0.344435
v 0.265226 -0.063793 -0.239502
v 0.134452 -0.062591 -0.333686
v 0.221731 0.110687 -0.211118
v 0.134452 0.110687 -0.318108
v 0.283885 0.110687 -0.108139
v 0.293415 0.044695 -0.112532
v 0.308265 0.010959 0.007721
v 0.285016 0.110687 0.007721
v 0.286153 -0.007114 0.143205
v 0.258691 0.110687 0.143204
v 0.250754 -0.062770 0.251023
v 0.286153 -0.007114 0.143205
v 0.250754 0.110687 0.241495
v 0.258691 0.110687 0.143204
v 0.136359 -0.062814 0.306149
v 0.136359 0.110687 0.297796
v 0.001032 -0.062653 0.311202
v 0.001032 0.110687 0.306778
v -0.133715 0.110687 0.298404
v -0.133715 -0.062814 0.306756
v -0.248804 0.110687 0.259506
v -0.248804 -0.062591 0.259507
v -0.326116 0.110687 0.145112
v -0.326116 -0.062590 0.145112
v -0.334702 -0.064060 0.012290
v -0.307251 0.110687 0.016008
v -0.289641 0.110687 -0.124961
v -0.311734 -0.063537 -0.124961
v -0.250754 0.110687 -0.240050
v -0.250754 -0.062591 -0.240050
v -0.136359 0.110687 -0.317361
v -0.136359 -0.062591 -0.317361
v -0.001033 0.110687 -0.344433
v -0.001032 -0.062591 -0.344433
v 0.140513 0.137937 -0.334519
v 0.234662 0.137937 -0.223481
v 0.300140 0.137937 -0.115023
v 0.302523 0.137937 0.007468
v 0.275100 0.137937 0.149265
v 0.263117 0.137937 0.254426
v 0.275100 0.137937 0.149265
v 0.250754 0.164336 0.241495
v 0.143244 0.137937 0.314051
v 0.001285 0.137937 0.324285
v -0.140513 0.137937 0.314952
v -0.261735 0.137937 0.271869
v -0.342371 0.137937 0.151996
v -0.324759 0.137937 0.016260
v -0.306189 0.137937 -0.131760
v -0.262978 0.137937 -0.252245
v -0.143244 0.137937 -0.333618
v -0.001284 0.137937 -0.361940
v 0.258691 0.110687 0.143204
v 0.238597 0.469380 -0.231694
v 0.128919 0.469380 -0.304678
v 0.000055 0.446471 0.008790
v 0.312715 0.469381 -0.122002
v 0.338689 0.469381 0.007764
v 0.313435 0.469380 0.137671
v 0.240451 0.469380 0.247348
v 0.130758 0.469381 0.321466
v 0.001004 0.469380 0.347434
v -0.128230 0.469380 0.322056
v -0.238584 0.469381 0.249204
v -0.312710 0.469380 0.139510
v -0.338677 0.469380 0.009755
v -0.313300 0.469380 -0.119478
v -0.240448 0.469380 -0.229832
v -0.130754 0.469380 -0.303958
v -0.000988 0.469380 -0.329932
v 0.328563 -0.065702 0.143205
v 0.328563 -0.065702 0.143205
v 0.370971 -0.065702 0.007721
v 0.359004 -0.064069 -0.139411
v 0.248804 0.479412 -0.242001
v 0.134452 0.479412 -0.318110
v 0.238164 0.478442 -0.231259
v 0.128686 0.478442 -0.304111
v 0.326116 0.479413 -0.127607
v 0.248804 0.479412 -0.242001
v 0.312149 0.478443 -0.121766
v 0.238164 0.478442 -0.231259
v 0.353188 0.479413 0.007720
v 0.326116 0.479413 -0.127607
v 0.338076 0.478443 0.007765
v 0.312149 0.478443 -0.121766
v 0.326863 0.479413 0.143204
v 0.353188 0.479413 0.007720
v 0.312868 0.478442 0.137438
v 0.338076 0.478443 0.007765
v 0.250754 0.479413 0.257557
v 0.326863 0.479413 0.143204
v 0.240015 0.478442 0.246916
v 0.312868 0.478442 0.137438
v 0.136359 0.479413 0.334868
v 0.250754 0.479413 0.257557
v 0.130522 0.478443 0.320900
v 0.240015 0.478442 0.246916
v 0.001033 0.479413 0.361940
v 0.136359 0.479413 0.334868
v 0.001003 0.478442 0.346820
v 0.130522 0.478443 0.320900
v -0.133715 0.479413 0.335475
v 0.001033 0.479413 0.361940
v -0.127997 0.478442 0.321488
v 0.001003 0.478442 0.346820
v -0.248804 0.479413 0.259506
v -0.133715 0.479413 0.335475
v -0.238153 0.478443 0.248768
v -0.127997 0.478442 0.321488
v -0.326116 0.479413 0.145112
v -0.248804 0.479413 0.259506
v -0.312144 0.478442 0.139273
v -0.238153 0.478443 0.248768
v -0.353188 0.479413 0.009785
v -0.326116 0.479413 0.145112
v -0.338064 0.478442 0.009754
v -0.312144 0.478442 0.139273
v -0.326724 0.479412 -0.124963
v -0.353188 0.479413 0.009785
v -0.312732 0.478442 -0.119245
v -0.338064 0.478442 0.009754
v -0.250754 0.479412 -0.240052
v -0.326724 0.479412 -0.124963
v -0.240012 0.478442 -0.229401
v -0.312732 0.478442 -0.119245
v -0.136359 0.479412 -0.317363
v -0.250754 0.479412 -0.240052
v -0.130517 0.478442 -0.303392
v -0.240012 0.478442 -0.229401
v -0.001033 0.479412 -0.344436
v -0.136359 0.479412 -0.317363
v -0.000986 0.478442 -0.329319
v -0.130517 0.478442 -0.303392
v 0.134452 0.479412 -0.318110
v -0.001033 0.479412 -0.344436
v 0.128686 0.478442 -0.304111
v -0.000986 0.478442 -0.329319
v 0.238164 0.478442 -0.231259
v 0.128686 0.478442 -0.304111
v 0.238597 0.469380 -0.231694
v 0.128919 0.469380 -0.304678
v 0.312149 0.478443 -0.121766
v 0.238164 0.478442 -0.231259
v 0.312715 0.469381 -0.122002
v 0.238597 0.469380 -0.231694
v 0.338076 0.478443 0.007765
v 0.312149 0.478443 -0.121766
v 0.338689 0.469381 0.007764
v 0.312715 0.469381 -0.122002
v 0.312868 0.478442 0.137438
v 0.338076 0.478443 0.007765
v 0.313435 0.469380 0.137671
v 0.338689 0.469381 0.007764
v 0.240015 0.478442 0.246916
v 0.312868 0.478442 0.137438
v 0.240451 0.469380 0.247348
v 0.313435 0.469380 0.137671
v 0.130522 0.478443 0.320900
v 0.240015 0.478442 0.246916
v 0.130758 0.469381 0.321466
v 0.240451 0.469380 0.247348
v 0.001003 0.478442 0.346820
v 0.130522 0.478443 0.320900
v 0.001004 0.469380 0.347434
v 0.130758 0.469381 0.321466
v -0.127997 0.478442 0.321488
v 0.001003 0.478442 0.346820
v -0.128230 0.469380 0.322056
v 0.001004 0.469380 0.347434
v -0.238153 0.478443 0.248768
v -0.127997 0.478442 0.321488
v -0.238584 0.469381 0.249204
v -0.128230 0.469380 0.322056
v -0.312144 0.478442 0.139273
v -0.238153 0.478443 0.248768
v -0.312710 0.469380 0.139510
v -0.238584 0.469381 0.249204
v -0.338064 0.478442 0.009754
v -0.312144 0.478442 0.139273
v -0.338677 0.469380 0.009755
v -0.312710 0.469380 0.139510
v -0.312732 0.478442 -0.119245
v -0.338064 0.478442 0.009754
v -0.313300 0.469380 -0.119478
v -0.338677 0.469380 0.009755
v -0.240012 0.478442 -0.229401
v -0.312732 0.478442 -0.119245
v -0.240448 0.469380 -0.229832
v -0.313300 0.469380 -0.119478
v -0.130517 0.478442 -0.303392
v -0.240012 0.478442 -0.229401
v -0.130754 0.469380 -0.303958
v -0.240448 0.469380 -0.229832
v -0.000986 0.478442 -0.329319
v -0.130517 0.478442 -0.303392
v -0.000988 0.469380 -0.329932
v -0.130754 0.469380 -0.303958
v 0.128686 0.478442 -0.304111
v -0.000986 0.478442 -0.329319
v 0.128919 0.469380 -0.304678
v -0.000988 0.469380 -0.329932
vt 1.9396 0.0060
vt 2.1850 0.0060
vt 1.9396 0.3005
vt 2.1850 0.3005
vt 2.4304 0.0060
vt 2.4304 0.3005
vt 2.6758 0.0060
vt 2.6758 0.3005
vt 2.9212 0.0060
vt 2.9212 0.3005
vt -1.0052 0.0060
vt -0.7598 0.0060
vt -1.0052 0.3005
vt -0.7598 0.3005
vt -0.5144 0.0060
vt -0.5144 0.3005
vt -0.2690 0.0060
vt -0.2690 0.3005
vt -0.0236 0.0060
vt -0.0236 0.3005
vt 0.2218 0.0060
vt 0.2218 0.3005
vt 0.4672 0.0060
vt 0.4672 0.3005
vt 0.7126 0.0060
vt 0.7126 0.3005
vt 0.9580 0.0060
vt 0.9580 0.3005
vt 1.2034 0.0060
vt 1.2034 0.3005
vt 1.4488 0.0060
vt 1.4488 0.3005
vt 1.6942 0.0060
vt 1.6942 0.3005
vt 2.1850 0.5222
vt 1.9396 0.5211
vt 2.1850 0.3686
vt 1.9396 0.3686
vt 2.4304 0.3686
vt 2.4304 0.4267
vt 2.6758 0.4564
vt 2.6758 0.3686
vt 2.9212 0.4723
vt 2.9212 0.3686
vt -0.7598 0.5213
vt -1.0052 0.4723
vt -0.7598 0.3686
vt -1.0052 0.3686
vt -0.5144 0.5213
vt -0.5144 0.3686
vt -0.2690 0.5212
vt -0.2690 0.3686
vt -0.0236 0.3686
vt -0.0236 0.5213
vt 0.2218 0.3686
vt 0.2218 0.5211
vt 0.4672 0.3686
vt 0.4672 0.5211
vt 0.7126 0.5224
vt 0.7126 0.3686
vt 0.9580 0.3686
vt 0.9580 0.5219
vt 1.2034 0.3686
vt 1.2034 0.5211
vt 1.4488 0.3686
vt 1.4488 0.5211
vt 1.6942 0.3686
vt 1.6942 0.5211
vt 1.9396 0.3346
vt 2.1850 0.3346
vt 2.4304 0.3346
vt 2.6758 0.3346
vt 2.9212 0.3346
vt -0.7598 0.3346
vt -1.0052 0.3346
vt -0.7716 0.3005
vt -0.5144 0.3346
vt -0.2690 0.3346
vt -0.0236 0.3346
vt 0.2218 0.3346
vt 0.4672 0.3346
vt 0.7126 0.3346
vt 0.9580 0.3346
vt 1.2034 0.3346
vt 1.4488 0.3346
vt 1.6942 0.3346
vt -0.9936 0.3686
vt 4.3541 4.1082
vt 4.3824 4.0658
vt 4.4752 4.1584
vt 4.3441 4.1584
vt 4.3542 4.2086
vt 4.3826 4.2512
vt 4.4250 4.2794
vt 4.4752 4.2895
vt 4.5254 4.2794
vt 4.5677 4.2510
vt 4.5962 4.2086
vt 4.6063 4.1584
vt 4.5962 4.1082
vt 4.5678 4.0659
vt 4.5254 4.0374
vt 4.4752 4.0273
vt 4.4250 4.0374
vt -1.0052 0.5238
vt 2.9212 0.5238
vt 2.6758 0.5238
vt 2.4304 0.5224
vt 0.2162 0.2405
vt -0.0347 0.2405
vt 0.2109 0.2676
vt -0.0293 0.2677
vt 0.2162 0.2405
vt -0.0360 0.2405
vt 0.2107 0.2677
vt -0.0306 0.2676
vt 0.2162 0.2405
vt -0.0359 0.2405
vt 0.2109 0.2676
vt -0.0304 0.2677
vt 0.2162 0.2405
vt -0.0359 0.2405
vt 0.2107 0.2677
vt -0.0305 0.2676
vt 0.2162 0.2405
vt -0.0347 0.2405
vt 0.2109 0.2676
vt -0.0293 0.2677
vt 0.2162 0.2405
vt -0.0360 0.2405
vt 0.2107 0.2677
vt -0.0306 0.2676
vt 0.2162 0.2405
vt -0.0359 0.2405
vt 0.2108 0.2676
vt -0.0304 0.2677
vt 0.2162 0.2405
vt -0.0346 0.2405
vt 0.2109 0.2677
vt -0.0292 0.2677
vt 0.2162 0.2405
vt -0.0357 0.2405
vt 0.2108 0.2677
vt -0.0303 0.2677
vt 0.2162 0.2405
vt -0.0360 0.2405
vt 0.2107 0.2677
vt -0.0306 0.2677
vt 0.2162 0.2405
vt -0.0359 0.2405
vt 0.2108 0.2676
vt -0.0304 0.2677
vt 0.2162 0.2405
vt -0.0346 0.2405
vt 0.2109 0.2677
vt -0.0292 0.2677
vt 0.2162 0.2405
vt -0.0357 0.2405
vt 0.2108 0.2677
vt -0.0303 0.2677
vt 0.2162 0.2405
vt -0.0360 0.2405
vt 0.2107 0.2677
vt -0.0306 0.2677
vt 0.2162 0.2405
vt -0.0359 0.2405
vt 0.2109 0.2676
vt -0.0304 0.2677
vt 0.2162 0.2405
vt -0.0359 0.2405
vt 0.2107 0.2677
vt -0.0305 0.2676
vt 0.1399 0.0248
vt -0.0861 0.0248
vt 0.1401 0.0092
vt -0.0863 0.0092
vt 0.1399 0.0248
vt -0.0872 0.0248
vt 0.1401 0.0092
vt -0.0874 0.0092
vt 0.1399 0.0248
vt -0.0871 0.0248
vt 0.1401 0.0092
vt -0.0873 0.0092
vt 0.1399 0.0248
vt -0.0871 0.0248
vt 0.1401 0.0092
vt -0.0873 0.0092
vt 0.1399 0.0248
vt -0.0861 0.0248
vt 0.1401 0.0092
vt -0.0863 0.0092
vt 0.1399 0.0248
vt -0.0872 0.0248
vt 0.1401 0.0092
vt -0.0874 0.0092
vt 0.1399 0.0248
vt -0.0871 0.0248
vt 0.1401 0.0092
vt -0.0873 0.0092
vt 0.1399 0.0248
vt -0.0860 0.0248
vt 0.1401 0.0092
vt -0.0862 0.0092
vt 0.1399 0.0248
vt -0.0869 0.0248
vt 0.1401 0.0092
vt -0.0872 0.0092
vt 0.1399 0.0248
vt -0.0872 0.0248
vt 0.1401 0.0092
vt -0.0874 0.0092
vt 0.1399 0.0248
vt -0.0871 0.0248
vt 0.1401 0.0092
vt -0.0873 0.0092
vt 0.1399 0.0248
vt -0.0860 0.0248
vt 0.1401 0.0092
vt -0.0862 0.0092
vt 0.1399 0.0248
vt -0.0869 0.0248
vt 0.1401 0.0092
vt -0.0872 0.0092
vt 0.1399 0.0248
vt -0.0872 0.0248
vt 0.1401 0.0092
vt -0.0874 0.0092
vt 0.1399 0.0248
vt -0.0871 0.0248
vt 0.1401 0.0092
vt -0.0873 0.0092
vt 0.1399 0.0248
vt -0.0871 0.0248
vt 0.1401 0.0092
vt -0.0873 0.0092
vn 0.3173 -0.0000 -0.9483
vn 0.7261 -0.0855 -0.6822
vn 0.5438 0.2704 -0.7944
vn 0.8044 0.2259 -0.5495
vn 0.8935 -0.1396 -0.4268
vn 0.9541 0.2083 -0.2151
vn 0.9819 -0.1895 -0.0058
vn 0.9752 0.1846 0.1223
vn 0.9288 -0.2010 0.3114
vn 0.9625 0.1510 0.2255
vn 0.7651 -0.0881 0.6379
vn 0.7592 0.3987 0.5144
vn 0.2791 -0.1309 0.9513
vn 0.2795 0.2498 0.9271
vn 0.0017 -0.1725 0.9850
vn 0.0020 0.0949 0.9955
vn -0.2733 -0.1311 0.9530
vn -0.2336 0.2580 0.9375
vn -0.5871 -0.0338 0.8088
vn -0.5872 0.2981 0.7525
vn -0.9509 -0.0362 0.3074
vn -0.8959 0.3945 0.2044
vn -0.9895 -0.1442 0.0019
vn -0.9885 0.1238 -0.0867
vn -0.9482 -0.1222 -0.2933
vn -0.9301 0.2577 -0.2616
vn -0.8088 -0.0338 -0.5871
vn -0.7533 0.2934 -0.5887
vn -0.4465 -0.0000 -0.8948
vn -0.3365 0.3307 -0.8817
vn -0.0683 0.0000 -0.9977
vn 0.0600 0.2893 -0.9554
vn 0.6990 0.3664 -0.6141
vn 0.4262 0.1094 -0.8980
vn 0.7997 -0.1345 -0.5852
vn 0.5393 -0.3154 -0.7809
vn 0.9342 -0.2846 -0.2152
vn 0.9057 0.3237 -0.2737
vn 0.8908 0.4413 0.1084
vn 0.9799 -0.1835 0.0783
vn 0.9083 0.3221 0.2669
vn 0.9856 -0.0839 0.1469
vn 0.6855 0.1682 0.7084
vn 0.8139 -0.2954 0.5002
vn 0.1823 0.0396 0.9824
vn 0.2541 -0.2606 0.9314
vn 0.0022 0.0255 0.9997
vn 0.0021 -0.1622 0.9868
vn -0.2004 -0.2684 0.9422
vn -0.1602 0.0398 0.9863
vn -0.5882 -0.2909 0.7545
vn -0.5320 0.0155 0.8466
vn -0.8997 -0.3851 0.2054
vn -0.9608 0.0406 0.2744
vn -0.9865 0.1560 -0.0504
vn -0.9881 -0.1124 -0.1048
vn -0.9376 -0.2458 -0.2461
vn -0.9582 0.1326 -0.2533
vn -0.7552 -0.2862 -0.5896
vn -0.8278 0.0387 -0.5597
vn -0.3376 -0.3227 -0.8842
vn -0.4464 0.0000 -0.8948
vn 0.0405 -0.2677 -0.9627
vn -0.1053 0.0000 -0.9944
vn 0.4058 0.0074 -0.9139
vn 0.7995 0.0071 -0.6006
vn 0.9329 0.0074 -0.3599
vn 0.9985 0.0072 0.0536
vn 0.9897 0.0070 0.1432
vn 0.8271 0.0077 0.5620
vn 0.3241 0.0073 0.9460
vn 0.0028 0.0073 1.0000
vn -0.2423 0.0072 0.9702
vn -0.6926 0.0075 0.7213
vn -0.9748 0.0075 0.2231
vn -0.9914 0.0071 -0.1304
vn -0.9649 0.0072 -0.2625
vn -0.7217 0.0074 -0.6922
vn -0.3866 0.0071 -0.9222
vn -0.0683 0.0073 -0.9976
vn 0.9857 -0.0839 0.1463
vn -0.0475 0.9977 0.0479
vn -0.0256 0.9977 0.0624
vn 0.0000 1.0000 -0.0000
vn -0.0622 0.9977 0.0260
vn -0.0675 0.9977 0.0002
vn -0.0624 0.9977 -0.0256
vn -0.0479 0.9977 -0.0476
vn -0.0260 0.9977 -0.0622
vn -0.0001 0.9977 -0.0675
vn 0.0256 0.9977 -0.0625
vn 0.0475 0.9977 -0.0480
vn 0.0622 0.9977 -0.0260
vn 0.0675 0.9977 -0.0001
vn 0.0625 0.9977 0.0256
vn 0.0480 0.9977 0.0475
vn 0.0260 0.9977 0.0622
vn 0.0002 0.9977 0.0675
vn 0.7573 0.5720 0.3150
vn 0.7573 0.5720 0.3151
vn 0.7708 0.6305 0.0908
vn 0.7872 0.5798 -0.2101
vn -0.0481 0.9979 0.0425
vn -0.0282 0.9979 0.0576
vn -0.0421 0.9979 0.0484
vn -0.0203 0.9979 0.0608
vn -0.0607 0.9979 0.0207
vn -0.0574 0.9979 0.0286
vn -0.0641 0.9979 -0.0040
vn -0.0640 0.9979 0.0044
vn -0.0576 0.9979 -0.0282
vn -0.0608 0.9979 -0.0203
vn -0.0425 0.9979 -0.0481
vn -0.0576 0.9979 -0.0283
vn -0.0484 0.9979 -0.0421
vn -0.0608 0.9979 -0.0204
vn -0.0207 0.9979 -0.0607
vn -0.0287 0.9979 -0.0574
vn -0.0484 0.9979 -0.0422
vn 0.0041 0.9979 -0.0641
vn -0.0043 0.9979 -0.0640
vn -0.0286 0.9979 -0.0574
vn 0.0282 0.9979 -0.0577
vn 0.0204 0.9979 -0.0609
vn 0.0480 0.9979 -0.0425
vn 0.0420 0.9979 -0.0485
vn 0.0607 0.9979 -0.0207
vn 0.0573 0.9979 -0.0286
vn 0.0640 0.9979 0.0041
vn 0.0640 0.9979 -0.0043
vn 0.0577 0.9979 0.0282
vn 0.0609 0.9979 0.0203
vn 0.0425 0.9979 0.0480
vn 0.0485 0.9979 0.0420
vn 0.0609 0.9979 0.0204
vn 0.0207 0.9979 0.0607
vn 0.0286 0.9979 0.0573
vn -0.0040 0.9979 0.0640
vn 0.0207 0.9979 0.0606
vn 0.0044 0.9979 0.0640
vn -0.7479 -0.0674 0.6603
vn -0.4395 -0.0674 0.8957
vn -0.6550 -0.0674 0.7526
vn -0.3166 -0.0674 0.9462
vn -0.9442 -0.0674 0.3224
vn -0.8928 -0.0674 0.4454
vn -0.9958 -0.0674 -0.0627
vn -0.9954 -0.0674 0.0682
vn -0.8957 -0.0674 -0.4395
vn -0.9461 -0.0674 -0.3167
vn -0.6603 -0.0674 -0.7479
vn -0.7526 -0.0674 -0.6550
vn -0.9461 -0.0674 -0.3166
vn -0.3223 -0.0674 -0.9442
vn -0.4454 -0.0674 -0.8928
vn 0.0640 -0.0674 -0.9957
vn -0.0676 -0.0674 -0.9954
vn 0.4379 -0.0674 -0.8965
vn 0.3167 -0.0674 -0.9461
vn 0.7471 -0.0674 -0.6613
vn 0.6532 -0.0674 -0.7542
vn 0.9442 -0.0674 -0.3224
vn 0.8928 -0.0674 -0.4455
vn 0.9957 -0.0674 0.0640
vn 0.9442 -0.0674 -0.3223
vn 0.9954 -0.0674 -0.0676
vn 0.8928 -0.0674 -0.4454
vn 0.8965 -0.0674 0.4379
vn 0.9461 -0.0674 0.3167
vn 0.6613 -0.0674 0.7471
vn 0.7542 -0.0674 0.6532
vn 0.3224 -0.0674 0.9442
vn 0.4455 -0.0674 0.8928
vn -0.0627 -0.0674 0.9958
vn 0.0682 -0.0674 0.9954
vn -0.3167 -0.0674 0.9461
usemtl mtl_bochka_01
s 1
f 1/1/1 2/2/2 3/3/3
f 3/3/3 2/2/2 4/4/4
f 2/2/2 5/5/5 4/4/4
f 4/4/4 5/5/5 6/6/6
f 5/5/5 7/7/7 6/6/6
f 6/6/6 7/7/7 8/8/8
f 7/7/7 9/9/9 8/8/8
f 8/8/8 9/9/9 10/10/10
f 11/11/9 12/12/11 13/13/10
f 13/13/10 12/12/11 14/14/12
f 15/15/13 16/16/14 12/12/11
f 12/12/11 16/16/14 14/14/12
f 17/17/15 18/18/16 15/15/13
f 15/15/13 18/18/16 16/16/14
f 17/17/15 19/19/17 18/18/16
f 18/18/16 19/19/17 20/20/18
f 19/19/17 21/21/19 20/20/18
f 20/20/18 21/21/19 22/22/20
f 21/21/19 23/23/21 22/22/20
f 22/22/20 23/23/21 24/24/22
f 25/25/23 26/26/24 23/23/21
f 23/23/21 26/26/24 24/24/22
f 25/25/23 27/27/25 26/26/24
f 26/26/24 27/27/25 28/28/26
f 27/27/25 29/29/27 28/28/26
f 28/28/26 29/29/27 30/30/28
f 29/29/27 31/31/29 30/30/28
f 30/30/28 31/31/29 32/32/30
f 31/31/29 33/33/31 32/32/30
f 32/32/30 33/33/31 34/34/32
f 3/3/3 34/34/32 1/1/1
f 1/1/1 34/34/32 33/33/31
f 35/35/33 36/36/34 37/37/35
f 37/37/35 36/36/34 38/38/36
f 39/39/37 40/40/38 37/37/35
f 37/37/35 40/40/38 35/35/33
f 41/41/39 40/40/38 42/42/40
f 42/42/40 40/40/38 39/39/37
f 43/43/41 41/41/39 44/44/42
f 44/44/42 41/41/39 42/42/40
f 45/45/43 46/46/41 47/47/44
f 47/47/44 46/46/41 48/48/42
f 49/49/45 45/45/43 50/50/46
f 50/50/46 45/45/43 47/47/44
f 51/51/47 49/49/45 52/52/48
f 52/52/48 49/49/45 50/50/46
f 53/53/49 54/54/50 52/52/48
f 52/52/48 54/54/50 51/51/47
f 55/55/51 56/56/52 53/53/49
f 53/53/49 56/56/52 54/54/50
f 57/57/53 58/58/54 55/55/51
f 55/55/51 58/58/54 56/56/52
f 59/59/55 58/58/54 60/60/56
f 60/60/56 58/58/54 57/57/53
f 61/61/57 62/62/58 60/60/56
f 60/60/56 62/62/58 59/59/55
f 63/63/59 64/64/60 61/61/57
f 61/61/57 64/64/60 62/62/58
f 65/65/61 66/66/62 63/63/59
f 63/63/59 66/66/62 64/64/60
f 67/67/63 68/68/64 65/65/61
f 65/65/61 68/68/64 66/66/62
f 68/68/64 67/67/63 36/36/34
f 36/36/34 67/67/63 38/38/36
f 69/69/65 3/3/3 70/70/66
f 70/70/66 3/3/3 4/4/4
f 70/70/66 4/4/4 71/71/67
f 71/71/67 4/4/4 6/6/6
f 71/71/67 6/6/6 72/72/68
f 72/72/68 6/6/6 8/8/8
f 72/72/68 8/8/8 73/73/69
f 73/73/69 8/8/8 10/10/10
f 74/74/70 75/75/69 76/76/12
f 76/76/12 75/75/69 13/13/10
f 74/74/70 14/14/12 77/77/71
f 77/77/71 14/14/12 16/16/14
f 77/77/71 16/16/14 78/78/72
f 78/78/72 16/16/14 18/18/16
f 79/79/73 78/78/72 20/20/18
f 20/20/18 78/78/72 18/18/16
f 80/80/74 79/79/73 22/22/20
f 22/22/20 79/79/73 20/20/18
f 81/81/75 80/80/74 24/24/22
f 24/24/22 80/80/74 22/22/20
f 81/81/75 24/24/22 82/82/76
f 82/82/76 24/24/22 26/26/24
f 83/83/77 82/82/76 28/28/26
f 28/28/26 82/82/76 26/26/24
f 84/84/78 83/83/77 30/30/28
f 30/30/28 83/83/77 28/28/26
f 85/85/79 84/84/78 32/32/30
f 32/32/30 84/84/78 30/30/28
f 85/85/79 32/32/30 86/86/80
f 86/86/80 32/32/30 34/34/32
f 3/3/3 69/69/65 34/34/32
f 34/34/32 69/69/65 86/86/80
f 37/37/35 38/38/36 70/70/66
f 70/70/66 38/38/36 69/69/65
f 39/39/37 37/37/35 71/71/67
f 71/71/67 37/37/35 70/70/66
f 42/42/40 39/39/37 72/72/68
f 72/72/68 39/39/37 71/71/67
f 44/44/42 42/42/40 73/73/69
f 73/73/69 42/42/40 72/72/68
f 87/87/81 75/75/69 47/47/44
f 47/47/44 75/75/69 74/74/70
f 50/50/46 47/47/44 77/77/71
f 77/77/71 47/47/44 74/74/70
f 52/52/48 50/50/46 78/78/72
f 78/78/72 50/50/46 77/77/71
f 52/52/48 78/78/72 53/53/49
f 53/53/49 78/78/72 79/79/73
f 53/53/49 79/79/73 55/55/51
f 55/55/51 79/79/73 80/80/74
f 55/55/51 80/80/74 57/57/53
f 57/57/53 80/80/74 81/81/75
f 60/60/56 57/57/53 82/82/76
f 82/82/76 57/57/53 81/81/75
f 60/60/56 82/82/76 61/61/57
f 61/61/57 82/82/76 83/83/77
f 61/61/57 83/83/77 63/63/59
f 63/63/59 83/83/77 84/84/78
f 63/63/59 84/84/78 65/65/61
f 65/65/61 84/84/78 85/85/79
f 67/67/63 65/65/61 86/86/80
f 86/86/80 65/65/61 85/85/79
f 86/86/80 69/69/65 67/67/63
f 67/67/63 69/69/65 38/38/36
f 88/88/82 89/89/83 90/90/84
f 91/91/85 88/88/82 90/90/84
f 92/92/86 91/91/85 90/90/84
f 93/93/87 92/92/86 90/90/84
f 94/94/88 93/93/87 90/90/84
f 95/95/89 94/94/88 90/90/84
f 96/96/90 95/95/89 90/90/84
f 97/97/91 96/96/90 90/90/84
f 98/98/92 97/97/91 90/90/84
f 99/99/93 98/98/92 90/90/84
f 100/100/94 99/99/93 90/90/84
f 101/101/95 100/100/94 90/90/84
f 102/102/96 101/101/95 90/90/84
f 103/103/97 102/102/96 90/90/84
f 104/104/98 103/103/97 90/90/84
f 89/89/83 104/104/98 90/90/84
f 46/46/41 45/45/43 105/105/99
f 43/43/41 106/106/100 41/41/39
f 41/41/39 106/106/100 107/107/101
f 40/40/38 41/41/39 108/108/102
f 108/108/102 41/41/39 107/107/101
f 35/35/33 40/40/38 108/108/102
f 109/109/103 110/110/104 111/111/105
f 111/111/105 110/110/104 112/112/106
f 113/113/107 114/114/103 115/115/108
f 115/115/108 114/114/103 116/116/105
f 117/117/109 118/118/107 119/119/110
f 119/119/110 118/118/107 120/120/108
f 121/121/111 122/122/109 123/123/112
f 123/123/112 122/122/109 124/124/110
f 125/125/113 126/126/114 127/127/115
f 127/127/115 126/126/114 128/128/116
f 129/129/117 130/130/113 131/131/118
f 131/131/118 130/130/113 132/132/119
f 133/133/120 134/134/117 135/135/121
f 135/135/121 134/134/117 136/136/122
f 137/137/123 138/138/120 139/139/124
f 139/139/124 138/138/120 140/140/121
f 141/141/125 142/142/123 143/143/126
f 143/143/126 142/142/123 144/144/124
f 145/145/127 146/146/125 147/147/128
f 147/147/128 146/146/125 148/148/126
f 149/149/129 150/150/127 151/151/130
f 151/151/130 150/150/127 152/152/128
f 153/153/131 154/154/129 155/155/132
f 155/155/132 154/154/129 156/156/130
f 157/157/133 158/158/131 159/159/134
f 159/159/134 158/158/131 160/160/135
f 161/161/136 162/162/133 163/163/137
f 163/163/137 162/162/133 164/164/134
f 165/165/138 166/166/139 167/167/140
f 167/167/140 166/166/139 168/168/137
f 169/169/104 170/170/138 171/171/106
f 171/171/106 170/170/138 172/172/140
f 173/173/141 174/174/142 175/175/143
f 175/175/143 174/174/142 176/176/144
f 177/177/145 178/178/141 179/179/146
f 179/179/146 178/178/141 180/180/143
f 181/181/147 182/182/145 183/183/148
f 183/183/148 182/182/145 184/184/146
f 185/185/149 186/186/147 187/187/150
f 187/187/150 186/186/147 188/188/148
f 189/189/151 190/190/149 191/191/152
f 191/191/152 190/190/149 192/192/153
f 193/193/154 194/194/151 195/195/155
f 195/195/155 194/194/151 196/196/152
f 197/197/156 198/198/154 199/199/157
f 199/199/157 198/198/154 200/200/155
f 201/201/158 202/202/156 203/203/159
f 203/203/159 202/202/156 204/204/157
f 205/205/160 206/206/158 207/207/161
f 207/207/161 206/206/158 208/208/159
f 209/209/162 210/210/160 211/211/163
f 211/211/163 210/210/160 212/212/161
f 213/213/164 214/214/165 215/215/166
f 215/215/166 214/214/165 216/216/167
f 217/217/168 218/218/164 219/219/169
f 219/219/169 218/218/164 220/220/166
f 221/221/170 222/222/168 223/223/171
f 223/223/171 222/222/168 224/224/169
f 225/225/172 226/226/170 227/227/173
f 227/227/173 226/226/170 228/228/171
f 229/229/174 230/230/172 231/231/175
f 231/231/175 230/230/172 232/232/173
f 233/233/142 234/234/174 235/235/176
f 235/235/176 234/234/174 236/236/175
