# ..:::Stalker models:::..
# WebSite: http://excalibur-craft.ru
mtllib table2.mtl
o 0.025
v -0.560503 0.011908 -0.572286
v -0.517769 -0.030823 -0.570941
v -0.560504 0.011908 -0.457344
v -0.517767 -0.030822 -0.457344
v -0.562486 0.009940 0.382037
v -0.519752 -0.032792 0.383386
v -0.562488 0.009940 0.496976
v -0.519751 -0.032790 0.496976
v 0.336855 0.029933 0.614073
v 0.294119 -0.012798 0.612742
v 0.336856 0.029933 0.499096
v 0.294118 -0.012797 0.499096
v 0.332615 0.034140 -0.577306
v 0.289879 -0.008590 -0.578633
v 0.332616 0.034141 -0.692291
v 0.289878 -0.008590 -0.692291
v 0.487683 0.966862 0.495976
v 0.401888 0.966862 0.496036
v -0.519751 -0.032790 0.496976
v -0.562488 0.009940 0.496976
v -0.562486 0.009940 0.382037
v 0.401885 0.966862 0.376987
v -0.519752 -0.032792 0.383386
v 0.487680 0.966862 0.376213
v 0.487683 0.966862 -0.458337
v 0.401888 0.966862 -0.458279
v -0.517767 -0.030822 -0.457344
v -0.560504 0.011908 -0.457344
v -0.560503 0.011908 -0.572286
v 0.401885 0.966862 -0.577328
v -0.517769 -0.030823 -0.570941
v 0.487680 0.966862 -0.578101
v 0.401888 0.966862 0.496036
v 0.401885 0.966862 0.376987
v -0.562488 0.009940 0.496976
v -0.562486 0.009940 0.382037
v 0.487680 0.966862 0.376213
v 0.487683 0.966862 0.495976
v -0.519752 -0.032792 0.383386
v -0.519751 -0.032790 0.496976
v 0.401888 0.966862 -0.458279
v 0.401885 0.966862 -0.577328
v -0.560504 0.011908 -0.457344
v -0.560503 0.011908 -0.572286
v 0.487680 0.966862 -0.578101
v 0.487683 0.966862 -0.458337
v -0.517769 -0.030823 -0.570941
v -0.517767 -0.030822 -0.457344
v -0.607371 0.966862 0.499970
v -0.607369 0.966862 0.619019
v 0.336856 0.029933 0.499096
v 0.336855 0.029933 0.614073
v 0.336855 0.029933 0.614073
v -0.607369 0.966862 0.619019
v 0.294119 -0.012798 0.612742
v -0.693164 0.966862 0.619793
v -0.693164 0.966862 0.619793
v -0.693166 0.966862 0.500030
v 0.294119 -0.012798 0.612742
v 0.294118 -0.012797 0.499096
v 0.336856 0.029933 0.499096
v 0.294118 -0.012797 0.499096
v -0.607371 0.966862 0.499970
v -0.693166 0.966862 0.500030
v -0.607371 0.966862 -0.691432
v -0.607369 0.966862 -0.572383
v 0.332616 0.034141 -0.692291
v 0.332615 0.034140 -0.577306
v 0.332615 0.034140 -0.577306
v -0.607369 0.966862 -0.572383
v 0.289879 -0.008590 -0.578633
v -0.693164 0.966862 -0.571609
v -0.693164 0.966862 -0.571609
v -0.693166 0.966862 -0.691372
v 0.289879 -0.008590 -0.578633
v 0.289878 -0.008590 -0.692291
v 0.332616 0.034141 -0.692291
v 0.289878 -0.008590 -0.692291
v -0.607371 0.966862 -0.691432
v -0.693166 0.966862 -0.691372
v 0.357866 0.004646 0.682319
v -0.331163 0.693676 -0.828360
v 0.383663 0.030440 0.682322
v -0.305369 0.719470 -0.828360
v -0.452631 0.866730 -0.694571
v 0.242798 0.171302 0.810597
v -0.305369 0.719470 -0.828360
v 0.383663 0.030440 0.682322
v -0.305369 0.719470 -0.828360
v -0.331163 0.693676 -0.828360
v -0.452631 0.866730 -0.694571
v -0.479350 0.841862 -0.693729
v 0.357866 0.004646 0.682319
v 0.218869 0.143643 0.808897
v -0.331163 0.693676 -0.828360
v -0.479350 0.841862 -0.693729
v 0.242798 0.171302 0.810597
v 0.218869 0.143643 0.808897
v 0.383663 0.030440 0.682322
v 0.357866 0.004646 0.682319
v 0.242798 0.171302 0.810597
v -0.452631 0.866730 -0.694571
v 0.218869 0.143643 0.808897
v -0.479350 0.841862 -0.693729
v 0.624584 0.922263 -0.712352
v -0.875053 0.922263 -0.709255
v 0.624584 0.922263 -0.889573
v -0.875053 0.922263 -0.886476
v 0.624584 0.922263 -0.889573
v -0.875053 0.922263 -0.886476
v 0.624584 0.964158 -0.889573
v -0.875053 0.964158 -0.886476
v 0.624584 0.964158 -0.712352
v -0.875053 0.964158 -0.709255
v 0.624584 0.922263 -0.712352
v -0.875053 0.922263 -0.709255
v -0.875053 0.922263 -0.709255
v -0.875053 0.964158 -0.709255
v -0.875053 0.922263 -0.886476
v -0.875053 0.964158 -0.886476
v 0.624584 0.964158 -0.712352
v 0.624584 0.922263 -0.712352
v 0.624584 0.964158 -0.889573
v 0.624584 0.922263 -0.889573
v 0.639796 0.922263 0.885584
v -0.881277 0.922745 0.841009
v 0.639796 0.922263 0.708362
v -0.881277 0.922746 0.663787
v 0.639796 0.922263 0.708362
v -0.881277 0.922746 0.663787
v 0.639796 0.961480 0.708362
v -0.881277 0.961962 0.663787
v 0.639796 0.961480 0.885584
v -0.881277 0.961962 0.841009
v 0.639796 0.922263 0.885584
v -0.881277 0.922745 0.841009
v -0.881277 0.922745 0.841009
v -0.881277 0.961962 0.841009
v -0.881277 0.922746 0.663787
v -0.881277 0.961962 0.663787
v 0.639796 0.961480 0.885584
v 0.639796 0.922263 0.885584
v 0.639796 0.961480 0.708362
v 0.639796 0.922263 0.708362
v 0.674946 0.962877 0.856441
v 0.392967 0.962877 0.856441
v 0.654384 0.962877 -0.926876
v 0.358578 0.962877 0.582084
v 0.327551 0.962877 0.480723
v 0.326488 0.962877 -0.927224
v 0.674946 0.962877 0.856441
v 0.671808 0.999355 0.856443
v 0.392967 0.962877 0.856441
v 0.392967 0.999355 0.856441
v 0.655940 0.999354 -0.926876
v 0.654384 0.962877 -0.926876
v 0.326488 0.999354 -0.927227
v 0.326488 0.962877 -0.927224
v -0.889857 0.962877 0.893045
v -0.889857 0.999351 0.893042
v -0.892907 0.962877 -0.910538
v -0.892907 0.999354 -0.919364
v -0.578805 0.962877 -0.910206
v -0.575757 0.999352 0.893044
v -0.572793 0.999354 -0.910206
v -0.889857 0.962877 0.893045
v -0.575757 0.962877 0.893045
v -0.889857 0.999351 0.893042
v -0.575757 0.999352 0.893044
v -0.575757 0.962877 0.893045
v -0.889857 0.962877 0.893045
v -0.578805 0.962877 -0.910206
v -0.892907 0.962877 -0.910538
v -0.578805 0.962877 -0.910206
v -0.892907 0.962877 -0.910538
v -0.596686 0.999354 -0.919050
v -0.892907 0.999354 -0.919364
v -0.892907 0.999354 -0.919364
v -0.889857 0.999351 0.893042
v -0.596686 0.999354 -0.919050
v -0.575757 0.999352 0.893044
v -0.596686 0.999354 -0.919050
v -0.575757 0.999352 0.893044
v -0.578805 0.962877 -0.910206
v 0.327893 0.962877 0.893045
v 0.327893 0.999355 0.893047
v 0.327893 0.962877 0.893045
v -0.572793 0.999354 -0.910206
v -0.578805 0.962877 -0.910206
v 0.327893 0.999355 0.893047
v -0.572793 0.999354 -0.910206
v 0.327547 0.999355 0.448803
v 0.326488 0.999354 -0.927227
v -0.881277 0.961962 0.663787
v -0.881277 0.961962 0.841009
v 0.639796 0.961480 0.708362
v 0.639796 0.961480 0.885584
v 0.327547 0.999355 0.448803
v 0.327551 0.962877 0.480723
v 0.360980 0.999355 0.552472
v 0.358578 0.962877 0.582084
v 0.327893 0.962877 0.893045
v 0.327551 0.962877 0.480723
v 0.327893 0.999355 0.893047
v 0.327547 0.999355 0.448803
v 0.360980 0.999355 0.552472
v 0.358578 0.962877 0.582084
v 0.392967 0.999355 0.856441
v 0.392967 0.962877 0.856441
v 0.671808 0.999355 0.856443
v 0.655940 0.999354 -0.926876
v 0.392967 0.999355 0.856441
v 0.360980 0.999355 0.552472
v 0.674946 0.962877 0.856441
v 0.654384 0.962877 -0.926876
v 0.671808 0.999355 0.856443
v 0.655940 0.999354 -0.926876
v -0.875053 0.964158 -0.886476
v -0.875053 0.964158 -0.709255
v 0.624584 0.964158 -0.889573
v 0.624584 0.964158 -0.712352
vt 0.8623 1.3739
vt 0.8642 1.3481
vt 1.0009 1.3739
vt 1.0009 1.3481
vt 0.8623 1.3739
vt 0.8642 1.3481
vt 1.0009 1.3739
vt 1.0009 1.3481
vt 0.8623 1.3739
vt 0.8642 1.3481
vt 1.0009 1.3739
vt 1.0009 1.3481
vt 0.8623 1.3739
vt 0.8642 1.3481
vt 1.0009 1.3739
vt 1.0009 1.3481
vt 1.7774 0.1053
vt 1.8029 0.1375
vt 1.7774 0.8567
vt 1.8029 0.8567
vt 1.1891 0.1513
vt 1.1891 0.8820
vt 1.1688 0.1512
vt 1.1688 0.9146
vt 1.8564 0.1053
vt 1.8819 0.1375
vt 1.8564 0.8552
vt 1.8819 0.8552
vt 1.2681 0.1528
vt 1.2680 0.8820
vt 1.2477 0.1527
vt 1.2477 0.9146
vt 0.1606 0.8776
vt 0.2972 0.8773
vt 0.1606 0.1492
vt 0.2932 0.1491
vt 0.2975 0.9098
vt 0.1606 0.9101
vt 0.2917 0.1491
vt 0.1606 0.1492
vt 0.0000 0.8776
vt 0.1366 0.8773
vt 0.0000 0.1507
vt 0.1326 0.1506
vt 0.1369 0.9098
vt 0.0000 0.9101
vt 0.1311 0.1506
vt 0.0000 0.1507
vt 0.0000 0.8776
vt 0.1366 0.8773
vt 0.0000 0.1644
vt 0.1327 0.1643
vt 1.2681 0.1665
vt 1.2680 0.8820
vt 1.2477 0.1665
vt 1.2477 0.9146
vt 0.1369 0.9098
vt 0.0000 0.9101
vt 0.1313 0.1643
vt 0.0000 0.1644
vt 1.8819 0.8417
vt 1.8564 0.8417
vt 1.8819 0.1375
vt 1.8564 0.1053
vt 0.0000 0.8776
vt 0.1366 0.8773
vt 0.0000 0.1676
vt 0.1327 0.1675
vt 1.2681 0.1697
vt 1.2680 0.8820
vt 1.2477 0.1697
vt 1.2477 0.9146
vt 0.1369 0.9098
vt 0.0000 0.9101
vt 0.1313 0.1675
vt 0.0000 0.1676
vt 1.8819 0.8385
vt 1.8564 0.8385
vt 1.8819 0.1375
vt 1.8564 0.1053
vt 1.8564 1.0040
vt 1.8564 0.0166
vt 1.8819 1.0040
vt 1.8819 0.0166
vt 0.6551 0.9960
vt 0.6495 0.0040
vt 0.5177 0.9960
vt 0.5177 0.0040
vt 0.9994 1.2760
vt 0.9994 1.3018
vt 0.8617 1.2760
vt 0.8614 1.3018
vt 0.5177 0.0040
vt 0.6477 0.0040
vt 0.5177 0.9960
vt 0.6554 0.9960
vt 0.8623 1.3739
vt 0.8642 1.3481
vt 1.0009 1.3739
vt 1.0009 1.3481
vt 1.2681 0.0016
vt 1.2680 1.0051
vt 1.2477 0.0016
vt 1.2477 1.0051
vt 1.9637 0.9895
vt 1.9637 1.7828
vt 1.8652 0.9893
vt 1.8652 1.7826
vt 0.8238 0.1053
vt 0.8238 0.9350
vt 0.7994 0.1053
vt 0.7994 0.9350
vt 0.8481 0.1053
vt 0.8481 0.9350
vt 0.8238 0.1053
vt 0.8238 0.9350
vt 0.8282 1.1304
vt 0.8282 1.0951
vt 0.9777 1.1304
vt 0.9777 1.0951
vt 0.8282 1.1657
vt 0.8282 1.1304
vt 0.9777 1.1657
vt 0.9777 1.1304
vt 1.4631 1.0842
vt 1.4631 1.8779
vt 1.3646 1.0873
vt 1.3646 1.8810
vt 0.9692 0.1050
vt 0.9692 0.9351
vt 0.9464 0.1051
vt 0.9464 0.9352
vt 0.9935 0.1051
vt 0.9935 0.9352
vt 0.9707 0.1050
vt 0.9707 0.9351
vt 0.8267 1.1315
vt 0.8267 1.1646
vt 0.6772 1.1315
vt 0.6772 1.1646
vt 0.8267 1.1669
vt 0.8267 1.1999
vt 0.6772 1.1669
vt 0.6772 1.1999
vt 0.1375 0.0000
vt 0.2943 0.0000
vt 0.1451 1.0000
vt 0.2967 0.1819
vt 0.3265 0.2432
vt 0.3262 1.0000
vt 0.8563 1.3481
vt 0.8545 1.3739
vt 0.6914 1.3481
vt 0.6914 1.3739
vt 0.8542 1.2760
vt 0.8539 1.3018
vt 0.6709 1.2760
vt 0.6722 1.3018
vt 1.8819 1.0045
vt 1.8564 1.0045
vt 1.8819 0.0160
vt 1.8564 0.0160
vt 0.4709 0.9554
vt 0.4709 0.0178
vt 0.4908 0.9550
vt -0.0039 1.3481
vt 0.1707 1.3481
vt -0.0039 1.3739
vt 0.1707 1.3739
vt 0.8263 0.0000
vt 1.0000 0.0000
vt 0.8264 1.0000
vt 1.0000 1.0000
vt 0.1705 1.3018
vt -0.0036 1.3018
vt 0.1606 1.2760
vt -0.0036 1.2760
vt 1.0000 1.0000
vt 1.0000 0.0000
vt 0.8363 1.0000
vt 0.8263 0.0000
vt 0.4490 0.9550
vt 0.4709 0.0178
vt 0.4709 0.9554
vt 0.6728 1.3481
vt 0.6728 1.3739
vt 0.3265 0.0000
vt 0.1705 1.2760
vt 0.1705 1.3018
vt 0.3265 0.0000
vt 0.8264 1.0000
vt 0.3268 0.2465
vt 0.3276 1.0000
vt 1.2226 1.9518
vt 1.1241 1.9487
vt 1.2226 1.1581
vt 1.1241 1.1550
vt 1.1107 0.8001
vt 1.0794 0.7954
vt 1.1107 0.7065
vt 1.0794 0.6947
vt 1.0794 0.9383
vt 1.0794 0.5615
vt 1.1107 0.9383
vt 1.1107 0.5565
vt 1.0793 0.6006
vt 1.1108 0.6119
vt 1.0793 0.8943
vt 1.1106 0.8943
vt 0.1392 0.0000
vt 0.1448 1.0000
vt 0.2943 0.0000
vt 0.3083 0.1890
vt 1.2274 1.0051
vt 1.2274 0.0016
vt 1.2477 1.0051
vt 1.2477 0.0016
vt 1.6087 1.0099
vt 1.4872 1.0102
vt 1.6087 0.0312
vt 1.4872 0.0314
vn -0.7071 -0.7071 -0.0000
vn -0.7071 -0.7072 0.0000
vn -0.7070 -0.7072 0.0000
vn 0.7071 -0.7071 0.0000
vn 0.7071 -0.7072 0.0000
vn 0.7070 -0.7072 -0.0000
vn 0.0007 0.0003 1.0000
vn 0.0005 0.0005 1.0000
vn 0.0131 -0.0185 -0.9997
vn 0.0020 -0.0083 -1.0000
vn -0.0090 0.0019 -1.0000
vn 0.0130 -0.0184 -0.9997
vn -0.7044 0.7098 0.0000
vn 0.7044 -0.7098 -0.0000
vn 0.7044 0.7098 -0.0000
vn -0.0129 -0.0183 0.9998
vn -0.0019 -0.0082 1.0000
vn 0.0090 0.0019 1.0000
vn -0.7044 -0.7098 0.0000
vn -0.0005 0.0005 -1.0000
vn -0.0004 0.0005 -1.0000
vn -0.0007 0.0002 -1.0000
vn -0.0128 -0.0182 0.9998
vn 0.5942 -0.5942 -0.5420
vn 0.7071 0.7071 0.0000
vn -0.3822 0.3822 -0.8413
vn 0.3828 -0.3828 0.8408
vn 0.3828 -0.3829 0.8408
vn -0.6504 0.5292 0.5450
vn -0.6066 0.5760 0.5480
vn -0.5603 0.6205 0.5487
vn 0.0000 -1.0000 0.0000
vn -0.0021 0.0000 -1.0000
vn 0.0021 0.0000 1.0000
vn -1.0000 0.0000 0.0000
vn 1.0000 0.0000 0.0000
vn -0.0003 -1.0000 0.0000
vn 0.0293 0.0000 -0.9996
vn -0.0293 0.0000 0.9996
vn 0.0000 -0.0000 1.0000
vn 0.0011 -0.0000 -1.0000
vn -0.0057 -0.0001 -1.0000
vn -0.0122 0.0010 -0.9999
vn -1.0000 0.0000 0.0017
vn -1.0000 0.0004 0.0017
vn -0.9867 0.1626 -0.0016
vn 0.0000 0.0001 1.0000
vn 0.0010 -0.2352 -0.9720
vn -0.0000 1.0000 0.0000
vn 0.8989 0.4381 -0.0104
vn -0.0189 0.0015 -0.9998
vn -0.0188 0.0031 -0.9998
vn 0.0003 1.0000 0.0000
vn -0.9192 0.2593 0.2964
vn -0.9176 0.2736 0.2884
vn -0.9452 0.2334 0.2282
vn -0.9742 0.1471 0.1712
vn 1.0000 0.0000 -0.0008
vn 1.0000 -0.0002 -0.0008
vn 1.0000 -0.0006 -0.0008
vn -0.9452 0.2334 0.2281
vn -0.9906 0.0746 0.1143
vn -0.9922 0.0000 0.1244
vn 0.9963 0.0857 -0.0115
vn 0.9997 0.0216 -0.0102
vn 0.9991 -0.0426 -0.0089
usemtl wood_collect.007
s 1
f 1/1/1 2/2/1 3/3/2
f 3/3/2 2/2/1 4/4/3
f 5/5/1 6/6/1 7/7/2
f 7/7/2 6/6/1 8/8/3
f 9/9/4 10/10/5 11/11/6
f 11/11/6 10/10/5 12/12/6
f 13/13/5 14/14/5 15/15/5
f 15/15/5 14/14/5 16/16/6
f 17/17/7 18/18/7 19/19/8
f 19/19/8 18/18/7 20/20/8
f 21/21/9 22/22/10 23/23/10
f 23/23/10 22/22/10 24/24/11
f 25/25/7 26/26/7 27/27/8
f 27/27/8 26/26/7 28/28/8
f 29/29/12 30/30/10 31/31/10
f 31/31/10 30/30/10 32/32/11
f 33/33/13 34/34/13 35/35/13
f 35/35/13 34/34/13 36/36/13
f 37/37/14 38/38/14 39/39/14
f 39/39/14 38/38/14 40/40/14
f 41/41/13 42/42/13 43/43/13
f 43/43/13 42/42/13 44/44/13
f 45/45/14 46/46/14 47/47/14
f 47/47/14 46/46/14 48/48/14
f 49/49/15 50/50/15 51/51/15
f 51/51/15 50/50/15 52/52/15
f 53/53/16 54/54/17 55/55/17
f 55/55/17 54/54/17 56/56/18
f 57/57/19 58/58/19 59/59/19
f 59/59/19 58/58/19 60/60/19
f 61/61/20 62/62/20 63/63/21
f 63/63/21 62/62/20 64/64/22
f 65/65/15 66/66/15 67/67/15
f 67/67/15 66/66/15 68/68/15
f 69/69/23 70/70/17 71/71/17
f 71/71/17 70/70/17 72/72/18
f 73/73/19 74/74/19 75/75/19
f 75/75/19 74/74/19 76/76/19
f 77/77/20 78/78/20 79/79/22
f 79/79/22 78/78/20 80/80/22
f 81/81/24 82/82/24 83/83/24
f 83/83/24 82/82/24 84/84/24
f 85/85/25 86/86/25 87/87/25
f 87/87/25 86/86/25 88/88/25
f 89/89/26 90/90/26 91/91/26
f 91/91/26 90/90/26 92/92/26
f 93/93/1 94/94/1 95/95/1
f 95/95/1 94/94/1 96/96/1
f 97/97/27 98/98/28 99/99/28
f 99/99/28 98/98/28 100/100/28
f 101/101/29 102/102/30 103/103/30
f 103/103/30 102/102/30 104/104/31
f 105/105/32 106/106/32 107/107/32
f 107/107/32 106/106/32 108/108/32
f 109/109/33 110/110/33 111/111/33
f 111/111/33 110/110/33 112/112/33
f 113/113/34 114/114/34 115/115/34
f 115/115/34 114/114/34 116/116/34
f 117/117/35 118/118/35 119/119/35
f 119/119/35 118/118/35 120/120/35
f 121/121/36 122/122/36 123/123/36
f 123/123/36 122/122/36 124/124/36
f 125/125/37 126/126/37 127/127/37
f 127/127/37 126/126/37 128/128/37
f 129/129/38 130/130/38 131/131/38
f 131/131/38 130/130/38 132/132/38
f 133/133/39 134/134/39 135/135/39
f 135/135/39 134/134/39 136/136/39
f 137/137/35 138/138/35 139/139/35
f 139/139/35 138/138/35 140/140/35
f 141/141/36 142/142/36 143/143/36
f 143/143/36 142/142/36 144/144/36
f 145/145/32 146/146/32 147/147/32
f 146/146/32 148/148/32 147/147/32
f 148/148/32 149/149/32 147/147/32
f 147/147/32 149/149/32 150/150/32
f 151/151/40 152/152/40 153/153/40
f 153/153/40 152/152/40 154/154/40
f 155/155/41 156/156/41 157/157/42
f 157/157/42 156/156/41 158/158/43
f 159/159/44 160/160/44 161/161/45
f 161/161/45 160/160/44 162/162/45
f 163/163/46 164/164/46 165/165/46
f 166/166/47 167/167/40 168/168/47
f 168/168/47 167/167/40 169/169/40
f 170/170/32 171/171/32 172/172/32
f 172/172/32 171/171/32 173/173/32
f 174/174/48 175/175/48 176/176/48
f 176/176/48 175/175/48 177/177/48
f 178/178/49 179/179/49 180/180/49
f 180/180/49 179/179/49 181/181/49
f 182/182/50 183/183/50 184/184/50
f 167/167/40 185/185/40 169/169/40
f 169/169/40 185/185/40 186/186/40
f 150/150/32 149/149/32 172/172/32
f 187/187/32 170/170/32 149/149/32
f 149/149/32 170/170/32 172/172/32
f 157/157/42 158/158/43 188/188/51
f 188/188/51 158/158/43 189/189/52
f 181/181/49 190/190/49 191/191/49
f 190/190/49 192/192/49 191/191/49
f 191/191/49 192/192/49 193/193/49
f 194/194/53 195/195/53 196/196/53
f 196/196/53 195/195/53 197/197/53
f 198/198/54 199/199/55 200/200/56
f 200/200/56 199/199/55 201/201/57
f 202/202/58 203/203/59 204/204/58
f 204/204/58 203/203/59 205/205/60
f 206/206/61 207/207/57 208/208/62
f 208/208/62 207/207/57 209/209/63
f 210/210/49 211/211/49 212/212/49
f 212/212/49 211/211/49 213/213/49
f 213/213/49 211/211/49 192/192/49
f 211/211/49 193/193/49 192/192/49
f 214/214/64 215/215/65 216/216/65
f 216/216/65 215/215/65 217/217/66
f 218/218/49 219/219/49 220/220/49
f 220/220/49 219/219/49 221/221/49
