# Blender v2.78 (sub 0) OBJ File: 'Комбинезон Наёмников.blend'
# www.blender.org
o LArm
v -0.170983 1.103499 -0.335245
v -0.170983 1.242490 -0.430481
v -0.170983 1.242489 -0.335086
v -0.165808 1.209420 -0.457182
v -0.128561 1.276058 -0.452761
v -0.165808 1.123305 -0.309657
v -0.170983 1.095704 -0.430322
v -0.128561 1.071761 -0.312778
v -0.128561 1.060304 -0.452527
v -0.128561 1.100873 -0.275167
v -0.165808 1.222684 -0.309498
v -0.128561 1.246946 -0.274933
v -0.128561 1.276058 -0.312544
v -0.165808 1.128773 -0.457022
v -0.128561 1.227451 -0.492008
v -0.128561 1.108911 -0.491773
v -0.131193 0.814179 -0.244263
v 0.127559 1.507681 -0.247441
v 0.131193 0.814179 -0.244263
v 0.131193 0.792328 -0.505737
v -0.127559 1.507681 -0.502559
v -0.131193 0.792328 -0.505737
v -0.127559 1.507681 -0.247441
v 0.127559 1.507681 -0.502559
vt 0.5713 0.9503
vt 0.5238 0.9503
vt 0.5238 0.9178
vt 0.5351 0.9087
vt 0.5124 0.9102
vt 0.5645 0.9590
vt 0.5739 0.9178
vt 0.5860 0.9102
vt 0.5821 0.9579
vt 0.5722 0.9708
vt 0.5223 0.9709
vt 0.5306 0.9591
vt 0.5124 0.9580
vt 0.5627 0.9087
vt 0.5290 0.8968
vt 0.5694 0.8969
vt 0.7133 0.8928
vt 0.7133 0.7891
vt 0.4017 0.7891
vt 0.7133 0.8459
vt 0.7131 0.9019
vt 0.4009 0.9019
vt 0.3250 0.8158
vt 0.3250 0.8773
vt 0.3884 0.8773
vt 0.4380 0.8466
vt 0.4380 0.7914
vt 0.3828 0.7914
vt 0.7133 0.7896
vt 0.7135 0.8459
vt 0.4009 0.8459
vt 0.7122 0.9761
vt 0.4009 0.9761
vt 0.4009 0.9014
vt 0.4017 0.8928
vt 0.3884 0.8158
vt 0.3828 0.8466
vt 0.4009 0.7896
vt 0.7122 0.9014
vn -0.8828 -0.4227 0.2047
vn -0.8836 0.4309 0.1831
vn -0.8748 0.4264 -0.2299
vn -0.8541 0.1312 -0.5033
vn -0.7017 0.6303 -0.3322
vn -0.8496 -0.1790 0.4962
vn -0.8808 -0.4342 -0.1887
vn -0.6987 -0.6503 -0.2981
vn -0.6865 -0.6644 0.2954
vn -0.7396 -0.3084 0.5982
vn -0.7471 0.3072 0.5894
vn -0.8520 0.1717 0.4946
vn -0.7002 0.6623 0.2665
vn -0.8601 -0.1080 -0.4985
vn -0.7225 0.2410 -0.6480
vn -0.7115 -0.2356 -0.6620
vn 0.0000 0.0046 1.0000
vn 0.0000 0.0044 -1.0000
vn 0.0000 1.0000 0.0000
vn 0.0000 -0.9965 0.0833
vn 1.0000 0.0051 -0.0003
vn 1.0000 0.0051 -0.0004
vn 1.0000 0.0052 -0.0001
vn -1.0000 0.0051 -0.0003
vn -1.0000 0.0052 0.0000
vn -1.0000 0.0052 -0.0001
vn 1.0000 0.0052 0.0000
vn -1.0000 0.0051 -0.0004
s 1
f 1/1/1 3/2/2 2/3/3
f 4/4/4 2/3/3 5/5/5
f 3/2/2 1/1/1 6/6/6
f 7/7/7 9/8/8 8/9/9
f 5/5/5 2/3/3 3/2/2
f 10/10/10 12/11/11 11/12/12
f 6/6/6 1/1/1 8/9/9
f 13/13/13 3/2/2 11/12/12
f 14/14/14 4/4/4 15/15/15
f 14/14/14 7/7/7 2/3/3
f 16/16/16 9/8/8 7/7/7
f 17/17/17 19/18/17 18/19/17
f 20/20/18 22/21/18 21/22/18
f 23/23/19 18/24/19 24/25/19
f 22/26/20 20/27/20 19/28/20
f 19/29/21 20/30/22 24/31/23
f 17/32/24 23/33/25 21/34/26
f 1/1/1 2/3/3 7/7/7
f 4/4/4 5/5/5 15/15/15
f 3/2/2 6/6/6 11/12/12
f 7/7/7 8/9/9 1/1/1
f 5/5/5 3/2/2 13/13/13
f 10/10/10 11/12/12 6/6/6
f 6/6/6 8/9/9 10/10/10
f 13/13/13 11/12/12 12/11/11
f 14/14/14 15/15/15 16/16/16
f 14/14/14 2/3/3 4/4/4
f 16/16/16 7/7/7 14/14/14
f 17/17/17 18/19/17 23/35/17
f 20/20/18 21/22/18 24/31/18
f 23/23/19 24/25/19 21/36/19
f 22/26/20 19/28/20 17/37/20
f 19/29/21 24/31/23 18/38/27
f 17/32/24 21/34/26 22/39/28
