# ..:::Stalker models:::..
# WebSite: http://excalibur-craft.ru
mtllib zapor4.mtl
o 0
v 0.019237 1.617613 0.127547
v 0.019237 0.004415 0.305645
v -0.020763 0.004415 0.305645
v -0.020763 1.617613 0.127547
v 0.019237 1.626578 0.208750
v 0.019237 0.013380 0.386849
v -0.020763 0.013380 0.386849
v -0.020763 1.626578 0.208750
v 0.019151 1.622485 -0.235352
v 0.018873 -0.000302 -0.261586
v -0.021126 -0.000294 -0.261644
v -0.020849 1.622493 -0.235410
v 0.019031 1.621164 -0.153665
v 0.018754 -0.001624 -0.179899
v -0.021246 -0.001615 -0.179958
v -0.020969 1.621172 -0.153724
v -0.019949 0.274753 -0.496521
v -0.019949 0.274753 0.505127
v -0.059949 0.274753 0.505127
v -0.059949 0.274753 -0.496521
v -0.019949 0.402037 -0.496521
v -0.019949 0.402037 0.505128
v -0.059949 0.402038 0.505127
v -0.059949 0.402038 -0.496521
v 0.019237 1.623644 0.415531
v 0.019237 0.000644 0.415530
v -0.020763 0.000644 0.415530
v -0.020763 1.623644 0.415530
v 0.019237 1.623643 0.497227
v 0.019237 0.000644 0.497227
v -0.020763 0.000644 0.497227
v -0.020763 1.623644 0.497228
v -0.021359 1.138550 -0.496521
v -0.021359 1.138550 0.505127
v -0.061359 1.138550 0.505127
v -0.061359 1.138550 -0.496521
v -0.021359 1.265835 -0.496521
v -0.021359 1.265835 0.505127
v -0.061359 1.265835 0.505127
v -0.061359 1.265835 -0.496521
v 0.019237 1.623644 -0.429102
v 0.019237 0.000644 -0.429102
v -0.020763 0.000644 -0.429102
v -0.020763 1.623644 -0.429102
v 0.019237 1.623643 -0.347405
v 0.019237 0.000643 -0.347405
v -0.020763 0.000644 -0.347405
v -0.020763 1.623644 -0.347405
vt 0.8348 0.1160
vt 0.7704 0.1152
vt 0.7681 0.8895
vt 0.8336 0.8904
vt 0.5680 0.1027
vt 0.5169 0.1027
vt 0.5070 0.8755
vt 0.5556 0.8730
vt 0.7639 0.1111
vt 0.6831 0.1111
vt 0.6756 0.8839
vt 0.7540 0.8815
vt 0.6685 0.9753
vt 0.5803 0.9743
vt 0.5803 0.9981
vt 0.6685 0.9966
vt 0.4024 0.1064
vt 0.3174 0.1055
vt 0.3135 0.8792
vt 0.3949 0.8792
vt 0.7587 0.9758
vt 0.6754 0.9758
vt 0.6751 0.9996
vt 0.7597 0.9990
vt 0.8348 0.1160
vt 0.7704 0.1152
vt 0.7681 0.8895
vt 0.8336 0.8904
vt 0.5680 0.1027
vt 0.5169 0.1027
vt 0.5070 0.8755
vt 0.5556 0.8730
vt 0.6702 0.0924
vt 0.5893 0.0924
vt 0.5819 0.8652
vt 0.6602 0.8627
vt 0.6685 0.9753
vt 0.5803 0.9743
vt 0.5803 0.9981
vt 0.6685 0.9966
vt 0.7649 0.1111
vt 0.6799 0.1102
vt 0.6760 0.8839
vt 0.7574 0.8839
vt 0.7587 0.9758
vt 0.6754 0.9758
vt 0.6751 0.9996
vt 0.7597 0.9990
vt 0.0214 0.0061
vt 0.0066 0.9276
vt 0.0546 0.9251
vt 0.0614 0.0086
vt 0.4703 0.0186
vt 0.4414 0.0167
vt 0.4311 0.9783
vt 0.4674 0.9799
vt 0.6672 0.0049
vt 0.5898 0.0069
vt 0.5859 0.9957
vt 0.6672 0.9947
vt 0.8304 0.9450
vt 0.7686 0.9450
vt 0.7686 0.9818
vt 0.8327 0.9810
vt 0.8378 0.0030
vt 0.7539 0.0018
vt 0.7539 0.9916
vt 0.8382 0.9911
vt 0.2282 0.9595
vt 0.1502 0.9574
vt 0.1513 0.9957
vt 0.2285 0.9953
vt 0.3402 0.0577
vt 0.3222 0.9057
vt 0.3656 0.9064
vt 0.3817 0.0586
vt 0.4703 0.0186
vt 0.4414 0.0167
vt 0.4311 0.9783
vt 0.4674 0.9799
vt 0.9249 0.0006
vt 0.8476 0.0014
vt 0.8437 0.9903
vt 0.9250 0.9893
vt 0.8304 0.9450
vt 0.7686 0.9450
vt 0.7686 0.9818
vt 0.8327 0.9810
vt 0.2276 0.0050
vt 0.1436 0.0037
vt 0.1436 0.9936
vt 0.2279 0.9931
vt 0.2282 0.9595
vt 0.1502 0.9574
vt 0.1513 0.9957
vt 0.2285 0.9953
vt 0.3402 0.0905
vt 0.3347 0.9948
vt 0.3703 0.9923
vt 0.3801 0.0820
vt 0.4703 0.0186
vt 0.4414 0.0167
vt 0.4311 0.9783
vt 0.4674 0.9799
vt 0.5707 0.0010
vt 0.4933 0.0029
vt 0.4894 0.9918
vt 0.5707 0.9908
vt 0.8304 0.9450
vt 0.7686 0.9450
vt 0.7686 0.9818
vt 0.8327 0.9810
vt 0.6587 0.0030
vt 0.5748 0.0018
vt 0.5748 0.9916
vt 0.6590 0.9911
vt 0.2282 0.9595
vt 0.1502 0.9574
vt 0.1513 0.9957
vt 0.2285 0.9953
vt 0.7468 0.9583
vt 0.7522 0.0028
vt 0.6822 0.0096
vt 0.6793 0.9590
vt 0.4703 0.0186
vt 0.4414 0.0167
vt 0.4311 0.9783
vt 0.4674 0.9799
vt 0.3955 0.0010
vt 0.3181 0.0029
vt 0.3142 0.9918
vt 0.3955 0.9908
vt 0.8304 0.9450
vt 0.7686 0.9450
vt 0.7686 0.9818
vt 0.8327 0.9810
vt 0.6626 0.0030
vt 0.5787 0.0018
vt 0.5787 0.9916
vt 0.6629 0.9911
vt 0.2282 0.9595
vt 0.1502 0.9574
vt 0.1513 0.9957
vt 0.2285 0.9953
vn -0.0000 -1.0000 -0.0000
vn 0.0000 1.0000 0.0000
vn 1.0000 -0.0000 0.0000
vn -0.0000 -0.0000 1.0000
vn -1.0000 0.0000 -0.0000
vn 0.0000 0.0000 -1.0000
vn 0.0000 -0.1097 -0.9940
vn 0.0000 0.1097 0.9940
vn -0.0000 -0.9940 0.1097
vn 0.0000 0.9940 -0.1097
vn 0.0015 0.0162 -0.9999
vn -0.0015 -0.0162 0.9999
vn 1.0000 -0.0002 0.0015
vn -0.0002 -0.9999 -0.0162
vn -1.0000 0.0002 -0.0015
vn 0.0002 0.9999 0.0162
usemtl Material.010
s off
f 33/1/1 34/2/1 35/3/1 36/4/1
f 37/5/2 40/6/2 39/7/2 38/8/2
f 33/9/3 37/10/3 38/11/3 34/12/3
f 34/13/4 38/14/4 39/15/4 35/16/4
f 35/17/5 39/18/5 40/19/5 36/20/5
f 37/21/6 33/22/6 36/23/6 40/24/6
usemtl Material
f 17/25/1 18/26/1 19/27/1 20/28/1
f 21/29/2 24/30/2 23/31/2 22/32/2
f 17/33/3 21/34/3 22/35/3 18/36/3
f 18/37/4 22/38/4 23/39/4 19/40/4
f 19/41/5 23/42/5 24/43/5 20/44/5
f 21/45/6 17/46/6 20/47/6 24/48/6
usemtl Material.003
f 25/49/6 26/50/6 27/51/6 28/52/6
f 29/53/4 32/54/4 31/55/4 30/56/4
f 25/57/3 29/58/3 30/59/3 26/60/3
f 26/61/1 30/62/1 31/63/1 27/64/1
f 27/65/5 31/66/5 32/67/5 28/68/5
f 29/69/2 25/70/2 28/71/2 32/72/2
usemtl Material.011
f 1/73/7 2/74/7 3/75/7 4/76/7
f 5/77/8 8/78/8 7/79/8 6/80/8
f 1/81/3 5/82/3 6/83/3 2/84/3
f 2/85/9 6/86/9 7/87/9 3/88/9
f 3/89/5 7/90/5 8/91/5 4/92/5
f 5/93/10 1/94/10 4/95/10 8/96/10
usemtl Material.012
f 9/97/11 10/98/11 11/99/11 12/100/11
f 13/101/12 16/102/12 15/103/12 14/104/12
f 9/105/13 13/106/13 14/107/13 10/108/13
f 10/109/14 14/110/14 15/111/14 11/112/14
f 11/113/15 15/114/15 16/115/15 12/116/15
f 13/117/16 9/118/16 12/119/16 16/120/16
usemtl Material.015
f 41/121/6 42/122/6 43/123/6 44/124/6
f 45/125/4 48/126/4 47/127/4 46/128/4
f 41/129/3 45/130/3 46/131/3 42/132/3
f 42/133/1 46/134/1 47/135/1 43/136/1
f 43/137/5 47/138/5 48/139/5 44/140/5
f 45/141/2 41/142/2 44/143/2 48/144/2
