# ..:::Stalker models:::..
# WebSite: http://excalibur-craft.ru
mtllib zapor2.mtl
o 0
v 0.019237 1.633074 0.230628
v 0.019237 0.011382 0.295762
v -0.020763 0.011382 0.295762
v -0.020763 1.633074 0.230628
v 0.019237 1.636352 0.312259
v 0.019237 0.014660 0.377393
v -0.020763 0.014660 0.377393
v -0.020763 1.636353 0.312259
v 0.019237 1.622146 0.086337
v 0.019237 -0.000554 0.055180
v -0.020763 -0.000554 0.055180
v -0.020763 1.622147 0.086337
v 0.019237 1.620578 0.168019
v 0.019237 -0.002123 0.136862
v -0.020763 -0.002123 0.136862
v -0.020763 1.620578 0.168019
v 0.019237 1.608757 -0.338351
v 0.019237 -0.011919 -0.251528
v -0.020763 -0.011919 -0.251528
v -0.020763 1.608758 -0.338351
v 0.019237 1.613127 -0.256771
v 0.019237 -0.007549 -0.169948
v -0.020763 -0.007548 -0.169948
v -0.020763 1.613128 -0.256771
v -0.019949 0.274752 -0.496521
v -0.019949 0.274752 0.505127
v -0.059949 0.274753 0.505127
v -0.059949 0.274753 -0.496521
v -0.019949 0.402037 -0.496521
v -0.019949 0.402037 0.505128
v -0.059949 0.402037 0.505127
v -0.059949 0.402037 -0.496521
v 0.019237 1.623644 0.415530
v 0.019237 0.000644 0.415530
v -0.020763 0.000644 0.415530
v -0.020763 1.623644 0.415530
v 0.019237 1.623643 0.497227
v 0.019237 0.000643 0.497227
v -0.020763 0.000644 0.497227
v -0.020763 1.623644 0.497228
v -0.021359 1.138550 -0.496521
v -0.021359 1.138550 0.505127
v -0.061359 1.138550 0.505127
v -0.061359 1.138550 -0.496521
v -0.021359 1.265835 -0.496521
v -0.021359 1.265835 0.505128
v -0.061359 1.265835 0.505127
v -0.061359 1.265835 -0.496521
v 0.019237 1.623644 -0.098208
v 0.019237 0.000644 -0.098208
v -0.020763 0.000644 -0.098208
v -0.020763 1.623644 -0.098208
v 0.019237 1.623643 -0.016511
v 0.019237 0.000643 -0.016511
v -0.020763 0.000644 -0.016511
v -0.020763 1.623644 -0.016511
v 0.019237 1.623644 -0.429102
v 0.019237 0.000644 -0.429102
v -0.020763 0.000644 -0.429102
v -0.020763 1.623644 -0.429102
v 0.019237 1.623643 -0.347405
v 0.019237 0.000643 -0.347405
v -0.020763 0.000644 -0.347405
v -0.020763 1.623644 -0.347405
vt 0.8348 0.1160
vt 0.7704 0.1152
vt 0.7681 0.8895
vt 0.8336 0.8904
vt 0.5680 0.1027
vt 0.5169 0.1027
vt 0.5070 0.8755
vt 0.5556 0.8730
vt 0.7639 0.1111
vt 0.6831 0.1111
vt 0.6756 0.8839
vt 0.7540 0.8815
vt 0.6685 0.9753
vt 0.5803 0.9743
vt 0.5803 0.9981
vt 0.6685 0.9966
vt 0.4024 0.1064
vt 0.3174 0.1055
vt 0.3135 0.8792
vt 0.3949 0.8792
vt 0.7587 0.9758
vt 0.6754 0.9758
vt 0.6751 0.9996
vt 0.7597 0.9990
vt 0.8348 0.1160
vt 0.7704 0.1152
vt 0.7681 0.8895
vt 0.8336 0.8904
vt 0.5680 0.1027
vt 0.5169 0.1027
vt 0.5070 0.8755
vt 0.5556 0.8730
vt 0.6702 0.0924
vt 0.5893 0.0924
vt 0.5819 0.8652
vt 0.6602 0.8627
vt 0.6685 0.9753
vt 0.5803 0.9743
vt 0.5803 0.9981
vt 0.6685 0.9966
vt 0.7649 0.1111
vt 0.6799 0.1102
vt 0.6760 0.8839
vt 0.7574 0.8839
vt 0.7587 0.9758
vt 0.6754 0.9758
vt 0.6751 0.9996
vt 0.7597 0.9990
vt 0.0214 0.0061
vt 0.0066 0.9276
vt 0.0546 0.9251
vt 0.0614 0.0086
vt 0.4703 0.0186
vt 0.4414 0.0167
vt 0.4311 0.9783
vt 0.4674 0.9799
vt 0.6672 0.0049
vt 0.5898 0.0069
vt 0.5859 0.9957
vt 0.6672 0.9947
vt 0.8304 0.9450
vt 0.7686 0.9450
vt 0.7686 0.9818
vt 0.8327 0.9810
vt 0.8378 0.0030
vt 0.7539 0.0018
vt 0.7539 0.9916
vt 0.8382 0.9911
vt 0.2282 0.9595
vt 0.1502 0.9574
vt 0.1513 0.9957
vt 0.2285 0.9953
vt 0.3402 0.0577
vt 0.3222 0.9057
vt 0.3656 0.9064
vt 0.3817 0.0586
vt 0.4703 0.0186
vt 0.4414 0.0167
vt 0.4311 0.9783
vt 0.4674 0.9799
vt 0.9249 0.0006
vt 0.8476 0.0014
vt 0.8437 0.9903
vt 0.9250 0.9893
vt 0.8304 0.9450
vt 0.7686 0.9450
vt 0.7686 0.9818
vt 0.8327 0.9810
vt 0.2276 0.0050
vt 0.1436 0.0037
vt 0.1436 0.9936
vt 0.2279 0.9931
vt 0.2282 0.9595
vt 0.1502 0.9574
vt 0.1513 0.9957
vt 0.2285 0.9953
vt 0.3402 0.0905
vt 0.3347 0.9948
vt 0.3703 0.9923
vt 0.3801 0.0820
vt 0.4703 0.0186
vt 0.4414 0.0167
vt 0.4311 0.9783
vt 0.4674 0.9799
vt 0.5707 0.0010
vt 0.4933 0.0029
vt 0.4894 0.9918
vt 0.5707 0.9908
vt 0.8304 0.9450
vt 0.7686 0.9450
vt 0.7686 0.9818
vt 0.8327 0.9810
vt 0.6587 0.0030
vt 0.5748 0.0018
vt 0.5748 0.9916
vt 0.6590 0.9911
vt 0.2282 0.9595
vt 0.1502 0.9574
vt 0.1513 0.9957
vt 0.2285 0.9953
vt 0.2464 0.0069
vt 0.2379 0.9361
vt 0.2928 0.9332
vt 0.2973 0.0095
vt 0.4703 0.0186
vt 0.4414 0.0167
vt 0.4311 0.9783
vt 0.4674 0.9799
vt 0.1405 0.0040
vt 0.0756 0.0034
vt 0.0735 0.9883
vt 0.1416 0.9888
vt 0.8304 0.9450
vt 0.7686 0.9450
vt 0.7686 0.9818
vt 0.8327 0.9810
vt 0.7630 0.0069
vt 0.6791 0.0057
vt 0.6791 0.9955
vt 0.7633 0.9950
vt 0.2282 0.9595
vt 0.1502 0.9574
vt 0.1513 0.9957
vt 0.2285 0.9953
vt 0.3350 0.0699
vt 0.3324 0.9814
vt 0.3932 0.9766
vt 0.3899 0.0724
vt 0.4703 0.0186
vt 0.4414 0.0167
vt 0.4311 0.9783
vt 0.4674 0.9799
vt 0.5773 0.0010
vt 0.5000 0.0030
vt 0.4960 0.9918
vt 0.5773 0.9908
vt 0.8304 0.9450
vt 0.7686 0.9450
vt 0.7686 0.9818
vt 0.8327 0.9810
vt 0.9225 0.0010
vt 0.8386 0.0008
vt 0.8386 0.9896
vt 0.9228 0.9891
vt 0.2282 0.9595
vt 0.1502 0.9574
vt 0.1513 0.9957
vt 0.2285 0.9953
vt 0.7468 0.9583
vt 0.7522 0.0028
vt 0.6822 0.0096
vt 0.6793 0.9590
vt 0.4703 0.0186
vt 0.4414 0.0167
vt 0.4311 0.9783
vt 0.4674 0.9799
vt 0.3955 0.0010
vt 0.3181 0.0029
vt 0.3142 0.9918
vt 0.3955 0.9908
vt 0.8304 0.9450
vt 0.7686 0.9450
vt 0.7686 0.9818
vt 0.8327 0.9810
vt 0.6626 0.0030
vt 0.5787 0.0018
vt 0.5787 0.9916
vt 0.6629 0.9911
vt 0.2282 0.9595
vt 0.1502 0.9574
vt 0.1513 0.9957
vt 0.2285 0.9953
vn 0.0000 -1.0000 -0.0000
vn 0.0000 1.0000 0.0000
vn 1.0000 0.0000 0.0000
vn -0.0000 -0.0000 1.0000
vn -1.0000 -0.0000 -0.0000
vn 0.0000 0.0000 -1.0000
vn 0.0000 -0.0401 -0.9992
vn -0.0000 0.0401 0.9992
vn -0.0000 -0.9992 0.0401
vn 0.0000 0.9992 -0.0401
vn -0.0000 0.0192 -0.9998
vn 0.0000 -0.0192 0.9998
vn -0.0000 -0.9998 -0.0192
vn 0.0000 0.9998 0.0192
vn -0.0000 -0.0535 -0.9986
vn 0.0000 0.0535 0.9986
vn -0.0000 -0.9986 0.0535
vn 0.0000 0.9986 -0.0535
usemtl Material.010
s off
f 41/1/1 42/2/1 43/3/1 44/4/1
f 45/5/2 48/6/2 47/7/2 46/8/2
f 41/9/3 45/10/3 46/11/3 42/12/3
f 42/13/4 46/14/4 47/15/4 43/16/4
f 43/17/5 47/18/5 48/19/5 44/20/5
f 45/21/6 41/22/6 44/23/6 48/24/6
usemtl Material
f 25/25/1 26/26/1 27/27/1 28/28/1
f 29/29/2 32/30/2 31/31/2 30/32/2
f 25/33/3 29/34/3 30/35/3 26/36/3
f 26/37/4 30/38/4 31/39/4 27/40/4
f 27/41/5 31/42/5 32/43/5 28/44/5
f 29/45/6 25/46/6 28/47/6 32/48/6
usemtl Material.003
f 33/49/6 34/50/6 35/51/6 36/52/6
f 37/53/4 40/54/4 39/55/4 38/56/4
f 33/57/3 37/58/3 38/59/3 34/60/3
f 34/61/1 38/62/1 39/63/1 35/64/1
f 35/65/5 39/66/5 40/67/5 36/68/5
f 37/69/2 33/70/2 36/71/2 40/72/2
usemtl Material.011
f 1/73/7 2/74/7 3/75/7 4/76/7
f 5/77/8 8/78/8 7/79/8 6/80/8
f 1/81/3 5/82/3 6/83/3 2/84/3
f 2/85/9 6/86/9 7/87/9 3/88/9
f 3/89/5 7/90/5 8/91/5 4/92/5
f 5/93/10 1/94/10 4/95/10 8/96/10
usemtl Material.012
f 9/97/11 10/98/11 11/99/11 12/100/11
f 13/101/12 16/102/12 15/103/12 14/104/12
f 9/105/3 13/106/3 14/107/3 10/108/3
f 10/109/13 14/110/13 15/111/13 11/112/13
f 11/113/5 15/114/5 16/115/5 12/116/5
f 13/117/14 9/118/14 12/119/14 16/120/14
usemtl Material.013
f 49/121/6 50/122/6 51/123/6 52/124/6
f 53/125/4 56/126/4 55/127/4 54/128/4
f 49/129/3 53/130/3 54/131/3 50/132/3
f 50/133/1 54/134/1 55/135/1 51/136/1
f 51/137/5 55/138/5 56/139/5 52/140/5
f 53/141/2 49/142/2 52/143/2 56/144/2
usemtl Material.014
f 17/145/15 18/146/15 19/147/15 20/148/15
f 21/149/16 24/150/16 23/151/16 22/152/16
f 17/153/3 21/154/3 22/155/3 18/156/3
f 18/157/17 22/158/17 23/159/17 19/160/17
f 19/161/5 23/162/5 24/163/5 20/164/5
f 21/165/18 17/166/18 20/167/18 24/168/18
usemtl Material.015
f 57/169/6 58/170/6 59/171/6 60/172/6
f 61/173/4 64/174/4 63/175/4 62/176/4
f 57/177/3 61/178/3 62/179/3 58/180/3
f 58/181/1 62/182/1 63/183/1 59/184/1
f 59/185/5 63/186/5 64/187/5 60/188/5
f 61/189/2 57/190/2 60/191/2 64/192/2
