# ..:::Stalker models:::..
# WebSite: http://excalibur-craft.ru
mtllib diagonal.mtl
o Object01.001
v 0.937500 0.125000 -0.687500
v 0.687500 0.125000 -0.687500
v 0.687500 0.125000 0.687500
v 0.687500 0.187500 0.687500
v 0.687500 0.187500 -0.687500
v 0.937500 0.187500 -0.687500
v 0.937500 0.125000 0.687500
v 0.937500 0.187500 0.687500
v 0.875000 0.312500 -0.687500
v 0.750000 0.312500 -0.687500
v 0.750000 0.312500 0.687500
v 0.750000 0.375000 0.687500
v 0.750000 0.375000 -0.687500
v 0.875000 0.375000 -0.687500
v 0.875000 0.375000 0.687500
v 0.875000 0.312500 0.687500
v 0.843700 0.187500 -0.687500
v 0.843700 0.312500 -0.687500
v 0.781200 0.312500 -0.687500
v 0.843700 0.187500 0.687500
v 0.843700 0.312500 0.687500
v 0.781200 0.187500 0.687500
v 0.781200 0.312500 0.687500
v 0.781200 0.187500 -0.687500
v -0.937500 0.125000 0.687500
v -0.687500 0.125000 0.687500
v -0.687500 0.125000 -0.687500
v -0.687500 0.187500 -0.687500
v -0.687500 0.187500 0.687500
v -0.937500 0.187500 0.687500
v -0.937500 0.125000 -0.687500
v -0.937500 0.187500 -0.687500
v -0.875000 0.312500 0.687500
v -0.750000 0.312500 0.687500
v -0.750000 0.312500 -0.687500
v -0.750000 0.375000 -0.687500
v -0.750000 0.375000 0.687500
v -0.875000 0.375000 0.687500
v -0.875000 0.312500 -0.687500
v -0.875000 0.375000 -0.687500
v -0.843700 0.187500 0.687500
v -0.843700 0.312500 0.687500
v -0.781200 0.312500 0.687500
v -0.843700 0.187500 -0.687500
v -0.843700 0.312500 -0.687500
v -0.781200 0.187500 -0.687500
v -0.781200 0.312500 -0.687500
v -0.781200 0.187500 0.687500
v 1.250000 -0.000000 0.468700
v 1.250000 -0.000000 0.218800
v -1.250000 -0.000000 0.218800
v 1.250000 0.125000 0.468700
v -1.250000 0.125000 0.468700
v -1.250000 0.125000 0.218800
v 1.250000 0.125000 0.218800
v 1.250000 0.000000 -0.218800
v 1.250000 0.000000 -0.468800
v -1.250000 0.000000 -0.468800
v 1.250000 0.125000 -0.218700
v -1.250000 0.125000 -0.218700
v -1.250000 0.125000 -0.468800
v 1.250000 0.125000 -0.468800
v -1.250000 -0.000000 0.468700
v -1.250000 0.000000 -0.218800
vt 0.2656 0.8047
vt 0.2656 0.8359
vt 0.1719 0.8359
vt 0.1797 0.7109
vt 0.0078 0.7109
vt 0.0078 0.6797
vt 0.0469 0.7969
vt 0.0469 0.8047
vt 0.0156 0.8047
vt 0.3750 0.6797
vt 0.2031 0.6797
vt 0.2031 0.6719
vt 0.1719 0.8047
vt 0.1719 0.7969
vt 0.2031 0.7969
vt 0.1797 0.6719
vt 0.1797 0.6797
vt 0.0078 0.6797
vt 0.4063 0.7188
vt 0.4063 0.7344
vt 0.2344 0.7344
vt 0.1797 0.7656
vt 0.0078 0.7656
vt 0.0078 0.7500
vt 0.3594 0.8594
vt 0.3594 0.8672
vt 0.3438 0.8672
vt 0.2266 0.7656
vt 0.3984 0.7656
vt 0.3984 0.7734
vt 0.5000 0.8594
vt 0.5000 0.8672
vt 0.4844 0.8672
vt 0.3984 0.7422
vt 0.3984 0.7500
vt 0.2266 0.7500
vt 0.3516 0.8281
vt 0.3516 0.8438
vt 0.3438 0.8438
vt 0.3594 0.8281
vt 0.3594 0.8438
vt 0.5313 0.8438
vt 0.3516 0.8047
vt 0.3516 0.8203
vt 0.3438 0.8203
vt 0.3594 0.8047
vt 0.3594 0.8203
vt 0.5313 0.8203
vt 0.2656 0.8047
vt 0.2656 0.8359
vt 0.1719 0.8359
vt 0.1797 0.7109
vt 0.0078 0.7109
vt 0.0078 0.6797
vt 0.0469 0.7969
vt 0.0469 0.8047
vt 0.0156 0.8047
vt 0.3750 0.6719
vt 0.3750 0.6797
vt 0.2031 0.6797
vt 0.2031 0.7969
vt 0.2031 0.8047
vt 0.1719 0.8047
vt 0.0078 0.6719
vt 0.1797 0.6719
vt 0.1797 0.6797
vt 0.4063 0.7188
vt 0.4063 0.7344
vt 0.2344 0.7344
vt 0.1797 0.7656
vt 0.0078 0.7656
vt 0.0078 0.7500
vt 0.3594 0.8594
vt 0.3594 0.8672
vt 0.3438 0.8672
vt 0.3984 0.7656
vt 0.3984 0.7734
vt 0.2266 0.7734
vt 0.5000 0.8594
vt 0.5000 0.8672
vt 0.4844 0.8672
vt 0.2266 0.7422
vt 0.3984 0.7422
vt 0.3984 0.7500
vt 0.3516 0.8281
vt 0.3516 0.8438
vt 0.3438 0.8438
vt 0.3594 0.8281
vt 0.3594 0.8438
vt 0.5313 0.8438
vt 0.3516 0.8047
vt 0.3516 0.8203
vt 0.3438 0.8203
vt 0.3594 0.8047
vt 0.3594 0.8203
vt 0.5313 0.8203
vt 0.3438 0.9531
vt 0.3438 0.9219
vt 0.6563 0.9219
vt 0.0313 0.9219
vt 0.3438 0.9219
vt 0.3438 0.9531
vt 0.0313 0.9688
vt 0.3438 0.9688
vt 0.3438 0.9531
vt 0.3438 0.9688
vt 0.3750 0.9688
vt 0.3750 0.9531
vt 0.3750 0.9688
vt 0.6875 0.9688
vt 0.6875 0.9531
vt 0.0000 0.9531
vt 0.0000 0.9688
vt 0.0313 0.9688
vt 0.3438 0.9531
vt 0.3438 0.9219
vt 0.6563 0.9219
vt 0.0313 0.9219
vt 0.3438 0.9219
vt 0.3438 0.9531
vt 0.0313 0.9688
vt 0.3438 0.9688
vt 0.3438 0.9531
vt 0.3438 0.9688
vt 0.3750 0.9688
vt 0.3750 0.9531
vt 0.3750 0.9688
vt 0.6875 0.9688
vt 0.6875 0.9531
vt 0.0000 0.9531
vt 0.0000 0.9688
vt 0.0313 0.9688
vt 0.1719 0.8047
vt 0.1797 0.6797
vt 0.0156 0.7969
vt 0.3750 0.6719
vt 0.2031 0.8047
vt 0.0078 0.6719
vt 0.2344 0.7188
vt 0.1797 0.7500
vt 0.3438 0.8594
vt 0.2266 0.7734
vt 0.4844 0.8594
vt 0.2266 0.7422
vt 0.3438 0.8281
vt 0.5313 0.8281
vt 0.3438 0.8047
vt 0.5313 0.8047
vt 0.1719 0.8047
vt 0.1797 0.6797
vt 0.0156 0.7969
vt 0.2031 0.6719
vt 0.1719 0.7969
vt 0.0078 0.6797
vt 0.2344 0.7188
vt 0.1797 0.7500
vt 0.3438 0.8594
vt 0.2266 0.7656
vt 0.4844 0.8594
vt 0.2266 0.7500
vt 0.3438 0.8281
vt 0.5313 0.8281
vt 0.3438 0.8047
vt 0.5313 0.8047
vt 0.6563 0.9531
vt 0.0313 0.9531
vt 0.0313 0.9531
vt 0.3750 0.9531
vt 0.0313 0.9531
vt 0.6563 0.9531
vt 0.0313 0.9531
vt 0.0313 0.9531
vt 0.3750 0.9531
vt 0.0313 0.9531
vn 0.0000 1.0000 0.0000
vn 0.0000 -1.0000 -0.0000
vn 0.0000 -0.0000 1.0000
vn -1.0000 -0.0000 0.0000
vn 0.0000 0.0000 -1.0000
vn 1.0000 0.0000 0.0000
vn 0.0000 0.0008 -1.0000
usemtl None
s off
f 1/1/1 2/2/1 3/3/1
f 4/4/2 5/5/2 6/6/2
f 5/7/3 2/8/3 1/9/3
f 1/10/4 7/11/4 8/12/4
f 3/13/5 4/14/5 8/15/5
f 4/16/6 3/17/6 2/18/6
f 9/19/1 10/20/1 11/21/1
f 12/22/2 13/23/2 14/24/2
f 13/25/3 10/26/3 9/27/3
f 15/28/4 14/29/4 9/30/4
f 15/31/5 16/32/5 11/33/5
f 12/34/6 11/35/6 10/36/6
f 17/37/3 18/38/3 19/39/3
f 20/40/4 21/41/4 18/42/4
f 22/43/5 23/44/5 21/45/5
f 24/46/6 19/47/6 23/48/6
f 25/49/1 26/50/1 27/51/1
f 28/52/2 29/53/2 30/54/2
f 29/55/5 26/56/5 25/57/5
f 30/58/6 25/59/6 31/60/6
f 32/61/3 31/62/3 27/63/3
f 29/64/4 28/65/4 27/66/4
f 33/67/1 34/68/1 35/69/1
f 36/70/2 37/71/2 38/72/2
f 37/73/5 34/74/5 33/75/5
f 38/76/6 33/77/6 39/78/6
f 40/79/3 39/80/3 35/81/3
f 37/82/4 36/83/4 35/84/4
f 41/85/5 42/86/5 43/87/5
f 44/88/6 45/89/6 42/90/6
f 46/91/3 47/92/3 45/93/3
f 48/94/4 43/95/4 47/96/4
f 49/97/1 50/98/1 51/99/1
f 52/100/2 53/101/2 54/102/2
f 55/103/3 54/104/3 51/105/3
f 52/106/4 55/107/4 50/108/4
f 53/109/5 52/110/5 49/111/5
f 51/112/6 54/113/6 53/114/6
f 56/115/1 57/116/1 58/117/1
f 59/118/2 60/119/2 61/120/2
f 62/121/3 61/122/3 58/123/3
f 59/124/4 62/125/4 57/126/4
f 60/127/7 59/128/7 56/129/7
f 58/130/6 61/131/6 60/132/6
f 7/133/1 1/1/1 3/3/1
f 8/134/2 4/4/2 6/6/2
f 6/135/3 5/7/3 1/9/3
f 6/136/4 1/10/4 8/12/4
f 7/137/5 3/13/5 8/15/5
f 5/138/6 4/16/6 2/18/6
f 16/139/1 9/19/1 11/21/1
f 15/140/2 12/22/2 14/24/2
f 14/141/3 13/25/3 9/27/3
f 16/142/4 15/28/4 9/30/4
f 12/143/5 15/31/5 11/33/5
f 13/144/6 12/34/6 10/36/6
f 24/145/3 17/37/3 19/39/3
f 17/146/4 20/40/4 18/42/4
f 20/147/5 22/43/5 21/45/5
f 22/148/6 24/46/6 23/48/6
f 31/149/1 25/49/1 27/51/1
f 32/150/2 28/52/2 30/54/2
f 30/151/5 29/55/5 25/57/5
f 32/152/6 30/58/6 31/60/6
f 28/153/3 32/61/3 27/63/3
f 26/154/4 29/64/4 27/66/4
f 39/155/1 33/67/1 35/69/1
f 40/156/2 36/70/2 38/72/2
f 38/157/5 37/73/5 33/75/5
f 40/158/6 38/76/6 39/78/6
f 36/159/3 40/79/3 35/81/3
f 34/160/4 37/82/4 35/84/4
f 48/161/5 41/85/5 43/87/5
f 41/162/6 44/88/6 42/90/6
f 44/163/3 46/91/3 45/93/3
f 46/164/4 48/94/4 47/96/4
f 63/165/1 49/97/1 51/99/1
f 55/166/2 52/100/2 54/102/2
f 50/167/3 55/103/3 51/105/3
f 49/97/4 52/106/4 50/108/4
f 63/168/5 53/109/5 49/111/5
f 63/169/6 51/112/6 53/114/6
f 64/170/1 56/115/1 58/117/1
f 62/171/2 59/118/2 61/120/2
f 57/172/3 62/121/3 58/123/3
f 56/115/4 59/124/4 57/126/4
f 64/173/7 60/127/7 56/129/7
f 64/174/6 58/130/6 60/132/6
