# Blender v2.76 (sub 0) OBJ File: ''
# www.blender.org
mtllib LeftLeg.mtl
o LLeg001
v -0.071958 0.523856 -0.341141
v 0.068115 0.513403 -0.263217
v -0.071958 0.513403 -0.263217
v 0.076771 0.749949 -0.310811
v 0.076771 0.526562 -0.261453
v 0.076771 0.537015 -0.339375
v 0.068115 0.763108 -0.309047
v -0.071958 0.752656 -0.231123
v 0.068115 0.752656 -0.231123
v -0.071958 0.738851 -0.228073
v 0.068115 0.525917 -0.256637
v 0.068115 0.738851 -0.228073
v 0.068115 0.750596 -0.315627
v -0.071958 0.537661 -0.344191
v -0.071958 0.750596 -0.315627
v -0.071958 0.525917 -0.256637
v -0.080614 0.526562 -0.261453
v -0.080614 0.739498 -0.232889
v -0.080614 0.537015 -0.339375
v -0.071958 0.763108 -0.309047
v -0.080614 0.749949 -0.310811
v 0.076771 0.739498 -0.232889
v 0.068115 0.523856 -0.341141
v 0.068115 0.537661 -0.344191
v -0.131287 0.198068 -0.256215
v 0.127444 0.761147 -0.256215
v 0.127444 0.198068 -0.256215
v 0.127444 0.198067 0.002516
v -0.131287 0.761147 0.002516
v -0.131287 0.198067 0.002516
v -0.131287 0.761147 -0.256215
v 0.127444 0.761147 0.002516
v -0.133871 -0.016829 0.003089
v 0.206039 -0.016829 -0.260153
v 0.206039 -0.016829 0.003089
v -0.133871 0.081145 -0.260153
v -0.133871 -0.016829 -0.260153
v 0.206039 0.052575 0.003089
v -0.133871 0.081145 0.003089
v 0.206039 0.052575 -0.260153
v -0.133871 0.107980 -0.260153
v 0.129371 0.107980 0.003089
v -0.133871 0.107980 0.003089
v 0.129371 0.107980 -0.260153
v -0.133871 0.191094 -0.260153
v 0.129371 0.191094 0.003089
v -0.133871 0.191094 0.003089
v 0.129371 0.191094 -0.260153
v 0.180867 0.435276 -0.069066
v 0.160238 0.375426 -0.047839
v 0.158609 0.344492 -0.082869
v 0.123873 0.435276 -0.006925
v 0.160681 0.435276 -0.038311
v 0.077422 0.435276 -0.183240
v 0.113423 0.355540 -0.231683
v 0.115594 0.314329 -0.185014
v 0.112834 0.435276 -0.244377
v 0.152837 0.375426 -0.207015
v 0.123283 0.355540 -0.019618
v 0.121113 0.314329 -0.066288
v 0.123283 0.515011 -0.019618
v 0.158609 0.526058 -0.082869
v 0.121113 0.556223 -0.066288
v 0.118354 0.567298 -0.125651
v 0.154466 0.526058 -0.171984
v 0.115594 0.556223 -0.185014
v 0.154466 0.344492 -0.171984
v 0.118354 0.303254 -0.125651
v 0.080182 0.435276 -0.123876
v 0.082941 0.435276 -0.064513
v 0.187697 0.435276 -0.128875
v 0.175348 0.435276 -0.187792
v 0.152837 0.495126 -0.207015
v 0.113423 0.515012 -0.231683
v 0.160238 0.495125 -0.047839
v 0.156538 0.534371 -0.127426
v 0.156538 0.336180 -0.127426
v 0.152394 0.435276 -0.216542
vt 0.330100 0.411500
vt 0.347600 0.401700
vt 0.330100 0.401700
vt 0.367800 0.477800
vt 0.317600 0.407200
vt 0.367800 0.407200
vt 0.360300 0.485700
vt 0.342800 0.475900
vt 0.360300 0.475900
vt 0.407000 0.487000
vt 0.515800 0.402900
vt 0.407000 0.402900
vt 0.515800 0.487000
vt 0.515800 0.492200
vt 0.522500 0.487000
vt 0.400200 0.487000
vt 0.407000 0.492200
vt 0.522500 0.402900
vt 0.515800 0.397700
vt 0.400200 0.402900
vt 0.407000 0.397700
vt 0.317600 0.482100
vt 0.317600 0.477800
vt 0.317600 0.402900
vt 0.367800 0.402900
vt 0.367800 0.482100
vt 0.578500 0.004900
vt 0.442000 0.302000
vt 0.442000 0.004900
vt 0.578500 0.302000
vt 0.750900 0.302000
vt 0.601000 0.302000
vt 0.721100 0.608400
vt 0.774600 0.520400
vt 0.721100 0.520400
vt 0.750900 0.004900
vt 0.601000 0.004900
vt 0.373200 0.004900
vt 0.523100 0.302000
vt 0.523100 0.004900
vt 0.021100 0.019900
vt 0.083900 0.043300
vt 0.083900 0.019900
vt 0.083400 0.016500
vt 0.021600 0.036200
vt 0.020700 0.019700
vt 0.036200 0.016900
vt 0.120700 0.034100
vt 0.036200 0.041200
vt 0.120700 0.016900
vt 0.021100 0.043300
vt 0.083900 0.049700
vt 0.086500 0.059900
vt 0.028200 0.086800
vt 0.025300 0.073900
vt 0.101700 0.047900
vt 0.036200 0.047900
vt 0.021100 0.049700
vt 0.083900 0.069500
vt 0.088700 0.075200
vt 0.035800 0.114400
vt 0.029400 0.095600
vt 0.036200 0.068500
vt 0.101700 0.068500
vt 0.021100 0.069500
vt 0.083000 0.071200
vt 0.021200 0.071200
vt 0.036900 0.070300
vt 0.101200 0.070300
vt 0.347600 0.411500
vt 0.342800 0.485700
vt 0.774600 0.608400
vt 0.373200 0.302000
vt 0.084300 0.033000
vt 0.089500 0.072800
vt 0.095200 0.093900
vt 0.595500 0.840400
vt 0.618800 0.850000
vt 0.630900 0.833500
vt 0.595500 0.868500
vt 0.595500 0.854500
vt 0.595500 0.784400
vt 0.626600 0.762400
vt 0.642700 0.784400
vt 0.595500 0.756400
vt 0.618800 0.774900
vt 0.626600 0.862500
vt 0.642700 0.840400
vt 0.564400 0.862500
vt 0.560100 0.833500
vt 0.548300 0.840400
vt 0.544000 0.812400
vt 0.560100 0.791400
vt 0.548300 0.784400
vt 0.630900 0.791400
vt 0.647000 0.812400
vt 0.595500 0.812400
vt 0.572100 0.774900
vt 0.564400 0.762400
vt 0.572100 0.850000
vt 0.556800 0.812400
vt 0.634100 0.812400
vt 0.595500 0.770400
vn -0.396600 -0.700700 -0.593000
vn 0.396600 -0.832200 0.387400
vn -0.396600 -0.832200 0.387400
vn 0.852100 0.302300 -0.427300
vn 0.852000 -0.302300 0.427300
vn 0.852100 -0.179000 -0.491900
vn 0.396600 0.832200 -0.387400
vn -0.396600 0.700700 0.593000
vn 0.396600 0.700700 0.593000
vn -0.243600 0.036900 0.969200
vn 0.243600 -0.291000 0.925200
vn 0.243600 0.036900 0.969200
vn 0.243600 0.291000 -0.925200
vn -0.243600 -0.036900 -0.969200
vn -0.243600 0.291000 -0.925200
vn -0.243600 -0.291000 0.925200
vn -0.852000 -0.302300 0.427300
vn -0.852100 0.179000 0.491900
vn -0.852100 -0.179000 -0.491900
vn -0.396600 0.832200 -0.387400
vn -0.852100 0.302300 -0.427300
vn 0.852100 0.179000 0.491900
vn 0.396600 -0.700700 -0.593000
vn 0.243600 -0.036900 -0.969200
vn 0.000000 0.277100 -0.960800
vn 0.000000 0.000000 -1.000000
vn 0.000000 0.271900 -0.962300
vn 0.000000 0.044200 0.999000
vn 0.000000 -0.000000 1.000000
vn 0.000000 0.045100 0.999000
vn 0.000000 1.000000 0.000000
vn 0.000000 -1.000000 -0.000000
vn 0.988300 0.152800 0.000000
vn 1.000000 0.000000 0.000000
vn 0.990500 0.137700 0.000000
vn -0.983500 0.180700 0.000000
vn -1.000000 -0.000000 0.000000
vn -0.979800 0.200100 0.000000
vn 0.890400 0.455100 0.000000
vn -0.989600 0.144000 0.000000
vn 0.991400 0.130900 0.000000
vn 0.000000 0.035800 0.999400
vn 0.000000 0.233500 -0.972400
vn -0.985100 0.172100 0.000000
vn 0.000000 0.037100 0.999300
vn 0.994000 0.109000 0.000000
vn 0.000000 0.226100 -0.974100
vn 0.955300 0.000000 0.295500
vn 0.808600 -0.306100 0.502500
vn 0.826300 -0.521900 0.211600
vn -0.111900 0.000000 0.993700
vn 0.743300 0.000000 0.669000
vn -0.984000 0.000000 -0.178400
vn -0.223400 -0.507400 -0.832200
vn -0.253000 -0.883200 -0.395000
vn -0.203600 0.000000 -0.979100
vn 0.758500 -0.306100 -0.575300
vn -0.145200 -0.507400 0.849400
vn -0.215200 -0.883200 0.416800
vn -0.145200 0.507400 0.849400
vn 0.826300 0.521900 0.211600
vn -0.215200 0.883200 0.416800
vn -0.261000 0.965300 0.012100
vn 0.803100 0.521900 -0.287400
vn -0.253000 0.883200 -0.395000
vn 0.803100 -0.521900 -0.287400
vn -0.261100 -0.965200 0.012100
vn -0.998900 0.000000 0.046400
vn -0.963200 0.000000 0.268900
vn 0.998900 0.000000 -0.046400
vn 0.923800 0.000000 -0.382900
vn 0.758500 0.306100 -0.575300
vn -0.223400 0.507400 -0.832200
vn 0.808600 0.306100 0.502500
vn 0.819700 0.571600 -0.038100
vn 0.819700 -0.571600 -0.038100
vn 0.678000 0.000000 -0.735100
usemtl None
s 1
f 1/1/1 2/2/2 3/3/3
f 4/4/4 5/5/5 6/6/6
f 7/7/7 8/8/8 9/9/9
f 10/10/10 11/11/11 12/12/12
f 13/12/13 14/13/14 15/10/15
f 16/13/16 17/14/17 3/15/3
f 10/10/10 8/16/8 18/17/18
f 14/13/14 1/15/1 19/14/19
f 20/16/20 15/10/15 21/17/21
f 11/11/11 2/18/2 5/19/5
f 9/20/9 12/12/12 22/21/22
f 6/19/6 23/18/23 24/11/24
f 7/20/7 4/21/4 13/12/13
f 16/13/16 18/17/18 17/14/17
f 8/22/8 21/4/21 18/23/18
f 15/10/15 19/14/19 21/17/21
f 3/24/3 19/6/19 1/25/1
f 7/20/7 15/10/15 20/16/20
f 6/19/6 13/12/13 4/21/4
f 1/15/1 24/11/24 23/18/23
f 9/22/9 4/4/4 7/26/7
f 11/11/11 22/21/22 12/12/12
f 2/24/2 6/6/6 5/5/5
f 8/16/8 12/12/12 9/20/9
f 2/18/2 16/13/16 3/15/3
f 21/4/21 17/5/17 18/23/18
f 25/27/25 26/28/26 27/29/27
f 28/29/28 29/30/29 30/27/30
f 31/31/31 32/32/31 26/31/31
f 33/33/32 34/34/32 35/35/32
f 27/36/33 32/32/34 28/37/35
f 30/38/36 31/39/37 25/40/38
f 33/41/37 36/42/37 37/43/37
f 34/44/34 38/45/39 35/46/34
f 33/47/29 38/48/29 39/49/29
f 37/47/26 40/48/26 34/50/26
f 39/51/37 41/52/37 36/42/37
f 40/53/39 42/54/39 38/55/39
f 39/49/29 42/56/29 43/57/29
f 36/49/26 44/56/26 40/48/26
f 43/58/37 45/59/40 41/52/37
f 44/60/39 46/61/41 42/62/39
f 42/56/29 47/63/42 43/57/29
f 41/57/26 48/64/43 44/56/26
f 47/65/44 25/66/38 45/59/40
f 46/65/41 27/66/33 28/67/35
f 46/64/45 30/68/30 47/63/42
f 48/64/43 25/68/25 27/69/27
f 1/1/1 23/70/23 2/2/2
f 4/4/4 22/23/22 5/5/5
f 7/7/7 20/71/20 8/8/8
f 10/10/10 16/13/16 11/11/11
f 13/12/13 24/11/24 14/13/14
f 16/13/16 10/10/10 18/17/18
f 8/22/8 20/26/20 21/4/21
f 15/10/15 14/13/14 19/14/19
f 3/24/3 17/5/17 19/6/19
f 7/20/7 13/12/13 15/10/15
f 6/19/6 24/11/24 13/12/13
f 1/15/1 14/13/14 24/11/24
f 9/22/9 22/23/22 4/4/4
f 11/11/11 5/19/5 22/21/22
f 2/24/2 23/25/23 6/6/6
f 8/16/8 10/10/10 12/12/12
f 2/18/2 11/11/11 16/13/16
f 21/4/21 19/6/19 17/5/17
f 25/27/25 31/30/26 26/28/26
f 28/29/28 32/28/29 29/30/29
f 31/31/31 29/32/31 32/32/31
f 33/33/32 37/72/32 34/34/32
f 27/36/33 26/31/34 32/32/34
f 30/38/36 29/73/37 31/39/37
f 33/41/37 39/51/37 36/42/37
f 34/44/34 40/74/39 38/45/39
f 33/47/29 35/50/29 38/48/29
f 37/47/26 36/49/26 40/48/26
f 39/51/37 43/58/37 41/52/37
f 40/53/39 44/75/39 42/54/39
f 39/49/29 38/48/29 42/56/29
f 36/49/26 41/57/26 44/56/26
f 43/58/37 47/65/44 45/59/40
f 44/60/39 48/76/46 46/61/41
f 42/56/29 46/64/45 47/63/42
f 41/57/26 45/63/47 48/64/43
f 47/65/44 30/67/36 25/66/38
f 46/65/41 48/59/46 27/66/33
f 46/64/45 28/69/28 30/68/30
f 48/64/43 45/63/47 25/68/25
f 49/77/48 50/78/49 51/79/50
f 52/80/51 50/78/49 53/81/52
f 54/82/53 55/83/54 56/84/55
f 57/85/56 58/86/57 55/83/54
f 51/79/50 59/87/58 60/88/59
f 61/89/60 62/90/61 63/91/62
f 64/92/63 65/93/64 66/94/65
f 67/95/66 68/96/67 56/84/55
f 69/97/68 60/88/59 70/77/69
f 71/97/70 67/95/66 72/82/71
f 65/93/64 71/97/70 72/82/71
f 63/91/62 69/97/68 70/77/69
f 73/98/72 57/85/56 74/99/73
f 74/99/73 54/82/53 66/94/65
f 75/100/74 52/80/51 53/81/52
f 75/100/74 49/77/48 62/90/61
f 62/90/61 71/97/70 76/101/75
f 61/89/60 70/77/69 52/80/51
f 70/77/69 59/87/58 52/80/51
f 64/92/63 62/90/61 76/101/75
f 51/79/50 68/96/67 77/102/76
f 71/97/70 51/79/50 77/102/76
f 66/94/65 69/97/68 64/92/63
f 73/98/72 72/82/71 78/103/77
f 72/82/71 58/86/57 78/103/77
f 67/95/66 55/83/54 58/86/57
f 74/99/73 65/93/64 73/98/72
f 69/97/68 56/84/55 68/96/67
f 49/77/48 53/81/52 50/78/49
f 52/80/51 59/87/58 50/78/49
f 54/82/53 57/85/56 55/83/54
f 57/85/56 78/103/77 58/86/57
f 51/79/50 50/78/49 59/87/58
f 61/89/60 75/100/74 62/90/61
f 64/92/63 76/101/75 65/93/64
f 67/95/66 77/102/76 68/96/67
f 69/97/68 68/96/67 60/88/59
f 71/97/70 77/102/76 67/95/66
f 65/93/64 76/101/75 71/97/70
f 63/91/62 64/92/63 69/97/68
f 73/98/72 78/103/77 57/85/56
f 74/99/73 57/85/56 54/82/53
f 75/100/74 61/89/60 52/80/51
f 75/100/74 53/81/52 49/77/48
f 62/90/61 49/77/48 71/97/70
f 61/89/60 63/91/62 70/77/69
f 70/77/69 60/88/59 59/87/58
f 64/92/63 63/91/62 62/90/61
f 51/79/50 60/88/59 68/96/67
f 71/97/70 49/77/48 51/79/50
f 66/94/65 54/82/53 69/97/68
f 73/98/72 65/93/64 72/82/71
f 72/82/71 67/95/66 58/86/57
f 67/95/66 56/84/55 55/83/54
f 74/99/73 66/94/65 65/93/64
f 69/97/68 54/82/53 56/84/55
