# Blender v2.76 (sub 0) OBJ File: ''
# www.blender.org
mtllib LeftArm.mtl
o LArm001
v -0.173520 1.189708 -0.434462
v -0.152656 1.131878 -0.454026
v -0.152656 1.101988 -0.420141
v -0.115720 1.189708 -0.491883
v -0.152656 1.189708 -0.463241
v -0.078796 1.189708 -0.319618
v -0.115720 1.112663 -0.274475
v -0.115720 1.072842 -0.319618
v -0.115720 1.189708 -0.262196
v -0.152656 1.131878 -0.300054
v -0.115720 1.112663 -0.479605
v -0.115720 1.072842 -0.434462
v -0.115720 1.266752 -0.479605
v -0.152656 1.277427 -0.420141
v -0.115720 1.306574 -0.434462
v -0.115720 1.317275 -0.377040
v -0.152656 1.277427 -0.333939
v -0.115720 1.306573 -0.319618
v -0.152656 1.101988 -0.333939
v -0.115720 1.062141 -0.377040
v -0.078796 1.189708 -0.377040
v -0.078796 1.189708 -0.434462
v -0.182795 1.189708 -0.377040
v -0.173520 1.189708 -0.319618
v -0.152656 1.247537 -0.300054
v -0.115720 1.266752 -0.274475
v -0.152656 1.247537 -0.454026
v -0.152656 1.285459 -0.377040
v -0.152656 1.093956 -0.377040
v -0.152656 1.189708 -0.290838
v -0.126387 0.774503 -0.501995
v 0.128270 1.503370 -0.501995
v 0.128270 0.774503 -0.501995
v 0.128270 0.802585 -0.247338
v -0.126387 1.503370 -0.247338
v -0.126387 0.802585 -0.247338
v -0.126387 1.503370 -0.501995
v 0.128270 1.503370 -0.247338
v 0.123996 1.523003 -0.499577
v -0.122114 1.537146 -0.457399
v 0.123996 1.537146 -0.457399
v -0.122114 1.349975 -0.511762
v 0.123996 1.342448 -0.470606
v -0.122114 1.342448 -0.470606
v 0.143696 1.507843 -0.499601
v 0.143696 1.356904 -0.469797
v 0.143696 1.364364 -0.510582
v 0.123996 1.539970 -0.429519
v -0.122114 1.518768 -0.256014
v 0.123996 1.518768 -0.256014
v -0.141814 1.507843 -0.499601
v -0.141814 1.356904 -0.469797
v -0.141814 1.521304 -0.459456
v 0.143696 1.525605 -0.430398
v 0.143696 1.451886 -0.256120
v 0.143696 1.363410 -0.440600
v 0.123996 1.504112 -0.514294
v -0.122114 1.366884 -0.524797
v -0.122114 1.504112 -0.514294
v -0.122114 1.502660 -0.241755
v 0.123996 1.457210 -0.241755
v 0.123996 1.502660 -0.241755
v -0.122114 1.346076 -0.443522
v 0.123996 1.436632 -0.254708
v -0.122114 1.436632 -0.254708
v -0.122114 1.457210 -0.241755
v -0.141814 1.451886 -0.256120
v -0.141814 1.504308 -0.256120
v -0.141814 1.364364 -0.510582
v -0.122114 1.523003 -0.499577
v 0.143696 1.504308 -0.256120
v 0.123996 1.349975 -0.511762
v 0.123996 1.366884 -0.524797
v -0.141814 1.525605 -0.430398
v -0.141814 1.363410 -0.440600
v 0.123996 1.346076 -0.443522
v 0.143696 1.521304 -0.459456
v -0.122114 1.539970 -0.429519
vt 0.595500 0.840400
vt 0.618800 0.850000
vt 0.630900 0.833500
vt 0.595500 0.868500
vt 0.595500 0.854500
vt 0.595500 0.784400
vt 0.626600 0.762400
vt 0.642700 0.784400
vt 0.595500 0.756400
vt 0.618800 0.774900
vt 0.626600 0.862500
vt 0.642700 0.840400
vt 0.564400 0.862500
vt 0.560100 0.833500
vt 0.548300 0.840400
vt 0.544000 0.812400
vt 0.560100 0.791400
vt 0.548300 0.784400
vt 0.630900 0.791400
vt 0.647000 0.812400
vt 0.595500 0.812400
vt 0.572100 0.774900
vt 0.564400 0.762400
vt 0.572100 0.850000
vt 0.556800 0.812400
vt 0.634100 0.812400
vt 0.595500 0.770400
vt 0.759600 0.859400
vt 0.481500 0.952100
vt 0.759600 0.952100
vt 0.755200 0.951700
vt 0.483600 0.951700
vt 0.285700 0.929900
vt 0.363000 0.852600
vt 0.363000 0.929900
vt 0.309300 0.707700
vt 0.388500 0.786900
vt 0.388500 0.707700
vt 0.753000 0.902900
vt 0.493300 0.946500
vt 0.493300 0.902900
vt 0.753000 0.753500
vt 0.474800 0.865800
vt 0.753000 0.865800
vt 0.481500 0.859400
vt 0.285700 0.852600
vt 0.309300 0.786900
vt 0.753000 0.946500
vt 0.474800 0.753500
vt 0.556800 0.864300
vt 0.570300 0.785600
vt 0.570300 0.864300
vt 0.628600 0.770100
vt 0.631100 0.851700
vt 0.631100 0.770100
vt 0.579500 0.840500
vt 0.631400 0.829500
vt 0.629100 0.843600
vt 0.579200 0.864300
vt 0.634700 0.785600
vt 0.634700 0.864300
vt 0.574700 0.826700
vt 0.573000 0.816700
vt 0.597600 0.756300
vt 0.629000 0.819400
vt 0.577500 0.851700
vt 0.623000 0.770100
vt 0.577500 0.770100
vt 0.578000 0.770100
vt 0.593100 0.851700
vt 0.578000 0.851700
vt 0.629900 0.770100
vt 0.599900 0.851700
vt 0.599900 0.770100
vt 0.559700 0.818300
vt 0.563500 0.816800
vt 0.563100 0.812800
vt 0.563500 0.830800
vt 0.559700 0.830300
vt 0.563500 0.834600
vt 0.631100 0.793600
vt 0.634900 0.794300
vt 0.631400 0.789800
vt 0.628200 0.835700
vt 0.632100 0.830700
vt 0.628200 0.831700
vt 0.609800 0.836400
vt 0.617000 0.839500
vt 0.617500 0.835300
vt 0.635000 0.820300
vt 0.569200 0.826100
vt 0.568100 0.816500
vt 0.636400 0.829700
vt 0.574300 0.840600
vt 0.580900 0.845600
vt 0.602800 0.755700
vt 0.571300 0.851700
vt 0.571300 0.770100
vt 0.623000 0.851700
vt 0.628600 0.851700
vt 0.574500 0.756600
vt 0.634000 0.843900
vt 0.572700 0.770100
vt 0.572700 0.851700
vt 0.593100 0.770100
vt 0.579500 0.756500
vt 0.556800 0.785600
vt 0.579200 0.785600
vt 0.629900 0.851700
vt 0.609600 0.840300
vt 0.628300 0.848500
vn -0.940600 0.000000 -0.339600
vn -0.784400 -0.306100 -0.539500
vn -0.815600 -0.521900 -0.249800
vn 0.157900 0.000000 -0.987500
vn -0.711400 0.000000 -0.702800
vn 0.974600 0.000000 0.223900
vn 0.184500 -0.507400 0.841700
vn 0.234400 -0.883200 0.406300
vn 0.157900 0.000000 0.987500
vn -0.784400 -0.306100 0.539500
vn 0.184500 -0.507400 -0.841700
vn 0.234400 -0.883200 -0.406300
vn 0.184500 0.507400 -0.841700
vn -0.815600 0.521900 -0.249800
vn 0.234300 0.883200 -0.406300
vn 0.261300 0.965200 0.000000
vn -0.815600 0.521900 0.249800
vn 0.234400 0.883200 0.406300
vn -0.815600 -0.521900 0.249800
vn 0.261300 -0.965200 -0.000000
vn 1.000000 0.000000 0.000000
vn 0.974600 0.000000 -0.223900
vn -1.000000 0.000000 -0.000000
vn -0.940600 0.000000 0.339500
vn -0.784400 0.306100 0.539500
vn 0.184500 0.507400 0.841700
vn -0.784400 0.306100 -0.539500
vn -0.820500 0.571600 0.000000
vn -0.820500 -0.571600 -0.000000
vn -0.711400 0.000000 0.702800
vn 0.000000 0.000000 -1.000000
vn 0.000000 -0.000000 1.000000
vn 0.000000 1.000000 0.000000
vn 0.000000 -0.994000 0.109600
vn 0.271700 0.799100 -0.536300
vn -0.308800 0.929800 -0.200100
vn 0.308800 0.929800 -0.200100
vn -0.274400 -0.831900 -0.482400
vn 0.302700 -0.952800 -0.023500
vn -0.302700 -0.952800 -0.023500
vn 0.824300 0.347900 -0.446600
vn 0.873400 -0.487000 -0.000400
vn 0.826500 -0.343700 -0.445800
vn 0.303700 0.952700 0.010700
vn -0.274000 0.861100 0.428300
vn 0.274000 0.861100 0.428300
vn -0.824300 0.347900 -0.446600
vn -0.873400 -0.487000 -0.000400
vn -0.884900 0.451500 -0.114600
vn 0.878100 0.478500 -0.001400
vn 0.825100 -0.301000 0.478200
vn 0.884800 -0.436400 0.163500
vn 0.271700 0.324600 -0.906000
vn -0.274400 -0.254800 -0.927300
vn -0.271700 0.324600 -0.906000
vn -0.273900 0.320700 0.906700
vn 0.272000 -0.243500 0.931000
vn 0.273900 0.320700 0.906700
vn -0.311800 -0.910600 0.271100
vn 0.272000 -0.734200 0.622100
vn -0.272000 -0.734200 0.622100
vn -0.272000 -0.243500 0.931000
vn -0.825100 -0.301000 0.478200
vn -0.826000 0.373600 0.422000
vn -0.826500 -0.343700 -0.445800
vn -0.271700 0.799100 -0.536300
vn 0.826000 0.373600 0.422000
vn 0.274400 -0.831900 -0.482400
vn 0.274300 -0.254800 -0.927300
vn -0.878100 0.478500 -0.001400
vn -0.884800 -0.436400 0.163500
vn 0.311800 -0.910600 0.271100
vn 0.884900 0.451500 -0.114600
vn -0.303700 0.952700 0.010700
usemtl None
s 1
f 1/1/1 2/2/2 3/3/3
f 4/4/4 2/2/2 5/5/5
f 6/6/6 7/7/7 8/8/8
f 9/9/9 10/10/10 7/7/7
f 3/3/3 11/11/11 12/12/12
f 13/13/13 14/14/14 15/15/15
f 16/16/16 17/17/17 18/18/18
f 19/19/19 20/20/20 8/8/8
f 21/21/21 12/12/12 22/1/22
f 23/21/23 19/19/19 24/6/24
f 17/17/17 23/21/23 24/6/24
f 15/15/15 21/21/21 22/1/22
f 25/22/25 9/9/9 26/23/26
f 26/23/26 6/6/6 18/18/18
f 27/24/27 4/4/4 5/5/5
f 27/24/27 1/1/1 14/14/14
f 14/14/14 23/21/23 28/25/28
f 13/13/13 22/1/22 4/4/4
f 22/1/22 11/11/11 4/4/4
f 16/16/16 14/14/14 28/25/28
f 3/3/3 20/20/20 29/26/29
f 23/21/23 3/3/3 29/26/29
f 18/18/18 21/21/21 16/16/16
f 25/22/25 24/6/24 30/27/30
f 24/6/24 10/10/10 30/27/30
f 19/19/19 7/7/7 10/10/10
f 26/23/26 17/17/17 25/22/25
f 21/21/21 8/8/8 20/20/20
f 31/28/31 32/29/31 33/30/31
f 34/31/32 35/32/32 36/31/32
f 37/33/33 38/34/33 32/35/33
f 36/36/34 33/37/34 34/38/34
f 34/39/21 32/40/21 38/41/21
f 36/42/23 37/43/23 31/44/23
f 1/1/1 5/5/5 2/2/2
f 4/4/4 11/11/11 2/2/2
f 6/6/6 9/9/9 7/7/7
f 9/9/9 30/27/30 10/10/10
f 3/3/3 2/2/2 11/11/11
f 13/13/13 27/24/27 14/14/14
f 16/16/16 28/25/28 17/17/17
f 19/19/19 29/26/29 20/20/20
f 21/21/21 20/20/20 12/12/12
f 23/21/23 29/26/29 19/19/19
f 17/17/17 28/25/28 23/21/23
f 15/15/15 16/16/16 21/21/21
f 25/22/25 30/27/30 9/9/9
f 26/23/26 9/9/9 6/6/6
f 27/24/27 13/13/13 4/4/4
f 27/24/27 5/5/5 1/1/1
f 14/14/14 1/1/1 23/21/23
f 13/13/13 15/15/15 22/1/22
f 22/1/22 12/12/12 11/11/11
f 16/16/16 15/15/15 14/14/14
f 3/3/3 12/12/12 20/20/20
f 23/21/23 1/1/1 3/3/3
f 18/18/18 6/6/6 21/21/21
f 25/22/25 17/17/17 24/6/24
f 24/6/24 19/19/19 10/10/10
f 19/19/19 8/8/8 7/7/7
f 26/23/26 18/18/18 17/17/17
f 21/21/21 6/6/6 8/8/8
f 31/28/31 37/45/31 32/29/31
f 34/31/32 38/32/32 35/32/32
f 37/33/33 35/46/33 38/34/33
f 36/36/34 31/47/34 33/37/34
f 34/39/21 33/48/21 32/40/21
f 36/42/23 35/49/23 37/43/23
f 39/50/35 40/51/36 41/52/37
f 42/53/38 43/54/39 44/55/40
f 45/56/41 46/57/42 47/58/43
f 48/59/44 49/60/45 50/61/46
f 51/56/47 52/57/48 53/62/49
f 54/63/50 55/64/51 56/65/52
f 57/66/53 58/67/54 59/68/55
f 60/69/56 61/70/57 62/71/58
f 63/72/59 64/73/60 65/74/61
f 66/75/62 67/76/63 65/77/61
f 68/78/64 60/79/56 49/80/45
f 69/81/65 58/82/54 42/83/38
f 70/84/66 59/85/55 51/86/47
f 55/76/51 61/75/57 64/77/60
f 50/80/46 62/79/58 71/78/67
f 47/81/43 72/83/68 73/82/69
f 39/84/35 45/86/41 57/85/53
f 74/87/70 40/88/36 53/89/49
f 52/57/48 63/90/59 75/65/71
f 54/63/50 41/91/37 48/92/44
f 46/57/42 76/90/72 43/93/39
f 66/75/62 68/78/64 67/76/63
f 70/94/66 53/62/49 40/91/36
f 59/95/55 69/58/65 51/56/47
f 65/96/61 75/65/71 63/90/59
f 39/97/35 59/68/55 70/98/66
f 47/58/43 57/95/53 45/56/41
f 42/53/38 73/99/69 72/100/68
f 50/101/46 54/63/50 48/92/44
f 61/75/57 71/78/67 62/79/58
f 72/102/68 46/57/42 43/93/39
f 49/103/45 62/71/58 50/104/46
f 64/73/60 66/105/62 65/74/61
f 49/101/45 74/63/70 68/106/64
f 42/102/38 52/57/48 69/58/65
f 39/94/35 77/62/73 45/56/41
f 64/96/60 56/65/52 55/64/51
f 40/51/36 48/59/44 41/52/37
f 43/54/39 63/72/59 44/55/40
f 56/65/52 77/62/73 54/63/50
f 53/62/49 75/65/71 74/63/70
f 74/63/70 67/64/63 68/106/64
f 39/50/35 70/107/66 40/51/36
f 42/53/38 72/100/68 43/54/39
f 45/56/41 77/62/73 46/57/42
f 48/59/44 78/108/74 49/60/45
f 51/56/47 69/58/65 52/57/48
f 54/63/50 71/106/67 55/64/51
f 57/66/53 73/99/69 58/67/54
f 60/69/56 66/105/62 61/70/57
f 63/72/59 76/109/72 64/73/60
f 74/87/70 78/110/74 40/88/36
f 52/57/48 44/93/40 63/90/59
f 54/63/50 77/62/73 41/91/37
f 46/57/42 56/65/52 76/90/72
f 66/75/62 60/79/56 68/78/64
f 70/94/66 51/56/47 53/62/49
f 59/95/55 58/111/54 69/58/65
f 65/96/61 67/64/63 75/65/71
f 39/97/35 57/66/53 59/68/55
f 47/58/43 73/111/69 57/95/53
f 42/53/38 58/67/54 73/99/69
f 50/101/46 71/106/67 54/63/50
f 61/75/57 55/76/51 71/78/67
f 72/102/68 47/58/43 46/57/42
f 49/103/45 60/69/56 62/71/58
f 64/73/60 61/70/57 66/105/62
f 49/101/45 78/92/74 74/63/70
f 42/102/38 44/93/40 52/57/48
f 39/94/35 41/91/37 77/62/73
f 64/96/60 76/90/72 56/65/52
f 40/51/36 78/108/74 48/59/44
f 43/54/39 76/109/72 63/72/59
f 56/65/52 46/57/42 77/62/73
f 53/62/49 52/57/48 75/65/71
f 74/63/70 75/65/71 67/64/63
