# Blender v2.76 (sub 0) OBJ File: ''
# www.blender.org
mtllib RightArm.mtl
o RArm005
v -0.145845 1.525359 0.516012
v -0.145845 1.547341 0.406951
v -0.145845 1.405102 0.448345
v 0.145845 1.525359 0.516012
v -0.145845 1.433983 0.537837
v 0.145845 1.547341 0.406951
v 0.145845 1.405102 0.448345
v 0.145845 1.432698 0.235235
v -0.145845 1.526644 0.235235
v 0.145845 1.526644 0.235235
v -0.145845 1.432698 0.235235
v 0.145845 1.433983 0.537837
v -0.138998 1.164270 0.516394
v -0.138998 1.164270 0.238397
v -0.138998 1.117097 0.238397
v 0.138998 1.164270 0.516394
v -0.138998 1.117097 0.516394
v 0.138998 1.164270 0.238397
v 0.138998 1.117097 0.516394
v 0.138998 1.117097 0.238397
v -0.192250 1.100844 0.384199
v -0.168271 0.997622 0.384199
v -0.168271 1.017978 0.460630
v -0.105604 1.100844 0.503089
v -0.168271 1.100844 0.487142
v -0.105604 1.100844 0.384199
v -0.105604 0.937191 0.384199
v -0.105604 0.969465 0.263024
v -0.105604 1.100844 0.263870
v -0.168271 1.017978 0.307769
v -0.105604 1.264497 0.384199
v -0.168271 1.204067 0.384199
v -0.168271 1.183710 0.460630
v -0.105604 1.232224 0.263024
v -0.168271 1.183711 0.307769
v -0.105604 0.969465 0.505375
v -0.168271 1.100844 0.281257
v -0.105604 1.232223 0.505375
v -0.131689 0.752289 0.506689
v 0.131689 0.752289 0.506689
v 0.131689 1.520069 0.506689
v 0.131689 0.752289 0.243311
v -0.131689 0.752289 0.243311
v -0.131689 1.520070 0.243311
v -0.131689 1.520069 0.506689
v 0.131689 1.520070 0.243311
v -0.138998 1.087903 0.516394
v -0.138998 1.087903 0.238397
v -0.138998 1.040730 0.238397
v 0.138998 1.087903 0.516394
v -0.138998 1.040730 0.516394
v 0.138998 1.087903 0.238397
v 0.138998 1.040730 0.516394
v 0.138998 1.040730 0.238397
vt 0.941300 0.684200
vt 0.923600 0.728400
vt 0.882400 0.680100
vt 0.877500 0.660100
vt 0.958500 0.693800
vt 0.969000 0.668500
vt 0.842100 0.762900
vt 0.919800 0.690800
vt 0.955200 0.719200
vt 0.860400 0.765200
vt 0.877900 0.743200
vt 0.913400 0.771500
vt 0.900100 0.788200
vt 0.921500 0.761400
vt 0.886100 0.733000
vt 0.913700 0.654900
vt 0.875800 0.785000
vt 0.831500 0.313200
vt 0.831500 0.450100
vt 0.848200 0.450100
vt 0.832600 0.357900
vt 0.832600 0.320100
vt 0.847100 0.320100
vt 0.831500 0.310700
vt 0.831500 0.447600
vt 0.848200 0.447600
vt 0.851300 0.260300
vt 0.824200 0.260300
vt 0.829600 0.282500
vt 0.851300 0.300600
vt 0.851300 0.290200
vt 0.808400 0.260300
vt 0.816900 0.225200
vt 0.851300 0.220000
vt 0.829600 0.238100
vt 0.894200 0.260300
vt 0.878400 0.260300
vt 0.873000 0.282500
vt 0.885800 0.225200
vt 0.873000 0.238100
vt 0.816900 0.295400
vt 0.851300 0.230500
vt 0.885800 0.295400
vt 0.729800 0.289100
vt 0.729800 0.366700
vt 0.995400 0.366700
vt 0.729800 0.188200
vt 0.729800 0.213500
vt 0.995400 0.213500
vt 0.842600 0.758600
vt 0.904600 0.793600
vt 0.957600 0.699700
vt 0.607700 0.245800
vt 0.607700 0.296300
vt 0.684100 0.296300
vt 0.729800 0.440300
vt 0.995400 0.440300
vt 0.995400 0.363000
vt 0.729800 0.220000
vt 0.729800 0.293800
vt 0.995400 0.293800
vt 0.888100 0.634800
vt 0.895800 0.793500
vt 0.864600 0.759800
vt 0.848200 0.313200
vt 0.847100 0.357900
vt 0.848200 0.310700
vt 0.995400 0.289100
vt 0.995400 0.188200
vt 0.895500 0.664700
vt 0.684100 0.245800
vt 0.729800 0.363000
vt 0.995400 0.220000
vn -0.603600 0.573700 0.553600
vn -0.673100 0.739000 0.029200
vn -0.661000 -0.747200 0.068700
vn 0.603600 0.573700 0.553600
vn -0.581500 -0.398600 0.709200
vn 0.673100 0.739000 0.029200
vn 0.661000 -0.747200 0.068700
vn 0.584400 -0.535700 -0.609500
vn -0.583900 0.538600 -0.607400
vn 0.583900 0.538600 -0.607400
vn -0.584400 -0.535700 -0.609500
vn 0.581500 -0.398600 0.709200
vn -0.577400 0.577400 0.577400
vn -0.577400 0.577400 -0.577400
vn -0.577300 -0.577400 -0.577400
vn 0.577400 0.577400 0.577400
vn -0.577400 -0.577400 0.577400
vn 0.577400 0.577400 -0.577400
vn 0.577400 -0.577400 0.577400
vn 0.577400 -0.577400 -0.577400
vn -1.000000 -0.000000 -0.000000
vn -0.849700 -0.527200 -0.000000
vn -0.822900 -0.348000 0.449100
vn 0.552700 -0.000000 0.833400
vn -0.666900 0.000000 0.745100
vn 1.000000 -0.000000 0.000000
vn 0.345500 -0.938400 -0.000000
vn 0.287300 -0.607400 -0.740600
vn 0.544000 -0.000000 -0.839100
vn -0.824100 -0.349400 -0.445900
vn 0.345500 0.938400 0.000000
vn -0.849700 0.527200 0.000000
vn -0.822900 0.348000 0.449100
vn 0.287300 0.607400 -0.740600
vn -0.824100 0.349400 -0.445900
vn 0.287000 -0.604300 0.743300
vn -0.675100 -0.000000 -0.737700
vn 0.287000 0.604300 0.743300
vn 0.577400 0.577300 0.577400
vn -0.577400 -0.577400 -0.577400
vn -0.577400 0.577400 -0.577300
vn -0.577400 0.577300 0.577400
vn 0.577400 0.577400 -0.577300
usemtl None
s 1
f 1/1/1 2/2/2 3/3/3
f 4/4/4 1/5/1 5/6/5
f 6/2/6 7/3/7 8/7/8
f 9/8/9 10/9/10 8/9/8
f 5/10/5 3/11/3 7/12/7
f 4/13/4 6/14/6 2/15/2
f 6/14/6 10/9/10 9/8/9
f 3/11/3 11/8/11 8/9/8
f 4/1/4 12/16/12 7/3/7
f 2/2/2 9/17/9 11/7/11
f 13/18/13 14/19/14 15/20/15
f 16/21/16 13/22/13 17/23/17
f 18/24/18 16/25/16 19/26/19
f 14/21/14 18/22/18 20/23/20
f 17/18/17 15/19/15 20/20/20
f 16/18/16 18/19/18 14/20/14
f 21/27/21 22/28/22 23/29/23
f 24/30/24 25/31/25 23/29/23
f 26/27/26 27/32/27 28/33/28
f 29/34/29 28/33/28 30/35/30
f 23/29/23 22/28/22 27/32/27
f 31/36/31 32/37/32 33/38/33
f 31/36/31 34/39/34 35/40/35
f 30/35/30 28/33/28 27/32/27
f 26/27/26 24/30/24 36/41/36
f 21/27/21 37/42/37 30/35/30
f 35/40/35 37/42/37 21/27/21
f 38/43/38 24/30/24 26/27/26
f 35/40/35 34/39/34 29/34/29
f 34/39/34 31/36/31 26/27/26
f 33/38/33 25/31/25 24/30/24
f 33/38/33 32/37/32 21/27/21
f 39/44/17 40/45/19 41/46/39
f 42/47/20 43/48/40 44/49/41
f 45/50/42 41/51/39 46/52/43
f 43/53/40 42/54/20 40/55/19
f 42/56/20 46/57/43 41/58/39
f 43/59/40 39/60/17 45/61/42
f 1/1/1 3/3/3 5/16/5
f 4/4/4 5/6/5 12/62/12
f 6/2/6 8/7/8 10/17/10
f 9/8/9 8/9/8 11/8/11
f 5/10/5 7/12/7 12/63/12
f 4/13/4 2/15/2 1/64/1
f 6/14/6 9/8/9 2/15/2
f 3/11/3 8/9/8 7/12/7
f 4/1/4 7/3/7 6/2/6
f 2/2/2 11/7/11 3/3/3
f 13/18/13 15/20/15 17/65/17
f 16/21/16 17/23/17 19/66/19
f 18/24/18 19/26/19 20/67/20
f 14/21/14 20/23/20 15/66/15
f 17/18/17 20/20/20 19/65/19
f 16/18/16 14/20/14 13/65/13
f 21/27/21 23/29/23 25/31/25
f 24/30/24 23/29/23 36/41/36
f 26/27/26 28/33/28 29/34/29
f 29/34/29 30/35/30 37/42/37
f 23/29/23 27/32/27 36/41/36
f 31/36/31 33/38/33 38/43/38
f 31/36/31 35/40/35 32/37/32
f 30/35/30 27/32/27 22/28/22
f 26/27/26 36/41/36 27/32/27
f 21/27/21 30/35/30 22/28/22
f 35/40/35 21/27/21 32/37/32
f 38/43/38 26/27/26 31/36/31
f 35/40/35 29/34/29 37/42/37
f 34/39/34 26/27/26 29/34/29
f 33/38/33 24/30/24 38/43/38
f 33/38/33 21/27/21 25/31/25
f 39/44/17 41/46/39 45/68/42
f 42/47/20 44/49/41 46/69/43
f 45/50/42 46/52/43 44/70/41
f 43/53/40 40/55/19 39/71/17
f 42/56/20 41/58/39 40/72/19
f 43/59/40 45/61/42 44/73/41
f 47/18/13 48/19/14 49/20/40
f 50/21/16 47/22/13 51/23/17
f 52/24/18 50/25/16 53/26/19
f 48/21/14 52/22/18 54/23/20
f 51/18/17 49/19/40 54/20/20
f 50/18/16 52/19/18 48/20/14
f 47/18/13 49/20/40 51/65/17
f 50/21/16 51/23/17 53/66/19
f 52/24/18 53/26/19 54/67/20
f 48/21/14 54/23/20 49/66/40
f 51/18/17 54/20/20 53/65/19
f 50/18/16 48/20/14 47/65/13
