# Blender v2.76 (sub 0) OBJ File: ''
# www.blender.org
mtllib RightLeg.mtl
o RLeg005
v -0.138998 0.441946 0.264897
v -0.138998 0.441946 -0.013099
v -0.138998 0.382060 -0.013099
v 0.138998 0.441946 0.264897
v -0.138998 0.382060 0.264897
v 0.138998 0.441946 -0.013099
v 0.138998 0.382060 0.264897
v 0.138998 0.382060 -0.013099
v -0.138998 0.326690 -0.013099
v -0.138998 0.266804 -0.013099
v -0.138998 0.266804 0.264897
v 0.138998 0.326690 0.264897
v -0.138998 0.326690 0.264897
v 0.138998 0.326690 -0.013099
v 0.138998 0.266804 0.264897
v 0.138998 0.266804 -0.013099
v -0.133157 0.046096 -0.012128
v -0.133157 -0.056993 -0.012129
v -0.133157 -0.056993 0.263452
v 0.181516 0.010234 0.263452
v 0.134069 0.054690 0.263452
v 0.123169 -0.056993 0.263452
v 0.181516 -0.056993 0.263452
v 0.181516 -0.056993 -0.012129
v 0.134069 0.054690 -0.012128
v 0.123169 -0.056993 -0.012129
v 0.181516 0.010234 -0.012128
v -0.133157 0.046096 0.263452
v 0.119968 0.317443 0.164788
v 0.119968 0.219158 0.164788
v 0.127860 0.252368 0.217966
v 0.119968 0.317443 0.245106
v 0.172568 0.280401 0.195058
v 0.190039 0.317443 0.084470
v 0.172568 0.255342 0.094326
v 0.172568 0.280401 0.054199
v 0.119968 0.317443 0.004152
v 0.172568 0.329504 0.033721
v 0.172568 0.255342 0.154931
v 0.172568 0.477829 0.154931
v 0.119968 0.514012 0.164788
v 0.127860 0.480802 0.217967
v 0.172568 0.452769 0.054199
v 0.172568 0.403666 0.033721
v 0.119968 0.415728 0.004152
v 0.172568 0.477829 0.094326
v 0.190039 0.415728 0.084470
v 0.172568 0.452769 0.195058
v 0.119968 0.415727 0.245106
v 0.172568 0.403666 0.215537
v 0.119968 0.415727 0.164788
v 0.119968 0.415728 0.084470
v 0.119968 0.317443 0.084470
v 0.127860 0.480802 0.031291
v 0.119968 0.514012 0.084470
v 0.190039 0.415727 0.164788
v 0.172568 0.329504 0.215537
v 0.190039 0.317443 0.164788
v 0.127860 0.252368 0.031291
v 0.119968 0.219158 0.084470
v -0.130829 -0.017484 0.255829
v 0.130829 -0.017484 0.255829
v 0.130829 0.767490 0.255829
v 0.130829 -0.017484 -0.005829
v -0.130829 -0.017484 -0.005829
v -0.130829 0.767490 -0.005829
v -0.130829 0.767490 0.255829
v 0.130829 0.767490 -0.005829
vt 0.831500 0.313200
vt 0.831500 0.450100
vt 0.848200 0.450100
vt 0.832600 0.357900
vt 0.832600 0.320100
vt 0.847100 0.320100
vt 0.831500 0.310700
vt 0.831500 0.447600
vt 0.848200 0.447600
vt 0.848200 0.313200
vt 0.847100 0.357900
vt 0.848200 0.310700
vt 0.765100 0.039800
vt 0.765700 0.015700
vt 0.830100 0.017300
vt 0.855700 0.036900
vt 0.869800 0.053100
vt 0.877100 0.016800
vt 0.828200 0.032200
vt 0.829000 0.017300
vt 0.767600 0.014000
vt 0.957900 0.059000
vt 0.828400 0.015600
vt 0.766900 0.015600
vt 0.828400 0.040500
vt 0.766900 0.040500
vt 0.766900 0.038600
vt 0.766800 0.029000
vt 0.766200 0.038900
vt 0.857900 0.014900
vt 0.961200 0.025100
vt 0.122000 0.186900
vt 0.122000 0.145000
vt 0.142200 0.159100
vt 0.152400 0.186900
vt 0.133500 0.171100
vt 0.091600 0.186900
vt 0.095300 0.160400
vt 0.080100 0.171100
vt 0.061100 0.186900
vt 0.072300 0.192000
vt 0.118300 0.160400
vt 0.118300 0.255300
vt 0.122000 0.270800
vt 0.142200 0.256600
vt 0.080100 0.244600
vt 0.072300 0.223700
vt 0.061100 0.228800
vt 0.095300 0.255300
vt 0.091600 0.228800
vt 0.133500 0.244600
vt 0.152400 0.228800
vt 0.141200 0.223700
vt 0.122000 0.228800
vt 0.071400 0.256600
vt 0.091600 0.270800
vt 0.141200 0.192000
vt 0.071400 0.159100
vt 0.091600 0.145000
vt 0.263700 0.015000
vt 0.160100 0.015000
vt 0.160100 0.414300
vt 0.168900 0.015000
vt 0.272500 0.015000
vt 0.272500 0.414300
vt 0.217200 0.414300
vt 0.113600 0.414300
vt 0.113600 0.547400
vt 0.320800 0.414300
vt 0.217200 0.547400
vt 0.157900 0.015000
vt 0.054400 0.015000
vt 0.054400 0.414300
vt 0.387500 0.015000
vt 0.283900 0.015000
vt 0.283900 0.414300
vt 0.829500 0.041400
vt 0.828400 0.038600
vt 0.827700 0.042200
vt 0.263700 0.414300
vt 0.168900 0.414300
vt 0.320800 0.547400
vt 0.157900 0.414300
vt 0.387500 0.414300
vn -0.577400 0.577400 0.577400
vn -0.577400 0.577400 -0.577400
vn -0.577400 -0.577400 -0.577400
vn 0.577400 0.577400 0.577400
vn -0.577400 -0.577400 0.577400
vn 0.577400 0.577400 -0.577400
vn 0.577400 -0.577400 0.577400
vn 0.577400 -0.577400 -0.577400
vn -0.585700 0.567200 -0.579100
vn -0.577300 -0.577300 -0.577400
vn 0.714300 0.309600 0.627600
vn 0.273800 0.726500 0.630300
vn -0.000000 -0.707100 0.707100
vn 0.577300 -0.577300 -0.577400
vn 0.273800 0.726500 -0.630300
vn 0.000000 -0.707100 -0.707100
vn 0.714300 0.309600 -0.627600
vn -0.585700 0.567200 0.579100
vn -0.999700 -0.017000 0.016100
vn -0.422300 -0.868600 0.259300
vn -0.296700 -0.615600 0.730100
vn -0.463600 -0.209400 0.860900
vn 0.778000 -0.389800 0.492800
vn 0.979200 -0.127700 -0.157800
vn 0.792800 -0.591100 -0.148400
vn 0.778000 -0.389800 -0.492800
vn -0.463600 -0.209400 -0.860900
vn 0.750500 -0.116100 -0.650600
vn 0.792800 -0.591100 0.148400
vn 0.792800 0.591100 0.148400
vn -0.422300 0.868600 0.259300
vn -0.296700 0.615600 0.730100
vn 0.778000 0.389800 -0.492800
vn 0.750500 0.116100 -0.650600
vn -0.463600 0.209400 -0.860900
vn 0.792800 0.591100 -0.148400
vn 0.979200 0.127700 -0.157800
vn 0.778000 0.389800 0.492800
vn -0.463600 0.209400 0.860900
vn 0.750500 0.116100 0.650600
vn -0.999700 0.017000 0.016100
vn -0.999700 0.017000 -0.016100
vn -0.999700 -0.017000 -0.016100
vn -0.296700 0.615600 -0.730100
vn -0.422300 0.868600 -0.259300
vn 0.979200 0.127700 0.157800
vn 0.750500 -0.116100 0.650600
vn 0.979200 -0.127700 0.157800
vn -0.296700 -0.615600 -0.730100
vn -0.422300 -0.868600 -0.259300
usemtl None
s 1
f 1/1/1 2/2/2 3/3/3
f 4/4/4 1/5/1 5/6/5
f 6/7/6 4/8/4 7/9/7
f 2/4/2 6/5/6 8/6/8
f 5/1/5 3/2/3 8/3/8
f 4/1/4 6/2/6 2/3/2
f 1/1/1 3/3/3 5/10/5
f 4/4/4 5/6/5 7/11/7
f 6/7/6 7/9/7 8/12/8
f 2/4/2 8/6/8 3/11/3
f 5/1/5 8/3/8 7/10/7
f 4/1/4 2/3/2 1/10/1
f 9/2/2 10/3/3 11/10/5
f 12/4/4 13/5/1 11/6/5
f 14/7/6 12/8/4 15/9/7
f 9/4/2 14/5/6 16/6/8
f 11/1/5 10/2/3 16/3/8
f 12/1/4 14/2/6 9/3/2
f 9/2/2 11/10/5 13/1/1
f 12/4/4 11/6/5 15/11/7
f 14/7/6 15/9/7 16/12/8
f 9/4/2 16/6/8 10/11/3
f 11/1/5 16/3/8 15/10/7
f 12/1/4 9/3/2 13/10/1
f 17/13/9 18/14/10 19/15/5
f 20/16/11 21/17/12 22/18/13
f 20/19/11 23/20/7 24/21/14
f 17/22/9 25/17/15 26/18/16
f 22/23/13 26/24/16 24/24/14
f 21/25/12 25/26/15 17/27/9
f 20/19/11 27/28/17 25/29/15
f 19/23/5 18/24/10 26/24/16
f 27/16/17 24/30/14 26/18/16
f 28/22/18 19/31/5 22/18/13
f 29/32/19 30/33/20 31/34/21
f 32/35/22 31/34/21 33/36/23
f 34/37/24 35/38/25 36/39/26
f 37/40/27 38/41/28 36/39/26
f 31/34/21 30/33/20 39/42/29
f 40/43/30 41/44/31 42/45/32
f 43/46/33 44/47/34 45/48/35
f 45/48/35 44/47/34 38/41/28
f 43/46/33 46/49/36 47/50/37
f 44/47/34 47/50/37 34/37/24
f 48/51/38 42/45/32 49/52/39
f 50/53/40 49/52/39 32/35/22
f 42/45/32 41/44/31 51/54/41
f 51/54/41 29/32/19 32/35/22
f 52/50/42 45/48/35 37/40/27
f 51/54/41 52/50/42 53/37/43
f 54/55/44 45/48/35 52/50/42
f 41/44/31 55/56/45 52/50/42
f 56/54/46 50/53/40 57/57/47
f 56/54/46 58/32/48 34/37/24
f 48/51/38 50/53/40 56/54/46
f 46/49/36 40/43/30 56/54/46
f 46/49/36 43/46/33 54/55/44
f 40/43/30 46/49/36 55/56/45
f 59/58/49 36/39/26 35/38/25
f 30/33/20 60/59/50 35/38/25
f 58/32/48 57/57/47 33/36/23
f 58/32/48 39/42/29 35/38/25
f 53/37/43 37/40/27 59/58/49
f 29/32/19 53/37/43 60/59/50
f 61/60/5 62/61/7 63/62/4
f 64/63/8 65/64/3 66/65/2
f 67/66/1 63/67/4 68/68/6
f 65/69/3 64/66/8 62/70/7
f 62/71/7 64/72/8 68/73/6
f 65/74/3 61/75/5 67/76/1
f 17/13/9 19/15/5 28/77/18
f 20/16/11 22/18/13 23/30/7
f 20/19/11 24/21/14 27/28/17
f 17/22/9 26/18/16 18/31/10
f 22/23/13 24/24/14 23/23/7
f 21/25/12 17/27/9 28/78/18
f 20/19/11 25/29/15 21/79/12
f 19/23/5 26/24/16 22/23/13
f 27/16/17 26/18/16 25/17/15
f 28/22/18 22/18/13 21/17/12
f 29/32/19 31/34/21 32/35/22
f 32/35/22 33/36/23 57/57/47
f 34/37/24 36/39/26 38/41/28
f 37/40/27 36/39/26 59/58/49
f 31/34/21 39/42/29 33/36/23
f 40/43/30 42/45/32 48/51/38
f 43/46/33 45/48/35 54/55/44
f 45/48/35 38/41/28 37/40/27
f 43/46/33 47/50/37 44/47/34
f 44/47/34 34/37/24 38/41/28
f 48/51/38 49/52/39 50/53/40
f 50/53/40 32/35/22 57/57/47
f 42/45/32 51/54/41 49/52/39
f 51/54/41 32/35/22 49/52/39
f 52/50/42 37/40/27 53/37/43
f 51/54/41 53/37/43 29/32/19
f 54/55/44 52/50/42 55/56/45
f 41/44/31 52/50/42 51/54/41
f 56/54/46 57/57/47 58/32/48
f 56/54/46 34/37/24 47/50/37
f 48/51/38 56/54/46 40/43/30
f 46/49/36 56/54/46 47/50/37
f 46/49/36 54/55/44 55/56/45
f 40/43/30 55/56/45 41/44/31
f 59/58/49 35/38/25 60/59/50
f 30/33/20 35/38/25 39/42/29
f 58/32/48 33/36/23 39/42/29
f 58/32/48 35/38/25 34/37/24
f 53/37/43 59/58/49 60/59/50
f 29/32/19 60/59/50 30/33/20
f 61/60/5 63/62/4 67/80/1
f 64/63/8 66/65/2 68/81/6
f 67/66/1 68/68/6 66/70/2
f 65/69/3 62/70/7 61/82/5
f 62/71/7 68/73/6 63/83/4
f 65/74/3 67/76/1 66/84/2
