# Blender v2.76 (sub 0) OBJ File: ''
# www.blender.org
mtllib LeftArm.mtl
o LArm005
v -0.138998 1.164270 -0.238397
v -0.138998 1.117097 -0.516393
v -0.138998 1.117097 -0.238397
v 0.138998 1.164270 -0.516393
v -0.138998 1.164270 -0.516393
v 0.138998 1.164270 -0.238397
v 0.138998 1.117097 -0.516393
v 0.138998 1.117097 -0.238397
v -0.145845 1.525359 -0.516011
v -0.145845 1.402122 -0.460266
v -0.145845 1.547341 -0.406951
v 0.145845 1.525359 -0.516011
v -0.145845 1.433983 -0.537837
v 0.145845 1.547341 -0.406951
v 0.145845 1.432698 -0.235235
v 0.145845 1.402122 -0.460266
v -0.145845 1.526644 -0.235235
v 0.145845 1.526644 -0.235235
v -0.145845 1.432698 -0.235235
v 0.145845 1.433983 -0.537837
v -0.192250 1.100844 -0.384199
v -0.168271 1.017978 -0.460629
v -0.168271 0.997622 -0.384199
v -0.105604 1.100844 -0.503088
v -0.168271 1.100844 -0.487141
v -0.105604 1.100844 -0.384199
v -0.105604 0.969465 -0.263023
v -0.105604 0.937191 -0.384199
v -0.105604 1.100844 -0.263870
v -0.168271 1.017978 -0.307768
v -0.105604 1.264497 -0.384199
v -0.168271 1.183711 -0.460629
v -0.168271 1.204067 -0.384199
v -0.168271 1.183711 -0.307768
v -0.105604 1.232224 -0.263023
v -0.105604 0.969465 -0.505374
v -0.168271 1.100844 -0.281256
v -0.105604 1.232224 -0.505374
v -0.131689 0.752289 -0.506689
v 0.131689 1.520070 -0.506689
v 0.131689 0.752289 -0.506689
v 0.131689 0.752289 -0.243311
v -0.131689 1.520070 -0.243311
v -0.131689 0.752289 -0.243311
v -0.131689 1.520070 -0.506689
v 0.131689 1.520070 -0.243311
v -0.138998 1.087903 -0.516393
v -0.138998 1.040730 -0.238397
v -0.138998 1.087903 -0.238397
v 0.138998 1.087903 -0.516393
v -0.138998 1.040730 -0.516393
v 0.138998 1.087903 -0.238397
v 0.138998 1.040730 -0.516393
v 0.138998 1.040730 -0.238397
vt 0.831500 0.450100
vt 0.848200 0.313200
vt 0.848200 0.450100
vt 0.832600 0.357900
vt 0.847100 0.320100
vt 0.832600 0.320100
vt 0.831500 0.310700
vt 0.848200 0.447600
vt 0.831500 0.447600
vt 0.831500 0.313200
vt 0.941300 0.684200
vt 0.882400 0.680100
vt 0.923600 0.728400
vt 0.877500 0.660100
vt 0.969000 0.668500
vt 0.958500 0.693800
vt 0.842100 0.762900
vt 0.919800 0.690800
vt 0.955200 0.719200
vt 0.860400 0.765200
vt 0.913400 0.771500
vt 0.877900 0.743200
vt 0.874400 0.823600
vt 0.866100 0.755500
vt 0.903100 0.781700
vt 0.911300 0.689500
vt 0.948400 0.715800
vt 0.913700 0.654900
vt 0.875800 0.785000
vt 0.851300 0.260300
vt 0.829600 0.282500
vt 0.824200 0.260300
vt 0.851300 0.300600
vt 0.851300 0.290200
vt 0.816900 0.225200
vt 0.808400 0.260300
vt 0.851300 0.220000
vt 0.829600 0.238100
vt 0.894200 0.260300
vt 0.873000 0.282500
vt 0.878400 0.260300
vt 0.873000 0.238100
vt 0.885800 0.225200
vt 0.816900 0.295400
vt 0.851300 0.230500
vt 0.885800 0.295400
vt 0.729800 0.289100
vt 0.995400 0.366700
vt 0.729800 0.366700
vt 0.729800 0.188200
vt 0.995400 0.213500
vt 0.729800 0.213500
vt 0.842600 0.758600
vt 0.957600 0.699700
vt 0.904600 0.793600
vt 0.607700 0.245800
vt 0.684100 0.296300
vt 0.607700 0.296300
vt 0.729800 0.363000
vt 0.995400 0.440300
vt 0.729800 0.440300
vt 0.729800 0.220000
vt 0.995400 0.293800
vt 0.729800 0.293800
vt 0.847100 0.357900
vt 0.848200 0.310700
vt 0.888100 0.634800
vt 0.895800 0.793500
vt 0.837200 0.797400
vt 0.995400 0.289100
vt 0.995400 0.188200
vt 0.895500 0.664700
vt 0.684100 0.245800
vt 0.995400 0.363000
vt 0.995400 0.220000
vn -0.577400 0.577400 0.577400
vn -0.577400 -0.577300 -0.577400
vn -0.577400 -0.577400 0.577400
vn 0.577400 0.577400 -0.577400
vn -0.577400 0.577400 -0.577400
vn 0.577400 0.577400 0.577400
vn 0.577400 -0.577400 -0.577400
vn 0.577400 -0.577400 0.577400
vn -0.603600 0.573700 -0.553600
vn -0.653100 -0.751100 -0.096200
vn -0.673100 0.739000 -0.029200
vn 0.603600 0.573700 -0.553600
vn -0.586000 -0.369400 -0.721300
vn 0.673100 0.739000 -0.029200
vn 0.584800 -0.533600 0.611000
vn 0.653100 -0.751100 -0.096200
vn -0.583900 0.538600 0.607400
vn 0.583900 0.538600 0.607400
vn -0.584800 -0.533600 0.611000
vn 0.586000 -0.369400 -0.721300
vn -1.000000 -0.000000 -0.000000
vn -0.822900 -0.348000 -0.449100
vn -0.849700 -0.527200 -0.000000
vn 0.552700 -0.000000 -0.833400
vn -0.666900 -0.000000 -0.745100
vn 1.000000 0.000000 0.000000
vn 0.287300 -0.607400 0.740600
vn 0.345500 -0.938400 -0.000000
vn 0.544000 -0.000000 0.839100
vn -0.824100 -0.349400 0.445900
vn 0.345500 0.938400 -0.000000
vn -0.822900 0.348000 -0.449100
vn -0.849700 0.527200 -0.000000
vn -0.824100 0.349400 0.445900
vn 0.287300 0.607400 0.740600
vn 0.287000 -0.604300 -0.743300
vn -0.675100 -0.000000 0.737700
vn 0.287000 0.604300 -0.743300
vn -0.577400 -0.577400 -0.577400
usemtl None
s 1
f 1/1/1 2/2/2 3/3/3
f 4/4/4 2/5/2 5/6/5
f 6/7/6 7/8/7 4/9/4
f 1/4/1 8/5/8 6/6/6
f 2/10/2 8/3/8 3/1/3
f 4/10/4 1/3/1 6/1/6
f 9/11/9 10/12/10 11/13/11
f 12/14/12 13/15/13 9/16/9
f 14/13/14 15/17/15 16/12/16
f 17/18/17 15/19/15 18/19/18
f 13/20/13 16/21/16 10/22/10
f 12/23/12 11/24/11 14/25/14
f 14/25/14 17/26/17 18/27/18
f 10/22/10 15/19/15 19/18/19
f 12/11/12 16/12/16 20/28/20
f 11/13/11 19/17/19 17/29/17
f 21/30/21 22/31/22 23/32/23
f 24/33/24 22/31/22 25/34/25
f 26/30/26 27/35/27 28/36/28
f 29/37/29 30/38/30 27/35/27
f 22/31/22 28/36/28 23/32/23
f 31/39/31 32/40/32 33/41/33
f 31/39/31 34/42/34 35/43/35
f 30/38/30 28/36/28 27/35/27
f 26/30/26 36/44/36 24/33/24
f 21/30/21 30/38/30 37/45/37
f 34/42/34 21/30/21 37/45/37
f 38/46/38 26/30/26 24/33/24
f 34/42/34 29/37/29 35/43/35
f 35/43/35 26/30/26 31/39/31
f 32/40/32 24/33/24 25/34/25
f 32/40/32 21/30/21 33/41/33
f 39/47/39 40/48/4 41/49/7
f 42/50/8 43/51/1 44/52/3
f 45/53/5 46/54/6 40/55/4
f 44/56/3 41/57/7 42/58/8
f 41/59/7 46/60/6 42/61/8
f 44/62/3 45/63/5 39/64/39
f 1/1/1 5/10/5 2/2/2
f 4/4/4 7/65/7 2/5/2
f 6/7/6 8/66/8 7/8/7
f 1/4/1 3/65/3 8/5/8
f 2/10/2 7/2/7 8/3/8
f 4/10/4 5/2/5 1/3/1
f 9/11/9 13/28/13 10/12/10
f 12/14/12 20/67/20 13/15/13
f 14/13/14 18/29/18 15/17/15
f 17/18/17 19/18/19 15/19/15
f 13/20/13 20/68/20 16/21/16
f 12/23/12 9/69/9 11/24/11
f 14/25/14 11/24/11 17/26/17
f 10/22/10 16/21/16 15/19/15
f 12/11/12 14/13/14 16/12/16
f 11/13/11 10/12/10 19/17/19
f 21/30/21 25/34/25 22/31/22
f 24/33/24 36/44/36 22/31/22
f 26/30/26 29/37/29 27/35/27
f 29/37/29 37/45/37 30/38/30
f 22/31/22 36/44/36 28/36/28
f 31/39/31 38/46/38 32/40/32
f 31/39/31 33/41/33 34/42/34
f 30/38/30 23/32/23 28/36/28
f 26/30/26 28/36/28 36/44/36
f 21/30/21 23/32/23 30/38/30
f 34/42/34 33/41/33 21/30/21
f 38/46/38 31/39/31 26/30/26
f 34/42/34 37/45/37 29/37/29
f 35/43/35 29/37/29 26/30/26
f 32/40/32 38/46/38 24/33/24
f 32/40/32 25/34/25 21/30/21
f 39/47/39 45/70/5 40/48/4
f 42/50/8 46/71/6 43/51/1
f 45/53/5 43/72/1 46/54/6
f 44/56/3 39/73/39 41/57/7
f 41/59/7 40/74/4 46/60/6
f 44/62/3 43/75/1 45/63/5
f 47/10/5 48/3/3 49/1/1
f 50/4/4 51/5/39 47/6/5
f 52/7/6 53/8/7 50/9/4
f 49/4/1 54/5/8 52/6/6
f 51/10/39 54/3/8 48/1/3
f 50/10/4 49/3/1 52/1/6
f 47/10/5 51/2/39 48/3/3
f 50/4/4 53/65/7 51/5/39
f 52/7/6 54/66/8 53/8/7
f 49/4/1 48/65/3 54/5/8
f 51/10/39 53/2/7 54/3/8
f 50/10/4 47/2/5 49/3/1
