# Blender v2.78 (sub 0) OBJ File: 'Комбинезон Наёмников.blend'
# www.blender.org
o RLeg
v 0.130901 -0.002691 0.257662
v 0.178439 0.063563 0.227734
v 0.130901 0.108146 0.257662
v -0.130901 0.087155 0.257662
v -0.130901 -0.002691 0.126761
v 0.130901 -0.002691 0.126761
v 0.209142 -0.002691 0.126761
v 0.209142 0.075334 0.126761
v 0.178439 -0.002691 0.227734
v 0.130901 0.117453 0.126761
v -0.130901 0.087155 0.126761
v -0.130901 -0.002691 0.257662
v 0.130901 -0.002691 -0.004140
v 0.178439 0.063563 0.025788
v 0.178439 -0.002691 0.025788
v -0.130901 0.087155 -0.004140
v 0.130901 0.108146 -0.004140
v -0.130901 -0.002691 -0.004140
v 0.121803 0.417823 0.046498
v 0.147859 0.391323 0.039047
v 0.128492 0.391323 0.029086
v 0.163411 0.418823 0.114570
v 0.159576 0.340241 0.159634
v 0.163411 0.327079 0.114570
v 0.121803 0.328079 0.170136
v 0.116542 0.310024 0.108317
v 0.121803 0.417823 0.170136
v 0.159576 0.405661 0.159634
v 0.159576 0.405661 0.069506
v 0.116542 0.435878 0.108317
v 0.159576 0.340241 0.069506
v 0.121803 0.328079 0.046498
v 0.144276 0.388576 0.181847
v 0.120464 0.351517 0.200607
v 0.144276 0.357326 0.181847
v 0.147859 0.354579 0.039047
v 0.128492 0.354579 0.029086
v -0.129064 0.753248 0.255496
v -0.129064 0.029011 -0.002632
v -0.129064 0.029011 0.255496
v -0.129064 0.753248 -0.002632
v 0.129064 0.049980 -0.002632
v 0.129064 0.753248 -0.002632
v 0.129064 0.049980 0.255496
v 0.129064 0.753248 0.255496
v 0.120464 0.394385 0.200607
vt 0.1878 0.0070
vt 0.2133 0.0529
vt 0.1878 0.0771
vt 0.0222 0.0638
vt 0.0222 0.0070
vt 0.1878 0.0070
vt 0.2706 0.0386
vt 0.2437 0.0718
vt 0.2244 0.0196
vt 0.1878 0.0288
vt 0.0222 0.0638
vt 0.0059 0.0639
vt 0.0232 0.0078
vt 0.0232 0.0639
vt 0.1878 0.0070
vt 0.2133 0.0529
vt 0.2244 0.0196
vt 0.0222 0.0638
vt 0.1878 0.0771
vt 0.0232 0.0078
vt 0.0232 0.0639
vt 0.6358 0.1681
vt 0.6393 0.1531
vt 0.6440 0.1531
vt 0.6041 0.1687
vt 0.5830 0.1242
vt 0.6041 0.1167
vt 0.5781 0.1173
vt 0.6070 0.1071
vt 0.5781 0.1681
vt 0.5830 0.1612
vt 0.6251 0.1612
vt 0.6070 0.1783
vt 0.6251 0.1242
vt 0.6358 0.1173
vt 0.5726 0.1515
vt 0.5639 0.1306
vt 0.5726 0.1339
vt 0.6393 0.1323
vt 0.6440 0.1323
vt 0.6596 0.3525
vt 0.7837 -0.0317
vt 0.6596 -0.0317
vt 0.7825 0.3526
vt 0.6589 -0.0321
vt 0.7825 -0.0318
vt 0.6589 0.3521
vt 0.5320 -0.0324
vt 0.5322 -0.0315
vt 0.3879 0.3526
vt 0.3879 -0.0315
vt 0.0000 0.0000
vt 0.0000 0.0000
vt 0.0000 0.0000
vt 0.0222 0.0070
vt 0.0059 0.0078
vt 0.0222 0.0070
vt 0.5639 0.1548
vt 0.7837 0.3525
vt 0.5320 0.3515
vt 0.5322 0.3526
vt 0.0000 0.0000
vn 0.2108 -0.6497 0.7304
vn 0.7983 0.3193 0.5107
vn 0.3199 0.6730 0.6668
vn -0.5977 0.5517 0.5817
vn -0.7071 -0.7071 -0.0000
vn 0.0000 -1.0000 -0.0000
vn 0.7624 -0.6471 -0.0000
vn 0.8662 0.4998 0.0000
vn 0.6132 -0.6363 0.4681
vn 0.2344 0.9721 0.0000
vn -0.7383 0.6744 0.0000
vn -0.5774 -0.5774 0.5774
vn 0.2108 -0.6497 -0.7304
vn 0.7983 0.3193 -0.5107
vn 0.6132 -0.6363 -0.4681
vn -0.5977 0.5517 -0.5817
vn 0.3199 0.6730 -0.6668
vn -0.5774 -0.5774 -0.5774
vn 0.4595 0.7682 -0.4458
vn 0.6898 0.2794 -0.6679
vn 0.4371 0.2945 -0.8498
vn 0.7877 0.6161 0.0040
vn 0.7793 -0.4640 0.4213
vn 0.7877 -0.6161 0.0040
vn 0.4226 -0.7773 0.4660
vn 0.3614 -0.9319 -0.0298
vn 0.4226 0.7773 0.4660
vn 0.7793 0.4640 0.4213
vn 0.8241 0.4765 -0.3064
vn 0.3614 0.9319 -0.0298
vn 0.8241 -0.4765 -0.3064
vn 0.4595 -0.7682 -0.4458
vn 0.6769 0.2479 0.6931
vn 0.6337 -0.3133 0.7073
vn 0.6769 -0.2479 0.6931
vn 0.6898 -0.2794 -0.6679
vn 0.4371 -0.2945 -0.8498
vn -0.5774 0.5774 0.5774
vn -0.7256 0.0000 -0.6881
vn -0.7256 -0.0000 0.6881
vn -0.5774 0.5774 -0.5774
vn 0.6891 0.0000 -0.7247
vn 0.5774 0.5774 -0.5774
vn 0.6891 -0.0000 0.7247
vn 0.5774 0.5774 0.5774
vn 0.6337 0.3133 0.7073
s 1
f 1/1/1 2/2/2 3/3/3
f 4/4/4 1/1/1 3/3/3
f 1/1/1 5/5/5 6/6/6
f 2/2/2 7/7/7 8/8/8
f 6/6/6 9/9/9 1/1/1
f 2/2/2 10/10/10 3/3/3
f 3/3/3 11/11/11 4/4/4
f 11/12/11 12/13/12 4/14/4
f 13/15/13 14/16/14 15/17/15
f 13/15/13 16/18/16 17/19/17
f 5/5/5 13/15/13 6/6/6
f 7/7/7 14/16/14 8/8/8
f 6/6/6 15/17/15 7/7/7
f 10/10/10 14/16/14 17/19/17
f 17/19/17 11/11/11 10/10/10
f 18/20/18 11/12/11 16/21/16
f 19/22/19 20/23/20 21/24/21
f 22/25/22 23/26/23 24/27/24
f 24/27/24 25/28/25 26/29/26
f 22/25/22 27/30/27 28/31/28
f 29/32/29 30/33/30 22/25/22
f 31/34/31 26/29/26 32/35/32
f 29/32/29 24/27/24 31/34/31
f 33/36/33 34/37/34 35/38/35
f 25/28/25 35/38/35 34/37/34
f 27/30/27 33/36/33 28/31/28
f 23/26/23 33/36/33 35/38/35
f 21/24/21 36/39/36 37/40/37
f 31/34/31 20/23/20 29/32/29
f 32/35/32 36/39/36 31/34/31
f 38/41/38 39/42/39 40/43/40
f 41/44/41 42/45/42 39/46/39
f 43/47/43 44/48/44 42/45/42
f 44/49/44 38/50/38 40/51/40
f 41/52/41 45/53/45 43/54/43
f 1/1/1 9/9/9 2/2/2
f 4/4/4 12/55/12 1/1/1
f 1/1/1 12/55/12 5/5/5
f 2/2/2 9/9/9 7/7/7
f 6/6/6 7/7/7 9/9/9
f 2/2/2 8/8/8 10/10/10
f 3/3/3 10/10/10 11/11/11
f 11/12/11 5/56/5 12/13/12
f 13/15/13 17/19/17 14/16/14
f 13/15/13 18/57/18 16/18/16
f 5/5/5 18/57/18 13/15/13
f 7/7/7 15/17/15 14/16/14
f 6/6/6 13/15/13 15/17/15
f 10/10/10 8/8/8 14/16/14
f 17/19/17 16/18/16 11/11/11
f 18/20/18 5/56/5 11/12/11
f 19/22/19 29/32/29 20/23/20
f 22/25/22 28/31/28 23/26/23
f 24/27/24 23/26/23 25/28/25
f 22/25/22 30/33/30 27/30/27
f 29/32/29 19/22/19 30/33/30
f 31/34/31 24/27/24 26/29/26
f 29/32/29 22/25/22 24/27/24
f 33/36/33 46/58/46 34/37/34
f 25/28/25 23/26/23 35/38/35
f 27/30/27 46/58/46 33/36/33
f 23/26/23 28/31/28 33/36/33
f 21/24/21 20/23/20 36/39/36
f 31/34/31 36/39/36 20/23/20
f 32/35/32 37/40/37 36/39/36
f 38/41/38 41/59/41 39/42/39
f 41/44/41 43/47/43 42/45/42
f 43/47/43 45/60/45 44/48/44
f 44/49/44 45/61/45 38/50/38
f 41/52/41 38/62/38 45/53/45
