# ..:::Stalker models:::..
# WebSite: http://excalibur-craft.ru
mtllib skeleton_parts_4.mtl
o 0.009
v -0.051238 0.036336 0.119786
v -0.038526 0.053223 0.141042
v -0.032563 0.073410 0.115143
v 0.006285 0.098112 0.100179
v 0.061942 0.041129 0.007928
v 0.028183 0.020088 -0.008311
v 0.050285 0.020156 -0.032199
v 0.005891 0.003390 -0.039135
v -0.010013 0.018615 -0.007856
v -0.063481 0.047550 -0.019406
v -0.040884 0.013293 -0.042883
v -0.064341 0.034626 -0.050420
v 0.000487 0.197028 -0.060271
v 0.030402 0.184476 -0.049629
v 0.045874 0.189977 -0.066445
v -0.005418 0.204746 -0.075521
v 0.047996 0.178947 -0.044598
v 0.067257 0.176785 -0.051121
v -0.001608 0.210115 -0.014457
v 0.011749 0.193570 -0.019501
v 0.011174 0.185157 -0.040948
v -0.009891 0.200440 -0.060023
v -0.012973 0.217721 -0.015847
v 0.058837 0.168108 -0.035061
v 0.070244 0.153512 -0.037534
v 0.028543 0.184550 -0.033550
v 0.045045 0.179396 -0.031279
v 0.073373 0.158878 -0.016461
v 0.082181 0.131874 -0.019954
v 0.015955 0.196598 0.001061
v 0.048056 0.170732 0.023680
v 0.066165 0.104444 0.029468
v -0.014774 0.208791 0.005261
v -0.018708 0.201595 0.043453
v 0.005606 0.192594 0.048001
v -0.014166 0.139792 0.044391
v 0.040219 0.166514 0.050693
v 0.025794 0.144607 0.086553
v 0.053399 0.116050 0.065518
v 0.016122 0.174378 0.073809
v 0.005606 0.192594 0.048001
v -0.020470 0.192572 0.064284
v 0.009724 0.172653 0.091918
v -0.022943 0.186027 0.089584
v 0.002880 0.163377 0.100831
v -0.023514 0.174627 0.101786
v -0.019126 0.107451 0.082853
v 0.023592 0.108548 0.086251
v 0.052569 0.104898 0.073386
v 0.058030 0.080477 0.021959
v 0.019019 0.090378 0.119268
v 0.050026 0.046893 0.133880
v -0.018983 0.052766 0.154426
v 0.074332 0.028723 0.085002
v 0.055480 0.009599 0.050376
v 0.041689 0.022024 0.024193
v 0.069704 0.044881 0.044420
v 0.083061 0.106682 -0.026176
v -0.051238 0.036336 0.119786
v -0.013141 0.027797 0.127927
v -0.038526 0.053223 0.141042
v 0.030267 0.032431 0.120062
v 0.050026 0.046893 0.133880
v -0.018983 0.052766 0.154426
v -0.019156 0.008232 0.102679
v -0.002162 0.005365 0.064806
v 0.032693 0.009858 0.081110
v 0.068545 0.128953 -0.060388
v 0.078573 0.104926 -0.003525
v 0.079817 0.092468 -0.044952
v 0.040647 0.170892 -0.087756
v -0.002305 0.184757 -0.093884
v 0.065228 0.153058 -0.079085
v 0.065858 0.154321 -0.101366
v 0.082687 0.104807 -0.072669
v 0.061565 0.056964 -0.004752
v 0.071432 0.044847 -0.034510
v 0.075453 0.065384 -0.114977
v 0.050600 0.107538 -0.146303
v 0.071304 0.125893 -0.118725
v 0.078141 0.061229 -0.074634
v 0.061147 0.019435 -0.072525
v 0.010911 -0.003767 -0.077372
v 0.058738 0.029762 -0.108390
v 0.015498 0.055073 -0.154317
v 0.012229 0.108808 -0.160936
v 0.006780 0.155137 -0.144199
v 0.001943 0.179991 -0.118893
v 0.042192 0.171629 -0.111650
v 0.052551 0.060873 -0.141799
v 0.014446 0.013630 -0.118714
v 0.043781 0.150469 -0.134531
v 0.073125 0.091578 -0.010068
v 0.078573 0.104926 -0.003525
v 0.093673 0.081751 -0.000793
v 0.096065 0.076517 -0.018121
v 0.066165 0.104444 0.029468
v 0.077490 0.092738 0.026442
v 0.093673 0.081751 -0.000793
v 0.077490 0.092738 0.026442
v 0.073125 0.091578 -0.010068
v 0.083061 0.106682 -0.026176
v 0.089637 0.089718 -0.038950
v 0.066165 0.104444 0.029468
v 0.096065 0.076517 -0.018121
v 0.098938 0.080656 -0.036437
v 0.083061 0.106682 -0.026176
v 0.089637 0.089718 -0.038950
v 0.098938 0.080656 -0.036437
v -0.026086 0.103455 0.098113
v 0.074332 0.028723 0.085002
v 0.055480 0.009599 0.050376
v -0.018708 0.201595 0.043453
v 0.021253 0.180824 0.045019
v -0.057563 0.187471 -0.069363
v -0.042020 0.179024 -0.058116
v -0.077051 0.164823 -0.071739
v -0.059285 0.170871 -0.057170
v -0.023101 0.208497 -0.016978
v -0.025620 0.182387 -0.045259
v -0.032866 0.186812 -0.028243
v -0.070304 0.158386 -0.050193
v -0.078779 0.142809 -0.053779
v -0.043939 0.179093 -0.042045
v -0.059574 0.171520 -0.043539
v -0.077742 0.173234 -0.026990
v -0.087222 0.146898 -0.035156
v -0.090911 0.119047 -0.040112
v -0.042780 0.186906 -0.012938
v -0.044964 0.180100 0.005632
v -0.073880 0.161649 0.009791
v -0.054214 0.175225 0.034152
v -0.082787 0.093230 0.012014
v -0.044964 0.180100 0.005632
v -0.016833 0.202525 0.026857
v -0.041813 0.189024 0.042444
v -0.071876 0.158075 0.037557
v -0.080509 0.105970 0.049825
v -0.063009 0.137922 0.076145
v -0.055173 0.169011 0.065455
v -0.041813 0.189024 0.042444
v -0.052927 0.167936 0.084576
v -0.047023 0.159621 0.094983
v -0.049995 0.090470 0.045559
v -0.061601 0.061927 0.020279
v -0.058957 0.046473 0.007855
v -0.039340 0.086775 0.074127
v -0.037626 0.012820 0.051628
v -0.049821 0.067505 0.064855
v -0.063124 0.027900 0.090195
v 0.016138 0.005888 0.029835
v 0.006907 0.017470 0.015071
v -0.037626 0.012820 0.051628
v -0.086576 0.093911 -0.046056
v -0.063124 0.027900 0.090195
v -0.068038 0.118670 -0.076393
v -0.087208 0.092446 -0.022952
v -0.077040 0.080660 -0.063334
v -0.043979 0.171600 -0.094306
v -0.066064 0.148853 -0.089496
v -0.059777 0.144863 -0.116089
v -0.075250 0.092917 -0.091177
v -0.052742 0.055733 -0.129999
v -0.056826 0.116248 -0.133740
v -0.027858 0.101632 -0.155497
v -0.063989 0.050529 -0.091290
v -0.041954 0.011674 -0.084607
v -0.032916 0.022862 -0.119131
v -0.037204 0.165652 -0.120955
v -0.023878 0.055120 -0.150756
v -0.030347 0.144888 -0.143217
v -0.078491 0.080164 -0.027836
v -0.087208 0.092446 -0.022952
v -0.096482 0.062022 -0.040685
v -0.098938 0.067251 -0.023366
v -0.091256 0.080035 0.006668
v -0.082787 0.093230 0.012014
v -0.098938 0.067251 -0.023366
v -0.078491 0.080164 -0.027836
v -0.091256 0.080035 0.006668
v -0.087460 0.076386 -0.059703
v -0.086576 0.093911 -0.046056
v -0.082787 0.093230 0.012014
v -0.096482 0.062022 -0.040685
v -0.086576 0.093911 -0.046056
v -0.095646 0.066008 -0.059240
v -0.087460 0.076386 -0.059703
v -0.095646 0.066008 -0.059240
v 0.016138 0.005888 0.029835
v -0.016833 0.202525 0.026857
v -0.054214 0.175225 0.034152
v 0.011749 0.193570 -0.019501
v 0.058629 0.182888 -0.012059
v 0.028543 0.184550 -0.033550
v 0.011174 0.185157 -0.040948
v 0.045045 0.179396 -0.031279
v 0.073373 0.158878 -0.016461
v 0.058837 0.168108 -0.035061
v 0.015955 0.196598 0.001061
v -0.014774 0.208791 0.005261
v 0.007291 0.192580 0.032614
v 0.048056 0.170732 0.023680
v 0.021253 0.180824 0.045019
v 0.007291 0.192580 0.032614
v 0.040219 0.166514 0.050693
v -0.016833 0.202525 0.026857
v 0.016122 0.174378 0.073809
v 0.005606 0.192594 0.048001
vt 0.8161 0.5016
vt 0.8248 0.5107
vt 0.7918 0.5259
vt 0.8076 0.5781
vt 0.9197 0.6718
vt 0.9768 0.6780
vt 0.9287 0.6971
vt 0.9845 0.7068
vt 0.9197 0.6718
vt 0.8830 0.6772
vt 0.9287 0.6971
vt 0.8999 0.7058
vt 0.7075 0.7486
vt 0.7405 0.7398
vt 0.7480 0.7486
vt 0.6975 0.7604
vt 0.7588 0.7348
vt 0.7796 0.7451
vt 0.7004 0.7051
vt 0.7197 0.7099
vt 0.7228 0.7307
vt 0.7030 0.7495
vt 0.6868 0.7067
vt 0.7733 0.7249
vt 0.7943 0.7245
vt 0.7388 0.7236
vt 0.7559 0.7214
vt 0.7946 0.7050
vt 0.8150 0.7055
vt 0.7222 0.6899
vt 0.7679 0.6674
vt 0.8308 0.6505
vt 0.6890 0.6851
vt 0.5098 0.7329
vt 0.5109 0.7108
vt 0.5710 0.7198
vt 0.7600 0.6405
vt 0.7612 0.6016
vt 0.8069 0.6152
vt 0.7312 0.6210
vt 0.7139 0.6456
vt 0.6905 0.6320
vt 0.7255 0.6026
vt 0.6902 0.6060
vt 0.7216 0.5920
vt 0.6947 0.5923
vt 0.7649 0.5705
vt 0.8208 0.6102
vt 0.8407 0.6323
vt 0.8625 0.6611
vt 0.8367 0.5677
vt 0.8861 0.5577
vt 0.8426 0.5205
vt 0.9296 0.6028
vt 0.9701 0.6102
vt 0.9666 0.6454
vt 0.9129 0.6434
vt 0.8392 0.7086
vt 0.6489 0.1671
vt 0.6195 0.1783
vt 0.6324 0.1523
vt 0.5937 0.1961
vt 0.5754 0.1892
vt 0.6138 0.1511
vt 0.6330 0.1988
vt 0.6367 0.2286
vt 0.6069 0.2289
vt 0.8190 0.7439
vt 0.8379 0.6856
vt 0.8550 0.7256
vt 0.7545 0.7784
vt 0.7108 0.7872
vt 0.7931 0.7649
vt 0.7977 0.7914
vt 0.8468 0.7535
vt 0.8830 0.6772
vt 0.8999 0.7058
vt 0.8910 0.7887
vt 0.8487 0.8361
vt 0.8244 0.8065
vt 0.8898 0.7485
vt 0.9451 0.7404
vt 0.9906 0.7511
vt 0.9349 0.7811
vt 0.9333 0.8555
vt 0.8540 0.8794
vt 0.7724 0.8611
vt 0.7277 0.8269
vt 0.7627 0.8056
vt 0.9061 0.8214
vt 0.9814 0.8013
vt 0.7969 0.8317
vt 0.8379 0.6856
vt 0.7607 0.4522
vt 0.7993 0.4621
vt 0.7959 0.4831
vt 0.7648 0.4102
vt 0.7912 0.4229
vt 0.8125 0.4528
vt 0.8118 0.4222
vt 0.8290 0.4513
vt 0.8543 0.4562
vt 0.8410 0.4777
vt 0.8241 0.4110
vt 0.8151 0.4701
vt 0.7820 0.5024
vt 0.7532 0.4789
vt 0.7638 0.4992
vt 0.8291 0.4825
vt 0.7712 0.5490
vt 0.5781 0.2337
vt 0.6039 0.2554
vt 0.6891 0.6538
vt 0.5163 0.6953
vt 0.7480 0.7486
vt 0.7405 0.7398
vt 0.7796 0.7451
vt 0.7588 0.7348
vt 0.7004 0.7051
vt 0.7228 0.7307
vt 0.7197 0.7099
vt 0.7733 0.7249
vt 0.7943 0.7245
vt 0.7388 0.7236
vt 0.7559 0.7214
vt 0.7667 0.7027
vt 0.7946 0.7050
vt 0.8150 0.7055
vt 0.7222 0.6899
vt 0.7160 0.6582
vt 0.7679 0.6674
vt 0.7338 0.6475
vt 0.8308 0.6505
vt 0.5241 0.6798
vt 0.5410 0.6662
vt 0.5109 0.7108
vt 0.7600 0.6405
vt 0.8069 0.6152
vt 0.7612 0.6016
vt 0.7312 0.6210
vt 0.7148 0.6486
vt 0.7255 0.6026
vt 0.7216 0.5920
vt 0.8208 0.6102
vt 0.8407 0.6323
vt 0.8625 0.6611
vt 0.8076 0.5781
vt 0.8861 0.5577
vt 0.8367 0.5677
vt 0.8426 0.5205
vt 0.9296 0.6028
vt 0.9129 0.6434
vt 0.6663 0.2217
vt 0.8392 0.7086
vt 0.6685 0.1841
vt 0.8190 0.7439
vt 0.8379 0.6856
vt 0.8550 0.7256
vt 0.7545 0.7784
vt 0.7931 0.7649
vt 0.7977 0.7914
vt 0.8468 0.7535
vt 0.8910 0.7887
vt 0.8244 0.8065
vt 0.8487 0.8361
vt 0.8898 0.7485
vt 0.9451 0.7404
vt 0.9349 0.7811
vt 0.7627 0.8056
vt 0.9061 0.8214
vt 0.7969 0.8317
vt 0.8379 0.6856
vt 0.6466 0.5582
vt 0.6817 0.5891
vt 0.6852 0.5681
vt 0.6771 0.5289
vt 0.6506 0.5163
vt 0.6093 0.4588
vt 0.5928 0.4572
vt 0.6100 0.4281
vt 0.5808 0.4836
vt 0.5675 0.4622
vt 0.5977 0.4170
vt 0.6067 0.4761
vt 0.6391 0.5850
vt 0.6679 0.6084
vt 0.6497 0.6053
vt 0.5927 0.4885
vt 0.6386 0.2558
vt 0.6897 0.6631
vt 0.5163 0.6953
vt 0.2102 0.4214
vt 0.2132 0.4689
vt 0.1948 0.4392
vt 0.1891 0.4227
vt 0.1955 0.4565
vt 0.2085 0.4965
vt 0.1905 0.4735
vt 0.2298 0.4257
vt 0.2375 0.3929
vt 0.2620 0.4222
vt 0.2483 0.4731
vt 0.2710 0.4409
vt 0.5241 0.6798
vt 0.2757 0.4676
vt 0.2594 0.3956
vt 0.2977 0.4406
vt 0.2716 0.4219
vn -0.9019 0.0457 0.4296
vn -0.5992 0.3527 0.7187
vn -0.6567 0.5782 0.4842
vn -0.1147 0.8173 0.5647
vn 0.8224 -0.5672 0.0449
vn 0.2824 -0.9395 0.1941
vn 0.5000 -0.8373 0.2212
vn 0.0455 -0.9541 0.2961
vn -0.1728 -0.9462 0.2736
vn -0.7469 -0.6289 0.2159
vn -0.4510 -0.8582 0.2452
vn -0.8614 -0.5072 0.0280
vn 0.4035 0.9030 0.1476
vn 0.1850 0.9430 0.2765
vn 0.3567 0.9298 0.0905
vn 0.0557 0.9470 -0.3165
vn 0.3308 0.9021 0.2770
vn 0.8118 0.5826 0.0406
vn 0.6488 0.7606 -0.0262
vn 0.4398 0.8524 -0.2829
vn 0.4416 0.8940 -0.0758
vn -0.3463 0.9287 0.1328
vn 0.0121 0.9980 -0.0617
vn 0.6811 0.7313 0.0374
vn 0.9412 0.2986 -0.1582
vn 0.2365 0.9573 -0.1661
vn 0.4573 0.8698 -0.1854
vn 0.8964 0.4364 0.0778
vn 0.9840 0.1659 0.0654
vn 0.4645 0.8735 0.1460
vn 0.7430 0.5709 0.3494
vn 0.9194 0.0228 0.3926
vn -0.1729 0.9375 0.3020
vn 0.0095 0.8023 -0.5969
vn 0.4155 0.8659 -0.2786
vn -0.0599 0.8645 -0.4990
vn 0.7101 0.5748 0.4068
vn 0.5957 0.1678 0.7855
vn 0.8049 0.2772 0.5247
vn 0.5502 0.7548 0.3571
vn -0.1124 0.9238 0.3661
vn 0.5133 0.6157 0.5978
vn -0.1137 0.9176 0.3810
vn 0.3025 0.0366 0.9525
vn -0.1356 0.3681 0.9198
vn -0.3314 0.1698 0.9281
vn 0.1941 0.5799 0.7912
vn 0.8048 0.3348 0.4902
vn 0.9848 0.0190 0.1728
vn 0.0657 0.7863 0.6143
vn 0.7387 0.0082 0.6739
vn -0.0382 -0.2634 0.9639
vn 0.8762 -0.4626 0.1351
vn 0.5224 -0.8261 -0.2113
vn 0.5202 -0.7825 -0.3422
vn 0.9672 -0.2062 -0.1487
vn 0.9488 0.2088 -0.2370
vn -0.1848 -0.7668 0.6148
vn -0.5992 0.3528 0.7187
vn 0.2001 -0.8293 0.5217
vn 0.7388 0.0082 0.6739
vn -0.0381 -0.2634 0.9639
vn -0.1188 -0.9379 0.3260
vn -0.0037 -0.9907 0.1357
vn 0.1559 -0.9461 0.2840
vn 0.9768 0.2143 -0.0012
vn 0.8925 0.3949 0.2181
vn 0.9967 -0.0400 0.0711
vn 0.5248 0.7730 -0.3563
vn 0.0058 0.9291 -0.3697
vn 0.8802 0.4490 -0.1534
vn 0.8284 0.5468 -0.1215
vn 0.9874 0.1572 0.0184
vn 0.9888 -0.0518 0.1396
vn 0.9385 -0.2958 0.1783
vn 0.9071 -0.1653 -0.3871
vn 0.5666 0.0714 -0.8209
vn 0.8614 0.2270 -0.4543
vn 0.9644 -0.2624 -0.0324
vn 0.7356 -0.6770 -0.0229
vn 0.0875 -0.9900 -0.1108
vn 0.6658 -0.6462 -0.3730
vn 0.1332 -0.2978 -0.9453
vn 0.1013 0.1783 -0.9787
vn 0.0472 0.6074 -0.7930
vn -0.0118 0.8839 -0.4675
vn 0.4067 0.8527 -0.3277
vn 0.5413 -0.3845 -0.7478
vn 0.1315 -0.7648 -0.6307
vn 0.5058 0.4723 -0.7219
vn 0.9103 -0.3372 0.2401
vn 0.8925 0.3949 0.2180
vn 0.6497 -0.6110 0.4523
vn 0.6928 -0.7112 0.1194
vn 0.3979 -0.4541 0.7972
vn 0.3978 -0.4540 0.7973
vn -0.6873 -0.7151 -0.1275
vn 0.9488 0.2089 -0.2371
vn -0.5428 -0.0646 -0.8374
vn 0.9194 0.0229 0.3926
vn 0.9090 -0.0191 -0.4164
vn 0.9090 -0.0192 -0.4163
vn -0.4511 0.7890 0.4172
vn 0.8762 -0.4626 0.1350
vn 0.5225 -0.8261 -0.2113
vn 0.4152 0.8815 0.2248
vn -0.5084 0.8291 0.2327
vn -0.3606 0.8315 0.4225
vn -0.9050 0.4050 -0.1299
vn -0.5602 0.7758 0.2903
vn -0.7426 0.6426 -0.1887
vn -0.5452 0.8225 -0.1621
vn -0.4619 0.8113 -0.3584
vn -0.7678 0.6226 -0.1512
vn -0.9135 0.1607 -0.3739
vn -0.3229 0.9235 -0.2070
vn -0.5263 0.7955 -0.3004
vn -0.5673 0.7856 -0.2472
vn -0.9454 0.2948 -0.1391
vn -0.9851 0.0195 -0.1707
vn -0.4685 0.8799 0.0798
vn -0.2251 0.8520 0.4728
vn -0.8651 0.4752 0.1606
vn -0.2389 0.9704 0.0346
vn -0.9561 -0.1745 0.2356
vn -0.2251 0.8520 0.4727
vn -0.3700 0.6490 0.6648
vn -0.4413 0.8156 -0.3742
vn -0.8586 0.4615 0.2232
vn -0.8526 -0.2360 0.4663
vn -0.7786 -0.0944 0.6203
vn -0.7233 0.6594 0.2048
vn -0.4412 0.8157 -0.3742
vn -0.7222 0.5227 0.4530
vn -0.5212 -0.0188 0.8532
vn -0.7262 -0.1416 0.6727
vn -0.8510 -0.3601 0.3824
vn -0.7371 -0.6754 -0.0212
vn -0.8474 0.4784 0.2302
vn -0.6541 -0.7497 -0.1009
vn -0.9741 0.1787 0.1387
vn -0.7962 -0.5696 0.2041
vn 0.0020 -0.9406 -0.3396
vn -0.1796 -0.9587 -0.2204
vn -0.8866 0.0737 -0.4567
vn -0.9702 0.0432 -0.2385
vn -0.9670 0.2548 0.0002
vn -0.9696 -0.1865 -0.1586
vn -0.4975 0.6801 -0.5385
vn -0.8612 0.2403 -0.4480
vn -0.8403 0.3845 -0.3821
vn -0.9773 0.0093 -0.2118
vn -0.7592 -0.2907 -0.5823
vn -0.7577 0.1051 -0.6440
vn -0.3668 0.0011 -0.9303
vn -0.8815 -0.4014 -0.2487
vn -0.6024 -0.7777 -0.1797
vn -0.4593 -0.7309 -0.5049
vn -0.4034 0.7633 -0.5046
vn -0.2920 -0.4472 -0.8454
vn -0.3903 0.4048 -0.8269
vn -0.8894 -0.4563 0.0266
vn -0.9670 0.2548 0.0001
vn -0.5888 -0.8077 -0.0308
vn -0.6387 -0.7080 0.3012
vn -0.4989 -0.5215 0.6922
vn -0.6387 -0.7080 0.3013
vn 0.7960 -0.6035 0.0463
vn 0.7242 0.0308 -0.6889
vn -0.9560 -0.1746 0.2356
vn -0.7758 -0.1460 -0.6138
vn -0.7758 -0.1459 -0.6138
vn 0.5227 0.8407 -0.1414
vn 0.6811 0.7312 0.0373
vn 0.1503 0.7804 0.6070
vn 0.7101 0.5748 0.4067
vn -0.3700 0.6490 0.6647
usemtl act_trupik.002
s 1
f 1/1/1 2/2/2 3/3/3
f 3/3/3 2/2/2 4/4/4
f 5/5/5 6/6/6 7/7/7
f 7/7/7 6/6/6 8/8/8
f 9/9/9 10/10/10 11/11/11
f 11/11/11 10/10/10 12/12/12
f 13/13/13 14/14/14 15/15/15
f 15/15/15 16/16/16 13/13/13
f 15/15/15 17/17/17 18/18/18
f 17/17/17 15/15/15 14/14/14
f 19/19/19 20/20/20 21/21/21
f 13/13/13 16/16/16 22/22/22
f 13/13/13 23/23/23 19/19/19
f 24/24/24 25/25/25 18/18/18
f 18/18/18 17/17/17 24/24/24
f 21/21/21 26/26/26 14/14/14
f 26/26/26 27/27/27 17/17/17
f 17/17/17 14/14/14 26/26/26
f 24/24/24 17/17/17 27/27/27
f 28/28/28 29/29/29 25/25/25
f 21/21/21 13/13/13 19/19/19
f 14/14/14 13/13/13 21/21/21
f 19/19/19 30/30/30 20/20/20
f 28/28/28 31/31/31 32/32/32
f 23/23/23 33/33/33 19/19/19
f 30/30/30 19/19/19 33/33/33
f 13/13/13 22/22/22 23/23/23
f 34/34/34 35/35/35 36/36/36
f 37/37/37 38/38/38 39/39/39
f 40/40/40 41/41/35 42/42/41
f 38/38/38 40/40/40 43/43/42
f 44/44/43 43/43/42 40/40/40
f 40/40/40 42/42/41 44/44/43
f 38/38/38 43/43/42 45/45/44
f 46/46/45 45/45/44 43/43/42
f 43/43/42 44/44/43 46/46/45
f 45/45/44 47/47/46 38/38/38
f 47/47/46 48/48/47 38/38/38
f 45/45/44 46/46/45 47/47/46
f 49/49/48 50/50/49 32/32/32
f 39/39/39 38/38/38 48/48/47
f 49/49/48 51/51/50 52/52/51
f 53/53/52 51/51/50 2/2/2
f 54/54/53 55/55/54 56/56/55
f 56/56/55 57/57/56 54/54/53
f 57/57/56 50/50/49 54/54/53
f 25/25/25 29/29/29 58/58/57
f 59/59/1 60/60/58 61/61/59
f 62/62/60 63/63/61 64/64/62
f 62/62/60 65/65/63 66/66/64
f 60/60/58 65/65/63 62/62/60
f 62/62/60 66/66/64 67/67/65
f 25/25/25 68/68/66 18/18/18
f 28/28/28 25/25/25 24/24/24
f 32/32/32 69/69/67 29/29/29
f 29/29/29 28/28/28 32/32/32
f 39/39/39 32/32/32 31/31/31
f 31/31/31 37/37/37 39/39/39
f 25/25/25 70/70/68 68/68/66
f 70/70/68 25/25/25 58/58/57
f 71/71/69 72/72/70 16/16/16
f 16/16/16 15/15/15 71/71/69
f 18/18/18 71/71/69 15/15/15
f 71/71/69 18/18/18 73/73/71
f 68/68/66 73/73/71 18/18/18
f 74/74/72 68/68/66 75/75/73
f 70/70/68 75/75/73 68/68/66
f 39/39/39 49/49/48 32/32/32
f 57/57/56 5/5/5 76/76/74
f 76/76/74 50/50/49 57/57/56
f 56/56/55 5/5/5 57/57/56
f 5/5/5 56/56/55 6/6/6
f 77/77/75 5/5/5 7/7/7
f 78/78/76 79/79/77 80/80/78
f 75/75/73 70/70/68 81/81/79
f 77/77/75 81/81/79 70/70/68
f 77/77/75 7/7/7 82/82/80
f 83/83/81 82/82/80 7/7/7
f 7/7/7 8/8/8 83/83/81
f 81/81/79 82/82/80 84/84/82
f 79/79/77 85/85/83 86/86/84
f 87/87/85 88/88/86 89/89/87
f 90/90/88 91/91/89 85/85/83
f 84/84/82 82/82/80 83/83/81
f 79/79/77 86/86/84 92/92/90
f 92/92/90 80/80/78 79/79/77
f 87/87/85 92/92/90 86/86/84
f 79/79/77 90/90/88 85/85/83
f 78/78/76 90/90/88 79/79/77
f 74/74/72 89/89/87 71/71/69
f 72/72/70 71/71/69 89/89/87
f 68/68/66 74/74/72 73/73/71
f 71/71/69 73/73/71 74/74/72
f 4/4/4 51/51/50 48/48/47
f 5/5/5 77/77/75 76/76/74
f 70/70/68 58/58/57 93/93/91
f 32/32/32 50/50/49 93/93/91
f 94/94/92 95/95/93 96/96/94
f 94/94/92 97/97/32 98/98/95
f 99/99/93 100/100/96 101/101/97
f 101/101/97 102/102/98 103/103/99
f 104/104/100 101/101/97 100/100/96
f 105/105/94 99/99/93 101/101/97
f 94/94/92 106/106/101 107/107/57
f 95/95/93 94/94/92 98/98/95
f 69/69/67 58/58/57 29/29/29
f 60/60/58 64/64/62 61/61/59
f 76/76/74 70/70/68 93/93/91
f 93/93/91 50/50/49 76/76/74
f 89/89/87 88/88/86 72/72/70
f 107/107/57 106/106/101 108/108/99
f 101/101/97 103/103/99 109/109/102
f 2/2/2 51/51/50 4/4/4
f 53/53/52 52/52/51 51/51/50
f 49/49/48 48/48/47 51/51/50
f 62/62/60 64/64/62 60/60/58
f 4/4/4 47/47/46 110/110/103
f 110/110/103 3/3/3 4/4/4
f 63/63/61 62/62/60 111/111/104
f 49/49/48 52/52/51 50/50/49
f 54/54/53 50/50/49 52/52/51
f 67/67/65 111/111/104 62/62/60
f 111/111/104 67/67/65 112/112/105
f 4/4/4 48/48/47 47/47/46
f 48/48/47 49/49/48 39/39/39
f 42/42/41 41/41/35 113/113/34
f 35/35/35 114/114/106 36/36/36
f 40/40/40 38/38/38 37/37/37
f 74/74/72 80/80/78 92/92/90
f 87/87/85 89/89/87 92/92/90
f 92/92/90 89/89/87 74/74/72
f 81/81/79 78/78/76 75/75/73
f 81/81/79 84/84/82 78/78/76
f 74/74/72 75/75/73 80/80/78
f 80/80/78 75/75/73 78/78/76
f 90/90/88 84/84/82 91/91/89
f 91/91/89 84/84/82 83/83/81
f 78/78/76 84/84/82 90/90/88
f 81/81/79 77/77/75 82/82/80
f 70/70/68 76/76/74 77/77/75
f 109/109/102 105/105/94 101/101/97
f 94/94/92 96/96/94 106/106/101
f 22/22/22 115/115/107 116/116/108
f 115/115/107 22/22/22 16/16/16
f 115/115/107 117/117/109 118/118/110
f 118/118/110 116/116/108 115/115/107
f 119/119/111 120/120/112 121/121/113
f 22/22/22 119/119/111 23/23/23
f 122/122/114 117/117/109 123/123/115
f 117/117/109 122/122/114 118/118/110
f 120/120/112 116/116/108 124/124/116
f 124/124/116 118/118/110 125/125/117
f 118/118/110 124/124/116 116/116/108
f 122/122/114 125/125/117 118/118/110
f 121/121/113 124/124/116 126/126/118
f 124/124/116 121/121/113 120/120/112
f 125/125/117 126/126/118 124/124/116
f 126/126/118 122/122/114 127/127/119
f 122/122/114 126/126/118 125/125/117
f 127/127/119 123/123/115 128/128/120
f 120/120/112 119/119/111 22/22/22
f 116/116/108 120/120/112 22/22/22
f 119/119/111 121/121/113 129/129/121
f 129/129/121 130/130/122 33/33/33
f 126/126/118 129/129/121 121/121/113
f 126/126/118 127/127/119 131/131/123
f 132/132/124 129/129/121 131/131/123
f 127/127/119 133/133/125 131/131/123
f 23/23/23 119/119/111 33/33/33
f 129/129/121 33/33/33 119/119/111
f 126/126/118 131/131/123 129/129/121
f 134/134/126 36/36/36 135/135/127
f 34/34/34 36/36/36 136/136/128
f 137/137/129 138/138/130 139/139/131
f 140/140/132 42/42/41 141/141/133
f 139/139/131 142/142/134 140/140/132
f 44/44/43 140/140/132 142/142/134
f 140/140/132 44/44/43 42/42/41
f 137/137/129 132/132/124 131/131/123
f 139/139/131 143/143/135 142/142/134
f 46/46/45 142/142/134 143/143/135
f 142/142/134 46/46/45 44/44/43
f 143/143/135 139/139/131 47/47/46
f 47/47/46 139/139/131 144/144/136
f 143/143/135 47/47/46 46/46/45
f 145/145/137 133/133/125 146/146/138
f 138/138/130 144/144/136 139/139/131
f 147/147/139 1/1/1 3/3/3
f 145/145/137 148/148/140 149/149/141
f 150/150/142 1/1/1 149/149/141
f 151/151/143 56/56/55 55/55/54
f 56/56/55 151/151/143 152/152/144
f 152/152/144 151/151/143 146/146/138
f 65/65/63 153/153/140 66/66/64
f 123/123/115 154/154/145 128/128/120
f 65/65/63 155/155/142 153/153/140
f 123/123/115 117/117/109 156/156/146
f 127/127/119 122/122/114 123/123/115
f 133/133/125 128/128/120 157/157/147
f 128/128/120 133/133/125 127/127/119
f 138/138/130 131/131/123 133/133/125
f 131/131/123 138/138/130 137/137/129
f 123/123/115 156/156/146 158/158/148
f 158/158/148 154/154/145 123/123/115
f 159/159/149 16/16/16 72/72/70
f 16/16/16 159/159/149 115/115/107
f 117/117/109 115/115/107 159/159/149
f 159/159/149 160/160/150 117/117/109
f 156/156/146 117/117/109 160/160/150
f 161/161/151 162/162/152 156/156/146
f 158/158/148 156/156/146 162/162/152
f 138/138/130 133/133/125 145/145/137
f 152/152/144 10/10/10 9/9/9
f 10/10/10 152/152/144 146/146/138
f 56/56/55 152/152/144 9/9/9
f 9/9/9 6/6/6 56/56/55
f 8/8/8 9/9/9 11/11/11
f 9/9/9 8/8/8 6/6/6
f 163/163/153 164/164/154 165/165/155
f 162/162/152 166/166/156 158/158/148
f 12/12/12 158/158/148 166/166/156
f 12/12/12 167/167/157 11/11/11
f 83/83/81 11/11/11 167/167/157
f 11/11/11 83/83/81 8/8/8
f 166/166/156 168/168/158 167/167/157
f 165/165/155 86/86/84 85/85/83
f 87/87/85 169/169/159 88/88/86
f 170/170/160 85/85/83 91/91/89
f 168/168/158 83/83/81 167/167/157
f 165/165/155 171/171/161 86/86/84
f 171/171/161 165/165/155 164/164/154
f 87/87/85 86/86/84 171/171/161
f 165/165/155 85/85/83 170/170/160
f 163/163/153 165/165/155 170/170/160
f 161/161/151 159/159/149 169/169/159
f 72/72/70 169/169/159 159/159/149
f 156/156/146 160/160/150 161/161/151
f 159/159/149 161/161/151 160/160/150
f 147/147/139 144/144/136 149/149/141
f 158/158/148 172/172/162 154/154/145
f 133/133/125 172/172/162 146/146/138
f 173/173/163 174/174/164 175/175/165
f 173/173/163 176/176/166 177/177/125
f 178/178/167 179/179/168 180/180/166
f 179/179/168 181/181/169 182/182/145
f 183/183/170 180/180/166 179/179/168
f 184/184/164 179/179/168 178/178/167
f 173/173/163 185/185/145 186/186/171
f 175/175/165 176/176/166 173/173/163
f 157/157/147 128/128/120 154/154/145
f 60/60/58 59/59/1 155/155/142
f 10/10/10 172/172/162 158/158/148
f 172/172/162 10/10/10 146/146/138
f 169/169/159 72/72/70 88/88/86
f 185/185/145 187/187/169 186/186/171
f 179/179/168 188/188/172 181/181/169
f 1/1/1 147/147/139 149/149/141
f 150/150/142 149/149/141 148/148/140
f 145/145/137 149/149/141 144/144/136
f 65/65/63 60/60/58 155/155/142
f 147/147/139 110/110/103 47/47/46
f 110/110/103 147/147/139 3/3/3
f 153/153/140 189/189/143 66/66/64
f 145/145/137 146/146/138 148/148/140
f 151/151/143 148/148/140 146/146/138
f 67/67/65 66/66/64 189/189/143
f 189/189/143 112/112/105 67/67/65
f 147/147/139 47/47/46 144/144/136
f 144/144/136 138/138/130 145/145/137
f 33/33/33 130/130/122 190/190/127
f 42/42/41 113/113/34 141/141/133
f 191/191/124 36/36/36 134/134/126
f 129/129/121 132/132/124 130/130/122
f 136/136/128 36/36/36 191/191/124
f 140/140/132 141/141/133 132/132/124
f 140/140/132 132/132/124 137/137/129
f 140/140/132 137/137/129 139/139/131
f 161/161/151 171/171/161 164/164/154
f 87/87/85 171/171/161 169/169/159
f 171/171/161 161/161/151 169/169/159
f 166/166/156 162/162/152 163/163/153
f 166/166/156 163/163/153 168/168/158
f 161/161/151 164/164/154 162/162/152
f 164/164/154 163/163/153 162/162/152
f 170/170/160 91/91/89 168/168/158
f 91/91/89 83/83/81 168/168/158
f 163/163/153 170/170/160 168/168/158
f 166/166/156 167/167/157 12/12/12
f 158/158/148 12/12/12 10/10/10
f 188/188/172 179/179/168 184/184/164
f 173/173/163 186/186/171 174/174/164
f 192/192/20 193/193/173 194/194/26
f 194/194/26 195/195/21 192/192/20
f 196/196/27 194/194/26 193/193/173
f 193/193/173 197/197/28 198/198/174
f 198/198/174 196/196/27 193/193/173
f 199/199/30 200/200/33 201/201/175
f 193/193/173 192/192/20 199/199/30
f 193/193/173 202/202/31 197/197/28
f 203/203/106 202/202/31 199/199/30
f 193/193/173 199/199/30 202/202/31
f 204/204/175 135/135/127 36/36/36
f 205/205/176 202/202/31 203/203/106
f 200/200/33 206/206/177 201/201/175
f 114/114/106 204/204/175 36/36/36
f 199/199/30 201/201/175 203/203/106
f 207/207/40 203/203/106 208/208/35
f 207/207/40 205/205/176 203/203/106
