# ..:::Stalker models:::..
# WebSite: http://excalibur-craft.ru
mtllib matras_01.mtl
o 0.010
v -1.335797 0.033720 -0.590886
v -1.313971 -0.004008 -0.569352
v -1.359553 0.033438 -0.302850
v -1.337531 -0.004291 -0.292025
v -1.343459 0.033764 0.001383
v -1.321245 -0.003963 0.001783
v -1.370474 0.033438 0.304847
v -1.348076 -0.004291 0.294822
v -1.364302 0.033611 0.597081
v -1.341040 -0.004107 0.576073
v -1.315119 0.072101 -0.569371
v -1.338680 0.071820 -0.292044
v -1.322394 0.072147 0.001760
v -1.349225 0.071820 0.294802
v -1.342189 0.072003 0.576054
v -1.087717 0.065386 -0.287531
v -1.082602 0.075615 -0.580956
v -1.092994 0.066112 0.005890
v -1.098263 0.065386 0.299307
v -1.103685 0.075615 0.592720
v -0.835951 0.057389 -0.283005
v -0.831126 0.079421 -0.576436
v -0.841220 0.070117 0.010408
v -0.846489 0.057389 0.303829
v -0.851435 0.079421 0.554036
v -0.580317 0.083215 -0.571927
v -0.585134 0.069721 -0.278505
v -0.590158 0.072940 0.014917
v -0.595687 0.069721 0.308334
v -0.601035 0.083215 0.581053
v -0.334619 0.075078 -0.258117
v -0.329789 0.087010 -0.551831
v -0.339349 0.076736 0.019430
v -0.344869 0.073515 0.312846
v -0.350229 0.087010 0.585558
v -0.083779 0.078752 -0.254861
v -0.078969 0.090805 -0.548004
v -0.088539 0.080530 0.023934
v -0.094059 0.077312 0.317351
v -0.099789 0.090805 0.610760
v 0.167951 0.081116 -0.264974
v 0.172771 0.094609 -0.558401
v 0.162931 0.084335 0.028451
v 0.157411 0.081117 0.321864
v 0.151951 0.094609 0.601205
v 0.423211 0.092160 -0.532985
v 0.418761 0.078668 -0.260462
v 0.413741 0.081884 0.032956
v 0.408221 0.078668 0.326369
v 0.402751 0.092160 0.605717
v 0.674391 0.090807 -0.549384
v 0.669571 0.077313 -0.255961
v 0.664551 0.080531 0.037469
v 0.659021 0.077314 0.330878
v 0.653301 0.090807 0.624290
v 0.920151 0.081149 -0.238435
v 0.924971 0.093311 -0.532140
v 0.915111 0.099796 0.041961
v 0.909831 0.079865 0.335382
v 0.904371 0.093311 0.614646
v 1.171561 0.074037 -0.246945
v 1.176681 0.076608 -0.540362
v 1.166291 0.086727 0.046477
v 1.161021 0.074036 0.339898
v 1.155591 0.076608 0.633315
v 1.396491 0.079941 -0.512504
v 1.401281 0.080086 -0.242815
v 1.396001 0.081594 0.050607
v 1.411661 0.080402 0.344403
v 1.394171 0.080212 0.616960
v 1.419091 0.042213 -0.533242
v 1.423671 0.042358 -0.252844
v 1.418211 0.043101 0.051007
v 1.433691 0.042675 0.355231
v 1.416001 0.042483 0.638218
v 1.397651 0.003830 -0.512485
v 1.402421 0.003975 -0.242796
v 1.397161 0.005482 0.050625
v 1.412821 0.004292 0.344421
v 1.395311 0.004101 0.616983
v 1.177831 0.000498 -0.540339
v 1.397651 0.003830 -0.512485
v 1.172711 -0.002067 -0.246922
v 1.402421 0.003975 -0.242796
v 1.397161 0.005482 0.050625
v 1.167441 0.010623 0.046499
v 1.162171 -0.002067 0.339917
v 1.412821 0.004292 0.344421
v 1.156741 0.000498 0.633334
v 1.395311 0.004101 0.616983
v 0.921291 0.005038 -0.238416
v 0.926121 0.017201 -0.532118
v 0.916261 0.023686 0.041984
v 0.910991 0.003754 0.335405
v 0.905521 0.017200 0.614669
v 0.670731 0.001203 -0.255939
v 0.675541 0.014696 -0.549369
v 0.665701 0.004421 0.037487
v 0.660171 0.001203 0.330901
v 0.654451 0.014696 0.624313
v 0.419911 0.002557 -0.260439
v 0.424361 0.016049 -0.532966
v 0.414891 0.005774 0.032975
v 0.409371 0.002557 0.326388
v 0.403901 0.016049 0.605740
v 0.173921 0.018499 -0.558378
v 0.169101 0.005007 -0.264951
v 0.164081 0.008224 0.028470
v 0.158561 0.005007 0.321883
v 0.153101 0.018499 0.601228
v -0.077819 0.014694 -0.547981
v -0.082629 0.002641 -0.254838
v -0.087389 0.004419 0.023953
v -0.092919 0.001201 0.317370
v -0.098629 0.014694 0.610778
v -0.328639 0.010900 -0.551808
v -0.333459 -0.001031 -0.258098
v -0.338199 0.000625 0.019449
v -0.343719 -0.002594 0.312865
v -0.349439 0.010900 0.606273
v -0.579161 0.007104 -0.571909
v -0.583986 -0.006390 -0.278486
v -0.589002 -0.003169 0.014940
v -0.594531 -0.006390 0.308353
v -0.599878 0.007104 0.581075
v -0.834794 -0.018722 -0.282987
v -0.829970 0.003310 -0.576417
v -0.840071 -0.005995 0.010431
v -0.845340 -0.018722 0.303852
v -0.850286 0.003310 0.554058
v -1.081453 -0.000494 -0.580934
v -1.086569 -0.010716 -0.287512
v -1.091837 -0.009990 0.005909
v -1.097114 -0.010716 0.299326
v -1.102536 -0.000494 0.592743
v -1.313971 -0.004008 -0.569352
v -1.337531 -0.004291 -0.292025
v -1.321245 -0.003963 0.001783
v -1.348076 -0.004291 0.294822
v -1.341040 -0.004107 0.576073
v 1.416001 0.042483 0.638218
v 1.155791 0.038552 0.654180
v 1.395311 0.004101 0.616983
v 1.156741 0.000498 0.633334
v 0.905521 0.017200 0.614669
v 0.904551 0.055258 0.636083
v 0.654451 0.014696 0.624313
v 0.653501 0.052752 0.645152
v 0.403901 0.016049 0.605740
v 0.402951 0.054104 0.626579
v 0.152141 0.056554 0.622075
v 0.153101 0.018499 0.601228
v -0.098629 0.014694 0.610778
v -0.099589 0.052749 0.631629
v -0.349439 0.010900 0.606273
v -0.350029 0.048955 0.606994
v -0.599878 0.007104 0.581075
v -0.600842 0.045160 0.602481
v -0.850286 0.003310 0.554058
v -0.851237 0.041366 0.574905
v -1.102536 -0.000494 0.592743
v -1.103488 0.037560 0.613582
v -1.364302 0.033611 0.597081
v -1.341040 -0.004107 0.576073
v 1.419091 0.042213 -0.533242
v 1.397651 0.003830 -0.512485
v 1.177631 0.038552 -0.561484
v 1.177831 0.000498 -0.540339
v 0.926121 0.017201 -0.532118
v 0.925931 0.055258 -0.553271
v 0.675541 0.014696 -0.549369
v 0.675351 0.052752 -0.570514
v 0.424361 0.016049 -0.532966
v 0.424161 0.054104 -0.554111
v 0.173921 0.018499 -0.558378
v 0.173731 0.056554 -0.579527
v -0.077819 0.014694 -0.547981
v -0.078019 0.052749 -0.569130
v -0.328639 0.010900 -0.551808
v -0.328839 0.048955 -0.572957
v -0.579161 0.007104 -0.571909
v -0.579364 0.045160 -0.593057
v -0.829970 0.003310 -0.576417
v -0.830165 0.041366 -0.597562
v -1.081648 0.037560 -0.602079
v -1.081453 -0.000494 -0.580934
v -1.335797 0.033720 -0.590886
v -1.313971 -0.004008 -0.569352
v -1.081648 0.037560 -0.602079
vt 0.9454 0.9061
vt 0.9839 0.9065
vt 0.9514 0.6999
vt 0.9905 0.7003
vt 0.9453 0.5020
vt 0.9837 0.5037
vt 0.9443 0.3063
vt 0.9823 0.3095
vt 0.9428 0.1022
vt 0.9808 0.1058
vt 0.9255 0.9026
vt 0.9313 0.6972
vt 0.9253 0.5014
vt 0.9241 0.3080
vt 0.9228 0.1051
vt 0.8524 0.6972
vt 0.8524 0.8930
vt 0.8524 0.5014
vt 0.8524 0.3056
vt 0.8564 0.0850
vt 0.7735 0.6972
vt 0.7693 0.8910
vt 0.7735 0.5014
vt 0.7735 0.3056
vt 0.7807 0.0821
vt 0.6954 0.8974
vt 0.6946 0.6972
vt 0.6946 0.5014
vt 0.6946 0.3056
vt 0.6954 0.0803
vt 0.6156 0.6972
vt 0.6156 0.8930
vt 0.6156 0.5014
vt 0.6156 0.3056
vt 0.6180 0.0843
vt 0.5367 0.6972
vt 0.5367 0.9052
vt 0.5367 0.5014
vt 0.5367 0.3056
vt 0.5359 0.0834
vt 0.4578 0.6972
vt 0.4578 0.9008
vt 0.4578 0.5014
vt 0.4578 0.3056
vt 0.4554 0.0824
vt 0.3789 0.9008
vt 0.3789 0.6972
vt 0.3789 0.5014
vt 0.3789 0.3056
vt 0.3829 0.0800
vt 0.3043 0.9068
vt 0.3000 0.7061
vt 0.3000 0.5014
vt 0.3000 0.3056
vt 0.2968 0.0810
vt 0.2210 0.7061
vt 0.2225 0.9032
vt 0.2210 0.5014
vt 0.2210 0.3056
vt 0.2123 0.0840
vt 0.1410 0.6916
vt 0.1480 0.8945
vt 0.1421 0.5014
vt 0.1421 0.3056
vt 0.1341 0.0882
vt 0.0750 0.9083
vt 0.0699 0.6972
vt 0.0730 0.5008
vt 0.0803 0.3069
vt 0.0711 0.1197
vt 0.0552 0.9112
vt 0.0499 0.6999
vt 0.0531 0.5014
vt 0.0602 0.3052
vt 0.0511 0.1160
vt 0.0166 0.9123
vt 0.0107 0.7003
vt 0.0143 0.5031
vt 0.0226 0.3084
vt 0.0121 0.1204
vt 0.1070 0.9686
vt 0.0257 0.9851
vt 0.0993 0.7282
vt 0.0199 0.7348
vt 0.0234 0.5020
vt 0.1005 0.5027
vt 0.1005 0.2706
vt 0.0316 0.2721
vt 0.0916 0.0130
vt 0.0213 0.0503
vt 0.1886 0.7453
vt 0.1902 0.9790
vt 0.1886 0.5027
vt 0.1886 0.2706
vt 0.1788 0.0081
vt 0.2767 0.7453
vt 0.2816 0.9833
vt 0.2767 0.5027
vt 0.2767 0.2706
vt 0.2731 0.0045
vt 0.3648 0.7348
vt 0.3648 0.9761
vt 0.3648 0.5027
vt 0.3648 0.2706
vt 0.3692 0.0033
vt 0.4528 0.9761
vt 0.4528 0.7348
vt 0.4528 0.5027
vt 0.4528 0.2706
vt 0.4502 0.0061
vt 0.5409 0.9814
vt 0.5409 0.7348
vt 0.5409 0.5027
vt 0.5409 0.2706
vt 0.5400 0.0073
vt 0.6290 0.9669
vt 0.6290 0.7348
vt 0.6290 0.5027
vt 0.6290 0.2706
vt 0.6285 0.0072
vt 0.7180 0.9721
vt 0.7171 0.7348
vt 0.7171 0.5027
vt 0.7171 0.2706
vt 0.7180 0.0036
vt 0.8051 0.7348
vt 0.8005 0.9646
vt 0.8051 0.5027
vt 0.8051 0.2706
vt 0.8132 0.0057
vt 0.8932 0.9669
vt 0.8932 0.7348
vt 0.8932 0.5027
vt 0.8932 0.2706
vt 0.8977 0.0092
vt 0.9748 0.9782
vt 0.9813 0.7348
vt 0.9746 0.5027
vt 0.9733 0.2735
vt 0.9718 0.0330
vt 0.0511 0.0848
vt 0.1235 0.0526
vt 0.0563 0.0503
vt 0.1215 0.0130
vt 0.2023 0.0081
vt 0.2040 0.0489
vt 0.2897 0.0045
vt 0.2908 0.0454
vt 0.3787 0.0033
vt 0.3793 0.0449
vt 0.4542 0.0473
vt 0.4537 0.0061
vt 0.5369 0.0073
vt 0.5371 0.0478
vt 0.6189 0.0072
vt 0.6216 0.0494
vt 0.7018 0.0036
vt 0.7013 0.0454
vt 0.7900 0.0057
vt 0.7890 0.0480
vt 0.8683 0.0092
vt 0.8671 0.0494
vt 0.9428 0.0699
vt 0.9370 0.0330
vt 0.0552 0.9431
vt 0.0604 0.9851
vt 0.1373 0.9301
vt 0.1358 0.9686
vt 0.2129 0.9790
vt 0.2142 0.9388
vt 0.2975 0.9833
vt 0.2984 0.9425
vt 0.3746 0.9761
vt 0.3753 0.9364
vt 0.4562 0.9761
vt 0.4566 0.9364
vt 0.5378 0.9814
vt 0.5379 0.9409
vt 0.6194 0.9669
vt 0.6192 0.9286
vt 0.7019 0.9721
vt 0.7005 0.9286
vt 0.7783 0.9646
vt 0.7818 0.9286
vt 0.8631 0.9286
vt 0.8642 0.9669
vt 0.9454 0.9376
vt 0.9398 0.9782
vt 0.8631 0.9258
vn -0.6915 -0.0106 -0.7223
vn -0.3691 -0.8398 -0.3980
vn -0.9951 -0.0963 -0.0240
vn -0.4091 -0.9125 -0.0052
vn -0.9859 0.1661 -0.0177
vn -0.6594 -0.7517 -0.0118
vn -0.9950 -0.0962 -0.0256
vn -0.4099 -0.9120 -0.0144
vn -0.7191 -0.0106 0.6948
vn -0.3800 -0.8438 0.3789
vn -0.3817 0.8392 -0.3875
vn -0.5994 0.8005 0.0051
vn -0.3149 0.9491 -0.0057
vn -0.5995 0.7998 -0.0311
vn -0.3922 0.8430 0.3681
vn 0.0158 0.9997 0.0202
vn -0.0147 0.8040 -0.5944
vn 0.0107 0.9999 -0.0084
vn 0.0116 0.9998 -0.0132
vn 0.0353 0.8029 0.5950
vn -0.0112 0.9998 0.0175
vn 0.0045 0.8770 -0.4805
vn -0.0173 0.9999 0.0000
vn -0.0079 0.9996 -0.0278
vn -0.0141 0.8794 0.4758
vn 0.0095 0.8758 -0.4827
vn -0.0289 0.9995 0.0107
vn -0.0147 0.9999 -0.0015
vn -0.0257 0.9997 -0.0043
vn -0.0385 0.9165 0.3981
vn -0.0175 0.9998 0.0083
vn -0.0011 0.9530 -0.3030
vn -0.0152 0.9999 0.0039
vn -0.0148 0.9997 -0.0195
vn -0.0366 0.9276 0.3718
vn -0.0129 0.9998 0.0162
vn -0.0134 0.8723 -0.4888
vn -0.0151 0.9999 0.0033
vn -0.0144 0.9995 -0.0282
vn -0.0443 0.8058 0.5906
vn -0.0011 0.9996 0.0268
vn 0.0175 0.7571 -0.6531
vn -0.0018 1.0000 -0.0029
vn -0.0025 1.0000 -0.0088
vn 0.0029 0.8724 0.4888
vn 0.0126 0.9544 -0.2984
vn 0.0078 0.9999 0.0133
vn 0.0076 1.0000 0.0001
vn 0.0079 0.9998 -0.0185
vn -0.0112 0.9262 0.3769
vn -0.0150 0.8729 -0.4878
vn -0.0015 0.9998 0.0181
vn -0.0252 0.9996 -0.0097
vn -0.0129 0.9999 -0.0087
vn -0.0212 0.8721 0.4889
vn -0.0016 1.0000 -0.0083
vn 0.0385 0.8691 -0.4931
vn -0.0120 0.9999 0.0026
vn 0.0107 0.9999 0.0063
vn 0.0200 0.8708 0.4913
vn 0.0111 0.9999 -0.0045
vn 0.0371 0.7985 -0.6009
vn 0.0329 0.9995 0.0008
vn 0.0098 0.9999 0.0040
vn 0.0094 0.7978 0.6029
vn 0.3903 0.8456 -0.3641
vn 0.5841 0.8117 0.0014
vn 0.3263 0.9452 -0.0058
vn 0.5862 0.8102 -0.0064
vn 0.3701 0.8455 0.3849
vn 0.7442 0.0112 -0.6678
vn 0.9977 -0.0673 -0.0016
vn 0.9810 0.1931 -0.0167
vn 0.9977 -0.0670 0.0133
vn 0.7065 0.0109 0.7077
vn 0.4194 -0.8307 -0.3661
vn 0.5192 -0.8547 0.0025
vn 0.5779 -0.8161 -0.0022
vn 0.4111 -0.9116 -0.0088
vn 0.3987 -0.8309 0.3881
vn -0.0053 -0.9104 -0.4137
vn -0.0016 -0.9999 0.0123
vn 0.5191 -0.8547 0.0025
vn -0.0251 -0.9996 0.0102
vn -0.0048 -0.9997 -0.0228
vn -0.0245 -0.9088 0.4164
vn 0.3987 -0.8310 0.3880
vn -0.0097 -0.9999 0.0134
vn -0.0177 -0.8508 -0.5251
vn 0.0063 -0.9999 -0.0094
vn -0.0189 -0.9998 -0.0065
vn -0.0385 -0.8502 0.5251
vn 0.0071 -0.9997 -0.0221
vn 0.0017 -0.8055 -0.5926
vn 0.0251 -0.9996 0.0133
vn 0.0132 -0.9999 0.0059
vn -0.0103 -0.8045 0.5939
vn -0.0076 -0.9999 -0.0146
vn 0.0004 -0.9028 -0.4301
vn -0.0071 -1.0000 -0.0023
vn -0.0082 -0.9998 0.0182
vn -0.0264 -0.8479 0.5295
vn 0.0222 -0.7395 -0.6728
vn 0.0011 -0.9996 -0.0268
vn 0.0002 -1.0000 0.0009
vn 0.0023 -0.9998 0.0187
vn 0.0092 -0.9017 0.4322
vn 0.0094 -0.8509 -0.5252
vn 0.0128 -0.9998 -0.0162
vn 0.0151 -0.9999 -0.0021
vn 0.0151 -0.9997 0.0181
vn 0.0226 -0.8481 0.5294
vn 0.0335 -0.9043 -0.4256
vn 0.0177 -0.9998 -0.0137
vn 0.0152 -0.9999 -0.0039
vn 0.0142 -0.9996 0.0223
vn -0.0367 -0.6171 0.7860
vn 0.0424 -0.8054 -0.5912
vn 0.0285 -0.9995 -0.0165
vn 0.0148 -0.9999 -0.0006
vn 0.0247 -0.9995 0.0207
vn -0.0420 -0.8500 0.5251
vn 0.0103 -0.9998 -0.0194
vn 0.0288 -0.8446 -0.5347
vn 0.0110 -0.9999 0.0002
vn 0.0125 -0.9996 0.0250
vn 0.0532 -0.8400 0.5400
vn -0.0033 -0.9026 -0.4305
vn -0.0143 -0.9999 -0.0043
vn -0.0120 -0.9999 -0.0002
vn -0.0143 -0.9999 0.0036
vn 0.0218 -0.9006 0.4341
vn -0.3692 -0.8398 -0.3980
vn -0.6594 -0.7517 -0.0119
vn 0.7065 0.0108 0.7077
vn 0.0004 -0.0795 0.9968
vn 0.3987 -0.8309 0.3880
vn -0.0386 -0.8502 0.5251
vn -0.0109 0.0006 0.9999
vn -0.0104 -0.8044 0.5939
vn -0.0086 0.1116 0.9937
vn -0.0491 0.0778 0.9958
vn 0.0103 -0.1793 0.9837
vn -0.0198 0.0852 0.9962
vn -0.0601 0.3283 0.9427
vn -0.0768 0.0848 0.9934
vn 0.0220 -0.0020 0.9998
vn 0.0289 -0.0772 0.9966
vn 0.4194 -0.8307 -0.3660
vn 0.0495 -0.0789 -0.9957
vn 0.0251 0.0005 -0.9997
vn 0.0140 0.1107 -0.9938
vn 0.0180 -0.0001 -0.9998
vn 0.0299 -0.0001 -0.9996
vn -0.0224 -0.0006 -0.9997
vn 0.0336 -0.9043 -0.4256
vn 0.0479 0.0004 -0.9989
vn 0.0409 0.1108 -0.9930
vn 0.0180 0.0000 -0.9998
vn -0.0177 -0.0800 -0.9966
vn -0.3816 0.8392 -0.3875
vn -0.0178 -0.0800 -0.9966
usemtl prop_mattress1.006
s 1
f 1/1/1 2/2/2 3/3/3
f 2/2/2 4/4/4 3/3/3
f 5/5/5 3/3/3 6/6/6
f 4/4/4 6/6/6 3/3/3
f 5/5/5 6/6/6 7/7/7
f 6/6/6 8/8/8 7/7/7
f 9/9/9 7/7/7 10/10/10
f 8/8/8 10/10/10 7/7/7
f 1/1/1 3/3/3 11/11/11
f 3/3/3 12/12/12 11/11/11
f 3/3/3 5/5/5 12/12/12
f 5/5/5 13/13/13 12/12/12
f 7/7/7 14/14/14 5/5/5
f 5/5/5 14/14/14 13/13/13
f 9/9/9 15/15/15 7/7/7
f 7/7/7 15/15/15 14/14/14
f 12/12/12 16/16/16 11/11/11
f 11/11/11 16/16/16 17/17/17
f 12/12/12 13/13/13 16/16/16
f 13/13/13 18/18/18 16/16/16
f 14/14/14 19/19/19 13/13/13
f 13/13/13 19/19/19 18/18/18
f 14/14/14 15/15/15 19/19/19
f 15/15/15 20/20/20 19/19/19
f 21/21/21 22/22/22 16/16/16
f 17/17/17 16/16/16 22/22/22
f 16/16/16 18/18/18 21/21/21
f 18/18/18 23/23/23 21/21/21
f 18/18/18 19/19/19 23/23/23
f 19/19/19 24/24/24 23/23/23
f 20/20/20 25/25/25 19/19/19
f 19/19/19 25/25/25 24/24/24
f 22/22/22 21/21/21 26/26/26
f 21/21/21 27/27/27 26/26/26
f 28/28/28 27/27/27 23/23/23
f 21/21/21 23/23/23 27/27/27
f 28/28/28 23/23/23 29/29/29
f 23/23/23 24/24/24 29/29/29
f 29/29/29 24/24/24 30/30/30
f 24/24/24 25/25/25 30/30/30
f 31/31/31 32/32/32 27/27/27
f 26/26/26 27/27/27 32/32/32
f 27/27/27 28/28/28 31/31/31
f 28/28/28 33/33/33 31/31/31
f 28/28/28 29/29/29 33/33/33
f 29/29/29 34/34/34 33/33/33
f 29/29/29 30/30/30 34/34/34
f 30/30/30 35/35/35 34/34/34
f 31/31/31 36/36/36 32/32/32
f 32/32/32 36/36/36 37/37/37
f 33/33/33 38/38/38 31/31/31
f 31/31/31 38/38/38 36/36/36
f 33/33/33 34/34/34 38/38/38
f 34/34/34 39/39/39 38/38/38
f 40/40/40 39/39/39 35/35/35
f 34/34/34 35/35/35 39/39/39
f 36/36/36 41/41/41 37/37/37
f 37/37/37 41/41/41 42/42/42
f 41/41/41 36/36/36 43/43/43
f 36/36/36 38/38/38 43/43/43
f 39/39/39 44/44/44 38/38/38
f 38/38/38 44/44/44 43/43/43
f 40/40/40 45/45/45 39/39/39
f 39/39/39 45/45/45 44/44/44
f 42/42/42 41/41/41 46/46/46
f 41/41/41 47/47/47 46/46/46
f 41/41/41 43/43/43 47/47/47
f 43/43/43 48/48/48 47/47/47
f 43/43/43 44/44/44 48/48/48
f 44/44/44 49/49/49 48/48/48
f 44/44/44 45/45/45 49/49/49
f 45/45/45 50/50/50 49/49/49
f 51/51/51 46/46/46 52/52/52
f 46/46/46 47/47/47 52/52/52
f 47/47/47 48/48/48 52/52/52
f 48/48/48 53/53/53 52/52/52
f 48/48/48 49/49/49 53/53/53
f 49/49/49 54/54/54 53/53/53
f 55/55/55 54/54/54 50/50/50
f 49/49/49 50/50/50 54/54/54
f 52/52/52 56/56/56 51/51/51
f 51/51/51 56/56/56 57/57/57
f 52/52/52 53/53/53 56/56/56
f 53/53/53 58/58/58 56/56/56
f 53/53/53 54/54/54 58/58/58
f 54/54/54 59/59/59 58/58/58
f 54/54/54 55/55/55 59/59/59
f 55/55/55 60/60/60 59/59/59
f 56/56/56 61/61/61 57/57/57
f 57/57/57 61/61/61 62/62/62
f 61/61/61 56/56/56 63/63/63
f 56/56/56 58/58/58 63/63/63
f 58/58/58 59/59/59 63/63/63
f 59/59/59 64/64/64 63/63/63
f 65/65/65 64/64/64 60/60/60
f 59/59/59 60/60/60 64/64/64
f 62/62/62 61/61/61 66/66/66
f 61/61/61 67/67/67 66/66/66
f 63/63/63 68/68/68 61/61/61
f 61/61/61 68/68/68 67/67/67
f 69/69/69 68/68/68 64/64/64
f 63/63/63 64/64/64 68/68/68
f 65/65/65 70/70/70 64/64/64
f 64/64/64 70/70/70 69/69/69
f 71/71/71 66/66/66 72/72/72
f 66/66/66 67/67/67 72/72/72
f 72/72/72 67/67/67 73/73/73
f 67/67/67 68/68/68 73/73/73
f 74/74/74 73/73/73 69/69/69
f 68/68/68 69/69/69 73/73/73
f 75/75/75 74/74/74 70/70/70
f 69/69/69 70/70/70 74/74/74
f 71/71/71 72/72/72 76/76/76
f 72/72/72 77/77/77 76/76/76
f 73/73/73 78/78/78 72/72/72
f 72/72/72 78/78/78 77/77/77
f 73/73/73 74/74/74 78/78/78
f 74/74/74 79/79/79 78/78/78
f 75/75/75 80/80/80 74/74/74
f 74/74/74 80/80/80 79/79/79
f 81/81/81 82/82/76 83/83/82
f 82/82/76 84/84/83 83/83/82
f 84/84/83 85/85/78 83/83/82
f 85/85/78 86/86/84 83/83/82
f 87/87/85 86/86/84 88/88/79
f 85/85/78 88/88/79 86/86/84
f 89/89/86 87/87/85 90/90/87
f 88/88/79 90/90/87 87/87/85
f 83/83/82 91/91/88 81/81/81
f 81/81/81 91/91/88 92/92/89
f 83/83/82 86/86/84 91/91/88
f 86/86/84 93/93/90 91/91/88
f 86/86/84 87/87/85 93/93/90
f 87/87/85 94/94/91 93/93/90
f 87/87/85 89/89/86 94/94/91
f 89/89/86 95/95/92 94/94/91
f 91/91/88 96/96/93 92/92/89
f 92/92/89 96/96/93 97/97/94
f 96/96/93 91/91/88 98/98/95
f 91/91/88 93/93/90 98/98/95
f 98/98/95 93/93/90 99/99/96
f 93/93/90 94/94/91 99/99/96
f 100/100/97 99/99/96 95/95/92
f 94/94/91 95/95/92 99/99/96
f 96/96/93 101/101/98 97/97/94
f 97/97/94 101/101/98 102/102/99
f 96/96/93 98/98/95 101/101/98
f 98/98/95 103/103/100 101/101/98
f 98/98/95 99/99/96 103/103/100
f 99/99/96 104/104/101 103/103/100
f 99/99/96 100/100/97 104/104/101
f 100/100/97 105/105/102 104/104/101
f 106/106/103 102/102/99 107/107/104
f 102/102/99 101/101/98 107/107/104
f 103/103/100 108/108/105 101/101/98
f 101/101/98 108/108/105 107/107/104
f 103/103/100 104/104/101 108/108/105
f 104/104/101 109/109/106 108/108/105
f 104/104/101 105/105/102 109/109/106
f 105/105/102 110/110/107 109/109/106
f 106/106/103 107/107/104 111/111/108
f 107/107/104 112/112/109 111/111/108
f 107/107/104 108/108/105 112/112/109
f 108/108/105 113/113/110 112/112/109
f 108/108/105 109/109/106 113/113/110
f 109/109/106 114/114/111 113/113/110
f 115/115/112 114/114/111 110/110/107
f 109/109/106 110/110/107 114/114/111
f 111/111/108 112/112/109 116/116/113
f 112/112/109 117/117/114 116/116/113
f 112/112/109 113/113/110 117/117/114
f 113/113/110 118/118/115 117/117/114
f 113/113/110 114/114/111 118/118/115
f 114/114/111 119/119/116 118/118/115
f 120/120/117 119/119/116 115/115/112
f 114/114/111 115/115/112 119/119/116
f 116/116/113 117/117/114 121/121/118
f 117/117/114 122/122/119 121/121/118
f 122/122/119 117/117/114 123/123/120
f 117/117/114 118/118/115 123/123/120
f 118/118/115 119/119/116 123/123/120
f 119/119/116 124/124/121 123/123/120
f 120/120/117 125/125/122 119/119/116
f 119/119/116 125/125/122 124/124/121
f 126/126/123 127/127/124 122/122/119
f 121/121/118 122/122/119 127/127/124
f 123/123/120 128/128/125 122/122/119
f 122/122/119 128/128/125 126/126/123
f 123/123/120 124/124/121 128/128/125
f 124/124/121 129/129/126 128/128/125
f 125/125/122 130/130/127 124/124/121
f 124/124/121 130/130/127 129/129/126
f 127/127/124 126/126/123 131/131/128
f 126/126/123 132/132/129 131/131/128
f 126/126/123 128/128/125 132/132/129
f 128/128/125 133/133/130 132/132/129
f 129/129/126 134/134/131 128/128/125
f 128/128/125 134/134/131 133/133/130
f 134/134/131 129/129/126 135/135/132
f 129/129/126 130/130/127 135/135/132
f 131/131/128 132/132/129 136/136/133
f 132/132/129 137/137/4 136/136/133
f 132/132/129 133/133/130 137/137/4
f 133/133/130 138/138/134 137/137/4
f 134/134/131 139/139/8 133/133/130
f 133/133/130 139/139/8 138/138/134
f 135/135/132 140/140/10 134/134/131
f 134/134/131 140/140/10 139/139/8
f 141/141/135 142/142/136 143/143/137
f 144/144/86 143/143/137 142/142/136
f 144/144/86 142/142/136 145/145/138
f 145/145/138 142/142/136 146/146/139
f 145/145/138 146/146/139 147/147/140
f 147/147/140 146/146/139 148/148/141
f 149/149/102 147/147/140 150/150/142
f 147/147/140 148/148/141 150/150/142
f 150/150/142 151/151/143 149/149/102
f 152/152/107 149/149/102 151/151/143
f 152/152/107 151/151/143 153/153/112
f 153/153/112 151/151/143 154/154/144
f 153/153/112 154/154/144 155/155/117
f 155/155/117 154/154/144 156/156/145
f 157/157/122 155/155/117 158/158/146
f 155/155/117 156/156/145 158/158/146
f 159/159/127 157/157/122 160/160/147
f 157/157/122 158/158/146 160/160/147
f 161/161/132 159/159/127 162/162/148
f 159/159/127 160/160/147 162/162/148
f 163/163/9 164/164/10 162/162/148
f 164/164/10 161/161/132 162/162/148
f 141/141/135 70/70/70 142/142/136
f 142/142/136 70/70/70 65/65/65
f 142/142/136 65/65/65 146/146/139
f 146/146/139 65/65/65 60/60/60
f 146/146/139 60/60/60 148/148/141
f 148/148/141 60/60/60 55/55/55
f 148/148/141 55/55/55 150/150/142
f 150/150/142 55/55/55 50/50/50
f 151/151/143 150/150/142 45/45/45
f 150/150/142 50/50/50 45/45/45
f 151/151/143 45/45/45 154/154/144
f 154/154/144 45/45/45 40/40/40
f 154/154/144 40/40/40 156/156/145
f 156/156/145 40/40/40 35/35/35
f 35/35/35 30/30/30 156/156/145
f 158/158/146 156/156/145 30/30/30
f 160/160/147 158/158/146 25/25/25
f 158/158/146 30/30/30 25/25/25
f 162/162/148 160/160/147 20/20/20
f 160/160/147 25/25/25 20/20/20
f 163/163/9 162/162/148 15/15/15
f 162/162/148 20/20/20 15/15/15
f 165/165/71 166/166/149 167/167/150
f 166/166/149 168/168/81 167/167/150
f 168/168/81 169/169/89 167/167/150
f 169/169/89 170/170/151 167/167/150
f 169/169/89 171/171/94 170/170/151
f 171/171/94 172/172/152 170/170/151
f 173/173/99 174/174/153 171/171/94
f 171/171/94 174/174/153 172/172/152
f 173/173/99 175/175/103 174/174/153
f 175/175/103 176/176/154 174/174/153
f 177/177/108 178/178/155 175/175/103
f 175/175/103 178/178/155 176/176/154
f 179/179/156 180/180/157 177/177/108
f 177/177/108 180/180/157 178/178/155
f 179/179/156 181/181/118 180/180/157
f 181/181/118 182/182/158 180/180/157
f 183/183/124 184/184/159 181/181/118
f 181/181/118 184/184/159 182/182/158
f 184/184/159 183/183/124 185/185/160
f 183/183/124 186/186/128 185/185/160
f 187/187/1 185/185/160 188/188/133
f 186/186/128 188/188/133 185/185/160
f 165/165/71 167/167/150 66/66/66
f 167/167/150 62/62/62 66/66/66
f 167/167/150 170/170/151 62/62/62
f 170/170/151 57/57/57 62/62/62
f 170/170/151 172/172/152 57/57/57
f 172/172/152 51/51/51 57/57/57
f 172/172/152 174/174/153 51/51/51
f 174/174/153 46/46/46 51/51/51
f 176/176/154 42/42/42 174/174/153
f 174/174/153 42/42/42 46/46/46
f 176/176/154 178/178/155 42/42/42
f 178/178/155 37/37/37 42/42/42
f 178/178/155 180/180/157 37/37/37
f 180/180/157 32/32/32 37/37/37
f 182/182/158 26/26/26 180/180/157
f 180/180/157 26/26/26 32/32/32
f 184/184/159 22/22/22 182/182/158
f 182/182/158 22/22/22 26/26/26
f 185/185/160 17/17/17 184/184/159
f 184/184/159 17/17/17 22/22/22
f 187/187/1 11/11/161 185/185/160
f 189/189/162 11/11/11 17/17/17
