# ..:::Stalker models:::..
# WebSite: http://excalibur-craft.ru
mtllib konteyner_small_03.mtl
o 0.024
v -0.110490 0.005816 0.236767
v -0.110490 0.134271 0.248986
v -0.327142 0.000210 0.238165
v -0.331471 0.134271 0.238794
v 0.110490 0.000210 0.246429
v 0.110490 0.134271 0.244537
v 0.331471 0.000210 0.241550
v 0.325278 0.134271 0.244387
v -0.110490 0.268332 0.240506
v -0.336654 0.268332 0.243416
v 0.110490 0.268332 0.247954
v 0.333717 0.268332 0.231470
v -0.326749 0.402393 0.242510
v -0.110490 0.402393 0.242510
v 0.110490 0.395183 0.242510
v 0.331471 0.402393 0.242510
v -0.326749 0.402393 0.242510
v -0.110490 0.402393 0.242510
v -0.326432 0.402393 0.080837
v -0.110490 0.402393 0.080837
v 0.110490 0.395183 0.242510
v 0.110490 0.402389 0.080837
v 0.331471 0.402393 0.242510
v 0.331471 0.402393 0.080837
v -0.110490 0.401449 0.012986
v -0.331471 0.403430 0.013023
v 0.110490 0.405058 0.006152
v 0.326164 0.404041 0.006454
v -0.207812 0.400348 -0.080837
v -0.238990 0.401493 -0.238423
v -0.331471 0.397751 -0.080837
v -0.330123 0.404585 -0.242510
v 0.110490 0.396953 -0.080837
v 0.110490 0.405491 -0.242510
v -0.110490 0.402393 -0.080837
v -0.110490 0.400244 -0.246581
v 0.318709 0.402393 -0.080837
v 0.331471 0.398646 -0.242510
v -0.330123 0.404585 -0.242510
v -0.238990 0.401493 -0.238423
v -0.336246 0.268332 -0.236383
v -0.235542 0.268332 -0.239116
v 0.110490 0.405491 -0.242510
v 0.110490 0.268332 -0.250847
v -0.110490 0.400244 -0.246581
v -0.110490 0.268332 -0.239536
v 0.331471 0.398646 -0.242510
v 0.322679 0.268332 -0.243614
v -0.327784 0.134271 -0.243427
v -0.235953 0.134271 -0.242510
v -0.110490 0.134271 -0.248552
v 0.110490 0.134271 -0.242510
v 0.331471 0.134271 -0.247437
v -0.231269 0.002839 -0.242510
v -0.333960 0.000210 -0.246037
v 0.110490 0.005181 -0.239199
v -0.110490 0.000210 -0.248717
v 0.332490 0.000210 -0.242510
v -0.333960 0.000210 -0.246037
v -0.231269 0.002839 -0.242510
v -0.328007 0.000210 -0.080837
v -0.110490 0.000210 -0.080837
v -0.110490 0.000210 -0.248717
v 0.110490 0.005181 -0.239199
v 0.110490 0.000210 -0.080837
v 0.332490 0.000210 -0.242510
v 0.326341 0.000210 -0.080837
v -0.110490 0.000210 0.080837
v -0.334564 0.004492 0.080837
v 0.110490 0.000210 0.080837
v 0.334556 0.000210 0.080837
v -0.327142 0.000210 0.238165
v -0.110490 0.005816 0.236767
v 0.110490 0.000210 0.246429
v 0.331471 0.000210 0.241550
v 0.326341 0.000210 -0.080837
v 0.332490 0.000210 -0.242510
v 0.336080 0.134271 -0.080837
v 0.331471 0.134271 -0.247437
v 0.334556 0.000210 0.080837
v 0.326664 0.134271 0.080837
v 0.331471 0.000210 0.241550
v 0.325278 0.134271 0.244387
v 0.322679 0.268332 -0.243614
v 0.320970 0.268332 -0.080837
v 0.334820 0.268332 0.080837
v 0.333717 0.268332 0.231470
v 0.331471 0.398646 -0.242510
v 0.330910 0.390807 -0.232877
v 0.331471 0.402393 0.080837
v 0.331471 0.395441 0.080837
v 0.326164 0.404041 0.006454
v 0.325707 0.395941 0.003194
v 0.332069 0.395294 0.233166
v 0.331471 0.402393 0.242510
v -0.333960 0.000210 -0.246037
v -0.328007 0.000210 -0.080837
v -0.327784 0.134271 -0.243427
v -0.334426 0.134271 -0.080837
v -0.334564 0.004492 0.080837
v -0.329819 0.134271 0.080837
v -0.327142 0.000210 0.238165
v -0.331471 0.134271 0.238794
v -0.336246 0.268332 -0.236383
v -0.328225 0.268332 -0.080837
v -0.338824 0.268332 0.080837
v -0.336654 0.268332 0.243416
v -0.331667 0.398245 -0.234620
v -0.331335 0.392313 -0.080837
v -0.331183 0.394809 0.010928
v -0.326603 0.397976 0.080837
v -0.331471 0.403430 0.013023
v -0.326432 0.402393 0.080837
v -0.326749 0.402393 0.242510
v -0.327705 0.397765 0.235752
v 0.325044 0.395999 -0.003030
v 0.318709 0.394102 -0.080837
v 0.325014 0.407096 -0.005269
v 0.318709 0.402393 -0.080837
v 0.325014 0.407096 -0.005269
v 0.110490 0.398866 0.000348
v -0.110490 0.407340 0.001946
v -0.331471 0.400189 0.004090
v 0.325707 0.395941 0.003194
v 0.325044 0.395999 -0.003030
v 0.110490 0.394108 0.003602
v 0.110490 0.393808 -0.000640
v -0.110490 0.395455 0.008831
v 0.110490 0.394108 0.003602
v -0.110490 0.397204 0.003905
v 0.110490 0.393808 -0.000640
v -0.110490 0.395455 0.008831
v -0.110490 0.397204 0.003905
v -0.331183 0.394809 0.010928
v -0.331471 0.394641 0.004923
v 0.332069 0.395294 0.233166
v 0.331471 0.395441 0.080837
v 0.325707 0.395941 0.003194
v 0.325044 0.395999 -0.003030
v 0.318709 0.394102 -0.080837
v 0.330910 0.390807 -0.232877
v 0.331471 0.398646 -0.242510
v 0.331471 0.402393 0.242510
v 0.110490 0.393808 -0.000640
v 0.325044 0.395999 -0.003030
v 0.110490 0.398866 0.000348
v 0.325014 0.407096 -0.005269
v 0.110490 0.393808 -0.000640
v 0.110490 0.398866 0.000348
v -0.110490 0.397204 0.003905
v -0.110490 0.407340 0.001946
v -0.331471 0.394641 0.004923
v -0.110490 0.397204 0.003905
v -0.331471 0.400189 0.004090
v -0.110490 0.407340 0.001946
v -0.331471 0.403430 0.013023
v -0.110490 0.401449 0.012986
v -0.331183 0.394809 0.010928
v -0.110490 0.395455 0.008831
v -0.110490 0.401449 0.012986
v 0.110490 0.405058 0.006152
v -0.110490 0.395455 0.008831
v 0.110490 0.394108 0.003602
v 0.326164 0.404041 0.006454
v 0.325707 0.395941 0.003194
v 0.110490 0.405058 0.006152
v 0.110490 0.394108 0.003602
v -0.326603 0.397976 0.080837
v -0.331183 0.394809 0.010928
v -0.331471 0.394641 0.004923
v -0.331471 0.400189 0.004090
v -0.331335 0.392313 -0.080837
v -0.331471 0.397751 -0.080837
v -0.331667 0.398245 -0.234620
v -0.330123 0.404585 -0.242510
v -0.327705 0.397765 0.235752
v -0.326749 0.402393 0.242510
v -0.331471 0.394641 0.004923
v -0.330123 0.404585 -0.242510
vt 1.7213 0.0110
vt 1.7208 0.1779
vt 2.0006 0.0110
vt 2.0006 0.1805
vt 1.4421 0.0110
vt 1.4410 0.1814
vt 1.1628 0.0110
vt 1.1628 0.1805
vt 1.7204 0.3496
vt 2.0006 0.3499
vt 1.4419 0.3535
vt 1.1628 0.3499
vt 2.0006 0.5193
vt 1.7213 0.5193
vt 1.4421 0.5193
vt 1.1628 0.5193
vt 2.0059 0.7685
vt 1.7972 0.7685
vt 2.0059 0.6442
vt 1.7977 0.6453
vt 1.5885 0.7685
vt 1.5885 0.6452
vt 1.3798 0.7685
vt 1.3798 0.6442
vt 1.7972 0.5937
vt 2.0059 0.5937
vt 1.5885 0.5884
vt 1.3798 0.5887
vt 0.4951 0.7769
vt 0.4656 0.9009
vt 0.3783 0.7766
vt 0.3783 0.9009
vt 0.7970 0.7765
vt 0.7956 0.9009
vt 0.5872 0.7760
vt 0.5870 0.9009
vt 1.0043 0.7766
vt 1.0043 0.9009
vt 1.1626 0.5194
vt 1.2795 0.5194
vt 1.1626 0.3500
vt 1.2856 0.3502
vt 1.7211 0.5194
vt 1.7229 0.3474
vt 1.4419 0.5194
vt 1.4423 0.3503
vt 2.0004 0.5194
vt 2.0004 0.3500
vt 1.1626 0.1806
vt 1.2820 0.1798
vt 1.4420 0.1798
vt 1.7219 0.1770
vt 2.0004 0.1806
vt 1.2892 0.0111
vt 1.1626 0.0111
vt 1.7211 0.0111
vt 1.4419 0.0111
vt 2.0004 0.0111
vt 1.0048 0.9013
vt 0.9101 0.9013
vt 1.0048 0.7770
vt 0.7963 0.7754
vt 0.7961 0.9013
vt 0.5874 0.9013
vt 0.5866 0.7778
vt 0.3787 0.9013
vt 0.3787 0.7770
vt 0.7958 0.6508
vt 1.0048 0.6527
vt 0.5876 0.6536
vt 0.3787 0.6527
vt 1.0048 0.5284
vt 0.7961 0.5284
vt 0.5874 0.5284
vt 0.3787 0.5284
vt 1.0078 0.1781
vt 1.0078 0.0043
vt 1.1262 0.1798
vt 1.1261 0.0043
vt 1.0078 0.3519
vt 1.1260 0.3532
vt 1.0078 0.5258
vt 1.1261 0.5258
vt 1.2444 0.0043
vt 1.2450 0.1794
vt 1.2444 0.3556
vt 1.2444 0.5258
vt 1.3628 0.0043
vt 1.3555 0.0146
vt 1.6372 0.9075
vt 1.6372 0.9218
vt 1.4889 0.9075
vt 1.4837 0.9243
vt 1.9500 0.9221
vt 1.9692 0.9076
vt 1.0081 0.5263
vt 1.0081 0.3525
vt 1.1264 0.5263
vt 1.1268 0.3524
vt 1.0081 0.1787
vt 1.1256 0.1778
vt 1.0081 0.0049
vt 1.1264 0.0049
vt 1.2448 0.5263
vt 1.2465 0.3534
vt 1.2455 0.1783
vt 1.2448 0.0049
vt 1.3579 0.5181
vt 1.3582 0.3525
vt 1.9933 0.9174
vt 1.8153 0.9177
vt 1.9878 0.9030
vt 1.8151 0.9065
vt 1.3631 0.0049
vt 1.3590 0.0122
vt 0.9221 0.9191
vt 0.7664 0.9194
vt 0.9266 0.9019
vt 0.7668 0.9028
vt 1.0043 0.7152
vt 0.7956 0.7141
vt 0.5870 0.7129
vt 0.3783 0.7113
vt 0.3536 1.0119
vt 0.3536 1.0105
vt 0.3653 1.0121
vt 0.3653 1.0107
vt 0.3652 1.0124
vt 0.3535 1.0117
vt 0.3652 1.0108
vt 0.3535 1.0104
vt 0.3536 1.0122
vt 0.3536 1.0107
vt 0.3651 1.0122
vt 0.3651 1.0104
vt 1.3565 0.5163
vt 1.3566 0.3519
vt 1.3571 0.2734
vt 1.3571 0.2644
vt 1.3555 0.1781
vt 0.4622 0.9193
vt 0.4432 0.9032
vt 1.3628 0.5258
vt 0.8711 0.9145
vt 0.4419 0.9213
vt 0.8709 0.9044
vt 0.4416 0.9040
vt 0.4388 0.9222
vt 0.4388 0.9068
vt 0.9139 0.9232
vt 0.9139 0.9068
vt 0.9139 0.9231
vt 0.4388 0.9232
vt 0.9139 0.9068
vt 0.4388 0.9068
vt 0.9752 0.9257
vt 0.3772 0.9257
vt 0.9752 0.9085
vt 0.3772 0.9021
vt 0.9752 0.9257
vt 0.3772 0.9257
vt 0.9752 0.9021
vt 0.3772 0.9026
vt 0.3772 0.9257
vt 0.3772 0.8980
vt 0.9752 0.9257
vt 0.9752 0.9026
vt 1.3592 0.1787
vt 1.3631 0.2515
vt 1.3927 0.9197
vt 1.3950 0.9070
vt 1.5883 0.9227
vt 1.5886 0.9103
vt 1.9394 0.9240
vt 1.9578 0.9099
vt 1.4211 0.9168
vt 1.4037 0.9053
vt 1.3631 0.2551
vt 1.3631 0.5263
vn -0.0048 -0.0585 0.9983
vn -0.0086 -0.0139 0.9999
vn -0.0186 -0.0505 0.9985
vn -0.0264 0.0077 0.9996
vn -0.0068 0.0027 1.0000
vn -0.0059 -0.0090 0.9999
vn 0.0221 -0.0201 0.9996
vn 0.0242 0.0149 0.9996
vn -0.0085 0.0107 0.9999
vn 0.0129 -0.0140 0.9998
vn 0.0161 0.0252 0.9996
vn 0.0500 0.0173 0.9986
vn 0.0064 -0.0046 1.0000
vn -0.0002 -0.0149 0.9999
vn 0.0106 -0.0028 0.9999
vn 0.0027 -0.0820 0.9966
vn 0.0000 1.0000 0.0000
vn 0.0109 0.9999 -0.0000
vn 0.0022 1.0000 0.0002
vn 0.0065 1.0000 0.0033
vn 0.0000 0.9996 0.0297
vn -0.0062 0.9997 0.0241
vn -0.0163 0.9996 0.0222
vn -0.0000 0.9999 0.0108
vn -0.0016 1.0000 0.0056
vn 0.0090 0.9999 0.0146
vn -0.0052 0.9993 0.0357
vn 0.0023 0.9996 0.0289
vn -0.0178 0.9996 -0.0217
vn 0.0071 0.9998 0.0197
vn -0.0033 1.0000 0.0084
vn 0.0320 0.9986 0.0425
vn -0.0008 0.9999 0.0146
vn 0.0015 0.9998 0.0180
vn 0.0036 0.9998 -0.0193
vn -0.0117 0.9999 -0.0070
vn -0.0153 0.9998 -0.0126
vn 0.0310 0.9993 -0.0207
vn 0.0432 -0.0468 -0.9980
vn -0.0158 -0.0129 -0.9998
vn -0.0037 0.0028 -1.0000
vn -0.0232 0.0176 -0.9996
vn 0.0171 0.0433 -0.9989
vn 0.0017 0.0018 -1.0000
vn -0.0253 -0.0106 -0.9996
vn -0.0272 0.0069 -0.9996
vn 0.0003 0.0085 -1.0000
vn 0.0115 0.0085 -0.9999
vn 0.0067 0.0236 -0.9997
vn -0.0192 0.0123 -0.9997
vn -0.0131 0.0091 -0.9999
vn 0.0088 -0.0297 -0.9995
vn -0.0201 -0.0118 -0.9997
vn -0.0139 0.0045 -0.9999
vn 0.0339 0.0179 -0.9993
vn 0.0081 -0.0217 -0.9997
vn -0.0042 0.0012 -1.0000
vn -0.0157 -0.0368 -0.9992
vn 0.0256 -0.9997 -0.0009
vn 0.0013 -1.0000 -0.0057
vn 0.0016 -1.0000 0.0021
vn 0.0001 -1.0000 -0.0079
vn 0.0004 -1.0000 -0.0000
vn 0.0000 -0.9999 -0.0159
vn 0.0000 -0.9999 -0.0126
vn -0.0224 -0.9997 -0.0009
vn -0.0056 -1.0000 -0.0080
vn -0.0017 -0.9999 0.0102
vn -0.0191 -0.9998 -0.0002
vn -0.0036 -1.0000 0.0050
vn 0.0000 -1.0000 -0.0000
vn 0.0035 -1.0000 0.0048
vn 0.0003 -0.9997 0.0240
vn -0.0126 -0.9999 -0.0000
vn 0.9995 -0.0288 0.0151
vn 0.9994 -0.0330 0.0051
vn 0.9999 0.0130 0.0035
vn 0.9990 0.0365 -0.0276
vn 0.9981 0.0588 -0.0157
vn 0.9998 -0.0132 0.0156
vn 0.9985 0.0524 0.0138
vn 0.9999 -0.0080 0.0085
vn 0.9999 0.0107 -0.0008
vn 0.9987 0.0349 -0.0368
vn 0.9996 0.0107 -0.0251
vn 0.9995 -0.0244 0.0194
vn 0.9989 -0.0214 0.0408
vn 0.9986 -0.0186 0.0504
vn 0.9993 0.0280 -0.0251
vn 0.9990 0.0053 -0.0454
vn 0.9973 -0.0132 -0.0727
vn 0.9963 0.0130 -0.0848
vn 0.9996 0.0271 0.0108
vn 0.9985 0.0481 0.0273
vn -0.9983 0.0453 0.0360
vn -0.9998 -0.0168 -0.0147
vn -0.9997 -0.0211 -0.0152
vn -1.0000 -0.0046 -0.0021
vn -1.0000 -0.0018 0.0063
vn -1.0000 -0.0029 -0.0059
vn -0.9984 -0.0325 0.0462
vn -0.9996 -0.0256 0.0097
vn -0.9996 0.0143 -0.0254
vn -1.0000 0.0041 0.0001
vn -0.9997 0.0236 -0.0019
vn -0.9986 0.0350 0.0389
vn -0.9984 0.0525 -0.0217
vn -0.9998 -0.0201 0.0001
vn -0.9974 0.0432 0.0581
vn -0.9984 0.0431 0.0379
vn -0.9974 -0.0056 0.0712
vn -0.9953 0.0944 0.0220
vn -0.9892 0.1400 0.0441
vn -0.9952 0.0965 0.0175
vn 0.9959 0.0123 -0.0893
vn 0.9998 0.0045 -0.0172
vn 0.9966 -0.0068 -0.0820
vn 0.9997 0.0082 0.0251
vn -0.0398 0.9975 -0.0588
vn -0.0009 0.9991 -0.0414
vn -0.0053 0.9985 -0.0550
vn -0.0269 0.9989 -0.0372
vn -0.0085 0.9999 0.0102
vn -0.0097 0.9995 -0.0302
vn 0.0020 0.9987 0.0516
vn 0.0014 0.9975 -0.0706
vn 0.0070 0.9424 0.3344
vn 0.0041 0.9894 0.1455
vn 0.0015 0.9975 -0.0706
vn -0.0057 0.9877 0.1562
vn -0.0117 0.9996 -0.0274
vn 0.9990 0.0052 -0.0454
vn 0.0151 -0.1918 0.9813
vn 0.0158 0.0031 0.9999
vn 0.0159 0.0010 0.9999
vn 0.0181 0.1978 0.9801
vn 0.0150 -0.1918 0.9813
vn 0.0096 0.0852 0.9963
vn 0.0089 0.1897 0.9818
vn 0.0028 0.1485 0.9889
vn 0.0031 0.1692 0.9856
vn 0.0088 0.1897 0.9818
vn 0.0020 0.2362 -0.9717
vn -0.0143 0.4654 -0.8850
vn -0.0040 0.4099 -0.9121
vn -0.0223 0.4626 -0.8863
vn -0.0144 0.3533 -0.9354
vn -0.0127 0.2268 -0.9739
vn 0.0031 0.3732 -0.9277
vn -0.0004 0.3009 -0.9536
vn -0.0145 0.3533 -0.9354
vn -0.9998 0.0197 -0.0056
vn -0.9999 -0.0127 -0.0004
vn -0.9980 0.0635 0.0013
vn -0.9984 0.0525 -0.0216
vn -0.9869 0.1392 -0.0813
usemtl prop_box_3
s 1
f 1/1/1 2/2/2 3/3/3
f 3/3/3 2/2/2 4/4/4
f 5/5/5 6/6/6 1/1/1
f 1/1/1 6/6/6 2/2/2
f 7/7/7 8/8/8 5/5/5
f 5/5/5 8/8/8 6/6/6
f 2/2/2 9/9/9 4/4/4
f 4/4/4 9/9/9 10/10/10
f 2/2/2 6/6/6 9/9/9
f 9/9/9 6/6/6 11/11/11
f 6/6/6 8/8/8 11/11/11
f 11/11/11 8/8/8 12/12/12
f 10/10/10 9/9/9 13/13/13
f 13/13/13 9/9/9 14/14/14
f 11/11/11 15/15/15 9/9/9
f 9/9/9 15/15/15 14/14/14
f 11/11/11 12/12/12 15/15/15
f 15/15/15 12/12/12 16/16/16
f 17/17/17 18/18/18 19/19/19
f 19/19/19 18/18/18 20/20/20
f 18/18/18 21/21/21 20/20/20
f 20/20/20 21/21/21 22/22/22
f 21/21/21 23/23/23 22/22/22
f 22/22/22 23/23/23 24/24/24
f 20/20/20 25/25/25 19/19/19
f 19/19/19 25/25/25 26/26/26
f 20/20/20 22/22/22 25/25/25
f 25/25/25 22/22/22 27/27/27
f 24/24/24 28/28/28 22/22/22
f 22/22/22 28/28/28 27/27/27
f 29/29/29 30/30/30 31/31/31
f 31/31/31 30/30/30 32/32/32
f 33/33/33 34/34/34 35/35/35
f 35/35/35 34/34/34 36/36/36
f 33/33/33 37/37/37 34/34/34
f 34/34/34 37/37/37 38/38/38
f 39/39/39 40/40/40 41/41/41
f 41/41/41 40/40/40 42/42/42
f 43/43/43 44/44/44 45/45/45
f 45/45/45 44/44/44 46/46/46
f 47/47/47 48/48/48 43/43/43
f 43/43/43 48/48/48 44/44/44
f 41/41/41 42/42/42 49/49/49
f 49/49/49 42/42/42 50/50/50
f 46/46/46 44/44/44 51/51/51
f 51/51/51 44/44/44 52/52/52
f 44/44/44 48/48/48 52/52/52
f 52/52/52 48/48/48 53/53/53
f 50/50/50 54/54/54 49/49/49
f 49/49/49 54/54/54 55/55/55
f 52/52/52 56/56/56 51/51/51
f 51/51/51 56/56/56 57/57/57
f 52/52/52 53/53/53 56/56/56
f 56/56/56 53/53/53 58/58/58
f 59/59/59 60/60/60 61/61/61
f 61/61/61 60/60/60 62/62/62
f 63/63/63 64/64/64 62/62/62
f 62/62/62 64/64/64 65/65/65
f 66/66/66 67/67/67 64/64/64
f 64/64/64 67/67/67 65/65/65
f 62/62/62 68/68/68 61/61/61
f 61/61/61 68/68/68 69/69/69
f 62/62/62 65/65/65 68/68/68
f 68/68/68 65/65/65 70/70/70
f 65/65/65 67/67/67 70/70/70
f 70/70/70 67/67/67 71/71/71
f 69/69/69 68/68/68 72/72/72
f 72/72/72 68/68/68 73/73/73
f 68/68/68 70/70/70 73/73/73
f 73/73/73 70/70/70 74/74/74
f 71/71/71 75/75/71 70/70/70
f 70/70/70 75/75/71 74/74/74
f 76/76/75 77/77/76 78/78/77
f 78/78/77 77/77/76 79/79/78
f 80/80/79 76/76/75 81/81/80
f 81/81/80 76/76/75 78/78/77
f 80/80/79 81/81/80 82/82/81
f 82/82/81 81/81/80 83/83/82
f 79/79/78 84/84/83 78/78/77
f 78/78/77 84/84/83 85/85/84
f 81/81/80 78/78/77 86/86/85
f 86/86/85 78/78/77 85/85/84
f 83/83/82 81/81/80 87/87/86
f 87/87/86 81/81/80 86/86/85
f 84/84/83 88/88/87 89/89/88
f 90/90/89 91/91/90 92/92/91
f 92/92/91 91/91/90 93/93/92
f 91/91/90 90/90/89 94/94/93
f 94/94/93 90/90/89 95/95/94
f 96/96/95 97/97/96 98/98/97
f 98/98/97 97/97/96 99/99/98
f 97/97/96 100/100/99 99/99/98
f 99/99/98 100/100/99 101/101/100
f 102/102/101 103/103/102 100/100/99
f 100/100/99 103/103/102 101/101/100
f 98/98/97 99/99/98 104/104/103
f 104/104/103 99/99/98 105/105/104
f 99/99/98 101/101/100 105/105/104
f 105/105/104 101/101/100 106/106/105
f 101/101/100 103/103/102 106/106/105
f 106/106/105 103/103/102 107/107/106
f 108/108/107 105/105/104 109/109/108
f 110/110/109 111/111/110 112/112/111
f 112/112/111 111/111/110 113/113/112
f 107/107/106 114/114/113 115/115/114
f 116/116/115 117/117/116 118/118/117
f 118/118/117 117/117/116 119/119/118
f 120/120/119 37/37/37 121/121/120
f 121/121/120 37/37/37 33/33/33
f 122/122/121 121/121/120 35/35/35
f 35/35/35 121/121/120 33/33/33
f 122/122/121 29/29/29 123/123/122
f 123/123/122 29/29/29 31/31/31
f 124/124/123 125/125/124 126/126/125
f 126/126/125 125/125/124 127/127/126
f 128/128/127 129/129/125 130/130/128
f 130/130/128 129/129/125 131/131/129
f 132/132/127 133/133/128 134/134/130
f 134/134/130 133/133/128 135/135/131
f 29/29/29 122/122/121 35/35/35
f 30/30/30 29/29/29 36/36/36
f 36/36/36 29/29/29 35/35/35
f 40/40/40 45/45/45 42/42/42
f 42/42/42 45/45/45 46/46/46
f 50/50/50 42/42/42 51/51/51
f 51/51/51 42/42/42 46/46/46
f 50/50/50 51/51/51 54/54/54
f 54/54/54 51/51/51 57/57/57
f 62/62/62 60/60/60 63/63/63
f 136/136/93 86/86/85 137/137/132
f 137/137/132 86/86/85 138/138/92
f 86/86/85 85/85/84 138/138/92
f 139/139/115 138/138/92 85/85/84
f 140/140/116 139/139/115 85/85/84
f 117/117/116 141/141/88 119/119/118
f 119/119/118 141/141/88 142/142/87
f 85/85/84 89/89/88 140/140/116
f 136/136/93 143/143/94 87/87/86
f 87/87/86 86/86/85 136/136/93
f 144/144/133 145/145/134 146/146/135
f 146/146/135 145/145/134 147/147/136
f 148/148/137 149/149/135 150/150/138
f 150/150/138 149/149/135 151/151/139
f 152/152/140 153/153/138 154/154/141
f 154/154/141 153/153/138 155/155/142
f 156/156/143 157/157/144 158/158/145
f 158/158/145 157/157/144 159/159/146
f 160/160/144 161/161/147 162/162/146
f 162/162/146 161/161/147 163/163/148
f 164/164/149 165/165/150 166/166/151
f 166/166/151 165/165/150 167/167/148
f 106/106/105 168/168/110 169/169/109
f 170/170/152 171/171/153 172/172/108
f 172/172/108 171/171/153 173/173/154
f 172/172/108 173/173/154 174/174/155
f 174/174/155 173/173/154 175/175/156
f 104/104/103 105/105/104 108/108/107
f 111/111/110 176/176/114 113/113/112
f 113/113/112 176/176/114 177/177/113
f 106/106/105 115/115/114 168/168/110
f 169/169/109 178/178/152 106/106/105
f 105/105/104 106/106/105 178/178/152
f 105/105/104 178/178/152 109/109/108
f 107/107/106 115/115/114 106/106/105
f 179/179/156 104/104/103 108/108/107
f 85/85/84 84/84/83 89/89/88
