# ..:::Stalker models:::..
# WebSite: http://excalibur-craft.ru
mtllib bricks_2.mtl
o 0.001
v -0.456954 0.000116 0.101524
v -0.411270 0.040339 0.123071
v -0.456954 0.259896 0.101524
v -0.411270 0.259896 0.123071
v -0.293638 0.040339 0.178551
v -0.245388 0.000116 0.201308
v -0.283031 0.259896 -0.148807
v -0.387721 0.300116 -0.198184
v -0.117150 0.300116 -0.070571
v -0.165399 0.259896 -0.093327
v -0.456954 0.000116 0.101524
v -0.404452 0.000116 -0.012194
v -0.245388 0.000116 0.201308
v -0.117150 0.000116 -0.070571
v -0.327895 0.000116 -0.169967
v -0.245388 0.000116 0.201308
v -0.117150 0.000116 -0.070571
v -0.245388 0.300116 0.201308
v -0.117150 0.300116 -0.070571
v -0.513526 0.300116 0.074843
v -0.283031 0.040339 -0.148807
v -0.328716 0.259896 -0.170354
v -0.327895 0.000116 -0.169967
v -0.165400 0.040339 -0.093327
v -0.117150 0.000116 -0.070571
v -0.293638 0.259896 0.178551
v -0.245388 0.300116 0.201308
v -0.293638 0.259896 0.178551
v -0.411270 0.259896 0.123071
v -0.165399 0.259896 -0.093327
v -0.283031 0.259896 -0.148807
v -0.165400 0.040339 -0.093327
v -0.283031 0.040339 -0.148807
v -0.293638 0.040339 0.178551
v -0.411270 0.040339 0.123071
v -0.411270 0.040339 0.123071
v -0.283031 0.040339 -0.148807
v -0.411270 0.259896 0.123071
v -0.283031 0.259896 -0.148807
v -0.165400 0.040339 -0.093327
v -0.293638 0.040339 0.178551
v -0.165399 0.259896 -0.093327
v -0.293638 0.259896 0.178551
v -0.504578 0.259896 0.079063
v -0.387721 0.300116 -0.198184
v -0.431544 0.300116 -0.069951
v -0.117150 0.300116 -0.070571
v -0.245388 0.300116 0.201308
v -0.495824 0.300116 -0.022356
v -0.513526 0.300116 0.074843
v -0.394345 0.259896 -0.201308
v -0.328716 0.259896 -0.170354
v -0.504578 0.259896 0.079063
v -0.456954 0.259896 0.101524
v -0.394345 0.259896 -0.201308
v -0.387721 0.300116 -0.198184
v -0.394345 0.259896 -0.201308
v -0.431544 0.300116 -0.069951
v -0.504578 0.259896 0.079063
v -0.495824 0.300116 -0.022356
v -0.513526 0.300116 0.074843
v -0.456954 0.000116 0.101524
v -0.456954 0.259896 0.101524
v -0.404452 0.000116 -0.012194
v -0.328716 0.259896 -0.170354
v -0.327895 0.000116 -0.169967
v -0.029403 0.040339 0.179891
v -0.082591 0.000116 0.185972
v 0.100270 0.040339 0.165065
v 0.150631 0.040339 0.159307
v 0.280304 0.040339 0.144482
v 0.513526 0.000116 0.117817
v 0.330664 0.040339 0.138724
v 0.460338 0.040339 0.123898
v -0.063480 0.259896 -0.118168
v -0.116668 0.300116 -0.112087
v 0.066193 0.259896 -0.132993
v 0.116554 0.259896 -0.138751
v 0.246226 0.259896 -0.153577
v 0.479448 0.300116 -0.180241
v 0.296587 0.259896 -0.159334
v 0.426260 0.259896 -0.174160
v -0.116668 0.000116 -0.112087
v 0.479448 0.000116 -0.180241
v -0.082591 0.000116 0.185972
v 0.513526 0.000116 0.117817
v 0.513526 0.000116 0.117817
v 0.479448 0.000116 -0.180241
v 0.513526 0.300116 0.117817
v 0.479448 0.300116 -0.180241
v -0.116668 0.000116 -0.112087
v -0.082591 0.000116 0.185972
v -0.116668 0.300116 -0.112087
v -0.082591 0.300116 0.185972
v -0.082591 0.300116 0.185972
v 0.513526 0.300116 0.117817
v -0.116668 0.300116 -0.112087
v 0.479448 0.300116 -0.180241
v 0.513526 0.300116 0.117817
v -0.082591 0.300116 0.185972
v 0.280304 0.259896 0.144482
v 0.150631 0.259896 0.159307
v -0.029403 0.259896 0.179891
v 0.100270 0.259896 0.165065
v 0.330664 0.259896 0.138724
v 0.460338 0.259896 0.123898
v -0.116668 0.000116 -0.112087
v -0.063480 0.040339 -0.118168
v 0.479448 0.000116 -0.180241
v 0.246226 0.040339 -0.153577
v 0.116554 0.040339 -0.138751
v 0.066193 0.040339 -0.132993
v 0.296587 0.040339 -0.159334
v 0.426260 0.040339 -0.174160
v -0.029403 0.259896 0.179891
v -0.063480 0.259896 -0.118168
v 0.100270 0.259896 0.165065
v 0.066193 0.259896 -0.132993
v -0.063480 0.040339 -0.118168
v -0.029403 0.040339 0.179891
v 0.066193 0.040339 -0.132993
v 0.100270 0.040339 0.165065
v 0.100270 0.040339 0.165065
v 0.100270 0.259896 0.165065
v 0.066193 0.040339 -0.132993
v 0.066193 0.259896 -0.132993
v -0.063480 0.040339 -0.118168
v -0.063480 0.259896 -0.118168
v -0.029403 0.040339 0.179891
v -0.029403 0.259896 0.179891
v 0.150631 0.259896 0.159307
v 0.116554 0.259896 -0.138751
v 0.280304 0.259896 0.144482
v 0.246226 0.259896 -0.153577
v 0.116554 0.040339 -0.138751
v 0.150631 0.040339 0.159307
v 0.246226 0.040339 -0.153577
v 0.280304 0.040339 0.144482
v 0.280304 0.040339 0.144482
v 0.280304 0.259896 0.144482
v 0.246226 0.040339 -0.153577
v 0.246226 0.259896 -0.153577
v 0.116554 0.040339 -0.138751
v 0.116554 0.259896 -0.138751
v 0.150631 0.040339 0.159307
v 0.150631 0.259896 0.159307
v 0.460338 0.259896 0.123898
v 0.330664 0.259896 0.138724
v 0.426260 0.259896 -0.174160
v 0.296587 0.259896 -0.159334
v 0.426260 0.040339 -0.174160
v 0.296587 0.040339 -0.159334
v 0.460338 0.040339 0.123898
v 0.330664 0.040339 0.138724
v 0.330664 0.040339 0.138724
v 0.296587 0.040339 -0.159334
v 0.330664 0.259896 0.138724
v 0.296587 0.259896 -0.159334
v 0.426260 0.040339 -0.174160
v 0.460338 0.040339 0.123898
v 0.426260 0.259896 -0.174160
v 0.460338 0.259896 0.123898
vt -3.6742 0.3902
vt -3.6545 0.3655
vt -3.5472 0.3902
vt -3.5472 0.3655
vt -3.6545 0.3019
vt -3.6742 0.2758
vt -3.3608 0.3656
vt -3.3805 0.4222
vt -3.3805 0.2759
vt -3.3608 0.3020
vt -3.5274 0.0147
vt -3.4662 0.0143
vt -3.5274 0.1291
vt -3.3804 0.1292
vt -3.3804 0.0152
vt -3.5274 0.1291
vt -3.3804 0.1292
vt -3.5275 0.2758
vt -3.3805 0.2759
vt -3.5275 0.4208
vt -3.2535 0.3656
vt -3.3608 0.3903
vt -3.2338 0.3899
vt -3.2534 0.3020
vt -3.2338 0.2759
vt -3.5471 0.3019
vt -3.5275 0.2758
vt -3.5471 0.3019
vt -3.5472 0.3655
vt -3.6941 0.3019
vt -3.6942 0.3655
vt -3.5075 0.3019
vt -3.5075 0.3655
vt -3.6545 0.3019
vt -3.6545 0.3655
vt -3.6545 0.3655
vt -3.6545 0.2185
vt -3.5472 0.3655
vt -3.5472 0.2185
vt -3.6545 0.4489
vt -3.6545 0.3019
vt -3.5471 0.4489
vt -3.5471 0.3019
vt -3.5472 0.4160
vt -3.3805 0.4222
vt -3.4464 0.4148
vt -3.3805 0.2759
vt -3.5275 0.2758
vt -3.4808 0.4333
vt -3.5275 0.4208
vt -3.6941 0.4256
vt -3.6941 0.3902
vt -3.5472 0.4160
vt -3.5472 0.3902
vt -3.3608 0.4257
vt -3.6927 0.4456
vt -3.6941 0.4256
vt -3.6265 0.4420
vt -3.5472 0.4160
vt -3.5883 0.4502
vt -3.5422 0.4356
vt -3.6742 0.3902
vt -3.5472 0.3902
vt -3.6742 0.4515
vt -3.5472 0.5372
vt -3.6742 0.5372
vt -3.0097 0.4036
vt -3.0273 0.4271
vt -3.0097 0.3464
vt -3.0097 0.3241
vt -3.0097 0.2669
vt -3.0274 0.1639
vt -3.0097 0.2446
vt -3.0097 0.1874
vt -2.7465 0.4036
vt -2.7641 0.4271
vt -2.7465 0.3464
vt -2.7465 0.3241
vt -2.7465 0.2669
vt -2.7641 0.1639
vt -2.7465 0.2446
vt -2.7465 0.1874
vt -2.7641 0.5587
vt -2.7641 0.8220
vt -2.8957 0.5587
vt -2.8958 0.8220
vt -2.8957 0.0322
vt -2.7641 0.0322
vt -2.8957 0.1639
vt -2.7641 0.1639
vt -2.7641 0.5587
vt -2.8957 0.5587
vt -2.7641 0.4271
vt -2.8957 0.4271
vt -2.8957 0.4271
vt -2.8957 0.1639
vt -2.7641 0.4271
vt -2.7641 0.1639
vt -2.8957 0.1639
vt -2.8957 0.4271
vt -2.9134 0.2669
vt -2.9134 0.3241
vt -2.9134 0.4036
vt -2.9134 0.3464
vt -2.9134 0.2446
vt -2.9134 0.1874
vt -2.6325 0.4271
vt -2.6501 0.4036
vt -2.6325 0.1639
vt -2.6501 0.2669
vt -2.6501 0.3241
vt -2.6501 0.3464
vt -2.6501 0.2446
vt -2.6501 0.1874
vt -2.9134 0.4036
vt -3.0450 0.4036
vt -2.9134 0.3464
vt -3.0450 0.3464
vt -2.8780 0.4036
vt -3.0097 0.4036
vt -2.8781 0.3463
vt -3.0097 0.3464
vt -3.0097 0.3464
vt -2.9134 0.3464
vt -3.0097 0.4780
vt -2.9134 0.4780
vt -3.0097 0.2720
vt -2.9134 0.2720
vt -3.0097 0.4036
vt -2.9134 0.4036
vt -2.9134 0.3241
vt -3.0450 0.3241
vt -2.9134 0.2669
vt -3.0450 0.2669
vt -2.8781 0.3241
vt -3.0097 0.3241
vt -2.8781 0.2669
vt -3.0097 0.2669
vt -3.0097 0.2669
vt -2.9134 0.2669
vt -3.0097 0.3985
vt -2.9134 0.3985
vt -3.0097 0.1925
vt -2.9134 0.1925
vt -3.0097 0.3241
vt -2.9134 0.3241
vt -2.9134 0.1874
vt -2.9134 0.2446
vt -3.0450 0.1874
vt -3.0450 0.2446
vt -2.8781 0.1874
vt -2.8781 0.2446
vt -3.0097 0.1874
vt -3.0097 0.2446
vt -3.0097 0.2446
vt -3.0097 0.1130
vt -2.9134 0.2446
vt -2.9134 0.1130
vt -3.0097 0.3190
vt -3.0097 0.1874
vt -2.9134 0.3190
vt -2.9134 0.1874
vn -0.4266 -0.0000 0.9044
vn 0.4266 -0.0000 -0.9045
vn 0.4266 -0.0000 -0.9044
vn -0.0000 -1.0000 -0.0000
vn 0.9044 0.0000 0.4266
vn -0.4266 -0.0000 0.9045
vn 0.0000 1.0000 0.0000
vn -0.9044 0.0000 -0.4266
vn -0.9311 0.1781 -0.3182
vn -0.9095 0.2482 -0.3336
vn -0.8832 -0.1645 -0.4392
vn -0.8699 -0.3282 -0.3682
vn -0.7045 -0.6368 -0.3133
vn -0.9572 -0.2312 -0.1743
vn -0.9079 0.0000 -0.4192
vn -0.9062 0.0020 -0.4229
vn -0.9042 0.0002 -0.4271
vn -0.9021 0.0003 -0.4315
vn -0.8997 -0.0035 -0.4366
vn 0.1136 -0.0000 0.9935
vn -0.1136 0.0000 -0.9935
vn -0.1136 -0.0001 -0.9935
vn 0.9935 0.0000 -0.1136
vn -0.9935 -0.0000 0.1136
vn -0.1136 0.0001 -0.9935
usemtl crete_walls_02.001
s 1
f 1/1/1 2/2/1 3/3/1
f 3/3/1 2/2/1 4/4/1
f 2/2/1 1/1/1 5/5/1
f 5/5/1 1/1/1 6/6/1
f 7/7/2 8/8/3 9/9/2
f 9/9/2 10/10/2 7/7/2
f 11/11/4 12/12/4 13/13/4
f 13/13/4 12/12/4 14/14/4
f 12/12/4 15/15/4 14/14/4
f 16/16/5 17/17/5 18/18/5
f 18/18/5 17/17/5 19/19/5
f 20/20/6 3/3/1 4/4/1
f 7/7/2 21/21/3 22/22/2
f 22/22/2 21/21/3 23/23/3
f 24/24/2 10/10/2 25/25/2
f 25/25/2 10/10/2 9/9/2
f 26/26/6 5/5/1 27/27/6
f 27/27/6 5/5/1 6/6/1
f 28/28/4 29/29/4 30/30/4
f 30/30/4 29/29/4 31/31/4
f 32/32/7 33/33/7 34/34/7
f 34/34/7 33/33/7 35/35/7
f 36/36/5 37/37/5 38/38/5
f 38/38/5 37/37/5 39/39/5
f 40/40/8 41/41/8 42/42/8
f 42/42/8 41/41/8 43/43/8
f 3/3/1 20/20/6 44/44/6
f 45/45/7 46/46/7 47/47/7
f 47/47/7 46/46/7 48/48/7
f 46/46/7 49/49/7 48/48/7
f 49/49/7 50/50/7 48/48/7
f 25/25/2 23/23/3 24/24/2
f 24/24/2 23/23/3 21/21/3
f 7/7/2 22/22/2 8/8/3
f 51/51/4 52/52/4 53/53/4
f 53/53/4 52/52/4 54/54/4
f 55/55/3 8/8/3 22/22/2
f 20/20/6 4/4/1 27/27/6
f 27/27/6 4/4/1 26/26/6
f 56/56/9 57/57/10 58/58/11
f 58/58/11 57/57/10 59/59/12
f 58/58/11 59/59/12 60/60/13
f 61/61/14 60/60/13 59/59/12
f 62/62/15 63/63/16 64/64/17
f 63/63/16 65/65/18 64/64/17
f 65/65/18 66/66/19 64/64/17
f 67/67/20 68/68/20 69/69/20
f 70/70/20 69/69/20 68/68/20
f 70/70/20 68/68/20 71/71/20
f 71/71/20 68/68/20 72/72/20
f 71/71/20 72/72/20 73/73/20
f 72/72/20 74/74/20 73/73/20
f 75/75/21 76/76/21 77/77/21
f 78/78/21 77/77/21 76/76/21
f 78/78/21 76/76/21 79/79/21
f 79/79/21 76/76/21 80/80/21
f 79/79/21 80/80/21 81/81/22
f 80/80/21 82/82/21 81/81/22
f 83/83/4 84/84/4 85/85/4
f 85/85/4 84/84/4 86/86/4
f 87/87/23 88/88/23 89/89/23
f 89/89/23 88/88/23 90/90/23
f 91/91/24 92/92/24 93/93/24
f 93/93/24 92/92/24 94/94/24
f 95/95/7 96/96/7 97/97/7
f 97/97/7 96/96/7 98/98/7
f 99/99/20 100/100/20 101/101/20
f 101/101/20 100/100/20 102/102/20
f 100/100/20 103/103/20 104/104/20
f 100/100/20 104/104/20 102/102/20
f 101/101/20 105/105/20 99/99/20
f 105/105/20 106/106/20 99/99/20
f 76/76/21 75/75/21 107/107/21
f 107/107/21 75/75/21 108/108/21
f 68/68/20 67/67/20 100/100/20
f 100/100/20 67/67/20 103/103/20
f 109/109/21 107/107/21 110/110/21
f 110/110/21 107/107/21 111/111/21
f 107/107/21 108/108/21 112/112/21
f 107/107/21 112/112/21 111/111/21
f 110/110/21 113/113/25 109/109/21
f 113/113/25 114/114/21 109/109/21
f 112/112/21 77/77/21 111/111/21
f 111/111/21 77/77/21 78/78/21
f 104/104/20 69/69/20 102/102/20
f 102/102/20 69/69/20 70/70/20
f 110/110/21 79/79/21 113/113/25
f 113/113/25 79/79/21 81/81/22
f 101/101/20 71/71/20 105/105/20
f 105/105/20 71/71/20 73/73/20
f 114/114/21 82/82/21 109/109/21
f 109/109/21 82/82/21 80/80/21
f 106/106/20 74/74/20 99/99/20
f 99/99/20 74/74/20 72/72/20
f 115/115/4 116/116/4 117/117/4
f 117/117/4 116/116/4 118/118/4
f 119/119/7 120/120/7 121/121/7
f 121/121/7 120/120/7 122/122/7
f 123/123/24 124/124/24 125/125/24
f 125/125/24 124/124/24 126/126/24
f 127/127/23 128/128/23 129/129/23
f 129/129/23 128/128/23 130/130/23
f 131/131/4 132/132/4 133/133/4
f 133/133/4 132/132/4 134/134/4
f 135/135/7 136/136/7 137/137/7
f 137/137/7 136/136/7 138/138/7
f 139/139/24 140/140/24 141/141/24
f 141/141/24 140/140/24 142/142/24
f 143/143/23 144/144/23 145/145/23
f 145/145/23 144/144/23 146/146/23
f 147/147/4 148/148/4 149/149/4
f 149/149/4 148/148/4 150/150/4
f 151/151/7 152/152/7 153/153/7
f 153/153/7 152/152/7 154/154/7
f 155/155/23 156/156/23 157/157/23
f 157/157/23 156/156/23 158/158/23
f 159/159/24 160/160/24 161/161/24
f 161/161/24 160/160/24 162/162/24
