# ..:::Stalker models:::..
# WebSite: http://excalibur-craft.ru
mtllib taburet_wood_01.mtl
o 0.008
v 0.211684 0.516447 0.234573
v 0.139812 0.525946 0.161884
v -0.000329 0.516447 0.234573
v -0.000329 0.521380 0.161763
v 0.212526 0.516447 0.020820
v 0.139939 0.521380 0.020820
v -0.212342 0.516447 0.234573
v -0.140471 0.525946 0.161884
v -0.213185 0.516447 0.020820
v -0.140598 0.521380 0.020820
v 0.211684 0.516447 -0.192933
v 0.139812 0.525946 -0.120244
v -0.000329 0.516447 -0.192933
v -0.000329 0.521380 -0.120123
v -0.212342 0.516447 -0.192933
v -0.140471 0.525946 -0.120244
v -0.000329 0.533728 0.020820
vt 0.9570 0.0000
vt 0.8021 0.1700
vt 0.5000 0.0000
vt 0.5000 0.1703
vt 0.9588 0.5000
vt 0.8024 0.5000
vt 0.0430 0.0000
vt 0.1979 0.1700
vt 0.0412 0.5000
vt 0.1976 0.5000
vt 0.9570 1.0000
vt 0.8021 0.8300
vt 0.5000 1.0000
vt 0.5000 0.8297
vt 0.0430 1.0000
vt 0.1979 0.8300
vt 0.5000 0.5000
vn 0.0652 0.9957 0.0656
vn 0.0370 0.9986 0.0369
vn 0.0000 0.9951 0.0986
vn -0.0000 0.9970 0.0774
vn 0.0992 0.9951 0.0000
vn 0.0777 0.9970 0.0000
vn -0.0656 0.9957 0.0653
vn -0.0370 0.9986 0.0369
vn -0.0992 0.9951 -0.0000
vn -0.0777 0.9970 -0.0000
vn 0.0652 0.9957 -0.0656
vn 0.0370 0.9986 -0.0369
vn 0.0000 0.9951 -0.0986
vn -0.0000 0.9970 -0.0774
vn -0.0655 0.9957 -0.0654
vn -0.0370 0.9986 -0.0369
vn 0.0000 1.0000 -0.0000
usemtl prop_blind01.005
s 1
f 1/1/1 2/2/2 3/3/3
f 3/3/3 2/2/2 4/4/4
f 1/1/1 5/5/5 2/2/2
f 2/2/2 5/5/5 6/6/6
f 7/7/7 8/8/8 9/9/9
f 9/9/9 8/8/8 10/10/10
f 7/7/7 3/3/3 8/8/8
f 8/8/8 3/3/3 4/4/4
f 11/11/11 12/12/12 5/5/5
f 5/5/5 12/12/12 6/6/6
f 11/11/11 13/13/13 12/12/12
f 12/12/12 13/13/13 14/14/14
f 15/15/15 16/16/16 13/13/13
f 13/13/13 16/16/16 14/14/14
f 15/15/15 9/9/9 16/16/16
f 16/16/16 9/9/9 10/10/10
f 4/4/4 2/2/2 17/17/17
f 2/2/2 6/6/6 17/17/17
f 10/10/10 8/8/8 17/17/17
f 8/8/8 4/4/4 17/17/17
f 6/6/6 12/12/12 17/17/17
f 12/12/12 14/14/14 17/17/17
f 14/14/14 16/16/16 17/17/17
f 16/16/16 10/10/10 17/17/17
o 1.006
v -0.197488 0.443269 0.188890
v -0.176861 0.443269 0.188890
v -0.197436 0.443269 -0.149237
v -0.178412 0.443269 -0.149237
v -0.176861 0.381772 0.189656
v -0.197488 0.381772 0.189656
v -0.178412 0.381772 -0.150131
v -0.197436 0.381772 -0.150131
v 0.172985 0.442574 -0.154935
v 0.173006 0.442574 -0.177732
v -0.173143 0.442574 -0.155046
v -0.173119 0.442574 -0.177732
v 0.173670 0.381079 -0.177732
v 0.173650 0.381079 -0.154935
v -0.173784 0.381079 -0.177732
v -0.173808 0.381079 -0.155046
v 0.172969 0.442574 0.217435
v 0.173006 0.442574 0.194638
v -0.173161 0.442574 0.217323
v -0.173128 0.442574 0.194638
v 0.173670 0.381079 0.194638
v 0.173633 0.381079 0.217435
v -0.173793 0.381079 0.194638
v -0.173826 0.381079 0.217323
v 0.179455 0.443269 0.188890
v 0.200082 0.443269 0.188890
v 0.179508 0.443269 -0.149237
v 0.198532 0.443269 -0.149237
v 0.200082 0.381772 0.189656
v 0.179455 0.381772 0.189656
v 0.198532 0.381772 -0.150131
v 0.179508 0.381772 -0.150131
v -0.180838 0.000099 0.197166
v -0.208716 0.000099 0.197166
v -0.173056 0.470618 0.188907
v -0.216614 0.470618 0.188907
v -0.208716 0.000099 0.197166
v -0.208692 0.000099 0.226507
v -0.216614 0.470618 0.188907
v -0.216591 0.470618 0.234766
v -0.208692 0.000099 0.226507
v -0.180846 0.000099 0.226385
v -0.216591 0.470618 0.234766
v -0.173181 0.470618 0.234766
v -0.180846 0.000099 0.226385
v -0.180838 0.000099 0.197166
v -0.173181 0.470618 0.234766
v -0.173056 0.470618 0.188907
v -0.208692 0.000099 0.226507
v -0.208716 0.000099 0.197166
v -0.180846 0.000099 0.226385
v -0.180838 0.000099 0.197166
v -0.176861 0.443269 0.188890
v -0.176861 0.381772 0.189656
v -0.178412 0.443269 -0.149237
v -0.178412 0.381772 -0.150131
v -0.197488 0.381772 0.189656
v -0.197488 0.443269 0.188890
v -0.197436 0.381772 -0.150131
v -0.197436 0.443269 -0.149237
v 0.173006 0.442574 -0.177732
v 0.173670 0.381079 -0.177732
v -0.173119 0.442574 -0.177732
v -0.173784 0.381079 -0.177732
v 0.173650 0.381079 -0.154935
v 0.172985 0.442574 -0.154935
v -0.173808 0.381079 -0.155046
v -0.173143 0.442574 -0.155046
v 0.173006 0.442574 0.194638
v 0.173670 0.381079 0.194638
v -0.173128 0.442574 0.194638
v -0.173793 0.381079 0.194638
v 0.173633 0.381079 0.217435
v 0.172969 0.442574 0.217435
v -0.173826 0.381079 0.217323
v -0.173161 0.442574 0.217323
v 0.200082 0.443269 0.188890
v 0.200082 0.381772 0.189656
v 0.198532 0.443269 -0.149237
v 0.198532 0.381772 -0.150131
v 0.179455 0.381772 0.189656
v 0.179455 0.443269 0.188890
v 0.179508 0.381772 -0.150131
v 0.179508 0.443269 -0.149237
v 0.208864 0.000099 0.197166
v 0.180986 0.000099 0.197166
v 0.216646 0.470847 0.188907
v 0.173089 0.470847 0.188907
v 0.180986 0.000099 0.197166
v 0.181010 0.000099 0.226507
v 0.173089 0.470847 0.188907
v 0.173111 0.470847 0.234766
v 0.181010 0.000099 0.226507
v 0.208857 0.000099 0.226385
v 0.173111 0.470847 0.234766
v 0.216521 0.470847 0.234766
v 0.208857 0.000099 0.226385
v 0.208864 0.000099 0.197166
v 0.216521 0.470847 0.234766
v 0.216646 0.470847 0.188907
v 0.181010 0.000099 0.226507
v 0.180986 0.000099 0.197166
v 0.208857 0.000099 0.226385
v 0.208864 0.000099 0.197166
v -0.180838 0.000099 -0.186796
v -0.208716 0.000099 -0.186796
v -0.173056 0.470618 -0.195056
v -0.216614 0.470618 -0.195056
v -0.208716 0.000099 -0.186796
v -0.208692 0.000099 -0.157456
v -0.216614 0.470618 -0.195056
v -0.216591 0.470618 -0.149197
v -0.208692 0.000099 -0.157456
v -0.180846 0.000099 -0.157578
v -0.216591 0.470618 -0.149197
v -0.173181 0.470618 -0.149197
v -0.180846 0.000099 -0.157578
v -0.180838 0.000099 -0.186796
v -0.173181 0.470618 -0.149197
v -0.173056 0.470618 -0.195056
v -0.208692 0.000099 -0.157456
v -0.208716 0.000099 -0.186796
v -0.180846 0.000099 -0.157578
v -0.180838 0.000099 -0.186796
v 0.208864 0.000099 -0.186796
v 0.180986 0.000099 -0.186796
v 0.216646 0.470847 -0.195056
v 0.173089 0.470847 -0.195056
v 0.180986 0.000099 -0.186796
v 0.181010 0.000099 -0.157456
v 0.173089 0.470847 -0.195056
v 0.173111 0.470847 -0.149197
v 0.181010 0.000099 -0.157456
v 0.208857 0.000099 -0.157578
v 0.173111 0.470847 -0.149197
v 0.216521 0.470847 -0.149197
v 0.208857 0.000099 -0.157578
v 0.208864 0.000099 -0.186796
v 0.216521 0.470847 -0.149197
v 0.216646 0.470847 -0.195056
v 0.181010 0.000099 -0.157456
v 0.180986 0.000099 -0.186796
v 0.208857 0.000099 -0.157578
v 0.208864 0.000099 -0.186796
v 0.223661 0.513408 0.244929
v -0.000329 0.513408 0.244929
v 0.223661 0.470937 0.244929
v -0.000329 0.470937 0.244929
v 0.223661 0.513408 0.244929
v 0.223907 0.513407 0.020820
v 0.211684 0.516447 0.234573
v 0.212526 0.516447 0.020820
v 0.223661 0.470937 0.244929
v -0.000329 0.470937 0.244929
v 0.171664 0.470937 0.197032
v -0.000329 0.470937 0.196982
v -0.000329 0.494608 0.197032
v -0.000329 0.494608 0.020820
v 0.171664 0.494608 0.197032
v 0.171856 0.494608 0.020820
v -0.000329 0.516447 0.234573
v -0.000329 0.513408 0.244929
v 0.211684 0.516447 0.234573
v 0.223661 0.513408 0.244929
v -0.000329 0.470937 0.196982
v -0.000329 0.494608 0.197032
v 0.171664 0.470937 0.197032
v 0.171664 0.494608 0.197032
v -0.224319 0.513408 0.244929
v -0.224319 0.470937 0.244929
v -0.224319 0.513408 0.244929
v -0.212342 0.516447 0.234573
v -0.224566 0.513407 0.020820
v -0.213185 0.516447 0.020820
v -0.224319 0.470937 0.244929
v -0.172323 0.470937 0.197032
v -0.172323 0.494608 0.197032
v -0.172515 0.494608 0.020820
v -0.000329 0.516447 0.234573
v -0.212342 0.516447 0.234573
v -0.000329 0.513408 0.244929
v -0.224319 0.513408 0.244929
v -0.172323 0.470937 0.197032
v -0.172323 0.494608 0.197032
v 0.223907 0.470936 0.020820
v 0.223907 0.513407 0.020820
v 0.223661 0.470937 0.244929
v 0.223661 0.513408 0.244929
v 0.171856 0.494608 0.020820
v 0.171856 0.470937 0.020820
v 0.171664 0.494608 0.197032
v 0.171664 0.470937 0.197032
v 0.171856 0.470937 0.020820
v 0.223907 0.470936 0.020820
v 0.171664 0.470937 0.197032
v 0.223661 0.470937 0.244929
v -0.224566 0.513407 0.020820
v -0.224566 0.470937 0.020820
v -0.224319 0.513408 0.244929
v -0.224319 0.470937 0.244929
v -0.172515 0.470937 0.020820
v -0.172515 0.494608 0.020820
v -0.172323 0.470937 0.197032
v -0.172323 0.494608 0.197032
v -0.172515 0.470937 0.020820
v -0.172323 0.470937 0.197032
v -0.224566 0.470937 0.020820
v -0.224319 0.470937 0.244929
v 0.223661 0.513408 -0.203289
v 0.223661 0.470937 -0.203289
v -0.000329 0.513408 -0.203289
v -0.000329 0.470937 -0.203289
v 0.223661 0.513408 -0.203289
v 0.211684 0.516447 -0.192933
v 0.223661 0.470937 -0.203289
v 0.171664 0.470937 -0.155392
v -0.000329 0.470937 -0.203289
v -0.000329 0.470937 -0.155342
v -0.000329 0.494608 -0.155392
v 0.171664 0.494608 -0.155392
v -0.000329 0.516447 -0.192933
v 0.211684 0.516447 -0.192933
v -0.000329 0.513408 -0.203289
v 0.223661 0.513408 -0.203289
v -0.000329 0.470937 -0.155342
v 0.171664 0.470937 -0.155392
v -0.000329 0.494608 -0.155392
v 0.171664 0.494608 -0.155392
v -0.224319 0.513408 -0.203289
v -0.224319 0.470937 -0.203289
v -0.224319 0.513408 -0.203289
v -0.224566 0.513407 0.020820
v -0.212342 0.516447 -0.192933
v -0.213185 0.516447 0.020820
v -0.224319 0.470937 -0.203289
v -0.172323 0.470937 -0.155392
v -0.172323 0.494608 -0.155392
v -0.000329 0.516447 -0.192933
v -0.000329 0.513408 -0.203289
v -0.212342 0.516447 -0.192933
v -0.224319 0.513408 -0.203289
v -0.172323 0.470937 -0.155392
v -0.172323 0.494608 -0.155392
v 0.223661 0.470937 -0.203289
v 0.223661 0.513408 -0.203289
v 0.171664 0.494608 -0.155392
v 0.171664 0.470937 -0.155392
v 0.171664 0.470937 -0.155392
v 0.223661 0.470937 -0.203289
v -0.224319 0.513408 -0.203289
v -0.224319 0.470937 -0.203289
v -0.172323 0.470937 -0.155392
v -0.172323 0.494608 -0.155392
v -0.224319 0.470937 -0.203289
v -0.172323 0.470937 -0.155392
vt 2.3791 0.0000
vt 2.3791 0.0354
vt 3.0072 0.0001
vt 3.0072 0.0354
vt 3.6353 0.0353
vt 3.6353 0.0000
vt 3.0072 0.0353
vt 3.0072 0.0001
vt 0.0000 0.0423
vt 0.0000 0.0000
vt 0.5948 0.0421
vt 0.5948 0.0000
vt 0.5948 0.0000
vt 0.5948 0.0423
vt 1.1895 0.0000
vt 1.1896 0.0421
vt 1.1896 0.0000
vt 1.1896 0.0423
vt 1.7843 0.0002
vt 1.7843 0.0423
vt 1.7843 0.0423
vt 1.7843 0.0000
vt 2.3791 0.0423
vt 2.3791 0.0002
vt 4.2634 0.0352
vt 4.2634 0.0000
vt 4.8915 0.0352
vt 4.8915 0.0000
vt 4.2634 0.0000
vt 4.2634 0.0353
vt 3.6353 0.0000
vt 3.6353 0.0352
vt 0.4113 0.0021
vt 0.3260 0.0021
vt 0.4113 0.7717
vt 0.3260 0.7717
vt 0.6446 0.0021
vt 0.5676 0.0021
vt 0.6446 0.7717
vt 0.5676 0.7717
vt 0.5676 0.0021
vt 0.4869 0.0021
vt 0.5676 0.7717
vt 0.4869 0.7717
vt 0.4869 0.0021
vt 0.4113 0.0021
vt 0.4869 0.7717
vt 0.4113 0.7717
vt 0.5676 0.0021
vt 0.5676 0.0687
vt 0.4869 0.0021
vt 0.4869 0.0687
vt 0.6281 0.1097
vt 0.6281 0.0000
vt 0.0000 0.1097
vt 0.0000 0.0000
vt 1.2562 0.0000
vt 1.2562 0.1097
vt 1.8843 0.0000
vt 1.8843 0.1097
vt 2.5124 0.1097
vt 2.5124 0.0000
vt 3.1071 0.1097
vt 3.1071 0.0000
vt 3.7019 0.0000
vt 3.7019 0.1097
vt 4.2966 0.0000
vt 4.2966 0.1097
vt 4.2966 0.1097
vt 4.2966 0.0000
vt 4.8903 0.1097
vt 4.8914 0.0000
vt 3.1071 0.0000
vt 3.1071 0.1097
vt 3.7019 0.0000
vt 3.7019 0.1097
vt 1.2562 0.1097
vt 1.2562 0.0000
vt 0.6281 0.1097
vt 0.6281 0.0000
vt 1.8843 0.0000
vt 1.8843 0.1097
vt 2.5124 0.0000
vt 2.5124 0.1097
vt 0.8075 0.0021
vt 0.7309 0.0021
vt 0.8075 0.7717
vt 0.7309 0.7717
vt 0.7309 0.0021
vt 0.6446 0.0021
vt 0.7309 0.7717
vt 0.6446 0.7717
vt 0.9671 0.0021
vt 0.8892 0.0021
vt 0.9671 0.7717
vt 0.8892 0.7717
vt 0.8892 0.0021
vt 0.8075 0.0021
vt 0.8892 0.7717
vt 0.8075 0.7717
vt 0.8892 0.0687
vt 0.8075 0.0687
vt 0.8892 0.0021
vt 0.8075 0.0021
vt 0.0898 0.0021
vt 0.0035 0.0021
vt 0.0898 0.7717
vt 0.0035 0.7717
vt 0.3260 0.0021
vt 0.2481 0.0021
vt 0.3260 0.7717
vt 0.2481 0.7717
vt 0.2481 0.0021
vt 0.1664 0.0021
vt 0.2481 0.7717
vt 0.1664 0.7717
vt 0.1664 0.0021
vt 0.0898 0.0021
vt 0.1664 0.7717
vt 0.0898 0.7717
vt 0.2481 0.0021
vt 0.2481 0.0687
vt 0.1664 0.0021
vt 0.1664 0.0687
vt 1.1300 0.0021
vt 1.0534 0.0021
vt 1.1300 0.7717
vt 1.0534 0.7717
vt 1.0534 0.0021
vt 0.9671 0.0021
vt 1.0534 0.7717
vt 0.9671 0.7717
vt 1.2896 0.0021
vt 1.2117 0.0021
vt 1.2896 0.7717
vt 1.2117 0.7717
vt 1.2117 0.0021
vt 1.1300 0.0021
vt 1.2117 0.7717
vt 1.1300 0.7717
vt 1.2117 0.0687
vt 1.1300 0.0687
vt 1.2117 0.0021
vt 1.1300 0.0021
vt 0.5217 0.0001
vt 0.7619 0.0001
vt 0.5217 0.0453
vt 0.7619 0.0453
vt 0.2477 0.0003
vt 0.4954 0.0000
vt 0.2591 0.0124
vt 0.4954 0.0116
vt 0.9802 0.0000
vt 1.2058 0.0000
vt 1.0326 0.0524
vt 1.2058 0.0524
vt 0.5003 0.1598
vt 0.5000 0.5000
vt 0.1943 0.1595
vt 0.1936 0.4997
vt 1.4470 0.0114
vt 1.4470 0.0000
vt 1.6630 0.0114
vt 1.6752 0.0000
vt 0.5647 0.0003
vt 0.5647 0.0242
vt 0.3895 0.0003
vt 0.3895 0.0242
vt 1.0021 0.0001
vt 1.0021 0.0453
vt 0.2477 0.0003
vt 0.2362 0.0124
vt 0.0000 0.0000
vt 0.0000 0.0116
vt 1.4315 0.0000
vt 1.3791 0.0524
vt 0.8063 0.1601
vt 0.8064 0.5003
vt 1.9033 0.0114
vt 1.6874 0.0114
vt 1.9033 0.0000
vt 1.6752 0.0000
vt 0.7398 0.0003
vt 0.7399 0.0242
vt 0.2608 0.0453
vt 0.2608 0.0001
vt 0.5217 0.0453
vt 0.5217 0.0001
vt 0.1948 0.0242
vt 0.1948 0.0003
vt 0.3895 0.0242
vt 0.3895 0.0003
vt 0.2451 0.0525
vt 0.2450 0.0000
vt 0.4378 0.0524
vt 0.4901 0.0000
vt 1.2629 0.0000
vt 1.2629 0.0453
vt 1.0021 0.0001
vt 1.0021 0.0453
vt 0.9346 0.0002
vt 0.9346 0.0242
vt 0.7398 0.0003
vt 0.7399 0.0242
vt 0.7352 0.0525
vt 0.9278 0.0524
vt 0.7351 0.0000
vt 0.9802 0.0000
vt 2.0042 0.0000
vt 2.0042 0.0452
vt 1.7640 0.0000
vt 1.7640 0.0452
vt 0.7431 0.0003
vt 0.7316 0.0124
vt 1.8818 0.0000
vt 1.8295 0.0524
vt 1.6566 0.0000
vt 1.6566 0.0524
vt 0.4997 0.8402
vt 0.1937 0.8399
vt 1.2189 0.0114
vt 1.0030 0.0114
vt 1.2189 0.0000
vt 0.9908 0.0000
vt 1.3045 0.0001
vt 1.4797 0.0000
vt 1.3045 0.0240
vt 1.4797 0.0239
vt 1.5237 0.0000
vt 1.5238 0.0452
vt 0.7431 0.0003
vt 0.9908 0.0000
vt 0.7545 0.0124
vt 0.9908 0.0116
vt 1.4315 0.0000
vt 1.4838 0.0524
vt 0.8057 0.8405
vt 1.2189 0.0114
vt 1.2189 0.0000
vt 1.4348 0.0114
vt 1.4470 0.0000
vt 1.1294 0.0001
vt 1.1294 0.0241
vt 0.0000 0.0453
vt 0.0000 0.0001
vt 0.0000 0.0242
vt 0.0000 0.0003
vt 0.0524 0.0528
vt 0.0000 0.0005
vt 1.5237 0.0000
vt 1.5238 0.0452
vt 1.1294 0.0001
vt 1.1294 0.0241
vt 0.4901 0.0005
vt 0.5425 0.0528
vn 0.0000 1.0000 0.0000
vn 0.0000 -1.0000 -0.0000
vn 0.0000 -0.0176 -0.9998
vn -0.9999 -0.0168 0.0008
vn -0.9999 -0.0168 0.0005
vn 0.0044 -0.0175 0.9998
vn 0.0022 -0.0176 0.9998
vn 0.0000 -0.0178 0.9998
vn 0.9999 -0.0163 0.0003
vn 0.9999 -0.0164 0.0015
vn 0.9999 -0.0165 0.0027
vn 1.0000 -0.0001 -0.0046
vn 1.0000 -0.0000 -0.0046
vn 1.0000 0.0001 -0.0046
vn -1.0000 -0.0000 -0.0002
vn 0.0000 0.0000 -1.0000
vn -0.0003 -0.0000 1.0000
vn 0.0000 -0.0175 -0.9998
vn 0.0021 -0.0176 0.9998
vn 0.9999 -0.0163 0.0002
vn 0.9999 -0.0164 0.0013
vn 0.9999 -0.0164 0.0014
vn 0.9999 -0.0164 0.0016
vn 0.0000 -0.0000 1.0000
vn 0.1251 0.9817 0.1435
vn 0.2519 0.9678 0.0000
vn 0.1283 0.9813 0.1437
vn 0.2581 0.9661 0.0000
vn 0.0000 0.9595 0.2816
vn 0.0000 0.0021 -1.0000
vn -0.0000 0.0012 -1.0000
vn 0.0001 0.0011 -1.0000
vn -0.1251 0.9817 0.1435
vn -0.1283 0.9813 0.1437
vn -0.2519 0.9678 -0.0000
vn -0.2581 0.9661 0.0002
vn -0.0001 0.0011 -1.0000
vn 1.0000 0.0000 0.0000
vn 1.0000 0.0000 0.0011
vn -1.0000 0.0000 0.0000
vn -1.0000 0.0000 -0.0011
vn -1.0000 0.0000 0.0011
vn 1.0000 0.0000 -0.0011
vn 0.1251 0.9817 -0.1435
vn 0.1283 0.9813 -0.1437
vn 0.0000 0.9595 -0.2816
vn 0.0000 0.0021 1.0000
vn 0.0001 0.0011 1.0000
vn -0.0000 0.0012 1.0000
vn -0.1251 0.9817 -0.1435
vn -0.2519 0.9677 -0.0000
vn -0.1283 0.9813 -0.1437
vn -0.2580 0.9661 -0.0001
vn -0.0001 0.0011 1.0000
usemtl wood_table_02.005
s 1
f 18/18/18 19/19/18 20/20/18
f 20/20/18 19/19/18 21/21/18
f 22/22/19 23/23/19 24/24/19
f 24/24/19 23/23/19 25/25/19
f 26/26/18 27/27/18 28/28/18
f 28/28/18 27/27/18 29/29/18
f 30/30/19 31/31/19 32/32/19
f 32/32/19 31/31/19 33/33/19
f 34/34/18 35/35/18 36/36/18
f 36/36/18 35/35/18 37/37/18
f 38/38/19 39/39/19 40/40/19
f 40/40/19 39/39/19 41/41/19
f 42/42/18 43/43/18 44/44/18
f 44/44/18 43/43/18 45/45/18
f 46/46/19 47/47/19 48/48/19
f 48/48/19 47/47/19 49/49/19
f 50/50/20 51/51/20 52/52/20
f 52/52/20 51/51/20 53/53/20
f 54/54/21 55/55/21 56/56/22
f 56/56/22 55/55/21 57/57/22
f 58/58/23 59/59/24 60/60/24
f 60/60/24 59/59/24 61/61/25
f 62/62/26 63/63/27 64/64/27
f 64/64/27 63/63/27 65/65/28
f 66/66/19 67/67/19 68/68/19
f 68/68/19 67/67/19 69/69/19
f 70/70/29 71/71/30 72/72/31
f 72/72/31 71/71/30 73/73/31
f 74/74/32 75/75/32 76/76/32
f 76/76/32 75/75/32 77/77/32
f 78/78/33 79/79/33 80/80/33
f 80/80/33 79/79/33 81/81/33
f 82/82/34 83/83/34 84/84/34
f 84/84/34 83/83/34 85/85/34
f 86/86/33 87/87/33 88/88/33
f 88/88/33 87/87/33 89/89/33
f 90/90/34 91/91/34 92/92/34
f 92/92/34 91/91/34 93/93/34
f 94/94/29 95/95/30 96/96/31
f 96/96/31 95/95/30 97/97/31
f 98/98/32 99/99/32 100/100/32
f 100/100/32 99/99/32 101/101/32
f 102/102/35 103/103/35 104/104/35
f 104/104/35 103/103/35 105/105/35
f 106/106/21 107/107/21 108/108/22
f 108/108/22 107/107/21 109/109/22
f 110/110/23 111/111/24 112/112/36
f 112/112/36 111/111/24 113/113/25
f 114/114/37 115/115/38 116/116/27
f 116/116/27 115/115/38 117/117/28
f 118/118/19 119/119/19 120/120/19
f 120/120/19 119/119/19 121/121/19
f 122/122/20 123/123/20 124/124/20
f 124/124/20 123/123/20 125/125/20
f 126/126/21 127/127/21 128/128/22
f 128/128/22 127/127/21 129/129/22
f 130/130/23 131/131/24 132/132/24
f 132/132/24 131/131/24 133/133/25
f 134/134/26 135/135/39 136/136/27
f 136/136/27 135/135/39 137/137/28
f 138/138/19 139/139/19 140/140/19
f 140/140/19 139/139/19 141/141/19
f 142/142/35 143/143/35 144/144/35
f 144/144/35 143/143/35 145/145/35
f 146/146/21 147/147/21 148/148/22
f 148/148/22 147/147/21 149/149/22
f 150/150/23 151/151/24 152/152/36
f 152/152/36 151/151/24 153/153/25
f 154/154/37 155/155/39 156/156/40
f 156/156/40 155/155/39 157/157/28
f 158/158/19 159/159/19 160/160/19
f 160/160/19 159/159/19 161/161/19
f 162/162/41 163/163/41 164/164/41
f 164/164/41 163/163/41 165/165/41
f 166/166/42 167/167/43 168/168/44
f 168/168/44 167/167/43 169/169/45
f 170/170/19 171/171/19 172/172/19
f 172/172/19 171/171/19 173/173/19
f 174/174/19 175/175/19 176/176/19
f 176/176/19 175/175/19 177/177/19
f 178/178/46 179/179/46 180/180/44
f 180/180/44 179/179/46 181/181/42
f 182/182/47 183/183/48 184/184/49
f 184/184/49 183/183/48 185/185/33
f 186/186/41 187/187/41 163/163/41
f 163/163/41 187/187/41 165/165/41
f 188/188/50 189/189/51 190/190/52
f 190/190/52 189/189/51 191/191/53
f 192/192/19 193/193/19 171/171/19
f 171/171/19 193/193/19 173/173/19
f 174/174/19 194/194/19 175/175/19
f 175/175/19 194/194/19 195/195/19
f 196/196/46 197/197/51 198/198/46
f 198/198/46 197/197/51 199/199/50
f 182/182/47 200/200/54 183/183/48
f 183/183/48 200/200/54 201/201/33
f 202/202/55 203/203/55 204/204/56
f 204/204/56 203/203/55 205/205/56
f 206/206/57 207/207/57 208/208/58
f 208/208/58 207/207/57 209/209/58
f 210/210/19 211/211/19 212/212/19
f 212/212/19 211/211/19 213/213/19
f 214/214/57 215/215/57 216/216/59
f 216/216/59 215/215/57 217/217/59
f 218/218/55 219/219/55 220/220/60
f 220/220/60 219/219/55 221/221/60
f 222/222/19 223/223/19 224/224/19
f 224/224/19 223/223/19 225/225/19
f 226/226/33 227/227/33 228/228/33
f 228/228/33 227/227/33 229/229/33
f 230/230/61 231/231/62 167/167/43
f 167/167/43 231/231/62 169/169/45
f 232/232/19 233/233/19 234/234/19
f 234/234/19 233/233/19 235/235/19
f 236/236/19 237/237/19 175/175/19
f 175/175/19 237/237/19 177/177/19
f 238/238/63 239/239/62 240/240/63
f 240/240/63 239/239/62 241/241/61
f 242/242/64 243/243/65 244/244/66
f 244/244/66 243/243/65 245/245/41
f 246/246/33 228/228/33 247/247/33
f 247/247/33 228/228/33 229/229/33
f 248/248/67 249/249/68 250/250/69
f 250/250/69 249/249/68 251/251/70
f 252/252/19 234/234/19 253/253/19
f 253/253/19 234/234/19 235/235/19
f 236/236/19 175/175/19 254/254/19
f 254/254/19 175/175/19 195/195/19
f 255/255/63 256/256/63 257/257/69
f 257/257/69 256/256/63 258/258/67
f 242/242/64 244/244/66 259/259/71
f 259/259/71 244/244/66 260/260/41
f 202/202/55 261/261/60 203/203/55
f 203/203/55 261/261/60 262/262/60
f 206/206/57 263/263/59 207/207/57
f 207/207/57 263/263/59 264/264/59
f 210/210/19 265/265/19 211/211/19
f 211/211/19 265/265/19 266/266/19
f 214/214/57 267/267/58 215/215/57
f 215/215/57 267/267/58 268/268/58
f 218/218/55 269/269/56 219/219/55
f 219/219/55 269/269/56 270/270/56
f 271/271/19 272/272/19 224/224/19
f 224/224/19 272/272/19 222/222/19
