# ..:::Stalker models:::..
# WebSite: http://excalibur-craft.ru
mtllib skamya_01.mtl
o 0.018
v 1.355620 0.508291 0.178278
v -1.335110 0.508291 0.158274
v 1.351350 0.508291 0.097276
v -1.350340 0.508291 0.077287
v -1.354520 0.562284 0.158279
v -1.335110 0.508291 0.158274
v 1.350460 0.562284 0.178271
v 1.355620 0.508291 0.178278
v -1.350340 0.508291 0.077287
v -1.348590 0.562284 0.077273
v 1.351350 0.508291 0.097276
v 1.354100 0.562284 0.097277
v -1.354520 0.562284 0.158279
v 1.350460 0.562284 0.178271
v -1.348590 0.562284 0.077273
v 1.354100 0.562284 0.097277
v -1.386960 0.508291 0.287023
v -1.389270 0.508291 0.206036
v 1.309490 0.508291 0.287027
v 1.317000 0.508291 0.206026
v -1.387180 0.548787 0.287019
v -1.386960 0.508291 0.287023
v 1.307580 0.548787 0.287025
v 1.309490 0.508291 0.287027
v -1.389270 0.508291 0.206036
v -1.383170 0.548787 0.206030
v 1.317000 0.508291 0.206026
v 1.316640 0.548787 0.206026
v -1.387180 0.548787 0.287019
v 1.307580 0.548787 0.287025
v -1.383170 0.548787 0.206030
v 1.316640 0.548787 0.206026
v -1.293640 0.508291 -0.084473
v -1.297860 0.508291 -0.165472
v 1.345140 0.508291 -0.084471
v 1.354470 0.508291 -0.165468
v -1.293640 0.508291 -0.084473
v 1.345140 0.508291 -0.084471
v -1.290430 0.562284 -0.084476
v 1.352800 0.562284 -0.084483
v 1.354470 0.508291 -0.165468
v -1.297860 0.508291 -0.165472
v 1.348450 0.562284 -0.165479
v -1.293550 0.562284 -0.165462
v -1.293550 0.562284 -0.165462
v -1.290430 0.562284 -0.084476
v 1.348450 0.562284 -0.165479
v 1.352800 0.562284 -0.084483
v -1.344850 0.508291 0.030276
v -1.344680 0.508291 -0.050728
v 1.352660 0.508291 0.030277
v 1.358730 0.508291 -0.050715
v -1.348240 0.555532 0.030274
v -1.344850 0.508291 0.030276
v 1.354340 0.555532 0.030277
v 1.352660 0.508291 0.030277
v 1.358730 0.508291 -0.050715
v -1.344680 0.508291 -0.050728
v 1.352930 0.555532 -0.050715
v -1.344780 0.555532 -0.050715
v -1.348240 0.555532 0.030274
v 1.354340 0.555532 0.030277
v -1.344780 0.555532 -0.050715
v 1.352930 0.555532 -0.050715
v 1.350460 0.562284 0.178271
v 1.355620 0.508291 0.178278
v 1.354100 0.562284 0.097277
v 1.351350 0.508291 0.097276
v -1.348590 0.562284 0.077273
v -1.335110 0.508291 0.158274
v -1.354520 0.562284 0.158279
v 1.307580 0.548787 0.287025
v 1.309490 0.508291 0.287027
v 1.316640 0.548787 0.206026
v 1.317000 0.508291 0.206026
v -1.383170 0.548787 0.206030
v -1.386960 0.508291 0.287023
v -1.387180 0.548787 0.287019
v 1.348450 0.562284 -0.165479
v 1.352800 0.562284 -0.084483
v 1.354470 0.508291 -0.165468
v 1.345140 0.508291 -0.084471
v -1.290430 0.562284 -0.084476
v -1.297860 0.508291 -0.165472
v -1.293640 0.508291 -0.084473
v 1.354340 0.555532 0.030277
v 1.352660 0.508291 0.030277
v 1.352930 0.555532 -0.050715
v 1.358730 0.508291 -0.050715
v -1.344680 0.508291 -0.050728
v -1.344850 0.508291 0.030276
v -1.348240 0.555532 0.030274
v -1.346960 0.508291 -0.192977
v -1.349270 0.508291 -0.273964
v 1.349490 0.508291 -0.192973
v 1.357000 0.508291 -0.273974
v -1.347180 0.548787 -0.192981
v -1.346960 0.508291 -0.192977
v 1.347580 0.548787 -0.192975
v 1.349490 0.508291 -0.192973
v -1.349270 0.508291 -0.273964
v -1.343170 0.548787 -0.273970
v 1.357000 0.508291 -0.273974
v 1.356640 0.548787 -0.273974
v -1.347180 0.548787 -0.192981
v 1.347580 0.548787 -0.192975
v -1.343170 0.548787 -0.273970
v 1.356640 0.548787 -0.273974
v 1.347580 0.548787 -0.192975
v 1.349490 0.508291 -0.192973
v 1.356640 0.548787 -0.273974
v 1.357000 0.508291 -0.273974
v -1.347180 0.548787 -0.192981
v -1.349270 0.508291 -0.273964
v -1.346960 0.508291 -0.192977
v 1.020000 0.509460 -0.257120
v 0.960000 0.508291 -0.249585
v 0.960000 0.508291 0.287806
v 1.020000 0.508291 0.285532
v -1.000000 0.508291 -0.257540
v -1.060000 0.508291 -0.254472
v -1.000000 0.508291 0.284765
v -1.060000 0.508291 0.284765
v -1.389270 0.508291 0.206036
v -1.350340 0.508291 0.077287
v -1.344780 0.555532 -0.050715
v -1.293550 0.562284 -0.165462
v -1.343170 0.548787 -0.273970
vt 0.2330 0.0000
vt 0.2330 0.9929
vt 0.1748 0.0018
vt 0.1749 0.9987
vt 0.6214 1.0000
vt 0.5825 0.9928
vt 0.6214 0.0019
vt 0.5825 0.0000
vt 0.6214 0.0000
vt 0.6602 0.0006
vt 0.6214 0.9969
vt 0.6602 0.9979
vt 0.0583 0.0000
vt 0.0583 0.9981
vt 0.0000 0.0020
vt 0.0000 0.9992
vt 0.1166 0.0009
vt 0.1748 0.0000
vt 0.1165 0.9958
vt 0.1748 0.9986
vt 0.8641 0.0000
vt 0.8932 0.0001
vt 0.8641 0.9943
vt 0.8932 0.9950
vt 0.8641 0.9986
vt 0.8349 0.9963
vt 0.8641 0.0000
vt 0.8349 0.0001
vt 0.2913 0.9977
vt 0.2913 0.0033
vt 0.3495 0.9962
vt 0.3495 0.0000
vt 0.4660 0.0016
vt 0.5243 0.0000
vt 0.4660 0.9752
vt 0.5243 0.9787
vt 0.6990 0.9765
vt 0.6990 0.0028
vt 0.7379 0.9753
vt 0.7379 0.0000
vt 0.6990 0.0000
vt 0.6990 0.9787
vt 0.6602 0.0022
vt 0.6602 0.9771
vt 0.5825 0.9765
vt 0.5243 0.9753
vt 0.5825 0.0016
vt 0.5243 0.0000
vt 0.3495 0.0000
vt 0.4078 0.0001
vt 0.3495 0.9953
vt 0.4078 0.9976
vt 0.8058 0.9972
vt 0.7718 0.9959
vt 0.8058 0.0000
vt 0.7718 0.0006
vt 0.7718 0.0000
vt 0.7718 0.9975
vt 0.7379 0.0021
vt 0.7379 0.9975
vt 0.4078 0.9972
vt 0.4078 0.0000
vt 0.4660 0.9959
vt 0.4660 0.0005
vt 0.9612 0.4611
vt 0.9223 0.4610
vt 0.9612 0.4312
vt 0.9224 0.4312
vt 0.9612 0.4911
vt 0.9224 0.4611
vt 0.9611 0.4612
vt 0.9655 0.3411
vt 0.9946 0.3411
vt 0.9655 0.3711
vt 0.9946 0.3711
vt 0.9655 0.2813
vt 0.9946 0.3112
vt 0.9655 0.3112
vt 0.9223 0.4311
vt 0.9225 0.4013
vt 0.9612 0.4312
vt 0.9612 0.4012
vt 1.0000 0.4611
vt 0.9612 0.4910
vt 0.9612 0.4611
vt 0.9613 0.4012
vt 0.9953 0.4012
vt 0.9612 0.4310
vt 0.9953 0.4311
vt 0.9952 0.4312
vt 0.9952 0.4611
vt 0.9612 0.4611
vt 0.0583 0.0009
vt 0.1165 0.0000
vt 0.0583 0.9958
vt 0.1165 0.9986
vt 0.9223 0.9950
vt 0.8932 0.9949
vt 0.9223 0.0007
vt 0.8932 0.0000
vt 0.8349 0.9986
vt 0.8058 0.9963
vt 0.8349 0.0000
vt 0.8058 0.0001
vt 0.2330 0.9977
vt 0.2330 0.0033
vt 0.2913 0.9962
vt 0.2913 0.0000
vt 0.9655 0.3711
vt 0.9946 0.3712
vt 0.9655 0.4011
vt 0.9946 0.4012
vt 0.9655 0.3411
vt 0.9946 0.3112
vt 0.9946 0.3411
vt 0.9655 0.2011
vt 0.9223 0.1983
vt 0.9223 0.0000
vt 0.9655 0.0008
vt 0.9655 0.4012
vt 0.9223 0.4000
vt 0.9655 0.2011
vt 0.9223 0.2011
vt 0.9946 0.2813
vt 0.9223 0.4911
vt 0.9612 0.4312
vt 1.0000 0.4910
vt 0.9655 0.3112
vn 0.0000 -1.0000 0.0000
vn -0.0074 -0.0027 1.0000
vn -0.0074 -0.0019 1.0000
vn -0.0074 -0.0018 1.0000
vn -0.0074 -0.0006 1.0000
vn 0.0074 -0.0005 -1.0000
vn 0.0074 -0.0004 -1.0000
vn 0.0000 1.0000 0.0000
vn -0.0000 0.0001 1.0000
vn -0.0000 0.0000 1.0000
vn -0.0000 -0.0001 -1.0000
vn -0.0000 -0.0000 -1.0000
vn 0.0000 0.0002 1.0000
vn 0.0000 -0.0002 -1.0000
vn -0.0000 0.0002 -1.0000
vn 0.0000 0.0003 -1.0000
vn 0.9945 0.0950 0.0447
vn 0.9997 0.0222 -0.0039
vn 0.9973 -0.0508 -0.0526
vn -0.9858 -0.1568 0.0595
vn -0.9388 -0.3375 -0.0687
vn 0.9927 0.0468 0.1110
vn 0.9944 0.0279 0.1017
vn 0.9944 0.0278 0.1017
vn 0.9957 0.0089 0.0923
vn -0.9973 0.0720 -0.0107
vn -0.9988 -0.0054 -0.0495
vn 0.9924 0.1106 -0.0533
vn 0.9994 -0.0146 0.0303
vn 0.9994 -0.0146 0.0304
vn 0.9837 -0.1395 0.1133
vn -0.9966 0.0694 0.0451
vn -0.9969 0.0593 0.0519
vn 0.9992 -0.0355 -0.0174
vn 0.9987 0.0432 0.0285
vn 0.9898 0.1215 0.0742
vn -0.9991 -0.0368 -0.0224
vn -0.9974 -0.0716 -0.0021
vn -0.9991 -0.0369 -0.0224
vn -0.9974 0.0719 -0.0102
vn -0.9974 0.0720 -0.0102
vn -0.9996 -0.0054 0.0285
vn 0.0006 1.0000 0.0014
vn -0.0065 1.0000 0.0000
vn -0.0064 1.0000 0.0007
vn 0.0070 1.0000 0.0014
vn -0.9885 0.1489 0.0282
vn -0.9823 0.0319 0.1847
vn -0.9991 -0.0021 -0.0427
vn -0.9961 0.0795 0.0384
vn -0.9877 0.1488 -0.0489
usemtl wood_doski2.002
s 1
f 1/1/1 2/2/1 3/3/1
f 3/3/1 2/2/1 4/4/1
f 5/5/2 6/6/3 7/7/4
f 7/7/4 6/6/3 8/8/5
f 9/9/6 10/10/6 11/11/7
f 11/11/7 10/10/6 12/12/7
f 13/13/8 14/14/8 15/15/8
f 15/15/8 14/14/8 16/16/8
f 17/17/1 18/18/1 19/19/1
f 19/19/1 18/18/1 20/20/1
f 21/21/9 22/22/9 23/23/10
f 23/23/10 22/22/9 24/24/10
f 25/25/11 26/26/11 27/27/12
f 27/27/12 26/26/11 28/28/12
f 29/29/8 30/30/8 31/31/8
f 31/31/8 30/30/8 32/32/8
f 33/33/1 34/34/1 35/35/1
f 35/35/1 34/34/1 36/36/1
f 37/37/9 38/38/13 39/39/9
f 39/39/9 38/38/13 40/40/13
f 41/41/14 42/42/15 43/43/14
f 43/43/14 42/42/15 44/44/15
f 45/45/8 46/46/8 47/47/8
f 47/47/8 46/46/8 48/48/8
f 49/49/1 50/50/1 51/51/1
f 51/51/1 50/50/1 52/52/1
f 53/53/10 54/54/10 55/55/10
f 55/55/10 54/54/10 56/56/10
f 57/57/12 58/58/16 59/59/12
f 59/59/12 58/58/16 60/60/16
f 61/61/8 62/62/8 63/63/8
f 63/63/8 62/62/8 64/64/8
f 65/65/17 66/66/18 67/67/18
f 67/67/18 66/66/18 68/68/19
f 69/69/20 70/70/20 71/71/21
f 72/72/22 73/73/23 74/74/24
f 74/74/24 73/73/23 75/75/25
f 76/76/26 77/77/26 78/78/27
f 79/79/28 80/80/29 81/81/30
f 81/81/30 80/80/29 82/82/31
f 83/83/32 84/84/32 85/85/33
f 86/86/34 87/87/35 88/88/35
f 88/88/35 87/87/35 89/89/36
f 90/90/37 91/91/38 92/92/39
f 93/93/1 94/94/1 95/95/1
f 95/95/1 94/94/1 96/96/1
f 97/97/9 98/98/9 99/99/10
f 99/99/10 98/98/9 100/100/10
f 101/101/11 102/102/11 103/103/12
f 103/103/12 102/102/11 104/104/12
f 105/105/8 106/106/8 107/107/8
f 107/107/8 106/106/8 108/108/8
f 109/109/22 110/110/23 111/111/24
f 111/111/24 110/110/23 112/112/25
f 113/113/40 114/114/41 115/115/42
f 116/116/43 117/117/44 118/118/45
f 116/116/43 118/118/45 119/119/46
f 120/120/8 121/121/8 122/122/8
f 121/121/8 123/123/8 122/122/8
f 76/76/26 124/124/47 77/77/26
f 125/125/48 70/70/20 69/69/20
f 90/90/37 92/92/39 126/126/49
f 127/127/50 84/84/32 83/83/32
f 128/128/51 114/114/41 113/113/40
o 1.015
v 1.075170 0.508291 0.285534
v 1.075170 -0.000000 0.285534
v 1.075180 0.508291 -0.254471
v 1.075180 0.000000 -0.254471
v 1.075180 0.508291 -0.254471
v 1.075180 0.000000 -0.254471
v 1.020000 0.509460 -0.257120
v 0.872693 0.000000 -0.254479
v 0.872673 -0.000000 0.285529
v 0.872693 0.508291 -0.254479
v 0.872673 0.508291 0.285529
v -0.949827 0.508291 0.284765
v -1.152310 -0.000000 0.285531
v -0.949827 -0.000000 0.285531
v -0.949827 -0.000000 0.285531
v -0.949823 0.000000 -0.254474
v -0.949827 0.508291 0.284765
v -0.949823 0.508291 -0.254474
v -1.000000 0.508291 -0.257540
v -0.949823 0.000000 -0.254474
v -1.152320 0.000000 -0.254471
v -1.152310 -0.000000 0.285531
v -1.152310 0.508291 0.284765
v -1.152320 0.000000 -0.254471
v -1.151683 0.508291 -0.254471
v 0.872693 0.508291 -0.254479
v 0.872673 0.508291 0.285529
v 0.960000 0.508291 -0.249585
v 0.960000 0.508291 0.287806
v 1.020000 0.509460 -0.257120
v 1.020000 0.508291 0.285532
v 1.075180 0.508291 -0.254471
v 1.075170 0.508291 0.285534
v 1.020000 0.508291 0.285532
v 1.075170 -0.000000 0.285534
v 1.075170 0.508291 0.285534
v 0.872693 0.000000 -0.254479
v 0.872693 0.508291 -0.254479
v 0.960000 0.508291 -0.249585
v -1.151683 0.508291 -0.254471
v -1.152310 0.508291 0.284765
v -1.060000 0.508291 -0.254472
v -1.060000 0.508291 0.284765
v -0.949827 0.508291 0.284765
v -0.949823 0.508291 -0.254474
v -1.000000 0.508291 0.284765
v -1.000000 0.508291 -0.257540
v -1.060000 0.508291 0.284765
v -1.152310 0.508291 0.284765
v -1.000000 0.508291 0.284765
v -1.151683 0.508291 -0.254471
v -1.060000 0.508291 -0.254472
v 0.960000 0.508291 0.287806
v 0.872673 0.508291 0.285529
v 0.872673 -0.000000 0.285529
v -0.949823 0.508291 -0.254474
vt 0.5430 0.5195
vt 0.5431 0.3315
vt 0.3571 0.5212
vt 0.3572 0.3332
vt 0.3571 0.5212
vt 0.3572 0.3332
vt 0.3381 0.5214
vt 0.2875 0.3339
vt 0.1016 0.3356
vt 0.2874 0.5218
vt 0.1015 0.5236
vt 0.6133 0.5185
vt 0.5436 0.3312
vt 0.6134 0.3305
vt 0.1022 0.3363
vt 0.2880 0.3341
vt 0.1029 0.5243
vt 0.2885 0.5220
vt 0.3058 0.5218
vt 0.2880 0.3341
vt 0.3578 0.3332
vt 0.5436 0.3312
vt 0.5436 0.5191
vt 0.3578 0.3332
vt 0.3580 0.5212
vt 0.2874 0.5218
vt 0.1015 0.5236
vt 0.2873 0.4930
vt 0.1014 0.4945
vt 0.3577 0.5043
vt 0.5436 0.5027
vt 0.3571 0.5212
vt 0.5430 0.5195
vt 0.5620 0.5193
vt 0.5431 0.3315
vt 0.5430 0.5195
vt 0.2875 0.3339
vt 0.2874 0.5218
vt 0.3175 0.5216
vt 0.3580 0.5212
vt 0.5436 0.5191
vt 0.3577 0.4908
vt 0.5434 0.4893
vt 0.1029 0.5243
vt 0.2885 0.5220
vt 0.1036 0.5075
vt 0.2892 0.5065
vt 0.5754 0.5188
vt 0.5436 0.5191
vt 0.5960 0.5186
vt 0.3580 0.5212
vt 0.3264 0.5215
vt 0.5827 0.5191
vt 0.6128 0.5188
vt 0.6128 0.3308
vt 0.2885 0.5220
vn 1.0000 0.0000 0.0000
vn 0.0480 0.0000 -0.9988
vn 0.0240 -0.0026 -0.9997
vn -0.0258 0.0086 -0.9996
vn -1.0000 0.0000 -0.0000
vn 0.0000 0.0015 1.0000
vn 0.0033 0.0011 -1.0000
vn 0.0305 -0.0030 -0.9995
vn -0.0170 0.0011 -0.9999
vn -1.0000 0.0006 -0.0005
vn -1.0000 0.0007 -0.0006
vn -1.0000 0.0013 -0.0012
vn -0.0000 1.0000 0.0000
vn -0.0065 1.0000 0.0000
vn -0.0065 1.0000 0.0007
vn 0.0006 1.0000 0.0014
vn 0.0071 1.0000 0.0014
vn 0.0105 0.9999 0.0011
vn 0.0189 0.0021 0.9998
vn 0.0126 -0.0001 0.9999
vn -0.0000 -0.0000 1.0000
vn -0.0231 0.0086 -0.9997
vn 0.0560 0.0000 -0.9984
vn -0.0347 0.0156 -0.9993
vn -0.0000 0.0000 -1.0000
vn -0.0254 0.0046 -0.9997
vn 0.0040 0.0001 1.0000
vn -0.0261 -0.0000 0.9997
vn -0.0130 -0.0022 0.9999
vn 0.0610 0.0000 -0.9981
usemtl crete_walls_02.007
s 1
f 129/129/52 130/130/52 131/131/52
f 131/131/52 130/130/52 132/132/52
f 133/133/53 134/134/54 135/135/55
f 136/136/56 137/137/56 138/138/56
f 138/138/56 137/137/56 139/139/56
f 140/140/57 141/141/57 142/142/57
f 143/143/52 144/144/52 145/145/52
f 145/145/52 144/144/52 146/146/52
f 147/147/58 148/148/59 149/149/60
f 150/150/56 151/151/61 152/152/62
f 152/152/62 151/151/61 153/153/63
f 154/154/64 155/155/64 156/156/65
f 156/156/65 155/155/64 157/157/66
f 158/158/67 159/159/68 160/160/69
f 160/160/69 159/159/68 161/161/64
f 162/162/70 163/163/71 164/164/72
f 165/165/73 166/166/74 167/167/75
f 168/168/64 169/169/64 170/170/64
f 170/170/64 169/169/64 171/171/64
f 172/172/64 173/173/64 174/174/64
f 174/174/64 173/173/64 175/175/64
f 176/176/57 177/177/57 141/141/57
f 178/178/57 141/141/57 140/140/57
f 149/149/60 179/179/76 180/180/77
f 181/181/78 182/182/79 183/183/80
f 163/163/71 181/181/78 183/183/80
f 162/162/70 181/181/78 163/163/71
f 165/165/73 167/167/75 135/135/55
f 135/135/55 134/134/54 165/165/73
f 178/178/57 176/176/57 141/141/57
f 149/149/60 180/180/77 147/147/58
f 184/184/81 148/148/59 147/147/58
