# ..:::Stalker models:::..
# WebSite: http://excalibur-craft.ru
mtllib tv_antena_3.mtl
o 0.025
v -0.156696 3.630206 0.078346
v -0.156651 3.643094 0.086403
v -0.157726 3.644362 0.072911
v -0.157726 3.644362 0.072911
v -0.156651 3.643094 0.086403
v 0.163962 3.658446 0.048605
v 0.165037 3.657178 0.062097
v 0.163962 3.658446 0.048605
v 0.165037 3.657178 0.062097
v 0.164993 3.644290 0.054040
v -0.156696 3.630206 0.078346
v 0.164993 3.644290 0.054040
v -0.156651 3.643094 0.086403
v 0.165037 3.657178 0.062097
v 0.164993 3.644290 0.054040
v -0.156696 3.630206 0.078346
v 0.163962 3.658446 0.048605
v -0.157726 3.644362 0.072911
v -0.157901 3.705932 0.106275
v -0.157857 3.718820 0.114332
v -0.158932 3.720089 0.100839
v -0.158932 3.720089 0.100839
v -0.157857 3.718820 0.114332
v 0.162757 3.734173 0.076533
v 0.163832 3.732904 0.090025
v 0.162757 3.734173 0.076533
v 0.163832 3.732904 0.090025
v 0.163787 3.720017 0.081969
v -0.157901 3.705932 0.106275
v 0.163787 3.720017 0.081969
v -0.157857 3.718820 0.114332
v 0.163832 3.732904 0.090025
v 0.163787 3.720017 0.081969
v -0.157901 3.705932 0.106275
v 0.162757 3.734173 0.076533
v -0.158932 3.720089 0.100839
v -0.158293 3.774666 0.140917
v -0.158248 3.787553 0.148974
v -0.159324 3.788822 0.135481
v -0.159324 3.788822 0.135481
v -0.158248 3.787553 0.148974
v 0.162365 3.802906 0.111175
v 0.163440 3.801638 0.124667
v 0.162365 3.802906 0.111175
v 0.163440 3.801638 0.124667
v 0.163396 3.788750 0.116610
v -0.158293 3.774666 0.140917
v 0.163396 3.788750 0.116610
v -0.158248 3.787553 0.148974
v 0.163440 3.801638 0.124667
v 0.163396 3.788750 0.116610
v -0.158293 3.774666 0.140917
v 0.162365 3.802906 0.111175
v -0.159324 3.788822 0.135481
v -0.147085 3.467238 0.111117
v -0.147040 3.480126 0.119174
v -0.148115 3.481395 0.105682
v -0.148115 3.481395 0.105682
v -0.147040 3.480126 0.119174
v 0.173574 3.495479 0.081376
v 0.174649 3.494210 0.094868
v 0.173574 3.495479 0.081376
v 0.174649 3.494210 0.094868
v 0.174604 3.481322 0.086811
v -0.147085 3.467238 0.111117
v 0.174604 3.481322 0.086811
v -0.147040 3.480126 0.119174
v 0.174649 3.494210 0.094868
v 0.174604 3.481322 0.086811
v -0.147085 3.467238 0.111117
v 0.173574 3.495479 0.081376
v -0.148115 3.481395 0.105682
v -0.153521 3.553607 0.075973
v -0.153477 3.566495 0.084030
v -0.154552 3.567763 0.070537
v -0.154552 3.567763 0.070537
v -0.153477 3.566495 0.084030
v 0.167137 3.581848 0.046231
v 0.168212 3.580579 0.059723
v 0.167137 3.581848 0.046231
v 0.168212 3.580579 0.059723
v 0.168167 3.567691 0.051666
v -0.153521 3.553607 0.075973
v 0.168167 3.567691 0.051666
v -0.153477 3.566495 0.084030
v 0.168212 3.580579 0.059723
v 0.168167 3.567691 0.051666
v -0.153521 3.553607 0.075973
v 0.167137 3.581848 0.046231
v -0.154552 3.567763 0.070537
v -0.004062 3.795972 0.127701
v 0.005283 3.795153 0.139659
v 0.011124 3.796548 0.127463
v 0.005283 3.795153 0.139659
v 0.005086 3.641468 0.047988
v 0.011124 3.796548 0.127463
v 0.010926 3.642863 0.035792
v 0.022834 3.475353 0.096329
v 0.016994 3.473958 0.108525
v 0.007648 3.474776 0.096567
v -0.004260 3.642286 0.036030
v 0.005086 3.641468 0.047988
v -0.004062 3.795972 0.127701
v 0.005283 3.795153 0.139659
v -0.004260 3.642286 0.036030
v -0.004062 3.795972 0.127701
v 0.010926 3.642863 0.035792
v 0.011124 3.796548 0.127463
v 0.022834 3.475353 0.096329
v 0.016994 3.473958 0.108525
v 0.007648 3.474776 0.096567
v 0.022834 3.475353 0.096329
v 0.007648 3.474776 0.096567
v 0.016994 3.473958 0.108525
v -0.070293 3.547416 0.964961
v -0.070248 3.560303 0.973018
v -0.071323 3.561572 0.959526
v -0.071323 3.561572 0.959526
v -0.070248 3.560303 0.973018
v 0.219030 3.574284 0.937587
v 0.220105 3.573016 0.951080
v 0.219030 3.574284 0.937587
v 0.220105 3.573016 0.951080
v 0.220061 3.560128 0.943023
v -0.070293 3.547416 0.964961
v 0.220061 3.560128 0.943023
v -0.070248 3.560303 0.973018
v 0.220105 3.573016 0.951080
v 0.220061 3.560128 0.943023
v -0.070293 3.547416 0.964961
v 0.219030 3.574284 0.937587
v -0.071323 3.561572 0.959526
v 0.090227 3.523894 1.139738
v 0.104082 3.554389 1.141501
v 0.074196 3.553080 1.143759
v 0.074196 3.553080 1.143759
v 0.104082 3.554389 1.141501
v -0.015994 3.659515 0.011793
v 0.013893 3.660823 0.009534
v 0.090227 3.523894 1.139738
v 0.000037 3.630329 0.007771
v 0.104082 3.554389 1.141501
v 0.013893 3.660823 0.009534
v 0.000037 3.630329 0.007771
v 0.090227 3.523894 1.139738
v -0.015994 3.659515 0.011793
v 0.074196 3.553080 1.143759
v -0.125454 3.593337 0.470458
v -0.125410 3.606225 0.478515
v -0.126485 3.607494 0.465022
v -0.126485 3.607494 0.465022
v -0.125410 3.606225 0.478515
v 0.195204 3.621578 0.440716
v 0.196279 3.620309 0.454208
v 0.195204 3.621578 0.440716
v 0.196279 3.620309 0.454208
v 0.196234 3.607422 0.446151
v -0.125454 3.593337 0.470458
v 0.196234 3.607422 0.446151
v -0.125410 3.606225 0.478515
v 0.196279 3.620309 0.454208
v 0.196234 3.607422 0.446151
v -0.125454 3.593337 0.470458
v 0.195204 3.621578 0.440716
v -0.126485 3.607494 0.465022
v -0.112380 3.577908 0.634553
v -0.112336 3.590796 0.642610
v -0.113411 3.592064 0.629118
v -0.113411 3.592064 0.629118
v -0.112336 3.590796 0.642610
v 0.208278 3.606149 0.604811
v 0.209353 3.604880 0.618303
v 0.208278 3.606149 0.604811
v 0.209353 3.604880 0.618303
v 0.209309 3.591992 0.610247
v -0.112380 3.577908 0.634553
v 0.209309 3.591992 0.610247
v -0.112336 3.590796 0.642610
v 0.209353 3.604880 0.618303
v 0.209309 3.591992 0.610247
v -0.112380 3.577908 0.634553
v 0.208278 3.606149 0.604811
v -0.113411 3.592064 0.629118
v -0.089632 3.562902 0.797917
v -0.089588 3.575790 0.805974
v -0.090662 3.577058 0.792482
v -0.090662 3.577058 0.792482
v -0.089588 3.575790 0.805974
v 0.211679 3.590296 0.769637
v 0.212754 3.589027 0.783130
v 0.211679 3.590296 0.769637
v 0.212754 3.589027 0.783130
v 0.212710 3.576140 0.775073
v -0.089632 3.562902 0.797917
v 0.212710 3.576140 0.775073
v -0.089588 3.575790 0.805974
v 0.212754 3.589027 0.783130
v 0.212710 3.576140 0.775073
v -0.089632 3.562902 0.797917
v 0.211679 3.590296 0.769637
v -0.090662 3.577058 0.792482
v -0.029016 3.531795 1.141632
v -0.028972 3.544683 1.149689
v -0.030047 3.545952 1.136197
v -0.030047 3.545952 1.136197
v -0.028972 3.544683 1.149689
v 0.206232 3.556296 1.118344
v 0.207307 3.555028 1.131836
v 0.206232 3.556296 1.118344
v 0.207307 3.555028 1.131836
v 0.207263 3.542140 1.123780
v -0.029016 3.531795 1.141632
v 0.207263 3.542140 1.123780
v -0.028972 3.544683 1.149689
v 0.207307 3.555028 1.131836
v 0.207263 3.542140 1.123780
v -0.029016 3.531795 1.141632
v 0.206232 3.556296 1.118344
v -0.030047 3.545952 1.136197
v -0.136771 3.606692 0.328422
v -0.136727 3.619580 0.336479
v -0.137802 3.620849 0.322987
v -0.137802 3.620849 0.322987
v -0.136727 3.619580 0.336479
v 0.183887 3.634933 0.298681
v 0.184962 3.633664 0.312173
v 0.183887 3.634933 0.298681
v 0.184962 3.633664 0.312173
v 0.184918 3.620777 0.304116
v -0.136771 3.606692 0.328422
v 0.184918 3.620777 0.304116
v -0.136727 3.619580 0.336479
v 0.184962 3.633664 0.312173
v 0.184918 3.620777 0.304116
v -0.136771 3.606692 0.328422
v 0.183887 3.634933 0.298681
v -0.137802 3.620849 0.322987
v -0.148928 3.621039 0.175840
v -0.148884 3.633927 0.183896
v -0.149959 3.635195 0.170404
v -0.149959 3.635195 0.170404
v -0.148884 3.633927 0.183896
v 0.171730 3.649280 0.146098
v 0.172805 3.648011 0.159590
v 0.171730 3.649280 0.146098
v 0.172805 3.648011 0.159590
v 0.172761 3.635123 0.151533
v -0.148928 3.621039 0.175840
v 0.172761 3.635123 0.151533
v -0.148884 3.633927 0.183896
v 0.172805 3.648011 0.159590
v 0.172761 3.635123 0.151533
v -0.148928 3.621039 0.175840
v 0.171730 3.649280 0.146098
v -0.149959 3.635195 0.170404
v 0.009271 0.000000 -0.028532
v -0.024271 0.000000 -0.017634
v 0.009271 3.701695 -0.028531
v -0.024271 3.701695 -0.017633
v -0.024271 -0.000000 0.017634
v -0.024271 3.701695 0.017635
v 0.009271 -0.000000 0.028532
v 0.009271 3.701695 0.028533
v 0.009271 -0.000000 0.028532
v 0.030000 0.000000 0.000000
v 0.009271 3.701695 0.028533
v 0.030000 3.701695 0.000001
v -0.024271 0.000000 -0.017634
v 0.009271 0.000000 -0.028532
v 0.000000 0.000000 0.000000
v -0.024271 -0.000000 0.017634
v -0.024271 0.000000 -0.017634
v 0.009271 -0.000000 0.028532
v -0.024271 -0.000000 0.017634
v 0.030000 0.000000 0.000000
v 0.009271 -0.000000 0.028532
v 0.009271 0.000000 -0.028532
v 0.030000 0.000000 0.000000
v -0.024271 3.701695 0.017635
v 0.009271 3.701695 0.028533
v -0.024271 3.701695 -0.017633
v 0.030000 3.701695 0.000001
v 0.009271 3.701695 -0.028531
vt 0.4180 4.4170
vt 0.4314 4.4271
vt 0.4180 4.4338
vt 0.4164 3.9998
vt 0.4314 3.9998
vt 0.4164 4.4338
vt 0.4314 4.4338
vt 0.4180 4.4170
vt 0.4314 4.4237
vt 0.4180 4.4338
vt 0.4482 3.9998
vt 0.4482 4.4338
vt 0.4314 3.9998
vt 0.4314 4.4338
vt 0.3997 4.4338
vt 0.3997 3.9998
vt 0.4164 4.4338
vt 0.4164 3.9998
vt 0.4180 4.4170
vt 0.4314 4.4271
vt 0.4180 4.4338
vt 0.4164 3.9998
vt 0.4314 3.9998
vt 0.4164 4.4338
vt 0.4314 4.4338
vt 0.4180 4.4170
vt 0.4314 4.4237
vt 0.4180 4.4338
vt 0.4482 3.9998
vt 0.4482 4.4338
vt 0.4314 3.9998
vt 0.4314 4.4338
vt 0.3997 4.4338
vt 0.3997 3.9998
vt 0.4164 4.4338
vt 0.4164 3.9998
vt 0.4180 4.4170
vt 0.4314 4.4271
vt 0.4180 4.4338
vt 0.4164 3.9998
vt 0.4314 3.9998
vt 0.4164 4.4338
vt 0.4314 4.4338
vt 0.4180 4.4170
vt 0.4314 4.4237
vt 0.4180 4.4338
vt 0.4482 3.9998
vt 0.4482 4.4338
vt 0.4314 3.9998
vt 0.4314 4.4338
vt 0.3997 4.4338
vt 0.3997 3.9998
vt 0.4164 4.4338
vt 0.4164 3.9998
vt 0.4180 4.4170
vt 0.4314 4.4271
vt 0.4180 4.4338
vt 0.4164 3.9998
vt 0.4314 3.9998
vt 0.4164 4.4338
vt 0.4314 4.4338
vt 0.4180 4.4170
vt 0.4314 4.4237
vt 0.4180 4.4338
vt 0.4482 3.9998
vt 0.4482 4.4338
vt 0.4314 3.9998
vt 0.4314 4.4338
vt 0.3997 4.4338
vt 0.3997 3.9998
vt 0.4164 4.4338
vt 0.4164 3.9998
vt 0.4180 4.4170
vt 0.4314 4.4271
vt 0.4180 4.4338
vt 0.4164 3.9998
vt 0.4314 3.9998
vt 0.4164 4.4338
vt 0.4314 4.4338
vt 0.4180 4.4170
vt 0.4314 4.4237
vt 0.4180 4.4338
vt 0.4482 3.9998
vt 0.4482 4.4338
vt 0.4314 3.9998
vt 0.4314 4.4338
vt 0.3997 4.4338
vt 0.3997 3.9998
vt 0.4164 4.4338
vt 0.4164 3.9998
vt 0.4180 4.4170
vt 0.4314 4.4271
vt 0.4180 4.4338
vt 0.4314 3.9998
vt 0.4314 4.2171
vt 0.4164 3.9998
vt 0.4164 4.2171
vt 0.4180 4.4170
vt 0.4314 4.4237
vt 0.4180 4.4338
vt 0.4482 4.2171
vt 0.4314 4.2171
vt 0.4482 3.9998
vt 0.4314 3.9998
vt 0.3997 4.2171
vt 0.3997 3.9998
vt 0.4164 4.2171
vt 0.4164 3.9998
vt 0.4164 4.4338
vt 0.4314 4.4338
vt 0.3997 4.4338
vt 0.4164 4.4338
vt 0.4482 4.4338
vt 0.4314 4.4338
vt 0.4180 4.4170
vt 0.4314 4.4271
vt 0.4180 4.4338
vt 0.4164 3.9998
vt 0.4314 3.9998
vt 0.4164 4.4338
vt 0.4314 4.4338
vt 0.4180 4.4170
vt 0.4314 4.4237
vt 0.4180 4.4338
vt 0.4482 3.9998
vt 0.4482 4.4338
vt 0.4314 3.9998
vt 0.4314 4.4338
vt 0.3997 4.4338
vt 0.3997 3.9998
vt 0.4164 4.4338
vt 0.4164 3.9998
vt 0.4018 4.3968
vt 0.4314 4.4190
vt 0.4018 4.4338
vt 0.3984 3.1101
vt 0.4314 3.1101
vt 0.3984 4.4338
vt 0.4314 4.4338
vt 0.4684 3.1101
vt 0.4684 4.4338
vt 0.4314 3.1101
vt 0.4314 4.4338
vt 0.3614 4.4338
vt 0.3614 3.1101
vt 0.3984 4.4338
vt 0.3984 3.1101
vt 0.4180 4.4170
vt 0.4314 4.4271
vt 0.4180 4.4338
vt 0.4164 3.9998
vt 0.4314 3.9998
vt 0.4164 4.4338
vt 0.4314 4.4338
vt 0.4180 4.4170
vt 0.4314 4.4237
vt 0.4180 4.4338
vt 0.4482 3.9998
vt 0.4482 4.4338
vt 0.4314 3.9998
vt 0.4314 4.4338
vt 0.3997 4.4338
vt 0.3997 3.9998
vt 0.4164 4.4338
vt 0.4164 3.9998
vt 0.4180 4.4170
vt 0.4314 4.4271
vt 0.4180 4.4338
vt 0.4164 3.9998
vt 0.4314 3.9998
vt 0.4164 4.4338
vt 0.4314 4.4338
vt 0.4180 4.4170
vt 0.4314 4.4237
vt 0.4180 4.4338
vt 0.4482 3.9998
vt 0.4482 4.4338
vt 0.4314 3.9998
vt 0.4314 4.4338
vt 0.3997 4.4338
vt 0.3997 3.9998
vt 0.4164 4.4338
vt 0.4164 3.9998
vt 0.4180 4.4170
vt 0.4314 4.4271
vt 0.4180 4.4338
vt 0.4164 3.9998
vt 0.4314 3.9998
vt 0.4164 4.4338
vt 0.4314 4.4338
vt 0.4180 4.4170
vt 0.4314 4.4237
vt 0.4180 4.4338
vt 0.4482 3.9998
vt 0.4482 4.4338
vt 0.4314 3.9998
vt 0.4314 4.4338
vt 0.3997 4.4338
vt 0.3997 3.9998
vt 0.4164 4.4338
vt 0.4164 3.9998
vt 0.4180 4.4170
vt 0.4314 4.4271
vt 0.4180 4.4338
vt 0.4164 3.9998
vt 0.4314 3.9998
vt 0.4164 4.4338
vt 0.4314 4.4338
vt 0.4180 4.4170
vt 0.4314 4.4237
vt 0.4180 4.4338
vt 0.4482 3.9998
vt 0.4482 4.4338
vt 0.4314 3.9998
vt 0.4314 4.4338
vt 0.3997 4.4338
vt 0.3997 3.9998
vt 0.4164 4.4338
vt 0.4164 3.9998
vt 0.4180 4.4170
vt 0.4314 4.4271
vt 0.4180 4.4338
vt 0.4164 3.9998
vt 0.4314 3.9998
vt 0.4164 4.4338
vt 0.4314 4.4338
vt 0.4180 4.4170
vt 0.4314 4.4237
vt 0.4180 4.4338
vt 0.4482 3.9998
vt 0.4482 4.4338
vt 0.4314 3.9998
vt 0.4314 4.4338
vt 0.3997 4.4338
vt 0.3997 3.9998
vt 0.4164 4.4338
vt 0.4164 3.9998
vt 0.4180 4.4170
vt 0.4314 4.4271
vt 0.4180 4.4338
vt 0.4164 3.9998
vt 0.4314 3.9998
vt 0.4164 4.4338
vt 0.4314 4.4338
vt 0.4180 4.4170
vt 0.4314 4.4237
vt 0.4180 4.4338
vt 0.4482 3.9998
vt 0.4482 4.4338
vt 0.4314 3.9998
vt 0.4314 4.4338
vt 0.3997 4.4338
vt 0.3997 3.9998
vt 0.4164 4.4338
vt 0.4164 3.9998
vt 0.3147 1.1246
vt 0.3536 1.1246
vt 0.3147 4.4338
vt 0.3536 4.4338
vt 0.3925 1.1246
vt 0.3925 4.4338
vt 0.4314 1.1246
vt 0.4314 4.4338
vt 0.2369 1.1246
vt 0.2758 1.1246
vt 0.2369 4.4338
vt 0.2758 4.4338
vt 0.4047 4.4338
vt 0.4047 4.3949
vt 0.4314 4.4143
vt 0.4047 4.4338
vt 0.4047 4.3949
vt 0.4047 4.4338
vt 0.4047 4.3949
vt 0.4047 4.4338
vt 0.4047 4.3949
vt 0.4047 4.4338
vt 0.4047 4.3949
vt 0.4934 0.5294
vt 0.4720 0.5000
vt 0.5280 0.5182
vt 0.4934 0.4706
vt 0.5280 0.4818
vn -0.9962 -0.0436 0.0753
vn -0.0363 0.9947 0.0963
vn -0.0363 0.9947 0.0964
vn 0.9962 0.0437 -0.0753
vn 0.0869 -0.5283 0.8446
vn -0.0545 -0.3613 -0.9308
vn -0.0545 -0.3614 -0.9308
vn -0.0363 0.9947 0.0965
vn 0.9962 0.0436 -0.0753
vn 0.0870 -0.5283 0.8446
vn -0.0545 -0.3613 -0.9309
vn -0.9962 -0.0437 0.0753
vn -0.0395 0.7793 -0.6255
vn -0.0362 0.9947 0.0964
vn -0.0409 0.8916 -0.4509
vn 0.8863 -0.2381 0.3972
vn 0.9023 -0.0085 0.4311
vn 0.9023 -0.0086 0.4311
vn 0.0204 -0.7895 -0.6134
vn 0.0363 -0.9947 -0.0964
vn 0.0126 -0.6462 -0.7630
vn -0.7878 -0.0876 0.6097
vn -0.7878 -0.0874 0.6097
vn -0.7531 -0.3363 0.5655
vn -0.0192 0.0952 -0.9953
vn -0.0394 0.7793 -0.6254
vn -0.0410 0.8916 -0.4509
vn 0.8694 0.2214 0.4417
vn 0.0204 -0.7896 -0.6133
vn -0.7712 0.1671 0.6142
vn 0.0791 -0.0933 0.9925
vn 0.9073 -0.4058 -0.1104
vn 0.9072 -0.4058 -0.1104
vn -0.8748 -0.4838 0.0242
vn -0.9962 -0.0436 0.0752
vn 0.5242 0.0000 -0.8516
vn -0.6479 0.0000 -0.7617
vn 0.0765 0.0000 -0.9971
vn -0.9246 0.0000 -0.3809
vn -0.9246 -0.0000 0.3809
vn -0.6479 -0.0000 0.7617
vn 0.0765 0.0000 0.9971
vn 0.5242 -0.0000 0.8516
vn 0.9719 0.0001 0.2354
vn 0.9719 0.0000 -0.2354
vn 0.0000 -1.0000 -0.0000
vn 0.0000 1.0000 0.0000
usemtl mtl_rja_01.008
s 1
f 1/1/1 2/2/1 3/3/1
f 4/4/2 5/5/2 6/6/3
f 6/6/3 5/5/2 7/7/3
f 8/8/4 9/9/4 10/10/4
f 11/11/5 12/12/5 13/13/5
f 13/13/5 12/12/5 14/14/5
f 15/15/6 16/16/7 17/17/6
f 17/17/6 16/16/7 18/18/7
f 19/19/1 20/20/1 21/21/1
f 22/22/8 23/23/8 24/24/3
f 24/24/3 23/23/8 25/25/3
f 26/26/9 27/27/9 28/28/9
f 29/29/10 30/30/5 31/31/10
f 31/31/10 30/30/5 32/32/5
f 33/33/7 34/34/7 35/35/7
f 35/35/7 34/34/7 36/36/7
f 37/37/1 38/38/1 39/39/1
f 40/40/8 41/41/8 42/42/3
f 42/42/3 41/41/8 43/43/3
f 44/44/4 45/45/4 46/46/4
f 47/47/5 48/48/10 49/49/5
f 49/49/5 48/48/10 50/50/10
f 51/51/7 52/52/7 53/53/7
f 53/53/7 52/52/7 54/54/7
f 55/55/1 56/56/1 57/57/1
f 58/58/8 59/59/8 60/60/3
f 60/60/3 59/59/8 61/61/3
f 62/62/9 63/63/9 64/64/9
f 65/65/5 66/66/5 67/67/5
f 67/67/5 66/66/5 68/68/5
f 69/69/6 70/70/11 71/71/6
f 71/71/6 70/70/11 72/72/11
f 73/73/12 74/74/12 75/75/12
f 76/76/8 77/77/8 78/78/3
f 78/78/3 77/77/8 79/79/3
f 80/80/9 81/81/9 82/82/9
f 83/83/5 84/84/10 85/85/5
f 85/85/5 84/84/10 86/86/10
f 87/87/6 88/88/7 89/89/6
f 89/89/6 88/88/7 90/90/7
f 91/91/13 92/92/14 93/93/15
f 94/94/16 95/95/17 96/96/16
f 96/96/16 95/95/17 97/97/18
f 98/98/19 99/99/20 100/100/21
f 101/101/22 102/102/23 103/103/24
f 103/103/24 102/102/23 104/104/24
f 105/105/25 106/106/26 107/107/25
f 107/107/25 106/106/26 108/108/27
f 97/97/18 95/95/17 109/109/28
f 109/109/28 95/95/17 110/110/28
f 105/105/25 107/107/25 111/111/21
f 111/111/21 107/107/25 112/112/29
f 101/101/22 113/113/30 102/102/23
f 102/102/23 113/113/30 114/114/30
f 115/115/1 116/116/1 117/117/1
f 118/118/8 119/119/8 120/120/3
f 120/120/3 119/119/8 121/121/3
f 122/122/4 123/123/4 124/124/4
f 125/125/5 126/126/5 127/127/5
f 127/127/5 126/126/5 128/128/5
f 129/129/7 130/130/7 131/131/7
f 131/131/7 130/130/7 132/132/7
f 133/133/31 134/134/31 135/135/31
f 136/136/3 137/137/3 138/138/3
f 138/138/3 137/137/3 139/139/3
f 140/140/32 141/141/33 142/142/32
f 142/142/32 141/141/33 143/143/33
f 144/144/34 145/145/34 146/146/34
f 146/146/34 145/145/34 147/147/34
f 148/148/12 149/149/12 150/150/12
f 151/151/8 152/152/8 153/153/8
f 153/153/8 152/152/8 154/154/8
f 155/155/9 156/156/9 157/157/9
f 158/158/10 159/159/5 160/160/10
f 160/160/10 159/159/5 161/161/5
f 162/162/6 163/163/7 164/164/6
f 164/164/6 163/163/7 165/165/7
f 166/166/12 167/167/12 168/168/12
f 169/169/2 170/170/2 171/171/8
f 171/171/8 170/170/2 172/172/8
f 173/173/9 174/174/9 175/175/9
f 176/176/5 177/177/5 178/178/5
f 178/178/5 177/177/5 179/179/5
f 180/180/7 181/181/7 182/182/7
f 182/182/7 181/181/7 183/183/7
f 184/184/35 185/185/35 186/186/35
f 187/187/3 188/188/3 189/189/3
f 189/189/3 188/188/3 190/190/3
f 191/191/4 192/192/4 193/193/4
f 194/194/5 195/195/5 196/196/5
f 196/196/5 195/195/5 197/197/5
f 198/198/7 199/199/6 200/200/7
f 200/200/7 199/199/6 201/201/6
f 202/202/12 203/203/12 204/204/12
f 205/205/3 206/206/3 207/207/3
f 207/207/3 206/206/3 208/208/3
f 209/209/9 210/210/9 211/211/9
f 212/212/5 213/213/5 214/214/5
f 214/214/5 213/213/5 215/215/5
f 216/216/7 217/217/6 218/218/7
f 218/218/7 217/217/6 219/219/6
f 220/220/12 221/221/12 222/222/12
f 223/223/8 224/224/8 225/225/3
f 225/225/3 224/224/8 226/226/3
f 227/227/4 228/228/4 229/229/4
f 230/230/5 231/231/5 232/232/5
f 232/232/5 231/231/5 233/233/5
f 234/234/7 235/235/6 236/236/7
f 236/236/7 235/235/6 237/237/6
f 238/238/12 239/239/12 240/240/12
f 241/241/3 242/242/3 243/243/3
f 243/243/3 242/242/3 244/244/3
f 245/245/4 246/246/4 247/247/4
f 248/248/10 249/249/5 250/250/10
f 250/250/10 249/249/5 251/251/5
f 252/252/6 253/253/7 254/254/6
f 254/254/6 253/253/7 255/255/7
f 256/256/36 257/257/37 258/258/38
f 258/258/38 257/257/37 259/259/39
f 257/257/37 260/260/40 259/259/39
f 259/259/39 260/260/40 261/261/41
f 260/260/40 262/262/42 261/261/41
f 261/261/41 262/262/42 263/263/43
f 264/264/42 265/265/44 266/266/43
f 266/266/43 265/265/44 267/267/45
f 265/265/44 256/256/36 267/267/45
f 267/267/45 256/256/36 258/258/38
f 268/268/46 269/269/46 270/270/46
f 271/271/46 272/272/46 270/270/46
f 273/273/46 274/274/46 270/270/46
f 275/275/46 276/276/46 270/270/46
f 277/277/46 278/278/46 270/270/46
f 279/279/47 280/280/47 281/281/47
f 280/280/47 282/282/47 281/281/47
f 282/282/47 283/283/47 281/281/47
